<?xml version="1.0" encoding="UTF-8"?>
<svg id="Layer_1" data-name="Layer 1" xmlns="http://www.w3.org/2000/svg" viewBox="0 0 417 417">
  <path d="M26.36,9.55c9.13,1.35,16.17,9.29,14.82,16.93-1.35,8.84-8.98,14.53-17.07,12.73-4.49-1.05-11.83-8.54-11.83-12.14,0-1.2-.6-2.1-1.35-2.1-2.1,0,0,6.44,3.44,10.34,4.19,4.64,11.23,7.49,16.17,6.59,6.14-1.2,13.17-9.89,13.17-16.33,0-9.44-8.23-17.38-17.51-16.93l-4.19,.3,4.34,.6Z"/>
  <path d="M72.77,10c-1.8,.75-3.74,1.95-4.19,2.85-.6,.9,.9,.6,3.14-.6,5.99-3.15,11.38-2.7,15.87,1.05,6.14,5.39,7.19,10.19,4.04,17.23-2.1,4.64-4.04,6.59-8.08,8.09-2.99,1.05-5.39,2.55-5.39,3.15,0,1.65,.75,1.5,6.74-.9,8.83-3.75,13.47-14.68,9.43-22.32-4.64-8.69-13.02-11.99-21.56-8.54Z"/>
  <path d="M123.81,10.15c-1.8,.9-4.04,3-5.09,4.79-1.65,2.7-1.2,2.55,2.69-.9,11.68-9.74,27.25,.6,22.75,15.28-4.49,15.43-27.1,11.69-27.69-4.34-.15-5.39-2.4-5.99-2.4-.75,0,12.14,13.17,21.12,23.35,16.33,8.68-4.19,12.72-14.08,8.83-21.72-4.34-8.24-14.82-12.43-22.45-8.69Z"/>
  <path d="M228.6,10c-1.95,.9-.75,1.05,3.74,.45,6.14-.75,7.34-.3,11.83,3.9,5.54,5.24,6.44,5.54,5.24,2.4-1.35-3.15-10.03-8.24-14.22-8.09-1.95,0-4.94,.6-6.59,1.35Z"/>
  <path d="M289.08,10c5.99,1.5,12.43,7.94,12.43,12.43,0,8.09-3.44,13.78-9.58,15.88-9.58,3.3-19.16-3.3-19.16-13.33,0-2.4-.6-4.49-1.5-4.49-2.25,0-1.8,5.69,.75,10.94,4.94,10.04,15.87,13.33,24.4,7.19,5.54-3.9,8.53-12.88,6.44-18.43-2.1-5.39-10.18-11.69-14.82-11.54-3.59,.15-3.59,.3,1.05,1.35Z"/>
  <path d="M331.6,10.45c-4.19,2.4-10.03,9.89-8.68,11.24,.6,.6,1.5,0,1.95-1.2s2.69-4.05,4.94-6.29c7.04-7.04,17.37-4.79,22.45,4.94,1.5,2.85,2.69,4.05,2.84,2.85,.15-5.84-9.58-13.48-16.77-13.48-1.95,.15-4.94,.9-6.74,1.95Z"/>
  <path d="M383.39,10.75c-2.1,1.2-5.09,3.75-6.44,5.84-2.84,4.34-2.99,5.39-.9,5.39,.9,0,1.5-.9,1.5-2.1,0-3.3,8.68-9.89,12.87-9.89,8.98,0,15.87,7.19,14.97,15.58-1.95,16.63-25,18.43-28.59,2.25-.6-2.4-1.65-4.34-2.4-4.34-1.8,0-1.65,.75,.75,6.44,2.25,5.24,7.78,10.64,12.57,12.14,4.19,1.35,12.57-2.4,16.47-7.34,10.48-13.33-5.84-32.06-20.81-23.97Z"/>
  <path d="M172.32,12.84c-1.95,1.65-3.29,3.15-2.84,3.45s2.4-.9,4.34-2.85c4.34-4.19,3.29-4.49-1.5-.6Z"/>
  <path d="M188.93,11.5c0,.75,.9,1.5,1.95,1.5,3.89,.15,7.34,7.34,6.29,13.33-1.35,7.94-6.74,12.88-14.37,12.88-7.04,0-11.68-4.05-14.22-12.43l-1.8-5.54-.15,4.64c-.15,5.69,4.04,11.39,10.93,14.68,6.59,3.15,11.08,2.1,17.22-3.9,3.74-3.6,4.64-5.84,4.64-10.79,0-3.45-1.05-7.79-2.4-9.59-2.69-3.9-8.08-7.19-8.08-4.79Z"/>
  <path d="M275.16,14.04c-2.1,2.1-3.59,4.19-3.14,4.64s1.95-.6,3.14-2.55c1.35-1.8,3.89-3.9,5.69-4.64,2.25-.9,2.4-1.35,.75-1.35-1.35-.15-4.19,1.65-6.44,3.9Z"/>
  <path d="M249.26,24.98c-.45,6.29-4.49,11.54-10.33,13.78-2.84,.9-5.09,2.4-5.09,3,0,4.19,13.02-3.45,16.02-9.29,2.1-4.05,2.54-11.99,.9-11.99-.75,0-1.35,1.95-1.5,4.49Z"/>
  <path d="M61.84,23.93c-.3,6.89,8.38,17.53,14.07,17.53,2.4,0,.15-2.55-3.29-3.9-3.89-1.5-5.24-3.3-9.13-12.58-1.2-2.85-1.65-3.15-1.65-1.05Z"/>
  <path d="M218.27,27.53c1.65,7.19,14.07,18.13,14.07,12.43,0-.9-.9-1.5-2.1-1.5-2.54,0-9.88-8.39-9.88-11.24,0-1.2-.75-2.55-1.5-3-1.05-.6-1.2,.45-.6,3.3Z"/>
  <path d="M322.17,26.03c0,4.79,5.99,12.58,11.23,14.83,5.84,2.4,10.33,1.8,15.42-2.4,3.74-3.15,8.68-13.48,6.29-13.48-.75,0-1.5,1.05-1.5,2.25,0,4.34-4.64,9.59-9.88,11.24-8.83,3-18.56-3.15-18.56-11.54,0-1.95-.6-3.45-1.5-3.45-.75,0-1.5,1.2-1.5,2.55Z"/>
  <path d="M29.95,61.98c1.8,.3,3.29,1.2,3.29,1.95s1.35,1.65,2.84,2.25c7.78,2.4,5.24,21.42-3.14,24.12-9.28,2.85-15.42,0-20.81-9.89q-2.84-5.24-1.95-.75c1.5,7.19,8.08,12.88,15.87,13.78,6.14,.75,7.19,.3,12.28-4.64,4.49-4.49,5.39-6.59,5.39-11.54s-.9-7.04-5.09-11.24c-3.14-3.15-6.44-4.94-8.53-4.94q-3.59,.3-.15,.9Z"/>
  <path d="M68.58,64.68c-2.1,1.95-3.89,4.05-3.89,4.64s1.95-.6,4.19-2.85c7.63-7.34,19.01-4.64,23.5,5.54,4.49,10.19-7.63,22.77-18.11,18.88-4.49-1.8-9.58-7.49-9.58-10.79,0-1.5-.75-2.7-1.65-2.7-2.54,0,.15,6.29,4.64,11.09,2.99,3.15,5.99,4.49,10.78,4.94,5.69,.6,7.04,.15,11.23-4.05,5.99-5.84,7.63-12.88,4.34-19.03-4.94-9.74-17.96-12.73-25.45-5.69Z"/>
  <path d="M134.29,62.28c1.65,.75,4.94,3.15,7.19,5.54,3.74,3.75,4.19,5.09,3.29,10.19-1.05,7.04-2.99,9.74-8.83,12.14-7.93,3.3-18.86-2.4-18.86-9.89,0-1.5-.6-2.85-1.5-2.85-2.4,0-1.8,3.3,1.35,8.09,5.99,8.99,16.32,10.94,23.95,4.49,5.24-4.34,8.08-12.73,6.14-17.68-1.65-4.34-9.88-11.39-13.17-11.24-2.1,0-1.95,.3,.45,1.2Z"/>
  <path d="M173.36,64.08c-2.1,1.65-3.89,3.6-3.89,4.34s1.8-.3,3.89-2.25c2.84-2.55,5.84-3.75,9.58-3.75,5.24,0,13.32,5.09,13.62,8.54,0,.6,.3,2.85,.75,4.79,.9,4.94-4.64,13.03-10.18,14.98-6.74,2.4-14.82-1.8-16.92-8.54-1.5-5.39-3.74-6.44-3.74-1.65,0,1.8,2.4,5.54,5.39,8.24,4.19,4.05,6.59,5.09,11.08,5.09s6.89-1.05,11.08-5.09c4.49-4.19,5.39-5.99,5.39-11.39,0-13.18-15.87-21.42-26.05-13.33Z"/>
  <path d="M227.11,62.58c-3.89,1.95-8.68,8.39-7.78,10.79,.45,1.05,1.35,0,2.25-2.1,2.1-5.39,7.34-8.84,13.47-8.84,6.74,0,14.22,7.04,14.22,13.33,0,2.55,.6,4.64,1.35,4.64,4.04,0-1.05-13.18-6.59-17.08-3.74-2.7-12.28-3-16.92-.75Z"/>
  <path d="M278.15,63.18c-2.99,2.25-8.38,9.74-8.38,11.54,0,.75,.75,1.2,1.5,1.2,.9,0,1.5-.9,1.5-2.1s1.8-4.19,3.89-6.74c7.34-8.84,20.06-5.09,24.7,7.04,.9,2.25,.9,4.34,0,5.39-.75,.9-1.35,2.25-1.5,3.15,0,2.55-5.99,7.79-9.43,8.54-6.14,.9-9.88-.45-14.52-5.24-2.54-2.55-4.64-3.9-4.64-3,0,1.05,2.54,3.75,5.54,6.29,7.48,6.14,13.62,6.14,20.51,.15,8.68-7.64,8.53-17.23-.45-25.02-4.49-4.05-14.22-4.64-18.71-1.2Z"/>
  <path d="M327.26,66.48c-4.94,5.39-6.59,9.44-3.59,9.44,.9,0,1.5-1.2,1.5-2.85,0-1.5,1.8-4.49,3.89-6.74,5.69-5.54,14.07-5.39,20.21,.45,5.84,5.69,6.14,11.69,.9,18.58-4.34,5.84-8.38,7.04-15.72,5.24-3.89-1.05-5.69-2.7-7.48-7.19-1.5-3.3-2.99-5.99-3.59-5.99-3.59,0,1.65,10.64,6.89,14.08,6.44,4.19,13.92,3.15,19.76-2.7,7.48-7.49,7.48-15.73-.15-23.07-4.19-3.75-6.44-4.79-11.38-4.79-5.24,0-7.04,.9-11.23,5.54Z"/>
  <path d="M379.65,66.03c-5.09,5.09-6.44,8.39-3.59,8.39,.9,0,1.5-.9,1.5-1.95,.15-4.64,5.84-9.14,12.87-10.19l7.34-.9-6.44-.3c-5.69-.15-7.34,.6-11.68,4.94Z"/>
  <path d="M398.51,62.73c0,.6,1.8,2.85,3.89,5.24,11.83,12.88-8.83,31.46-21.41,19.03-2.1-2.1-4.19-3.45-4.64-2.85-.45,.45,1.05,2.7,3.44,4.79,2.99,2.85,6.14,4.05,10.78,4.34,5.69,.3,7.19-.3,11.68-4.79,7.04-7.04,7.34-14.83,.75-21.87-2.4-2.7-4.49-4.49-4.49-3.9Z"/>
  <path d="M219.02,80.71c2.1,7.79,7.63,12.14,15.42,12.58,5.69,.3,7.48-.3,11.38-3.9,4.49-4.19,5.84-7.49,2.99-7.49-.75,0-1.5,.6-1.5,1.5,0,3.6-6.74,7.49-12.87,7.49-5.24,0-7.04-.75-10.18-4.64-2.1-2.55-3.89-5.84-3.89-7.49,0-1.5-.6-2.85-1.35-2.85-.9,0-.9,1.8,0,4.79Z"/>
  <path d="M175.01,300.79c1.05,1.05,2.25,1.5,2.69,1.05s-.3-1.35-1.8-1.8c-2.1-.9-2.25-.75-.9,.75Z"/>
  <path d="M14.68,327.01c-2.99,3-5.39,5.99-5.39,6.59,0,.75,2.54-1.35,5.69-4.49,4.94-4.79,6.59-5.54,10.93-5.09,10.18,1.2,13.32,4.49,13.62,14.08,.15,5.84-2.4,10.79-7.48,13.93-2.54,1.5-3.14,2.55-1.65,2.55,3.44,0,11.53-9.14,11.83-13.48,.6-7.49-.15-9.44-5.39-14.38-7.48-7.19-14.82-7.04-22.16,.3Z"/>
  <path d="M70.37,323.72c-3.89,2.85-3.29,4.34,.75,2.1,5.69-3.15,11.08-2.55,16.17,1.8,4.04,3.3,4.79,4.94,4.64,9.74-.75,17.83-20.96,22.17-28.14,5.99-1.65-3.6-1.95-3.9-2.1-1.35,0,3.9,5.99,10.64,11.38,12.58,12.87,4.94,27.54-13.78,19.31-24.57-5.69-7.49-16.47-10.64-22.01-6.29Z"/>
  <path d="M120.07,326.11c-2.84,2.4-4.34,4.34-3.29,4.49,.9,0,1.8-.6,1.8-1.35,0-1.5,7.78-4.94,12.57-5.39,4.64-.6,11.08,4.94,12.72,10.64,2.54,9.14-4.79,18.58-14.67,18.88-5.69,.15-11.38-4.64-13.77-11.84-2.1-6.59-3.29-5.69-1.35,1.05,5.39,18.58,30.39,16.03,32.48-3.45,.75-5.99,.3-7.04-4.64-12.14-7.19-7.04-14.37-7.49-21.86-.9Z"/>
  <path d="M171.72,326.26c-5.09,4.49-6.59,7.34-3.89,7.34,.75,0,1.8-1.2,2.4-2.7,1.8-6.14,14.52-9.14,19.91-4.64,5.69,4.49,7.63,9.89,5.84,15.58-3.59,12.14-16.02,15.58-23.8,6.89-2.25-2.55-4.19-5.99-4.19-7.64s-.75-3-1.65-3-1.2,1.35-.6,3.3c1.95,6.29,5.39,10.49,10.78,12.58,15.87,6.74,30.09-14.98,17.81-27.27-6.59-6.59-15.42-6.74-22.6-.45Z"/>
  <path d="M224.11,326.26c-2.84,2.55-4.79,5.24-4.34,5.99s0,1.35-.75,1.35c-2.84,0-1.8,8.39,1.8,13.63,1.8,2.7,5.69,5.84,8.68,7.04,10.48,4.05,21.56-4.49,21.56-16.63,0-4.79-1.05-6.74-5.69-10.94-7.34-6.74-13.77-6.89-21.26-.45Zm18.26-.3c1.65,.75,4.04,3.6,5.24,6.29,4.64,9.29-2.69,21.12-12.87,21.12-6.44,0-10.93-3.3-13.92-10.49-1.8-4.19-1.65-5.39,.45-9.59,4.79-9.14,12.72-11.99,21.11-7.34Z"/>
  <path d="M279.05,323.57c-3.59,2.1-8.83,8.54-6.74,8.54,.6,0,2.99-1.95,5.24-4.34,2.54-2.55,5.54-4.05,7.48-3.75,1.95,.15,4.49,.45,5.84,.45,3.44,.15,10.33,7.49,10.33,10.79,0,1.65,.6,2.85,1.35,2.85,2.99,0-.6-7.94-5.54-11.99-5.84-4.79-12.13-5.69-17.96-2.55Z"/>
  <path d="M334.14,323.27c0,1.05,1.35,1.35,3.29,.9,3.44-.9,10.03,1.8,13.02,5.54,5.84,7.04,2.25,19.03-6.89,22.77-8.68,3.75-18.71-3.6-18.71-13.48,0-6.89-2.1-7.04-2.4-.3-.3,5.84,3.74,11.84,10.33,15.28,3.44,1.8,5.54,1.95,10.33,.6,7.48-2.1,11.98-8.09,11.98-16.48s-7.48-16.48-15.57-16.48c-2.99,0-5.39,.75-5.39,1.65Z"/>
  <path d="M379.5,326.86c-2.84,2.85-4.79,5.84-4.34,6.59,.6,.75,.3,1.8-.45,2.25-1.65,1.05,0,7.64,2.99,12.43,2.84,4.64,10.93,8.09,16.32,6.89,5.99-1.2,12.87-8.09,13.77-13.78,1.5-10.04-6.89-19.63-17.07-19.63-4.79,0-7.04,1.05-11.23,5.24Zm21.41,1.5c5.69,5.39,6.44,10.19,2.69,17.38-2.84,5.54-10.93,9.44-15.87,7.49-13.62-5.24-14.07-24.87-.75-28.32,7.34-1.95,8.53-1.65,13.92,3.45Z"/>
  <path d="M9.29,342.59c1.8,6.29,4.19,8.99,10.03,11.54,7.78,3.15,9.28,2.1,2.1-1.5-4.19-2.1-7.63-5.24-9.28-8.24-3.59-7.04-4.49-7.49-2.84-1.8Z"/>
  <path d="M269.77,340.65c0,3.15,6.44,11.09,10.63,13.33,4.04,1.95,5.84,2.1,10.48,.75,6.29-1.95,11.83-7.94,11.83-12.73,0-2.55-.6-2.1-2.54,1.8-5.24,10.64-16.02,13.03-23.2,5.09-2.25-2.7-4.19-5.84-4.19-7.04s-.6-2.25-1.5-2.25c-.75,0-1.5,.45-1.5,1.05Z"/>
  <path d="M26.67,113.23c9.13,1.35,16.17,9.29,14.82,16.93-1.35,8.84-8.98,14.53-17.07,12.73-4.49-1.05-11.83-8.54-11.83-12.14,0-1.2-.6-2.1-1.35-2.1-2.1,0,0,6.44,3.44,10.34,4.19,4.64,11.23,7.49,16.17,6.59,6.14-1.2,13.17-9.89,13.17-16.33,0-9.44-8.23-17.38-17.51-16.93l-4.19,.3,4.34,.6Z"/>
  <path d="M73.08,113.68c-1.8,.75-3.74,1.95-4.19,2.85-.6,.9,.9,.6,3.14-.6,5.99-3.15,11.38-2.7,15.87,1.05,6.14,5.39,7.19,10.19,4.04,17.23-2.1,4.64-4.04,6.59-8.08,8.09-2.99,1.05-5.39,2.55-5.39,3.15,0,1.65,.75,1.5,6.74-.9,8.83-3.75,13.47-14.68,9.43-22.32-4.64-8.69-13.02-11.99-21.56-8.54Z"/>
  <path d="M124.12,113.83c-1.8,.9-4.04,3-5.09,4.79-1.65,2.7-1.2,2.55,2.69-.9,11.68-9.74,27.25,.6,22.75,15.28-4.49,15.43-27.1,11.69-27.69-4.34-.15-5.39-2.4-5.99-2.4-.75,0,12.14,13.17,21.12,23.35,16.33,8.68-4.19,12.72-14.08,8.83-21.72-4.34-8.24-14.82-12.43-22.45-8.69Z"/>
  <path d="M228.91,113.68c-1.95,.9-.75,1.05,3.74,.45,6.14-.75,7.34-.3,11.83,3.9,5.54,5.24,6.44,5.54,5.24,2.4-1.35-3.15-10.03-8.24-14.22-8.09-1.95,0-4.94,.6-6.59,1.35Z"/>
  <path d="M289.39,113.68c5.99,1.5,12.43,7.94,12.43,12.43,0,8.09-3.44,13.78-9.58,15.88-9.58,3.3-19.16-3.3-19.16-13.33,0-2.4-.6-4.49-1.5-4.49-2.25,0-1.8,5.69,.75,10.94,4.94,10.04,15.87,13.33,24.4,7.19,5.54-3.9,8.53-12.88,6.44-18.43-2.1-5.39-10.18-11.69-14.82-11.54-3.59,.15-3.59,.3,1.05,1.35Z"/>
  <path d="M331.91,114.12c-4.19,2.4-10.03,9.89-8.68,11.24,.6,.6,1.5,0,1.95-1.2s2.69-4.05,4.94-6.29c7.04-7.04,17.37-4.79,22.45,4.94,1.5,2.85,2.69,4.05,2.84,2.85,.15-5.84-9.58-13.48-16.77-13.48-1.95,.15-4.94,.9-6.74,1.95Z"/>
  <path d="M383.7,114.42c-2.1,1.2-5.09,3.75-6.44,5.84-2.84,4.34-2.99,5.39-.9,5.39,.9,0,1.5-.9,1.5-2.1,0-3.3,8.68-9.89,12.87-9.89,8.98,0,15.87,7.19,14.97,15.58-1.95,16.63-25,18.43-28.59,2.25-.6-2.4-1.65-4.34-2.4-4.34-1.8,0-1.65,.75,.75,6.44,2.25,5.24,7.78,10.64,12.57,12.14,4.19,1.35,12.57-2.4,16.47-7.34,10.48-13.33-5.84-32.06-20.81-23.97Z"/>
  <path d="M189.24,115.17c0,.75,.9,1.5,1.95,1.5,3.89,.15,7.34,7.34,6.29,13.33-1.35,7.94-6.74,12.88-14.37,12.88-7.04,0-11.68-4.05-14.22-12.43l-1.8-5.54-.15,4.64c-.15,5.69,4.04,11.39,10.93,14.68,6.59,3.15,11.08,2.1,17.22-3.9,3.74-3.6,4.64-5.84,4.64-10.79,0-3.45-1.05-7.79-2.4-9.59-2.69-3.9-8.08-7.19-8.08-4.79Z"/>
  <path d="M249.57,128.66c-.45,6.29-4.49,11.54-10.33,13.78-2.84,.9-5.09,2.4-5.09,3,0,4.19,13.02-3.45,16.02-9.29,2.1-4.05,2.54-11.99,.9-11.99-.75,0-1.35,1.95-1.5,4.49Z"/>
  <path d="M62.15,127.61c-.3,6.89,8.38,17.53,14.07,17.53,2.4,0,.15-2.55-3.29-3.9-3.89-1.5-5.24-3.3-9.13-12.58-1.2-2.85-1.65-3.15-1.65-1.05Z"/>
  <path d="M218.58,131.2c1.65,7.19,14.07,18.13,14.07,12.43,0-.9-.9-1.5-2.1-1.5-2.54,0-9.88-8.39-9.88-11.24,0-1.2-.75-2.55-1.5-3-1.05-.6-1.2,.45-.6,3.3Z"/>
  <path d="M322.48,129.71c0,4.79,5.99,12.58,11.23,14.83,5.84,2.4,10.33,1.8,15.42-2.4,3.74-3.15,8.68-13.48,6.29-13.48-.75,0-1.5,1.05-1.5,2.25,0,4.34-4.64,9.59-9.88,11.24-8.83,3-18.56-3.15-18.56-11.54,0-1.95-.6-3.45-1.5-3.45-.75,0-1.5,1.2-1.5,2.55Z"/>
  <path d="M30.26,165.66c1.8,.3,3.29,1.2,3.29,1.95s1.35,1.65,2.84,2.25c7.78,2.4,5.24,21.42-3.14,24.12-9.28,2.85-15.42,0-20.81-9.89q-2.84-5.24-1.95-.75c1.5,7.19,8.08,12.88,15.87,13.78,6.14,.75,7.19,.3,12.28-4.64,4.49-4.49,5.39-6.59,5.39-11.54s-.9-7.04-5.09-11.24c-3.14-3.15-6.44-4.94-8.53-4.94q-3.59,.3-.15,.9Z"/>
  <path d="M68.88,168.36c-2.1,1.95-3.89,4.05-3.89,4.64s1.95-.6,4.19-2.85c7.63-7.34,19.01-4.64,23.5,5.54,4.49,10.19-7.63,22.77-18.11,18.88-4.49-1.8-9.58-7.49-9.58-10.79,0-1.5-.75-2.7-1.65-2.7-2.54,0,.15,6.29,4.64,11.09,2.99,3.15,5.99,4.49,10.78,4.94,5.69,.6,7.04,.15,11.23-4.05,5.99-5.84,7.63-12.88,4.34-19.03-4.94-9.74-17.96-12.73-25.45-5.69Z"/>
  <path d="M123.38,166.11c-1.65,1.2-1.05,1.35,2.25,.6,5.54-1.2,6.74-2.1,2.84-2.1-1.5,0-3.89,.75-5.09,1.5Z"/>
  <path d="M134.6,165.96c1.65,.75,4.94,3.15,7.19,5.54,3.74,3.75,4.19,5.09,3.29,10.19-1.05,7.04-2.99,9.74-8.83,12.14-7.93,3.3-18.86-2.4-18.86-9.89,0-1.5-.6-2.85-1.5-2.85-2.4,0-1.8,3.3,1.35,8.09,5.99,8.99,16.32,10.94,23.95,4.49,5.24-4.34,8.08-12.73,6.14-17.68-1.65-4.34-9.88-11.39-13.17-11.24-2.1,0-1.95,.3,.45,1.2Z"/>
  <path d="M173.67,167.76c-2.1,1.65-3.89,3.6-3.89,4.34s1.8-.3,3.89-2.25c2.84-2.55,5.84-3.75,9.58-3.75,5.24,0,13.32,5.09,13.62,8.54,0,.6,.3,2.85,.75,4.79,.9,4.94-4.64,13.03-10.18,14.98-6.74,2.4-14.82-1.8-16.92-8.54-1.5-5.39-3.74-6.44-3.74-1.65,0,1.8,2.4,5.54,5.39,8.24,4.19,4.05,6.59,5.09,11.08,5.09s6.89-1.05,11.08-5.09c4.49-4.19,5.39-5.99,5.39-11.39,0-13.18-15.87-21.42-26.05-13.33Z"/>
  <path d="M227.42,166.26c-3.89,1.95-8.68,8.39-7.78,10.79,.45,1.05,1.35,0,2.25-2.1,2.1-5.39,7.34-8.84,13.47-8.84,6.74,0,14.22,7.04,14.22,13.33,0,2.55,.6,4.64,1.35,4.64,4.04,0-1.05-13.18-6.59-17.08-3.74-2.7-12.28-3-16.92-.75Z"/>
  <path d="M278.46,166.86c-2.99,2.25-8.38,9.74-8.38,11.54,0,.75,.75,1.2,1.5,1.2,.9,0,1.5-.9,1.5-2.1s1.8-4.19,3.89-6.74c7.34-8.84,20.06-5.09,24.7,7.04,.9,2.25,.9,4.34,0,5.39-.75,.9-1.35,2.25-1.5,3.15,0,2.55-5.99,7.79-9.43,8.54-6.14,.9-9.88-.45-14.52-5.24-2.54-2.55-4.64-3.9-4.64-3,0,1.05,2.54,3.75,5.54,6.29,7.48,6.14,13.62,6.14,20.51,.15,8.68-7.64,8.53-17.23-.45-25.02-4.49-4.05-14.22-4.64-18.71-1.2Z"/>
  <path d="M327.57,170.16c-4.94,5.39-6.59,9.44-3.59,9.44,.9,0,1.5-1.2,1.5-2.85,0-1.5,1.8-4.49,3.89-6.74,5.69-5.54,14.07-5.39,20.21,.45,5.84,5.69,6.14,11.69,.9,18.58-4.34,5.84-8.38,7.04-15.72,5.24-3.89-1.05-5.69-2.7-7.48-7.19-1.5-3.3-2.99-5.99-3.59-5.99-3.59,0,1.65,10.64,6.89,14.08,6.44,4.19,13.92,3.15,19.76-2.7,7.48-7.49,7.48-15.73-.15-23.07-4.19-3.75-6.44-4.79-11.38-4.79-5.24,0-7.04,.9-11.23,5.54Z"/>
  <path d="M379.96,169.71c-5.09,5.09-6.44,8.39-3.59,8.39,.9,0,1.5-.9,1.5-1.95,.15-4.64,5.84-9.14,12.87-10.19l7.34-.9-6.44-.3c-5.69-.15-7.34,.6-11.68,4.94Z"/>
  <path d="M398.82,166.41c0,.6,1.8,2.85,3.89,5.24,11.83,12.88-8.83,31.46-21.41,19.03-2.1-2.1-4.19-3.45-4.64-2.85-.45,.45,1.05,2.7,3.44,4.79,2.99,2.85,6.14,4.05,10.78,4.34,5.69,.3,7.19-.3,11.68-4.79,7.04-7.04,7.34-14.83,.75-21.87-2.4-2.7-4.49-4.49-4.49-3.9Z"/>
  <path d="M13.5,172.25c-3.74,6.29-2.4,6.59,1.65,.45,1.8-2.85,2.84-5.09,2.25-5.09s-2.4,2.1-3.89,4.64Z"/>
  <path d="M219.33,184.39c2.1,7.79,7.63,12.14,15.42,12.58,5.69,.3,7.48-.3,11.38-3.9,4.49-4.19,5.84-7.49,2.99-7.49-.75,0-1.5,.6-1.5,1.5,0,3.6-6.74,7.49-12.87,7.49-5.24,0-7.04-.75-10.18-4.64-2.1-2.55-3.89-5.84-3.89-7.49,0-1.5-.6-2.85-1.35-2.85-.9,0-.9,1.8,0,4.79Z"/>
  <path d="M26.81,217.46c9.13,1.35,16.17,9.29,14.82,16.93-1.35,8.84-8.98,14.53-17.07,12.73-4.49-1.05-11.83-8.54-11.83-12.14,0-1.2-.6-2.1-1.35-2.1-2.1,0,0,6.44,3.44,10.34,4.19,4.64,11.23,7.49,16.17,6.59,6.14-1.2,13.17-9.89,13.17-16.33,0-9.44-8.23-17.38-17.51-16.93l-4.19,.3,4.34,.6Z"/>
  <path d="M73.21,217.91c-1.8,.75-3.74,1.95-4.19,2.85-.6,.9,.9,.6,3.14-.6,5.99-3.15,11.38-2.7,15.87,1.05,6.14,5.39,7.19,10.19,4.04,17.23-2.1,4.64-4.04,6.59-8.08,8.09-2.99,1.05-5.39,2.55-5.39,3.15,0,1.65,.75,1.5,6.74-.9,8.83-3.75,13.47-14.68,9.43-22.32-4.64-8.69-13.02-11.99-21.56-8.54Z"/>
  <path d="M124.26,218.06c-1.8,.9-4.04,3-5.09,4.79-1.65,2.7-1.2,2.55,2.69-.9,11.68-9.74,27.25,.6,22.75,15.28-4.49,15.43-27.1,11.69-27.69-4.34-.15-5.39-2.4-5.99-2.4-.75,0,12.14,13.17,21.12,23.35,16.33,8.68-4.19,12.72-14.08,8.83-21.72-4.34-8.24-14.82-12.43-22.45-8.69Z"/>
  <path d="M229.05,217.91c-1.95,.9-.75,1.05,3.74,.45,6.14-.75,7.34-.3,11.83,3.9,5.54,5.24,6.44,5.54,5.24,2.4-1.35-3.15-10.03-8.24-14.22-8.09-1.95,0-4.94,.6-6.59,1.35Z"/>
  <path d="M289.53,217.91c5.99,1.5,12.43,7.94,12.43,12.43,0,8.09-3.44,13.78-9.58,15.88-9.58,3.3-19.16-3.3-19.16-13.33,0-2.4-.6-4.49-1.5-4.49-2.25,0-1.8,5.69,.75,10.94,4.94,10.04,15.87,13.33,24.4,7.19,5.54-3.9,8.53-12.88,6.44-18.43-2.1-5.39-10.18-11.69-14.82-11.54-3.59,.15-3.59,.3,1.05,1.35Z"/>
  <path d="M332.04,218.36c-4.19,2.4-10.03,9.89-8.68,11.24,.6,.6,1.5,0,1.95-1.2s2.69-4.05,4.94-6.29c7.04-7.04,17.37-4.79,22.45,4.94,1.5,2.85,2.69,4.05,2.84,2.85,.15-5.84-9.58-13.48-16.77-13.48-1.95,.15-4.94,.9-6.74,1.95Z"/>
  <path d="M383.84,218.66c-2.1,1.2-5.09,3.75-6.44,5.84-2.84,4.34-2.99,5.39-.9,5.39,.9,0,1.5-.9,1.5-2.1,0-3.3,8.68-9.89,12.87-9.89,8.98,0,15.87,7.19,14.97,15.58-1.95,16.63-25,18.43-28.59,2.25-.6-2.4-1.65-4.34-2.4-4.34-1.8,0-1.65,.75,.75,6.44,2.25,5.24,7.78,10.64,12.57,12.14,4.19,1.35,12.57-2.4,16.47-7.34,10.48-13.33-5.84-32.06-20.81-23.97Z"/>
  <path d="M189.38,219.41c0,.75,.9,1.5,1.95,1.5,3.89,.15,7.34,7.34,6.29,13.33-1.35,7.94-6.74,12.88-14.37,12.88-7.04,0-11.68-4.05-14.22-12.43l-1.8-5.54-.15,4.64c-.15,5.69,4.04,11.39,10.93,14.68,6.59,3.15,11.08,2.1,17.22-3.9,3.74-3.6,4.64-5.84,4.64-10.79,0-3.45-1.05-7.79-2.4-9.59-2.69-3.9-8.08-7.19-8.08-4.79Z"/>
  <path d="M275.61,221.95c-2.1,2.1-3.59,4.19-3.14,4.64s1.95-.6,3.14-2.55c1.35-1.8,3.89-3.9,5.69-4.64,2.25-.9,2.4-1.35,.75-1.35-1.35-.15-4.19,1.65-6.44,3.9Z"/>
  <path d="M249.71,232.89c-.45,6.29-4.49,11.54-10.33,13.78-2.84,.9-5.09,2.4-5.09,3,0,4.19,13.02-3.45,16.02-9.29,2.1-4.05,2.54-11.99,.9-11.99-.75,0-1.35,1.95-1.5,4.49Z"/>
  <path d="M62.29,231.84c-.3,6.89,8.38,17.53,14.07,17.53,2.4,0,.15-2.55-3.29-3.9-3.89-1.5-5.24-3.3-9.13-12.58-1.2-2.85-1.65-3.15-1.65-1.05Z"/>
  <path d="M218.72,235.44c1.65,7.19,14.07,18.13,14.07,12.43,0-.9-.9-1.5-2.1-1.5-2.54,0-9.88-8.39-9.88-11.24,0-1.2-.75-2.55-1.5-3-1.05-.6-1.2,.45-.6,3.3Z"/>
  <path d="M322.61,233.94c0,4.79,5.99,12.58,11.23,14.83,5.84,2.4,10.33,1.8,15.42-2.4,3.74-3.15,8.68-13.48,6.29-13.48-.75,0-1.5,1.05-1.5,2.25,0,4.34-4.64,9.59-9.88,11.24-8.83,3-18.56-3.15-18.56-11.54,0-1.95-.6-3.45-1.5-3.45-.75,0-1.5,1.2-1.5,2.55Z"/>
  <path d="M30.4,269.89c1.8,.3,3.29,1.2,3.29,1.95s1.35,1.65,2.84,2.25c7.78,2.4,5.24,21.42-3.14,24.12-9.28,2.85-15.42,0-20.81-9.89q-2.84-5.24-1.95-.75c1.5,7.19,8.08,12.88,15.87,13.78,6.14,.75,7.19,.3,12.28-4.64,4.49-4.49,5.39-6.59,5.39-11.54s-.9-7.04-5.09-11.24c-3.14-3.15-6.44-4.94-8.53-4.94q-3.59,.3-.15,.9Z"/>
  <path d="M69.02,272.59c-2.1,1.95-3.89,4.05-3.89,4.64s1.95-.6,4.19-2.85c7.63-7.34,19.01-4.64,23.5,5.54s-7.63,22.77-18.11,18.88c-4.49-1.8-9.58-7.49-9.58-10.79,0-1.5-.75-2.7-1.65-2.7-2.54,0,.15,6.29,4.64,11.09,2.99,3.15,5.99,4.49,10.78,4.94,5.69,.6,7.04,.15,11.23-4.05,5.99-5.84,7.63-12.88,4.34-19.03-4.94-9.74-17.96-12.73-25.45-5.69Z"/>
  <path d="M123.51,270.34c-1.65,1.2-1.05,1.35,2.25,.6,5.54-1.2,6.74-2.1,2.84-2.1-1.5,0-3.89,.75-5.09,1.5Z"/>
  <path d="M134.74,270.19c1.65,.75,4.94,3.15,7.19,5.54,3.74,3.75,4.19,5.09,3.29,10.19-1.05,7.04-2.99,9.74-8.83,12.14-7.93,3.3-18.86-2.4-18.86-9.89,0-1.5-.6-2.85-1.5-2.85-2.4,0-1.8,3.3,1.35,8.09,5.99,8.99,16.32,10.94,23.95,4.49,5.24-4.34,8.08-12.73,6.14-17.68-1.65-4.34-9.88-11.39-13.17-11.24-2.1,0-1.95,.3,.45,1.2Z"/>
  <path d="M173.81,271.99c-2.1,1.65-3.89,3.6-3.89,4.34s1.8-.3,3.89-2.25c2.84-2.55,5.84-3.75,9.58-3.75,5.24,0,13.32,5.09,13.62,8.54,0,.6,.3,2.85,.75,4.79,.9,4.94-4.64,13.03-10.18,14.98-6.74,2.4-14.82-1.8-16.92-8.54-1.5-5.39-3.74-6.44-3.74-1.65,0,1.8,2.4,5.54,5.39,8.24,4.19,4.05,6.59,5.09,11.08,5.09s6.89-1.05,11.08-5.09c4.49-4.19,5.39-5.99,5.39-11.39,0-13.18-15.87-21.42-26.05-13.33Z"/>
  <path d="M227.55,270.49c-3.89,1.95-8.68,8.39-7.78,10.79,.45,1.05,1.35,0,2.25-2.1,2.1-5.39,7.34-8.84,13.47-8.84,6.74,0,14.22,7.04,14.22,13.33,0,2.55,.6,4.64,1.35,4.64,4.04,0-1.05-13.18-6.59-17.08-3.74-2.7-12.28-3-16.92-.75Z"/>
  <path d="M278.6,271.09c-2.99,2.25-8.38,9.74-8.38,11.54,0,.75,.75,1.2,1.5,1.2,.9,0,1.5-.9,1.5-2.1s1.8-4.19,3.89-6.74c7.34-8.84,20.06-5.09,24.7,7.04,.9,2.25,.9,4.34,0,5.39-.75,.9-1.35,2.25-1.5,3.15,0,2.55-5.99,7.79-9.43,8.54-6.14,.9-9.88-.45-14.52-5.24-2.54-2.55-4.64-3.9-4.64-3,0,1.05,2.54,3.75,5.54,6.29,7.48,6.14,13.62,6.14,20.51,.15,8.68-7.64,8.53-17.23-.45-25.02-4.49-4.05-14.22-4.64-18.71-1.2Z"/>
  <path d="M327.7,274.39c-4.94,5.39-6.59,9.44-3.59,9.44,.9,0,1.5-1.2,1.5-2.85,0-1.5,1.8-4.49,3.89-6.74,5.69-5.54,14.07-5.39,20.21,.45,5.84,5.69,6.14,11.69,.9,18.58-4.34,5.84-8.38,7.04-15.72,5.24-3.89-1.05-5.69-2.7-7.48-7.19-1.5-3.3-2.99-5.99-3.59-5.99-3.59,0,1.65,10.64,6.89,14.08,6.44,4.19,13.92,3.15,19.76-2.7,7.48-7.49,7.48-15.73-.15-23.07-4.19-3.75-6.44-4.79-11.38-4.79-5.24,0-7.04,.9-11.23,5.54Z"/>
  <path d="M380.1,273.94c-5.09,5.09-6.44,8.39-3.59,8.39,.9,0,1.5-.9,1.5-1.95,.15-4.64,5.84-9.14,12.87-10.19l7.34-.9-6.44-.3c-5.69-.15-7.34,.6-11.68,4.94Z"/>
  <path d="M398.96,270.64c0,.6,1.8,2.85,3.89,5.24,11.83,12.88-8.83,31.46-21.41,19.03-2.1-2.1-4.19-3.45-4.64-2.85-.45,.45,1.05,2.7,3.44,4.79,2.99,2.85,6.14,4.05,10.78,4.34,5.69,.3,7.19-.3,11.68-4.79,7.04-7.04,7.34-14.83,.75-21.87-2.4-2.7-4.49-4.49-4.49-3.9Z"/>
  <path d="M13.63,276.49c-3.74,6.29-2.4,6.59,1.65,.45,1.8-2.85,2.84-5.09,2.25-5.09s-2.4,2.1-3.89,4.64Z"/>
  <path d="M219.47,288.62c2.1,7.79,7.63,12.14,15.42,12.58,5.69,.3,7.48-.3,11.38-3.9,4.49-4.19,5.84-7.49,2.99-7.49-.75,0-1.5,.6-1.5,1.5,0,3.6-6.74,7.49-12.87,7.49-5.24,0-7.04-.75-10.18-4.64-2.1-2.55-3.89-5.84-3.89-7.49,0-1.5-.6-2.85-1.35-2.85-.9,0-.9,1.8,0,4.79Z"/>
  <path d="M30.71,376.44c1.8,.3,3.29,1.2,3.29,1.95s1.35,1.65,2.84,2.25c7.78,2.4,5.24,21.42-3.14,24.12-9.28,2.85-15.42,0-20.81-9.89q-2.84-5.24-1.95-.75c1.5,7.19,8.08,12.88,15.87,13.78,6.14,.75,7.19,.3,12.28-4.64,4.49-4.49,5.39-6.59,5.39-11.54s-.9-7.04-5.09-11.24c-3.14-3.15-6.44-4.94-8.53-4.94q-3.59,.3-.15,.9Z"/>
  <path d="M69.33,379.14c-2.1,1.95-3.89,4.05-3.89,4.64s1.95-.6,4.19-2.85c7.63-7.34,19.01-4.64,23.5,5.54s-7.63,22.77-18.11,18.88c-4.49-1.8-9.58-7.49-9.58-10.79,0-1.5-.75-2.7-1.65-2.7-2.54,0,.15,6.29,4.64,11.09,2.99,3.15,5.99,4.49,10.78,4.94,5.69,.6,7.04,.15,11.23-4.05,5.99-5.84,7.63-12.88,4.34-19.03-4.94-9.74-17.96-12.73-25.45-5.69Z"/>
  <path d="M135.05,376.74c1.65,.75,4.94,3.15,7.19,5.54,3.74,3.75,4.19,5.09,3.29,10.19-1.05,7.04-2.99,9.74-8.83,12.14-7.93,3.3-18.86-2.4-18.86-9.89,0-1.5-.6-2.85-1.5-2.85-2.4,0-1.8,3.3,1.35,8.09,5.99,8.99,16.32,10.94,23.95,4.49,5.24-4.34,8.08-12.73,6.14-17.68-1.65-4.34-9.88-11.39-13.17-11.24-2.1,0-1.95,.3,.45,1.2Z"/>
  <path d="M174.12,378.54c-2.1,1.65-3.89,3.6-3.89,4.34s1.8-.3,3.89-2.25c2.84-2.55,5.84-3.75,9.58-3.75,5.24,0,13.32,5.09,13.62,8.54,0,.6,.3,2.85,.75,4.79,.9,4.94-4.64,13.03-10.18,14.98-6.74,2.4-14.82-1.8-16.92-8.54-1.5-5.39-3.74-6.44-3.74-1.65,0,1.8,2.4,5.54,5.39,8.24,4.19,4.05,6.59,5.09,11.08,5.09s6.89-1.05,11.08-5.09c4.49-4.19,5.39-5.99,5.39-11.39,0-13.18-15.87-21.42-26.05-13.33Z"/>
  <path d="M227.86,377.04c-3.89,1.95-8.68,8.39-7.78,10.79,.45,1.05,1.35,0,2.25-2.1,2.1-5.39,7.34-8.84,13.47-8.84,6.74,0,14.22,7.04,14.22,13.33,0,2.55,.6,4.64,1.35,4.64,4.04,0-1.05-13.18-6.59-17.08-3.74-2.7-12.28-3-16.92-.75Z"/>
  <path d="M278.91,377.64c-2.99,2.25-8.38,9.74-8.38,11.54,0,.75,.75,1.2,1.5,1.2,.9,0,1.5-.9,1.5-2.1s1.8-4.19,3.89-6.74c7.34-8.84,20.06-5.09,24.7,7.04,.9,2.25,.9,4.34,0,5.39-.75,.9-1.35,2.25-1.5,3.15,0,2.55-5.99,7.79-9.43,8.54-6.14,.9-9.88-.45-14.52-5.24-2.54-2.55-4.64-3.9-4.64-3,0,1.05,2.54,3.75,5.54,6.29,7.48,6.14,13.62,6.14,20.51,.15,8.68-7.64,8.53-17.23-.45-25.02-4.49-4.05-14.22-4.64-18.71-1.2Z"/>
  <path d="M328.01,380.93c-4.94,5.39-6.59,9.44-3.59,9.44,.9,0,1.5-1.2,1.5-2.85,0-1.5,1.8-4.49,3.89-6.74,5.69-5.54,14.07-5.39,20.21,.45,5.84,5.69,6.14,11.69,.9,18.58-4.34,5.84-8.38,7.04-15.72,5.24-3.89-1.05-5.69-2.7-7.48-7.19-1.5-3.3-2.99-5.99-3.59-5.99-3.59,0,1.65,10.64,6.89,14.08,6.44,4.19,13.92,3.15,19.76-2.7,7.48-7.49,7.48-15.73-.15-23.07-4.19-3.75-6.44-4.79-11.38-4.79-5.24,0-7.04,.9-11.23,5.54Z"/>
  <path d="M399.27,377.19c0,.6,1.8,2.85,3.89,5.24,11.83,12.88-8.83,31.46-21.41,19.03-2.1-2.1-4.19-3.45-4.64-2.85-.45,.45,1.05,2.7,3.44,4.79,2.99,2.85,6.14,4.05,10.78,4.34,5.69,.3,7.19-.3,11.68-4.79,7.04-7.04,7.34-14.83,.75-21.87-2.4-2.7-4.49-4.49-4.49-3.9Z"/>
  <path d="M219.78,395.17c2.1,7.79,7.63,12.14,15.42,12.58,5.69,.3,7.48-.3,11.38-3.9,4.49-4.19,5.84-7.49,2.99-7.49-.75,0-1.5,.6-1.5,1.5,0,3.6-6.74,7.49-12.87,7.49-5.24,0-7.04-.75-10.18-4.64-2.1-2.55-3.89-5.84-3.89-7.49,0-1.5-.6-2.85-1.35-2.85-.9,0-.9,1.8,0,4.79Z"/>
</svg>