<?xml version="1.0" encoding="UTF-8"?>
<svg id="Layer_1" data-name="Layer 1" xmlns="http://www.w3.org/2000/svg" viewBox="0 0 1513.51 467.63">
  <path d="M662.39,11.07c-27.29,12.81-39.23,25.62-51.17,54.74-15.35,37.85-14.21,39.02,42.64,39.02h51.17V52.41c0-59.4-1.71-60.56-42.64-41.35Zm24.45,38.44c-.57,26.79-6.82,43.09-13.65,36.11-2.27-2.33-7.39-1.16-11.94,2.33-3.98,4.08-7.39,4.08-7.39,1.16,0-3.49-6.25-4.66-14.21-2.91-11.37,1.75-14.21,0-14.21-9.9,0-15.72,35.82-52.99,51.17-52.99,9.67,0,11.37,3.49,10.23,26.21Z"/>
  <path d="M.03,253.33C.03,363.97,.59,455.98,1.73,458.31c.57,2.91,40.94,4.66,89.83,4.66,87.56,0,88.69,0,112.57-16.31,39.8-27.37,46.05-47.75,46.05-163.06,0-106.57-3.41-123.46-31.84-150.83-39.23-37.27-93.24-37.85-112-.58l-7.96,15.14-3.98-20.38c-3.98-23.29-32.41-55.32-58.56-66.39C-2.25,43.68,.03,31.45,.03,253.33ZM67.68,104.83c11.94,17.47,24.45,52.41,18.76,52.41-5.12,0-4.55,94.34,.57,103.08,2.27,3.49,1.71,8.15-1.71,10.48-2.84,1.75-5.69,6.41-5.69,10.48,0,3.49,3.98,1.16,8.53-5.24,5.12-6.99,10.23-8.74,12.51-5.24,5.69,7.57,38.09,11.65,33.54,4.08-1.71-2.91,3.41-4.66,10.8-4.08,13.65,1.75,24.45-13.98,17.06-25.62-1.71-2.91-.57-6.99,2.27-8.74,2.27-1.75,3.98-10.48,3.41-19.22-10.23-104.24-10.8-102.49,19.33-86.19,23.31,12.23,47.19,43.09,43.21,55.32-1.71,5.82-.57,12.81,3.41,14.56,4.55,3.49,3.98,5.82-1.14,9.32-5.69,3.49-5.69,5.24-1.14,5.24,8.53,0,7.39,64.06-1.14,64.06-3.98,0-3.98,1.75,0,4.66,6.82,4.66,8.53,48.34,1.71,44.26-2.27-1.75-4.55,1.16-4.55,6.41s2.84,7.57,5.69,5.82c4.55-2.91,4.55,13.39,0,26.21-1.14,1.75-1.14,5.24-.57,8.15,4.55,23.88-44.92,72.21-67.66,65.81-6.25-1.75-11.37-1.16-11.37,1.75,0,2.33-11.37,3.49-25.58,2.91-16.49-1.16-25.58,.58-25.58,4.66,0,4.66-1.71,5.24-4.55,1.16-6.25-9.32-36.96-10.48-31.84-1.16,3.41,5.24,2.84,5.24-3.98,0-4.55-4.08-13.65-5.82-19.9-4.08-22.17,5.24-27.86-5.82-27.86-55.91-.57-25.62,1.71-46.59,4.55-46.59,2.27,0,2.84-2.91,.57-6.99-5.69-8.74-6.82-45.42-1.71-45.42,2.27,0,1.14-7.57-2.27-17.47-4.55-12.81-4.55-22.13,0-34.94,3.41-9.32,4.55-17.47,2.27-17.47-2.84,0-4.55-8.15-5.12-17.47,0-9.9,2.27-17.47,5.12-17.47,3.41,0,3.98-3.49,1.14-7.57-6.25-10.48-6.82-86.77-.57-99,5.12-9.9,5.69-9.9,22.17,0,9.67,5.82,22.17,16.89,27.29,25.04Zm85.85,27.37c0,11.65-1.71,13.98-6.25,9.32-3.98-4.08-5.12-11.06-3.41-15.72,5.69-13.98,9.67-11.06,9.67,6.41Zm-17.06,1.75c0,2.91-3.98,5.82-9.1,5.82-4.55,0-6.82-2.91-5.12-5.82,1.71-3.49,5.69-5.82,9.1-5.82,2.84,0,5.12,2.33,5.12,5.82Zm11.37,72.21v48.92l-23.88,1.75-24.45,2.33v-101.91h48.33v48.92Z"/>
  <path d="M117.72,292.93c2.27,3.49,0,4.66-5.69,2.33-5.69-1.75-9.67-1.16-9.67,2.33s-2.27,4.66-5.12,2.33c-8.53-5.24-14.21,20.38-14.21,66.97-.57,40.76,5.12,60.56,15.35,54.16,2.27-1.16,3.98,.58,3.98,4.66s1.71,5.82,3.41,3.49c1.71-1.75,9.67-1.16,17.63,2.33,9.1,3.49,12.51,3.49,10.23-.58-1.71-3.49,.57-6.41,5.12-6.41,5.12-.58,12.51-1.16,16.49-1.75,4.55-.58,6.82-13.39,7.39-39.6,.57-21.55,2.84-41.35,4.55-44.26s1.14-6.99-1.14-9.32-3.98-7.57-4.55-11.06c0-4.08-1.14-12.23-1.71-18.64-.57-8.74-1.71-9.9-5.69-3.49-3.41,5.24-6.25,5.82-8.53,1.75-2.27-3.49-7.96-4.66-13.08-2.91-5.69,2.33-7.96,1.16-5.69-2.33,1.71-2.91,0-5.82-4.55-5.82s-6.25,2.91-4.55,5.82Zm30.13,68.14v52.41h-48.33v-104.82h48.33v52.41Z"/>
  <path d="M1006.36,258.57v207.32h102.34v-157.23h48.33v61.15c0,57.65,.57,61.73,14.78,76.29,11.94,11.65,22.17,15.72,50.03,18.05l34.68,3.49v-64.06c0-55.91-1.14-65.22-11.37-76.29-17.06-18.64-34.11-16.89-33.54,2.91,0,9.32,1.71,12.81,3.41,8.74,4.55-11.65,16.49-8.15,22.74,6.41,4.55,9.32,4.55,16.89,.57,24.46-4.55,7.57-4.55,9.32,1.14,5.82,5.12-3.49,5.12-1.75,.57,8.15-4.55,8.15-4.55,12.23-.57,12.23,8.53,0,4.55,13.98-5.69,18.64-6.82,2.91-6.82,4.08,1.71,4.08,11.94,.58,12.51,8.74,.57,20.38-11.37,12.23-19.33,11.65-19.9-1.16,0-8.15-1.14-8.15-5.12,1.75-2.84,6.41-5.12,8.74-5.12,4.66-.57-4.08-3.98-5.82-7.96-4.08-15.92,5.82-22.74-15.14-23.88-69.3-2.27-73.38-5.69-83.28-26.72-76.29-7.96,2.33-9.1,.58-6.25-7.57q3.41-9.9-5.69-.58c-5.69,5.24-13.65,8.74-18.19,6.99-5.12-2.33-8.53,0-8.53,4.08,0,6.99-1.14,6.99-5.12,0-3.41-4.66-6.25-5.24-8.53-1.75-6.25,11.06-7.96,68.14-2.27,75.12,3.98,5.24,3.98,7.57-.57,7.57-3.41,0-6.25,4.08-6.25,9.32,0,4.66,1.71,7.57,4.55,6.41,4.55-3.49,3.98,39.02-1.14,47.75-1.71,2.91-11.94,4.66-21.6,3.49-9.67-1.75-21.6,.58-26.72,4.66-6.82,5.82-7.39,5.24-3.41-1.16,3.41-6.41,1.71-7.57-6.25-5.24-9.67,2.33-10.8-.58-10.8-25.04,0-16.89,2.27-26.21,5.69-24.46,2.84,1.75,2.27,0-1.14-4.66-9.1-9.32-9.67-19.22-.57-13.39,3.98,2.91,4.55,1.75,1.14-4.08-5.12-8.74-7.39-133.36-1.71-133.36,1.71,0,3.41-4.08,3.41-8.74s-1.71-6.99-3.41-6.41c-1.71,1.16-3.41-11.65-3.98-29.12,0-18.64,2.27-31.45,5.69-31.45s2.84-2.33-1.71-5.24c-5.12-3.49-5.69-6.41-1.14-8.74,3.98-2.91,3.98-8.74,.57-18.05-3.98-10.48-3.41-14.56,1.71-14.56,4.55,0,5.12-1.16,.57-4.66-6.82-4.08-3.98-41.93,2.84-41.93,1.71,0,11.37,5.24,21.6,11.65,27.86,16.89,38.66,38.44,38.09,73.96-.57,16.89,1.71,30.86,5.12,30.86s3.41,2.33,0,6.99c-7.39,9.9-7.96,45.42-1.14,45.42,3.41,0,3.98,2.91,2.27,5.82-8.53,14.56,2.84,26.21,26.72,27.95,30.7,1.16,51.74-3.49,47.19-10.48-1.71-3.49,2.27-6.41,9.67-6.41,10.23-.58,10.8-1.16,2.84-3.49-7.39-1.75-9.67-6.41-7.96-13.98,1.71-5.82,.57-11.06-2.84-11.06-2.84,0-3.41-3.49-.57-7.57,4.55-7.57,5.12-10.48,6.25-34.94,1.14-18.05,24.45-44.84,48.33-55.32,17.63-7.57,15.35-15.72,17.63,69.88,.57,41.35-.57,51.25-7.96,53.58-6.25,1.75-6.25,2.33,1.71,2.91,8.53,.58,9.1,2.33,3.41,13.39-10.8,21.55-18.76,23.29-22.74,5.82-3.41-12.81-3.98-11.65-4.55,8.74q-.57,24.46,14.78,18.64c27.29-10.48,29.56-19.22,30.13-111.81,0-82.11-.57-85.61-11.37-85.61-18.76,0-54.58,21.55-67.66,40.18-13.65,19.8-25.58,69.88-22.17,94.34,2.27,16.31,1.71,16.89-21.6,16.89h-23.88l-2.27-62.89c-1.14-46.59-4.55-68.14-12.51-84.44-11.94-25.04-42.64-48.34-70.5-54.16l-18.19-4.08v207.9Z"/>
  <path d="M301.36,285.35v180.53h102.91l-1.71-78.62-1.71-78.62h51.17v61.15c0,57.65,.57,61.73,14.78,76.29,11.94,11.65,22.17,15.72,50.6,18.05l35.25,3.49-1.71-47.17c-1.71-36.11-5.12-50.66-14.21-62.89-16.49-22.71-37.52-37.85-59.7-42.51l-19.33-4.66,22.74-6.41c69.93-20.38,93.81-111.23,43.78-166.55-26.15-28.54-43.78-32.61-137.59-32.61h-85.28v180.53Zm152.94-151.41c0,13.39-.57,13.39-5.12,2.91-2.84-6.41-5.12-8.15-5.12-3.49-.57,4.08-3.98,6.41-9.1,4.08-4.55-1.75-8.53-1.16-8.53,1.16s-8.53,4.08-19.33,3.49c-14.78-.58-18.76,1.16-16.49,6.99,1.71,4.66,.57,8.15-2.27,8.15-6.25,0-5.69,83.86,.57,103.66,2.27,6.99,6.82,11.65,9.67,9.9,2.84-2.33,4.55,5.24,4.55,15.72-.57,12.81-1.71,15.14-3.41,7.57-6.82-25.62-17.63,37.85-15.35,87.93,1.71,33.19,.57,48.34-3.41,46.01-3.41-1.75-3.98,0-2.27,5.24,4.55,12.81-25.58,18.05-48.9,9.32-1.71-.58-4.55-1.16-6.82-.58-5.12,.58-5.69-2.33-6.82-28.54,0-9.9,.57-17.47,2.27-17.47s3.41-5.24,3.41-11.06c0-6.41-1.71-10.48-3.41-9.32s-3.41-6.41-3.41-17.47,2.27-18.05,5.69-16.31c2.84,2.33,3.41,.58,1.14-3.49-6.25-9.9-7.39-99.58-1.71-99.58,2.27,0,2.84-2.91,.57-6.41-2.27-3.49-4.55-27.37-5.12-52.99-.57-37.85,1.14-47.17,8.53-52.99,6.25-4.08,32.98-6.99,70.5-6.99h60.27l-.57,14.56Zm43.78,.58c52.88,33.19,48.33,118.22-8.53,147.92-11.37,6.41-22.74,12.23-25.02,13.39s-3.98-8.74-3.41-21.55c1.14-13.39,2.84-23.88,4.55-23.88,2.84,0,3.41-80.36,.57-87.35-.57-1.75-2.27-11.65-3.41-22.13-3.41-22.71,6.82-24.46,35.25-6.41Zm-46.05,72.21v49.5h-51.17v-99h51.17v49.5Zm-34.11,66.97c-1.71,2.91,0,5.82,5.12,5.82,4.55,0,9.67,3.49,11.37,6.99,2.27,4.08,2.27,1.75,1.14-5.82-2.27-10.48-1.14-12.23,5.12-6.99,5.69,4.66,7.96,4.08,10.23-1.16,1.71-4.08,2.84,1.75,3.41,12.81,0,15.14-1.14,17.47-4.55,9.32-2.84-8.15-5.69-9.32-8.53-4.66-2.84,5.24-6.82,5.24-15.92,.58-8.53-4.66-10.8-4.66-7.96,0,2.27,3.49,1.14,6.41-1.71,6.41-6.82,0-8.53-19.22-2.27-25.04,5.69-5.82,8.53-4.66,4.55,1.75Zm76.75,64.64c0,2.91,3.41,5.24,7.39,5.24,8.53,0,25.58,27.95,32.41,52.41,4.55,16.31,3.98,17.47-11.94,17.47-11.94,0-16.49,2.91-16.49,9.9,0,8.15,1.14,8.74,5.12,2.91,7.39-12.23,25.02-5.82,26.15,9.32,1.14,12.23,.57,12.23-9.67,2.91-9.67-8.74-10.23-8.74-10.23,.58,0,5.24-2.27,8.15-5.69,6.41-2.84-1.75-5.69,0-5.69,4.08,0,5.24-1.71,5.24-4.55,1.16-2.27-3.49-8.53-7.57-14.21-9.9-5.12-2.33-12.51-10.48-15.35-18.05-5.12-13.39-6.25-83.28-1.71-92.01,2.27-5.24,24.45,1.16,24.45,7.57Z"/>
  <path d="M806.8,118.22c-15.35,8.74-29.56,22.13-37.52,36.69-11.94,20.96-13.08,29.7-13.08,131.03v108.32l17.06,23.88c21.6,30.28,42.64,41.35,87.56,46.01,72.77,6.99,110.3-25.62,88.13-75.71-8.53-19.22-27.86-27.37-64.81-27.37h-31.27V203.24l18.76,3.49c63.11,12.23,108.59-45.42,68.79-86.77-14.21-13.98-18.76-15.14-61.97-15.14-37.52,0-51.17,2.33-71.64,13.39Zm63.11,5.24c0,2.91,2.84,3.49,6.25,1.75,9.67-6.41,33.54-7.57,33.54-1.75,0,3.49,3.41,4.66,7.96,2.91,7.39-2.91,15.35,6.99,14.21,16.89,0,2.33,2.84,5.82,6.82,8.15,5.12,3.49,2.27,9.32-9.67,22.13-14.21,14.56-21.04,16.89-43.78,15.72-14.78-.58-26.72,1.75-26.72,4.08,0,2.91-2.27,4.08-5.12,2.33-5.12-3.49-14.78,12.81-12.51,22.13,.57,2.33-1.71,8.15-5.12,12.23-4.55,5.82-3.98,8.15,1.14,10.48,5.69,2.33,5.69,4.66-1.14,9.32-5.12,3.49-5.69,6.41-1.71,6.41,6.82,0,6.82,9.9,0,21.55-2.27,3.49-1.71,8.15,1.14,9.9,6.25,4.08,6.25,32.61,0,45.42-3.41,5.82-3.41,10.48-.57,10.48,5.12,0,6.25,4.08,9.1,33.78,1.71,22.71,9.1,32.03,9.1,12.23,0-9.9,3.41-14.56,10.8-15.14,7.39-.58,10.23,1.75,7.96,7.57-2.27,6.99,0,6.99,17.63-.58,18.19-7.57,20.47-7.57,20.47,0,0,5.24,3.41,6.99,8.53,5.24,5.12-2.33,10.23,.58,12.51,6.99,1.71,6.41,6.25,12.81,9.67,15.14,3.98,2.91,1.71,4.66-5.12,4.66-7.96,0-9.1,1.75-4.55,4.66,5.69,4.08,5.69,6.99-.57,15.72-5.69,8.15-14.78,10.48-38.09,11.06-17.06,0-32.41,2.91-34.68,6.41-2.84,3.49-4.55,2.91-4.55-2.33,0-4.08-3.41-6.41-7.39-4.66-12.51,4.66-41.5-11.06-56.86-31.45-14.78-20.38-27.29-79.78-14.78-71.63,4.55,2.33,4.55,.58,.57-6.99-7.39-13.98-6.82-95.51,.57-95.51,3.41,0,3.41-2.91,0-7.57-13.08-17.47-3.98-58.24,18.19-83.28,17.63-19.22,76.75-37.85,76.75-24.46Z"/>
  <path d="M1354.39,116.56c-45.48,25.04-59.7,53.58-59.7,116.47,0,41.35,1.14,46.01,16.49,61.73,14.78,15.14,20.47,16.89,51.17,16.89h34.68v52.41h-51.17c-56.29,0-57.99,1.16-43.21,36.69,19.33,47.17,73.34,74.54,120.53,61.15,28.43-7.57,61.97-42.51,69.93-71.63,8.53-32.03,7.96-75.12-1.71-98.42-9.1-22.13-31.27-32.61-69.36-32.61h-25.02v-49.5l51.74,2.33,51.74,1.75-3.98-19.22c-10.8-52.41-43.78-82.11-92.67-85.02-22.17-1.75-37.52,.58-49.46,6.99Zm48.33,12.81c0,8.74,1.14,8.74,5.12,2.33,10.23-16.89,68.79,25.62,68.79,49.5,0,10.48-15.35,13.98-46.62,11.65-15.35-1.16-29,0-30.7,2.91-1.71,2.91-5.69,4.08-8.53,2.33-2.84-2.33-5.12,.58-5.12,5.24,0,5.24-1.71,9.32-3.98,9.32-2.84,0-4.55,6.41-4.55,14.56s2.27,14.56,5.12,14.56,1.71,4.08-2.27,8.74c-5.12,6.41-5.12,8.74-.57,8.74,3.98,0,5.69,2.33,3.41,5.24-3.98,6.99,17.63,14.56,25.58,9.32,2.84-1.75,5.69-1.16,5.69,1.75,0,3.49,6.25,5.24,14.21,4.66,7.96,0,14.21-2.33,14.21-4.66,0-1.75,7.39,0,16.49,4.66,19.33,9.9,23.31,23.29,21.04,79.78-1.71,34.36-3.41,41.35-18.19,57.07-9.1,9.9-23.88,20.96-33.54,25.04-14.78,6.41-17.63,6.41-21.04-1.75-3.41-8.15-3.98-8.15-3.98,.58-.57,8.15-3.98,9.32-18.76,6.41-29.56-5.82-47.76-17.47-61.4-39.6-6.82-11.65-11.37-22.13-9.67-23.88s19.9-3.49,40.37-2.91c20.47,0,38.66-2.33,40.37-5.82,2.27-2.91,6.25-4.08,9.1-1.75,2.84,1.75,5.12,1.16,4.55-1.75-.57-2.33,0-5.82,.57-7.57,3.41-9.32,2.27-47.75-1.71-50.66-2.84-1.75-1.71-5.24,2.27-8.15,6.25-4.08,5.12-5.24-3.41-5.82-19.9-1.75-22.74-2.33-29.56-6.99-3.98-2.91-7.39-2.33-7.39,.58,0,8.15-23.31,4.08-29-5.24-3.98-6.99-5.12-6.99-5.12,0,0,6.41-2.84,5.82-11.37-2.33-6.25-5.82-9.67-12.81-7.96-15.14,1.71-2.91,1.14-5.24-1.71-5.24-2.27,0-5.12-10.48-6.25-23.29-1.14-15.72,1.14-23.29,5.69-23.29,5.69,0,5.69-1.16,0-5.24-15.35-9.9,23.31-76.29,44.35-76.29,3.41,0,5.69-2.33,5.69-5.24s6.82-6.99,15.92-8.15c8.53-1.16,17.06-2.91,19.9-3.49,2.27,0,3.98,4.08,3.98,9.32Z"/>
  <path d="M602.69,309.81v156.07h102.34V154.33h-102.34v155.49Zm64.25-133.36c-1.71,3.49-.57,4.08,3.41,1.75,9.67-6.41,22.17,9.32,17.63,22.71-2.27,6.41-1.71,15.14,1.14,18.64,3.41,4.08,3.98,14.56,1.71,23.29-7.96,30.28-8.53,48.34-1.71,48.34,5.12,0,5.12,1.75,0,6.99-3.98,4.08-4.55,9.9-.57,17.47,3.41,6.99,3.41,10.48-.57,10.48-2.84,0-5.69,4.08-5.69,9.32,0,4.66,2.27,6.99,5.69,5.24,3.41-2.33,3.98,1.16,.57,10.48s-3.41,16.31,1.14,20.96,4.55,6.41-.57,6.41c-3.98,0-6.82,4.08-6.82,9.32,0,5.82,2.84,6.99,7.39,4.08,3.98-2.33,2.84,2.33-2.84,10.48-7.96,12.23-7.96,15.72-1.14,20.38,19.33,12.81-21.6,29.7-53.44,21.55-10.23-2.33-11.37-4.66-6.25-11.06s5.12-7.57-1.14-5.24c-5.69,2.33-7.96-2.33-8.53-16.89,0-11.06,1.71-19.22,4.55-17.47,2.27,1.75,4.55-2.33,4.55-9.32s-1.71-11.06-3.98-9.9c-2.84,1.75-4.55-4.66-4.55-13.98s1.71-16.89,4.55-16.89c2.27,0,3.98-4.08,3.98-8.74s-1.71-8.74-3.98-8.74c-5.69,0-5.12-33.19,0-39.02,2.27-1.75,1.14-6.99-2.27-11.06-3.98-4.66-3.98-8.15,.57-11.06,3.98-2.33,3.98-6.99,0-15.14-3.98-6.99-3.98-11.06-.57-11.06,2.84,0,4.55-5.82,3.41-13.39-6.25-39.6-5.12-49.5,7.39-52.41,18.19-4.66,40.37-2.33,36.96,3.49Z"/>
</svg>