<?xml version="1.0" encoding="UTF-8"?>
<svg id="Layer_1" data-name="Layer 1" xmlns="http://www.w3.org/2000/svg" viewBox="0 0 350 500">
  <path d="M15.11,.49c1.24,.16,3.05,.16,4.13,0,.99-.16,0-.33-2.31-.33s-3.14,.16-1.82,.33Z"/>
  <path d="M66.7,.49c.5,.16,1.49,.16,2.06,0,.5-.24,.08-.41-1.07-.41s-1.57,.16-.99,.41Z"/>
  <path d="M70.83,.49c.5,.16,1.49,.16,2.06,0,.5-.24,.08-.41-1.07-.41s-1.57,.16-.99,.41Z"/>
  <path d="M116.47,.98c-1.57,.57-3.05,1.55-3.22,2.2-.33,.89-.17,.89,.99-.16,.74-.73,3.14-1.63,5.28-1.87,5.94-.81,6.69-1.06,3.05-1.06-1.82-.08-4.54,.33-6.11,.89Z"/>
  <path d="M169.47,.81c-1.49,.41-2.72,.98-2.72,1.22s.83,.16,1.82-.16,3.71-.81,6.03-1.14c3.88-.57,3.96-.65,.83-.65-1.82,0-4.54,.33-5.94,.73Z"/>
  <path d="M226.84,.49c.5,.16,1.49,.16,2.06,0,.5-.24,.08-.41-1.07-.41s-1.57,.16-.99,.41Z"/>
  <path d="M274.47,1.14c-1.98,.98-2.06,1.06-.41,.65,1.16-.33,3.55-.81,5.37-1.14l3.3-.49-2.89-.08c-1.57-.08-3.96,.41-5.37,1.06Z"/>
  <path d="M334.89,.73c2.89,.41,5.7,.98,6.19,1.3,.83,.41,.83,.33,.17-.41-.58-.57-3.3-1.14-6.19-1.3l-5.28-.33,5.12,.73Z"/>
  <path d="M22.7,1.55c2.23,.98,3.55,.98,2.06,0-.66-.41-1.82-.73-2.48-.73-.83,0-.66,.24,.41,.73Z"/>
  <path d="M75.53,1.55c2.23,.98,3.55,.98,2.06,0-.66-.41-1.82-.73-2.48-.73-.83,0-.66,.24,.41,.73Z"/>
  <path d="M128.36,1.55c2.23,.98,3.55,.98,2.06,0-.66-.41-1.82-.73-2.48-.73-.83,0-.66,.24,.41,.73Z"/>
  <path d="M181.19,1.55c2.31,.98,3.05,.98,2.48,0-.25-.49-1.32-.81-2.31-.73-1.73,0-1.73,.08-.17,.73Z"/>
  <path d="M220.9,1.46c-.33,.41,.25,.57,1.16,.33,1.9-.49,2.15-1.06,.5-1.06-.66,0-1.4,.33-1.65,.73Z"/>
  <path d="M234.02,1.55c2.23,.98,3.55,.98,2.06,0-.66-.41-1.82-.73-2.48-.73-.83,0-.66,.24,.41,.73Z"/>
  <path d="M284.87,1.06c.17,.16,1.49,.49,2.81,.81,1.82,.41,2.15,.33,1.24-.33-1.16-.73-4.87-1.22-4.04-.49Z"/>
  <path d="M326.06,1.55c-1.49,.98-.17,.98,2.06,0,1.07-.49,1.24-.73,.41-.73-.66,0-1.82,.33-2.48,.73Z"/>
  <path d="M7.18,3.17c-.74,.89-1.07,1.63-.74,1.63s1.24-.73,2.06-1.63c.74-.89,1.07-1.63,.74-1.63s-1.24,.73-2.06,1.63Z"/>
  <path d="M60.67,2.44c-.91,1.38,.08,1.71,1.24,.33,.66-.73,.66-1.22,.17-1.22s-1.16,.41-1.4,.89Z"/>
  <path d="M26.08,3.09c-.25,.41,.08,.98,.83,1.22,1.82,.65,2.06,.33,.74-.89-.66-.57-1.32-.73-1.57-.33Z"/>
  <path d="M163.28,5.21c-2.81,3.25-3.96,6.18-3.96,10.01,0,4.88,1.4,8.54,4.46,11.55,4.38,4.56,5.28,4.96,9.91,5.45,3.8,.41,5.12,.08,9-1.79,4.04-2.03,6.85-5.21,7.02-8.05,0-.41,.41-.98,.83-1.22s.99-1.95,1.32-3.74c.5-3.01,.41-3.17-.74-1.71-.66,.89-1.24,2.28-1.24,3.09,0,4.31-5.61,10.17-10.73,11.31-6.69,1.46-12.71-.89-16.51-6.51-1.57-2.36-1.98-3.99-2.06-8.22,0-4.88,.25-5.69,2.81-8.79,3.22-4.07,3.22-5.21-.08-1.38Z"/>
  <path d="M184.91,3.09c0,.49,.33,1.06,.83,1.3s.58-.08,.33-.73c-.58-1.46-1.16-1.71-1.16-.57Z"/>
  <path d="M216.36,4.64c-3.88,4.07-5.2,10.25-3.55,16.6,.83,3.25,3.88,7.48,5.94,8.3,.66,.33,2.15,1.06,3.3,1.79,2.72,1.63,10.32,1.06,13.87-1.14,2.56-1.46,6.77-6.26,6.77-7.57,0-.41-1.82,1.14-3.96,3.25-4.21,4.15-8.09,5.45-13.46,4.47-11.31-2.03-16.18-16.35-8.42-24.81,1.57-1.71,2.56-3.17,2.23-3.09-.41,.08-1.65,1.06-2.72,2.2Z"/>
  <path d="M237.74,3.09c0,.81,2.39,2.93,2.81,2.44,.08-.16-.5-.98-1.32-1.79-.83-.73-1.49-1.06-1.49-.65Z"/>
  <path d="M290.57,3.09c0,.81,2.39,2.93,2.81,2.44,.08-.16-.5-.98-1.32-1.79-.83-.73-1.49-1.06-1.49-.65Z"/>
  <path d="M344.3,4.56c.58,.98,1.24,1.63,1.49,1.38,.25-.16-.25-.98-1.07-1.79-1.4-1.3-1.49-1.3-.41,.41Z"/>
  <path d="M57.7,5.37c-1.07,1.3-.99,1.38,.33,.33s1.73-1.71,1.07-1.71c-.17,0-.83,.65-1.4,1.38Z"/>
  <path d="M81.23,5.21c.66,.65,1.49,1.95,1.73,2.85s.91,1.63,1.32,1.63,.83,1.22,.83,2.6c.17,2.28,.25,2.36,.5,.57,.33-2.12-3.38-8.87-4.87-8.87-.41,0-.25,.57,.5,1.22Z"/>
  <path d="M109.46,6.75c-2.23,2.93-2.97,4.64-1.07,2.77,1.32-1.38,4.04-5.53,3.55-5.53-.17,0-1.24,1.22-2.48,2.77Z"/>
  <path d="M134.06,5.21c.66,.65,1.49,1.95,1.73,2.93,.33,.89,.74,1.46,.99,1.3,.58-.65-2.15-5.45-3.14-5.45-.5,0-.33,.57,.41,1.22Z"/>
  <path d="M269.1,4.88c0,.41,.41,.57,.83,.33,.5-.24,.83-.65,.83-.89,0-.16-.33-.33-.83-.33-.41,0-.83,.41-.83,.89Z"/>
  <path d="M320.45,6.43c-.74,1.3-1.65,2.44-1.98,2.44s-.41,.49-.17,1.14,.08,1.38-.41,1.71c-1.82,1.06-.99,8.38,1.32,12.53,3.22,5.61,9,8.62,15.35,7.97,4.79-.49,5.37-.73,10.07-5.13,3.47-3.25,4.21-4.72,4.87-9.68,.33-2.77,.25-3.5-.25-2.44-.41,.89-.83,2.44-.83,3.42-.08,2.68-3.05,7.16-6.44,9.6-2.39,1.87-3.71,2.28-7.92,2.28-9.82,.08-15.44-5.61-15.44-15.54,0-3.25,1.98-8.14,3.96-9.6,.91-.73,1.07-1.06,.33-1.14-.58,0-1.73,1.06-2.48,2.44Z"/>
  <path d="M3.8,6.02c-.74,2.12-.58,2.6,.41,.98,.5-.81,.74-1.71,.5-1.87-.17-.24-.58,.16-.91,.89Z"/>
  <path d="M28.89,5.94c0,.41,.66,1.46,1.4,2.28,.91,.98,1.57,3.34,1.73,6.67,.33,4.39,.08,5.61-1.73,8.38-1.16,1.87-3.22,4.07-4.46,4.88-4.95,3.5-14.12,2.85-18.57-1.22-2.89-2.6-3.88-4.64-5.2-11.15L.99,10.9l-.08,3.9c-.08,3.74,1.82,9.03,4.21,12.04,2.23,2.68,8.58,5.61,12.22,5.61,4.46,0,10.15-2.77,12.79-6.18,3.96-5.13,4.29-15.62,.5-19.28-.91-.98-1.73-1.38-1.73-1.06Z"/>
  <path d="M266.21,9.03c-1.9,4.72-2.31,8.79-1.16,11.23,2.89,6.26,3.71,7.48,6.85,9.52,2.89,1.95,4.21,2.28,8.75,2.28,5.7,0,5.94-.16,11.56-5.29,2.31-2.2,3.3-3.9,4.04-7.24,.5-2.44,.74-4.56,.58-4.8-.25-.16-.58,.57-.91,1.79-.25,1.14-.58,3.09-.83,4.23s-2.06,3.66-4.04,5.53c-2.72,2.77-4.38,3.66-7.18,3.99-12.46,1.79-21.13-8.7-16.92-20.58,1.65-4.64,1.16-5.21-.74-.65Z"/>
  <path d="M188.21,7.16c0,.49,.33,1.06,.83,1.3s.58-.08,.33-.73c-.58-1.46-1.16-1.71-1.16-.57Z"/>
  <path d="M241.53,7.65c.33,.89,.74,2.6,.99,3.82,.17,1.3,.66,2.28,.99,2.28,.83,0-.25-4.15-1.65-6.26q-.91-1.38-.33,.16Z"/>
  <path d="M293.95,6.43c-.08,.24,.5,1.87,1.16,3.66s1.16,2.52,1.16,1.63c0-1.38-2.31-6.51-2.31-5.29Z"/>
  <path d="M55.72,8.05c-.25,.41-.08,.81,.33,.81,.5,0,.91-.41,.91-.81,0-.49-.17-.81-.33-.81-.25,0-.66,.33-.91,.81Z"/>
  <path d="M2.06,9.68c-.25,.41-.08,.81,.33,.81,.5,0,.91-.41,.91-.81,0-.49-.17-.81-.33-.81-.25,0-.66,.33-.91,.81Z"/>
  <path d="M137.77,9.84c-.5,1.71-.41,3.17,.17,3.58,.41,.24,.74-.49,.74-1.63,0-1.71-.58-2.93-.91-1.95Z"/>
  <path d="M348.51,11.31c0,1.14,.17,1.55,.41,.98,.17-.49,.17-1.46,0-2.03-.25-.49-.41-.08-.41,1.06Z"/>
  <path d="M189.86,12.04c0,.98,.41,1.71,.83,1.71,.5,0,.83-.49,.83-1.14s-.33-1.46-.83-1.71c-.41-.24-.83,.24-.83,1.14Z"/>
  <path d="M54.07,16.6c.25,6.35,3.14,10.74,8.83,13.83,3.47,1.87,4.87,2.2,8.42,1.79,4.79-.49,10.07-3.17,10.81-5.53,.33-.81,.83-1.55,1.16-1.55,.41,0,1.07-.98,1.57-2.28,1.32-3.5,1.9-7.48,.99-7.48-.74,0-1.24,3.09-.91,5.04,0,.41-.25,.65-.66,.65s-1.16,1.14-1.73,2.44c-2.15,5.21-9,7.97-15.93,6.51-6.85-1.38-10.98-6.35-12.22-14.64-.5-3.25-.5-3.09-.33,1.22Z"/>
  <path d="M106.57,14.56c-.17,6.02,.99,8.95,5.45,13.26,3.38,3.42,4.46,3.99,8.92,4.39,8.42,.89,15.85-4.64,17.83-13.34,.41-2.03,.66-3.82,.5-3.99-.41-.41-1.82,2.68-3.05,6.67-1.82,5.94-8.83,9.76-16.1,8.7-6.93-.98-11.89-6.51-12.79-14.48-.58-4.64-.58-4.72-.74-1.22Z"/>
  <path d="M243.02,16.51c-.25,.65-.33,2.03-.08,3.09,.33,1.71,.33,1.63,.5-.41,0-1.22,.5-2.2,.91-2.2,.5,0,.83-.41,.83-.81,0-1.22-1.65-.98-2.15,.33Z"/>
  <path d="M42.18,249.67l-.33,209.16,87.42-.33c58.11-.24,88.49-.65,90.72-1.22,1.82-.49,6.27-1.55,9.91-2.44s7.76-2.28,9.08-2.93c1.4-.73,2.81-1.3,3.22-1.3,.91,0,13.12-5.86,13.7-6.51,.25-.33,1.73-1.22,3.3-2.12,1.57-.81,3.22-2.03,3.55-2.6,.33-.49,1.07-.98,1.65-.98,1.16,0,2.06-.81,11.97-10.66,9.33-9.19,10.07-10.01,11.23-11.96,.5-.89,2.23-3.58,3.8-5.94,3.55-5.29,9.08-16.27,9.08-17.9,0-.65,.33-1.55,.83-2.03,.83-.81,4.79-14.97,5.7-20.26,.25-1.79,.5-44.66,.5-95.18,0-83.39-.17-92.34-1.4-96-.74-2.28-1.73-6.43-2.31-9.36s-1.24-5.69-1.65-6.1c-.33-.49-1.07-2.28-1.65-4.07-3.55-10.98-16.59-29.86-26.08-37.99-1.82-1.46-3.96-3.34-4.87-4.23-.91-.81-2.56-2.03-3.71-2.77s-2.39-1.79-2.72-2.36-1.16-1.06-1.73-1.06-1.73-.65-2.64-1.46c-2.48-2.28-16.92-8.95-24.93-11.47-12.96-4.15-27.65-5.45-40.61-3.42-3.88,.57-7.51,1.06-8.01,1.14-.58,0-1.07,.33-1.07,.73,0,.33-.66,.65-1.4,.73-1.65,.08-3.38,1.06-10.9,6.18-2.72,1.95-5.37,3.5-5.78,3.5s-1.49,1.22-2.48,2.6c-4.29,6.59-5.04,7.65-6.03,8.79-1.07,1.14-2.39,3.34-4.38,7.32-.58,1.14-1.57,5.61-2.15,9.93-.58,4.39-1.32,7.97-1.65,7.97s-.83-3.17-1.16-7.16c-.25-3.9-.91-8.7-1.32-10.74-.5-2.03-.91-4.47-.91-5.53,0-.98-.33-1.79-.66-1.79s-.91-1.38-1.24-3.09c-.33-1.63-1.24-4.47-1.98-6.26-.83-1.79-1.98-4.56-2.56-6.1s-1.57-3.42-2.06-4.07-1.49-2.52-2.06-4.07c-.66-1.55-1.82-3.58-2.64-4.39-.83-.89-1.49-2.03-1.49-2.6s-.5-1.38-1.07-1.71-1.98-2.12-3.14-3.9c-3.63-5.45-18.99-20.18-22.12-21.15-.91-.24-1.73-.81-1.73-1.22s-1.32-1.38-2.89-2.12-2.89-1.63-2.89-1.95c0-.41-1.4-1.14-3.05-1.63-1.73-.57-3.71-1.46-4.38-1.95-1.98-1.55-11.72-5.37-18.33-7.16-9-2.36-11.89-2.85-20.88-3.42l-8.25-.57-.33,209.16ZM62.74,44.99c17.83,3.74,31.45,9.93,43.83,19.77,7.59,6.1,9.82,8.14,15.6,14.64,12.22,13.67,21.54,35.06,23.61,54.26,.83,8.05,1.24,9.76,2.15,10.41,.83,.49,.83,.81-.17,1.46-1.07,.65-1.24,8.3-1.07,61.99,.08,33.68,.25,66.71,.33,73.46,.41,22.21,1.32-33.76,1.49-85.66l.08-48.97h52.83v102.91l-25.34-.24c-14.03-.08-25.92,.16-26.58,.57-1.73,1.14,.66,3.34,2.81,2.6,.91-.33,10.73-.49,21.88-.41,28.56,.24,26.25,0,26.66,2.12,.25,1.3,.41,1.06,.5-.89,.08-2.03,.41-2.6,1.32-2.2,1.49,.57,1.4,5.86,1.49-55.81,.17-46.61,.08-49.46-1.24-49.46-1.4,0-1.49-1.38-1.49-17.25,0-9.44-.17-17-.41-16.84-.17,.24-.41,7.4-.41,16.03l-.08,15.62-5.12,.08c-2.81,0-13.95,.16-24.68,.41-18.66,.49-19.48,.41-19.23-1.06,.17-.81,.74-3.5,1.32-5.94s1.07-5.21,1.24-6.18c.41-3.82,7.02-14.72,11.97-19.85,3.14-3.17,7.68-6.51,8.92-6.51,.41,0,.91-.24,1.07-.65,.58-1.22,5.78-4.31,7.92-4.64,1.24-.24,3.71-.73,5.53-1.22s5.04-1.06,7.18-1.3l3.88-.41,.33,7.57,.25,7.57,.17-8.54c.08-5.53,.41-8.22,.99-7.65,.5,.49,.91,10.58,1.07,25.14l.17,24.41,.25-24.73,.17-24.73,6.03,.41c6.03,.41,19.89,3.25,23.69,4.88,1.16,.49,2.81,1.06,3.71,1.22,2.56,.41,19.65,8.95,21.71,10.82,.99,.89,1.98,1.63,2.31,1.55,.83-.24,12.13,9.52,16.51,14.24,5.86,6.26,7.51,8.22,8.92,10.98,.74,1.3,1.82,2.93,2.48,3.58,4.13,3.99,13.12,26.03,13.95,33.92,.17,2.03,.58,4.23,.91,4.96,.33,.65,.66,4.15,.91,7.73,.17,3.5,.33,6.59,.33,6.83,.08,.24,.08,24.73,.08,54.51-.08,29.78,0,58.09,.08,63.05,.17,6.51,.08,40.68-.08,40.68,0,0-.17,3.42-.33,7.57s-.74,8.05-1.24,8.62-.66,1.22-.41,1.55c1.07,.98-4.79,20.83-6.93,23.67-.41,.49-1.24,2.2-1.82,3.74-.99,2.36-6.27,11.47-8.42,14.24-7.59,10.01-12.96,15.29-22.54,22.37-10.57,7.73-30.62,17.08-36.9,17.08-.99,0-3.55,.49-5.61,1.14-2.06,.57-6.11,1.14-9.08,1.3-4.62,.16-8.42,.41-9.91,.73-.25,.08-11.72,.08-25.59,.08-16.67,0-25.26-.33-25.67-.89-.33-.57-.74-.41-.99,.41-.66,1.71-2.23,1.63-2.31-.16,0-.81-.25-.98-.5-.41-.33,.81-11.31,1.06-51.1,1.06H45.4l-.08-3.9c-.08-2.12-.08-52.88,0-112.84,.17-186.05,.17-193.05,0-193.78-.08-.33-.08-.81,0-1.06,.33-1.3,.41-51.25,.08-51.25-.5,0-.17-48,.41-49.46,.58-1.55,6.36-1.22,16.92,.98Z"/>
  <path d="M94.19,142.77c0,.89,.25,1.14,.5,.49,.25-.57,.17-1.3-.08-1.55-.25-.33-.5,.16-.41,1.06Z"/>
  <path d="M74.54,143.67c3.05,.16,8.01,.16,11.14,0,3.05-.16,.5-.24-5.61-.24s-8.67,.08-5.53,.24Z"/>
  <path d="M207.85,146.92c.58,.24,1.32,.16,1.57-.08,.33-.24-.17-.49-1.07-.41-.91,0-1.16,.24-.5,.49Z"/>
  <path d="M174.42,155.87c.74,.16,2.06,.16,2.89,0,.74-.24,.08-.41-1.49-.41s-2.23,.16-1.4,.41Z"/>
  <path d="M167.98,156.93c-4.13,3.58-7.1,6.67-6.77,7,.25,.24,1.24-.65,2.31-2.03,.99-1.3,2.89-2.85,4.13-3.42,1.32-.49,2.39-1.22,2.39-1.63,0-.89-.99-.89-2.06,.08Z"/>
  <path d="M183.17,158.64c1.49,.89,2.89,1.46,3.14,1.22,.41-.41-4.13-2.93-5.28-2.93-.33,0,.58,.73,2.15,1.71Z"/>
  <path d="M188.7,163.68c.25,.81,.74,1.22,.99,.98s0-.89-.58-1.46c-.83-.73-.91-.65-.41,.49Z"/>
  <path d="M159.65,167.99c-1.32,6.83,1.49,13.42,7.35,17.57,2.81,2.03,12.13,2.44,15.27,.73,4.21-2.2,7.59-6.35,7.59-9.19,0-.57-.66,.24-1.57,1.79-.83,1.55-3.05,3.9-5.04,5.21-4.46,3.01-10.9,3.25-14.69,.57-1.4-.89-2.81-1.71-3.22-1.71-.33-.08-1.57-1.46-2.72-3.09-1.65-2.52-1.98-4.07-2.06-8.95,0-3.17-.08-5.86-.17-5.86s-.41,1.3-.74,2.93Z"/>
  <path d="M189.86,167.91c0,1.14,.41,2.03,.83,2.03,.5,0,.83-.89,.83-2.03s-.33-2.03-.83-2.03c-.41,0-.83,.89-.83,2.03Z"/>
  <path d="M190.77,171.9c-.58,.65-.91,1.87-.66,2.68,.25,1.14,.5,.98,1.32-.89,1.07-2.68,.74-3.5-.66-1.79Z"/>
  <path d="M252.59,195.16c-1.07,.65-.99,.81,.25,.81,.74,0,1.4-.41,1.4-.81,0-.98-.08-.98-1.65,0Z"/>
  <path d="M234.27,195.73c.5,.16,1.49,.16,2.06,0,.5-.24,.08-.41-1.07-.41s-1.57,.16-.99,.41Z"/>
  <path d="M240.05,195.73c.58,.24,1.32,.16,1.57-.08,.33-.24-.17-.49-1.07-.41-.91,0-1.16,.24-.5,.49Z"/>
  <path d="M255.73,195.73c.58,.24,1.32,.16,1.57-.08,.33-.24-.17-.49-1.07-.41-.91,0-1.16,.24-.5,.49Z"/>
  <path d="M268.11,195.73c.58,.24,1.32,.16,1.57-.08,.33-.24-.17-.49-1.07-.41-.91,0-1.16,.24-.5,.49Z"/>
  <path d="M287.92,195.73c.58,.24,1.32,.16,1.57-.08,.33-.24-.17-.49-1.07-.41-.91,0-1.16,.24-.5,.49Z"/>
  <path d="M299.48,195.73c.58,.24,1.32,.16,1.57-.08,.33-.24-.17-.49-1.07-.41-.91,0-1.16,.24-.5,.49Z"/>
  <path d="M170.54,208.1c-1.32,.24-2.56,1.06-2.72,1.71-.25,.81-.17,.89,.33,.24,.33-.49,2.89-1.3,5.61-1.71,3.22-.49,3.96-.81,2.06-.81-1.57,0-3.96,.24-5.28,.57Z"/>
  <path d="M180.2,208.75c.74,.16,1.4,.65,1.4,1.06,0,.33,.66,.81,1.49,1.14,.74,.24,1.98,.73,2.64,.98,.66,.33,0-.41-1.57-1.63-1.57-1.14-3.47-2.03-4.13-2.03-.99,.08-.99,.16,.17,.49Z"/>
  <path d="M162.7,213.63c-1.4,1.63-2.56,3.5-2.48,4.23,0,.98,.17,1.06,.5,.16,.41-1.06,.91-1.63,4.62-5.78,.74-.89,1.07-1.63,.66-1.63s-1.9,1.3-3.3,3.01Z"/>
  <path d="M187.38,212.74c0,.57,.58,2.03,1.24,3.25,.66,1.3,1.24,3.17,1.24,4.15,0,1.06,.41,1.87,.83,1.87,.58,0,.58,.49,.17,1.38-.41,.81-.99,2.77-1.32,4.39-.74,4.23-7.18,10.58-9.82,9.84-.33-.08-1.4,.16-2.23,.65-2.06,1.14-9.08-1.06-11.72-3.58-3.96-3.82-4.95-5.69-5.53-10.49l-.66-5.04-.17,3.9c0,2.12,.41,5.13,1.07,6.59,1.65,3.82,6.85,8.46,10.57,9.52,3.63,.89,10.15,.24,11.64-1.3,.58-.49,1.9-1.38,2.89-1.95,4.38-2.28,8.01-15.29,5.12-17.98-.25-.24-1.07-1.71-1.9-3.25-.74-1.55-1.4-2.44-1.4-1.95Z"/>
  <path d="M203.31,274.08c0,3.82,.17,5.37,.33,3.42,.17-1.87,.17-4.96,0-6.91-.17-1.87-.33-.33-.33,3.5Z"/>
  <path d="M160.31,274.08c0,1.55,.17,2.2,.41,1.38,.17-.73,.17-2.03,0-2.85-.25-.73-.41-.08-.41,1.46Z"/>
  <path d="M200.51,275.87c-.17,7.24,0,12.28,.5,12.69,.25,.24,.41-3.5,.41-8.22,0-8.79-.74-12.37-.91-4.47Z"/>
  <path d="M148.58,300.19l-2.06,2.2,.17,49.46c.08,51.01,.25,62.07,.83,57.43,.33-2.28,1.9-3.82,1.9-1.79,0,.57,8.09,.81,22.95,.81,12.55-.08,24.02-.08,25.51,0,2.31,0,2.64,.33,2.97,2.6,.25,2.36,.33,2.28,.41-.73,.08-2.28,.66-3.74,1.65-4.47,1.4-.98,1.49-2.85,1.49-26.85l-.08-25.79,6.19-.33,6.19-.24-6.36-.16-6.36-.16v-19.36c.08-33.11,.08-32.7-1.32-32.22-1.07,.41-1.24,7.08-1.24,52.88v52.39h-52.83v-104.54h26.17c22.62,0,26.25-.16,26.5-1.22,.17-1.06-2.97-1.22-24.76-1.06-13.79,0-25.18-.16-25.42-.49s-1.32,.41-2.48,1.63Z"/>
  <path d="M177.56,312.64c2.56,.57,5.53,1.71,6.69,2.6,2.56,1.87,5.61,6.35,5.61,8.22,0,.81,.58,2.12,1.24,3.01,1.07,1.38,1.16,1.22,.66-1.63-.25-1.79-.74-3.34-1.07-3.58-.25-.24-1.24-1.63-2.06-3.09-.91-1.38-2.06-2.6-2.56-2.6-.58,0-1.16-.49-1.4-1.14-.5-1.14-6.69-3.01-9.82-2.85-1.07,.08,.17,.57,2.72,1.06Z"/>
  <path d="M164.85,315.57c-2.15,1.87-4.21,4.56-4.71,6.18-1.57,4.47-.66,11.06,1.9,14.72,2.48,3.5,6.85,6.43,9.08,6.1,.74-.16,1.4,.16,1.4,.65,0,.65,.99,.89,2.72,.65,6.85-.98,11.23-3.58,13.95-8.46,1.24-2.2,2.31-4.64,2.31-5.45,0-2.44-1.4-.81-1.98,2.28-.83,4.07-4.54,7.65-9.66,9.36-4.46,1.38-5.45,1.3-11.56-.98-1.24-.41-3.47-2.28-4.95-4.15-2.56-3.17-2.81-3.9-2.81-9.11,0-5.78,.33-6.59,4.13-10.25,3.22-3.09,4.46-3.82,6.36-4.23q1.82-.33-.25-.49c-1.49-.08-3.38,.98-5.94,3.17Z"/>
  <path d="M217.76,352.74c.58,.24,1.32,.16,1.57-.08,.33-.24-.17-.49-1.07-.41-.91,0-1.16,.24-.5,.49Z"/>
  <path d="M226.43,352.74c2.56,.16,6.85,.16,9.49,0,2.56-.16,.41-.24-4.79-.24s-7.35,.08-4.71,.24Z"/>
  <path d="M251.19,352.74c5.78,.16,15.19,.16,21.05,0,5.78-.08,.99-.24-10.57-.24s-16.34,.16-10.48,.24Z"/>
  <path d="M288.34,352.74c3.05,.16,8.01,.16,11.14,0,3.05-.16,.5-.24-5.61-.24s-8.67,.08-5.53,.24Z"/>
  <path d="M254.41,359.5c0,1.14,.17,1.55,.41,.98,.17-.49,.17-1.46,0-2.03-.25-.49-.41-.08-.41,1.06Z"/>
  <path d="M172.94,363.73c-6.27,2.12-7.35,2.68-9.25,4.64-2.72,2.85-4.38,6.67-4.38,10.41,0,8.22,3.96,13.67,11.64,16.03,4.29,1.38,4.87,1.38,8.5,.16,2.15-.73,4.79-1.87,5.94-2.68,2.56-1.63,5.78-7.73,6.44-12.12,.25-1.71,.25-2.6,0-1.95s-.74,1.95-1.16,2.85-.91,2.68-1.24,3.99c-.25,1.3-1.98,3.74-3.8,5.45-3.63,3.42-8.01,4.56-14.12,3.58-4.95-.81-10.24-6.35-11.06-11.47-.66-4.64,0-8.95,1.65-10.58,.74-.65,1.32-1.55,1.32-1.87,0-1.22,6.19-4.8,9.25-5.29,7.84-1.38,17.17,4.72,17.17,11.15,0,.81,.41,1.22,.83,.98,1.07-.65,1.07-2.6,.08-3.9-4.95-6.1-7.1-7.97-10.07-8.38-1.82-.33-3.47-.89-3.71-1.22-.5-.81-.74-.81-4.04,.24Z"/>
  <path d="M119.94,365.76c.74,.16,2.06,.16,2.89,0,.74-.24,.08-.41-1.49-.41s-2.23,.16-1.4,.41Z"/>
  <path d="M220.24,401.56c.58,.24,1.32,.16,1.57-.08,.33-.24-.17-.49-1.07-.41-.91,0-1.16,.24-.5,.49Z"/>
  <path d="M203.07,406.76c0,.41,.41,.57,.83,.33,.5-.24,.83-.65,.83-.89,0-.16-.33-.33-.83-.33-.41,0-.83,.41-.83,.89Z"/>
  <path d="M200.42,418.31c-.25,1.06-.08,2.6,.25,3.5,.41,1.06,.66,.57,.66-1.95,.08-3.74-.33-4.47-.91-1.55Z"/>
  <path d="M200.18,424.58c.25,.41,.66,.81,.91,.81,.17,0,.33-.41,.33-.81,0-.49-.41-.81-.91-.81-.41,0-.58,.33-.33,.81Z"/>
  <path d="M203.31,432.71c0,3.34,.17,4.72,.33,3.01,.17-1.63,.17-4.39,0-6.1-.17-1.63-.33-.24-.33,3.09Z"/>
  <path d="M160.39,432.31c0,1.79,.17,2.44,.33,1.38,.17-.98,.17-2.44,0-3.25-.25-.73-.41,.08-.33,1.87Z"/>
  <path d="M106.65,431.9c0,1.14,.17,1.55,.41,.98,.17-.49,.17-1.46,0-2.03-.25-.49-.41-.08-.41,1.06Z"/>
  <path d="M203.31,442.07c0,1.79,.17,2.44,.33,1.38,.17-.98,.17-2.44,0-3.25-.25-.73-.41,.08-.33,1.87Z"/>
  <path d="M200.75,444.92c0,1.14,.17,1.55,.41,.98,.17-.49,.17-1.46,0-2.03-.25-.49-.41-.08-.41,1.06Z"/>
  <path d="M147.02,452.73c0,.89,.25,1.14,.5,.49,.25-.57,.17-1.3-.08-1.55-.25-.33-.5,.16-.41,1.06Z"/>
  <path d="M200.75,453.05c0,1.14,.17,1.55,.41,.98,.17-.49,.17-1.46,0-2.03-.25-.49-.41-.08-.41,1.06Z"/>
  <path d="M14.36,52.07c-1.07,.41-.25,.65,2.39,.65,2.15,.08,3.88-.08,3.88-.24,0-.65-4.79-.98-6.27-.41Z"/>
  <path d="M228.24,51.98q-2.48,.65,.66,.73c1.9,.08,2.97-.24,2.64-.73-.25-.49-.58-.73-.66-.73-.08,.08-1.24,.41-2.64,.73Z"/>
  <path d="M334.73,51.98c-1.57,.65-1.57,.73,.25,.73,.99,.08,1.82-.33,1.82-.73,0-.49-.08-.81-.17-.73-.17,0-.99,.33-1.9,.73Z"/>
  <path d="M121.18,52.55c.5,.16,1.49,.16,2.06,0,.5-.24,.08-.41-1.07-.41s-1.57,.16-.99,.41Z"/>
  <path d="M174.83,52.55c.99,.16,2.48,.16,3.3,0,.74-.24-.08-.41-1.9-.33-1.82,0-2.48,.16-1.4,.33Z"/>
  <path d="M280.5,52.55c.99,.16,2.48,.16,3.3,0,.74-.24-.08-.41-1.9-.33-1.82,0-2.48,.16-1.4,.33Z"/>
  <path d="M326.39,53.53c-1.82,.81-4.13,2.52-5.12,3.82s-2.15,2.77-2.48,3.17c-.41,.49-.58,1.3-.33,1.87,.17,.49-.08,.98-.58,.98s-.91,1.63-.91,3.9c0,5.21,3.3,11.71,7.02,13.91,4.46,2.6,9.25,3.58,12.05,2.6,1.32-.49,3.55-1.3,4.87-1.79,3.71-1.38,7.92-7.65,8.5-12.53l.5-4.07-1.07,4.23c-1.24,4.56-2.89,7-7.02,10.49-2.23,1.87-3.38,2.12-8.01,2.12s-5.86-.33-8.67-2.28c-3.88-2.6-5.28-5.04-6.11-10.17-1.16-7.4,2.06-13.18,8.83-16.19,1.98-.81,3.22-1.55,2.72-1.55-.41,0-2.31,.65-4.21,1.46Z"/>
  <path d="M7.68,54.83c-1.24,1.06-1.9,2.03-1.32,2.03s1.32-.49,1.65-1.14c.41-.65,1.57-1.55,2.72-2.03,1.4-.49,1.57-.81,.66-.81-.74-.08-2.48,.81-3.71,1.95Z"/>
  <path d="M23.94,54.26c1.57,.81,3.05,1.38,3.22,1.22,.74-.49-2.89-2.6-4.46-2.68-1.16,0-.83,.41,1.24,1.46Z"/>
  <path d="M113.92,54.02c-2.72,1.55-1.73,1.55,1.73,0,1.57-.65,2.23-1.14,1.57-1.14s-2.15,.49-3.3,1.14Z"/>
  <path d="M128.36,53.37c.91,.24,2.31,.98,3.14,1.71,.74,.65,1.4,.98,1.4,.57,0-1.14-2.81-2.77-4.54-2.77q-1.65,.08,0,.49Z"/>
  <path d="M166.75,54.02c-2.72,1.55-1.73,1.55,1.73,0,1.57-.65,2.23-1.14,1.57-1.14s-2.15,.49-3.3,1.14Z"/>
  <path d="M181.19,53.37c.91,.24,1.98,.73,2.48,1.14,.41,.41,1.07,.73,1.57,.73,.41,0,.08-.57-.83-1.22-.83-.65-2.31-1.14-3.22-1.14q-1.65,.08,0,.49Z"/>
  <path d="M219.99,53.77c-6.69,3.74-9.66,12.2-6.93,19.61,1.9,5.29,5.04,8.05,10.98,9.93,3.63,1.14,5.12,1.22,6.52,.57,.99-.49,2.72-1.14,3.88-1.38,3.47-.98,7.35-5.29,8.67-9.68,1.49-4.72,1.49-5.61,.41-4.96-.41,.24-.83,1.38-.83,2.52,0,5.13-6.36,11.39-11.97,11.8-5.78,.41-8.34-.08-10.24-1.63-1.07-.89-2.15-1.71-2.48-1.87-1.57-.65-4.29-5.78-4.71-8.95-.99-6.75,2.39-13.26,8.09-15.7,1.49-.65,2.15-1.14,1.49-1.14s-1.98,.41-2.89,.89Z"/>
  <path d="M235.26,54.1c1.57,.65,3.14,1.79,3.55,2.44,.33,.57,.99,1.14,1.49,1.14,1.07,0-1.73-2.77-3.96-3.99-.99-.49-2.31-.89-2.89-.89-.58,.08,.25,.65,1.82,1.3Z"/>
  <path d="M273.23,53.61c-1.49,.98-.17,.98,2.06,0,1.07-.49,1.24-.73,.41-.73-.66,0-1.82,.33-2.48,.73Z"/>
  <path d="M286.85,53.61c2.23,.98,3.55,.98,2.06,0-.66-.41-1.82-.73-2.48-.73-.83,0-.66,.24,.41,.73Z"/>
  <path d="M338.44,53.12c0,.16,.74,.49,1.65,.73s1.49,.08,1.16-.33c-.41-.73-2.81-1.06-2.81-.41Z"/>
  <path d="M269.35,56.21c-3.8,4.07-6.36,12.53-4.46,14.81,.41,.49,.99,2.03,1.24,3.42,.33,1.38,1.57,3.5,2.81,4.64,4.13,3.9,13.21,6.83,14.53,4.72,.25-.33,1.57-.89,2.89-1.14,2.56-.57,7.51-4.64,8.92-7.48,.5-.89,1.07-3.5,1.4-5.69,.33-2.77,.25-3.5-.25-2.44-.41,.89-.83,2.6-.83,3.74-.08,2.36-3.47,7.08-6.93,9.76-3.38,2.52-11.89,2.52-15.68-.08-4.95-3.34-6.77-6.91-6.77-13.02,0-3.82,.41-5.94,1.4-7.32,.83-1.14,2.06-2.85,2.81-3.9,.74-.98,1.16-1.79,.99-1.79s-1.16,.81-2.06,1.79Z"/>
  <path d="M291.39,56.05c.5,.89,1.07,1.63,1.32,1.63,.17,0,0-.73-.5-1.63s-1.07-1.63-1.32-1.63c-.17,0,0,.73,.5,1.63Z"/>
  <path d="M344.39,56.46c.99,1.14,1.9,2.03,2.06,2.03s-.33-.89-1.07-2.03-1.65-2.03-2.06-2.03,.08,.89,1.07,2.03Z"/>
  <path d="M28.07,56.62c0,.41,.83,1.63,1.82,2.68,1.4,1.46,1.9,3.17,2.15,7,.33,4.31,0,5.53-1.82,8.54-3.14,5.37-6.77,7.4-12.88,7.4-4.21,0-5.61-.41-8.42-2.28-3.22-2.28-6.36-7.24-6.44-10.17,0-.73-.5-1.79-1.16-2.28-1.98-1.63-.17,5.04,2.48,8.95,2.89,4.31,9,7.65,13.95,7.65,4.38-.08,10.32-3.09,12.71-6.59,3.88-5.53,3.8-14.4-.17-19.04-1.24-1.38-2.23-2.28-2.23-1.87Z"/>
  <path d="M110.2,57.68c-.83,.89-1.32,1.79-1.16,1.95s.99-.57,1.82-1.63c1.82-2.36,1.4-2.6-.66-.33Z"/>
  <path d="M161.88,58.9c-3.96,5.86-3.14,14.89,1.98,20.09,3.38,3.42,10.07,5.94,13.46,5.13,6.52-1.55,12.55-6.51,12.55-10.25,0-.65-.66,0-1.49,1.3-2.39,3.74-6.85,6.75-10.57,7-5.78,.41-8.25-.08-10.24-1.71-1.07-.89-2.15-1.63-2.48-1.63s-1.07-1.14-1.65-2.44c-.58-1.38-1.32-2.44-1.73-2.44-.99,0-1.82-6.91-1.24-10.17,.33-1.55,1.49-3.9,2.64-5.29,1.16-1.3,1.82-2.44,1.4-2.44-.33,0-1.57,1.3-2.64,2.85Z"/>
  <path d="M134.55,57.6c0,.49,.33,1.06,.83,1.3s.58-.08,.33-.73c-.58-1.46-1.16-1.71-1.16-.57Z"/>
  <path d="M3.71,58.57c-.33,.49-.41,.98-.17,1.22,.17,.24,.58-.16,.83-.89,.58-1.38,.08-1.63-.66-.33Z"/>
  <path d="M188.21,59.22c0,.49,.33,1.06,.83,1.3s.58-.08,.33-.73c-.58-1.46-1.16-1.71-1.16-.57Z"/>
  <path d="M241.53,59.71c.33,.89,.74,2.6,.99,3.82,.17,1.3,.66,2.28,.99,2.28,.83,0-.25-4.15-1.65-6.26q-.91-1.38-.33,.16Z"/>
  <path d="M293.87,59.22c0,.49,.33,1.06,.83,1.3s.58-.08,.33-.73c-.58-1.46-1.16-1.71-1.16-.57Z"/>
  <path d="M1.65,61.75c-.74,.49-.83,.81-.25,.81,.5,0,1.24-.41,1.49-.81,.66-.98,.33-.98-1.24,0Z"/>
  <path d="M137.44,62.8c-.33,.81-.17,1.95,.41,2.68,.83,.89,.83,1.46,.17,2.12-.58,.57-.99,1.79-.99,2.85,0,2.93-2.39,7-5.53,9.36-2.89,2.2-2.56,3.09,.5,1.46,2.23-1.14,6.44-8.05,6.93-11.39,.66-3.66-.58-9.27-1.49-7.08Z"/>
  <path d="M189.86,63.7c0,1.14,.41,2.12,.83,2.12,.5,0,.83-.73,.83-1.55,0-.89-.33-1.87-.83-2.12-.5-.33-.83,.41-.83,1.55Z"/>
  <path d="M295.68,63.37c0,1.14,.17,1.55,.41,.98,.17-.49,.17-1.46,0-2.03-.25-.49-.41-.08-.41,1.06Z"/>
  <path d="M348.51,63.37c0,1.14,.17,1.55,.41,.98,.17-.49,.17-1.46,0-2.03-.25-.49-.41-.08-.41,1.06Z"/>
  <path d="M.91,64.68c0,.89,.25,1.14,.5,.49,.25-.57,.17-1.3-.08-1.55-.25-.33-.5,.16-.41,1.06Z"/>
  <path d="M190.85,67.6c-.58,.57-.99,1.87-.99,3.01,0,2.44,1.24,1.38,1.98-1.79,.58-2.44,.41-2.6-.99-1.22Z"/>
  <path d="M14.03,104.05c1.57,1.06,2.48,1.06,2.48,0,0-.49-.83-.81-1.82-.81-1.57,0-1.65,.16-.66,.81Z"/>
  <path d="M18,103.81c.58,.24,1.32,.16,1.57-.08,.33-.24-.17-.49-1.07-.41-.91,0-1.16,.24-.5,.49Z"/>
  <path d="M333.49,103.56c0,.16,.74,.49,1.65,.73s1.65,.08,1.65-.33-.74-.73-1.65-.73-1.65,.16-1.65,.33Z"/>
  <path d="M8.25,106.08c-2.72,1.55-1.73,1.55,1.73,0,1.57-.65,2.23-1.14,1.57-1.14s-2.15,.49-3.3,1.14Z"/>
  <path d="M23.86,106.08c1.49,.65,2.97,1.22,3.3,1.22,1.07-.08-3.71-2.36-4.87-2.36-.66,0,0,.49,1.57,1.14Z"/>
  <path d="M271.58,106.65c-1.49,1.06-3.3,2.77-3.96,3.9-.91,1.63-.66,1.46,1.4-.65,1.49-1.46,3.8-3.25,5.28-3.82,1.49-.65,2.06-1.14,1.32-1.22-.74,0-2.56,.81-4.04,1.79Z"/>
  <path d="M288.09,106.16c1.57,.65,3.88,2.52,5.2,4.15,1.24,1.63,2.23,2.6,2.23,2.12,0-2.2-6.69-7.65-9.25-7.48-.58,0,.25,.57,1.82,1.22Z"/>
  <path d="M326.06,105.68c-1.49,.98-.17,.98,2.06,0,1.07-.49,1.24-.73,.41-.73-.66,0-1.82,.33-2.48,.73Z"/>
  <path d="M338.44,105.19c0,.16,.74,.49,1.65,.73s1.49,.08,1.16-.33c-.41-.73-2.81-1.06-2.81-.41Z"/>
  <path d="M322.18,108.28c-5.45,6.1-6.6,12.04-3.38,18.3,3.47,6.83,9.49,9.84,17.33,8.79,6.77-.98,12.46-6.83,13.29-13.83,.41-2.77,.33-3.5-.17-2.44-.41,.89-.83,2.68-.83,3.99-.08,2.28-.58,3.17-4.21,6.59-4.62,4.47-5.04,4.64-10.24,4.64-7.92,0-12.79-3.74-14.86-11.47-.91-3.42-.83-4.47,.41-8.3,.83-2.36,1.9-4.47,2.31-4.64,.91-.33,2.97-3.42,2.31-3.42-.17,0-1.07,.81-1.98,1.79Z"/>
  <path d="M344.39,108.52c.99,1.14,2.06,2.03,2.39,2.03,.41,0-.17-.89-1.24-2.03s-2.15-2.03-2.48-2.03c-.25,0,.33,.89,1.32,2.03Z"/>
  <path d="M28.07,107.79c0,.49,.91,2.28,2.06,3.9,4.38,6.26,2.06,15.78-4.95,20.5-4.71,3.09-11.14,3.09-16.01-.08-3.55-2.36-6.69-7.08-6.69-10.09,0-.89-.33-1.79-.74-2.12-.5-.24-.5-1.38-.08-2.85s.41-2.44-.08-2.44c-.74,0-1.07,2.52-.74,6.75,.17,3.09,3.8,9.19,6.69,11.15,1.24,.98,4.13,2.2,6.27,2.68,6.93,1.79,14.94-1.79,18-8.05,2.31-4.88,1.65-14.56-1.24-16.6-.33-.24-.99-1.14-1.49-2.03s-.99-1.22-.99-.73Z"/>
  <path d="M3.47,110.96c-1.4,3.01-1.16,3.66,.33,.98,.74-1.3,1.16-2.52,.91-2.68-.17-.16-.74,.57-1.24,1.71Z"/>
  <path d="M348.02,113.81c.66,3.5,1.16,4.15,1.16,1.55,0-1.06-.41-2.52-.83-3.17-.58-.89-.66-.41-.33,1.63Z"/>
  <path d="M295.68,115.44c0,1.14,.17,1.55,.41,.98,.17-.49,.17-1.46,0-2.03-.25-.49-.41-.08-.41,1.06Z"/>
  <path d="M295.93,120.81c-.91,5.21-1.16,5.78-4.71,9.19-1.82,1.87-2.89,3.34-2.39,3.34,2.31,0,7.51-7,7.51-10.01,0-.98,.41-2.28,.99-2.85,.74-.73,.74-1.22,.08-1.87-.74-.73-1.07-.16-1.49,2.2Z"/>
  <path d="M14.36,156.03c1.49,.57,5.45,.24,5.45-.41,0-.16-1.57-.33-3.47-.24-2.56,0-3.05,.24-1.98,.65Z"/>
  <path d="M329.28,156.68c-.99,1.3-.99,1.38,.08,.57,.66-.49,1.82-1.14,2.48-1.38,1.07-.41,.99-.49-.08-.49-.74-.08-1.9,.57-2.48,1.3Z"/>
  <path d="M334.15,155.87c.5,.16,1.49,.16,2.06,0,.5-.24,.08-.41-1.07-.41s-1.57,.16-.99,.41Z"/>
  <path d="M10.32,156.93c-.25,.41-.08,.81,.33,.81,.5,0,.91-.41,.91-.81,0-.49-.17-.81-.33-.81-.25,0-.66,.33-.91,.81Z"/>
  <path d="M22.29,156.77c0,.33,1.24,1.22,2.72,2.03s3.8,3.01,5.04,4.88c1.98,3.01,2.23,4.07,1.98,8.3-.66,8.7-6.36,14.4-14.78,14.48-3.8,0-5.2-.41-8.25-2.44-2.06-1.38-4.13-3.34-4.62-4.39-2.15-4.07-3.22-8.54-2.64-10.74,.33-1.22,.33-2.2-.08-2.2-.99,0-1.49,3.9-.83,6.75,1.16,4.64,1.24,5.04,1.65,5.45,.25,.24,1.07,1.38,1.9,2.6,.83,1.3,1.82,2.28,2.39,2.28,.5,0,1.32,.57,1.82,1.3,1.24,1.63,8.17,2.93,12.05,2.28,7.26-1.3,12.46-7.73,12.55-15.46,.08-4.31-1.4-9.27-2.72-9.27-.33,0-.83-.73-1.16-1.55-.25-.81-1.57-1.95-2.89-2.52-1.4-.57-2.48-1.3-2.48-1.71s-.33-.73-.83-.73c-.41,0-.83,.24-.83,.65Z"/>
  <path d="M326.89,156.6c0,.41-1.24,1.46-2.64,2.2-4.62,2.52-6.77,6.67-6.85,12.85,0,3.82,.41,5.86,1.32,6.91,.74,.89,1.49,2.12,1.73,2.77,.25,.73,2.06,2.36,3.96,3.66,2.97,2.03,4.21,2.36,9,2.36s5.94-.33,8.83-2.44c4.79-3.34,6.85-6.75,7.35-12.28l.41-4.72-1.07,4.96c-.58,2.77-1.73,5.61-2.48,6.43-.74,.73-1.4,1.63-1.4,1.95s-1.57,1.63-3.47,2.93c-2.89,1.79-4.46,2.28-8.25,2.2-3.14,0-5.2-.41-6.03-1.22-.66-.73-1.9-1.46-2.72-1.71-2.23-.73-4.95-5.37-5.53-9.52-.99-6.59,1.82-12.61,7.51-15.86,.83-.57,1.32-1.22,.99-1.55-.41-.41-.66-.33-.66,.08Z"/>
  <path d="M339.76,156.85c-.25,.41,.08,.89,.74,1.14,.74,.33,.99,.08,.66-.73-.5-1.3-.83-1.38-1.4-.41Z"/>
  <path d="M7.43,158.56c-.74,.49-.83,.81-.25,.81,.5,0,1.24-.41,1.49-.81,.66-.98,.33-.98-1.24,0Z"/>
  <path d="M343.4,159.45l2.39,2.36c.99,.98,.91,.81,0-.73-.74-1.14-1.82-2.2-2.48-2.36-.91-.24-.91-.16,.08,.73Z"/>
  <path d="M3.88,162.22c-.74,1.55-1.24,2.85-.99,2.85,.58,0,3.05-4.96,2.72-5.37-.25-.16-.99,.98-1.73,2.52Z"/>
  <path d="M348.43,166.37c0,.89,.25,1.14,.5,.49,.25-.57,.17-1.3-.08-1.55-.25-.33-.5,.16-.41,1.06Z"/>
  <path d="M11.97,208.18c-.99,.41,.08,.49,2.89,.24,2.48-.24,4.71-.57,4.87-.73,.74-.65-6.19-.16-7.76,.49Z"/>
  <path d="M327.96,208.26c-1.49,.41-2.72,1.14-2.72,1.55s-.74,.89-1.57,1.22c-1.73,.49-5.12,5.53-5.28,7.89-.08,.81-.41,1.46-.74,1.46s-.66,1.38-.66,3.01c0,4.39,3.55,10.82,7.59,13.59,2.89,2.03,4.04,2.36,8.83,2.36,4.54,0,5.94-.41,8.67-2.2,4.95-3.25,7.02-6.67,7.51-12.28l.41-4.88-1.07,4.88c-1.07,4.96-4.79,10.98-6.77,10.98-.58,0-1.49,.57-2.06,1.22s-1.49,1.14-1.98,1.06-1.98,.08-3.22,.41c-1.4,.41-2.81,.33-3.47-.24-.58-.49-1.4-.81-1.73-.65-1.16,.33-5.53-2.28-7.43-4.39-.99-.98-2.31-3.74-2.97-6.02-1.07-3.66-1.07-4.47,.25-8.54,.91-2.6,2.39-5.13,3.8-6.26,1.24-.98,2.81-2.2,3.3-2.68,.58-.41,3.22-1.14,5.78-1.46,4.04-.57,4.29-.73,1.49-.73-1.82,0-4.54,.33-5.94,.73Z"/>
  <path d="M21.3,208.75c.5,.16,1.49,.16,2.06,0,.5-.24,.08-.41-1.07-.41s-1.57,.16-.99,.41Z"/>
  <path d="M339.1,208.75c.58,.24,1.32,.16,1.57-.08,.33-.24-.17-.49-1.07-.41-.91,0-1.16,.24-.5,.49Z"/>
  <path d="M24.52,209.65c-.41,.57,.25,1.38,1.65,2.12,3.38,1.71,6.03,6.83,6.03,11.63,0,5.29-3.63,11.06-8.01,12.94-1.73,.73-3.96,1.71-4.87,2.2-2.64,1.14-9.74-1.46-13.04-4.64-3.3-3.34-5.7-10.25-4.54-13.26,.41-1.14,.58-2.28,.33-2.52-.91-.98-1.49,.81-1.49,4.96,0,3.34,.58,5.29,2.31,8.22,1.24,2.12,2.89,4.15,3.63,4.39s1.98,1.14,2.81,1.87c1.9,1.71,6.36,2.44,11.06,1.79,2.81-.33,4.46-1.3,7.35-3.99,1.98-1.95,4.04-4.56,4.54-5.78,1.73-4.56,.58-14.89-1.73-14.89-.41,0-.83-.57-.83-1.22,0-.73-.91-1.63-1.98-2.03s-2.15-1.14-2.31-1.71c-.25-.81-.5-.81-.91-.08Z"/>
  <path d="M7.1,211.03c-.91,.65-1.32,1.22-.83,1.22,.41,0,1.49-.57,2.31-1.22,.91-.65,1.32-1.22,.83-1.22-.41,0-1.49,.57-2.31,1.22Z"/>
  <path d="M343.4,211.52l2.39,2.36c.99,.98,.91,.81,0-.73-.74-1.14-1.82-2.2-2.48-2.36-.91-.24-.91-.16,.08,.73Z"/>
  <path d="M3.88,213.47c-.33,.89-.83,2.2-1.07,2.85s.08,.41,.91-.65c.74-.98,1.24-2.28,1.07-2.77-.25-.57-.58-.33-.91,.57Z"/>
  <path d="M348.43,218.43c0,.89,.25,1.14,.5,.49,.25-.57,.17-1.3-.08-1.55-.25-.33-.5,.16-.41,1.06Z"/>
  <path d="M12.38,260.17c-1.24,.33,.17,.57,3.71,.57,4.95-.08,6.27,.24,9,2.12,7.35,4.96,9.16,13.18,4.62,20.42-2.39,3.74-4.13,4.88-10.48,6.91-1.98,.57-3.55,.49-6.19-.41-5.86-1.95-8.75-4.64-10.15-9.44-1.73-5.69-3.14-7.73-2.39-3.42s4.29,9.93,7.35,11.63c1.4,.73,2.72,1.71,3.05,2.2,.33,.41,3.14,.73,6.27,.73,4.62-.08,6.19-.41,8.34-2.03,5.04-3.66,7.02-7.08,7.35-12.69,.33-4.96-.91-10.01-2.39-10.01-.41,0-.74-.57-.74-1.22s-.83-1.63-1.82-2.12c-1.07-.57-2.15-1.3-2.39-1.71-1.16-1.79-9.08-2.68-13.12-1.55Z"/>
  <path d="M328.87,260.17c-5.12,1.22-11.72,8.14-10.57,11.06,.33,.65,.08,1.22-.5,1.22-1.57,0-.5,6.75,1.65,10.82,4.21,7.81,15.52,10.82,22.62,5.94,5.04-3.34,7.1-6.83,7.51-12.37l.41-4.8-1.16,5.45c-.99,4.31-1.82,6.1-4.13,8.38-1.65,1.55-4.04,3.09-5.45,3.34-1.32,.33-2.48,.73-2.48,1.06s-1.07,.65-2.48,.73c-1.32,.08-2.48-.16-2.48-.65,0-.41-.74-.81-1.65-.81-4.38,0-9.49-4.96-10.81-10.49-.41-1.63-.5-4.72-.17-6.91,.41-3.34,1.07-4.56,4.13-7.48,2.97-2.77,4.54-3.58,8.34-4.23,2.56-.41,3.63-.81,2.23-.81-1.32,0-3.63,.24-5.04,.57Z"/>
  <path d="M338.36,260.82c2.06,.41,3.22,1.14,6.11,4.07,2.72,2.6,3.63,3.9,4.13,5.61,.33,1.3,.41,1.22,.5-.33,.17-2.77-7.59-9.93-10.48-9.84q-2.15,.16-.25,.49Z"/>
  <path d="M7.92,262.28c-.25,.65-.99,1.22-1.65,1.22-1.24,0-4.29,4.64-3.55,5.37,.17,.24,.83-.73,1.4-2.12,.58-1.3,1.49-2.44,2.06-2.44,.5,0,1.65-.73,2.48-1.63s1.07-1.63,.66-1.63c-.5,0-1.07,.57-1.4,1.22Z"/>
  <path d="M.91,271.31c0,.89,.25,1.14,.5,.49,.25-.57,.17-1.3-.08-1.55-.25-.33-.5,.16-.41,1.06Z"/>
  <path d="M12.79,312.23c-1.73,.41-.74,.57,3.38,.57,5.12-.08,6.27,.24,9.16,2.2,3.88,2.68,6.85,8.05,6.85,12.45-.08,4.88-3.8,10.82-8.17,13.1-4.62,2.36-4.79,2.52-2.23,2.36,1.16,0,2.15-.33,2.15-.73,0-.33,.91-.98,1.98-1.3,.99-.41,3.05-2.52,4.54-4.64,2.15-3.17,2.56-4.64,2.56-8.54,0-4.64-1.24-8.87-2.64-8.87-.33,0-.66-.49-.66-1.14,0-.57-1.4-2.03-3.05-3.17-3.38-2.28-9.66-3.34-13.87-2.28Z"/>
  <path d="M329.28,312.23c-3.47,.73-7.84,3.99-10.24,7.73-2.56,3.99-2.15,11.31,.83,15.78,2.31,3.5,6.36,6.51,9.41,7.08,.99,.16,1.73,0,1.73-.33,0-.41-1.07-.89-2.31-1.14-2.64-.49-6.77-3.99-8.42-7.08-.58-1.06-1.07-4.39-1.07-7.32-.08-6.1,1.07-8.46,6.03-11.8,3.47-2.36,9.41-3.09,14.45-1.79,1.57,.49,2.15,.41,1.65-.08-1.16-1.14-8.5-1.79-12.05-1.06Z"/>
  <path d="M7.68,314.26c-.33,.57-1.24,1.3-1.9,1.55-1.07,.41-1.07,.49,.08,.49,.74,.08,1.98-.65,2.81-1.55s1.07-1.63,.58-1.63-1.24,.49-1.57,1.14Z"/>
  <path d="M345.38,317.6c1.57,1.55,2.97,3.58,3.22,4.64q.33,1.63,.5,.24c.08-1.71-4.38-7.73-5.78-7.73-.41,0,.5,1.3,2.06,2.85Z"/>
  <path d="M2.64,319.63c-1.98,2.68-2.39,3.99-.74,2.28,1.24-1.14,3.3-4.72,2.81-4.72-.17,0-1.07,1.06-2.06,2.44Z"/>
  <path d="M349.09,326.55c-.08,1.14-.25,2.36-.33,2.85-.08,.41-.25,1.71-.33,2.77-.17,2.77-6.85,9.44-9.58,9.44-1.16,0-2.06,.33-2.06,.73,0,1.79,6.85-1.06,9.25-3.82,.74-.89,1.73-2.36,2.23-3.25,.99-1.87,2.23-10.74,1.4-10.74-.25,0-.58,.89-.58,2.03Z"/>
  <path d="M.5,328.99c.58,4.8,4.21,10.33,8.01,12.37,3.14,1.63,5.53,2.12,5.53,1.14,0-.41-1.24-.98-2.72-1.22-3.88-.73-7.1-4.39-9.33-10.82l-1.98-5.53,.5,4.07Z"/>
  <path d="M14.86,343.31c0,.41,.91,.73,2.06,.73s2.06-.33,2.06-.73-.91-.73-2.06-.73-2.06,.33-2.06,.73Z"/>
  <path d="M331.84,343.23c0,.41,.91,.81,2.06,.81s2.06-.41,2.06-.81c0-.49-.91-.81-2.06-.81s-2.06,.33-2.06,.81Z"/>
  <path d="M14.78,363.65c-.66,.33-2.23,.89-3.55,1.22-1.32,.41-2.56,1.3-2.72,1.95-.33,.98-.25,.98,.41,.08,2.06-2.85,13.37-2.68,16.26,.24,.74,.73,1.82,1.3,2.48,1.3,.58,0,1.32,.98,1.65,2.2,.25,1.22,.91,2.52,1.4,2.77,.5,.33,1.07,2.2,1.24,4.23,.91,7.81-4.95,15.54-12.55,16.43-7.51,.98-13.95-2.28-16.1-7.97-.58-1.46-1.4-3.42-1.9-4.47-.66-1.38-.66-2.52,0-4.23,.5-1.22,.58-2.68,.25-3.25-.99-1.55-1.73,5.78-.91,9.03,.91,4.07,4.62,8.62,8.5,10.58,3.55,1.79,10.57,3.01,10.57,1.79,0-.41,.58-.81,1.24-.81,2.39,0,7.1-3.17,9.25-6.18,4.54-6.43,2.97-17.17-3.05-21.56-2.64-1.95-10.81-4.15-12.46-3.34Z"/>
  <path d="M328.7,364.38c-1.49,.33-3.47,1.38-4.38,2.36-.91,.89-1.98,1.71-2.48,1.71s-1.82,2.03-2.89,4.47c-1.73,3.74-2.06,5.21-1.57,8.54,.33,2.28,.91,4.07,1.32,4.07s.74,.57,.74,1.22,1.32,2.44,2.89,3.99c2.64,2.68,7.18,4.56,11.8,5.04,2.48,.33,9.99-3.01,11.97-5.21,2.15-2.36,3.8-7.32,3.71-11.15,0-2.68-.17-2.44-.83,1.79s-1.32,5.61-4.21,8.62c-2.97,3.09-4.13,3.74-7.68,4.23-10.48,1.38-17.83-4.56-17.91-14.48-.08-6.18,1.4-9.19,5.94-12.28,2.81-1.95,4.21-2.36,8.75-2.36,4.79-.08,5.7,.24,9.16,2.6,2.81,2.03,3.55,2.28,2.72,1.06-.58-.89-1.4-1.46-1.73-1.3-.33,.24-.66,.08-.66-.33,0-2.12-9.41-3.74-14.69-2.6Z"/>
  <path d="M4.62,369.26c-1.16,1.38-2.15,3.01-2.15,3.5,0,.57,.5,.24,.99-.65s1.65-2.28,2.64-3.01c.91-.73,1.49-1.55,1.24-1.87-.33-.24-1.49,.65-2.72,2.03Z"/>
  <path d="M347.19,371.7c.58,.65,1.16,1.95,1.4,2.85,.33,1.55,.41,1.55,.5-.08,0-.98-.58-2.28-1.32-2.85-1.32-.98-1.4-.98-.58,.08Z"/>
  <path d="M16.1,415.55c-.25,.49-1.4,.89-2.56,.89s-3.14,.57-4.46,1.22c-3.22,1.63-8.5,8.14-8.09,9.93,.25,1.06,.83,.49,1.82-1.95,1.73-4.07,5.7-7.24,10.4-8.3,3.63-.81,4.71-1.38,3.96-2.2-.25-.24-.74-.08-1.07,.41Z"/>
  <path d="M333.08,415.63c-.25,.41,.08,.81,.74,.81,.74,0,1.32-.41,1.32-.81,0-.49-.33-.81-.74-.81-.5,0-1.07,.33-1.32,.81Z"/>
  <path d="M18.57,416.44c-.25,.41,.17,.81,1.16,.81,.83,0,2.31,.24,3.14,.49,.99,.41,1.24,.33,.66-.24-1.32-1.38-4.38-2.03-4.95-1.06Z"/>
  <path d="M329.78,416.2c-8.75,1.87-13.54,9.76-11.89,19.52,.17,1.06,.58,1.87,.91,1.87s.66,.49,.66,1.06c0,1.46,4.29,5.86,7.26,7.4,3.14,1.63,10.81,1.71,14.45,.16,5.45-2.28,8.92-8.3,8.75-15.13-.08-3.17-.41-2.36-1.16,3.5-.66,4.72-4.79,9.76-9.25,11.23-4.46,1.38-11.14,.57-14.03-1.79-4.71-3.74-6.36-6.91-6.36-12.37,0-2.77,.5-5.94,1.16-7.08,2.15-4.07,6.52-7.32,9.82-7.32,.99,0,1.73-.41,1.73-.81,0-.49-.08-.73-.17-.73-.17,.08-.99,.24-1.9,.49Z"/>
  <path d="M335.97,416.52c0,.41,.83,.73,1.9,.73,2.39,0,8.67,5.21,10.24,8.46l1.16,2.52-.5-2.44c-.33-1.38-1.24-3.09-2.15-3.9-.83-.81-1.57-1.71-1.57-2.12,0-.73-3.3-2.36-6.77-3.34-1.4-.41-2.31-.41-2.31,.08Z"/>
  <path d="M24.76,417.91c0,.73,5.04,5.21,5.45,4.8,.41-.33-4.38-5.45-5.04-5.45-.25,0-.41,.24-.41,.65Z"/>
  <path d="M291.56,420.92c1.73,1.55,3.47,3.99,3.96,5.45l.83,2.68-.41-2.68c-.41-2.68-4.87-8.3-6.6-8.3-.41,0,.58,1.3,2.23,2.85Z"/>
  <path d="M31.45,427.18c.99,3.58,.91,7.73-.17,8.38-.5,.33-.66,1.06-.41,1.63,.17,.57-.17,1.3-.83,1.55s-1.16,.98-1.16,1.63c0,1.63-4.62,4.8-8.67,5.94-2.97,.81-3.05,.89-.91,.98,5.78,.16,12.46-6.35,13.37-13.1,.58-4.15-.17-9.6-1.32-9.6-.41,0-.41,1.14,.08,2.6Z"/>
  <path d="M.41,433.28c.5,4.8,2.89,8.95,6.6,11.47,2.64,1.79,9.49,3.66,9.49,2.6,0-.33-1.49-.81-3.3-1.06-5.04-.65-10.07-5.69-11.31-11.15-.08-.65-.58-2.36-1.07-3.66-.66-2.03-.74-1.79-.41,1.79Z"/>
  <path d="M295.85,435.24c-.74,4.39-6.85,10.82-10.57,11.15-3.3,.24-3.88,.98-.74,.98,2.81,0,7.18-2.6,9.49-5.78,1.65-2.12,3.55-8.7,2.81-9.52-.25-.16-.66,1.22-.99,3.17Z"/>
  <path d="M266.63,439.63c0,.81,4.95,5.21,7.18,6.43,3.14,1.55,6.85,2.28,6.85,1.22,0-.41-.91-.73-2.06-.73-2.89,0-6.44-1.87-8.92-4.88-1.98-2.28-3.05-3.01-3.05-2.03Z"/>
  <path d="M16.51,467.53c0,.41,.91,1.06,1.98,1.3s2.56,.73,3.3,.98,1.32,.16,1.32-.33c0-.41-.91-1.06-1.98-1.3s-2.56-.73-3.3-.98-1.32-.16-1.32,.33Z"/>
  <path d="M68.1,467.45c-5.53,1.3-9.41,3.82-11.72,7.4-2.97,4.56-3.63,7.48-2.81,12.12,1.57,7.97,7.51,12.61,16.34,12.61,4.54,0,5.86-.33,8.67-2.28,7.35-5.13,9.16-13.67,4.79-22.05-2.97-5.69-3.3-4.47-.41,1.87,1.82,4.15,2.64,10.9,1.24,10.9-.25,0-.99,1.22-1.49,2.77-1.24,3.34-5.78,6.91-9.91,7.89-3.14,.65-10.9-.49-10.9-1.71,0-.41-.66-.89-1.49-1.14-.83-.33-2.56-2.03-3.8-3.99-3.38-5.04-3.3-10.98,.17-16.11,2.56-3.74,6.69-6.43,9.82-6.43,.83,0,1.98-.41,2.48-.89,.66-.65,1.07-.65,1.4,0,.33,.49,1.4,.89,2.39,.89s2.89,.57,4.21,1.22c2.56,1.3,3.71,1.22,1.98-.16-.91-.73-9.08-3.66-9.25-3.42-.08,.08-.83,.33-1.73,.49Z"/>
  <path d="M121.34,467.61c0,.41,1.4,.98,3.05,1.3,7.92,1.46,12.38,6.43,12.88,14.16,.33,4.8,1.32,6.51,1.49,2.44,.17-5.04-.25-6.67-2.39-10.01-2.56-3.99-4.29-5.29-9.66-7.16-4.62-1.63-5.37-1.79-5.37-.73Z"/>
  <path d="M174.59,467.7c.25,.41,.83,.81,1.32,.81,.41,0,.74-.41,.74-.81,0-.49-.58-.81-1.32-.81-.66,0-.99,.33-.74,.81Z"/>
  <path d="M224.94,467.86c-7.35,2.44-10.07,4.88-12.22,10.98-.99,2.93-.91,4.8,.66,11.39,.58,2.44,4.29,6.59,7.26,8.14,1.49,.73,4.62,1.22,7.59,1.22,8.09,0,12.38-3.01,15.27-10.82,1.98-5.21,1.98-5.29,.41-3.99-.66,.57-1.24,2.03-1.24,3.25,0,1.46-1.16,3.5-3.3,5.94-2.64,2.93-4.13,3.9-7.26,4.56-6.77,1.38-11.64-.33-15.93-5.78-2.56-3.09-2.72-3.82-2.72-9.11s.25-6.18,2.31-8.79c1.4-1.95,3.71-3.5,6.11-4.39,2.15-.81,4.29-1.79,4.87-2.2s1.4-.49,1.9-.16c.41,.24,.83,.08,.83-.33,0-1.06-1.24-1.06-4.54,.08Z"/>
  <path d="M281.07,467.7c.25,.41,.66,.81,.91,.81,.17,0,.33-.41,.33-.81,0-.49-.41-.81-.91-.81-.41,0-.58,.33-.33,.81Z"/>
  <path d="M330.02,467.94c-2.72,1.06-3.14,2.52-.41,1.71,.99-.33,1.98-.73,2.23-1.06,.74-.89,3.3-.98,3.3-.08,0,.41,.83,.81,1.9,.81,2.31,.08,4.62,1.38,8.34,4.72,1.65,1.46,2.97,2.28,2.97,1.79s-.58-1.06-1.24-1.3-1.4-1.14-1.65-1.87c-.5-1.55-6.93-4.72-10.73-5.29-1.4-.24-3.47,0-4.71,.57Z"/>
  <path d="M11.39,468.26c-.08,.41-1.57,1.3-3.14,2.12s-3.96,3.01-5.2,4.96c-2.23,3.58-2.89,5.86-1.4,4.96,.5-.33,.66-.89,.41-1.3-.33-.41-.08-.73,.33-.73,.5,0,.91-.49,.91-1.14,0-2.2,5.7-6.83,9.08-7.4,1.82-.33,3.3-.89,3.3-1.3,0-.89-3.88-.98-4.29-.16Z"/>
  <path d="M114.99,469.65c-2.48,1.14-4.46,2.68-4.79,3.66-.25,.98-.83,1.71-1.16,1.71-1.16,0-2.72,4.56-2.31,6.67,.25,1.46,.41,1.3,.5-.81,0-1.38,.41-2.6,.83-2.6s1.16-1.14,1.73-2.44c1.24-2.93,4.62-5.53,8.17-6.18,1.4-.33,2.56-.81,2.56-1.22,0-1.06-.83-.89-5.53,1.22Z"/>
  <path d="M170.46,468.43c-3.47,1.06-6.93,3.42-7.43,4.96-.25,.89-.83,1.63-1.24,1.63-1.4,0-2.64,6.02-2.23,10.66,.66,7.81,5.78,13.02,13.79,13.99,3.55,.49,3.63,.49,.83-.33-5.2-1.55-8.34-3.42-10.98-6.67-2.06-2.6-2.64-4.23-2.89-7.97-.33-4.23-.08-5.21,2.23-8.79,2.39-3.58,6.44-6.59,9.08-6.59,.5,0,.91-.41,.91-.81,0-.49-.08-.81-.17-.73-.17,.08-.99,.33-1.9,.65Z"/>
  <path d="M177.48,468.43c0,.41,1.24,.98,2.72,1.22,4.62,.89,9.66,6.67,9.66,11.06,0,.89,.41,1.63,.91,1.63,.41,0,.58,.33,.33,.81-.25,.41-.17,.81,.33,.81,1.49,0,0-5.04-2.72-9.11-1.82-2.85-3.55-4.31-6.36-5.53-4.46-1.87-4.87-1.95-4.87-.89Z"/>
  <path d="M230.31,468.51c0,.49,.74,.81,1.65,.81,4.38,0,10.65,6.26,10.81,10.74q.08,1.87,.66-.16c.33-1.14,.41-2.2,.17-2.44-.33-.24-1.4-1.71-2.56-3.42-2.48-3.74-10.73-7.97-10.73-5.53Z"/>
  <path d="M276.53,468.26c-2.97,.89-5.53,2.36-7.26,4.15-2.23,2.28-4.38,6.26-3.71,6.91,.25,.33,0,1.14-.58,1.79-.83,.98-.91,1.95-.17,4.31,.5,1.63,1.16,3.82,1.4,4.88,.74,2.52,4.29,6.51,7.26,8.05,3.38,1.63,11.8,1.63,15.19,0,3.22-1.71,6.69-5.78,7.35-8.54,.25-1.22,.74-2.85,1.16-3.58,.5-.89,.5-1.55,0-1.87-.41-.24-1.07,1.06-1.32,3.01-.74,4.96-7.18,11.15-11.64,11.39-5.86,.16-8.09-.24-11.23-2.36-5.12-3.5-6.52-6.02-6.6-12.28-.08-7.73,2.64-11.96,9.08-13.99,3.38-1.06,5.45-2.52,3.55-2.36-.66,0-1.82,.24-2.48,.49Z"/>
  <path d="M283.14,468.51c0,.41,.58,.81,1.24,.81,3.8,0,9,4.47,10.9,9.27,.58,1.46,.99,1.95,.99,1.06,.17-3.42-3.8-8.14-8.75-10.66-3.05-1.46-4.38-1.63-4.38-.49Z"/>
  <path d="M24.76,469.73c0,.57,2.64,2.85,3.38,2.85,.41,0,.74-.41,.74-.89,0-.41-.33-.57-.83-.33-.41,.24-.83,.16-.83-.24,0-.49-.58-.98-1.24-1.3-.66-.24-1.24-.33-1.24-.08Z"/>
  <path d="M324.08,470.38c-1.16,.81-1.24,1.14-.33,1.14,.58,0,1.57-.49,2.15-1.14,.58-.57,.74-1.06,.33-1.06-.33,0-1.32,.49-2.15,1.06Z"/>
  <path d="M28.64,474.28c.58,.57,1.24,.81,1.49,.57s-.17-.73-.99-.98c-1.16-.49-1.24-.41-.5,.41Z"/>
  <path d="M318.55,477.62c-2.72,6.43,.25,15.38,6.44,19.69,2.97,2.03,4.21,2.36,9.25,2.36,5.28,.08,6.11-.16,8.92-2.36,5.12-4.15,6.19-6.1,6.52-12.2l.25-5.61-.74,5.04c-1.32,9.52-6.27,14.24-14.78,14.32-4.21,0-5.53-.33-8.42-2.36-1.9-1.22-3.96-3.17-4.71-4.15-1.98-3.01-2.72-8.87-1.73-12.94,1.16-4.39,.58-5.45-.99-1.79Z"/>
  <path d="M30.46,476.97c.5,.57,1.16,2.77,1.4,4.8,.99,7.08-4.62,15.29-11.47,16.76-9.66,2.12-16.59-3.01-19.56-14.32-.74-2.85-.74-2.77-.33,1.14,.66,7.24,5.61,12.77,12.46,13.99,10.4,1.95,18.74-3.99,19.81-14.07,.5-4.56-.74-9.44-2.39-9.44-.58,0-.5,.41,.08,1.14Z"/>
  <path d="M106.82,486.89c.66,7.57,7.18,12.85,15.93,12.77,4.29,0,5.7-.41,8.42-2.28,3.38-2.28,7.1-7.4,5.94-8.05-.33-.24-1.07,.81-1.65,2.28-1.32,3.09-6.52,6.59-10.9,7.24-3.8,.57-8.5-.49-10.24-2.2-.74-.73-1.65-1.3-2.06-1.3-1.07,0-4.29-5.78-5.04-8.95q-.66-2.85-.41,.49Z"/>
  <path d="M189.86,486.81c0,4.47-4.95,10.25-9.99,11.63-2.15,.65-2.39,.81-.91,.89,3.71,.16,8.25-3.34,10.9-8.46,1.82-3.42,2.15-6.1,.83-6.1-.41,0-.83,.89-.83,2.03Z"/>
</svg>