<?xml version="1.0" encoding="UTF-8"?>
<svg id="Layer_1" data-name="Layer 1" xmlns="http://www.w3.org/2000/svg" viewBox="0 0 250 400">
  <path d="M69.26,.11c-.93,.23,.17,.51,3.09,.74,2.51,.23,4.96,.74,5.36,1.08,1.87,1.65,2.51,2.05,3.73,2.45,.7,.23,1.17,.51,.99,.74-.17,.17,.29,1.08,.99,2.05,2.45,3.19,4.37,11.17,2.68,11.17-.29,0-.47,.23-.29,.46,.41,.63-.7,4.56-1.57,5.7-1.52,1.82-4.78,4.67-5.42,4.67-.35,0-.82,.4-1.05,.85-.17,.57-1.11,.85-2.68,.85-1.28,0-2.33,.23-2.33,.46,0,.97-8.1-.46-9.56-1.65-1.69-1.31-5.25-4.84-6.41-6.27-1.46-1.82-.99-.8,1.11,2.51,.99,1.48,2.22,2.85,2.74,3.02,.58,.17,1.05,.57,1.05,.85s.29,.51,.7,.51c.35,0,1.17,.46,1.81,.97,.87,.85,2.22,1.03,7,1.03,4.14,0,5.95-.23,6.12-.74,.12-.34,.41-.68,.7-.68,1.05,0,5.25-3.08,5.6-4.1,.17-.57,.58-1.03,.87-1.03s.52-.34,.52-.8c0-.4,.35-1.08,.82-1.42,1.11-.91,1.69-5.98,1.17-10.26-.23-1.94-.52-3.36-.7-3.25-.12,.17-.93-1.03-1.81-2.62-.82-1.6-2.1-3.13-2.8-3.48-.76-.34-1.34-.8-1.34-1.08,0-.23-.41-.46-.87-.46-.41,0-1.05-.34-1.28-.74-.58-.97-6.88-1.99-8.92-1.54Z"/>
  <path d="M121.68,.4c-3.85,.68-9.15,3.82-9.62,5.75-.17,.74-.58,1.37-.82,1.37-.29,0-.7,.57-.93,1.25-.23,.74-.58,1.42-.82,1.6s-.58,1.54-.82,3.13c-.35,2.73-.35,2.79,.41,1.14,.47-.97,.99-2.56,1.17-3.59,.41-1.94,3.79-6.89,4.78-6.95,.35,0,1.22-.57,2.04-1.31,.82-.68,1.98-1.37,2.62-1.54,1.34-.34,8.05-.28,10.2,0q1.57,.28,4.66,2.85c1.11,.91,2.22,1.71,2.51,1.71,.23,0,.41,.34,.41,.8s.41,1.25,.93,1.77,1.11,2.05,1.28,3.48c.12,1.37,.52,2.51,.76,2.51,.29,0,.52,.91,.52,1.99s-.23,1.99-.58,1.99c-.29,0-.58,.85-.58,1.94s-.41,2.34-.87,2.85c-.47,.46-.87,1.03-.87,1.31-.06,.74-2.16,3.02-2.86,3.02-.35,0-.64,.28-.64,.57,0,.34-.47,.8-.99,.97-.58,.23-1.4,.74-1.81,1.14s-1.69,.74-2.8,.74-1.98,.17-1.98,.4c0,.68-3.38,.8-3.79,.17-.23-.34-1.22-.57-2.27-.57-1.11,0-2.27-.4-2.68-.85s-1.05-.85-1.4-.85c-.87-.06-3.26-2.05-3.26-2.73,0-.28-.41-.68-.87-.91-.47-.17-.87-.63-.87-1.03,0-.46-.47-1.08-1.05-1.54-.76-.51-.99-1.25-.82-2.39,.17-.97,0-1.65-.41-1.65-.93,0-.76,3.19,.23,3.99,.47,.4,.87,.97,.87,1.25,0,.97,3.56,5.01,4.43,5.01,.47,0,.82,.17,.82,.46,0,.23,.99,.91,2.16,1.54,1.63,.85,3.26,1.14,6.88,1.14s5.25-.28,6.88-1.14c1.17-.63,2.16-1.31,2.16-1.54,0-.28,.41-.46,.87-.46s1.28-.63,1.87-1.42,1.52-1.99,2.1-2.68c.52-.63,.99-1.54,.99-1.99,0-.4,.29-.74,.64-.74s.52-.57,.47-1.31c-.06-.68,.12-1.71,.35-2.28,.52-1.25-.12-7.29-.87-8.03-.35-.34-.58-1.03-.58-1.6s-.35-1.2-.82-1.37-.99-.85-1.17-1.54-1.11-1.77-2.16-2.34c-.99-.57-2.27-1.48-2.8-1.99-1.46-1.42-7.35-2.17-11.19-1.48Z"/>
  <path d="M12.19,.51C9.74,.97,3.38,5.41,3.38,6.66c0,.28-.35,.91-.82,1.37-1.11,1.31-2.16,5.93-1.52,6.55,.41,.4,.58-.11,.58-1.25,0-1.82,1.87-5.98,3.5-7.58,.47-.51,2.22-1.77,3.79-2.85,2.74-1.77,3.26-1.94,7.64-1.94,3.56,0,5.19,.28,6.82,1.14,1.17,.63,2.16,1.31,2.16,1.48,0,.23,.64,.57,1.4,.74,.82,.17,1.63,.91,1.87,1.6,.35,1.2,.82,1.82,2.51,3.65,1.11,1.2,1.28,12.25,.17,12.59-.35,.17-.7,.57-.7,.97s-.52,1.31-1.11,1.99c-.64,.74-1.22,1.48-1.34,1.71s-1.4,1.2-2.86,2.11c-2.39,1.6-5.95,2.62-8.98,2.62-2.45,0-7-1.31-7.46-2.11-.23-.46-.76-.85-1.11-.85s-1.28-.68-2.1-1.54l-1.46-1.54,.47,1.42c.23,.74,.47,1.37,.52,1.37,0,0,.58,.34,1.22,.74,.64,.34,1.81,1.03,2.62,1.37,.82,.4,1.63,.97,1.87,1.31,.23,.28,2.8,.57,5.83,.57,5.25,0,5.54-.06,8.69-2.05,3.56-2.28,6.94-6.55,6.94-8.83,0-.74,.29-1.37,.64-1.37,.64,0,.47-3.25-.41-7.63-.64-3.36-5.48-10.03-7.29-10.03-.23,0-.87-.4-1.34-.91C23.2,.62,15.33,0,12.19,.51Z"/>
  <path d="M175.96,.45c0,.28,1.46,.57,3.21,.57,4.78,.11,6.12,.34,6.12,.85,0,.28,.41,.51,.87,.51,1.11,0,5.31,3.93,6.12,5.75,.58,1.31,.58,1.25,.29-.34-.29-1.48-3.79-5.41-4.78-5.41-.23,0-.82-.4-1.34-.85-1.05-.91-10.49-1.88-10.49-1.08Z"/>
  <path d="M228.72,.45c-3.03,.74-9.04,4.9-9.04,6.21,0,.23-.52,1.03-1.17,1.82s-1.17,2.05-1.17,2.79c0,.68-.29,1.37-.58,1.48-.82,.23-.87,6.67-.06,7.46,.35,.34,.64,1.2,.64,1.88,0,.74,.35,1.65,.76,2.05s1.28,1.6,1.87,2.56c.64,1.03,1.34,1.88,1.52,1.88,.23,0,.82,.34,1.22,.68,2.27,2.11,5.36,3.02,10.32,3.02,4.72-.06,7.05-.74,8.8-2.56,.17-.17,.99-.74,1.92-1.31,.87-.57,1.57-1.25,1.57-1.6s.35-.97,.76-1.37c1.87-2.11,2.27-2.68,1.92-2.96-.17-.23-.41-.23-.52-.11-.06,.11-.7,1.03-1.46,2.05-.7,1.03-1.28,2.11-1.28,2.45,0,.28-.41,.57-.87,.57s-.87,.23-.87,.57c0,.28-.35,.57-.7,.57-.41,0-1.4,.51-2.22,1.14s-2.27,1.14-3.32,1.14c-.99,0-1.98,.23-2.16,.51-.17,.23-.93,.4-1.63,.23-.76-.11-2.39-.34-3.67-.57-2.1-.28-5.54-2.11-6.01-3.19-.12-.23-.58-.4-1.05-.4s-.82-.23-.82-.46c0-.28-.52-1.08-1.17-1.82s-1.17-1.65-1.17-2.05-.35-.8-.7-.97c-.52-.11-.76-1.77-.76-5.58,0-4.84,.12-5.58,1.57-7.75,3.85-5.75,7.46-7.86,13.29-7.81,4.2,0,6.53,.28,7,.8,.17,.17,1.4,1.03,2.74,1.94,1.34,.85,2.62,2.11,2.8,2.68,.23,.63,.64,1.08,.93,1.08s.52,.34,.52,.8c0,.4,.35,1.08,.82,1.42,.41,.34,.93,1.82,1.11,3.25,.29,2.62,.7,3.53,1.34,2.91,.23-.23,.12-.68-.17-1.08-.35-.4-.76-1.82-.93-3.13s-.7-2.85-1.22-3.3c-.52-.51-.93-1.14-.93-1.37,0-.68-3.91-4.62-4.61-4.62-.29,0-.93-.4-1.4-.85-.93-.85-9.44-1.65-11.78-1.08Z"/>
  <path d="M64.31,1.25c.17,.28,0,.57-.47,.57-1.22,0-6.24,3.93-6.24,4.84,0,.46-.23,.85-.58,.85-.29,0-.76,.68-.93,1.54-.23,.91-.58,1.82-.82,2.17-.76,.91-1.4,7.12-.76,7.12,.35,0,.47,.63,.35,1.37-.17,.74,0,1.54,.35,1.71,.41,.28,.64-.28,.64-1.6,0-1.14-.23-2.05-.58-2.05-.7,0-.76-2.11-.06-2.51,.23-.17,.64-1.48,.82-2.96,.12-1.48,.52-2.79,.87-3.02,.29-.17,.7-.91,.93-1.65,.23-.68,.7-1.25,.99-1.25s.52-.34,.52-.74c0-.68,1.98-2.05,5.83-3.93l2.04-.97-1.63-.06c-.93,0-1.52,.23-1.28,.57Z"/>
  <path d="M169.89,2.62c-3.79,2.56-6.24,6.44-7.17,11.4-.41,2.56-.47,4.33-.12,4.96,.29,.57,.52,1.82,.52,2.79,0,1.03,.35,1.88,.87,2.05,.47,.17,.99,.85,1.22,1.54,.47,1.54,1.28,2.28,5.07,4.84,2.97,2.05,3.15,2.11,8.63,2.11,4.49,0,5.77-.23,6.59-1.03,.58-.51,1.28-.97,1.57-.97,.35,0,.93-.34,1.34-.74,.47-.34,1.34-1.08,2.04-1.54,.64-.46,1.22-1.03,1.22-1.31,0-.23,.64-1.42,1.46-2.56,.93-1.37,1.46-2.79,1.4-4.1-.06-1.94-.12-1.88-.52,.51-.23,1.37-.82,2.68-1.34,3.02-.52,.28-.99,.8-.99,1.08,0,.74-2.68,3.3-4.96,4.79-1.92,1.2-8.92,2.62-9.39,1.88-.17-.23-1.34-.46-2.62-.46s-2.27-.28-2.27-.63c0-.28-.76-.85-1.75-1.14-.93-.34-1.75-.85-1.75-1.14s-.35-.51-.76-.51-1.34-1.14-2.16-2.56-1.69-2.56-1.98-2.56-.41-.17-.23-.34c.23-.17,.12-1.14-.17-2.11-.64-2.05-.12-10.26,.64-9.8,.29,.17,.7-.28,.93-.97,.17-.68,.76-1.6,1.17-2.05,.47-.4,.82-1.14,.82-1.54,0-.46,.58-.97,1.28-1.2,.7-.17,1.63-.68,2.04-1.03,1.87-1.65,2.45-1.99,3.73-2.22l1.4-.23-1.46-.06c-.82-.06-2.74,.8-4.31,1.82Z"/>
  <path d="M193.85,11.22c.12,1.54,.47,3.36,.76,3.99s.64,1.65,.76,2.28c.17,.74,.29,.57,.35-.57,0-.97-.47-3.25-1.05-5.13l-1.11-3.42,.29,2.85Z"/>
  <path d="M108.38,17.55c0,.63,.17,.8,.35,.34,.17-.4,.12-.91-.06-1.08-.17-.23-.35,.11-.29,.74Z"/>
  <path d="M248.83,17.2c0,.28,.29,.57,.58,.57,.35,0,.58-.28,.58-.57,0-.34-.23-.57-.58-.57-.29,0-.58,.23-.58,.57Z"/>
  <path d="M248.37,20.05c0,1.08,.12,1.54,.29,.97,.12-.51,.12-1.42,0-1.99-.17-.51-.29-.06-.29,1.03Z"/>
  <path d="M1.63,22.56c0,.23,.52,1.08,1.17,1.88s1.17,1.2,1.17,.91c0-.34-.52-1.14-1.17-1.88s-1.17-1.14-1.17-.91Z"/>
  <path d="M43.49,200.38l.12,158.68h54.22V226.02c0-112.59-.12-133.38-.82-135.43-.47-1.37-.99-4.16-1.22-6.32-.23-2.11-.58-3.82-.87-3.82-.23,0-.58-1.42-.7-3.13-.17-1.88-.64-3.42-1.17-3.87-1.05-.8-4.55-5.93-4.55-6.67,0-.23-.17-.57-.41-.68-.7-.28-3.09-3.76-3.09-4.44,0-.28-.29-.57-.64-.57-.29,0-.87-.74-1.17-1.71-.35-.91-1.11-1.82-1.69-1.99s-1.22-.68-1.4-1.14-.7-.85-1.17-.85-.93-.17-1.05-.46c-.29-.63-3.85-2.96-4.49-2.96-.35,0-.82-.34-1.05-.74-.52-.8-2.16-1.82-4.08-2.68-.76-.28-1.34-.8-1.34-1.08,0-.34-.93-.74-2.04-.97-1.11-.17-2.04-.57-2.04-.8s-1.87-.57-4.2-.8-4.37-.57-4.55-.85-2.22-.68-4.49-.91c-2.33-.23-4.26-.63-4.26-.91s-.47-.51-.99-.51c-.99,0-1.05,7.86-.87,158.68Zm6.35-155.55c1.87,.46,4.31,.97,5.42,1.14,6.18,.97,8.8,1.65,9.85,2.68,.7,.57,1.22,.85,1.22,.63s.23-.17,.47,.17c.23,.28,2.8,2.11,5.66,3.93,2.92,1.88,5.36,3.53,5.54,3.7,.17,.23,.7,.51,1.22,.68,.93,.34,6.12,7.18,6.82,9,.17,.46,.7,1.2,1.11,1.6,3.21,3.19,5.54,8.26,6.3,13.5,.17,1.54,.7,4.27,1.17,5.98,1.46,5.87,1.46,5.93-1.17,6.32l-2.33,.34,2.62,.11,2.62,.06-.17,82.73c-.12,81.25-.12,103.18-.06,148.88v26.89l-.06,4.16H45.94v-9.29c-.06-22.56-.64-201.64-.76-226.2-.12-26.84-.12-27.18,1.05-27.23,.99-.06,.99-.11,.17-.34-1.11-.28-1.11,.68-1.11-39.48,0-4.39,.06-8.6,.06-9.4,0-1.65,.06-1.65,4.49-.57Z"/>
  <path d="M49.32,94.52c1.05,.11,2.62,.11,3.5,0s0-.23-1.92-.23-2.62,.11-1.57,.23Z"/>
  <path d="M63.55,94.52c5.07,.11,13.35,.11,18.42,0,5.01-.06,.87-.17-9.21-.17s-14.23,.11-9.21,.17Z"/>
  <path d="M14.81,53.04c-.17,.23,1.52,.63,3.79,.85,2.27,.17,4.43,.68,4.84,1.08,.41,.34,1.69,1.2,2.86,1.82s2.16,1.42,2.16,1.88c0,.4,.41,.85,.87,1.03,.47,.23,.87,.68,.87,1.08,0,.46,.47,1.2,.99,1.77,.82,.8,.99,2.05,1.05,6.61,0,3.53-.23,5.75-.64,6.04-.35,.23-.82,.91-1.05,1.54-.58,1.71-2.1,3.3-4.72,4.84-1.28,.74-2.51,1.6-2.74,1.94-.58,.8-11.72,.74-12.01-.11-.12-.4-.47-.57-.7-.4-.29,.17-.93-.28-1.4-.97-.7-.97-1.05-1.14-1.63-.57-.47,.46-.52,.68-.06,.68,.35,0,1.11,.4,1.63,.91,.47,.51,1.92,1.03,3.21,1.2s2.33,.57,2.33,.8c0,.28,1.17,.51,2.62,.51s2.62-.28,2.62-.57c0-.34,.87-.57,1.92-.57,2.45,0,8.4-3.99,8.92-5.98,.17-.74,.7-1.48,1.17-1.65s.82-.97,.82-1.77,.29-1.42,.58-1.42c.7,0,.7-6.21,0-7.12-.23-.34-.58-1.54-.76-2.68-.35-2.28-.7-2.85-4.02-6.04-3.32-3.3-3.91-3.65-6.35-3.93-1.28-.17-2.45-.57-2.62-.8-.41-.68-4.14-.68-4.55,0Z"/>
  <path d="M122.61,53.1c-.17,.28-1.17,.57-2.16,.57-.93,0-2.39,.51-3.21,1.14s-1.87,1.14-2.33,1.14-.64,.23-.47,.57c.17,.28-.06,.57-.58,.57-.47,0-1.11,.46-1.28,.97-.41,1.14-2.57,4.27-3.21,4.73-.23,.17-.52,2.22-.7,4.56-.23,3.13-.17,3.65,.17,1.99,.29-1.25,.41-2.45,.23-2.73-.12-.23,.06-.4,.41-.4,.47,0,.58-.51,.35-1.42-.23-.8-.12-1.42,.23-1.42,.29,0,.58-.23,.58-.51,0-1.03,3.15-5.18,4.2-5.53,.58-.17,1.05-.57,1.05-.85s.35-.51,.82-.51,1.28-.46,1.87-.97c.82-.8,2.04-1.03,6.35-1.03s5.54,.23,6.35,1.03c.58,.51,1.4,.97,1.87,.97s.82,.28,.82,.63c0,.28,.29,.4,.58,.23,.35-.17,.58-.17,.58,.11,0,.4,1.05,1.77,3.56,4.67,.35,.4,.82,1.88,.99,3.25,.12,1.37,.47,2.34,.76,2.17,.7-.4,.64-3.65-.06-3.65-.29,0-.58-.46-.58-1.03,0-.63-.52-1.54-1.17-2.11s-1.17-1.31-1.17-1.65c0-1.03-6.53-4.9-8.28-4.9-.87,0-1.75-.28-1.92-.57-.17-.34-1.22-.57-2.33-.57s-2.16,.23-2.33,.57Z"/>
  <path d="M176.89,53.04c-.17,.28,1.63,.68,4.02,.91s4.37,.63,4.37,.91,.35,.51,.82,.51c.76,0,4.43,3.3,6.65,5.93,.41,.51,.93,2.28,1.11,3.93,.17,1.6,.64,3.13,.99,3.36,.47,.28,.41,.74-.06,1.54-.64,.97-.58,1.08,.12,.85,.93-.4,1.22-3.36,.35-3.87-.23-.17-.64-1.31-.76-2.45-.64-4.73-7.05-11-11.14-11-.82,0-1.69-.28-1.87-.57-.47-.68-4.2-.74-4.61-.06Z"/>
  <path d="M231.11,52.99c-.17,.28-1.46,.68-2.92,.8-2.68,.34-3.26,.63-6.65,3.99-3.21,3.08-3.61,3.7-4.02,5.58-.17,.97-.58,1.88-.82,2.05-.76,.46-.58,6.5,.23,8.77,1.92,5.24,7.29,10.2,11.02,10.26,.87,0,1.75,.23,1.92,.57,.47,.74,4.37,.74,4.37,.06,0-.34,1.11-.63,2.51-.74,1.34-.11-.29-.23-3.67-.23-4.02-.06-6.12-.28-6.3-.74-.12-.34-.52-.63-.93-.63-1.57,0-6.76-5.07-6.76-6.61,0-.4-.35-.8-.7-.97-1.05-.28-1.05-11.91,0-12.25,.35-.11,.7-.57,.7-1.03s.52-1.25,1.17-1.77c.64-.57,1.17-1.31,1.17-1.71s.41-.74,.87-.74c.52,0,1.05-.4,1.22-.85,.23-.46,.7-.85,1.11-.85,.47,0,1.22-.46,1.75-.97,.82-.74,2.16-.97,6.59-.97,3.91-.06,5.66,.17,5.83,.68,.12,.34,.47,.68,.7,.68,.29,0,1.52,.63,2.68,1.42,2.8,1.88,6.06,7.12,6.06,9.74,0,1.48,.23,1.94,1.05,1.88,.58,0,.7-.17,.29-.34-.41-.11-.76-.85-.76-1.6,0-2.17-.7-4.84-1.17-4.56-.23,.17-.64-.34-.82-1.14-.23-.8-.64-1.42-.93-1.42-.35,0-.58-.34-.58-.8,0-1.08-5.77-4.67-8.16-5.07-1.11-.17-2.86-.51-3.85-.68-1.05-.23-1.98-.17-2.22,.17Z"/>
  <path d="M11.72,54.07c.52,.11,1.34,.11,1.75,0,.35-.17-.06-.28-1.05-.28-.93,0-1.28,.11-.7,.28Z"/>
  <path d="M171.35,54.75c-.76,.63-1.63,1.25-1.98,1.37-.41,.11-.52,.46-.29,.68s.82,0,1.34-.51,1.34-.91,1.81-.91,.82-.23,.82-.51,.7-.68,1.63-.8q1.52-.23-.23-.34c-1.05,0-2.33,.4-3.09,1.03Z"/>
  <path d="M9.21,54.81c0,.28-.41,.57-.87,.57-.52,0-1.05,.4-1.22,.85-.23,.46-.64,.85-1.05,.85-.35,.06-1.52,1.2-2.51,2.56-1.52,1.94-1.98,3.25-2.16,5.81-.23,2.68-.23,2.85,.17,.91,.82-4.44,4.66-9.8,7.81-10.77,1.05-.34,1.4-1.37,.41-1.37-.29,0-.58,.23-.58,.57Z"/>
  <path d="M165.81,59.37c-.82,1.25-1.52,2.51-1.52,2.85,0,.28-.23,.57-.58,.57-.29,0-.58,.91-.58,1.99s-.23,1.99-.47,1.99c-.29,0-.47,1.08-.35,2.39,.23,3.36,1.4,7.86,2.04,7.86,.29,0,.52,.34,.52,.8,0,.68,.93,1.54,5.77,5.53,.41,.4,1.92,.8,3.32,.97,1.4,.11,2.57,.51,2.57,.74,0,.28,1.05,.51,2.33,.51s2.33-.28,2.33-.57c0-.34,.87-.57,1.98-.57s2.39-.4,2.92-.85c.47-.46,1.05-.85,1.22-.85,1.98,0,7.29-6.95,7.23-9.4-.06-1.6-.12-1.6-.58,.46-.29,1.2-.87,2.56-1.22,2.96-1.75,1.88-2.22,2.56-2.22,3.13,0,.28-.41,.57-.87,.57-.52,0-1.05,.4-1.22,.85-.23,.46-.7,.85-1.11,.85-.47,0-1.22,.46-1.75,.97-.82,.74-2.1,.97-6.47,.97s-5.66-.23-6.53-.97c-.58-.51-1.4-.97-1.75-.97-.41,0-.7-.17-.7-.46,0-.23-.82-.85-1.75-1.37-.99-.51-1.75-1.37-1.75-1.77,0-.46-.41-.97-.87-1.2-.47-.17-.87-.68-.87-1.2,0-.46-.23-.85-.47-.85-.64,0-.93-2.56-.87-7.58,.06-3.3,.29-4.1,1.87-6.21,.99-1.31,1.81-2.68,1.81-3.08s.35-.85,.76-.97c.41-.17,.47-.34,.06-.34-.35-.06-1.34,.97-2.22,2.22Z"/>
  <path d="M140.97,69.22c0,1.14-.23,2.11-.58,2.11-.29,0-.58,.85-.58,1.88,0,1.71-.41,2.45-2.92,5.36-.29,.4-.58,.97-.58,1.31,0,.28-.41,.57-.87,.57-.52,0-1.05,.4-1.22,.85-.23,.46-.7,.85-1.11,.85-.47,0-1.22,.46-1.75,.97-1.4,1.37-11.43,1.31-12.83-.06-.52-.51-1.28-.91-1.75-.91-.41,0-.87-.4-1.11-.85-.17-.46-.7-.85-1.22-.85-.47,0-.87-.28-.87-.57,0-.34-.29-.91-.58-1.31-2.51-2.85-2.92-3.59-2.92-5.07,0-.85-.23-1.6-.58-1.6-1.22,0-.47,3.25,1.34,5.87,2.27,3.19,7.35,6.67,9.79,6.67,.93,0,1.69,.23,1.69,.57,0,.28,1.05,.57,2.33,.57s2.33-.28,2.33-.57c0-.34,.87-.57,1.92-.57,1.98,0,8.57-3.7,8.57-4.84,0-.34,.52-1.03,1.17-1.6,.64-.51,1.17-1.37,1.17-1.82s.23-.85,.52-.85c.64,0,1.57-7.29,.99-7.81-.17-.23-.35,.57-.35,1.71Z"/>
  <path d="M248.43,72.76c0,1.25,.12,1.71,.23,.97,.12-.68,.12-1.71,0-2.28-.17-.51-.29,.06-.23,1.31Z"/>
  <path d="M1.69,75.09c0,.63,.17,.8,.35,.34,.17-.4,.12-.91-.06-1.08-.17-.23-.35,.11-.29,.74Z"/>
  <path d="M2.57,76.4c-.23,.34-.12,.63,.17,.63,.35,0,.64,.46,.7,.97,0,.57,.17,.74,.29,.34,.47-1.03-.64-2.79-1.17-1.94Z"/>
  <path d="M245.45,78.28c-.41,.4-.7,.91-.7,1.2s.41,.06,.93-.46,.82-1.03,.7-1.14c-.12-.17-.58,.06-.93,.4Z"/>
  <path d="M4.55,79.25c0,.57,1.69,2.05,1.98,1.71,.06-.11-.35-.68-.93-1.25-.58-.51-1.05-.74-1.05-.46Z"/>
  <path d="M241.43,81.64c-1.05,.68-1.92,1.42-1.92,1.71,0,.91,.52,.68,3.09-1.54,.41-.34,1.11-.74,1.57-.97q.76-.28,0-.34c-.47,0-1.75,.51-2.74,1.14Z"/>
  <path d="M152.05,226.88c0,129.91,0,132.19,1.11,132.19,.64,0,1.28-.34,1.4-.74,.23-.51,.47-.51,.87,.11,.41,.51,.64,.57,.76,.11,.17-.4,2.1-.8,4.49-1.03,2.27-.17,4.2-.51,4.2-.8,0-.23,1.69-.63,3.79-.8,2.1-.23,3.79-.63,3.79-.85,0-.28,.82-.74,1.75-1.08,.99-.28,1.75-.85,1.75-1.14,0-.34,.41-.63,.87-.63s.87-.23,.87-.51,.76-.8,1.75-1.14c.99-.28,1.75-.85,1.75-1.14,0-.34,.29-.63,.58-.63,.7,0,4.26-2.34,4.55-3.02,.12-.23,.58-.4,1.05-.4s.99-.4,1.17-.85c.23-.46,.7-.85,1.17-.85s.82-.34,.82-.8,.41-.91,.87-1.14c.47-.17,.87-.68,.87-1.2,0-.46,.23-.85,.52-.85s.82-.8,1.22-1.71c.41-.97,.93-1.71,1.22-1.71s.52-.34,.52-.8,.41-.91,.87-1.14c.47-.17,.87-.68,.87-1.08,0-.68,.58-1.54,2.97-4.27,.35-.4,.76-1.77,.93-3.02,.17-1.2,.52-2.22,.82-2.22,.23,0,.64-1.71,.82-3.87,.23-2.11,.7-4.1,.99-4.5,.29-.34,.7-2.11,.87-3.82,.17-1.77,.58-3.19,.82-3.19,.29,0,.52-36.52,.52-81.19s-.23-81.19-.52-81.19c-.23,0-.7-2.05-.87-4.56-.23-2.51-.64-4.56-.93-4.56-.23,0-.64-1.94-.87-4.27s-.58-4.27-.87-4.27c-.23,0-.64-.68-.87-1.54-.17-.85-.99-2.11-1.75-2.79s-1.57-1.94-1.75-2.68c-.23-.8-.76-1.6-1.22-1.77s-.82-.68-.82-1.14-.17-.91-.41-1.03c-.64-.23-3.09-3.7-3.09-4.33,0-.51-3.79-4.1-4.31-4.1s-9.97-6.38-10.14-6.89c-.12-.28-.58-.51-1.05-.51s-.82-.23-.82-.51-.64-.68-1.46-.85c-.82-.23-1.46-.57-1.46-.85s-1.52-.68-3.32-.91c-1.87-.17-3.91-.57-4.55-.85s-3.21-.8-5.71-1.14c-2.51-.28-5.07-.8-5.66-1.14-.58-.28-1.22-.57-1.4-.57s-.35,59.48-.35,132.19Zm9.62-128.25c1.63,.28,3.56,.74,4.37,.91s2.16,.4,3.03,.57c2.97,.57,4.14,1.14,14.23,7.81,5.66,3.7,5.95,3.99,10.84,11.11,5.89,8.66,6.65,10.03,7.05,12.71,.17,1.08,.93,4.67,1.69,7.98l1.34,5.98-.12,80.62c0,44.33-.23,81.36-.41,82.33-.17,.91-.7,3.65-1.17,5.98s-1.17,5.93-1.57,7.98-1.17,4.22-1.75,4.84c-.52,.63-1.46,1.94-2.1,2.96-3.73,6.38-8.69,12.59-11.19,14.07-1.46,.85-5.19,3.19-8.22,5.24-3.03,1.99-6.53,3.93-7.75,4.27-2.8,.74-12.36,2.34-14.63,2.45l-1.69,.06-.06-128.48c-.06-70.65,0-128.94,.12-129.51,.29-1.14,1.87-1.14,7.99,.11Z"/>
  <path d="M197.7,305.9c.52,.11,1.46,.11,2.04,0,.52-.17,.06-.28-1.05-.28s-1.57,.11-.99,.28Z"/>
  <path d="M201.49,305.9c.35,.11,1.05,.11,1.46,0,.35-.17,.06-.28-.76-.28s-1.11,.11-.7,.28Z"/>
  <path d="M14.98,106.03c.47,.28,1.63,.46,2.57,.34,2.86-.34,2.51-.85-.52-.85-1.92,0-2.57,.17-2.04,.51Z"/>
  <path d="M122.38,105.75c.58,.57,4.43,.8,5.19,.34,.58-.4-.06-.57-2.27-.57-1.75,0-3.03,.11-2.92,.23Z"/>
  <path d="M231.11,106.14c.17,.34,1.11,.51,2.04,.28,.93-.17,1.69-.06,1.69,.23,0,.34,.87,.57,1.92,.57,1.17,0,2.57,.51,3.32,1.14s1.57,1.14,1.87,1.14c1.28,0,5.13,5.13,5.13,6.84,0,.63,.29,1.14,.58,1.14,.82,0,.7-2.22-.12-3.13-1.75-1.88-2.22-2.56-2.22-3.08,0-.28-.93-1.08-2.04-1.77s-2.04-1.48-2.04-1.71c0-.28-1.28-.68-2.92-.91-1.57-.23-2.92-.57-2.92-.85s-1.05-.51-2.39-.51c-1.57,0-2.22,.23-1.92,.63Z"/>
  <path d="M227.55,106.77c-1.22,.28-2.45,.68-2.62,.91s-1.28,1.03-2.51,1.82c-1.17,.8-2.27,1.82-2.45,2.34s-.82,1.37-1.46,1.94-1.17,1.6-1.17,2.34c0,.68-.29,1.37-.64,1.48s-.64,1.88-.64,4.05c-.06,3.3,.17,4.33,1.87,7.52,1.34,2.51,2.68,4.16,4.31,5.24,1.34,.91,2.57,1.77,2.74,2.05,.29,.4,5.66,1.54,7.23,1.6,2.74,0,6.7-1.03,8.22-2.11,.99-.74,1.92-1.2,2.1-1.08,.17,.17,.47-.06,.64-.51,.23-.63,.06-.74-.64-.51-.52,.23-1.28,.68-1.69,.97-.41,.34-1.17,.97-1.69,1.42-1.17,.97-11.43,1.08-11.78,.11-.12-.34-.7-.63-1.34-.63s-1.28-.34-1.46-.8-.87-.97-1.57-1.14c-1.22-.34-3.91-3.76-3.91-4.96,0-.28-.23-.51-.52-.51-.76,0-1.28-2.62-1.28-6.67,0-2.62,.35-4.33,1.28-6.15,.7-1.42,1.52-2.56,1.75-2.56s.64-.51,.82-1.14,.7-1.14,1.17-1.14c.41,0,.87-.4,1.11-.85,.17-.46,.7-.85,1.11-.85,.47,0,1.17-.34,1.57-.8,.35-.46,1.63-.91,2.8-1.03s1.92-.34,1.57-.51c-.29-.17-1.63-.11-2.92,.17Z"/>
  <path d="M7.99,108.48c-2.74,1.99-4.55,3.82-4.61,4.67,0,.28-.41,.8-.87,1.14-.52,.4-.93,1.88-1.11,3.76-.12,1.71-.12,2.51,0,1.71,.76-4.27,4.96-10.2,7.99-11.17,.52-.17,.99-.51,.99-.8s.87-.63,1.92-.74l1.87-.23-1.81-.06c-1.17-.06-2.62,.51-4.37,1.71Z"/>
  <path d="M21.63,107.06c1.4,.17,2.16,.51,2.16,1.08,0,.46,.52,.8,1.17,.8s1.34,.4,1.52,.85c.23,.46,.7,.85,1.17,.85s.82,.23,.82,.46c0,.28,.52,1.08,1.17,1.82s1.17,1.71,1.17,2.22c0,.68,.17,.68,.7,.17s.58-.85,.12-1.14c-.35-.23-.82-.91-1.05-1.54-.17-.63-1.28-1.77-2.39-2.56-1.17-.8-2.62-1.88-3.32-2.45-.76-.57-2.04-.91-3.32-.85l-2.1,.06,2.22,.23Z"/>
  <path d="M118.12,107.06c-.58,.11-1.05,.51-1.05,.8,0,.34-.23,.4-.58,.23-.29-.17-.58-.11-.58,.11,0,.28-.58,.74-1.28,1.03-.76,.34-1.81,1.48-2.33,2.56-.58,1.08-1.05,1.77-1.05,1.42,0-.28-.52,.46-1.17,1.71-1.28,2.51-1.52,4.27-.52,4.27,.41,0,.52-.57,.41-1.42-.17-.8-.06-1.42,.17-1.42,.29,0,.52-.4,.52-.85s.23-.85,.52-.85,.76-.57,.93-1.2c.52-1.54,3.56-4.5,4.66-4.5,.41,0,.87-.28,.99-.63s1.28-.85,2.51-1.08c1.92-.34,2.04-.46,.58-.46-.93,0-2.22,.11-2.74,.28Z"/>
  <path d="M129.02,107.06c.99,.17,2.16,.57,2.62,.97s1.63,.97,2.51,1.37c.87,.34,1.81,1.14,1.98,1.65,.23,.57,.64,1.25,.87,1.6,.29,.28,1.05,1.2,1.69,1.99l1.22,1.42-.41-1.42c-.23-.74-.76-1.65-1.11-2.05-.35-.34-1.11-1.31-1.69-2.11-.64-.8-1.87-1.65-2.8-1.82-.93-.23-1.57-.57-1.4-.85,.35-.57-1.81-1.14-3.79-1.03-1.22,.06-1.22,.11,.29,.28Z"/>
  <path d="M32.24,121.81c0,3.36-.23,6.15-.58,6.38-.64,.46-1.63,1.94-2.68,3.93-.41,.68-1.4,1.48-2.22,1.77-.82,.34-2.1,1.14-2.86,1.82-.82,.74-1.92,1.14-2.92,1.08-.87-.11-1.87,0-2.22,.23-.93,.57-7.87-.23-7.46-.8,.17-.28-.12-.51-.58-.51s-1.28-.4-1.81-.91-1.11-.8-1.28-.57c-.23,.17-.23,.4-.12,.51,.12,.06,1.05,.68,2.1,1.42,1.05,.68,2.68,1.25,3.67,1.25s2.33,.28,2.97,.63c.76,.34,1.46,.4,1.87,.06,.41-.28,1.92-.68,3.38-.8,1.52-.17,3.09-.57,3.5-.97,4.78-3.93,5.77-4.84,5.77-5.3,0-.28,.41-.91,.87-1.37,.47-.51,.87-1.37,.87-1.99,0-.57,.23-1.08,.52-1.08,.99,0,1.05-4.84,.12-7.81l-.99-2.96,.06,5.98Z"/>
  <path d="M139.81,118.05c0,.91,.29,1.71,.58,1.71,.35,0,.58,1.03,.58,2.28s-.23,2.28-.58,2.28c-.29,0-.58,.91-.58,1.99,0,1.2-.35,2.17-.82,2.34s-.99,.91-1.17,1.71c-.23,.74-.64,1.37-.93,1.37-.35,0-.58,.4-.58,.85s-.41,.85-.87,.85c-.52,0-1.05,.34-1.22,.8s-1.11,1.03-2.1,1.2c-1.28,.28-1.57,.57-.99,.91,.41,.23,.93,.28,1.11,.06,.35-.46,2.1-1.54,3.96-2.51,.7-.34,1.28-.97,1.28-1.37s.35-1.08,.76-1.48c2.57-2.68,3.67-6.84,2.97-11.79-.41-3.13-1.4-3.99-1.4-1.2Z"/>
  <path d="M248.37,119.76c0,1.08,.12,1.54,.29,.97,.12-.51,.12-1.42,0-1.99-.17-.51-.29-.06-.29,1.03Z"/>
  <path d="M108.56,120.56c-.17,.46-.23,1.54-.12,2.45,.17,1.31,.29,1.14,.52-.85,.29-2.45,.12-3.02-.41-1.6Z"/>
  <path d="M248.31,124.43c-.12,2.05-.93,4.05-2.16,5.3-.7,.68-.82,.97-.23,.74,1.28-.4,3.03-4.22,2.74-5.98l-.23-1.6-.12,1.54Z"/>
  <path d="M108.91,126.37c0,.8,.23,1.31,.58,1.08,.35-.17,.58-.85,.58-1.48,0-.57-.23-1.08-.58-1.08-.29,0-.58,.68-.58,1.48Z"/>
  <path d="M109.78,128.31c-.17,.28-.06,.57,.23,.57,.35,0,.64,.4,.64,.85,0,1.03,4.9,5.98,5.83,5.98,.35,0,1.05,.4,1.52,.85,.52,.46,1.75,.85,2.8,.85,.99,0,2.16,.28,2.51,.63,.52,.51,1.17,.51,2.57,0,.99-.34,2.68-.63,3.67-.63,1.28,0,1.57-.17,.99-.51-.47-.28-1.57-.28-2.62,0-1.98,.63-9.1,.06-9.1-.63,0-.28-.58-.68-1.28-.91-1.46-.4-6.35-5.13-5.89-5.58,.17-.17-.12-.68-.58-1.2-.58-.51-1.05-.63-1.28-.28Z"/>
  <path d="M2.8,129.16c0,.28,.29,.97,.58,1.42s.58,.57,.58,.28c0-.34-.29-.97-.58-1.42s-.58-.63-.58-.28Z"/>
  <path d="M244.52,132.01c-.52,1.48-.41,1.82,.29,.68,.35-.57,.52-1.2,.35-1.31-.12-.17-.41,.11-.64,.63Z"/>
  <path d="M5.13,132.87c.35,.63,.87,1.14,1.17,1.14,.35,0,.12-.51-.41-1.14-.58-.63-1.11-1.14-1.22-1.14-.06,0,.12,.51,.47,1.14Z"/>
  <path d="M12.01,158.9c-.58,.11-1.05,.51-1.05,.8s-.35,.51-.76,.51c-.47,0-1.4,.51-2.16,1.14s-1.69,1.14-2.16,1.14c-.41,0-.76,.28-.76,.57,0,.57-2.16,3.87-2.97,4.56-.52,.46-1.52,6.84-1.11,6.84,.23,0,.58-.97,.76-2.17,.52-3.65,.47-3.59,2.62-6.04,.35-.46,.7-1.08,.7-1.37s.7-1.03,1.52-1.6,1.87-1.42,2.33-1.82c.41-.4,1.52-.85,2.51-1.03,.93-.23,1.87-.68,2.04-1.14,.35-.8,.17-.85-1.52-.4Z"/>
  <path d="M17.84,158.9c1.63,.11,3.03,.46,3.03,.74,0,.34,.58,.57,1.34,.57,2.27,0,7.11,4.22,8.92,7.81,1.57,3.08,1.57,10.54-.06,13.45-.64,1.14-1.34,2.11-1.57,2.11-.29,0-.47,.34-.47,.68,0,.74-2.45,2.56-5.54,4.1-1.28,.68-1.46,.91-.64,.91,1.22,0,4.84-1.99,6.18-3.42,1.69-1.77,3.5-4.5,3.5-5.36,0-.46,.29-1.03,.64-1.25,.35-.17,.52-1.08,.41-1.99-.17-.85-.06-1.48,.23-1.31,.23,.17,.47-.11,.47-.57,0-.51-.23-.91-.47-.91-.29,0-.41-.74-.23-1.65,.12-.91-.06-1.82-.41-1.99-.35-.23-.64-.91-.64-1.54,0-1.82-4.31-7.35-5.71-7.35-.52,0-.76-.17-.52-.34,.87-.85-4.14-2.62-7.75-2.79-2.27-.06-2.57-.06-.7,.11Z"/>
  <path d="M124.94,158.9c1.63,.11,3.15,.46,3.5,.8,.29,.28,.99,.51,1.52,.51,1.75,0,6.06,3.25,7.81,5.81,.87,1.31,1.75,3.48,1.92,4.84,.29,2.39,1.28,2.91,1.28,.63,0-1.48-1.81-5.58-2.45-5.58-.23,0-.47-.34-.47-.74,0-.91-1.98-2.68-5.25-4.67-2.16-1.31-3.32-1.65-6.7-1.71-2.33-.06-2.86,0-1.17,.11Z"/>
  <path d="M227.73,158.9c-.58,.11-1.05,.46-1.05,.74s-.76,.63-1.75,.85c-.93,.23-1.75,.57-1.75,.85s-.52,.68-1.17,.85-1.17,.63-1.17,.91-.29,.85-.58,1.25c-2.39,2.73-2.92,3.53-2.92,4.16,0,.4-.29,.8-.64,.91-.93,.28-.87,10.31,0,10.6,.35,.11,.64,.51,.64,.85,0,2.34,6.7,8.38,9.27,8.38,.7,0,1.22,.23,1.22,.57,0,.28,.93,.57,2.1,.57,1.34,0,1.92-.23,1.63-.63-.17-.34-.99-.51-1.75-.34-.76,.11-1.4,0-1.4-.23,0-.28-.41-.51-.87-.51-.93,0-3.79-1.6-4.43-2.51-.23-.28-.64-.34-.99-.11-.35,.17-.82-.23-1.05-.91-.17-.68-.7-1.6-1.05-1.99s-.99-1.08-1.4-1.54c-.41-.51-.87-2.11-1.11-3.59-.17-1.54-.64-2.91-.99-3.13-.47-.34-.47-.46,0-.46,.35,0,.82-1.37,1.05-3.08,.35-3.08,1.17-4.44,4.49-7.69,1.98-1.88,3.26-2.91,3.79-2.91,.17,0,1.17-.4,2.16-.85,1.05-.46,3.32-.91,5.07-1.03q3.15-.17-.58-.23c-2.1,0-4.26,.06-4.78,.23Z"/>
  <path d="M118.24,159.65c0,.28-.41,.57-.87,.57-.52,0-1.05,.4-1.22,.85-.23,.46-.7,.85-1.11,.85-.93,0-4.08,3.76-4.61,5.53-.23,.74-.7,1.31-.99,1.31s-.52,.74-.52,1.71c0,.91,.29,1.71,.64,1.71s.52-.57,.41-1.31c-.17-1.48,4.02-8.38,5.13-8.38,.35,0,1.34-.51,2.16-1.14s2.04-1.14,2.68-1.14c.7,0,1.22-.28,1.22-.57,0-.34-.64-.57-1.46-.57s-1.46,.23-1.46,.57Z"/>
  <path d="M236.59,159.65c0,.28,.64,.57,1.34,.57,1.28,0,2.27,.63,5.36,3.3,1.81,1.54,3.85,4.62,3.96,5.81,.06,.63,.29,1.14,.52,1.14,.76,0,.52-2.28-.23-3.08-.41-.46-1.17-1.37-1.63-2.05-.47-.74-1.4-1.71-1.98-2.22s-1.52-1.37-2.04-1.94c-.47-.51-1.22-.97-1.63-.97s-.76-.28-.76-.57c0-.34-.64-.57-1.46-.57s-1.46,.23-1.46,.57Z"/>
  <path d="M248.37,172.75c0,1.08,.12,1.54,.29,.97,.12-.51,.12-1.42,0-1.99-.17-.51-.29-.06-.29,1.03Z"/>
  <path d="M108.33,174.74c0,1.08,.23,1.99,.47,1.99s.35-.91,.23-1.99-.35-1.99-.47-1.99-.23,.91-.23,1.99Z"/>
  <path d="M140.97,174.91c0,1.03-.23,1.82-.52,1.82-.23,0-.64,1.03-.82,2.22-.17,1.25-.58,2.62-.93,3.02-3.09,3.76-4.37,5.01-5.07,5.01-.47,0-.99,.4-1.17,.85-.23,.51-1.52,.97-3.21,1.2-3.44,.46-4.37,1.37-1.46,1.37,1.17,0,2.1-.23,2.1-.51s.7-.63,1.63-.8c1.75-.4,6.53-4.33,6.53-5.41,0-.34,.23-.68,.58-.68,.29,0,.7-.63,.93-1.42,.17-.8,.58-1.42,.82-1.42,.52,0,1.4-6.21,.93-6.72-.17-.17-.35,.51-.35,1.48Z"/>
  <path d="M248.37,176.74c0,1.08,.12,1.54,.29,.97,.12-.51,.12-1.42,0-1.99-.17-.51-.29-.06-.29,1.03Z"/>
  <path d="M108.91,178.68c0,.8,.23,1.48,.52,1.48s.7,.74,.93,1.71c.23,.91,.58,1.71,.87,1.71s.7,.51,.87,1.14,.76,1.14,1.22,1.14,.82,.17,.82,.4c0,.85,4.02,3.13,5.07,2.85q.99-.28,0-.34c-.58,0-1.46-.4-1.87-.8-.47-.34-1.75-1.31-2.86-2.11s-2.16-1.99-2.39-2.73c-.17-.68-.58-1.25-.87-1.25s-.7-.91-.93-1.99c-.47-2.39-1.4-3.19-1.4-1.2Z"/>
  <path d="M247.38,179.53c-.17,.28-.06,.68,.29,.91,.29,.17,.58-.06,.58-.51,0-1.03-.35-1.2-.87-.4Z"/>
  <path d="M246.33,182.44c-.17,.63-.17,1.14-.06,1.14s.47-.51,.82-1.14,.41-1.14,.12-1.14c-.35,0-.7,.51-.87,1.14Z"/>
  <path d="M244.75,184.26c0,.51-.35,1.08-.7,1.2-.58,.23-.58,.34,0,.34,.82,.06,1.63-1.48,1.05-2.05-.17-.23-.35,.06-.35,.51Z"/>
  <path d="M6.7,186.25c-.52,.46,2.04,2.34,3.85,2.73,.87,.23,1.57,.63,1.57,.91s.93,.51,2.1,.51c1.34,0,1.92-.23,1.63-.63-.17-.34-.99-.51-1.75-.34-.76,.11-1.4,.06-1.4-.17s-.82-.57-1.81-.8c-1.05-.17-2.27-.85-2.86-1.48-.52-.63-1.17-.97-1.34-.74Z"/>
  <path d="M241.84,186.99c-.47,.28-.58,.57-.29,.57,.35,0,.99-.28,1.46-.57s.64-.57,.29-.57c-.29,0-.99,.28-1.46,.57Z"/>
  <path d="M238.63,188.7c-.76,.28-.82,.51-.29,.51,.47,0,1.4-.23,2.04-.51,.76-.28,.82-.51,.29-.51-.47,0-1.4,.23-2.04,.51Z"/>
  <path d="M17.37,190.3c-.76,.8-.7,.85,.23,.51,.58-.23,1.81-.4,2.74-.4,.99,0,1.63-.23,1.4-.51-.52-.85-3.44-.57-4.37,.4Z"/>
  <path d="M120.86,189.84c-.23,.34,.41,.57,1.46,.57s1.69-.23,1.46-.57c-.17-.34-.87-.57-1.46-.57s-1.28,.23-1.46,.57Z"/>
  <path d="M235.13,189.84c-.23,.34,.35,.57,1.28,.57,1.28,0,1.46-.11,.76-.57-1.11-.68-1.57-.68-2.04,0Z"/>
  <path d="M16.73,210.87c.64,.4,.23,.63-1.46,.8-1.52,.11-.93,.23,1.69,.28s4.9,.51,6.7,1.31c2.92,1.31,7.11,5.13,7.11,6.5,0,.46,.23,.85,.52,.85s.76,1.48,1.11,3.25c.7,3.87,.06,8.89-1.28,10.2-.52,.46-.93,1.14-.93,1.48,0,.91-3.61,4.22-5.13,4.67-.7,.23-1.28,.63-1.28,.91s-.58,.63-1.28,.74q-1.34,.23-.06,.34c.7,0,1.63-.28,2.04-.68,.99-.8,2.62-1.88,4.43-2.79,.7-.34,1.28-.97,1.28-1.37s.35-1.08,.82-1.48c1.87-1.88,2.86-4.79,2.86-8.6,0-2.17-.29-4.16-.7-4.56-.35-.34-.64-.97-.64-1.42,0-1.65-4.9-7.18-6.88-7.75-.7-.23-1.28-.63-1.28-.91s-1.46-.68-3.21-.85c-1.75-.23-3.21-.63-3.21-.91s-.47-.51-.99-.51c-.87,0-.87,.11-.23,.51Z"/>
  <path d="M123.48,211.55l-3.21,.34,4.26,.06c2.33,.06,4.84,.4,5.48,.74,.7,.34,1.4,.4,1.69,.11,.82-.8-4.61-1.65-8.22-1.25Z"/>
  <path d="M11.43,211.89c-.58,.11-1.05,.51-1.05,.8s-.35,.51-.76,.51c-.47,0-1.4,.51-2.16,1.14s-1.57,1.14-1.87,1.14c-.23,0-.47,.34-.47,.8s-.41,.91-.87,1.14c-.47,.17-.87,.63-.87,.97,0,.4-.41,1.14-.87,1.65-.58,.63-.99,2.56-1.17,5.75l-.23,4.79,.58-3.7c.29-2.05,.58-4.16,.58-4.73,0-.51,.23-.97,.58-.97,.29,0,.52-.34,.52-.74,0-1.71,4.43-5.98,7.64-7.35,.93-.4,1.69-.91,1.69-1.14,0-.28-.06-.4-.12-.4-.12,.06-.64,.17-1.17,.34Z"/>
  <path d="M227.03,211.89c-1.81,.46-7.23,4.56-7.64,5.81-.17,.57-.7,1.25-1.17,1.42s-.87,.8-.87,1.37-.35,1.37-.7,1.77c-.52,.46-.7,2.28-.64,5.47,.06,4.1,.23,4.96,1.34,6.1,.7,.74,1.63,2.05,2.1,3.02,.41,.91,.76,1.48,.82,1.25,0-.23,.7,.23,1.57,1.03s1.92,1.42,2.33,1.42c.35,0,.82,.34,.93,.68,.23,.57,.35,.57,.35,0,.06-.4-.35-.85-.87-1.08-1.4-.51-4.72-3.93-5.19-5.3-.17-.63-.58-1.14-.87-1.14s-.7-1.2-.93-2.73c-.23-1.48-.7-2.85-1.05-3.08-.47-.28-.41-.63,.12-1.14,.35-.34,.7-1.48,.7-2.45,0-4.67,6.7-11.4,12.07-12.08,1.22-.17,2.33-.4,2.45-.51,.35-.28-3.44-.17-4.84,.17Z"/>
  <path d="M235.13,212.01c3.56,.57,5.07,1.37,7.81,4.1,3.21,3.08,4.14,4.56,4.14,6.32,0,.85,.29,1.6,.58,1.6,.35,0,.58-.8,.58-1.71,0-.97-.23-1.71-.58-1.71-.29,0-.7-.63-.93-1.42-.17-.8-.58-1.25-.87-1.08s-.52-.11-.52-.57c0-1.03-2.74-3.65-4.37-4.1-.64-.23-1.34-.63-1.52-.91s-1.87-.63-3.79-.74l-3.44-.23,2.92,.46Z"/>
  <path d="M118.24,212.58c0,.28-.58,.63-1.28,.8-.7,.23-1.11,.51-.93,.68,.35,.34,3.96-1.2,3.96-1.71,0-.17-.41-.28-.87-.28s-.87,.23-.87,.51Z"/>
  <path d="M133.1,214.34c.58,.63,1.34,1.14,1.69,1.14,1.52,0,5.01,5.98,5.01,8.49,0,.97,.29,1.77,.58,1.77,.35,0,.58,.74,.58,1.71,0,.91-.23,1.71-.58,1.71-.29,0-.58,.85-.58,1.88,0,1.2-.64,2.73-1.75,4.22-.99,1.31-1.52,2.51-1.22,2.68,.29,.23,.76-.23,.99-.91,.35-1.2,.82-1.82,2.57-3.7,1.05-1.14,1.17-10.08,.12-11.11-.41-.4-.7-.97-.7-1.37,0-1.37-3.15-5.41-4.49-5.7-.76-.23-1.22-.57-1.05-.8s-.12-.63-.64-.8c-1.52-.57-1.63-.4-.52,.8Z"/>
  <path d="M113.22,215.82c-.58,.74-1.57,1.94-2.1,2.56-.58,.68-1.05,1.65-1.05,2.11,0,.51,.41,.34,1.17-.63,.64-.8,1.17-1.6,1.17-1.77,0-.51,2.1-2.45,2.97-2.73,.58-.17,.58-.34-.12-.57-.52-.23-1.34,.23-2.04,1.03Z"/>
  <path d="M108.62,225.23c-.23,1.88-.23,3.59-.06,3.76,.17,.23,.35-.57,.35-1.71s.29-2.22,.58-2.39c.7-.46,.76-3.13,.06-3.13-.29,0-.7,1.54-.93,3.48Z"/>
  <path d="M248.43,227.45c0,1.71,.12,2.45,.23,1.54,.12-.85,.12-2.22,0-3.13-.12-.85-.23-.11-.23,1.6Z"/>
  <path d="M108.91,231.49c0,.97,.23,1.6,.58,1.37,.35-.17,.58-.97,.58-1.77,0-.74-.23-1.37-.58-1.37-.29,0-.58,.8-.58,1.77Z"/>
  <path d="M247.38,231.38c-.17,.28-.06,.68,.29,.91,.29,.17,.58-.06,.58-.51,0-1.03-.35-1.2-.87-.4Z"/>
  <path d="M1.69,232.35c0,.63,.17,.8,.35,.34,.17-.4,.12-.91-.06-1.08-.17-.23-.35,.11-.29,.74Z"/>
  <path d="M246.39,234.28c-.58,.63-.76,1.25-.47,1.42,.35,.23,.58,.11,.58-.23,0-.28,.41-.97,.93-1.42,.47-.51,.7-.91,.41-.91s-.93,.51-1.46,1.14Z"/>
  <path d="M2.8,234.23c0,.34,.23,.74,.58,.91s.41-.06,.23-.51c-.41-1.03-.82-1.2-.82-.4Z"/>
  <path d="M111.36,235.65c.41,.46,.87,.68,.99,.63,.29-.34-.58-1.42-1.17-1.42-.29,0-.23,.34,.17,.8Z"/>
  <path d="M4.43,236.34c-.47,.4,1.34,2.51,2.16,2.51,.35,0,.35-.17-.06-.46-.35-.23-.87-.85-1.17-1.42-.35-.57-.76-.85-.93-.63Z"/>
  <path d="M243.76,237.93c-.76,.74-1.34,1.54-1.34,1.77,0,.28,.64-.23,1.46-1.08,1.28-1.37,1.75-2.05,1.34-2.05-.12,0-.76,.63-1.46,1.37Z"/>
  <path d="M112.41,237.65c0,.57,1.11,1.42,1.46,1.14,.06-.11-.17-.57-.64-.97s-.82-.46-.82-.17Z"/>
  <path d="M135.14,238.67c-.47,.23-1.17,.63-1.57,.97-1.92,1.65-2.45,1.99-3.73,2.22q-1.4,.23,.06,.34c1.46,.06,1.92-.23,5.25-2.79,1.52-1.14,1.52-1.31,0-.74Z"/>
  <path d="M117.3,241.18c.82,.63,1.98,1.03,2.57,.91,.93-.23,.93-.28-.06-.34-.58,0-1.46-.46-1.92-.91-.52-.46-1.17-.85-1.52-.85s.06,.51,.93,1.2Z"/>
  <path d="M239.86,240.84c-.58,.63-2.62,1.03-6.01,1.25-3.44,.28-4.55,.51-3.38,.74,2.57,.46,8.51-.57,10.14-1.82,.76-.57,1.11-1.03,.76-1.03s-1.05,.4-1.52,.85Z"/>
  <path d="M11.43,242.09c.35,.11,1.05,.11,1.46,0,.35-.17,.06-.28-.76-.28s-1.11,.11-.7,.28Z"/>
  <path d="M226.56,242.09c.35,.11,1.05,.11,1.46,0,.35-.17,.06-.28-.76-.28s-1.11,.11-.7,.28Z"/>
  <path d="M15.22,242.66c.52,.11,1.34,.11,1.75,0,.35-.17-.06-.28-1.05-.28-.93,0-1.28,.11-.7,.28Z"/>
  <path d="M17.96,242.83c0,.28,.35,.57,.82,.57s1.05-.28,1.22-.57c.17-.34-.17-.57-.82-.57-.7,0-1.22,.23-1.22,.57Z"/>
  <path d="M121.79,242.49c.47,.46,5.71,.57,6.12,.17,.23-.23-1.11-.4-2.97-.4s-3.26,.11-3.15,.23Z"/>
  <path d="M17.55,263.74c1.17,.11,2.04,.46,1.87,.8-.23,.28,.52,.51,1.63,.51,2.57,0,8.05,3.7,9.33,6.27,.23,.46,.82,1.48,1.28,2.28s.87,2.39,.87,3.53c0,1.2,.29,2.17,.58,2.17,.35,0,.58,.4,.58,.85s-.23,.85-.52,.85c-.23,0-.64,1.14-.76,2.51-.17,1.42-.7,2.96-1.11,3.42-1.92,2.05-2.39,2.73-2.1,3.02,.52,.46,1.57-.4,1.57-1.31,0-.46,.23-.8,.58-.8,.29,0,.7-.63,.93-1.42,.17-.8,.58-1.42,.82-1.42s.58-1.48,.82-3.36c.52-4.62-1.17-9.29-4.78-13.1-1.05-1.08-4.72-3.48-5.36-3.48-.23,0-.58-.23-.7-.57-.06-.28-1.87-.63-3.96-.74s-2.8-.11-1.57,0Z"/>
  <path d="M124.24,263.74c.52,.11,1.46,.11,2.04,0,.52-.17,.06-.28-1.05-.28s-1.57,.11-.99,.28Z"/>
  <path d="M228.6,263.74c-1.05,.11-1.92,.46-1.92,.8,0,.28-.29,.51-.58,.51-1.63,0-5.36,3.25-8.16,7.18-1.92,2.68-2.04,3.02-1.98,7.52,0,2.68,.29,4.9,.64,5.13s.76,.91,.99,1.6c.41,1.37,3.91,5.36,4.66,5.36,.29,0-.12-.63-.93-1.31-.82-.74-1.69-1.94-1.92-2.56-.17-.68-.58-1.25-.87-1.25-.23,0-.64-1.08-.87-2.39s-.7-2.85-1.05-3.36c-.47-.74-.47-1.37,0-2.34,.35-.74,.82-2.34,.99-3.53,.17-1.25,.7-2.51,1.22-2.73,.47-.28,.87-.8,.87-1.14,0-.51,1.81-2.34,4.96-4.96,.52-.4,1.98-.85,3.26-1.03,1.22-.17,2.27-.51,2.27-.8,0-.23,.99-.57,2.22-.68l2.16-.23h-2.04c-1.11,0-2.92,.11-3.91,.23Z"/>
  <path d="M10.67,264.94c-.93,.46-1.87,1.03-2.04,1.2s-.82,.63-1.46,.97-2.16,1.99-3.32,3.7c-1.98,2.79-2.22,3.53-2.45,7.63l-.29,4.56,.58-3.42c.29-1.88,.58-3.87,.58-4.5,0-.57,.41-1.42,.87-1.88,.41-.46,.82-1.2,.82-1.65s.23-.8,.52-.8,.7-.51,.93-1.08c.17-.63,1.46-1.65,2.8-2.28,1.34-.68,2.22-1.2,1.87-1.25-1.17-.06,1.81-1.03,3.38-1.03,.93-.06,1.52-.28,1.28-.63-.47-.8-1.98-.63-4.08,.46Z"/>
  <path d="M119.4,264.42c0,.28-.7,.68-1.52,.85-1.57,.4-2.33,.91-4.49,3.02s-2.68,2.85-3.09,4.39c-.17,.8-.58,1.48-.87,1.48s-.52,.8-.52,1.77c0,2.34,.93,1.65,1.4-1.08,.17-1.2,.82-2.73,1.34-3.42,.58-.63,1.57-1.82,2.22-2.62s1.46-1.42,1.87-1.48c.35,0,1.11-.4,1.63-.91s2.1-1.08,3.5-1.25c1.46-.11,2.45-.46,2.27-.74-.41-.68-3.73-.68-3.73,0Z"/>
  <path d="M127.27,264.48c-.17,.23,.76,.57,2.04,.74,2.39,.28,2.92,.63,6.3,3.87,3.21,3.13,3.61,3.7,4.2,6.61,.29,1.54,.82,3.48,1.17,4.44,.41,1.37,.47,.91,.23-1.99-.23-2.05-.52-3.82-.76-3.99-.17-.17-.76-1.03-1.22-1.94s-1.11-2.11-1.4-2.56c-.76-1.31-5.36-4.62-6.47-4.62-.47,0-.87-.23-.87-.51,0-.57-2.8-.68-3.21-.06Z"/>
  <path d="M234.61,264.42c-.17,.28,.82,.63,2.27,.74,1.4,.17,2.97,.74,3.5,1.25s1.28,.91,1.69,.91c.93,0,5.01,6.27,5.01,7.81,0,.68,.29,1.42,.58,1.6,.35,.23,.58-.4,.58-1.37s-.23-1.77-.52-1.77-.7-.63-.87-1.42c-.23-.8-.64-1.42-.93-1.42-.35,0-.58-.28-.58-.63,0-.85-2.45-3.36-3.32-3.36-.41,0-.76-.23-.76-.46,0-.63-3.85-2.39-5.25-2.39-.58,0-1.22,.23-1.4,.51Z"/>
  <path d="M248.43,280.15c0,1.54,.12,2.17,.23,1.25,.12-.85,.12-2.11,0-2.85-.12-.68-.23,0-.23,1.6Z"/>
  <path d="M108.62,280.15c.12,1.25,.29,2.91,.29,3.65,0,.97,.17,1.25,.58,.85s.35-1.6-.29-3.7c-.76-2.62-.87-2.73-.58-.8Z"/>
  <path d="M139.63,283.97c-.17,1.25-.64,2.51-.99,2.73s-.58,.57-.47,.74c.06,.23-.23,.85-.7,1.37-2.16,2.56-2.45,3.02-1.92,3.02,.82,0,5.42-7.18,5.42-8.43,0-2.22-.99-1.77-1.34,.57Z"/>
  <path d="M1.69,284.2c0,.63,.17,.8,.35,.34,.17-.4,.12-.91-.06-1.08-.17-.23-.35,.11-.29,.74Z"/>
  <path d="M247.08,284.42c0,.63,.29,1.14,.58,1.14,.35,0,.58-.51,.58-1.14s-.23-1.14-.58-1.14c-.29,0-.58,.51-.58,1.14Z"/>
  <path d="M110.07,285.85c0,.28,.29,.97,.58,1.42s.58,.57,.58,.28c0-.34-.29-.97-.58-1.42s-.58-.63-.58-.28Z"/>
  <path d="M2.8,286.42c0,.28,.29,.97,.58,1.42s.58,.57,.58,.28c0-.34-.29-.97-.58-1.42s-.58-.63-.58-.28Z"/>
  <path d="M245.45,287.96c-.41,.4-.7,.91-.7,1.2s.41,.06,.93-.46,.82-1.03,.7-1.14c-.12-.17-.58,.06-.93,.4Z"/>
  <path d="M111.82,288.92c0,.34,.23,.74,.58,.91s.41-.06,.23-.51c-.41-1.03-.82-1.2-.82-.4Z"/>
  <path d="M113.57,290.98c0,.46,.23,.85,.58,.85,.29,0,.41-.4,.23-.85-.23-.46-.47-.85-.58-.85s-.23,.4-.23,.85Z"/>
  <path d="M6.88,291.83c.47,.28,1.17,.57,1.46,.57,.35,0,.17-.28-.29-.57s-1.11-.57-1.46-.57c-.29,0-.17,.28,.29,.57Z"/>
  <path d="M26.99,291.83c-.17,.34,.06,.4,.52,.23,1.05-.4,1.22-.8,.41-.8-.35,0-.76,.23-.93,.57Z"/>
  <path d="M241.84,291.83c-.47,.28-.58,.57-.29,.57,.35,0,.99-.28,1.46-.57s.64-.57,.29-.57c-.29,0-.99,.28-1.46,.57Z"/>
  <path d="M115.67,292.69c.29,.63,2.57,1.6,2.92,1.25,.12-.06-.58-.57-1.52-1.08-1.22-.68-1.57-.74-1.4-.17Z"/>
  <path d="M223.18,292.46c0,.28,.29,.4,.58,.23,.35-.17,.58-.46,.58-.63,0-.11-.23-.23-.58-.23-.29,0-.58,.28-.58,.63Z"/>
  <path d="M24.95,292.91c0,.34-.47,.63-.99,.68-.58,0-.76,.17-.35,.28,1.05,.46,2.86-.63,1.98-1.14-.35-.23-.64-.11-.64,.17Z"/>
  <path d="M131.94,293.31c-1.17,.85-.7,.97,1.11,.28,.64-.23,.87-.57,.58-.74-.29-.23-1.05,0-1.69,.46Z"/>
  <path d="M9.5,293.54c1.57,.68,2.51,.68,1.46,0-.47-.28-1.28-.51-1.75-.51-.58,0-.47,.17,.29,.51Z"/>
  <path d="M224.81,293.65c.29,.28,.93,.46,1.34,.34,.47-.17,.17-.4-.58-.63-.99-.23-1.22-.17-.76,.28Z"/>
  <path d="M238.92,293.54c-1.05,.68-.12,.68,1.46,0,.76-.34,.87-.51,.29-.51-.47,0-1.28,.23-1.75,.51Z"/>
  <path d="M20.23,294.74c-.58,.34-.23,.51,1.11,.51,.99,0,1.87-.11,1.87-.23,0-.51-2.27-.74-2.97-.28Z"/>
  <path d="M120.86,294.68c-.82,.28-.41,.46,1.63,.74,2.97,.4,7.99-.06,7.99-.74,0-.4-.64-.34-4.43,.34-1.05,.17-2.33,.11-2.92-.23-.64-.28-1.63-.34-2.27-.11Z"/>
  <path d="M227.85,294.68c-1.28,.4-1.22,.46,.76,.51,1.34,.06,2.1-.17,1.87-.51-.41-.63-.58-.63-2.62,0Z"/>
  <path d="M235.13,294.74c-.93,.34-.76,.46,.76,.46,.99,.06,1.87-.17,1.87-.4,0-.63-1.17-.63-2.62-.06Z"/>
  <path d="M12.88,295.08c.52,.11,1.34,.11,1.75,0,.35-.17-.06-.28-1.05-.28-.93,0-1.28,.11-.7,.28Z"/>
  <path d="M16.97,295.65c.52,.11,1.34,.11,1.75,0,.35-.17-.06-.28-1.05-.28-.93,0-1.28,.11-.7,.28Z"/>
  <path d="M231.81,295.65c.35,.11,1.05,.11,1.46,0,.35-.17,.06-.28-.76-.28s-1.11,.11-.7,.28Z"/>
  <path d="M17.67,316.84c4.31,.34,6.24,.97,8.34,2.56,2.27,1.71,4.78,4.44,4.78,5.13,0,.46,.29,.91,.64,1.03,.29,.11,.76,1.37,.93,2.73,.17,1.42,.58,2.91,.93,3.3,.47,.51,.47,.91,0,1.14-.35,.23-.7,1.77-.87,3.42-.23,2.51-.17,2.79,.41,1.94,1.4-1.94,1.69-7.18,.52-10.65-.52-1.82-1.34-3.36-1.81-3.53-.41-.17-.76-.63-.76-.97,0-.91-2.45-3.19-3.44-3.19-.41,0-.52-.28-.35-.57,.17-.34-.06-.57-.52-.57s-1.28-.4-1.81-.91c-.7-.68-2.27-.97-6.3-1.14l-5.36-.11,4.66,.4Z"/>
  <path d="M125.52,316.84c2.27,.23,4.9,.85,5.95,1.37,2.04,1.08,4.08,1.31,2.22,.28-.64-.34-1.34-.85-1.52-1.14s-2.68-.63-5.54-.74c-4.9-.23-4.96-.17-1.11,.23Z"/>
  <path d="M226.97,316.84c-2.27,.74-6.65,3.76-7.4,5.18-.41,.8-1.4,1.99-2.16,2.73-1.34,1.2-1.46,1.71-1.46,7.07-.06,4.1,.17,5.87,.7,6.04,.35,.11,.7,.57,.7,1.03s.41,.97,.87,1.14c.47,.23,.7,.57,.52,.85s0,.51,.29,.51c.35,0,.64,.34,.64,.8s.41,.97,.93,1.14c.99,.4,.76-.11-1.22-2.79-.7-.97-1.46-2.34-1.69-3.13l-1.05-3.59c-.47-1.54-.47-2.45,0-3.42,.35-.68,.76-2.22,.99-3.42,.17-1.14,.52-2.11,.76-2.11s1.05-1.03,1.81-2.28c1.22-1.88,2.45-2.73,3.96-2.73,.17,0,.58-.4,.87-.91s.87-.91,1.28-.91c.47,0,1.11-.4,1.52-.85s.64-.85,.52-.8-.76,.23-1.4,.46Z"/>
  <path d="M232.8,316.9c4.2,.4,7.23,1.42,8.05,2.68,.23,.4,.7,.74,.99,.74,.7,0,2.92,2.11,2.92,2.79,0,.28,.35,.8,.82,1.14,.82,.68,1.46,2.68,2.68,8.32,.35,1.65,.41,1.14,.17-1.99-.17-2.34-.47-4.39-.7-4.56-.58-.46-1.81-2.45-2.57-4.16-.35-.85-.99-1.54-1.4-1.54s-1.28-.51-1.92-1.14-1.57-1.14-2.1-1.14c-.47,0-.76-.23-.58-.51,.41-.63-3.21-1.2-7.23-1.08l-3.21,.06,4.08,.4Z"/>
  <path d="M11.25,317.47c.17,.28,.58,.57,.93,.57,.29,0,.52-.28,.52-.57,0-.34-.41-.57-.93-.57-.47,0-.7,.23-.52,.57Z"/>
  <path d="M117.3,317.64c-.35,.4-1.28,1.08-1.98,1.54-2.16,1.37-3.5,2.79-3.5,3.65,0,.46-.41,.91-.87,1.14-.47,.17-.87,.68-.87,1.14s-.29,.91-.7,1.03c-.47,.17-.7,1.99-.7,5.7,0,4.33,.23,5.64,.99,6.38,.93,.91,.93,.85,.58-.91-.17-1.03-.58-2.34-.82-2.85-.76-1.37-.64-4.33,.12-4.79,.35-.17,.52-.85,.35-1.42-.17-.63,.35-1.99,1.11-3.08,.76-1.14,1.4-2.17,1.4-2.28,0-.51,2.33-2.56,2.92-2.56,.35,0,.58-.23,.58-.51s1.05-.91,2.33-1.42,2.33-1.03,2.33-1.2c0-.57-2.62-.23-3.26,.46Z"/>
  <path d="M8.69,318.55c-.52,.34-.58,.63-.12,.85,.35,.23,.64,.17,.64-.17,0-.28,.47-.68,1.05-.8,.7-.17,.76-.28,.12-.34-.47,0-1.22,.17-1.69,.46Z"/>
  <path d="M6.35,320.2c-3.03,3.19-4.55,6.21-4.9,9.8-.17,2.05-.17,3.19-.06,2.56,.99-3.99,2.68-8.83,3.09-8.83,.29,0,.64-.63,.87-1.31,.17-.74,.93-1.6,1.63-1.94,.7-.28,1.05-.68,.7-.85-.29-.17-.87,.06-1.34,.57Z"/>
  <path d="M134.56,320.15c2.16,.8,5.25,6.21,5.25,9.23,0,.97,.23,1.77,.52,1.77s.7,.46,.82,.97c.12,.57,.12-.28-.06-1.82-.12-1.6-.47-2.96-.7-3.13s-.58-.97-.82-1.88c-.17-.85-.64-1.54-.93-1.54-.35,0-.58-.34-.58-.74,0-1.03-2.51-3.25-3.56-3.19-.64,0-.64,.11,.06,.34Z"/>
  <path d="M139.81,335.7c0,.91,.23,1.71,.47,1.71,.29,0,.52-.8,.58-1.71,0-.97-.23-1.71-.52-1.71s-.52,.74-.52,1.71Z"/>
  <path d="M1.75,336.27c0,1.08,.12,1.54,.29,.97,.12-.51,.12-1.42,0-1.99-.17-.51-.29-.06-.29,1.03Z"/>
  <path d="M247.49,335.53c-.17,.28-.06,.97,.23,1.6,.41,.97,.47,.97,.47-.46,.06-1.54-.23-1.94-.7-1.14Z"/>
  <path d="M246.56,338.49c-.06,.46-.41,1.08-.87,1.42s-.99,1.25-1.17,2.05l-.35,1.42,.7-1.42c.41-.8,1.11-1.71,1.57-2.05,.41-.34,.64-.97,.47-1.42-.29-.68-.35-.68-.35,0Z"/>
  <path d="M30.55,340.03c-.47,1.25-.23,1.42,.64,.51,.41-.46,.52-.91,.23-1.08s-.7,.06-.87,.57Z"/>
  <path d="M111.36,340.49c.41,.46,.87,.68,.99,.63,.29-.34-.58-1.42-1.17-1.42-.29,0-.23,.34,.17,.8Z"/>
  <path d="M137.77,340.32c-.64,.91-.06,1.08,.76,.17,.41-.46,.47-.8,.17-.8s-.76,.28-.93,.63Z"/>
  <path d="M29.03,342.25c0,.51-.52,1.08-1.17,1.25s-1.17,.51-1.17,.74c0,.28-.52,.68-1.17,.85-.64,.23-.99,.63-.82,.97,.23,.28,.52,.34,.76,.06,.17-.23,1.34-1.08,2.51-1.88,2.27-1.48,2.62-1.99,1.63-2.56-.29-.17-.58,.06-.58,.57Z"/>
  <path d="M5.13,342.48c0,.57,1.11,1.42,1.46,1.14,.06-.11-.17-.57-.64-.97s-.82-.46-.82-.17Z"/>
  <path d="M112.41,342.48c0,.57,1.11,1.42,1.46,1.14,.06-.11-.17-.57-.64-.97s-.82-.46-.82-.17Z"/>
  <path d="M136.31,342.54c0,.34-.47,.8-.99,.97-.58,.23-1.4,.68-1.75,1.08-.41,.4-1.05,.8-1.46,.97-.41,.11-.58,.46-.35,.68s.82,0,1.34-.51,1.22-.91,1.52-.91c.52,0,2.86-2.05,2.86-2.56,0-.17-.23-.28-.58-.28-.29,0-.58,.28-.58,.57Z"/>
  <path d="M242.42,343.51c-.47,.23-1.17,.63-1.57,.97-1.92,1.65-2.45,1.99-3.73,2.22q-1.34,.23,.12,.34c.82,0,2.1-.46,2.86-1.08s1.69-1.14,2.04-1.14c.41,0,.87-.4,1.11-.85,.17-.46,.23-.85,.17-.8-.06,0-.52,.17-.99,.34Z"/>
  <path d="M7.46,344.31c0,.28,.29,.4,.58,.23,.35-.17,.58-.46,.58-.63,0-.11-.23-.23-.58-.23-.29,0-.58,.28-.58,.63Z"/>
  <path d="M114.74,343.91c0,.11,.41,.51,.87,.91,.76,.63,.82,.57,.52-.23s-1.4-1.31-1.4-.68Z"/>
  <path d="M223.47,345.1c.93,.74,1.87,1.2,2.04,1.03s-.06-.46-.47-.57c-.41-.17-1.11-.63-1.52-1.08-.47-.46-1.05-.8-1.34-.8-.23,.06,.29,.68,1.28,1.42Z"/>
  <path d="M10.55,345.96c.12,.46,.93,.91,1.92,.97,1.46,.06,1.52,0,.23-.23-.82-.17-1.69-.57-1.92-.97-.35-.4-.41-.34-.23,.23Z"/>
  <path d="M21.92,346.93c.35,.11,1.05,.11,1.46,0,.35-.17,.06-.28-.76-.28s-1.11,.11-.7,.28Z"/>
  <path d="M119.58,346.93c.52,.11,1.34,.11,1.75,0,.35-.17-.06-.28-1.05-.28-.93,0-1.28,.11-.7,.28Z"/>
  <path d="M129.2,346.93c.35,.11,1.05,.11,1.46,0,.35-.17,.06-.28-.76-.28s-1.11,.11-.7,.28Z"/>
  <path d="M226.85,346.93c.52,.11,1.34,.11,1.75,0,.35-.17-.06-.28-1.05-.28-.93,0-1.28,.11-.7,.28Z"/>
  <path d="M16.73,347.67c1.11,.28,2.57,.23,3.21,0,.87-.34,.29-.51-1.98-.46-2.92,0-3.03,.06-1.22,.46Z"/>
  <path d="M124.07,347.67c1.11,.28,2.39,.23,2.92,0,.58-.34-.06-.51-2.04-.51-2.8,.06-2.86,.06-.87,.51Z"/>
  <path d="M231.17,347.72c1.11,.34,2.33,.28,3.21,0,1.05-.46,.7-.57-1.87-.51-2.92,0-3.03,.06-1.34,.51Z"/>
  <path d="M14.17,368.75c-.23,.34-.7,.57-1.05,.51-1.05-.17-4.49,1.25-4.49,1.82,0,.28-.35,.51-.82,.51-1.17,0-4.31,3.99-4.66,6.04-.35,1.6-.35,1.54,.41-.23,.41-1.03,.93-1.71,1.17-1.48s.41,.11,.41-.28c0-.57,1.63-2.34,4.37-4.56,.52-.4,1.98-.85,3.21-1.03,1.28-.17,2.16-.51,1.98-.8s.87-.51,2.33-.51,2.68,.23,2.68,.51c0,.23,1.11,.63,2.45,.8,1.4,.17,2.57,.63,2.68,.91,.12,.34,.52,.63,.93,.63,.93,0,3.26,1.94,3.26,2.73,0,.28,.41,.68,.87,.91,.47,.17,.87,.57,.87,.91s.41,1.03,.87,1.48c.47,.51,.87,1.54,.87,2.39,0,.8,.35,2.34,.76,3.42,.58,1.6,.58,2.05,0,2.22-.87,.28-1.05,4.16-.23,4.16s1.4-5.75,.93-8.6c-.52-2.96-1.87-5.24-4.78-8.09-2.04-1.99-3.09-2.73-3.09-2.28,0,.23-.23,.17-.47-.11-.82-1.14-3.15-2.05-4.31-1.65-.82,.23-1.05,.11-.82-.28,.29-.46-.58-.63-2.8-.63-1.75,0-3.38,.28-3.56,.57Z"/>
  <path d="M69.44,368.58c.87,.11,2.27,.11,3.21,0,.87-.11,.12-.23-1.63-.23s-2.51,.11-1.57,.23Z"/>
  <path d="M120.86,368.69c-3.5,1.25-4.96,1.94-4.96,2.39,0,.28-.35,.51-.76,.51s-1.11,.46-1.57,.97c-2.51,2.91-3.5,4.39-3.44,5.24,0,.57,.29,.4,.7-.51,.82-1.65,4.84-5.7,5.71-5.7,.35,0,.99-.4,1.46-.85,.52-.46,1.69-.85,2.62-.85,.99,0,1.63-.23,1.4-.51-.17-.34,1.11-.68,3.03-.8l3.38-.17-3.21-.06c-1.75-.06-3.73,.11-4.37,.34Z"/>
  <path d="M176.71,368.58c.87,.11,2.27,.11,3.21,0,.87-.11,.12-.23-1.63-.23s-2.51,.11-1.57,.23Z"/>
  <path d="M232.8,368.58c2.04,.17,2.62,.4,2.04,.74-.64,.4-.41,.57,.87,.57,2.39,0,4.43,.63,4.08,1.14-.17,.23,.35,.63,1.17,.8,.82,.23,2.16,1.42,3.03,2.79,.87,1.31,1.81,2.56,2.1,2.73,.23,.17,.58,1.31,.76,2.56,.17,1.2,.58,2.91,.93,3.82,.47,1.14,.41,1.77-.12,2.39-.76,.91-.35,1.94,.47,1.2,.58-.57,.23-7.86-.41-8.26-.23-.17-.7-.97-.93-1.77-.23-.74-.76-1.65-1.11-2.05-.35-.34-1.17-1.37-1.75-2.17s-1.46-1.48-1.87-1.48c-.47,0-.82-.23-.82-.46,0-.97-5.07-2.62-8.16-2.73q-3.15-.06-.29,.17Z"/>
  <path d="M65.18,369.49c-5.01,2.34-8.8,6.32-9.5,10.08-.17,1.08-.52,2.56-.76,3.25-.23,.8-.12,1.31,.23,1.31s.82-1.37,.99-3.08c.29-2.05,.87-3.53,1.81-4.5,.76-.8,1.4-1.71,1.4-1.99s.7-1.03,1.52-1.6,1.87-1.42,2.33-1.82,1.75-.91,2.86-1.08,1.87-.51,1.69-.8c-.35-.63-.7-.57-2.57,.23Z"/>
  <path d="M74.22,369.32c-.23,.34,.47,.57,1.75,.57s2.39,.4,3.03,1.14c.58,.63,1.28,1.14,1.57,1.14,.82,0,2.86,2.45,4.08,4.84,.58,1.25,1.34,2.73,1.57,3.25,.29,.57,.52,1.65,.52,2.45,0,.97,.29,1.42,1.05,1.42,.64,0,.76-.17,.29-.46-.35-.23-.82-1.65-1.05-3.25-.29-1.54-.76-3.13-1.11-3.48-.58-.57-1.46-1.77-2.57-3.42-.23-.34-1.81-1.54-3.56-2.68-3.09-2.11-4.9-2.62-5.6-1.54Z"/>
  <path d="M127.86,369.32c-.82,.28-.47,.46,1.46,.74,1.46,.17,2.68,.63,2.8,.91,.12,.34,.64,.63,1.11,.63,1.05,0,4.84,3.87,4.84,4.96,0,.4,.23,.74,.58,.74,.29,0,.7,.97,.87,2.11,.17,1.2,.58,3.02,.93,4.1,.52,1.48,.47,1.99-.12,2.39-.64,.4-.58,.51,.29,.51,.99,0,1.05-.28,.7-3.59-.23-1.94-.7-3.65-.99-3.7-.29-.11-.52-.63-.52-1.2,0-1.31-2.27-4.16-5.54-6.78-1.46-1.2-5.13-2.28-6.41-1.82Z"/>
  <path d="M172.46,369.55c-4.61,1.99-8.34,5.75-9.79,9.97-.87,2.39-.87,4.62-.12,4.62,.35,0,.58-.8,.58-1.82,0-3.13,4.37-10.14,6.3-10.14,.35,0,.87-.4,1.11-.85,.29-.46,1.52-1.03,2.8-1.31,1.4-.23,1.98-.57,1.46-.74-.47-.17-1.52-.06-2.33,.28Z"/>
  <path d="M182.08,369.38c-.93,.34-.82,.46,.76,.46,1.92,.06,2.39-.23,1.17-.68-.41-.11-1.28-.06-1.92,.23Z"/>
  <path d="M225.22,369.77c-.93,.46-1.81,1.08-1.92,1.37-.12,.23-.52,.46-.93,.46s-1.28,.68-1.87,1.48-1.81,2.28-2.68,3.25c-1.63,1.88-2.22,3.76-2.22,7.18,0,3.02,.64,6.32,1.22,6.32,.7,0,.64-3.25-.06-3.7-.29-.17-.58-1.25-.58-2.34s.29-1.94,.58-1.94c.35,0,.58-.74,.58-1.65s.41-2.05,.87-2.56c.47-.46,.87-1.03,.87-1.31,0-.74,3.96-4.73,4.72-4.73,.35,0,.99-.4,1.46-.85,.52-.46,1.69-.85,2.68-.85s1.63-.17,1.4-.4c-.7-.68-2.39-.63-4.14,.28Z"/>
  <path d="M186.33,370.86c.64,.57,1.75,1.42,2.45,1.88,2.04,1.37,4.55,5.81,4.96,8.66,.23,1.54,.7,2.73,.99,2.73,.35,0,.41-.46,.17-1.03-.23-.51-.58-2.11-.76-3.42-.12-1.37-.64-2.62-1.05-2.79-.47-.17-.82-.51-.82-.85,0-.28-.41-.91-.87-1.37s-1.05-1.14-1.28-1.54c-.52-.8-4.02-3.25-4.61-3.25-.23,0,.12,.46,.82,.97Z"/>
  <path d="M108.68,381.91c-.23,1.94-.29,3.65-.12,3.82s.35-.51,.35-1.48c0-1.03,.29-1.82,.58-1.82,.7,0,.76-3.25,.06-3.65-.29-.17-.7,1.25-.87,3.13Z"/>
  <path d="M1.4,382.19c-.23,1.77-.29,3.36-.12,3.48,.12,.17,.47-1.2,.64-2.96,.23-1.77,.29-3.3,.17-3.48-.17-.11-.47,1.2-.7,2.96Z"/>
  <path d="M86.75,386.18c0,.97-.29,1.99-.7,2.39-.52,.51-.52,.85-.06,1.31s.76-.06,1.05-1.99c.23-1.48,.29-2.85,.06-3.02-.17-.23-.35,.4-.35,1.31Z"/>
  <path d="M162.49,384.93c-.64,.63,.99,6.27,1.87,6.5,.52,.11,.58,.06,.17-.28-.41-.23-.93-1.82-1.17-3.48-.29-1.71-.7-2.91-.87-2.73Z"/>
  <path d="M194.15,386.41c0,1.08,.12,1.54,.29,.97,.12-.51,.12-1.42,0-1.99-.17-.51-.29-.06-.29,1.03Z"/>
  <path d="M55.04,386.13c.23,.46,.47,.85,.58,.85s.23-.4,.23-.85-.23-.85-.58-.85c-.29,0-.41,.4-.23,.85Z"/>
  <path d="M1.75,388.12c0,1.08,.12,1.54,.29,.97,.12-.51,.12-1.42,0-1.99-.17-.51-.29-.06-.29,1.03Z"/>
  <path d="M108.91,388.12c0,1.03,.23,1.65,.58,1.42,.35-.17,.58-.85,.58-1.42s-.23-1.25-.58-1.42c-.35-.23-.58,.4-.58,1.42Z"/>
  <path d="M139.81,388.41c0,.46,.29,.85,.58,.85,.35,0,.58-.4,.58-.85s-.23-.85-.58-.85c-.29,0-.58,.4-.58,.85Z"/>
  <path d="M247.08,388.63c0,.34,.29,.74,.58,.91,.35,.17,.58-.06,.58-.51,0-.51-.23-.91-.58-.91-.29,0-.58,.23-.58,.51Z"/>
  <path d="M56.03,389.77c.06,.8,.52,1.48,.99,1.6,.58,.17,.64,.11,.23-.23-.41-.23-.82-.97-.99-1.6-.29-.91-.29-.85-.23,.23Z"/>
  <path d="M193.51,389.66c-.06,.68-.41,1.37-.76,1.48-.58,.23-.58,.34,0,.34,.87,.06,1.52-1.31,1.11-2.34-.17-.4-.35-.17-.35,.51Z"/>
  <path d="M2.86,390.46c-.06,.51,.47,1.54,1.11,2.28,.58,.74,1.11,1.03,1.17,.63,0-.34-.23-.68-.52-.68s-.82-.68-1.11-1.6c-.35-.85-.64-1.14-.64-.63Z"/>
  <path d="M246.56,390.51c-.06,.51-.47,1.37-.99,1.88s-.82,1.03-.64,1.2c.52,.51,2.27-2.51,1.98-3.3-.23-.51-.35-.4-.35,.23Z"/>
  <path d="M31.54,391.31c-.87,.91-.93,1.37-.23,1.37,.47,0,1.4-1.71,1.11-1.99-.12-.11-.52,.17-.87,.63Z"/>
  <path d="M110.07,390.68c0,.28,.29,.97,.58,1.42s.58,.57,.58,.28c0-.34-.29-.97-.58-1.42s-.58-.63-.58-.28Z"/>
  <path d="M138.47,391.71c-.52,.63-.99,1.42-.99,1.71,0,.34-.47,.91-.99,1.37q-.93,.74,.29,.17c.7-.34,1.28-.97,1.28-1.42s.23-.85,.52-.85c.52,0,1.4-1.71,1.11-2.05-.12-.06-.64,.4-1.22,1.08Z"/>
  <path d="M217.76,391.88c.35,.85,1.34,1.08,1.34,.28,0-.28-.41-.63-.82-.8-.58-.23-.76-.06-.52,.51Z"/>
  <path d="M57.78,392.85c.23,.57,.41,1.25,.41,1.54,0,.23,.41,.57,.82,.74,1.05,.4,.58-1.14-.76-2.45-.76-.74-.82-.74-.47,.17Z"/>
  <path d="M29.33,394.5l-1.17,1.2,1.34-.68c.7-.34,1.28-.91,1.28-1.2,0-.74-.12-.68-1.46,.68Z"/>
  <path d="M219.1,393.82c0,.28,.52,.8,1.17,1.14s1.17,.51,1.17,.46c0-.11-.52-.63-1.17-1.2-.64-.51-1.17-.74-1.17-.4Z"/>
  <path d="M243.59,394.96c-.52,.34-.58,.57-.17,.57,.35,0,.87-.28,1.05-.57,.47-.68,.23-.68-.87,0Z"/>
  <path d="M82.38,395.53c.17,.28,.47,.57,.64,.57,.12,0,.23-.28,.23-.57,0-.34-.29-.57-.64-.57-.29,0-.41,.23-.23,.57Z"/>
  <path d="M189.66,395.53c.17,.28,.47,.57,.64,.57,.12,0,.23-.28,.23-.57,0-.34-.29-.57-.64-.57-.29,0-.41,.23-.23,.57Z"/>
  <path d="M26.41,396.67c-.76,.34-.87,.51-.29,.51,.47,0,1.28-.23,1.75-.51,1.05-.68,.12-.68-1.46,0Z"/>
  <path d="M60.81,396.67c.64,.28,1.57,.51,2.04,.51,.52,0,.47-.23-.29-.51-.64-.28-1.57-.51-2.04-.51-.52,0-.47,.23,.29,.51Z"/>
  <path d="M80.34,396.67c-.47,.28-.58,.57-.29,.57,.35,0,.99-.28,1.46-.57s.64-.57,.29-.57c-.29,0-.99,.28-1.46,.57Z"/>
  <path d="M168.38,396.67c.47,.28,1.17,.57,1.46,.57,.35,0,.17-.28-.29-.57s-1.11-.57-1.46-.57c-.29,0-.17,.28,.29,.57Z"/>
  <path d="M187.62,396.67c-.47,.28-.58,.57-.29,.57,.35,0,.99-.28,1.46-.57s.64-.57,.29-.57c-.29,0-.99,.28-1.46,.57Z"/>
  <path d="M222.01,396.67c.47,.28,1.17,.57,1.46,.57,.35,0,.17-.28-.29-.57s-1.11-.57-1.46-.57c-.29,0-.17,.28,.29,.57Z"/>
  <path d="M224.11,397.69c-.47,.74,2.04,1.54,3.26,1.08,.41-.17,.06-.34-.82-.34-.82-.06-1.63-.34-1.75-.74-.17-.51-.35-.51-.7,0Z"/>
  <path d="M239.51,397.81c0,.28,.29,.57,.64,.57,.29,0,.41-.28,.23-.57-.17-.34-.47-.57-.64-.57-.12,0-.23,.23-.23,.57Z"/>
  <path d="M27.04,262.47c.41,.4,.87,.57,1.05,.4s-.12-.51-.7-.69c-.82-.34-.87-.29-.35,.29Z"/>
  <path d="M28.96,263.04c0,.29,.29,.4,.58,.23,.35-.17,.58-.46,.58-.63,0-.11-.23-.23-.58-.23-.29,0-.58,.29-.58,.63Z"/>
  <path d="M38.57,262.99c.17,.29,.47,.57,.64,.57,.12,0,.23-.29,.23-.57,0-.34-.29-.57-.64-.57-.29,0-.41,.23-.23,.57Z"/>
  <path d="M82.28,262.99c.23,.34,.64,.46,.93,.29,.82-.51,.64-.86-.41-.86-.47,0-.7,.29-.52,.57Z"/>
  <path d="M91.89,262.99c0,.29,.29,.57,.58,.57,.35,0,.58-.29,.58-.57,0-.34-.23-.57-.58-.57-.29,0-.58,.23-.58,.57Z"/>
  <path d="M135.6,262.99c0,.29,.23,.57,.52,.57,.35,0,.76-.29,.93-.57,.17-.34-.06-.57-.52-.57-.52,0-.93,.23-.93,.57Z"/>
  <path d="M200.86,262.99c0,.29,.29,.57,.58,.57,.35,0,.58-.29,.58-.57,0-.34-.23-.57-.58-.57-.29,0-.58,.23-.58,.57Z"/>
  <path d="M197.95,263.56l-2.04,.4,1.86,.11c.99,0,2.04-.23,2.21-.51,.17-.34,.29-.51,.17-.51-.12,.06-1.11,.29-2.21,.51Z"/>
</svg>