<?xml version="1.0" encoding="UTF-8"?>
<svg id="Layer_1" data-name="Layer 1" xmlns="http://www.w3.org/2000/svg" viewBox="0 0 600 305">
  <path d="M470.8,297.68c-1.92-2.53-1.92-2.79,.79-5.85,2.71-2.79,2.82-7.05,.22-5.85-.56,.13-1.02-.8-1.13-2.26-.11-2.13,0-2.13,.34-.27,.34,1.2,1.02,2,1.58,1.46,.56-.4,.79-1.2,.45-1.86-.34-.53-.79-3.33-1.13-6.12-.34-3.59-.23-4.52,.56-3.19,.56,1.06,1.13,1.33,1.13,.53,0-.8-.79-2.26-1.69-3.19-1.24-1.2-1.35-2.13-.45-3.46,.79-1.06,.79-2.53,.11-4.12-1.24-2.93-.9-12.77,.67-18.49,1.01-3.86,.9-4.12-1.35-3.46-2.14,.67-2.14,.53-.79-1.46,1.24-1.86,1.24-2.26,0-2.26-1.35,0-1.35-.27-.11-1.2,.9-.53,1.47-1.46,1.47-2-.11-.4,.23-.67,.68-.53,.56,.27,.79,.93,.56,1.46-.11,.67,.23,.8,.9,.27,.22-.15,.43-.2,.61-.19,.06-.45,.12-.9,.18-1.35-.44-.64-.94-1.29-1.47-1.92-2.37-2.66-2.71-3.99-2.14-7.58,.45-2.79,.11-5.32-.79-6.65q-1.24-2,.34-.53c1.47,1.33,2.14,1.2,3.27-.4,1.24-1.73,1.13-1.86-.23-1.33-.9,.4-2.37-.27-3.27-1.46-1.35-2.13-1.35-2.26,.34-1.6,1.92,.93,2.14-.93,.34-4.26-1.47-2.79-1.92-6.65-.68-6.65,.56,0,.79-2.66,.45-5.99-.45-5.32-.23-5.85,1.58-5.06,1.92,.93,1.92,.8,0-1.46-1.13-1.33-1.8-3.33-1.47-4.26,.34-.93,0-2.13-.68-2.66-.79-.53-.68-1.2,.23-1.86,.79-.53,1.24-1.86,.9-2.79-.9-2.93-.79-4.52,.45-4.12,.56,.13,.79-.27,.34-1.06-.34-.8-1.24-1.06-1.8-.66-.56,.53-1.01,.27-1.01-.4,0-.8,.79-1.73,1.69-2.13,1.58-.67,1.58-1.2-.23-4.39-1.92-3.33-1.92-3.59,0-2.66,1.24,.53,1.92,.27,1.92-1.06,0-1.06-.68-1.6-1.58-1.2-1.13,.53-1.47-.8-1.24-5.99,.22-6.92-.23-7.58-4.85-6.92-.9,.13-2.26-.8-3.16-2.13-1.13-1.73-1.47-1.86-1.02-.27,.56,1.6-.56,2-6.31,2.26-11.61,.4-9.7,2.26,2.14,2.26h10.94s.23,45.23,.23,45.23c.23,24.88,.46,57.07,.57,71.57l.34,26.21h-16.35c-9.02,0-27.4,.41-40.93,.94l-24.47,.8,.22-72.23,.33-72.1,28.42-.14c15.67,0,28.53-.54,28.53-1.2,0-1.06-1.01-1.2-8.68-1.46-1.92-.13-3.38-.4-3.16-.93,.11-.4-.34-1.46-1.24-2.39-1.24-1.33-1.92-1.2-3.83,1.06-1.24,1.46-2.26,2.13-2.26,1.6,0-.67-.68-1.2-1.47-1.2-.68,0-2.26-.53-3.38-1.06-1.13-.53-1.92-.4-1.92,.53,0,.8,.79,1.46,1.69,1.46,.9,0,1.69,.66,1.69,1.46,0,.67-.56,.93-1.35,.4-.79-.53-5.86-.93-11.28-.66-7.56,.27-9.92-.13-9.92-1.46s-.23-1.33-1.01,.13c-.79,1.33-1.35,1.06-2.82-1.33-1.02-1.73-1.8-2.39-1.8-1.46,0,1.06-.56,1.33-1.35,.8-.79-.53-.9-.4-.45,.67,.45,.8,1.24,1.2,1.8,.8,.56-.4,1.24-.27,1.58,.4,.23,.53-.45,1.2-1.69,1.2-1.35,.13-2.71-.93-3.27-2.66l-1.02-2.93v2.93c-.11,1.73-.56,3.06-1.01,3.06-.56,0-1.92,.8-3.04,1.86-1.92,1.6-2.03,2.13-.56,4.26,1.69,2.39,1.58,2.39-1.47,.13-1.87-1.51-2.79-1.8-3-1.06,.14,.12,.29,.24,.43,.35,.81,.61,1.4,1.34,1.82,2.14,.35,.36,.73,.85,1.19,1.5,1.58,2.26,1.92,3.59,1.02,4.66-1.35,1.6-1.58,3.99-.34,3.06,1.13-.8,1.02,8.11-.11,9.31-.34,.4-.68,.13-.68-.66,0-.93-.45-1.6-1.02-1.6-.45,0-.68,1.46-.45,3.19,.34,2.13,1.13,3.06,2.14,2.53,.9-.4,1.58,0,1.58,.8,0,.8-.9,1.46-2.03,1.46-1.47,0-2.03,1.2-2.25,3.99-.23,2.93,.11,3.72,1.35,3.19,1.92-.93,3.38,5.32,1.92,8.51-.68,1.46-.68,3.19-.11,4.26,.68,1.33,.34,2.79-.9,4.52-1.01,1.46-1.35,2.13-.68,1.73,.79-.53,1.58,.27,1.92,1.73,.15,.66-.13,.92-.41,2.41-.08,.41-.14,1.12-.27,2.51-.31,3.48-.18,3.25-.34,3.86-.42,1.64-1.23,2.79-.9,3.11,.06,.05,.13,.08,.22,.08,.68,0,1.47-.8,1.69-1.73,.34-.93,.68-.67,.68,.67,.11,1.33-.56,2.39-1.35,2.39-1.8,0-1.69,5.19,.11,6.52,.68,.53,.9,1.6,.23,2.66-.45,1.06-.68,2.79-.34,3.99,.56,1.73,.34,1.86-.9,.4-.79-.8-1.92-1.6-2.59-1.6-.56,0,.11,1.2,1.47,2.66,1.92,1.86,2.59,3.99,2.59,8.25,.11,8.25-.11,9.05-1.47,9.05-.9,0-.9-.53,.11-1.86,1.01-1.6,.9-2-1.02-1.73-1.24,0-1.92,.67-1.58,1.33,.34,.67-.11,1.86-.9,2.53-1.24,1.06-1.24,1.2,.34,.67,1.01-.4,2.71,.4,3.95,1.99,1.13,1.6,1.35,2.39,.56,1.86-.79-.53-1.47-.27-1.47,.8-.79,8.11-.79,10.64,.11,9.05,1.47-2.93,2.59-.67,1.24,2.53-.68,1.46-.79,2.93-.34,3.33,.71,.56,.91,2.67,.63,4.57,.53,2.91,.58,6.02,.37,8.62-.21,2.58-.84,5.05-1.31,7.57,1.9-1.68,2.94,1.21,2.05,6.35,.32,.03,.64,.05,.96,.06,.67-.97,3.04-1.23,9.03-1.24,15.56,.13,17.14,.26,18.49,1.59,.9,.93,1.58,.8,2.14-.13,.45-.93,2.37-1.33,4.17-1.06,2.48,.53,3.16,.13,2.71-1.2-.45-1.2-.11-1.46,.68-.93,.68,.53,6.2,1.2,12.29,1.33,5.98,.27,12.29,.66,13.87,1.06,1.58,.4,3.16,.13,3.5-.53,.34-.67,2.82-.93,5.64-.67,3.61,.4,5.3,0,5.98-1.46,.79-1.73,1.35-1.6,3.95,.8,.33,.31,.63,.63,.92,.96,.48-.06,.82-.1,1.08-.14-.21-.25-.42-.51-.65-.82Zm-42.42-152.71c.79-.27,1.69-.13,2.03,.27,1.13,1.33-.56,2.53-2.03,1.33-1.24-.8-1.24-1.06,0-1.6Zm-44.43,39.65c-.9,0-1.69-.53-1.69-1.33,0-.67,.79-.93,1.69-.53,.9,.53,1.69,1.06,1.69,1.33s-.79,.53-1.69,.53Zm87.4,103.75c.56,0,1.13,.27,1.13,.53,0,.4-.56,1.06-1.13,1.46-.68,.4-1.13,.13-1.13-.53,0-.8,.45-1.46,1.13-1.46Zm-1.58-42.97c.34-1.33,1.01-2,1.35-1.6,.34,.4,0,1.46-.79,2.39-1.13,1.2-1.24,1.06-.56-.8Z"/>
  <path d="M382.38,169.99c.56,0,.79-.67,.45-1.33-.34-.8-.9-1.33-1.24-1.33-.23,0-.45,.53-.45,1.33,0,.67,.56,1.33,1.24,1.33Z"/>
  <path d="M383.39,191.27c.68,1.2,1.13,1.33,1.13,.4,0-.8-.56-2-1.13-2.39-1.35-1.06-1.35-.53,0,2Z"/>
  <path d="M391.17,188.61c.68,0,1.47-.53,1.8-1.33s-.11-.93-1.01-.53c-2.03,.93-2.37,1.86-.79,1.86Z"/>
  <path d="M393.21,275.74c1.69,7.85,8.57,13.3,15,11.84,11.05-2.66,15.56-23.28,6.42-29.8-2.03-1.46-4.17-2.66-4.74-2.66-.68,0-.45,.53,.45,1.2,1.24,.93,1.13,1.33-.56,1.86-1.92,.53-1.92,.67-.11,.8,1.35,.13,1.8,.8,1.24,1.73-.45,.93-.45,1.33,.11,.8,.45-.53,1.69-.27,2.71,.53,1.13,1.06,1.01,.53-.34-1.33-1.24-1.6-1.58-2.93-.9-2.93,2.26,0,5.86,7.05,5.86,11.57,0,9.98-6.09,16.1-14.43,14.63-8.91-1.73-12.18-13.7-6.32-23.41l2.82-4.79-3.38,4.66c-1.92,2.53-3.5,5.59-3.49,6.78,0,1.33-.23,3.06-.45,4.12-.23,.93-.11,2.93,.11,4.39Z"/>
  <path d="M397.38,234.64c2.82,3.33,4.85,4.52,7.56,4.52,8.23,0,14.66-8.12,14.43-17.83-.23-4.39-.34-4.66-.68-1.46-1.46,13.04-9.36,18.76-18.38,13.31-7.44-4.52-7.78-16.36-.68-23.68l2.37-2.39-2.48,1.46c-3.61,2-5.98,8.12-5.97,15.43,0,5.19,.56,6.78,3.84,10.64Z"/>
  <path d="M396.81,185.95c1.8,2.13,4.51,4.26,6.2,4.79,4.06,1.2,10.6-2,13.42-6.25,4.4-7.05,3.27-21.02-1.81-21.95-1.24-.13-1.8,.13-1.35,.53,.45,.53,1.35,.93,2.03,.93,.79,0,1.8,2.13,2.37,4.66,1.47,6.92-1.46,14.1-6.76,16.76-7.89,3.86-15-1.59-16.35-12.24l-.68-6.52-.22,7.72c-.11,6.92,.23,8.25,3.16,11.57Z"/>
  <path d="M397.6,162.93c1.69-2,3.5-3.59,4.17-3.59s.9-.4,.56-.8c-1.01-1.06-6.2,3.19-7.1,5.72-.34,1.2,.68,.53,2.37-1.33Z"/>
  <path d="M397.15,225.99c1.8,.8,12.18,.66,12.18-.13,0-.67-.9-.93-2.03-.4-1.01,.4-1.58,.4-1.13-.27,.45-.53,.23-2-.56-3.06-1.13-1.73-1.02-2,1.24-1.33,2.26,.66,2.37,.53,1.24-1.06-1.24-1.73-1.58-1.73-3.16,.13s-1.58,2.26-.11,3.33q1.92,1.46-3.04,2c-2.93,.27-3.72-.27-4.06-2.53q-.45-2.66-.68,.13c0,1.73,0,3.06,.11,3.19Z"/>
  <path d="M397.37,173.98c.23,0,.68-1.2,1.01-2.66s.11-2.66-.45-2.66-1.01,1.2-1.01,2.66,.23,2.66,.45,2.66Z"/>
  <path d="M399.75,266.69c.9,0,1.35-.53,1.01-1.2s-1.13-.8-1.69-.4c-1.47,1.2-1.24,1.6,.68,1.6Z"/>
  <path d="M399.4,176.9c.68-.8,.9-2.39,.68-3.72-.34-1.86-.56-1.6-1.13,1.2-.34,2.53-.23,3.33,.45,2.53Z"/>
  <path d="M401.21,169.98c1.47,1.86,2.48,2.66,2.14,2-.34-.8-.23-2.26,.45-3.33,.79-1.6,1.01-1.33,1.01,.93,0,4.26-1.24,7.18-2.59,6.12-.56-.4-.79-.27-.45,.53,.45,.67,2.37,1.33,4.4,1.46,3.38,.13,3.5,0,1.35-1.46-2.82-1.99-2.03-7.98,1.13-8.65,1.24-.4,1.8,0,1.35,.93-.45,.8-.23,1.46,.45,1.46,.79,0,1.13-.8,.9-1.73-.34-.8-2.37-1.73-4.62-1.86-3.27-.27-4.17,.27-4.17,1.86,0,1.86-.23,1.86-1.58-.4-.9-1.33-1.8-2.26-2.14-1.86-.23,.4,.79,2.13,2.37,3.99Z"/>
  <path d="M401.55,230.64c.68,.4,1.69,.27,2.26-.4s.11-1.2-1.24-1.2c-2.59,0-2.71,.27-1.01,1.6Z"/>
  <path d="M400.76,223.19c.23,0,.79-.93,1.13-2.13,.34-1.06,.23-1.6-.45-1.2-1.13,.8-1.58,3.33-.68,3.33Z"/>
  <path d="M402.45,217.87c1.24,0,2.48-.53,2.82-1.2s-.56-1.06-2.14-.93c-3.27,.13-3.83,2.13-.68,2.13Z"/>
  <path d="M402.46,275.74c.56,.4,1.35,.13,1.8-.67s1.24-1.06,1.8-.67,.68-.13,.23-1.46c-.56-2-.79-2-1.69,0-.56,1.2-1.47,1.86-2.14,1.46-.56-.53-1.01-.53-1.01-.13s.45,.93,1.02,1.46Z"/>
  <path d="M406.51,157.75c1.8,0,2.48-.27,1.35-.67-1.01-.27-2.59-.27-3.38,0-.68,.4,.11,.67,2.03,.66Z"/>
  <path d="M406.63,254.99c1.24,0,1.58-.4,.68-.8-.79-.4-1.8-.27-2.14,.13-.45,.4,.23,.8,1.47,.66Z"/>
  <path d="M408.77,217.61c1.35,1.46,1.69,1.33,1.69-.4,0-1.06-.79-2-1.69-2-2.03,0-2.03,.27,0,2.39Z"/>
  <path d="M408.88,209.89c1.01,0,3.38,1.99,5.3,4.26,1.92,2.66,2.93,3.19,2.14,1.6-.68-1.46-2.03-3.46-2.93-4.39-1.01-1.06-1.58-2.26-1.24-2.79,.23-.53-.79-.67-2.26-.27-3.16,.67-3.72,1.6-1.01,1.6Z"/>
  <path d="M409.33,162.8c1.24,0,2.26-.53,2.26-1.06s-1.01-1.06-2.26-1.06-2.26,.53-2.26,1.06,1.01,1.06,2.26,1.06Z"/>
  <path d="M409.34,271.75c.56,.4,1.13,.13,1.13-.53,0-.8-.56-1.46-1.13-1.46-.68,0-1.13,.27-1.13,.53,0,.4,.45,1.06,1.13,1.46Z"/>
  <path d="M409.11,265.63c.9,.13,1.13,.8,.68,1.73-.56,1.33-.45,1.33,.68,.13,1.8-2,.9-3.72-1.35-2.66-1.24,.53-1.24,.8,0,.8Z"/>
  <path d="M409.33,173.31c.56,.4,1.13,.13,1.13-.53,0-.8-.56-1.46-1.13-1.46-.68,0-1.13,.27-1.13,.53,0,.4,.45,1.06,1.13,1.46Z"/>
  <path d="M412.94,222.13c.56-.67,.9-2.13,.68-3.06-.34-1.06-.79-.4-1.24,1.33-.45,2.26-.34,2.79,.56,1.73Z"/>
  <path d="M413.62,275.07c.45,0,1.01-1.33,1.01-2.93,.23-2.39,0-2.66-.79-1.06-1.35,2.39-1.47,3.99-.23,3.99Z"/>
  <path d="M413.73,265.76c.79,0,1.01,.53,.68,1.33-.34,.67-.23,1.33,.45,1.33,.56,0,1.47-.67,1.8-1.33,.79-1.46-2.48-3.46-3.61-2.13-.45,.4-.11,.8,.68,.8Z"/>
  <path d="M413.95,176.63c.56,0,1.01-1.06,1.01-2.39,0-1.2,.34-3.59,.68-5.32,.56-2.26,.23-2.93-1.35-2.79-1.24,0-1.58,.4-.9,.67,.9,.4,1.02,2.13,.45,5.19-.45,2.66-.45,4.66,.11,4.66Z"/>
  <path d="M416.66,213.08c.9,1.46,1.69,2,1.69,1.2s-.79-2.13-1.69-3.06c-2.14-2.13-2.14-1.46,0,1.86Z"/>
  <path d="M418.36,256.45c.56,0,1.13-.67,1.13-1.46,0-.67-.56-.93-1.13-.53-.68,.4-1.13,1.06-1.13,1.46,0,.27,.45,.53,1.13,.53Z"/>
  <path d="M436.18,279.06c5.08,12.1,20.19,10.11,23.91-3.33,.68-2.53,1.01-5.99,.79-7.58-.34-2.39-.56-2.26-.68,.93,0,2.13-1.13,5.99-2.37,8.38-6.2,11.97-21.42,6.65-21.43-7.45,0-4.92,.68-6.65,3.83-10.38,2.37-2.79,5.07-4.66,6.99-4.66,2.59-.13,2.71-.4,.79-.8-3.83-.93-9.13,3.19-11.61,8.91-2.82,6.39-2.82,9.98-.22,15.96Z"/>
  <path d="M436.06,230.9c5.41,13.04,20.41,9.57,23.91-5.59,.68-2.93,1.01-5.59,.68-5.85-.23-.27-.9,1.86-1.58,4.66-1.47,6.52-4.28,9.58-9.36,10.51-5.3,1.06-10.83-2.39-12.86-8.11-2.14-6.25-.11-13.44,5.07-17.56,2.14-1.73,3.27-3.06,2.71-3.06-2.26,0-7.44,5.85-8.91,10.11-2.03,5.72-1.92,9.45,.34,14.9Z"/>
  <path d="M436.39,184.21c3.16,6.25,9.59,8.25,15.34,4.92,8.23-4.92,11.05-19.02,5.41-27-1.58-2.26-3.38-4.12-4.06-4.12s.11,1.2,1.8,2.79c1.58,1.46,2.93,3.19,2.93,3.86,0,1.6-5.19,2.4-7.22,1.07-2.26-1.46-2.37-.13-.23,2.39,1.13,1.33,1.92,1.46,2.37,.4,.45-.8,1.58-1.06,2.59-.53,.9,.4,2.14,0,2.71-.93,.68-1.06,.9,.93,.56,5.45-.68,9.18-4.17,13.44-10.94,13.44-6.65,0-11.84-5.85-11.62-13.03,.34-9.05,4.17-13.7,12.74-15.3q2.37-.53-.68-.8c-10.26-.53-17.48,16.23-11.72,27.4Z"/>
  <path d="M438.54,225.05c.34,.27,2.37,.53,4.4,.53,3.27,.13,3.83-.4,4.4-3.99,.79-4.39,3.38-6.39,4.96-3.59,.79,1.46,1.02,1.46,1.01-.4,0-1.46,.56-2,1.69-1.6,1.13,.53,1.47,2,1.13,4.39q-.56,3.46,.68-.27c.68-2.13,1.01-3.99,.68-4.39-.9-1.06-8.68-1.46-8.68-.4,0,.53-1.01,.67-2.26,.27s-2.26,0-2.26,.8c0,.67,.68,1.06,1.58,.66,1.13-.53,1.35,.27,1.02,2.79-.79,4.39-2.25,5.32-4.51,3.06-1.35-1.2-1.69-1.2-1.01-.13,.45,1.06,.23,1.73-.79,1.73-1.13,0-1.47-1.06-1.02-3.33,.23-1.86,.23-3.33-.11-3.33-.79,0-1.69,6.65-.9,7.18Z"/>
  <path d="M440.23,268.02q1.58-2.39,2.14,0c.45,1.86,.56,1.86,.68-.67,0-1.6-.34-2.93-.79-2.93-1.35,0-3.61,2.93-3.61,4.52,0,.8,.79,.4,1.58-.93Z"/>
  <path d="M439.44,177.83c.68,.13,1.69-.53,2.14-1.33,.45-1.06,1.01-.93,1.69,.27,.79,1.6,1.13,1.6,2.37,0,.9-1.2,1.01-1.46,.11-.93-.68,.4-2.14-.53-3.04-2.13l-1.8-2.93v2.79c0,1.6-.68,3.19-1.47,3.46-1.01,.53-1.01,.8,0,.8Z"/>
  <path d="M439.43,170.24c.23-1.6,.79-2.93,1.13-2.93,.23,0,1.58,1.33,2.71,2.93l2.26,3.06-1.92-3.72c-2.26-4.26-4.29-4.12-4.62,.53q-.11,2.93,.45,.13Z"/>
  <path d="M440.91,216.54c.56,0,1.13,.8,1.13,1.86s.68,2.13,1.58,2.53c1.24,.53,1.24,.13,.23-2.53s-4.06-4.52-4.06-2.53c0,.4,.45,.67,1.13,.66Z"/>
  <path d="M444.75,275.07c.9,0,1.92-.93,2.26-2.13,1.01-3.06,.45-3.19-1.92-.27-1.47,1.86-1.58,2.39-.34,2.39Z"/>
  <path d="M445.3,167.98c.56-.4,1.35,.93,1.58,2.93q.45,3.46,.68-.67c.11-2.93-.34-4.26-1.58-4.26-.9,0-1.69,.67-1.69,1.46,0,.67,.45,1.06,1.01,.53Z"/>
  <path d="M448.35,257.64c1.24,0,1.58-.4,.68-.8-.79-.4-1.8-.27-2.14,.13-.45,.4,.23,.8,1.47,.66Z"/>
  <path d="M449.59,274.93c2.03,.13,2.59-.53,2.48-2.93-.11-2-.34-2.26-.68-.67-.23,1.2-1.35,2.53-2.37,2.79-1.35,.4-1.13,.67,.56,.8Z"/>
  <path d="M449.93,225.58c1.58,0,2.14-.27,1.35-.67-.68-.27-2.03-.27-2.82,0-.68,.4-.11,.67,1.47,.66Z"/>
  <path d="M449.36,177.96c.9,0,1.69-.53,1.69-1.33,0-.67-.79-.93-1.69-.53-.9,.53-1.69,1.06-1.69,1.33s.79,.53,1.69,.53Z"/>
  <path d="M449.59,220.93c.34,.53,1.24,.93,1.92,.93s.56-.67-.23-1.6c-.68-.8-1.58-1.2-1.92-.93-.34,.4-.23,1.2,.23,1.6Z"/>
  <path d="M451.62,266.82c1.35,1.46,1.69,1.33,1.69-.4,0-1.06-.79-2-1.69-2-2.03,0-2.03,.27,0,2.39Z"/>
  <path d="M451.5,210.28c2.71,1.2,3.16,1.2,2.37-.4-.34-.8-.11-1.33,.56-1.33,.56,0,2.14,2,3.38,4.26,1.24,2.39,2.26,3.72,2.26,2.79s-1.13-3.19-2.59-5.05c-2.03-2.93-2.93-3.33-5.19-2.26-2.37,.93-2.48,1.33-.79,2Z"/>
  <path d="M451.05,173.97c.56,0,1.13-.67,1.13-1.33,0-.8-.56-1.33-1.13-1.33-.68,0-1.13,.53-1.13,1.33,0,.67,.45,1.33,1.13,1.33Z"/>
  <path d="M454.55,257.51c1.92,1.46,2.03,2.13,1.02,3.72-1.01,1.33-1.13,2.39-.11,3.59,.68,1.06,.9,2.26,.45,2.66-.34,.53-.11,.93,.56,.93,1.8,0,1.69-3.59,0-4.26-.79-.4-.9-1.2-.34-2.39,.68-1.33,1.24-1.2,2.48,.66,.79,1.46,1.47,1.86,1.47,1.2,0-1.73-6.54-9.18-7.22-8.38-.34,.4,.45,1.33,1.69,2.26Z"/>
  <path d="M455.57,275.07c.68,0,1.13-.93,1.13-2s-.23-2-.45-2-.68,.93-1.13,2c-.34,1.06-.11,2,.45,2Z"/>
  <path d="M454.88,177.96c.23,0,.68-1.46,.9-3.33,.34-1.73,.11-2.93-.34-2.53-1.01,.67-1.47,5.85-.56,5.85Z"/>
  <path d="M544.93,296.42c3.2,.26,5.57,1.14,5.16,1.9-.41,.62,.43,1.06,1.67,.74,1.38-.32,2.49-.65,2.49-.8,0-.15,3.88-.51,8.73-.89,8.18-.58,8.6-.43,5.85,1.74-.14,.11-.29,.25-.43,.38,2.35-.94,4.97-1.34,7.65-1.53,.06-.01,.12-.04,.18-.05,2.48-.42,4.63-.64,7.13-.27,.25,.04,.48,.11,.71,.17-.38-1.06-.16-1.51,.68-1.52,1.11-.02,2.09,.73,2.1,1.64,0,.11,.04,.18,.07,.27,2.47-.62,4.93-1.37,7.43-1.95,1.08-.25,2.12-.19,3.11,.06,.07-.11,.15-.21,.25-.29,.02-.48,.04-.97,.06-1.45l-7.91,.12c-4.3,.22-17.62,.41-29.42,.74-11.79,.33-18.87,.74-15.53,.99Z"/>
  <path d="M599.52,257.76v-7.6c-.6-2.1-.62-5.12,.16-7.2-.15-1.64-.29-3.27-.4-4.91-.39-.72-.68-1.7-.69-2.57-.01-1.02,.13-1.42,.5-1.24-.02-.81-.04-1.61-.03-2.41-.13-.15-.12-.36,0-.66,.03-2.14,.18-4.27,.48-6.36-.59-.9-.54-1.39,.3-1.78,.04-.21,.08-.42,.12-.63-.09-.44-.19-.89-.28-1.32-1.43-6.87-2.95-13.7-2.76-20.83,.18-6.89,1.43-13.68,1.54-20.58,0-.37,.05-.71,.11-1.04-.44-.29-.19-.9,.67-2.06,.02-.02,.03-.04,.04-.06-.03-.74-.05-1.48-.08-2.22-1.35,.02-1.37-.43-.08-2.19-.03-.82-.06-1.64-.09-2.46-.58-.28-.6-1.31-.12-3.25-.16-4.36-.31-8.73-.45-13.1-1.15-1.83-1.45-4.14-.21-6.57-.23-7.77-.4-15.53-.5-23.3-.86-4.13-.95-8.6-1.03-12.43-.22-10.18-1.02-20.3-.04-30.47,.25-2.58,.57-5.13,.93-7.65-.11-.45-.2-.92-.2-1.46-.1-12.57-2.46-25.63,.2-38.01-.29-2.76-.59-5.53-.89-8.3-.57-5.32-.59-10.61,1.07-15.51-.35-1.52-.65-3.78-.68-5.77-.01-1.08-.11-1.96-.32-2.68-3.56-.17-7.07-.57-10.56-1.09-9.32,.1-18.82,1.75-28.05,1.35-2.43-.1-4.87-.14-7.29-.15-1.87,1.61-4.42,2.02-7.02,.03-4.16,.04-8.32,.07-12.49-.07-5.09-.17-13.22-1.58-19.11-.05-.14,.39-.41,.48-.86,.25-.91,.3-1.77,.67-2.53,1.15-2.93,1.85-2.04,4.56-2.14,8.1-.17,6.36-1.35,12.61-1.47,18.99-.04,1.84-.56,3.34-1.38,4.49,.07,.23,.18,.43,.33,.59,1.37,1.61,1.31,5.81-.21,7.18-.02,.1-.02,.2-.04,.3-.09,.42-.2,.84-.3,1.25,.25,.6,.81,1.31,1.65,2.06,1.96,1.65,2.11,1.95,.57,1.36-1.65-.55-2.95,.18-3.42,1.24-.06,.2-.11,.39-.17,.58-.11,.79,.22,1.66,1.14,2.32,1.68,1.04,1.68,1.5,.17,2.74-1.52,.94-1.37,1.54,.72,2.43,2.37,1.03,2.37,1.18-.25,2.29-1.52,.78-1.93,1.4-.95,1.38,.83,.14,1.67,.74,1.69,1.65,0,.76-1.1,.93-2.35,.49-1.81-.73-1.67-.28,.58,2.12,3.09,3.3,3.35,12.74,.48,16.74-1.37,1.69-1.36,2,.02,1.67,2.35-.64,3.39,5.13,1.19,6.68-.1,.07-.17,.14-.25,.21-.05,.55-.18,1.12-.33,1.7,.18,.21,.42,.43,.76,.68,1.54,1.04,1.54,1.35-.25,2.14-.53,.23-1.07,.27-1.52,.14-.44,1.2-.88,2.41-1.32,3.61,.24-.2,.55-.47,.93-.83,1.37-1.24,2.62-1.41,3.05-.5,.43,.75,.02,1.83-.81,2.14-1.38,.63-1.38,.93-.13,.92,.97,.14,1.4,1.2,.86,2.58-.67,1.99-.95,1.99-1.94,.33-.99-1.51-1.27-1.35-1.24,.78,.02,1.52,.87,3.03,1.99,3.47,1.4,.59,1.69,1.95,.9,5.16-.66,2.75-.5,4.88,.49,5.93,1.27,1.35,1.14,2.11-.24,3.2-1.79,1.09-1.78,1.7,.05,3.96,1.13,1.51,1.28,2.27,.44,1.67-2.38-1.49-3.27,4.62-1.03,6.71,1.68,1.5,1.69,2.11-.37,3.81-1.51,1.24-1.78,2.01-.67,2.14,.83-.01,1.67,.74,1.69,1.65,0,.76-.82,1.08-1.66,.48-.98-.59-.55,.31,.86,2.12,2.26,2.86,2.4,3.31,.46,3.34-2.22,.03-2.17,3.84,.14,11.42,1.59,5,1.49,8.35-.04,8.37-.83,.01-.68,.77,.3,1.82,.84,.9,1.96,1.49,2.23,1.03,.27-.31,.51-37.61,.51-82.83l-.18-82.22,10.41-.15c5.69-.08,25.4-.07,43.72-.19l33.59-.19-.77,16.45c-.31,8.99,.08,74.3,.95,145.39l1.56,126.95c.32-4.67,.92-9.34,2.1-13.72-.78-5.95-1.02-15.74-.48-21.1Z"/>
  <path d="M584.21,13.71c-3.09-3.3-6.17-5.09-8.39-5.05-4.86,.07-11.47,3.98-13.23,7.66-2.16,4.75-1.61,4.74,2.64-.04,7.12-8.02,17.7-5.44,21.02,5.17,1.3,4.24,1.19,6.22-.7,10.82-2.56,5.98-9.59,10.65-13.77,8.88-1.67-.74-2.09-.43-1.24,.93,1.42,2.57,8.62,.94,12.18-2.77,7.81-7.88,8.38-18.24,1.49-25.6Z"/>
  <path d="M587.64,67.1c-2.43-5.9-5.24-8.3-10.94-9.13-8.07-1.25-16.57,7.25-16.04,16.07,.02,1.37,.7,.45,1.36-2.15,1.59-6.11,5.15-9.82,11.25-10.98,12.88-2.47,18.98,19.97,7.41,26.99-1.79,1.09-3.03,2.18-2.75,2.48,1.55,1.8,6.9-3.6,9.19-9.27,2.96-7.5,2.95-8.11,.52-14.02Z"/>
  <path d="M584.7,110.38c-5.34-5.71-12.15-5.76-18.05-.34-3.98,3.87-8.02,13.82-6.33,15.62,.42,.6,1.23-1.24,1.62-3.98,.52-2.6,2.7-6.59,5.03-8.75,5.35-5.1,12.58-4.45,17.37,1.42,3.67,4.67,4.01,9.69,1.03,16.43l-2.02,4.9,2.73-3.85c4.37-6,3.69-15.89-1.37-21.45Z"/>
  <path d="M585.44,159.1c-6.9-8.27-18.25-5.52-22.97,5.52-1.21,2.91-2.14,6.58-1.98,8.25,.02,1.52,.97-.17,2.17-3.84,2.93-9.79,10.25-13.4,18.21-8.95,7.96,4.3,9.07,15.55,2.37,23.11-1.92,2.16-2.59,3.54-1.63,3.22,3.45-1.42,7.92-10.77,7.85-16.71-.05-4.26-1.2-7.14-4.02-10.6Z"/>
  <path d="M588.72,211.73c-1.86-4.54-6.21-8.13-10.8-8.98-8.35-1.7-17.37,9.39-16.82,20.35,.19,3.8,.32,3.65,1.1-1.08,2.59-14.81,14.33-19.7,22.92-9.47,3.52,4.21,3.64,13.95,.09,18.73l-2.46,3.39,3.02-3.09c3.29-3.55,5.09-14.84,2.95-19.84Z"/>
  <path d="M588.48,259.39c-1.14-2.27-3.39-4.82-4.93-5.71-3.91-2.23-11.54-1.66-15.12,1.14-3.57,2.95-6.94,10.91-6.88,16.24,.17,2.43,.71,1.66,2.05-2.62,3.21-10.25,9.55-13.84,17.64-10,7.4,3.54,9.5,16.61,3.76,24l-3,4,3.56-3.86c4.66-4.94,6.18-16.99,2.91-23.19Z"/>
  <path d="M581.67,168.59c-2.5-.12-5.09,4.03-3.27,5.22,.7,.45,1.39-.02,1.37-1.39-.01-1.22,.8-2.6,1.77-2.92,.96-.62,1.1-.93,.13-.92Z"/>
  <path d="M579.36,71.03c-.28,0-1.24,1.08-2.19,2.32-.95,1.38-1.08,2.3-.25,2.29,.69-.01,1.65-1.09,2.19-2.32,.4-1.22,.53-2.29,.25-2.29Z"/>
  <path d="M578.59,121.59c-1.1,1.08-1.64,2.31-1.49,2.61,.84,.75,3.45-1.57,3.43-3.1,0-.76-.84-.6-1.94,.49Z"/>
  <path d="M577.81,125.86c-.69,.01-1.38,.78-1.37,1.7,0,.76,.71,1.06,1.4,.59,.83-.47,1.37-1.24,1.37-1.7,0-.3-.56-.6-1.4-.59Z"/>
  <path d="M578.09,215.84c-1.53,.02-1.94,.49-.82,.93,.98,.44,2.22,.27,2.63-.19,.55-.46-.29-.91-1.81-.73Z"/>
  <path d="M578.91,271.4c-1.1,.63-2.07,1.25-2.06,1.55s.98,.59,2.09,.58,2.07-.64,2.06-1.55c0-.76-.98-1.05-2.09-.58Z"/>
  <path d="M577.85,275.99c-1.38,.48-2.06,1.4-1.64,1.85s1.53-.02,2.48-1.1c1.23-1.54,1.09-1.69-.84-.75Z"/>
  <path d="M571.17,36.59c-2.51-1.03-4.19-2.37-3.78-2.99,.41-.77-.04-2.89-1.03-4.86-1.56-3.02-1.98-3.17-2.65-1.03-.54,1.53-.39,2.29,.3,1.82s1.53,.13,2.1,1.34c.43,1.21,.03,2.28-.94,2.3s.44,1.52,2.81,3.16c2.52,1.64,5.17,2.82,6,2.5s-.43-1.36-2.8-2.24Z"/>
  <path d="M570.38,28.99c-1.11,.02-1.66,.63-1.23,1.39s1.4,.89,2.09,.43c1.79-1.4,1.5-1.85-.86-1.81Z"/>
  <path d="M572.41,126.71c-1.1,.63-2.36,.34-3.06-.87-.85-1.36-1.27-1.5-1.25-.29,.04,2.89,2.96,4.07,4.6,1.91,1.23-1.54,1.23-1.69-.29-.76Z"/>
  <path d="M573.85,221.54c-.4,1.07-.25,2.44,.17,2.89,.42,.6,.83-.32,.67-1.99-.02-1.67-.44-2.13-.84-.9Z"/>
  <path d="M574.14,267.67c-.99-1.81-1.82-1.04-3.71,3.4-2.16,5.06-5.75,6.63-4.14,1.58,.4-1.22,.12-1.68-.57-1.21-1.93,1.4-1.61,4.9,.63,5.78,1.95,.88,6.2-3.9,6.44-7.1,.13-.92,.69-.16,1.27,1.96,1.01,3.18,1.15,3.18,1.26,.74-.02-1.67-.46-3.95-1.17-5.16Z"/>
  <path d="M570.7,134.04c-2.8-2.24-5.32-3.73-5.31-2.97,0,.46,1.55,1.8,3.51,3.15,3.64,2.53,4.89,2.36,1.8-.18Z"/>
  <path d="M571.99,216.54c-.7-.45-1.39-.13-1.38,.63,.01,.91,.71,1.66,1.41,1.65,.83-.01,1.38-.32,1.38-.63,0-.46-.57-1.21-1.41-1.65Z"/>
  <path d="M572.58,230.85c-.69,.01-2.22-.27-3.62-.56-1.95-.43-2.22-.12-.95,1.54,.85,1.21,2.52,1.64,3.62,1.16,2.07-.94,2.61-2.02,.95-2.15Z"/>
  <path d="M573,276.06c-.7-.45-1.25,.17-1.23,1.39s.58,2.28,1.28,2.26c.56,0,1.1-.63,1.09-1.39-.01-.91-.58-1.82-1.14-2.27Z"/>
  <path d="M565.35,37.59c-1.82-1.34-3.39-4.82-4-9.08-.9-5.62-1.18-5.92-1.27-1.81-.07,5.94,2.08,11.39,5.72,13.77s3.33,.1-.45-2.89Z"/>
  <path d="M567.27,137.59c-1.95-.88-2.09-.73-.82,.77,.98,1.05,2.1,1.49,2.51,1.03s-.29-1.37-1.69-1.8Z"/>
  <path d="M569.46,225.71c-1.1,.63-2.36,.34-3.06-.87-.85-1.36-1.27-1.5-1.25-.29,.04,2.89,2.96,4.07,4.6,1.91,1.23-1.54,1.23-1.69-.29-.76Z"/>
  <path d="M570.01,281.28c-.71-1.21-1.69-1.8-2.1-1.34-.41,.62,.16,1.82,1.42,2.87,2.39,2.1,2.66,1.64,.68-1.53Z"/>
  <path d="M566.92,176.73c-.7-.45-1.53-.28-1.94,.18-.55,.46-.13,.92,.71,.9s1.26,.89,.86,2.12-.11,2.59,.73,3.03c.7,.6,1.24-.48,1.08-2.3-.16-1.67-.74-3.49-1.44-3.94Z"/>
  <path d="M565.52,74.28c-.28,0-.96,1.08-1.36,2.46-.4,1.22-.26,1.83,.57,1.36,1.38-.93,1.9-3.83,.79-3.82Z"/>
  <path d="M564.27,85.11c-1.12-1.05-2.4-3.31-2.7-5.14q-.59-3.04-.7-.29c-.1,3.2,3.45,9.39,4.68,8,.41-.46-.16-1.67-1.28-2.57Z"/>
  <path d="M563.16,130.65c-1.28-2.57-1.98-3.02-1.96-1.34,.02,1.37,1.01,3.33,2.14,4.38,2.53,2.25,2.52,1.94-.18-3.04Z"/>
  <path d="M542.33,16.46c-2.56-5.14-6.06-7.22-12.02-7.13-8.47,.13-15.02,8.75-14.62,18.79,.19,4.56,.33,4.41,1.09-1.39,1.28-8.85,5.93-14.25,12.45-14.34,10.55-.16,16.36,9.81,11.91,20.38-2.56,6.28-3.52,7.06-10.16,8.68q-4.71,1.14-.68,1.23c10.83,.3,17.86-15.03,12.03-26.21Z"/>
  <path d="M543.49,66.23c-2.7-5.29-7.32-8.27-12.87-8.18-4.44,.07-6.23,1.16-9.92,5.63-6.16,7.25-6.32,16.23-.82,23.46,2.11,2.56,3.94,4.36,4.35,3.89,.27-.31-1-2.27-2.97-4.37-10.41-11.11,1.84-31.09,14.56-23.81,4.75,2.52,6.46,5.84,6.67,12.08,.08,6.85-5.37,15-10.22,15.07-1.8,.03-3.6,.66-4.01,1.43-1.09,1.84,8.46-.73,10.79-2.9,2.74-2.63,6.24-11.51,6.19-15.77-.02-1.83-.89-4.86-1.75-6.52Z"/>
  <path d="M543.67,114.64c-4.01-9.69-14.85-11.05-22.38-2.56-2.74,3.09-4.64,6.77-4.61,8.9,.18,3.19,.31,3.04,1.93-1.25,4.04-10.41,13.44-12.99,20.33-5.63,5.63,6.01,5.72,13.31,.24,19.79-2.19,2.62-3.55,4.77-3,4.76,1.8-.03,6.72-6.8,8.19-11.24,1.88-5.51,1.72-6.88-.71-12.78Z"/>
  <path d="M541.58,159.13c-7.74-8.26-18.39-5.36-22.97,6.12-1.48,3.52-2.55,7.5-2.53,8.72s.96-.62,2.17-4.3c3.33-11.01,13.98-14.37,21.15-6.71,4.36,4.66,4.98,9.82,1.87,16.72-3.24,7.36-2.54,7.95,1.13,1.2,3.94-7.21,3.54-17.1-.82-21.76Z"/>
  <path d="M543.6,210.26c-2.13-4.08-7.31-7.5-11.34-7.6-7.77,.11-16.1,11.2-15.56,21.09,.18,3.04,.46,3.5,.85,1.21,1.83-9.47,3.58-13.3,7.17-15.33,5.79-3.44,9.12-3.03,14.18,1.92,3.65,3.45,4.51,5.41,4.42,9.83-.06,6.4-3.72,13.76-6.37,12.73-.98-.44-1.8,.18-1.79,1.4,.04,3.65,5.4-1.15,8.1-7.28,2.84-6.13,2.89-12.98,.33-17.97Z"/>
  <path d="M543.93,260.04c-1.14-2.27-3.95-5.27-6.19-6.46-5.17-2.82-13.05-.11-17,5.88-2.86,4.46-4.75,20.02-2.51,21.51,.56,.45,.95-1.84,.63-5.03-1.57-14.9,10.4-23.45,20.22-14.61,3.37,3,4.37,5.11,4.42,9.53,.06,5.18-2.5,11.3-5.93,14.4-.96,.78-.68,1.08,.56,.75,2.77-.8,8.17-13.06,8.11-18.09-.16-2.13-1.04-5.62-2.32-7.88Z"/>
  <path d="M538.93,270.93c-.68,.77-.94,2.91-.63,4.88,.45,3.04,.73,2.88,1.23-1.39,.38-3.05,.22-4.42-.6-3.49Z"/>
  <path d="M537.07,266.85c-1.94,.18-2.76,1.56-3,4.16-.09,3.66-.09,3.81,1.4,.89,.81-1.69,2.18-3.53,3-4.16s.27-.92-1.4-.89Z"/>
  <path d="M533.62,19.33c-.7-.6-.97,.47-.53,2.14,.88,3.49,1.85,3.93,1.82,.89-.01-1.22-.59-2.58-1.29-3.03Z"/>
  <path d="M534.53,71.39c-.27,.92-1.09,1.54-1.79,1.09-.56-.45-.82,.77-.25,2.59,.73,3.19,.87,3.18,1.81,.28,.54-1.53,1.07-3.52,1.06-4.43-.15-.76-.42-.6-.83,.47Z"/>
  <path d="M534.7,118.89c-.69,.01-1.37,1.54-1.34,3.52,.03,2.74,.31,2.89,1.4,1.05,1.77-2.92,1.75-4.59-.06-4.57Z"/>
  <path d="M535.15,166.84c-2.24-1.64-2.64-.11-.39,1.99,1.12,1.05,1.96,1.19,1.95,.43s-.72-1.97-1.56-2.41Z"/>
  <path d="M533.67,170.97c-2.11-2.25-4.89-2.21-6.11,.09-.54,1.07-.4,1.22,.7,.6,.83-.62,2.63-.34,3.76,.71,2.53,2.25,3.9,1.01,1.65-1.39Z"/>
  <path d="M530.18,134.94c-3.05,.5-7.09-1.11-6.27-2.34,.27-.31-.58-2.28-2-4.39-1.27-1.96-2.39-2.86-2.38-1.94,.01,1.07,.72,2.27,1.42,2.72,.84,.6,1.13,1.51,.72,2.27-.95,1.69,4.79,6.02,7.98,5.97,1.25-.02,2.63-.65,3.04-1.42,.41-.62-.71-1.06-2.51-.88Z"/>
  <path d="M531.34,138.88c-1.53,.02-1.94,.49-.82,.93,.98,.44,2.22,.27,2.63-.19,.55-.46-.29-.91-1.81-.73Z"/>
  <path d="M529.99,176.21c-1.94,.03-4.03-.55-4.6-1.45-.71-1.06-1.12-.59-1.1,1.08,.02,1.37,.45,2.58,1.14,2.72,5.84,.52,8.19,.34,8.18-1.03-.01-.91-1.68-1.5-3.62-1.32Z"/>
  <path d="M532.14,215.76c-1.95-.88-2.09-.73-.82,.77,.98,1.05,2.1,1.49,2.51,1.03s-.29-1.37-1.69-1.8Z"/>
  <path d="M533.99,275.72c-.69,.01-1.79,.79-2.2,1.56-.41,.92-.26,1.53,.57,1.51,.69-.01,1.8-.64,2.2-1.56,.41-.77,.26-1.53-.57-1.51Z"/>
  <path d="M529.31,87.15c-1.53,.02-1.94,.49-.82,.93,.98,.44,2.22,.27,2.63-.19,.55-.46-.29-.91-1.81-.73Z"/>
  <path d="M529.69,118.05c-1.98-2.71-2.12-2.71-.55,.62,.86,1.81,1.85,3.32,2.12,3.32,1.11-.02,.82-.77-1.58-3.94Z"/>
  <path d="M529.81,183.67c-2.49,.65-4.3,.22-5.85-1.28-1.97-2.25-2.25-2.25-1.94,.33,.16,2.13,1.28,2.72,4.75,2.52,2.36-.03,4.99-.68,5.53-1.45,.55-.62-.56-.75-2.5-.12Z"/>
  <path d="M530.95,265.87c-.7-.45-2.08,.18-3.18,1.42-1.37,1.7-2.34,1.86-3.46,.66s-1.95-.58-3.02,2.48c-.67,2.29-1.32,5.35-1.17,6.72s.83-.01,1.76-3.22c.79-3.21,2.02-5.36,2.44-4.91,.56,.6,.58,2.12,.18,3.5-.4,1.53,.57,1.06,2.34-1.25l3.01-3.85-.65,3.82c-.25,2.14-1.05,5.19-1.44,6.87q-.94,2.91,.56,.3c2.45-4.3,4.02-11.63,2.62-12.52Z"/>
  <path d="M526.48,127.23c-1.8,.03-2.21,.64-1.37,1.54,.98,1.05,1.82,1.04,2.78-.04,.82-.93,.4-1.53-1.41-1.5Z"/>
  <path d="M529.04,223.27c-1.79,1.24-2.68-3.31-1.03-5.16,1.23-1.39,1.09-1.69-.71-.9-1.24,.63-2.6,2.78-3.13,5.07s-1.61,4.59-2.43,5.21c-1.1,.78-.82,1.23,.71,1.21,1.25-.02,2.48-1.56,2.87-3.39q.51-3.51,2.09,.27c.86,2.12,1.57,3.48,1.7,3.02,.93-3.67,.9-5.95-.07-5.33Z"/>
  <path d="M524.66,36.21c-1.81-.73-1.96-1.49-.75-4.25q1.49-3.37-.7-.45c-1.77,2.61-1.76,3.22,.06,5.18,1.13,1.2,2.38,1.79,2.79,1.33s-.15-1.22-1.41-1.81Z"/>
  <path d="M525.5,70.3c-.56,0-1.1,.63-1.09,1.39,.01,.91,.58,1.82,1.14,2.27,.7,.45,1.25-.17,1.23-1.39s-.58-2.28-1.28-2.26Z"/>
  <path d="M525.41,119.94c-1.95-.88-2.09-.73-.82,.77,.98,1.05,2.1,1.49,2.51,1.03s-.29-1.37-1.69-1.8Z"/>
  <path d="M524.01,39.87c-.69,.01-2.66-1.48-4.34-3.29l-2.96-3.46,1.57,3.33c1.85,3.78,7.17,7.51,7.14,4.92,0-.76-.57-1.51-1.41-1.5Z"/>
  <path d="M524.02,232.63c-1.95-.88-2.09-.73-.82,.77,.98,1.05,2.1,1.49,2.51,1.03s-.29-1.37-1.69-1.8Z"/>
  <path d="M524.14,276.63c-.69,.47-1.37,1.7-1.36,2.46,.01,.91,.71,1.06,1.4,.59,.83-.47,1.37-1.7,1.36-2.46-.01-.91-.57-1.06-1.4-.59Z"/>
  <path d="M505.83,265.94c-.81,1.69-.94,2.6-.25,2.14,.55-.46,1.12,.74,1.14,2.72s-.38,3.2-.8,2.9c-.42-.3-.24,3.35,.51,7.91s.94,9.12,.4,10.04c-.55,.77-.25,1.98,.45,2.58,.65,.34,1.48,1.7,2.09,3.28,.81-.07,1.67,.04,2.57,.4,.74,.29,1.45,.61,2.14,.94,.97-.83,2.09-1.28,2.82-.95,.98,.44,3.47,.1,5.68-.69l3.87-1.28-4.86-.23c-2.64-.11-6.39-.36-8.33-.33l-3.47-.25-.56-22.83c-.29-12.48-.58-24.66-.61-26.94-.17-2.43-.89-4.25-1.72-4.24s-1.24,1.08-.67,2.29c1.01,2.88-.33,7.16-1.87,6.12-.16-.1-.34-.15-.52-.16,.03,.57,.03,1.15,.04,1.73,2.26,1.06,3.82,10.71,1.93,14.85Z"/>
  <path d="M520.11,27.45c-.4,1.07-.25,2.44,.17,2.89,.42,.6,.83-.32,.67-1.99-.02-1.67-.44-2.13-.84-.9Z"/>
  <path d="M520.73,77.68c-.4,1.07-.25,2.44,.17,2.89,.42,.6,.83-.32,.67-1.99-.02-1.67-.44-2.13-.84-.9Z"/>
  <path d="M520.04,134.18c-2.24-1.95-2.38-1.79-.55,.62,.99,1.36,2.11,2.56,2.39,2.55,1.11-.02,.4-1.22-1.84-3.17Z"/>
  <path d="M521.52,221.09c-.28,0-.82,1.08-1.36,2.3-.4,1.22-.11,2.29,.58,2.28,.83-.01,1.37-1.09,1.36-2.3s-.31-2.28-.58-2.28Z"/>
  <path d="M504.83,172.77c0,.76,.71,1.06,1.67,.43,.96-.62,1.1-.47,.56,.75-.54,.92-1.65,1.39-2.35,.95-.7-.6-1.25-.13-1.24,.63,.01,.91,.85,1.66,1.82,1.65,.73-.01-.66,2.14-3.26,4.87,.24,.63,.4,1.29,.48,1.99,.61-.36,1.05-.34,1.05,.17,0,.76,.7,.29,1.38-.93,1.09-2,1.36-2,1.39,.28,.02,1.37-1.07,3.37-2.31,4.3-.58,.42-1.01,.74-1.31,.97,0,.12,0,.25,0,.38,.29-.09,.73-.23,1.31-.43,3.45-1.27,2.94,1.94-.65,3.66-.3,.12-.54,.23-.79,.33-.02,.35-.05,.7-.07,1.05,.15,0,.28,0,.46,0,1.81,.13,2.93,1.17,3.09,2.85,.24,2.39-1.72,3.36-4.06,2.64-.06,.54-.12,1.07-.19,1.61,.65,.29,1.29,.43,1.81,.36,1.8-.33,2.23,1.03,2.45,7.27,.05,4.26,.52,8.82,1.09,10.03,.43,1.36-.1,3.35-1.2,4.28-2.19,2.16-2.57,5.37-.51,3.81,2.48-1.71,1.55,1.5-1.46,5.05-.63,.78-1.31,1.43-1.93,1.93,.19,1.2,.37,2.4,.54,3.6,1.18-.44,2.23-1.38,2.39-2.65,.12-1.68,.79-3.36,1.34-3.83,.55-.62,.57,1.21,.19,3.96-.65,3.66-.36,4.88,1.17,4.85,1.8-.03,2.02-5.05,1.66-34.28-.36-29.38-.7-34.25-2.5-34.22-1.11,.02-2.07,.79-2.06,1.71Z"/>
  <path d="M502.66,109.46c-.84-.44-.97,.17-.54,1.38,1.01,2.73,1.98,3.17,1.96,1.04-.01-.91-.58-1.97-1.42-2.42Z"/>
  <path d="M334.29,168.61c-.52-.9-.95-1-.95-.3,0,.55-.22,1.78-.46,2.75,.12-.28,.24-.57,.37-.84,.3-.62,.68-1.11,1.12-1.48-.03-.04-.05-.08-.08-.13Z"/>
  <path d="M251.45,276.93c.43,.11,.86,.31,1.29,.56-.07-.36-.07-.65,.03-.83,.24-.63,2.62,.76,5.13,2.9,3.22,2.77,6.32,4.16,10.37,4.67,3.1,.38,6.2,1.26,6.68,2.02,.72,.88,.83,.76,.6-.38-.36-1.01,1.31-3.53,3.46-5.55,2.15-2.02,3.93-4.54,3.93-5.8,0-1.64-.24-1.64-1.07-.25-.83,1.39-1.19,1.39-1.79,0-.36-1.01-.36-.38,0,1.26,.48,2.02,.36,2.65-.6,2.14-1.91-1.26-1.67-4.54,.48-5.3,.95-.5,1.79-1.77,1.91-2.9,0-1.13,.6-.13,1.19,2.27,.72,2.27,.95,6.81,.72,10.09-.6,7.31,0,8.95,3.22,8.95,4.53,0,5.84,1.89,5.84,8.32,0,3.4,.24,5.04,.48,3.66,1.07-5.55,1.79-6.43,2.74-3.78,.95,2.4,1.07,2.4,1.07,.13,.12-1.89,.48-2.02,1.79-.88,1.31,1.13,1.91,1.13,2.5,0,.72-1.01,1.19-.88,1.91,.25,.72,1.26,1.07,1.39,1.07,.13,0-.76,1.07-1.51,2.38-1.51s2.38,.5,2.38,1.13c0,1.13,5.72,.88,6.8-.38,.36-.38,1.31,.25,2.15,1.39,1.07,1.64,1.67,1.64,2.38,.38,.72-1.13,.48-1.39-.72-.63-1.31,.76-1.43,.63-.12-.76,1.19-1.39,1.79-1.13,3.46,1.39l2.03,3.03,1.55-3.78c.72-2.02,1.43-3.03,1.55-2.14,0,.76,.36,2.52,.72,3.78,.02,.08,.04,.13,.06,.2,.48-.29,.98-.52,1.52-.64,.45-2.35,1.15-2.64,3.31-2.33,1.67,.13,3.46,1.13,4.17,2.02,.83,1.39,.95,1.13,.72-.76-.24-1.64,.24-2.4,1.31-2.14,1.07,.25,1.43-.5,.95-2.14-.36-1.64,.36-2.9,2.27-4.03,1.55-.88,2.86-2.14,2.86-2.9s-.6-.63-1.43,.25c-2.27,2.4-3.58,1.77-2.03-1.13,.72-1.51,.83-2.4,.12-1.89-1.07,.63-2.62-8.45-2.62-15.51,0-3.66,1.07-2.9,1.79,1.26,1.43,7.94,8.58,13.11,18.12,13.11,5.25,0,6.8-.5,9.54-3.53,2.74-2.9,3.34-4.54,3.34-9.71s-.6-6.81-3.82-10.34c-3.22-3.4-4.89-4.03-11.09-4.54-7.27-.5-13.71,1.39-12.4,3.78,.36,.5-.12,1.01-1.19,1.01-.95,0-2.03,.76-2.27,1.51-.36,.88-.72-.13-.72-2.14-.12-2.14,.72-5.42,1.67-7.44,2.5-4.92,2.15-5.8-.83-2.02l-2.5,3.15,.95-3.15c.48-1.77,1.79-3.91,2.86-4.79,1.07-1.01,1.31-1.39,.6-1.01-.83,.38-1.67-.13-2.15-1.13-.36-1.13,0-1.89,1.07-1.89,.95,0,1.79-.5,1.79-1.26,0-.63-.72-.88-1.55-.5-.95,.38-1.55-.76-1.79-3.53-.12-2.27-.48-6.68-.83-9.83-.36-4.79-.24-5.17,.83-2.52,2.27,5.8,2.86,6.81,6.08,9.33,2.03,1.64,5.72,2.65,10.13,3.03,6.44,.5,7.27,.25,11.09-3.4,3.58-3.53,4.05-4.67,4.05-10.09,0-7.19-3.1-11.73-9.66-14-8.58-3.03-16.57-.38-20.98,6.93-2.15,3.4-2.27,3.53-1.55,.63,.36-1.77,.95-4.92,1.31-6.93,.36-2.14,1.19-4.03,1.79-4.16,.6-.25,.83-1.01,.36-1.64-.4-.71,.86-.9,2.25-.68-.21-.58-.34-1.2-.34-1.83,0,0,0,0,0,0,0-.5-1.19-.63-2.62-.25-2.15,.5-2.38,.25-.95-.76,1.43-1.13,1.43-1.39-.36-2.14-1.07-.38-2.03-2.02-2.03-3.4q0-2.52-1.67-.25c-1.31,1.89-2.03,2.14-3.34,.88-1.31-1.13-2.03-1.13-3.1,0-2.03,2.14-2.98,.38-1.43-2.77,1.31-2.52,1.19-2.65-1.43-1.89-1.43,.5-3.22,1.51-3.93,2.27-.83,.88-.48,1.01,.95,.5,1.91-.76,2.74,.38,1.31,2.02-1.07,1.13-4.05-.5-4.05-2.27,0-1.01,1.43-2.9,3.1-4.29,.14-.12,.26-.22,.39-.33-1.16,.07-2.13,.31-2.79,.77-.13,.43-.49,1.03-1.06,1.7-.04,.04-.07,.08-.1,.12-.28,.54-.61,1.02-.97,1.45-.34,.73-.4,1.36-.12,1.59,.36,.5,.24,1.01-.36,1.01-5.01,.76-7.15,.63-7.75-.5-.48-.63-1.79-.88-2.98-.25-1.31,.5-5.96,1.13-10.61,1.39-4.45,.25-10.15,.62-12.62,.99-.24,1.32-.44,2.66-.57,4,.3-.21,.61-.37,.91-.45,1.43-.25,2.03,1.26,2.74,7.19,.48,4.16,.36,10.09-.12,12.99-.48,3.03-.83,5.93-.72,6.43,.12,.5,.24,14.63,.24,31.39,0,27.36-.48,35.05-2.03,30.26-.36-.76-.95-1.26-1.43-.88-.6,.25-.6-1.64-.12-4.41,.48-3.03,.36-5.04-.24-5.04-.72,0-.95-1.26-.6-2.9,.83-4.03-5.01-14.88-9.54-17.65-5.84-3.53-13.23-3.78-17.41-.63-3.82,2.9-9.3,14.12-5.72,11.85,1.31-.88,.12,5.67-1.31,7.69-.09,.11-.17,.25-.24,.4Zm108.38-17.68c1.67,0,4.65,.88,6.56,1.89,3.82,2.14,5.13,5.55,4.53,11.98-.36,4.41-4.05,8.2-9.3,9.46-3.22,.76-12.64-4.29-9.78-5.3,.72-.38,1.43-1.51,1.31-2.65,0-1.39-.24-1.51-.72-.5-.95,2.65-2.74,.38-2.74-3.66,0-4.92,5.72-11.22,10.13-11.22Zm-13.95,7.82c.6-1.13,.95-2.77,.6-3.53-.24-.76,.83-2.02,2.27-2.77,3.82-1.89,3.93-1.77,1.91,.63-1.07,1.26-2.27,3.53-2.62,5.04-.48,1.64-1.43,2.9-2.03,2.9-.72,0-.72-.88-.12-2.27Zm.12,3.53c.6,0,1.31,1.13,1.67,2.65,.48,2.02,.36,2.27-1.07,1.01-1.91-1.64-2.27-3.66-.6-3.66Zm5.37-59.13c1.31-.13,2.03,.25,1.55,.63-.36,.38-1.43,.5-2.27,.13-.95-.38-.6-.76,.72-.76Zm1.79,3.66c4.65-5.04,10.97-5.17,15.02-.5,1.67,1.89,2.98,4.03,3.1,4.79,.83,8.57-3.1,14.63-9.78,15.26-4.41,.38-8.94-2.14-7.63-4.29,.48-.88-.12-1.01-1.43-.5-1.91,.76-1.91,.63-.48-1.26,1.31-1.77,2.03-1.89,3.34-.76,2.27,2.14,3.93,.13,4.53-5.93,.6-5.17,.12-4.66-1.07,1.01-.95,4.29-4.29,4.79-4.29,.63,0-2.27,.24-2.4,1.19-.88,.6,1.01,1.19,1.64,1.31,1.26,0-.38,.24-1.89,.6-3.53,.36-2.52,.24-2.65-1.91-1.26-1.19,.88-2.38,2.9-2.62,4.66-.6,4.79-2.86,4.41-3.1-.5-.24-3.53,.48-5.3,3.22-8.2Zm-6.68,.88c.48,.25,.83-.13,.83-.88s.6-1.01,1.19-.63c.83,.5,.83,1.51,0,3.15-1.55,3.03-1.55,8.32,.12,11.73q1.19,2.65-.6,.38c-1.07-1.39-2.03-3.53-2.03-4.79-.48-7.19-.36-9.58,.48-8.95Zm-21.82,83.59c-.6,0-1.19-.63-1.19-1.26,0-.76,.6-1.26,1.19-1.26,.72,0,1.19,.5,1.19,1.26,0,.63-.48,1.26-1.19,1.26Zm-31-102.13l22.65,.25,22.77,.38-.12,47.79c0,26.35-.24,48.04-.36,48.16-.36,.38-22.65,.76-36.84,.63l-8.11-.13v-97.08Zm-28.02,83.59c-2.74-1.39-4.05-2.77-3.7-4.03,.36-1.13,1.07-3.78,1.55-5.8l.95-3.78,.36,3.78c.24,2.02,.95,4.54,1.67,5.3,.72,1.01,2.38,1.26,4.41,.76,2.86-.76,2.98-.76,.95,1.39-1.07,1.26-2.03,2.77-2.03,3.4s-1.91,.13-4.17-1.01Zm1.79-7.94c.48,0,1.31-1.64,1.79-3.66,.48-2.52,1.31-3.53,2.5-3.03,.95,.38,1.67,1.13,1.67,1.77s-.83,1.51-1.79,1.89c-.95,.5-1.79,2.14-1.79,3.78,0,3.4-1.79,4.03-2.86,1.13-.36-1.01-.12-1.89,.48-1.89Zm-7.39-14.25c1.91-2.27,3.82-2.27,11.56-.25,4.05,1.01,7.75,3.4,7.75,4.92,0,1.26-.72,1.64-2.03,1.13-1.79-.63-1.91-.38-.72,.88,1.19,1.39,1.79,1.39,3.34,0,1.43-1.26,1.79-1.26,1.79,.13,0,1.01-.6,2.65-1.19,3.66-1.07,1.64-1.19,1.64-1.31,0,0-1.01-.83,.13-1.67,2.52-2.27,6.18-2.15,7.56,.36,6.68,1.55-.5,1.55-.25-.36,1.13-3.7,2.77-6.91,3.78-6.2,2.02,.24-.88,1.19-1.51,1.91-1.39,1.91,.5,1.67-2.77-.48-4.67-.95-.88-1.79-2.27-1.79-3.03s.48-.63,1.07,.38c.72,1.26,1.31,.63,1.91-2.27,.6-3.15,.36-4.54-1.43-5.8-2.98-2.4-3.34-2.27-3.58,.76-.12,1.51-.83,3.4-1.67,4.16-1.07,1.01-1.31,.76-.83-1.13s-.12-2.52-2.15-2.65c-1.55-.13-2.5,.38-2.15,1.26,.24,.76,0,3.03-.48,5.17l-.95,3.78-.83-4.16c-.95-4.79,1.43-10.84,4.65-12.1,1.07-.5,1.67-1.13,1.31-1.51-1.19-1.39-5.25,1.89-6.68,5.42-2.15,5.67-2.27,9.58-.36,12.99l1.67,3.15-2.5-3.03c-3.93-4.67-3.1-11.85,2.03-18.16Z"/>
  <path d="M286.92,206.56c.15-2.78,.15-4.03-.03-4.31-.09,1.45-.09,2.89,.03,4.31Z"/>
  <path d="M306.77,207.3c-5.25,2.65-8.82,9.96-7.75,15.26,2.5,12.23,17.64,18.41,27.42,11.35,2.27-1.64,4.17-3.53,4.17-4.16s-.83-.38-1.79,.5c-1.19,1.13-1.79,1.13-1.79,.13,0-.76-.6-1.39-1.31-1.39-.95,0-.95,.5,0,1.77,3.7,4.67-11.56,6.43-16.93,2.02-9.78-8.2-4.53-25.22,7.75-25.22,5.48,0,9.78,2.02,8.58,4.03-.48,.76-.36,1.01,.48,.5,.72-.38,2.38,.76,3.7,2.52,1.43,1.89,2.5,2.9,2.5,2.4,0-3.28-6.32-9.2-11.21-10.59-7.15-1.89-8.94-1.77-13.83,.88Z"/>
  <path d="M312.85,212.22c-.12,.88-1.19,2.77-2.5,4.16-1.43,1.51-2.38,4.03-2.27,6.56q.12,4.16,1.19-.88c1.55-6.93,5.84-9.83,4.89-3.28-.36,2.52,.12,3.78,1.55,4.41,2.62,1.01,4.17-.13,4.05-2.77-.12-1.89-.24-1.89-.72,0-.24,1.26-1.07,2.27-1.79,2.27s-.95-1.13-.6-2.52,.12-2.14-.48-1.77c-.72,.38-.95-.76-.6-2.52,.36-1.89,.12-3.03-.48-2.65-.48,.38-1.31-.13-1.55-.88-.48-1.26-.72-1.26-.72-.13Z"/>
  <path d="M318.7,216.38c0,.63,.83,.88,1.79,.5,.95-.5,1.79-1.01,1.79-1.26s-.83-.5-1.79-.5-1.79,.5-1.79,1.26Z"/>
  <path d="M324.18,216.25c-.48,.63,.36,.88,1.67,.5,2.74-.76,3.1-1.64,.72-1.64-.95,0-2.03,.5-2.38,1.13Z"/>
  <path d="M311.06,220.92c-.48,1.77-.6,3.53-.36,3.91,.36,.25,.95-1.01,1.31-2.9,.48-1.77,.6-3.53,.36-3.91-.36-.25-.95,1.01-1.31,2.9Z"/>
  <path d="M324.78,221.55c-1.55,4.92-1.67,7.19-.24,5.42,1.07-1.13,2.74-9.33,2.03-9.33-.24,0-1.07,1.77-1.79,3.91Z"/>
  <path d="M332.05,221.42c0,1.77,.24,2.4,.6,1.51,.24-.76,.24-2.27,0-3.15-.36-.76-.6-.13-.6,1.64Z"/>
  <path d="M327.99,224.58c-.36,1.77-.24,3.15,.24,3.15s1.19-1.39,1.43-3.15c.36-1.77,.24-3.15-.24-3.15s-1.19,1.39-1.43,3.15Z"/>
  <path d="M319.89,225.33c0,.63,.6,.88,1.19,.5,.72-.38,1.19-1.01,1.19-1.39,0-.25-.48-.5-1.19-.5-.6,0-1.19,.63-1.19,1.39Z"/>
  <path d="M307.13,256.1c-4.41,2.02-8.7,8.57-8.7,13.24,0,4.41,4.05,10.97,8.58,13.74,4.89,3.28,12.16,4.54,14.9,2.65q1.91-1.26-.48-.63c-3.82,1.13-11.45-1.39-14.55-4.79-5.37-6.05-4.05-16.64,2.5-21.56,6.2-4.67,17.41-.63,20.63,7.19,.95,2.14,1.67,3.15,1.79,2.02,.12-5.3-10.73-13.74-17.53-13.74-1.79,.13-5.13,.88-7.15,1.89Z"/>
  <path d="M307.97,268.83c-.72,1.77-1.19,4.41-1.07,5.93,.12,1.64,.6,.76,1.31-2.27,.72-2.77,1.91-5.42,2.62-5.93,.95-.63,.83-1.01-.24-1.01-.83,0-2.03,1.51-2.62,3.28Z"/>
  <path d="M315.71,268.96c-.6,2.52-1.07,2.9-1.79,1.77-.6-1.13-.95-.13-.95,2.77,0,3.66,.36,4.29,1.43,3.03,.83-.88,1.91-3.66,2.38-6.3,.95-5.42,.24-6.3-1.07-1.26Z"/>
  <path d="M320.72,268.2c-1.19,1.39-1.91,3.4-1.55,4.41s.24,1.64-.36,1.26-1.31,.38-1.67,1.64c-.36,1.89,0,2.4,1.67,2.27,1.43-.13,2.27-1.13,2.27-2.77,0-4.54,1.43-8.2,3.1-8.2,1.91,0,2.27,3.4,.48,4.03-.72,.25-.83,1.89-.24,4.03,.83,3.28,.95,3.15,2.15-2.9,1.19-6.05,1.07-6.43-1.31-6.43-1.31,0-3.46,1.13-4.53,2.65Z"/>
  <path d="M310.59,270.6c0,1.77,.24,2.4,.6,1.51,.24-.76,.24-2.27,0-3.15-.36-.76-.6-.13-.6,1.64Z"/>
  <path d="M331.93,272.61c0,1.39,.36,1.77,.72,.76,.36-.88,.24-2.02-.12-2.4-.36-.5-.72,.25-.6,1.64Z"/>
  <path d="M328.23,274.25c0,1.39-.95,3.53-2.03,4.67-2.03,2.14-2.03,2.27,0,1.39,1.07-.38,2.03-.25,2.03,.38s-.95,1.77-2.03,2.4c-1.19,.76-1.55,1.39-.83,1.39s2.15-1.01,3.22-2.27c2.27-2.52,2.74-4.67,.83-3.4-.72,.5-.83-.76-.48-3.15,.48-2.02,.48-3.78,0-3.78-.36,0-.72,1.13-.72,2.4Z"/>
  <path d="M336.22,192.05c-.48,.38-.83,1.39-.83,2.14s.6,.63,1.43-.25c.72-.76,1.07-1.77,.83-2.14-.36-.38-1.07-.25-1.43,.25Z"/>
  <path d="M118.45,261.12c.9,.11,1.71,.71,1.71,1.44,0,.61-.6,.85-1.2,.37-.91-.72-.9-.36,0,1.09,.81,1.08,1.12,2.53,.72,3.26-.3,.61-.09,1.21,.41,1.21,.6,0,1.1,.6,1.11,1.32,0,.73-.69,1.1-1.5,.62-1.3-.47-1.4-.23-.49,1.7,.61,1.33,1.31,2.41,1.62,2.41,.3,0,.2-.49-.11-1.21-.3-.6,0-.85,.8-.49,1.61,.71,1.23,4.83-.57,6.18-.01,0-.02,0-.03,.01-.01,.4-.05,.79-.13,1.17,.04,.06,.07,.13,.1,.19,.39-.09,.77-.16,1.06-.17,.7,0,1-.37,.8-.85-.2-.36,.09-1.45,.59-2.43,.69-1.46,.79-1.22,.61,.84-.19,1.45-.58,3.15-.98,3.52-.22,.27-.4,.69-.53,1.14,.26,.28,.54,.53,.83,.76,1.17-1.34,4.87,.39,5.73,2.89,.31,1.09,1.72,3.38,3.13,5.18,1.41,1.68,2.22,2.28,1.81,1.32-.41-.97-.1-.85,.7,.36,1.82,2.53,8.75,7.31,9.45,6.34,.3-.24,2.4,.22,4.61,1.29,3.61,1.54,5.62,2.26,7.72,2.6,.09,.04,.1,.12,.06,.24,.39-.13,.78-.2,1.17-.21,.01-.13,.03-.26,.07-.41,.39-1.33-.71-2.17-4.62-3.11-11.33-2.69-20.08-9.65-25.94-20.49-2.73-5.18-5.9-16.42-6.02-21.26,0-1.21,4.4-1.61,18.51-1.72l18.52-.15,.12,21.67c.09,17.28,.39,23.65,1.37,24.81,.42-.49,.77-1.07,1.08-1.71h-.32s-.13-23.73-.13-23.73c-.06-10.85,.1-19.89,.45-22.41-.11-.18-.22-.38-.33-.58,.26,.52-.66-.27-.82-.27-.37,0-.74-.09-1.1-.21l-37.37,.3v-.44c-.14,.14-.29,.27-.44,.39,.83,1.01,.42,2.47-1.05,2.48-1.8,.01-1.99,2.44-.19,2.54,.6,0,.3,.48-.79,1.1-1.7,.86-1.7,1.1-.19,1.09Z"/>
  <path d="M37,287.9c.97,.69,1.18,3.06,.71,4.75,.5,.04,1,.15,1.49,.34,.02-.03,.04-.06,.06-.09,1.72-2.2,1.83-2.2,1.97,.07,.02,1.26,.34,1.64,.64,.74,.48-1.91,3.38-2.37,3.41-.6,.02,1.14,3.99,2.93,5.65,2.63,.52-.14,.63,.62,.34,1.76-.11,.34-.16,.62-.18,.86,.52,.12,1,.26,1.45,.44,.25-.22,.52-.48,.81-.85,.71-.9,1.24-.54,1.68,1.22,.1,.46,.12,.89,.09,1.27,.37,.31,.75,.65,1.15,1.03,.06,.06,.11,.13,.17,.19,.15-.55,.38-1.1,.68-1.54,1.21-2.18,1.41-2.19,3.53-.09,.75,.82,1.24,1.5,1.47,2.15,.32-.02,.62-.03,.89-.05,.4-.02,.8-.06,1.2-.1,0-.07-.01-.13,0-.2-.03-1.69,.17-1.64,.84,.11,.44-.05,.88-.09,1.32-.12,.1-.15,.23-.16,.35-.02,1.06-.06,2.12-.03,3.19,.24,.06,.02,.13,.05,.19,.07,.23-.04,.48-.07,.74-.08,1.45-.04,2.6,.18,2.6,.44,0,.29-.24,.69-.62,1.12,.61,.36,1.21,.66,1.8,.75,.03-.67,.2-.63,.5,.08,.55,.08,1.1,.27,1.64,.56,.17-.17,.34-.35,.55-.59,.91-1.29,2.77-1.84,5.05-1.65,1.28,.2,2.35,.12,2.98-.18-.95-3.87-.07-7.93,1.41-11.53-.02-.32-.02-.65-.03-.97-.77,.84-1.24,2.2-1.6,4.39l-.75,4.7-.72-5.67c-.73-6.05-.24-13.4,.65-10.14,.56,2.06,1.4,3.45,2.33,4-.01-.65,0-1.3,0-1.95-.2-1.98-.38-6.36-.79-15.12-.5-10.61-.62-11.24-3.9-14.95-2.54-2.72-3.08-4.09-2.16-4.75,.15-.11,.28-.28,.39-.47-.32-1.19-.4-2.51-.26-3.73,.15-1.34,.03-2.81-.23-4.34-.03,.18-.05,.44-.04,.83,.02,1.26-.39,1.4-1.34,.42-.95-.99-1.26-.6-1.21,1.68,.03,1.64,.26,2.9,.57,2.77,1.54-.67,.67,2.39-.88,3.19-2.06,.94-5.1-.75-3.98-2.3,.51-.52,1.24-.16,1.78,.84,.86,1.62,1.06,1.49,1.03-.28-.02-1.26-.56-2.26-1.18-2.25-.83,.02-.84-.61,.07-1.9,.71-1.03,.9-1.92,.48-1.91-.41,.01-.12-1.01,.58-2.17,1.31-2.06,1.21-2.18-.32-.5-1.02,.91-1.62,2.07-1.41,2.57,.21,.37-.68,2.55-2.1,4.61-1.62,2.45-2.74,3.36-3.07,2.36-.22-.88-2-1.72-3.76-1.67-2.08-.07-2.6-.31-1.26-.73,7.95-2.36,10.67-6.36,11.02-16.23,.01-.37,.03-.74,.05-1.11-1.66-1.07-2.92-3.16-2.94-5.51,0-.01,0-.02,0-.04-.92-.89-2.13-1.93-3.4-2.91-5.05-4.04-10.25-4.66-13.62-1.53-1.23,1.04-2.46,1.58-2.88,1.34-.32-.37-.42-.24-.1,.26,.32,.37-.07,1.65-.78,2.8-.6,1.03,.11,.63,1.75-.93,1.84-1.69,4.41-2.9,6.69-2.96,4.04-.11,8.87,2.93,7.97,4.97-.4,.64-.19,1.14,.33,1.13s1.26,1.1,1.6,2.49c.34,1.51,.14,2.27-.49,1.78-.74-.61-.93,.28-.37,2.54,.46,2.26,.37,3.15-.37,2.67-.53-.37-1.19-2.62-1.23-4.77l-.18-4.04-.66,3.81c-.47,2.54-.24,4.18,.71,4.79,.73,.49,1.38,1.48,1.39,2.24,.01,.63-.92,.53-2.08-.32-1.68-1.22-2.3-1.2-3.32,.21-1.12,1.29-.91,1.54,.75,1.24,1.14-.28,2.59-.07,3.33,.42,2.21,1.59,4.68-4.93,3.96-10.35-.48-3.91-.49-4.16,.48-1.91,1.84,4.25,.31,11.25-2.96,14.37-3.37,3-5.64,3.69-2.58,.7,1.73-1.69,1.42-1.81-3.34-.92-3.21,.46-6.12,.29-7.48-.56-2.41-1.45-3.18-3.84-1.21-3.89,.52-.01,.74,.61,.44,1.25-.4,.77,.64,1.25,2.2,1.21,2.8-.07,2.8-.2,.8-1.92-1.06-.98-3.04-1.82-4.18-1.79-2.28,.06-4.34-4.94-3.14-7.51,.4-.77,.08-1.27-.64-1.25-.73,.02-1.04-.35-.64-.74,.3-.39,.06-2.4-.6-4.41-.88-2.76-.8-4.28,.21-5.82s1-1.92,.08-1.14c-.61,.52-1.24,.41-1.25-.09-.01-.63-1.07-1.62-2.43-2.21-1.36-.72-2.32-2.34-2.35-3.98-.02-1.39-.47-3.15-1-3.77-.02-.02-.03-.02-.05-.03-.08,.07-.15,.16-.23,.22-.25,.8-.21,3.56,.1,7.4,1.73,21.33,16.26,39.28,33.52,41.35l5.3,.62,.83,46.27-3.95-.53c-16.95-2.21-27.71-6.6-39.6-16.15-4.31-3.43-10.02-9.09-12.57-12.57-10.41-13.64-18.45-34.04-19.66-49.57-.39-4.54-1.1-9.08-1.64-10.33-.75-1.5-.55-1.88,.91-1.54,1.2,.38,1.61-.07,1.68-2.85-2.06,.22-3.63,.54-4.77,1.76,.05,.13,.1,.26,.17,.4,1.4,3.12,1.55,11.34,.1,11.38-.52,.01-.84-.48-.44-1.13,.27-.69-.15-1.57-.93-2.18,.11,.45,.19,.92,.24,1.43,.12,1.23,.32,2.45,.47,3.68,.02,0,.04,0,.07,0,2.17-.44,2.9-.33,1.88,.46-1.12,1.04-1.12,1.29,.03,1.9,1.15,.48,1.15,.73,.12,.76-.93,.15-1.02,.79-.27,2.54,.64,1.25,.77,2.64,.47,3.15-.3,.39-.19,.76,.43,.75,.62-.02,.97,2,.71,4.66-.24,3.93-.13,4.3,1.19,3,1.22-1.3,1.54-.67,2.24,3.61,.46,2.77,1.33,5.02,1.96,5.01,.83-.02,.94,.35,.12,1.01-.61,.52-1.42,2.06-1.81,3.46-.08,.3-.16,.55-.25,.76,.47,.54,.83,1.17,1.08,1.87,.12,0,.23-.01,.37,0,1.87-.05,2.07-.43,1.2-2.31-.54-1.25-.77-2.26-.56-2.26,1.24-.03,3.76,7.49,3.28,9.27-.29,1.15-.17,2.03,.45,2.01,.62-.02,1.33-.79,1.53-1.56,.39-1.15,.6-1.03,.63,.24,.14,2.02-3.71,7.06-5.37,7.1-.52,.01-1.32,1.55-1.7,3.59-.25,1.22-.28,2.11-.07,2.7,.65,.18,1.28,.51,1.84,.96,.48,0,1.03-.07,1.71-.22,.72-.15,1.33,4.64,1.31,9.58-.09,.89,.33,1.26,.85,.99,.41-.39,1.35,.34,1.9,1.72,.31,.66,1.13,1.45,2.21,2.21,.59,.11,1.16,.34,1.66,.73,.37,.29,.74,.57,1.11,.85,.47,.22,.94,.42,1.42,.6,4.28,1.66,5.84,1.62,8.93,.39,1.95-.94,3.9-2.38,4.19-3.4,.29-1.02,.91-1.42,1.43-1.05Zm46.4-21.35c.52,.24,.79,3.77,.86,7.69,.04,7.84-.5,6.72-1.19-2.5-.26-3.16-.1-5.56,.32-5.19Zm-21.32-20.56c-.62,.02-1.04-.23-1.05-.48,0-.38,.4-1.02,1.01-1.42,.51-.39,1.03-.15,1.05,.48,.01,.76-.49,1.4-1.01,1.42Zm-47.08,35.53c-1.73-3.75-1.35-5.91,.57-3.18,1.49,2.24,1.6,2.23,.41-.52-.65-1.63-1-3.64-.81-4.53,.69-2.3-.92-5.29-1.82-3.37-.4,.77-.29,1.4,.34,1.38,.62-.02,.84,.74,.55,1.76-.59,1.91-4.54,1.39-4.58-.64-.01-.63,.61-.78,1.24-.29,.84,.61,.73-.02-.23-1.39-.85-1.24-1.07-2-.34-1.51,.73,.49,2.38-.57,3.79-2.63,2.13-2.84,2.85-3.24,3.91-2,1.06,1.24,1.07,1.87-.16,2.79-.82,.65-1.85,.81-2.27,.57-.42-.37-.51,.27-.18,1.27,.55,1.76,.86,1.75,3.01-.08,2.15-1.83,2.35-1.83,2.18-.06-.08,1.14-.58,2.42-1.09,2.94-.41,.52-.51,.27-.11-.5,1-2.3-.97-2-2.48,.32-.71,1.03-.8,1.92-.28,1.9,.52-.01,1.08,2.25,1.23,5.03,.3,5.43-1.02,6.6-2.86,2.73Zm8.44,7.87c-1.98-.45-4.39-1.65-5.23-2.64-.85-1.12-.96-1.62-.33-1.13,.94,.61,1.34-.42,1.28-3.7-.09-4.93,1.39-9.52,3.04-9.57,.52-.01,.34,1.64-.55,3.81-1.89,4.6-1.88,5.24-.03,4.3,.82-.4,1.32-1.43,1-2.3-.33-.88,.27-2.41,1.18-3.45,1.63-1.69,1.74-1.56,1.17,1.36-.38,1.78-.65,4.06-.63,5.33,.03,1.52-.59,1.91-2.36,1.45-1.67-.34-1.87-.2-.92,.66,.84,.61,1.38,1.61,1.28,2.24-.09,.63,.44,1.25,1.27,1.48,1.15,.35,1.15,.22-.01-.76-1.16-.85-1.16-1.23,.17-1.9,.92-.53,1.62-2.19,1.59-3.96-.03-1.77,.35-3.42,.87-3.82,1.02-.91,2.22,2.09,2.17,5.25-.08,1.27-.4,.9-.95-.99-.78-2.76-.88-2.89-.94-.48-.08,1.52,.79,3.52,1.74,4.38,1.16,1.23,1.47,1.23,.94,.23-.43-1-.24-1.64,.39-1.65,.62-.02,.82-.78,.39-1.53-.54-1.25-.44-1.25,.62-.14,1.17,1.36,.97,2.12-1.05,4.96-2.03,2.71-2.95,3.11-6.07,2.56Zm10.53-2.68c-.73-.49-1.25-.09-1.22,1.17,.02,1.14-.49,1.66-1.01,1.29-.63-.36-1.04-.1-1.02,.79,.02,.88-.29,1.15-.71,.65-.42-.37,.17-2.03,1.39-3.45,1.52-2.06,2.24-2.34,2.89-1.09,.54,1,.44,1.25-.3,.64Z"/>
  <path d="M38.29,206.4c-.26,0-.51,0-.77-.01-.28,.48-.68,.65-1.24,.71-1.03,.15-1.87-.2-1.88-.96,0-.06,.01-.11,.02-.17-.46-.13-.92-.28-1.36-.48-.2,.35-.25,.72-.1,1.06,.43,.75-.09,1.01-1.44,.54-4.8-1.77-6.46-1.6-7.46,.45-.6,1.41-.91,1.54-1.03,.53-.02-1.14-.75-1.37-2.09-.83-1.24,.54-2.07,.31-2.09-.58-.01-.76-.54-1-1.36-.47-.47,.43-.58,.29-.36-.24-1.27,.22-2.54,.44-3.81,.63-.28,.85-1.14,1-2.66,.93-2.08-.07-3.21,.46-3.19,1.6,.02,1.26,3.35,1.56,16.1,1.22l16.07-.43-.07-3.77c-.41,.15-.84,.25-1.29,.26Z"/>
  <path d="M236.35,269.08c-1.03,.83-1.79,2.07-1.69,2.58,.19,.52-.19,.93-.75,.93s-.75-.93-.37-2.07c.38-1.35,.19-2.07-.65-2.18-.94,0-.94-.21-.09-.62,.66-.21,1.22-.93,1.22-1.45,0-.62-.37-.83-.75-.52-.47,.31-.84-.11-.84-.93,0-2.28,1.41-1.86,2.06,.52,.28,1.14,1.31,2.07,2.15,2.08,.23,.02,.4,.04,.55,.07-.08-.38-.16-.75-.24-1.13-.99-.08-1.02-.38-.31-.91,.03-.02,.05-.04,.08-.06-.1-.42-.19-.84-.29-1.25-.13-.05-.28-.09-.44-.14-1.41-.42-1.78-1.04-1.4-2.28,.38-1.03,.1-2.17-.65-2.69-.75-.42-1.31-1.35-1.31-1.87,0-1.55-3.55-4.77-5.15-4.78-.75,0-1.88,.41-2.44,.72-.56,.41-1.31,.41-1.69,.1-.94-1.14-3.37-1.25-3.38-.22,0,.52-.47,.93-1.03,.93-.47,0-.66-.52-.28-1.24,.38-.62,.28-.83-.37-.42-2.16,1.44-1.87-1.35,.29-2.9,4.6-3.3,6.87-12.1,4.54-17.39-.65-1.45-2.24-3.63-3.55-4.77-1.48-1.31-1.89-1.91-1.45-2.36-.86-.13-1.73-.24-2.6-.33-.54,.17-1.16,.31-1.86,.4-5.35,.92-8.83,3.91-10.43,9.19-1.7,5.9-.68,11.08,2.88,14.82,2.25,2.28,3.65,3.01,6,2.71,1.78-.1,3.66,.32,4.31,1.05q1.22,1.35-4.6,1.54c-2.06,.1-3.66-.11-3.38-.63,.19-.41-.28-.73-1.22-.73-.84,0-2.16-.83-2.9-1.87q-1.22-1.56-.38,.52c.56,1.24,1.5,2.49,2.15,2.7,.75,.42,.66,.62-.38,.62-.84,.1-2.16-.63-3-1.46-1.68-1.97-2.81-1.98-2.16-.21,.28,.93-.38,1.45-2.16,1.44-2.25,0-2.53-.32-1.87-2.18,.47-1.45,1.41-2.07,2.72-1.96,1.69,.21,1.88,0,1.13-1.45-.47-.93-.46-2.69-.09-3.94,.57-1.76,.38-2.17-1.03-2.28-1.22-.11-1.6,.2-1.13,1.03,1.12,1.97,.93,4.87-.29,4.87-.56,0-1.69,1.55-2.26,3.31l-1.13,3.41-.84-2.59c-.75-2.49-.75-2.38-.47,.41,.46,3.73-.29,6.01-1.51,5.17-.47-.31-.28,.72,.56,2.38,1.03,2.28,1.12,4.04,.55,7.04-.57,2.79-.48,4.56,.27,5.59,.84,1.24,.84,1.35,0,.72-.84-.52-1.03-.21-.57,1.03,.47,1.35,.28,1.66-.94,1.14-.84-.31-1.59-.21-1.6,.31,0,.62,.65,1.04,1.4,1.04,1.03,0,1.41,.94,1.21,2.9-.1,1.55,.09,3.31,.37,3.94,.37,.52,.28,1.66-.19,2.48-.5,.94-.95,1.16-1.99,.67,.1,.46,.19,.92,.29,1.38,1.13,0,1.8,1.99,2.25,6.23,.37,3.42,.92,6.42,1.2,6.73,1.12,.73,8.54-.7,7.98-1.64-.56-1.04,4.13-2.47,5.07-1.54,.28,.41-.38,.93-1.5,1.34-2.44,.61-2.63,1.65-.66,3.42,1.22,1.14,1.31,1.04,.84-.31-.47-1.45,.38-1.66,5.63-1.44,3.38,.11,6.19-.09,6.19-.4s1.13-.51,2.53-.41c1.5,.11,1.88,0,.94-.2-2.81-.84-1.68-2.18,1.69-2.07,2.53,.11,3,.42,2.15,1.46-.75,1.03-.57,1.34,1.03,1.35,1.03,0,1.97-.41,1.97-.82,0-.52,1.22-2.38,2.73-4.24,1.5-1.86,2.54-4.03,2.36-4.65-.28-.73,.19-1.35,.94-1.34,.88,0,1.06,.33,.48,1.85,.47-.78,.92-1.57,1.34-2.38,.13-.25,.24-.51,.37-.76-.09-.03-.19-.04-.31-.04-1.5,0-1.78-2.18-.37-3.94,.66-.83,.66-.93-.09-.31-1.69,1.55-3.94,.2-2.62-1.56,.56-.83,.85-2.07,.57-2.9-.28-.73,0-1.97,.57-2.59,.75-.83,.66-1.14-.37-1.14-.84,0-1.5-.73-1.5-1.56s.38-1.24,.75-1.03c.84,.62,2.82-2.06,2.07-2.89-.28-.41,0-.72,.75-.72,.47,0,1.1-.37,1.66-.93-.09-.47-.2-.94-.29-1.41-.21,.22-.53,.5-.99,.89Zm-29.02-25.55c.28,.52,.37,1.04,.09,1.04s-1.12-1.25-1.87-2.9c-1.77-3.42-1.95-7.88-.36-6.84,.75,.52,.84,.21,.47-.93-.37-1.14,.29-2.8,1.7-4.45l2.35-2.79v4.45c-.02,3.52-.3,4.25-1.52,3.72-1.12-.52-1.41,0-1.13,2.17,.18,2.28,.84,2.9,2.81,3.11,1.41,.11,4.03,.63,5.81,1.26,2.91,.84,3.56,.73,4.32-.92,2.07-4.34-.44-12.74-3.63-11.61-.75,.31-1.03,0-.66-.62,.38-.72-.47-.93-2.25-.63-1.6,.31-2.81,.1-2.81-.53,0-1.55,5.91-1.43,7.69,.12,4.87,4.47,5.7,10.47,2.12,15.12-1.79,2.38-3.1,3.1-6.01,3.09-2.16,0-4.22-.53-4.87-1.46-1.22-1.66-3.19-1.98-2.25-.42Zm5.82-3.82c-1.41-.31-2.53-1.04-2.53-1.56,0-.62,.66-.83,1.41-.41,.75,.31,1.41,.11,1.41-.41,0-.62,.75-1.03,1.6-1.03,1.41,0,1.5-.2,.28-1.03s-1.22-1.04,.19-1.04c.84,0,1.78,.52,1.97,1.04,.28,.62,.37,.52,.28-.21-.09-.73-1.78-1.77-3.65-2.29-3.75-1.05-4.59-3.22-1.59-4.04,1.03-.31,1.88-.1,1.88,.32,0,.52,.94,1.04,1.97,1.25,3.19,.53,4.02,4.46,1.48,7.46-1.6,1.96-2.63,2.48-4.69,1.96Zm5.91-1.33c.47,0,.94,.21,.94,.42,0,.31-.47,.83-.94,1.14-.56,.31-.94,.1-.94-.42,0-.62,.38-1.14,.94-1.14Zm-10.22,.08c-.84-1.45,1.79-5.28,3.67-5.27,1.69,0,.93,2.28-.94,2.79-1.03,.31-1.88,1.34-1.88,2.27,0,1.35-.19,1.35-.84,.2Zm1.67,9.64c-1.22-.73-2.62-1.04-3.09-.73-.47,.41-.56,.1-.19-.52,.47-.93,1.22-.93,2.63-.1,1.03,.62,3.28,.94,4.97,.74,3.57-.4,3.56,.73,.09,1.45-1.22,.31-3.19-.11-4.41-.84Zm5.43,50.24c1.03,.62,.84,.93-.47,1.34-1.13,.31-1.88,0-1.87-.83s.28-1.45,.57-1.45,1.12,.42,1.78,.94Zm18.09-37.23c0,.62-.47,1.14-.94,1.14-.56,0-.94-.21-.94-.42,0-.31,.38-.83,.94-1.14,.47-.31,.94-.1,.94,.42Zm-3.03,14.18l.14,19.78-17.54,.47c-9.76,.28-17.92,.37-18.39,.06-.37-.21-.64-9.22-.61-20.09l.04-19.57,15.2-.06c8.44-.08,16.51-.16,18.1-.26l2.81-.1,.24,19.78Z"/>
  <path d="M201.8,283.8c3.17,7.05,10.49,9.35,16.31,5.01,5.36-3.82,8.28-13.65,5.57-18.31-.56-1.04-.75-.42-.38,2.17,1.57,10.98-7.17,18.72-15.6,13.84-6.93-3.95-7.57-12.55-1.46-20.09l1.98-2.48-2.16,1.44c-4.51,3.09-6.88,12.82-4.26,18.42Z"/>
  <path d="M206.51,273.77c.28-.72,.19-1.66-.09-1.97-.28-.41-.56,.21-.47,1.34,0,1.14,.28,1.45,.56,.62Z"/>
  <path d="M210.91,278.34c.75,.31,2.16,.42,3.1,.11,1.31-.41,1.22-.51-.47-.62-1.13,0-2.06-.63-2.06-1.14,0-.62-.47-1.04-.94-1.04-1.41,0-1.13,2.07,.37,2.69Z"/>
  <path d="M212.42,272.85c1.03-.31,1.88-.72,1.88-.93s-.84-.42-1.88-.42-1.88,.41-1.88,.93,.84,.73,1.88,.42Z"/>
  <path d="M212.44,263.01c1.31,0,1.78-.2,1.13-.51-.56-.21-1.69-.21-2.35,0-.56,.31-.09,.52,1.22,.52Z"/>
  <path d="M213,265.19c1.03,0,1.31-.31,.56-.62-.66-.31-1.5-.21-1.78,.1-.38,.31,.19,.62,1.22,.52Z"/>
  <path d="M213.35,275.13c.47,.31,.94,.11,.94-.41,0-.62-.47-1.14-.94-1.14-.56,0-.94,.2-.94,.41,0,.31,.37,.83,.94,1.14Z"/>
  <path d="M216.94,266.75c1.22,.42,1.87,1.25,1.5,1.97s-.38,.93,.09,.52c.38-.41,1.41-.2,2.25,.42,.84,.73,.47,0-.75-1.56-2.53-3.11-1.77-3.73,1.22-1.03,1.4,1.35,1.31,1.04-.28-1.04-1.31-1.56-2.53-2.39-2.81-1.97-.28,.52-1.22,1.14-1.97,1.44-1.03,.41-.85,.72,.75,1.24Z"/>
  <path d="M217.1,278.77c.47,0,.94-.52,.94-1.14,0-.52-.47-.73-.94-.42-.56,.31-.94,.83-.94,1.14,0,.21,.37,.42,.94,.42Z"/>
  <path d="M217.11,275.66c.47,0,.94-.52,.94-1.14,0-.52-.47-.73-.94-.42-.56,.31-.94,.83-.94,1.14,0,.21,.37,.42,.94,.42Z"/>
  <path d="M220,280.33c.47-.41,.85-1.65,.85-2.79,0-2.69-.84-1.97-1.41,1.14-.19,1.24,0,1.97,.56,1.66Z"/>
</svg>