<?xml version="1.0" encoding="UTF-8"?>
<svg id="Layer_1" data-name="Layer 1" xmlns="http://www.w3.org/2000/svg" viewBox="0 0 249.98 350.02">
  <path d="M11.96,.45c-.77,.12-1.36,.47-1.36,.76s-.36,.52-.77,.52c-.47,0-1.36,.47-2.07,.99-.65,.58-1.9,1.57-2.73,2.15s-1.54,1.34-1.54,1.63-.41,.93-.89,1.4c-.47,.52-.89,1.4-.89,1.98s-.24,1.28-.59,1.45c-.71,.47-.77,3.02-.06,3.43,.3,.17,.65-.93,.83-2.38,.18-1.51,.59-2.85,.95-2.97s.65-.58,.65-1.05c0-.7,2.49-3.43,4.98-5.35,.47-.41,1.72-.87,2.73-1.11,1.01-.17,1.96-.58,2.13-.87,.47-.7,.18-.81-1.36-.58Z"/>
  <path d="M17.11,.39c1.42,.12,2.9,.46,3.26,.7,.3,.29,1.36,.64,2.25,.87,.95,.23,2.07,.7,2.55,1.1,2.43,1.98,4.39,3.89,4.39,4.42,0,.29,.42,.99,.89,1.45,1.25,1.16,2.2,6.92,1.72,10.23-.24,1.45-1.18,3.72-2.07,5.12-.95,1.4-1.72,2.73-1.72,3.08,0,.29-.24,.52-.53,.52-.36,0-1.84,.81-3.32,1.8-2.43,1.63-3.14,1.8-7.47,1.81-2.67,0-4.98-.23-5.22-.52-.18-.29-.77-.46-1.24-.46s-1.36-.46-1.96-1.1c-.53-.58-1.01-.87-1.01-.64s-.95-.52-2.08-1.69c-2.25-2.38-2.91-2.15-.71,.23,2.31,2.56,5.28,4.24,7.89,4.53,1.42,.12,2.61,.52,2.61,.75,0,.29,.83,.52,1.78,.52,1.01,0,1.78-.29,1.78-.58,0-.35,.89-.58,1.96-.58,4.03,0,10.61-5.7,11.5-10.01,.18-.93,.59-1.8,.83-1.98,.71-.41,.65-5.29-.06-5.76-.3-.17-.59-1.05-.59-1.92s-.42-2.21-.89-3.02-1.07-1.86-1.3-2.33c-.47-.99-2.43-2.79-4.33-4.07-.77-.46-1.66-1.22-2.13-1.63-.42-.35-2.73-.81-5.1-.93s-3.14-.06-1.66,.06Z"/>
  <path d="M66.19,.37c-.95,.12-1.66,.52-1.66,.81s-.3,.52-.65,.52c-1.19,0-4.68,3.03-6.81,5.88-1.72,2.33-2.07,3.14-1.66,4.48,.42,1.45,.47,1.4,.89-1.05,.3-1.4,.89-2.79,1.42-3.02,.47-.29,.89-.76,.89-1.05,0-.64,2.13-2.91,2.73-2.91,.18,0,1.01-.52,1.84-1.16s2.13-1.16,2.9-1.16,1.42-.29,1.42-.58c0-.35,1.36-.58,2.96-.58,1.72,0,2.96,.29,2.96,.64,0,.29,.24,.47,.53,.29,.59-.41,4.09,.75,5.28,1.63,2.96,2.44,4.86,4.42,5.75,6.16,1.25,2.33,2.02,11.05,1.01,11.05-.3,0-.47,.52-.3,1.16s0,1.16-.36,1.16-.65,.23-.65,.52c0,1.16-2.72,4.71-3.85,5.06-.65,.23-1.3,.58-1.48,.76-.18,.23-1.07,.87-1.96,1.4-2.19,1.4-9.42,1.52-11.97,.18-.95-.52-2.07-.93-2.43-.93-.41,0-.83-.41-1.07-.87-.18-.47-.65-.87-1.07-.87-.47,0-1.19-.58-1.66-1.22-.47-.7-1.19-1.57-1.6-1.98s-.89-1.4-1.13-2.27c-.42-1.63-1.42-2.09-1.42-.64,0,.47,.3,.87,.59,.87,.36,0,.59,.35,.59,.76,0,2.73,7.71,8.54,11.38,8.54,.89,0,1.78,.23,1.96,.58,.47,.7,3.26,.75,3.26,.06,0-.23,1.19-.64,2.61-.76,3.38-.41,9.24-4.54,9.24-6.57,0-.41,.36-.87,.77-1.05,2.31-.87,1.95-12.79-.48-16.4-1.72-2.5-3.38-4.36-3.97-4.36-.47,0-1.24-.52-3.14-2.21-.89-.76-8.89-1.39-11.68-.87Z"/>
  <path d="M120.31,.35c-1.3,.23-1.9,.58-3.79,2.27-.41,.35-1.3,.81-1.9,1.05-1.13,.41-3.85,3.96-3.85,5.06,0,.29-.24,.52-.59,.52-.3,0-.41,.41-.18,.99,.3,.81,.47,.76,.89-.35,1.24-3.43,6.64-8.2,9.18-8.2,.65,0,1.36-.41,1.6-.87C121.85,.35,121.91,0,121.85,0c-.06,.06-.77,.23-1.54,.35Z"/>
  <path d="M125.47,.35c1.36,.12,2.49,.52,2.49,.87s.18,.52,.36,.35c.53-.52,4.39,.7,5.51,1.74,.59,.52,1.6,1.45,2.19,1.98,2.43,2.09,4.39,5.64,4.39,7.96,0,.81,.24,1.86,.53,2.33s.41-.29,.18-2.04c-.12-1.57-.53-3.02-.83-3.2s-.53-.46-.47-.58c.65-1.34-4.33-7.09-6.82-7.85-.65-.23-1.3-.58-1.48-.87s-2.19-.58-4.45-.7c-2.31-.17-3.02-.12-1.6,0Z"/>
  <path d="M233.76,.42c1.66,.29,3.62,.75,4.45,.99,2.02,.7,7.71,4.42,7.71,5.06,0,.29,.53,1.16,1.19,1.98s1.19,2.27,1.19,3.14c0,.93,.3,1.69,.59,1.69,1.36,0-.06-4.48-1.84-5.81-.18-.17-.53-.81-.77-1.51-.36-1.1-4.57-4.3-5.69-4.3-.3,0-.59-.23-.71-.58-.06-.29-2.19-.7-4.62-.81-3.73-.23-3.97-.23-1.48,.18Z"/>
  <path d="M170.4,2.48c-3.38,2.27-6.81,6.92-6.87,9.19,0,.93-.24,1.63-.47,1.63-1.24,0,.18,9.48,1.72,11.34,2.31,2.73,4.57,4.94,5.16,4.94,.36,0,.89,.41,1.13,.87,.3,.47,1.72,1.1,3.14,1.39,1.48,.35,3.38,.75,4.33,.99,1.01,.23,1.6,.12,1.6-.29,0-.35,.71-.64,1.66-.64,2.25,0,6.05-1.11,6.05-1.75,0-.35,.36-.58,.77-.58,.47,0,1.36-.58,2.07-1.34,1.42-1.45,1.78-2.62,.59-1.57-2.84,2.33-3.73,2.91-4.44,2.91-.41,0-.77,.29-.77,.64,0,.29-.3,.41-.65,.17-.36-.17-.89-.06-1.13,.35-.3,.47-2.02,.7-4.92,.7-4.39,0-6.88-.75-9.19-2.9-.42-.35-1.13-.7-1.48-.7-.71-.06-3.38-3.72-3.38-4.71,0-.29-.3-.52-.65-.52s-.47-.41-.3-.93c.24-.52,.06-1.34-.3-1.8-.89-.99-.24-9.19,.77-10.35,1.72-1.86,2.25-2.62,2.25-3.02,0-.64,1.84-2.15,3.14-2.68,.53-.17,1.01-.64,1.01-.93,0-.35,.95-.76,2.07-.99,2.43-.41,3.38-1.4,1.36-1.4-.77,.06-2.67,.93-4.27,1.98Z"/>
  <path d="M183.08,1.08c0,.29,.47,.58,1.13,.58,.59,0,1.78,.52,2.61,1.16s1.72,1.16,2.08,1.16c.3,0,1.07,.7,1.66,1.51s1.6,2.03,2.19,2.67c.53,.7,1.01,1.86,1.01,2.62,0,.81,.24,1.22,.59,1.05,.71-.41,.83-2.44,.18-2.73-.71-.29-3.14-3.84-3.14-4.53,0-.29-.42-.58-.89-.58s-1.36-.52-1.9-1.16c-.59-.64-1.36-1.16-1.78-1.16s-.77-.29-.77-.58c0-.35-.65-.58-1.48-.58s-1.48,.23-1.48,.58Z"/>
  <path d="M226.06,1.53c-3.32,1.86-6.04,4.42-6.58,6.22-.24,.58-.77,1.45-1.18,1.92-.47,.41-.83,1.69-.83,2.79s-.24,1.98-.59,1.98c-.3,0-.59,.93-.59,2.04s.3,2.04,.65,2.03c.3,0,.47,.23,.3,.47-.41,.64,.83,5.35,1.42,5.35,.24,0,.77,.7,1.13,1.57,.89,2.09,6.11,5.46,9.07,5.87,1.24,.12,2.43,.52,2.61,.75,.42,.7,2.61,.7,2.61,0,0-.64-2.13-1.22-4.56-1.22-1.07,0-1.96-.29-1.96-.58,0-.35-.3-.58-.59-.58-1.48,0-5.22-3.14-6.52-5.41-.77-1.34-1.66-2.62-1.96-2.79-.3-.23-.53-2.56-.54-5.23,0-4.13,.23-5.35,1.54-7.73,.83-1.57,1.54-2.68,1.54-2.5s.77-.41,1.72-1.22c2.96-2.73,3.61-3.08,5.69-3.43,1.13-.17,2.07-.58,2.07-.81,0-.81-2.49-.52-4.45,.53Z"/>
  <path d="M108.99,12.68c0,.93-.24,2.38-.59,3.2-.36,.93-.36,1.57,0,1.8s.59,0,.59-.41c.06-.41,.3-1.86,.53-3.26,.3-1.34,.3-2.62,0-2.79s-.53,.47-.53,1.45Z"/>
  <path d="M195.12,14.16c0,1.28,.12,1.74,.24,.99,.12-.7,.12-1.74,0-2.33-.18-.52-.3,.06-.24,1.34Z"/>
  <path d="M54.58,14.51c0,1.1,.12,1.57,.3,.99,.12-.52,.12-1.45,0-2.04-.18-.52-.3-.06-.3,1.05Z"/>
  <path d="M54.52,18.4c-.06,1.45,.18,1.92,1.01,1.92,.65,0,.77-.17,.36-.47-.42-.23-.83-1.05-1.01-1.86-.24-1.22-.24-1.16-.36,.41Z"/>
  <path d="M140.77,18.08c-.18,.76-.35,1.92-.35,2.62,0,.76-.24,1.34-.59,1.34-.3,0-.59,.41-.59,.87,0,.52-.36,1.05-.83,1.22s-1.01,.93-1.18,1.63c-.24,.87-1.72,2.15-4.03,3.55-3.38,1.98-4.15,2.15-8,2.21-3.14,0-4.86-.29-6.4-1.1-1.13-.58-2.08-1.28-2.08-1.51,0-.29-.36-.47-.77-.46-.83,0-3.38-2.38-3.38-3.14,0-.35-.53-1.1-2.19-2.91-.36-.41-.77-1.4-.95-2.15-.12-.76-.18-.41-.12,.76,.12,1.22,.53,2.56,1.01,3.02,1.6,1.8,2.25,2.62,2.25,2.96,0,.58,2.61,2.56,3.32,2.62,.41,0,.83,.41,1.01,.81,.18,.47,1.36,1.05,2.61,1.22s2.73,.58,3.26,.93c1.3,.64,3.44,.7,3.44,0,0-.29,1.24-.64,2.84-.76,2.9-.29,8.42-3.49,8.41-4.89,0-.35,.41-.81,.89-1.05,.47-.17,.89-.7,.89-1.11,0-.47,.41-1.16,.89-1.57s.89-1.51,.89-2.44,.3-2.21,.59-2.85c.36-.64,.41-1.11,.12-1.1-.36,0-.71,.58-.95,1.28Z"/>
  <path d="M195.12,18.81c0,1.28,.12,1.74,.24,.99,.12-.7,.12-1.74,0-2.33-.18-.52-.3,.06-.24,1.34Z"/>
  <path d="M248.29,21.35c0,.64-.41,1.51-.89,2.04-1.01,.93-1.13,1.51-.41,1.51,.41,0,2.49-3.66,2.49-4.36,0-.17-.24-.29-.59-.29-.3,0-.59,.52-.59,1.11Z"/>
  <path d="M193.76,21.83c0,.7-.41,1.63-.89,2.15-.95,.93-1.13,1.51-.41,1.51,.83,0,2.37-3.32,1.84-4.13-.36-.58-.53-.46-.53,.47Z"/>
  <path d="M243.91,27.51c-1.19,1.11-2.78,2.15-3.61,2.39-.83,.17-1.48,.58-1.48,.87s-.95,.52-2.07,.52-2.07,.23-2.07,.52c0,.58,5.45-.35,5.87-1.05,.24-.23,.95-.64,1.72-.87,.71-.23,1.19-.64,1.01-.93s.3-.7,1.13-.93c.77-.17,1.54-.81,1.72-1.45,.41-1.51,.24-1.45-2.19,.93Z"/>
  <path d="M43.43,142.56c.26,55.13,.46,114.9,.47,132.87v32.74s26.98,.11,26.98,.11l26.97,.16-.04-106.3-.04-106.24h27.27s27.27-.02,27.27-.02v26.75s.02,26.75,.02,26.75h27.27s27.33-.02,27.33-.02l-.25-28.38c-.31-31.05-.31-30.35-1.02-30.35-.3,0-.71-2.09-.95-4.65-.18-2.56-.59-4.65-.83-4.65s-.59-1.51-.77-3.31c-.24-2.09-.71-3.49-1.25-3.78s-.95-.93-.95-1.34c0-.47-.24-.87-.59-.87-.3,0-.71-.64-.95-1.4-.18-.81-.71-1.57-1.19-1.74s-.83-.7-.83-1.22c0-.47-.24-.87-.53-.87s-.89-.87-1.3-1.92c-.42-.99-1.42-2.5-2.14-3.31-.77-.81-1.54-2.03-1.72-2.73s-.95-1.4-1.72-1.57-2.13-.99-3.02-1.8-2.25-1.63-2.96-1.8-1.48-.7-1.66-1.16-.71-.81-1.25-.81c-.47,0-.89-.23-.89-.52s-.77-.81-1.78-1.22c-.95-.41-1.78-.93-1.78-1.22s-.42-.52-.89-.52-.89-.41-.89-.87c0-.58-1.01-.93-3.56-1.22-1.96-.23-3.56-.58-3.56-.81,0-.29-1.96-.64-4.27-.87-2.37-.23-4.51-.7-4.74-1.1-.3-.47-16-.69-58.03-.79l-57.61-.15,.4,100.19ZM99.11,58.39l.12,13.96,.17-14.13,.11-14.07h10.37c5.69,0,17.78-.01,26.79-.07,10.2,0,16.54,.23,16.66,.57,.12,.29,.53,.46,.95,.29,.83-.29,15.53,2.38,18.02,3.31,1.36,.52,7.53,4.42,9.25,5.87,.36,.29,2.31,1.57,4.39,2.85,3.32,2.09,4.27,3.2,9.61,11.1,3.26,4.83,5.93,9.3,5.99,10,.06,1.57,.89,6.22,2.38,12.85,.77,3.6,.65,4.24-.77,4.54-.95,.17-.77,.29,.59,.35,1.07,0,1.84,.29,1.66,.58-.24,.41-.99,39.83-.93,50.42,0,.52-8.42,.58-47.24,.25h-3.14s-.01-25.29-.01-25.29c0-19.83-.19-25.29-.72-25.35-.59,0-.59-.12,0-.35,.36-.12,.71-.52,.71-.81,0-.23-.36-.35-.83-.17s-1.01,.06-1.24-.29c-.24-.47-8.6-.64-26.44-.63h-26.02s-.06-2.49-.06-2.49c-.12-1.86-.18-2.04-.36-.7-.41,3.2-.83,4.42-1.36,4.07-.3-.17-.77,.41-1.01,1.28s-.4,37.27-.44,80.83l.03,79.26-13.04,.12-13.04,.18,12.8,.11,12.86,.17,.24,3.66c.18,1.98,.3,13.08,.31,24.66,0,18.72-.11,21.11-.94,21.34-1.24,.35-47.48,.37-48.78,.02-.95-.29-1.01-2.09-.9-25.29,.05-13.72-.13-24.95-.37-24.95-.3,0-.36-.23-.12-.52,.24-.47,.4-171.48,.17-173.23-.06-.23-.06-8.95,0-19.42l.05-19.07,26.26-.13c14.4-.12,26.38-.07,26.61,.11s.54,6.57,.66,14.25Z"/>
  <path d="M153.52,46.8c0,.64,.18,.81,.36,.35,.18-.41,.12-.93-.06-1.1-.18-.23-.36,.12-.3,.76Z"/>
  <path d="M153.7,54.59c0,3.66,.06,5.18,.18,3.31,.12-1.8,.12-4.83,0-6.69-.12-1.8-.18-.29-.18,3.37Z"/>
  <path d="M99.12,86.01c0,1.74,.12,2.5,.24,1.57,.12-.87,.12-2.27,0-3.2-.12-.87-.24-.12-.24,1.63Z"/>
  <path d="M232.89,52.64c0,.35-.89,.81-1.9,.93-1.07,.12,.12,.29,2.67,.29,2.49,.06,4.56,.35,4.56,.64s.77,.7,1.72,.93c.95,.17,1.9,.76,2.08,1.22s.59,.81,.95,.81c.77,0,2.96,2.15,2.96,2.91,0,.35,.36,.76,.83,.93,.53,.17,1.01,1.57,1.31,3.49,.18,1.74,.59,3.14,.89,3.14,.24,0,.59,.87,.71,1.86,.12,1.05,.12,.35,0-1.57s-.53-3.61-.83-3.66c-.3-.12-.53-.87-.53-1.63,0-.81-.42-1.57-.89-1.74-.47-.23-.89-.7-.89-1.16,0-.87-1.36-2.33-3.56-3.72-.71-.46-1.72-1.22-2.13-1.63s-2.19-.93-3.91-1.1-3.32-.64-3.56-.99c-.36-.47-.47-.41-.47,.06Z"/>
  <path d="M13.64,53.6c-3.02,.47-5.99,1.86-5.99,2.85,0,.29-.36,.52-.77,.52-.83,0-3.38,2.39-3.38,3.14,0,.23-.41,.81-.89,1.28-.47,.52-.89,1.4-.89,1.98s-.24,1.28-.59,1.45c-.71,.47-.77,3.02-.06,3.43,.3,.17,.65-.81,.77-2.21,.3-2.62,3.38-7.85,5.21-8.84,5.16-2.74,6.46-3.14,10.67-3.26,3.79-.18,4.03-.23,1.72-.47-1.48-.17-4.09-.11-5.81,.12Z"/>
  <path d="M22.17,54.64c-.18,.29,0,.58,.47,.58s1.42,.52,2.19,1.16,1.66,1.16,2.02,1.16c.65,0,3.32,3.49,3.32,4.36,0,.23,.42,.76,.95,1.16,.77,.52,1.01,1.8,1.01,6.16,.06,5.29,0,5.58-1.95,8.49-1.13,1.69-2.78,3.37-3.67,3.72-.95,.35-1.66,.87-1.66,1.11,0,.58-2.96,1.8-3.62,1.46-.3-.23-.53-.06-.53,.23,0,.99,3.56,.75,3.91-.23,.24-.47,.65-.87,1.07-.87,2.13-.06,7.35-6.92,7.23-9.48-.06-.87,.12-1.57,.36-1.57s.47-1.16,.47-2.62-.24-2.62-.53-2.62c-.24,0-.65-1.1-.83-2.44s-.71-2.73-1.13-3.08c-.42-.29-1.19-1.34-1.66-2.27s-1.25-1.8-1.78-1.98c-.47-.17-1.01-.46-1.19-.7-.42-.47-3.44-2.32-3.79-2.32-.18,0-.47,.23-.65,.58Z"/>
  <path d="M225.48,55.02c-2.13,1.22-5.63,4.42-5.63,5.29,0,.29-.41,.81-.95,1.11-.47,.29-1.07,1.57-1.24,2.91s-.59,2.44-.83,2.44c-.89,0-.59,4.83,.54,7.56,1.6,4.19,5.22,8.66,6.88,8.72,.3,0,1.07,.46,1.72,.99,.95,.87,2.19,1.05,7.17,.99,5.75,0,6.11-.06,8.83-1.92,2.9-1.98,3.5-2.62,1.78-1.98-1.01,.41-1.42,.64-3.32,2.21-.41,.35-1.42,.58-2.31,.58-.95-.06-1.66,.18-1.66,.41,0,1.51-9.72-.34-11.74-2.2-.36-.41-1.19-.87-1.78-1.05-.59-.23-1.72-1.45-2.49-2.85-.77-1.34-1.66-2.62-2.02-2.85s-.59-2.56-.6-5.52c.06-4.3,.29-5.47,1.48-7.44,.77-1.28,1.72-2.68,2.13-3.08s.77-1.05,.77-1.34,.36-.52,.77-.52c.47,0,1.42-.52,2.19-1.16s1.84-1.16,2.49-1.16c.59,0,1.07-.29,1.07-.58,0-.81-1.19-.64-3.26,.47Z"/>
  <path d="M248.31,73.68c0,1.45,.36,1.57,.77,.35,.24-.47,.12-.99-.18-1.16-.36-.23-.59,.17-.59,.81Z"/>
  <path d="M247.13,76.82c-1.24,1.86-1.9,3.43-1.18,3.02,.36-.17,.59-.76,.59-1.22s.24-.81,.53-.81c.53,0,1.42-1.75,1.07-2.09-.06-.12-.53,.41-1.01,1.11Z"/>
  <path d="M3.63,78.78c.36,.81,.89,1.45,1.19,1.45s.06-.64-.47-1.45-1.07-1.45-1.19-1.45,.12,.64,.47,1.45Z"/>
  <path d="M5.59,81.4c.18,.29,.83,.58,1.36,.58,.89,0,.89-.12,.12-.58-1.19-.76-1.96-.76-1.48,0Z"/>
  <path d="M7.66,82.79c0,.12,.53,.35,1.19,.52s1.07,.06,.83-.23c-.3-.52-2.02-.76-2.02-.29Z"/>
  <path d="M10.92,84.3c-1.07,.47-1.01,.52,.47,.52,.89,.06,1.6-.23,1.6-.52,0-.7-.47-.7-2.07,0Z"/>
  <path d="M15.25,85.29c1.07,.12,2.67,.12,3.56,0s0-.23-1.96-.23-2.67,.12-1.6,.23Z"/>
  <path d="M15.68,106.34c-.18,.35-1.42,.64-2.67,.64s-2.67,.41-3.2,.87c-.47,.47-1.07,.87-1.36,.87-.77,0-4.92,4.31-4.92,5.12,0,.41-.24,.7-.53,.7-.53,0-2.43,5.12-2.43,6.63,0,.52,.24,.93,.53,.93,.24,0,.65-1.34,.83-2.91,.18-1.63,.77-3.31,1.3-3.84,.47-.47,.89-1.16,.89-1.45,0-.64,4.21-4.6,4.86-4.6,.24,0,.83-.41,1.36-.93,1.42-1.4,11.62-1.46,13.04-.06,.53,.52,1.3,.99,1.78,.99,.41,0,.89,.41,1.13,.87,.18,.47,.71,.87,1.25,.87,.47,0,.89,.29,.89,.64s.36,.99,.77,1.4c1.78,2.03,2.19,2.62,1.78,2.62-.24,0-.12,.23,.36,.52,.65,.41,.89,1.98,.89,6.45,.06,3.26-.18,6.05-.53,6.28-.83,.58-3.26,4.07-3.26,4.65,0,.35-.47,.7-1.01,.93-2.49,.82-4.98,2.56-4.27,3.03,.42,.23,.89,.12,1.01-.23,.12-.41,.59-.7,1.01-.7,.47,0,1.07-.35,1.3-.76,.24-.35,1.01-.99,1.6-1.34,.65-.35,1.42-1.11,1.78-1.75,.36-.58,1.01-1.34,1.42-1.57,.36-.23,.71-.87,.71-1.28,0-.47,.24-.87,.59-.87,.3,0,.47-.81,.35-1.74-.12-.99,.06-1.74,.3-1.74,.3,0,.53-1.34,.53-2.91s-.24-2.91-.53-2.91c-.24,0-.65-1.05-.83-2.27-.18-1.28-.59-2.67-.95-3.08s-1.19-1.45-1.9-2.38c-.65-.87-1.6-1.57-2.08-1.57s-.83-.23-.83-.52c0-.93-3.74-2.79-6.23-3.14-1.3-.17-2.79-.46-3.32-.7-.59-.17-1.19-.12-1.42,.23Z"/>
  <path d="M123.85,106.41c0,.23,1.54,.64,3.38,.87,3.5,.41,8.71,3.25,9.9,5.35,.3,.58,.95,1.34,1.36,1.74s.77,1.16,.77,1.63,.24,.81,.53,.81,.71,1.69,.95,3.78c.18,2.09,.59,3.66,.89,3.49s.24-1.16-.06-2.21c-.3-.99-.53-2.56-.53-3.49,0-1.45-2.02-5.06-3.08-5.52-.3-.12-.47-.58-.47-.99s-1.01-1.4-2.19-2.09c-1.25-.76-2.61-1.69-3.02-2.09s-1.78-.76-3.02-.75-2.43-.17-2.67-.41c-.53-.58-2.73-.64-2.73-.12Z"/>
  <path d="M232.08,106.19c-.18,.29,.89,.7,2.43,.93,3.56,.46,5.87,.29,2.85-.18-1.3-.23-2.96-.64-3.68-.87s-1.42-.17-1.6,.12Z"/>
  <path d="M229.06,106.89l-1.78,.47,1.96,.06c1.01,0,1.9-.23,1.9-.52,0-.35-.06-.52-.12-.52-.12,.06-.95,.29-1.96,.52Z"/>
  <path d="M117.03,108.28c-4.98,3.61-7.64,7.85-8.23,12.91-.18,1.92-.12,2.5,.24,1.74,.3-.64,.53-2.04,.53-3.08,.06-.99,.35-1.86,.65-1.86,.36,0,.59-.52,.59-1.11,0-.64,.36-1.51,.77-1.92s.95-1.22,1.13-1.74c.65-1.57,6.64-5.59,8.83-5.88,1.96-.23,1.9-.23-.36-.29-1.6-.06-2.96,.35-4.15,1.22Z"/>
  <path d="M225.8,108.06c0,.29-.36,.58-.77,.58-1.72,0-6.87,5.88-7.35,8.38-.18,.99-.59,2.15-.95,2.56-1.9,2.33,1.9,13.08,5.22,14.88,.65,.35,1.42,.99,1.66,1.34,.24,.41,.89,.76,1.3,.76,.47,0,.89,.29,.89,.64s.36,.52,.83,.35,.95-.12,1.07,.12,1.66,.64,3.44,.81c3.14,.35,3.2,.35,1.36-.47-1.01-.41-2.43-.64-3.08-.46-.71,.17-1.24,.06-1.24-.35,0-.35-.53-.64-1.19-.64s-1.36-.41-1.54-.87c-.24-.47-.71-.87-1.19-.87-.95,0-4.39-3.49-4.39-4.53,0-.41-.42-.87-.89-1.05-.53-.23-.89-1.1-.89-2.03s-.24-1.69-.47-1.69c-.3,0-.24-1.86,.06-4.13,.65-4.88,3.43-9.48,7.05-11.69,2.19-1.28,2.84-2.21,1.66-2.21-.3,0-.59,.23-.59,.58Z"/>
  <path d="M239.73,108.05c-.18,.23,.3,.7,1.01,.93,1.42,.41,5.22,3.84,5.22,4.65,0,.23,.42,.87,.89,1.4,.53,.58,1.07,2.33,1.31,4.01,.18,1.63,.53,2.97,.83,2.97,.24,0,.59,.46,.77,.99,.12,.58,.12-.29-.06-1.86-.18-1.63-.59-3.02-.83-3.08-.3-.12-.53-.81-.53-1.51,0-.76-.53-1.92-1.19-2.67s-1.19-1.63-1.19-1.98c0-.93-5.81-4.48-6.23-3.84Z"/>
  <path d="M248.33,125.84c0,1.22,.18,1.98,.42,1.8,.59-.64,.71-3.26,.12-3.61-.3-.23-.53,.64-.53,1.8Z"/>
  <path d="M109.22,126.42c0,1.28,.12,1.74,.24,.99,.12-.7,.12-1.74,0-2.33-.18-.52-.3,.06-.24,1.34Z"/>
  <path d="M140.46,126.47c0,.81-.35,1.86-.71,2.27-1.72,1.86-2.13,2.5-2.55,3.84q-.41,1.4,.83-.17c.65-.81,1.24-1.69,1.24-1.92,0-.17,.41-.76,.89-1.22,.83-.81,1.3-4.3,.59-4.3-.18,0-.3,.7-.3,1.51Z"/>
  <path d="M110.29,128.69c-.06,.29,.65,1.63,1.54,2.96,1.66,2.62,5.81,5.58,7.65,5.46,.65,0,.3-.29-.77-.58s-1.96-.81-1.96-1.1c0-.35-.3-.58-.65-.58-.89,0-3.5-2.44-3.5-3.37,0-.35-.24-.7-.47-.7-.3,0-.83-.58-1.19-1.34-.36-.7-.65-1.05-.65-.76Z"/>
  <path d="M247.33,129.33c-.89,.93-.95,1.4-.24,1.4,.47,0,1.42-1.75,1.13-2.04-.12-.12-.53,.17-.89,.64Z"/>
  <path d="M2.35,130.01c0,.17,.42,.7,.89,1.16,.95,.99,1.07,.81,.53-.58-.36-.87-1.42-1.34-1.42-.58Z"/>
  <path d="M244.6,133.11c-.95,.93-1.96,1.69-2.25,1.69-.36,0-.41,.29-.24,.58,.24,.35,1.3-.29,2.55-1.4,1.19-1.11,2.01-2.15,1.9-2.27-.18-.17-1.07,.47-1.96,1.4Z"/>
  <path d="M4.13,132.8c0,.12,.42,.41,.95,.58,.47,.17,.71,.12,.53-.23-.36-.58-1.48-.81-1.48-.35Z"/>
  <path d="M6.5,134.9c.47,.29,1.19,.58,1.48,.58,.36,0,.18-.29-.3-.58s-1.13-.58-1.48-.58c-.3,0-.18,.29,.3,.58Z"/>
  <path d="M134.29,134.78c-.83,.29-.95,.58-.47,.87,.42,.23,1.13,0,1.66-.47,1.01-.99,.65-1.11-1.19-.41Z"/>
  <path d="M8.87,136.64c.47,.29,1.3,.52,1.78,.52,.59,0,.47-.17-.3-.52-1.6-.7-2.55-.7-1.48,0Z"/>
  <path d="M131.57,136.53c-1.19,.35-1.3,.47-.47,.76,.53,.23,1.3,.06,1.66-.47,.41-.47,.65-.81,.53-.76s-.89,.23-1.72,.47Z"/>
  <path d="M239.74,136.54c-.77,.35-.89,.52-.3,.52,.47,0,1.3-.23,1.78-.52,1.07-.7,.12-.7-1.48,0Z"/>
  <path d="M18.36,138.15q-2.07,.76,.89,.41c3.44-.41,3.73-.52,2.25-.87-.59-.17-2.02,.06-3.14,.47Z"/>
  <path d="M120.6,137.76c-.83,.29-.41,.47,1.66,.7,3.32,.41,8.24-.06,7.82-.7-.18-.23-1.3-.23-2.55,.06-1.3,.29-3.08,.29-4.03,0-.95-.23-2.25-.29-2.9-.06Z"/>
  <path d="M234.71,137.83c0,.23,.83,.46,1.9,.46,1.01,0,1.66-.18,1.48-.41-.59-.52-3.38-.58-3.38-.06Z"/>
  <path d="M12.9,138.21c.71,.12,1.78,.12,2.37,0,.53-.17-.06-.29-1.36-.23-1.3,0-1.78,.12-1.01,.23Z"/>
  <path d="M124.17,159.27c-.24,.35-.71,.58-1.07,.52-.41-.06-1.13,0-1.6,.06-.47,.12,1.48,.35,4.39,.52,3.38,.23,5.39,.64,5.57,1.1,.12,.41,.53,.7,.89,.7,1.07,0,4.57,2.56,4.57,3.37,0,.41,.36,.87,.83,1.05s1.01,.99,1.25,1.8c.3,1.22,.53,1.34,1.07,.76s.53-.81,0-.99c-.41-.17-.77-.64-.77-1.1s-.42-.99-.89-1.16c-.47-.23-.89-.64-.89-.93,0-.76-2.43-2.73-3.38-2.79-.41,0-.77-.23-.77-.58,0-.7-3.91-1.74-6.82-1.74-1.78,0-2.13-.17-1.48-.58,.53-.35,.59-.58,.18-.58-.36,0-.89,.29-1.07,.58Z"/>
  <path d="M178.11,159.25c-.18,.29-1.07,.64-1.96,.64-.89,.06,.83,.29,3.85,.52,2.96,.29,5.81,.75,6.22,1.1,4.68,3.89,5.81,4.94,5.81,5.41,0,.29,.42,.93,.89,1.4,.47,.52,.89,1.74,.89,2.73,.06,1.57,.12,1.69,.65,.81,.95-1.57-.77-5-4.21-8.26-.83-.81-1.78-1.45-2.13-1.45s-1.01-.35-1.36-.81c-.83-.93-4.33-1.74-6.82-1.57-1.07,.12-1.54-.06-1.3-.46,.24-.35,.3-.64,.12-.64s-.47,.23-.65,.58Z"/>
  <path d="M13.03,159.9c-.47,.29-1.48,.58-2.25,.58-.71,0-1.48,.41-1.66,.87-.24,.47-.71,.87-1.13,.87-.89,0-3.85,2.62-3.85,3.43,0,.29-.41,.99-.95,1.51s-1.18,1.74-1.42,2.79c-.3,1.05-.77,2.73-1.12,3.78-.41,1.45-.41,1.86,.12,1.69,.36-.12,.89-1.45,1.18-2.97,.53-3.31,1.66-5.12,4.68-7.91,3.67-3.37,3.91-3.55,6.99-3.9,2.9-.35,3.44-.82,1.3-1.11-.53-.12-1.42,.06-1.9,.35Z"/>
  <path d="M17.48,159.89c-.12,.23,1.19,.58,3.02,.81,3.32,.35,3.68,.52,6.76,3.37,.95,.81,1.84,1.39,1.96,1.22,.18-.12,.47,.35,.71,1.1s.83,1.8,1.36,2.38c.71,.76,.95,2.38,.95,6.69,0,5.41-.06,5.76-1.95,8.43-1.07,1.51-2.67,3.2-3.5,3.78-2.13,1.28-3.32,2.44-2.55,2.44,.3,0,.95-.41,1.48-.87,.47-.47,1.13-.87,1.48-.87,.89,0,4.56-4.65,5.63-7.21,1.07-2.44,1.3-9.07,.35-9.07-.3,0-.59-.58-.59-1.34,0-2.04-3.32-6.63-6.05-8.37-2.55-1.63-8.6-3.31-9.07-2.5Z"/>
  <path d="M230.68,159.98c-4.45,.47-7.59,1.98-9.54,4.6-.53,.64-1.42,1.69-2.01,2.27-.59,.64-1.18,1.92-1.42,2.85-.18,.99-.53,1.74-.83,1.74-1.07,0-.53,6.98,.72,9.94,.71,1.57,1.48,2.85,1.78,2.85s.53,.35,.53,.7c0,.93,2.61,3.37,3.5,3.37,.36,0,.65,.23,.65,.46,0,.93,4.74,2.38,6.11,1.92,1.01-.35,.71-.52-1.48-.76-1.54-.17-3.2-.75-3.73-1.28s-1.36-.93-1.84-.93-.83-.23-.83-.46c0-.29-.53-1.1-1.19-1.86s-1.19-1.69-1.19-2.03c0-.41-.42-1.05-.89-1.45s-.89-1.22-.89-1.8c0-.64-.36-1.1-.71-1.1-.47,0-.53-.17-.18-.47,.36-.23,.65-2.15,.65-4.3,.12-5.18,1.77-7.97,7.05-11.81,2.25-1.69,2.61-1.75,8.65-1.75,6.05,0,6.28,.06,7.77,1.57,.83,.93,1.78,1.63,2.08,1.63,1.19,0,4.27,5.23,4.69,7.91,.24,1.57,.77,3.14,1.19,3.6,.71,.64,.77,.46,.47-1.16-.59-3.26-2.85-8.08-4.69-9.94-3.85-3.89-7.71-5.06-14.41-4.3Z"/>
  <path d="M116.82,161.42c-1.42,1.11-5.1,4.6-6.46,6.28-.47,.52-.65,1.34-.35,1.92,.36,.81,.47,.81,.71-.35,.12-.76,.59-1.51,1.07-1.69s.83-.64,.83-1.11c0-1.05,2.25-3.08,4.44-4.07,1.01-.41,1.54-.81,1.19-.87-.3,0,.06-.29,.89-.52,1.24-.41,1.3-.47,.3-.52-.71-.06-1.84,.41-2.61,.93Z"/>
  <path d="M169.99,162.04c-2.79,1.98-6.52,6.81-6.28,8.09,.12,.64,.59,.17,1.36-1.34,1.36-2.68,5.27-6.63,6.52-6.63,.47,0,.89-.23,.89-.52s.47-.7,1.07-.81c.83-.23,.83-.29-.18-.29-.65,0-2.19,.7-3.38,1.51Z"/>
  <path d="M140.71,175.54c0,4.88,.12,5.58,.48,3.49,.59-3.14,.59-3.08,0-6.69-.42-2.44-.47-1.92-.47,3.2Z"/>
  <path d="M108.94,173.12c-.18,1.57-.12,4.01,.12,5.41,.3,1.92,.42,1.28,.41-2.85,.06-2.91,0-5.35-.12-5.35-.06,0-.3,1.28-.41,2.79Z"/>
  <path d="M163.12,173.04c-.06,1.1-.41,1.92-.83,1.92-.53,0-.59,.17-.12,.47,.36,.23,.83,1.8,1.07,3.55,.36,2.79,1.6,5.17,3.8,7.5,.36,.41,.71,.52,.71,.17,0-.29-.42-.93-.89-1.45-.47-.46-.89-1.16-.89-1.51s-.36-.76-.83-.93-.89-.76-.89-1.28c-.12-3.02-1.07-10-1.13-8.43Z"/>
  <path d="M195.19,175.81c0,1.92,.12,2.62,.24,1.57s.12-2.62,0-3.49-.24,0-.24,1.92Z"/>
  <path d="M248.36,178.7c0,.81,.24,1.45,.53,1.45s.53-.64,.53-1.45-.24-1.45-.53-1.45-.53,.64-.53,1.45Z"/>
  <path d="M193.82,180.23c0,.64,.24,1.05,.59,.81,.3-.17,.41-.7,.18-1.16-.42-1.22-.77-1.1-.77,.35Z"/>
  <path d="M1.84,181.53c-.06,.52,.3,1.22,.71,1.45s1.07,1.1,1.48,1.92l.71,1.45-.36-1.45c-.18-.81-.71-1.74-1.07-2.03-.42-.35-.89-.99-1.13-1.45-.24-.7-.36-.7-.36,.12Z"/>
  <path d="M110.13,181.43c-.18,.47,.06,1.16,.47,1.57,.89,.81,1.01,.41,.3-1.28-.36-.87-.53-.93-.77-.29Z"/>
  <path d="M247.76,181.43c0,.52-.36,1.1-.71,1.22-.59,.23-.59,.35,0,.35,.83,.06,1.66-1.51,1.07-2.09-.18-.23-.36,.06-.36,.52Z"/>
  <path d="M139.29,181.94c0,.29,.3,.58,.65,.58,.3,0,.41-.29,.24-.58-.18-.35-.47-.58-.65-.58-.12,0-.24,.23-.24,.58Z"/>
  <path d="M192.82,182.91c-.89,.29-1.01,1.34-.24,1.34,.3,0,.65-.41,.89-.87,.18-.47,.24-.87,.18-.81-.06,0-.47,.17-.83,.35Z"/>
  <path d="M138.05,184.38c-.41,.64-1.18,1.57-1.66,2.04-.41,.47-.65,.93-.53,1.11,.18,.12,1.07-.7,1.96-1.8,.89-1.16,1.48-2.21,1.36-2.33-.12-.17-.65,.29-1.13,.99Z"/>
  <path d="M112.15,185.09c.42,.47,.89,.7,1.01,.64,.3-.35-.59-1.45-1.19-1.45-.3,0-.24,.35,.18,.81Z"/>
  <path d="M245.57,184.63c-.89,.29-1.01,1.34-.24,1.34,.3,0,.65-.41,.89-.87,.18-.47,.24-.87,.18-.81-.06,0-.47,.17-.83,.35Z"/>
  <path d="M190.57,186.17c-.65,.7-1.84,1.57-2.61,1.92-1.01,.41-1.24,.76-.77,1.05,.42,.23,.71,.12,.71-.17,0-.35,.36-.64,.77-.64,.89,0,3.73-2.73,3.32-3.14-.12-.17-.77,.29-1.42,.99Z"/>
  <path d="M5.34,186.59c0,.35,.24,.76,.59,.93s.41-.06,.24-.52c-.42-1.05-.83-1.22-.83-.41Z"/>
  <path d="M114.4,187.48c.42,.47,1.01,.87,1.3,.87s.18-.41-.36-.87c-.47-.46-1.07-.87-1.3-.87-.18,0-.06,.41,.36,.87Z"/>
  <path d="M243.62,187.19c0,.29,.3,.41,.59,.23,.36-.17,.59-.47,.59-.64,0-.12-.24-.23-.59-.23-.3,0-.59,.29-.59,.64Z"/>
  <path d="M7.59,188.51c.3,.29,.95,.46,1.36,.35,.47-.17,.18-.41-.59-.64-1.01-.23-1.24-.17-.77,.29Z"/>
  <path d="M169.23,188.33c.18,.29,.83,.58,1.36,.58,.89,0,.89-.12,.12-.58-1.19-.76-1.96-.76-1.48,0Z"/>
  <path d="M241.72,188.12c-.53,.12-1.13,.64-1.3,1.16-.3,.7-.24,.76,.42,.29,.47-.41,.95-.52,1.13-.35,.18,.12,.47-.12,.65-.64,.24-.47,.3-.81,.24-.81-.06,.06-.53,.17-1.13,.35Z"/>
  <path d="M129.81,190.09q-2.07,.41-.3,.52c1.01,0,2.19-.23,2.67-.52,1.01-.64,.65-.64-2.37,0Z"/>
  <path d="M11.26,190.37c0,.52,2.37,.75,2.73,.29,.18-.29-.36-.52-1.19-.52s-1.54,.12-1.54,.23Z"/>
  <path d="M21.81,190.54c.41,.17,.95,.12,1.13-.06,.24-.17-.12-.35-.77-.29-.65,0-.83,.17-.36,.35Z"/>
  <path d="M119.91,190.5c.53,.12,1.48,.12,2.07,0,.53-.17,.06-.29-1.07-.29s-1.6,.12-1.01,.29Z"/>
  <path d="M173.97,190.59c.65,.29,1.54,.35,1.96,.23,.36-.17,.71,0,.71,.35,0,.41,1.07,.58,2.85,.52l2.79-.06-2.49-.23c-1.42-.12-2.55-.46-2.55-.81,0-.29-1.01-.52-2.19-.46-1.72,0-1.96,.12-1.07,.47Z"/>
  <path d="M182.74,190.47c.53,.12,1.36,.12,1.78,0,.36-.17-.06-.29-1.07-.29-.95,0-1.3,.12-.71,.29Z"/>
  <path d="M237.28,190.45c.53,.12,1.36,.12,1.78,0,.36-.17-.06-.29-1.07-.29-.95,0-1.3,.12-.71,.29Z"/>
  <path d="M16.18,191.7c.89,.12,2.19,.12,2.96,0,.71-.12,0-.23-1.66-.23s-2.25,.12-1.3,.23Z"/>
  <path d="M123.77,191.66c.71,.12,1.9,.12,2.67,0,.71-.12,.12-.23-1.36-.23s-2.07,.12-1.3,.23Z"/>
  <path d="M231.65,191.61c.71,.12,1.9,.12,2.67,0,.71-.12,.12-.23-1.36-.23s-2.07,.12-1.3,.23Z"/>
  <path d="M13.05,212.87c0,.35-.41,.52-.89,.29-.47-.17-.89-.12-.89,.17s-.65,.64-1.42,.87c-3.08,.76-8.3,7.04-7.88,9.54,.24,1.45,.24,1.4,.36-.35,0-.99,.3-1.86,.53-1.86,.3,0,1.36-1.16,2.37-2.62,1.07-1.45,2.37-2.85,2.96-3.02,.53-.23,1.19-.58,1.36-.87s1.42-.7,2.73-.93c2.02-.35,2.31-.52,1.6-1.16-.59-.52-.83-.52-.83-.06Z"/>
  <path d="M14.36,212.52c.12,.17,1.54,.35,3.08,.35,1.54,.06,2.9,.35,3.08,.64,.18,.23,.95,.46,1.72,.46s1.78,.41,2.31,.87c.47,.46,1.13,.87,1.42,.87,.71,0,3.68,2.73,3.68,3.37,0,.29,.47,1.16,1.13,1.92,2.31,2.91,2.44,12.38,.24,14.6-.41,.35-.77,.93-.77,1.16,0,.7-3.97,4.54-4.68,4.54-.3,0-.83,.41-1.07,.87-.36,.64-2.01,.99-5.51,1.28-3.26,.23-4.5,.53-3.56,.76,.83,.17,2.02,.29,2.67,.17,5.16-.7,6.34-1.05,6.64-1.69,.18-.47,.65-.81,1.07-.81,1.84,0,7.35-6.86,6.93-8.61-.12-.35,.12-.7,.47-.7,.77,0,.77-7.39,0-7.85-.3-.17-.59-.93-.59-1.69s-.47-1.92-1.01-2.56c-.59-.7-1.48-1.86-2.02-2.62-1.48-1.98-5.63-4.65-7.35-4.65-.83,0-1.48-.17-1.48-.46s-1.48-.52-3.38-.52-3.2,.12-3.02,.29Z"/>
  <path d="M122,212.59c.36,.12,.53,.58,.36,.87-.3,.41-.12,.47,.41,.12,.47-.29,2.02-.64,3.5-.87,2.49-.35,2.37-.35-1.19-.41-2.13,0-3.5,.12-3.08,.29Z"/>
  <path d="M174.87,212.8c0,.35-.41,.52-.89,.29-.47-.17-.89-.06-.89,.23,0,.35-.36,.58-.83,.58-3.62,0-10.55,9.37-9.42,12.62,.18,.41,0,.76-.36,.76s-.65,.23-.65,.58c0,.29,.36,.58,.83,.58,.53,0,.89-.99,1.07-3.26s.59-3.43,1.24-3.84c.59-.29,1.01-.81,1.01-1.16,0-.52,1.9-2.44,5.04-5,.47-.41,2.01-.99,3.44-1.22,1.36-.29,2.13-.52,1.72-.58s-.59-.35-.42-.64c.18-.35,.06-.58-.24-.58-.36,0-.65,.29-.65,.64Z"/>
  <path d="M176.71,212.4c.47,.46,5.22,.58,5.63,.17,.24-.23-1.01-.41-2.73-.41s-3.02,.12-2.9,.23Z"/>
  <path d="M229.46,212.37c.47,.46,6.4,.58,6.88,.17,.18-.23-1.3-.41-3.38-.41s-3.62,.12-3.5,.23Z"/>
  <path d="M183.11,213.38c-.59,.35-.24,.52,1.13,.52,1.13,0,2.07,.35,2.25,.87,.18,.47,.89,.99,1.54,1.22,1.36,.41,3.44,2.27,3.44,3.08,0,.29,.42,.99,.95,1.45,.53,.52,1.13,2.21,1.36,3.72,.42,2.56,.48,2.62,.95,1.1,.24-.87,.18-1.92-.18-2.33-.3-.35-.77-1.34-1.01-2.09-.53-1.69-3.8-5.29-4.8-5.29-.36,0-.83-.35-1.01-.81-.42-1.1-3.62-2.09-4.62-1.45Z"/>
  <path d="M224.9,214.41c-2.84,1.8-4.98,3.67-4.98,4.25,0,.29-.53,.99-1.18,1.63s-1.18,1.57-1.18,2.04-.24,.87-.47,.87-.53,2.04-.59,4.48c-.12,3.43,.06,4.83,.77,5.7,.83,1.1,.89,1.05,.65-1.16-.12-1.28-.36-2.62-.42-2.91-.42-1.51,.83-7.33,1.89-8.49,.59-.7,1.13-1.57,1.13-1.92,0-.93,5.93-4.65,8-5q1.78-.35,.3-.64c-1.07-.23-2.31,.18-3.91,1.16Z"/>
  <path d="M117.97,213.93c-.65,.41-.3,.47,1.19,.23,2.55-.47,3.02-.82,1.13-.81-.77,0-1.84,.29-2.31,.58Z"/>
  <path d="M129.88,213.81c1.9,.46,6.46,3.25,6.94,4.36,.12,.23,.59,.76,1.01,1.16s.95,1.34,1.13,2.03c.24,.7,.71,1.28,1.01,1.28,.89,0,.65-.58-1.48-3.43-2.73-3.6-5.34-5.35-8.3-5.64q-2.43-.17-.3,.23Z"/>
  <path d="M236.57,213.53c.12,.12,1.3,.35,2.61,.52,1.66,.29,2.02,.23,1.19-.17-1.13-.46-4.33-.81-3.79-.35Z"/>
  <path d="M116.19,215.04c0,.35-.41,.64-.89,.64-1.3,0-5.98,6.28-5.21,7.04,.47,.46,.77,.12,1.07-1.11,.18-.99,.77-1.92,1.24-2.09s.83-.58,.83-.93c0-.87,1.13-1.92,2.9-2.68,1.01-.41,1.24-.76,.77-1.05-.42-.23-.71-.12-.71,.17Z"/>
  <path d="M241.32,214.99c-.59,.41-.3,.64,1.07,.93,1.01,.17,1.84,.7,1.84,1.1,0,.64,.53,1.45,2.97,4.24,.3,.35,.77,2.15,.95,3.9,.24,1.8,.65,3.26,.89,3.26,.71,0,.65-3.31-.06-3.78-.3-.17-.59-.99-.59-1.69,0-.76-.42-1.69-.89-2.09-.47-.35-1.01-1.22-1.25-1.86-.47-1.57-2.08-3.37-2.97-3.37-.41,0-.83-.23-.95-.58-.12-.29-.53-.35-1.01-.06Z"/>
  <path d="M109.14,225.1c-.06,1.16-.35,2.33-.65,2.5-.41,.23-.41,.7,0,1.45,.3,.58,.59,1.8,.59,2.73,0,.87,.42,2.15,.89,2.73,.77,.99,.89,1.05,.89,.17,0-.52-.24-.99-.53-.99-.71,0-1.19-5.06-.65-6.92,.24-.81,.24-2.04-.06-2.67-.36-.87-.47-.7-.47,.99Z"/>
  <path d="M140.61,224.97c0,1.1,.12,1.57,.3,.99,.12-.52,.12-1.45,0-2.04-.18-.52-.3-.06-.3,1.05Z"/>
  <path d="M195.21,228.73c0,1.57,.12,2.21,.24,1.28,.12-.87,.12-2.15,0-2.91-.12-.7-.24,0-.24,1.63Z"/>
  <path d="M140.79,230.5c-.24,1.8-.29,3.37-.18,3.55,.18,.12,.47-1.22,.71-3.02s.29-3.43,.12-3.55c-.12-.17-.47,1.22-.65,3.02Z"/>
  <path d="M163.14,230.78c0,1.1,.12,1.57,.3,.99,.12-.52,.12-1.45,0-2.04-.18-.52-.3-.06-.3,1.05Z"/>
  <path d="M248.14,231.67c-.18,1.51-.24,2.85-.12,3.02,.18,.12,.47-.99,.65-2.5,.24-1.45,.3-2.79,.18-2.97-.18-.12-.47,.99-.71,2.44Z"/>
  <path d="M193.85,233.44c0,.47,.3,.7,.59,.52,.36-.17,.59-.58,.59-.93,0-.29-.24-.52-.59-.52-.3,0-.59,.41-.59,.93Z"/>
  <path d="M163.68,234.15c0,.7,.36,1.45,.83,1.63,.47,.23,.89,.7,.89,1.1s.42,1.05,.89,1.45c.59,.52,.89,.52,.89,.06,0-.35-.24-.64-.53-.64s-.71-.64-.89-1.45c-.24-.81-.65-1.34-.95-1.16s-.65-.29-.77-.99l-.24-1.34-.12,1.34Z"/>
  <path d="M139.37,234.92c-.12,1.74-4.38,6.22-6.46,6.75-1.01,.23-1.19,.47-.65,.76,.42,.29,1.07,.17,1.42-.18,.41-.41,1.3-1.11,2.01-1.57,1.84-1.22,4.38-5,4.03-5.93-.24-.52-.36-.47-.36,.17Z"/>
  <path d="M192.72,235.82c-.41,.47-.65,.93-.47,1.11,.12,.12,.59-.12,1.01-.64,1.01-1.16,.53-1.57-.53-.46Z"/>
  <path d="M218.15,235c-.06,1.45,4.86,6.8,6.29,6.8,.41,0,.89,.35,1.01,.7,.24,.58,.36,.58,.36,0,.06-.47-.42-.93-1.01-1.1-.59-.12-1.78-1.1-2.61-2.09-.89-1.05-2.13-2.5-2.79-3.31s-1.19-1.22-1.25-.99Z"/>
  <path d="M2.87,235.9c.36,.12,.71,.58,.71,.93,0,.41,.71,1.34,1.6,2.15,1.48,1.39,1.54,1.39,.83,.12-.36-.7-.95-1.28-1.19-1.28-.3,0-.65-.52-.83-1.16s-.65-1.16-1.13-1.1c-.59,0-.59,.12,0,.35Z"/>
  <path d="M111.75,237.19c-.18,.29-.06,.58,.24,.58,.36,0,.65-.29,.65-.58,0-.35-.12-.58-.24-.58-.18,0-.47,.23-.65,.58Z"/>
  <path d="M245.59,237.43c-.41,.47-.53,.93-.24,1.1s.71-.06,.89-.58c.47-1.28,.24-1.45-.65-.52Z"/>
  <path d="M189.46,239.78c-1.24,1.11-2.01,2.04-1.66,2.04,.59,0,4.27-3.32,4.27-3.84,0-.41-.24-.23-2.61,1.8Z"/>
  <path d="M112.64,238.88c0,.58,1.13,1.45,1.48,1.16,.06-.12-.18-.58-.65-.99s-.83-.46-.83-.17Z"/>
  <path d="M167.77,239.9c.47,.17,1.13,.7,1.36,1.1,.24,.47,.83,.81,1.3,.81,.41,0,.89,.29,1.01,.7,.18,.52,.36,.52,.71,0,.24-.41-.12-.81-1.07-1.05-.77-.17-1.6-.7-1.78-1.16s-.77-.81-1.36-.76c-.83,0-.89,.12-.18,.35Z"/>
  <path d="M7.14,240.61c0,.41,.47,.93,1.07,1.1,.53,.23,1.19,.64,1.42,.99,.3,.41,.47,.41,.47-.12,0-.41-.47-.93-1.01-1.1-.59-.23-1.25-.64-1.48-.99-.3-.41-.47-.41-.47,.12Z"/>
  <path d="M242.45,240.51c0,.29-.53,.7-1.19,.87s-1.19,.64-1.19,1.11,.18,.52,.47,.17c.24-.35,1.07-.87,1.84-1.22,1.01-.41,1.24-.76,.77-1.05-.42-.23-.71-.17-.71,.12Z"/>
  <path d="M117.39,242.43c.83,.64,2.13,1.1,2.96,1.05q1.42-.06-.12-.29c-.95-.12-1.66-.46-1.66-.7,0-.29-.59-.64-1.3-.81q-1.3-.35,.12,.76Z"/>
  <path d="M186.14,242.28c0,.41-.71,.76-1.6,.76q-1.54,.12-.24,.35c1.42,.29,2.96-.64,2.25-1.4-.24-.17-.41-.06-.41,.29Z"/>
  <path d="M11.46,243.46c.53,.12,1.36,.12,1.78,0,.36-.17-.06-.29-1.07-.29-.95,0-1.3,.12-.71,.29Z"/>
  <path d="M129.72,243.41c.36,.12,1.07,.12,1.48,0,.36-.17,.06-.29-.77-.29s-1.13,.12-.71,.29Z"/>
  <path d="M173.28,243.39c.53,.12,1.36,.12,1.78,0,.36-.17-.06-.29-1.07-.29-.95,0-1.3,.12-.71,.29Z"/>
  <path d="M228.23,243.54c2.61,.64,7.59,.93,8.12,.4,.18-.23-.95-.41-2.55-.41s-3.97-.11-5.28-.29l-2.37-.29,2.07,.58Z"/>
  <path d="M237.59,243.37c.36,.12,1.07,.12,1.48,0,.36-.17,.06-.29-.77-.29s-1.13,.12-.71,.29Z"/>
  <path d="M122.6,243.99c.41,.17,.95,.12,1.13-.06,.24-.17-.12-.35-.77-.29-.65,0-.83,.17-.36,.35Z"/>
  <path d="M126.75,243.99c.41,.17,.95,.12,1.13-.06,.24-.17-.12-.35-.77-.29-.65,0-.83,.17-.36,.35Z"/>
  <path d="M176.13,243.86c.53,.46,4.45,.7,5.57,.23,.77-.29-.06-.47-2.31-.46-1.96-.06-3.38,.06-3.26,.23Z"/>
  <path d="M15.21,265.61c-.18,.29,.47,.35,1.42,.23s2.55,.06,3.56,.35c1.01,.35,2.25,.46,2.85,.23,.71-.23,.18-.52-1.66-.81-3.73-.52-5.81-.52-6.16,0Z"/>
  <path d="M125.69,265.62c3.08,.46,5.99,1.51,8.6,3.14,1.07,.64,1.9,1.45,3.8,3.72,.36,.35,.77,1.34,1.01,2.21,.24,1.05,.53,1.34,.83,.81,.47-.7-2.67-6.34-3.5-6.34-.3,0-1.07-.52-1.84-1.16s-1.72-1.16-2.13-1.16-.83-.23-.95-.58c-.06-.29-2.19-.7-4.62-.81-4.03-.29-4.15-.23-1.19,.17Z"/>
  <path d="M174.3,265.6c-1.6,.35-1.84,.52-1.07,.87,.53,.23,1.48,.17,2.19-.18,.65-.35,2.25-.64,3.56-.64,2.61,0,8.95,2.09,8.95,2.96,0,.29,.36,.52,.77,.52,.89,0,2.55,1.8,3.02,3.37,.24,.64,.77,1.51,1.25,1.86,.47,.41,.89,1.45,.89,2.38s.3,1.69,.59,1.69c.89,0,.71,5.06-.12,5.41-.41,.17-.3,.35,.36,.35,1.07,.06,1.07-.29,.71-4.48-.18-2.44-.65-4.59-.95-4.65-.36-.12-.59-.58-.59-1.05s-.36-.99-.83-1.16-1.01-.99-1.19-1.74c-.24-.81-1.07-1.74-1.84-2.09-.83-.35-1.48-.87-1.48-1.16,0-.23-.36-.47-.83-.46s-1.24-.41-1.78-.87c-1.01-1.05-8.42-1.62-11.62-.93Z"/>
  <path d="M229.13,265.47c-2.96,.64-9.19,4.71-9.18,6.05,0,.29-.71,1.16-1.54,1.98s-1.36,1.86-1.18,2.33c.12,.41,0,.87-.3,.99-.83,.29-.77,8.84,.06,9.07,.3,.12,.59,.58,.59,.99,0,.93,4.57,6.69,5.34,6.68,.3,0-.18-.76-1.07-1.69-2.61-2.79-3.02-3.43-2.67-3.78,.24-.17,.06-.35-.3-.35-.41,0-.71-.64-.71-1.34,0-.76-.18-1.57-.42-1.8-1.13-1.1,.41-10.76,1.83-11.51,.53-.29,.95-.76,.95-1.05,0-.87,1.95-2.91,2.78-2.91,.41,0,.77-.23,.77-.58,0-.29,.65-.7,1.48-.93,.83-.17,1.48-.58,1.48-.93,0-.29,.36-.47,.77-.41,.36,.06,1.96-.06,3.44-.29,1.6-.29,3.67-.18,4.98,.17,1.24,.35,2.55,.41,2.9,.17,1.24-.76-7.05-1.51-10.02-.87Z"/>
  <path d="M9.87,266.78c-1.54,.87-4.62,3.72-6.7,6.17-.41,.47-.89,1.57-1.07,2.5-.18,.87-.65,2.56-1.01,3.72-.41,1.4-.41,2.44-.06,3.14,.47,.76,.71,0,1.01-3.14,.24-2.27,.65-4.13,1.01-4.13,.3,0,.53-.23,.53-.52,0-1.05,2.67-4.65,3.44-4.71,.41,0,.89-.41,1.07-.81,.18-.47,1.66-1.28,3.26-1.8s2.9-1.05,2.9-1.22c0-.58-2.79-.06-4.39,.82Z"/>
  <path d="M118.46,266.09c-.3,.7-3.91,3.08-4.62,3.08-.3,0-.59,.23-.59,.52s-.36,.93-.77,1.34c-1.36,1.45-2.78,3.9-2.31,4.19,.24,.12,1.19-.99,2.07-2.44,1.84-2.91,4.27-4.77,7.76-5.93,1.19-.35,2.13-.76,2.13-.93,0-.41-3.44-.23-3.67,.18Z"/>
  <path d="M25.11,267.64c.89,.41,1.42,.93,1.25,1.16-.24,.23-.06,.41,.42,.41,1.78,0,4.98,4.88,5.58,8.43,.65,3.72,.71,7.85,.18,7.85-.3,0-.47,.52-.47,1.16s-.24,1.16-.59,1.16c-.3,0-.36,.47-.18,.99,.3,.81,.53,.64,.95-.76,.36-.93,.83-1.86,1.13-2.04,.71-.47,.71-8.72,0-9.19-.3-.17-.71-.99-.89-1.8-.48-2.04-5.69-7.44-7.53-7.79q-1.36-.29,.18,.41Z"/>
  <path d="M170.33,267.41c-.77,.29-1.36,.81-1.36,1.16,0,.29-.41,.58-.89,.58s-.89,.35-.89,.81-.41,.93-.89,1.16c-.47,.17-.89,.64-.89,.99,0,.41-.41,.99-.89,1.34-.53,.35-1.07,1.98-1.3,3.66-.18,1.69-.59,3.08-.83,3.08-.3,0-.53,.23-.53,.58,0,.29,.42,.41,.89,.23,.53-.23,.89-1.11,.89-2.38,0-3.26,2.84-7.39,7.05-10.35,2.13-1.51,1.96-1.8-.36-.87Z"/>
  <path d="M240.09,267.38c.47,.29,1.3,.52,1.78,.52,.59,0,.47-.17-.3-.52-1.6-.7-2.55-.7-1.48,0Z"/>
  <path d="M242.82,269.24c.71,.29,1.9,1.57,2.67,2.85,.77,1.22,1.6,2.27,1.78,2.27,.24,0,.53,1.57,.77,3.49,.24,1.98,.65,3.37,1.01,3.2,.71-.47,.71-2.62-.06-2.62-.3,0-.59-.87-.59-1.92s-.48-2.5-1.01-3.26c-2.97-3.78-3.91-4.71-4.8-4.65-.77,0-.71,.17,.24,.64Z"/>
  <path d="M109.1,277.84c0,1.34-.3,2.38-.65,2.38s-.41,.29-.12,.7c.24,.41,.65,1.92,.89,3.37l.42,2.62-.18-3.08c-.12-1.69,0-4.13,.23-5.41s.18-2.44-.06-2.62c-.3-.17-.53,.76-.53,2.04Z"/>
  <path d="M140.76,279.52c.06,3.78,.12,4.07,.77,2.62,.36-.87,.41-1.74,.18-1.92-.3-.17-.59-1.34-.77-2.62-.12-1.28-.18-.41-.18,1.92Z"/>
  <path d="M162.81,282.41c-.18,.29,.06,1.69,.48,3.08l.83,2.56-.3-2.91c-.36-3.2-.48-3.55-1.01-2.73Z"/>
  <path d="M248.1,284.65c-.24,1.57-.71,2.97-1.07,3.2s-.47,.58-.24,.81c.59,.64,1.07,0,1.54-2.21,.3-1.05,.65-2.5,.89-3.26,.24-.7,.18-1.28-.12-1.28s-.77,1.22-1.01,2.73Z"/>
  <path d="M140.64,285.45c0,.81,.12,1.1,.3,.7,.12-.35,.12-1.05,0-1.45-.18-.35-.3-.06-.3,.76Z"/>
  <path d="M193.87,285.95c0,1.45,.36,1.57,.77,.35,.24-.47,.12-.99-.18-1.16-.36-.23-.59,.17-.59,.81Z"/>
  <path d="M110,287.2c-.18,.29-.06,.58,.24,.58,.36,0,.65-.29,.65-.58,0-.35-.12-.58-.24-.58-.18,0-.47,.23-.65,.58Z"/>
  <path d="M164.88,288.23c-.06,1.16,1.07,3.02,1.9,3.02,.53,0,.53-.12,0-.47-.42-.23-.95-1.1-1.3-1.86-.3-.81-.59-1.1-.59-.7Z"/>
  <path d="M110.88,288.83c0,.29,.42,.87,.89,1.28s.89,.52,.89,.35c0-.23-.42-.81-.89-1.28-.47-.52-.89-.64-.89-.35Z"/>
  <path d="M29.98,290.14c-.24,.7-.3,1.4-.12,1.57,.18,.12,.47-.29,.71-.99s.3-1.4,.12-1.57c-.18-.12-.47,.29-.71,.99Z"/>
  <path d="M138.39,289.4c-1.01,.7-1.48,2.44-.53,2.09,.41-.17,.89-.81,1.07-1.45q.36-1.22-.53-.64Z"/>
  <path d="M4.19,290.33c0,.58,2.85,3.6,3.14,3.31,.12-.17-.59-1.05-1.48-2.03-.89-.93-1.66-1.51-1.66-1.28Z"/>
  <path d="M190.25,291.82c-.83,.87-1.9,1.69-2.37,1.86s-.65,.52-.41,.76,1.01-.12,1.72-.81c.77-.7,1.54-1.22,1.78-1.22,.41,0,1.3-1.8,1.01-2.04-.12-.06-.89,.58-1.72,1.45Z"/>
  <path d="M244.49,291.51c-.36,.93-4.62,3.49-6.46,3.9-1.07,.23-1.07,.35-.18,.7,.65,.29,1.36,.12,1.96-.47,.53-.52,1.36-.93,1.84-.93s.83-.23,.83-.52,.53-.76,1.19-.93,1.19-.7,1.19-1.16c0-.41,.36-.93,.77-1.05,.53-.23,.53-.35-.06-.35-.41-.06-.89,.35-1.07,.81Z"/>
  <path d="M28.55,292.24c0,.64,.18,.81,.36,.35,.18-.41,.12-.93-.06-1.1-.18-.23-.36,.12-.3,.76Z"/>
  <path d="M112.66,291.85c0,.35,.71,.93,1.66,1.34,.89,.35,1.84,.99,2.08,1.39s.83,.76,1.3,.76c.41,0,.89,.35,1.07,.7,.18,.58,.42,.58,1.01,.12,.53-.52,.3-.76-1.07-1.1-1.01-.17-1.96-.76-2.13-1.22s-.71-.81-1.19-.81-1.3-.41-1.78-.93c-.53-.46-.95-.64-.95-.23Z"/>
  <path d="M135.49,293.01c-.18,.35,.06,.41,.53,.23,1.07-.41,1.24-.81,.41-.81-.36,0-.77,.23-.95,.58Z"/>
  <path d="M26.13,293.93c-.41,.47-.53,.87-.36,.87,.24,0,.83-.41,1.3-.87,.53-.47,.65-.87,.36-.87s-.89,.41-1.3,.87Z"/>
  <path d="M169.57,294.16c.77,.64,1.78,1.16,2.31,1.1,.77,0,.83-.12,.06-.35-.47-.23-1.25-.7-1.66-1.16-.42-.41-1.07-.76-1.42-.76s-.06,.52,.71,1.16Z"/>
  <path d="M8.34,294.17c0,.52,1.78,1.39,2.13,1.05,.12-.06-.36-.47-.95-.87-.65-.41-1.19-.46-1.19-.17Z"/>
  <path d="M132.94,294.52c-.41,.47-.47,.81-.18,.81,.59,0,1.48-1.11,1.18-1.45-.12-.06-.59,.17-1.01,.64Z"/>
  <path d="M185.1,295.14c-.71,.12-1.19,.52-1.01,.81,.53,.81,1.9,.64,2.31-.35,.18-.47,.24-.81,.18-.81-.06,.06-.71,.23-1.48,.35Z"/>
  <path d="M11.9,295.97c0,.29,.3,.58,.59,.58,.36,0,.59-.29,.59-.58,0-.35-.24-.58-.59-.58-.3,0-.59,.23-.59,.58Z"/>
  <path d="M21.62,295.9c-.3,.29-1.07,.64-1.72,.81q-1.19,.29,0,.35c1.3,.06,3.08-.87,2.61-1.34-.18-.17-.59-.12-.89,.17Z"/>
  <path d="M129.56,295.92c-.18,.29-2.13,.64-4.33,.7-3.2,.06-3.44,.12-1.3,.29,3.32,.29,7.71-.29,7.71-1.05,0-.7-1.6-.7-2.07,.06Z"/>
  <path d="M173.13,295.9c0,.29,.3,.58,.59,.58,.36,0,.59-.29,.59-.58,0-.35-.24-.58-.59-.58-.3,0-.59,.23-.59,.58Z"/>
  <path d="M227.07,295.88c0,.29,.3,.58,.65,.58,.3,0,.41-.29,.24-.58-.18-.35-.47-.58-.65-.58-.12,0-.24,.23-.24,.58Z"/>
  <path d="M229.38,296.63c.24,.23,2.07,.41,3.97,.29l3.5-.18-3.97-.29c-2.19-.17-3.73-.06-3.5,.18Z"/>
  <path d="M14.15,296.95c.41,.17,.95,.12,1.13-.06,.24-.17-.12-.35-.77-.29-.65,0-.83,.17-.36,.35Z"/>
  <path d="M16.52,296.95c.36,.12,1.07,.12,1.48,0,.36-.17,.06-.29-.77-.29s-1.13,.12-.71,.29Z"/>
  <path d="M175.67,296.89c.53,.12,1.48,.12,2.07,0,.53-.17,.06-.29-1.07-.29s-1.6,.12-1.01,.29Z"/>
  <path d="M179.82,296.89c.53,.12,1.48,.12,2.07,0,.53-.17,.06-.29-1.07-.29s-1.6,.12-1.01,.29Z"/>
  <path d="M15.47,318c0,.23-1.19,.64-2.61,.76-1.48,.18-3.08,.7-3.56,1.22-.53,.52-1.42,1.05-2.01,1.22-.53,.17-1.66,1.34-2.49,2.5-.83,1.22-1.72,2.38-1.95,2.56-.3,.17-.65,1.51-.83,2.91s-.59,3.02-.89,3.55c-.3,.64-.3,1.05,0,1.05,.65,0,1.3-2.04,1.3-4.25,0-.87,.3-1.57,.59-1.57,.36,0,.59-.29,.59-.7,0-.87,2.49-4.54,3.14-4.54,.24,0,.95-.52,1.6-1.16s1.6-1.16,2.07-1.16,.89-.23,.89-.52,1.72-.7,3.85-.93c3.85-.41,5.39-1.46,2.07-1.45-.95,0-1.78,.23-1.78,.52Z"/>
  <path d="M69.11,318.04c.24,.35-.36,.58-1.42,.58-2.13,0-7.53,2.68-6.28,3.08,.41,.17,.89,.17,1.01-.06s1.24-.93,2.49-1.57c3.44-1.69,10.49-1.57,13.69,.34,4.74,2.73,8.01,7.32,8.01,11.22,0,1.1,.36,2.15,.77,2.27,.47,.23,.53,.46,.06,.81-.36,.23-.83,1.74-1.01,3.37-.24,1.86-.18,2.5,.18,1.74,.3-.64,.53-1.86,.53-2.79,.06-.87,.36-1.57,.65-1.57,.36,0,.59-.81,.59-1.74,0-.99-.3-1.74-.59-1.74-.36,0-.59-.35-.47-.76,.35-1.92-1.9-6.28-4.86-9.13-1.78-1.8-5.22-3.49-7-3.49-1.01,0-2.02-.29-2.19-.58-.18-.35-1.3-.58-2.43-.58-1.24,0-1.96,.23-1.72,.58Z"/>
  <path d="M122.99,317.96c.18,.29,2.13,.7,4.33,.93,2.25,.23,4.15,.58,4.33,.81,.53,.64,4.09,2.96,4.57,2.96s.83,.52,2.55,3.84c.47,.93,1.07,1.86,1.36,2.03,.24,.17,.53,2.21,.59,4.48,.06,2.85,.24,3.72,.59,2.85,.53-1.34,.06-6.16-.83-8.37-.24-.7-1.01-1.8-1.6-2.38s-1.25-1.51-1.48-2.03c-.18-.52-.83-.99-1.3-.99-.53,0-.77-.29-.59-.58,.18-.35-.06-.58-.53-.58s-1.13-.41-1.42-.93c-.3-.58-1.66-1.05-3.26-1.22-1.54-.17-2.79-.58-2.79-.81,0-.29-1.07-.52-2.43-.52s-2.25,.23-2.07,.52Z"/>
  <path d="M177.11,318.17c-.18,.52,.3,.7,1.72,.52,2.73-.35,3.2-1.28,.65-1.28-1.13,0-2.19,.35-2.37,.76Z"/>
  <path d="M231.22,317.97c0,.29,.77,.58,1.72,.58,1.01,0,1.96-.29,2.13-.58,.24-.35-.47-.58-1.72-.58s-2.13,.23-2.13,.58Z"/>
  <path d="M21.39,319.16c2.9,.46,8.18,4.01,8.83,5.99,.36,.87,.83,1.63,1.19,1.63,.3,0,.77,1.45,.95,3.2,.24,1.74,.65,3.37,.95,3.55s.24,.81-.12,1.45-.47,1.57-.3,2.04,.06,.81-.24,.81c-.36,0-.59,.64-.59,1.45s-.3,1.45-.65,1.45c-.3,0-.41,.29-.18,.7,.3,.47,.65,.23,1.07-.76,.36-.76,.83-1.57,1.13-1.74,.71-.52,.77-9.83,.06-10.29-.36-.23-.77-.87-1.01-1.45-.59-1.57-4.21-6.1-5.16-6.45-.47-.23-1.54-.76-2.37-1.22s-2.43-.81-3.56-.75l-2.07,.06,2.07,.35Z"/>
  <path d="M117.24,319.76c-.83,.64-1.66,1.16-1.84,1.16-.53,0-2.73,1.98-2.73,2.44,0,.23-.65,1.11-1.48,1.98-1.54,1.63-1.9,2.56-.95,2.56,.3,0,.77-.52,.95-1.16s.59-1.16,.89-1.16,.65-.47,.89-1.11c.41-1.4,6.16-5.12,8.36-5.47,1.54-.23,1.48-.23-.42-.35-1.36,0-2.73,.35-3.67,1.11Z"/>
  <path d="M173.91,318.99c.53,.12,1.36,.12,1.78,0,.36-.17-.06-.29-1.07-.29-.95,0-1.3,.12-.71,.29Z"/>
  <path d="M183.03,318.98c1.01,.12,2.19,.64,2.55,1.1,.42,.47,1.07,.81,1.48,.81,.47,0,.89,.23,1.01,.58s.47,.35,1.07,0c.77-.47,.77-.58-.06-.58-.53,0-1.54-.52-2.31-1.16-.89-.76-2.13-1.1-3.5-1.05q-2.13,.06-.24,.29Z"/>
  <path d="M225.53,319.43c-.18,.47-.89,.99-1.54,1.22-1.3,.41-5.33,4.01-4.86,4.42,.12,.17-.12,.64-.65,1.05-.47,.41-.89,1.05-.89,1.45,0,.47-.24,.87-.47,.99-.3,.06-.71,1.28-.95,2.62-.3,1.92-.18,2.5,.48,2.5,.53,0,.89-1.05,1.18-3.2,.24-1.92,.83-3.66,1.42-4.25s1.48-1.57,1.96-2.21c1.48-1.98,5.27-4.48,7.53-4.95l2.19-.41-2.55-.06c-1.72-.06-2.61,.23-2.84,.82Z"/>
  <path d="M237.15,319.08c2.25,.46,5.34,2.21,5.34,3.02,0,.29,.36,.52,.83,.52s1.07,.52,1.25,1.16,.59,1.16,.89,1.16c.24,0,.65,.64,.83,1.45,.24,.81,.65,1.45,.95,1.45,.36,0,.59,.7,.59,1.57,0,2.21,.59,4.24,1.25,4.24,.3,0,.53-.41,.53-.87s-.24-.87-.53-.87c-.24,0-.65-1.16-.77-2.56-.36-2.73-.71-3.31-4.09-6.69-3.32-3.31-4.74-4.13-7.06-4.07l-2.07,.06,2.07,.41Z"/>
  <path d="M171.36,319.74c0,.29-.36,.58-.77,.58-.71,0-3.2,2.21-5.98,5.29-.59,.7-1.24,2.38-1.42,3.78-.12,1.4-.53,2.56-.77,2.56-.3,0-.53,.41-.53,.87s.36,.87,.83,.87c.53,0,.89-.99,1.07-3.26s.59-3.43,1.24-3.84c.59-.29,1.01-.81,1.01-1.16,0-.81,4.09-4.42,5.51-4.89,1.07-.35,1.42-1.4,.41-1.4-.3,0-.59,.23-.59,.58Z"/>
  <path d="M59.51,322.52c-.41,.12-.77,.64-.77,1.11s-.41,.99-.89,1.16c-.47,.23-.71,.58-.53,.87s.12,.52-.18,.52c-.65,0-2.07,4.59-1.66,5.29,.24,.29,.06,.52-.24,.52-.36,0-.59,.87-.59,1.86q.12,1.8,.36,.29c.12-.87,.47-1.45,.71-1.28,.3,.12,.65-1.11,.77-2.73,.18-1.69,.65-3.14,1.01-3.26s.65-.58,.65-1.05,.41-.99,.89-1.16c.47-.23,.89-.7,.89-1.11s.36-.93,.77-1.05c.36-.17,.47-.29,.12-.29-.3,0-.95,.12-1.3,.29Z"/>
  <path d="M189.5,322.53c1.72,1.1,4.39,5.64,4.39,7.5,0,1.05,.24,1.92,.53,1.92,.36,0,.71,.87,.83,1.86,.12,1.05,.18,.87,.06-.41-.42-4.3-1.31-7.15-2.79-8.72-.36-.47-1.07-1.22-1.48-1.74-.42-.47-1.07-.87-1.48-.87-.47,0-.53,.17-.06,.47Z"/>
  <path d="M109.12,330.41c0,1.05-.3,2.21-.71,2.62-.53,.52-.47,.7,.3,.7,.71,0,1.01-.47,1.01-1.69,0-.93,.18-2.09,.35-2.62s.06-.93-.3-.93-.65,.87-.65,1.92Z"/>
  <path d="M216.41,336.53c0,1.34,.24,2.38,.53,2.38s.65,.52,.83,1.16,.65,1.16,1.13,1.16c.53,0,.59-.12,.06-.47-.36-.23-.83-1.63-1.07-3.2-.53-3.49-1.48-4.13-1.48-1.05Z"/>
  <path d="M248.42,335.47c0,.64,.24,1.05,.59,.81,.3-.17,.41-.7,.18-1.16-.42-1.22-.77-1.1-.77,.35Z"/>
  <path d="M109.3,336.92c0,1.28,.12,1.74,.24,.99,.12-.7,.12-1.74,0-2.33-.18-.52-.3,.06-.24,1.34Z"/>
  <path d="M163.07,336.55c0,.99,.24,1.86,.48,2.04,.24,.12,.36-.64,.24-1.74-.3-2.44-.71-2.62-.71-.29Z"/>
  <path d="M55.48,336.83c-.24,.64-.12,1.69,.36,2.62,1.13,2.21,2.91,4.48,2.91,3.72,0-.35-.42-1.05-.89-1.51-.53-.52-1.19-2.03-1.42-3.37-.36-1.92-.59-2.27-.95-1.45Z"/>
  <path d="M193.89,338.34c0,.64,.3,1.16,.59,1.16,.36,0,.59-.52,.59-1.16s-.24-1.16-.59-1.16c-.3,0-.59,.52-.59,1.16Z"/>
  <path d="M247.95,338.32c0,.81,.12,1.1,.3,.7,.12-.35,.12-1.05,0-1.45-.18-.35-.3-.06-.3,.76Z"/>
  <path d="M140.6,338.71c0,.64,.18,.81,.36,.35,.18-.41,.12-.93-.06-1.1-.18-.23-.36,.12-.3,.76Z"/>
  <path d="M110.37,340.06c-.06,1.05,2.85,5.29,3.62,5.29,.3,0,.18-.41-.24-.87-1.78-1.92-2.31-2.67-2.85-3.89-.3-.76-.53-.93-.53-.52Z"/>
  <path d="M139.36,340.17c0,.81-.53,1.63-2.96,4.42-.36,.41-.41,.76-.12,.76,.36,0,1.01-.64,1.48-1.4,.53-.76,1.3-1.75,1.78-2.21,.59-.58,.71-1.16,.35-1.69-.42-.7-.53-.64-.53,.12Z"/>
  <path d="M192.88,341.02c-.89,.93-.95,1.4-.24,1.4,.47,0,1.42-1.75,1.13-2.04-.12-.12-.53,.17-.89,.64Z"/>
  <path d="M3.15,341.56c.42,.47,.89,.7,1.01,.64,.3-.35-.59-1.45-1.19-1.45-.3,0-.24,.35,.18,.81Z"/>
  <path d="M246.35,341.28c-.65,.93-.06,1.1,.77,.17,.41-.47,.47-.81,.18-.81s-.77,.29-.95,.64Z"/>
  <path d="M219.2,342.28c-.18,.23,.06,.76,.53,1.1,.42,.41,.89,.52,1.01,.29,.18-.23-.06-.76-.53-1.1-.42-.41-.89-.52-1.01-.29Z"/>
  <path d="M29.88,343.35c-.18,.52-.18,1.05-.06,1.22,.18,.17,.47-.23,.65-.93,.36-1.34-.06-1.57-.59-.29Z"/>
  <path d="M190.04,344.8c-.95,.93-1.6,1.69-1.36,1.69,.59,0,3.67-2.85,3.38-3.14-.12-.12-1.01,.52-2.01,1.45Z"/>
  <path d="M82.81,344.61c-.36,.81-.3,.87,.3,.35,.41-.41,.59-.87,.41-1.05s-.53,.12-.71,.7Z"/>
  <path d="M5.82,344.87c.42,.41,.89,.58,1.07,.41s-.12-.52-.71-.7c-.83-.35-.89-.29-.36,.29Z"/>
  <path d="M58.75,344.44c0,.12,.42,.41,.95,.58,.47,.17,.71,.12,.53-.23-.36-.58-1.48-.81-1.48-.35Z"/>
  <path d="M243.68,344.72c-.53,.35-.59,.58-.18,.58,.36,0,.89-.29,1.07-.58,.47-.7,.24-.7-.89,0Z"/>
  <path d="M221.45,345.31c.18,.29,.47,.58,.65,.58,.12,0,.24-.29,.24-.58,0-.35-.3-.58-.65-.58-.3,0-.41,.23-.24,.58Z"/>
  <path d="M61.47,345.9c-.18,.29,.06,.7,.59,.87,1.3,.46,1.48,.23,.53-.64-.47-.41-.95-.52-1.13-.23Z"/>
  <path d="M80.2,346.3c-.83,.87-.41,.99,1.3,.29,.89-.35,.95-.52,.3-.76-.47-.17-1.19,.06-1.6,.47Z"/>
  <path d="M168.76,345.85c-.18,.29,.06,.7,.59,.87,1.3,.46,1.48,.23,.53-.64-.47-.41-.95-.52-1.13-.23Z"/>
  <path d="M7.65,346.67c.3,.29,.95,.46,1.36,.35,.47-.17,.18-.41-.59-.64-1.01-.23-1.24-.17-.77,.29Z"/>
  <path d="M134.03,346.51c-.47,.29-.59,.58-.3,.58,.36,0,1.01-.29,1.48-.58s.65-.58,.3-.58c-.3,0-1.01,.29-1.48,.58Z"/>
  <path d="M224.42,347.28c1.13,.93,2.43,1.45,3.56,1.39l1.78-.06-1.78-.23c-.95-.12-2.02-.58-2.37-.99-.3-.41-1.13-.87-1.78-1.1-.83-.29-.59,0,.59,.99Z"/>
  <path d="M241.49,346.46c-.77,.29-1.36,.87-1.3,1.28,0,.58,.12,.58,.36,0,.12-.35,.65-.7,1.07-.7,.47,0,1.01-.29,1.19-.58q.41-.7-1.3,0Z"/>
  <path d="M25.32,347.42c-.65,.47-1.84,.87-2.67,.87-.77,0-1.3,.17-1.07,.35,.65,.64,4.45-.35,4.8-1.22,.41-1.05,.36-1.05-1.07,0Z"/>
  <path d="M117.84,347.5c-.47,.7,1.78,1.69,2.37,1.1,.24-.17-.06-.35-.53-.35-.53,0-1.07-.29-1.19-.7-.18-.52-.36-.52-.65-.06Z"/>
  <path d="M171.07,347.65c-.18,.29-.06,.58,.24,.58,.36,0,.65-.29,.65-.58,0-.35-.12-.58-.24-.58-.18,0-.47,.23-.65,.58Z"/>
  <path d="M130.47,348.25c-1.19,.35-1.24,.47-.3,.47,.65,0,1.72-.18,2.37-.47,1.48-.64-.06-.64-2.07,0Z"/>
  <path d="M10.74,348.53c0,.12,.77,.35,1.72,.46,1.01,.12,1.66,.06,1.48-.23-.3-.47-3.2-.7-3.2-.23Z"/>
  <path d="M66.63,348.69c.53,.12,1.01,.46,1.01,.7s.95,.46,2.07,.52c1.13,.12,2.07-.12,2.07-.47,0-.29-.65-.58-1.42-.58s-2.13-.12-3.08-.23-1.24-.06-.65,.06Z"/>
  <path d="M75.82,348.68c.36,.12,1.07,.12,1.48,0,.36-.17,.06-.29-.77-.29s-1.13,.12-.71,.29Z"/>
  <path d="M173.03,348.64c.36,.12,1.07,.12,1.48,0,.36-.17,.06-.29-.77-.29s-1.13,.12-.71,.29Z"/>
  <path d="M183.7,348.64c.36,.12,1.07,.12,1.48,0,.36-.17,.06-.29-.77-.29s-1.13,.12-.71,.29Z"/>
  <path d="M237.64,348.62c.36,.12,1.07,.12,1.48,0,.36-.17,.06-.29-.77-.29s-1.13,.12-.71,.29Z"/>
  <path d="M72.97,349.44c0,.29,.3,.58,.59,.58,.36,0,.59-.29,.59-.58,0-.35-.24-.58-.59-.58-.3,0-.59,.23-.59,.58Z"/>
  <path d="M122.76,349.42c0,.29,.53,.58,1.19,.58s1.19-.29,1.19-.58c0-.35-.53-.58-1.19-.58s-1.19,.23-1.19,.58Z"/>
  <path d="M126.62,349.42c-.18,.29,.18,.58,.89,.58s1.07-.29,.89-.58c-.18-.35-.59-.58-.89-.58s-.71,.23-.89,.58Z"/>
  <path d="M180.26,349.28c0,.23,.53,.46,1.19,.46s1.19-.23,1.19-.47-.53-.46-1.19-.46-1.19,.23-1.19,.47Z"/>
  <path d="M233.25,349.2c.59,.64,3.32,.64,2.96,.06-.18-.23-1.01-.46-1.84-.46-.89,0-1.36,.18-1.13,.41Z"/>
</svg>