<?xml version="1.0" encoding="UTF-8"?>
<svg id="Layer_1" data-name="Layer 1" xmlns="http://www.w3.org/2000/svg" viewBox="0 0 479.22 202.15">
  <defs>
    <style>
      .cls-1 {
        stroke: #606060;
        stroke-miterlimit: 10;
        stroke-width: 2px;
      }
    </style>
  </defs>
  <path class="cls-1" d="M1,25.72v25.44s25.97,0,25.97,0c6.13-.3,13.77-.64,16.84-.64h5.14c.34,0,.68,0,1.03,0h1.03s0-1.13,0-2.02c0-2.01,0-2,0-2.02-.03-1.2-.14-2.11-.24-2.95-.15-1.23-.37-2.43-.73-3.99-.84-3.68-1.92-7.19-4.01-11.28,0,0,0,0,0,0-3.76-7.25-9.56-13.44-17.33-18.49-4.18-2.71-6.93-4.25-9.75-5.3-2.33-.86-4.34-1.21-7.16-1.78C7.82,1.92,4.37,1.53,1.68,1.15h0l-.68,24.58Z"/>
  <rect class="cls-1" x="1.35" y="51.48" width="50" height="50.02"/>
  <path class="cls-1" d="M124,101.4h25.43v-25.98c-.3-6.13-.64-13.78-.64-16.84v-7.19h-2.01c-2.01,0-2,0-2.01,0-1.2,.03-2.11,.14-2.94,.24-1.23,.15-2.43,.37-3.99,.73-3.68,.84-7.19,1.92-11.28,4.01,0,0,0,0,0,0-7.24,3.76-13.44,9.57-18.48,17.33-2.71,4.19-4.25,6.93-5.29,9.76-.86,2.33-1.21,4.35-1.78,7.17-.79,3.96-1.18,7.41-1.56,10.1h0l24.57,.68Z"/>
  <path class="cls-1" d="M51.35,126.78v-25.44s-25.97,0-25.97,0c-6.13,.3-13.77,.64-16.84,.64H3.4c-.34,0-.68,0-1.03,0H1.35s0,1.13,0,2.02c0,2.01,0,2,0,2.02,.03,1.2,.14,2.11,.24,2.95,.15,1.23,.37,2.43,.73,3.99,.84,3.68,1.92,7.19,4.01,11.28,0,0,0,0,0,0,3.76,7.25,9.56,13.44,17.33,18.49,4.18,2.71,6.93,4.25,9.75,5.3,2.33,.86,4.34,1.21,7.16,1.78,3.96,.79,7.4,1.18,10.09,1.56h0l.68-24.58Z"/>
  <path class="cls-1" d="M149.54,126.75v-25.44s-25.97,0-25.97,0c-6.13,.3-13.77,.64-16.84,.64-.01,0-3.63,0-5.14,0h-2.05v2.02c0,2.01,0,2,0,2.02,.03,1.2,.14,2.11,.24,2.95,.15,1.23,.37,2.43,.73,3.99,.84,3.68,1.92,7.19,4.01,11.28,0,0,0,0,0,0,3.76,7.25,9.57,13.44,17.33,18.49,4.18,2.71,6.93,4.25,9.75,5.3,2.33,.86,4.34,1.21,7.16,1.78,3.96,.79,7.4,1.18,10.09,1.56h0l.68-24.58Z"/>
  <path class="cls-1" d="M149.54,75.87v25.44s25.97,0,25.97,0c6.13-.3,13.77-.64,16.84-.64h5.14c.34,0,.68,0,1.03,0h1.03s0-1.13,0-2.02c0-2.01,0-2,0-2.02-.03-1.2-.14-2.11-.24-2.95-.15-1.23-.37-2.43-.73-3.99-.84-3.68-1.92-7.19-4.01-11.28,0,0,0,0,0,0-3.76-7.25-9.57-13.44-17.33-18.49-4.18-2.71-6.93-4.25-9.75-5.3-2.33-.86-4.34-1.21-7.16-1.78-3.96-.79-7.4-1.18-10.09-1.56h0l-.68,24.58Z"/>
  <path class="cls-1" d="M263.22,101.68h25.43v-25.98c-.3-6.13-.64-13.78-.64-16.84v-7.19h-2.01c-2.01,0-2,0-2.01,0-1.2,.03-2.11,.14-2.94,.24-1.23,.15-2.43,.37-3.99,.73-3.68,.84-7.19,1.92-11.28,4.01,0,0,0,0,0,0-7.24,3.76-13.44,9.57-18.48,17.33-2.71,4.19-4.25,6.93-5.29,9.76-.86,2.33-1.21,4.35-1.78,7.17-.79,3.96-1.18,7.41-1.56,10.1h0l24.57,.68Z"/>
  <path class="cls-1" d="M288.76,127.04v-25.44s-25.97,0-25.97,0c-6.13,.3-13.77,.64-16.84,.64h-5.14c-.34,0-.68,0-1.03,0h-1.03v2.02c0,2.01,0,2,0,2.02,.03,1.2,.14,2.11,.24,2.95,.15,1.23,.37,2.43,.73,3.99,.84,3.68,1.92,7.19,4.01,11.28,0,0,0,0,0,0,3.76,7.25,9.57,13.44,17.33,18.49,4.18,2.71,6.93,4.25,9.75,5.3,2.33,.86,4.34,1.21,7.16,1.78,3.96,.79,7.4,1.18,10.09,1.56h0l.68-24.58Z"/>
  <path class="cls-1" d="M288.76,76.15v25.44s25.97,0,25.97,0c6.13-.3,13.77-.64,16.84-.64h5.14c.34,0,.68,0,1.03,0h1.03s0-1.13,0-2.02c0-2.01,0-2,0-2.02-.03-1.2-.14-2.11-.24-2.95-.15-1.23-.37-2.43-.73-3.99-.84-3.68-1.92-7.19-4.01-11.28,0,0,0,0,0,0-3.76-7.25-9.57-13.44-17.33-18.49-4.18-2.71-6.93-4.25-9.75-5.3-2.33-.86-4.34-1.21-7.16-1.78-3.96-.79-7.4-1.18-10.09-1.56h0l-.68,24.58Z"/>
  <rect class="cls-1" x="289.35" y="101.5" width="50" height="50.02"/>
  <path class="cls-1" d="M314.55,151.13h-25.43s0,25.98,0,25.98c.3,6.13,.64,13.78,.64,16.84v5.14c0,.34,0,.69,0,1.03v1.03s1.13,0,2.01,0c2.01,0,2,0,2.01,0,1.2-.03,2.11-.14,2.94-.24,1.23-.15,2.43-.37,3.99-.73,3.68-.84,7.19-1.92,11.28-4.01,0,0,0,0,0,0,7.24-3.76,13.44-9.57,18.48-17.33,2.71-4.19,4.25-6.93,5.29-9.76,.86-2.33,1.21-4.35,1.78-7.17,.79-3.96,1.18-7.41,1.56-10.1h0l-24.57-.68Z"/>
  <path class="cls-1" d="M402.69,101.4h25.43v-25.98c-.3-6.13-.64-13.78-.64-16.84v-7.19h-2.01c-2.01,0-2,0-2.01,0-1.2,.03-2.11,.14-2.94,.24-1.23,.15-2.43,.37-3.99,.73-3.68,.84-7.19,1.92-11.28,4.01,0,0,0,0,0,0-7.24,3.76-13.44,9.57-18.48,17.33-2.71,4.19-4.25,6.93-5.29,9.76-.86,2.33-1.21,4.35-1.78,7.17-.79,3.96-1.18,7.41-1.56,10.1h0l24.57,.68Z"/>
  <path class="cls-1" d="M428.22,126.76v-25.44s-25.97,0-25.97,0c-6.13,.3-13.77,.64-16.84,.64h-5.14c-.34,0-.68,0-1.03,0h-1.03v2.02c0,2.01,0,2,0,2.02,.03,1.2,.14,2.11,.24,2.95,.15,1.23,.37,2.43,.73,3.99,.84,3.68,1.92,7.19,4.01,11.28,0,0,0,0,0,0,3.76,7.25,9.57,13.44,17.33,18.49,4.18,2.71,6.93,4.25,9.75,5.3,2.33,.86,4.34,1.21,7.16,1.78,3.96,.79,7.4,1.18,10.09,1.56h0l.68-24.58Z"/>
  <path class="cls-1" d="M428.22,75.87v25.44s25.97,0,25.97,0c6.13-.3,13.77-.64,16.84-.64h5.14c.34,0,.68,0,1.03,0h1.03s0-1.13,0-2.02c0-2.01,0-2,0-2.02-.03-1.2-.14-2.11-.24-2.95-.15-1.23-.37-2.43-.73-3.99-.84-3.68-1.92-7.19-4.01-11.28,0,0,0,0,0,0-3.76-7.25-9.57-13.44-17.33-18.49-4.18-2.71-6.93-4.25-9.75-5.3-2.33-.86-4.34-1.21-7.16-1.78-3.96-.79-7.4-1.18-10.09-1.56h0l-.68,24.58Z"/>
  <path class="cls-1" d="M453.46,101.32h-25.43s0,25.98,0,25.98c.3,6.13,.64,13.78,.64,16.84v5.14c0,.34,0,.69,0,1.03v1.03s1.13,0,2.01,0c2.01,0,2,0,2.01,0,1.2-.03,2.11-.14,2.94-.24,1.23-.15,2.43-.37,3.99-.73,3.68-.84,7.19-1.92,11.28-4.01,0,0,0,0,0,0,7.24-3.76,13.44-9.57,18.48-17.33,2.71-4.19,4.25-6.93,5.29-9.76,.86-2.33,1.21-4.35,1.78-7.17,.79-3.96,1.18-7.41,1.56-10.1h0l-24.57-.68Z"/>
</svg>