<?xml version="1.0" encoding="UTF-8"?>
<svg id="Layer_1" data-name="Layer 1" xmlns="http://www.w3.org/2000/svg" viewBox="0 0 300 450">
  <path d="M61.44,2.79c-.49,.48-1.46,1.09-2.09,1.36-.7,.2-1.25,.82-1.25,1.29,0,.61,.21,.61,.56,.14,.28-.41,.97-.95,1.53-1.22,3.13-1.43,4.45-2.45,3.34-2.45-.63,0-1.6,.41-2.09,.88Z"/>
  <path d="M115.12,2.38c-1.46,.61-5.15,4.28-4.17,4.28,.42,0,.9-.48,1.11-1.02s1.04-1.16,1.88-1.43,1.88-.88,2.43-1.36c.97-.95,.56-1.16-1.25-.48Z"/>
  <path d="M133.89,4.62c2.22,1.97,2.78,2.31,2.78,1.77,0-.61-3.55-3.81-4.24-3.81-.49,0,.21,.88,1.46,2.04Z"/>
  <path d="M80.77,4.83c.21,.68,.63,1.02,.83,.82s0-.75-.49-1.22c-.7-.61-.76-.54-.35,.41Z"/>
  <path d="M241.11,5.1c.56,.68,1.25,1.77,1.46,2.38,.28,.68,.76,1.22,1.18,1.22,.35,0,.7,.48,.7,1.16,0,.61,.21,.95,.42,.68,.63-.54-.42-3.26-1.11-2.86-.28,.2-.76-.41-.97-1.29s-.9-1.84-1.6-2.04c-1.04-.41-1.04-.34-.07,.75Z"/>
  <path d="M82.79,6.66c.28,.88,.97,2.04,1.46,2.58,.56,.48,.97,1.9,1.04,3.06,0,1.97,.07,2.04,.7,.75,.63-1.16,.28-2.04-1.46-4.76-1.25-1.84-2.02-2.58-1.74-1.63Z"/>
  <path d="M163.58,6.87c-.63,.75-1.18,1.84-1.18,2.24,0,.48-.35,.95-.83,1.09-1.39,.48-1.04,10.2,.49,13.19,1.53,2.92,5.28,7.07,6.47,7.07,.42,0,.83,.34,.97,.75s2.78,.88,6.19,1.09c4.66,.27,6.12,.14,6.95-.61,.56-.61,1.81-1.29,2.71-1.56s2.02-.88,2.43-1.29c1.53-1.63,3.82-5.17,3.82-5.85,0-1.36-1.04-.61-2.64,1.9-1.88,2.92-5.63,5.58-8.07,5.58-.97,0-1.95,.27-2.16,.68-.21,.34-1.18,.68-2.16,.68-.9,0-1.67-.34-1.67-.68,0-.41-.83-.68-1.81-.68-4.1,0-9.94-5.3-10.5-9.59-.21-1.5-.7-2.65-.97-2.65-.9,0-.76-3.88,.07-4.42,.42-.27,.7-.82,.56-1.22-.21-1.22,.83-4.08,2.09-5.44,.56-.61,.9-1.29,.76-1.43-.14-.2-.83,.34-1.53,1.16Z"/>
  <path d="M269.96,6.87c-.63,.75-1.18,1.84-1.18,2.24,0,.48-.35,.95-.83,1.09-1.39,.48-1.04,11.7,.42,13.12,.63,.61,1.11,1.43,1.11,1.84,0,.68,2.57,3.2,5.98,5.98,.76,.61,3.2,1.09,6.26,1.22,4.24,.27,5.63,0,8.41-1.29,3.75-1.84,4.24-2.18,6.12-5.03,2.5-3.67,2.99-4.96,3.27-8.3,.21-1.77,.21-2.58,.07-1.77-.14,.88-.63,1.56-.97,1.56s-.63,1.02-.63,2.31c0,1.22-.49,2.65-1.04,3.13s-1.04,1.22-1.04,1.63c-.07,1.77-6.05,5.85-8.62,5.85-.97,0-1.95,.27-2.16,.68-.21,.34-1.18,.68-2.16,.68-.9,0-1.67-.34-1.67-.68,0-.41-.83-.68-1.88-.68-4.38,0-10.64-6.32-10.64-10.68,0-1.16-.28-2.38-.7-2.58-.35-.2-.7-1.02-.7-1.77,0-.68,.35-1.29,.7-1.29,.42,0,.7-.82,.7-1.77,0-1.02,.7-2.86,1.46-4.15,1.67-2.65,1.53-3.54-.28-1.36Z"/>
  <path d="M109,8.7c-.42,.68-.56,1.43-.21,1.63s.76-.27,.97-1.09c.56-1.97,.28-2.18-.76-.54Z"/>
  <path d="M137.09,8.5c.49,.27,.97,1.29,1.18,2.24,.28,1.5,.35,1.43,.28-.27-.07-1.16-.63-2.11-1.18-2.24-.7-.2-.76-.14-.28,.27Z"/>
  <path d="M32.03,15.16c0,5.51-.21,6.39-1.95,9.04-1.11,1.63-2.85,3.47-4.03,4.08-1.11,.68-2.02,1.36-2.02,1.63,0,.34-.7,.54-1.53,.54s-2.57,.41-3.89,.82c-1.95,.68-2.5,.68-2.71,0-.21-.41-1.39-.82-2.64-.82-1.32,0-2.78-.48-3.41-1.02-.56-.54-1.18-1.02-1.39-1.02-.83,0-3.2-2.38-3.2-3.2,0-.48-.28-.88-.7-.88-.35,0-.83-.75-1.11-1.7-.21-.95-.7-1.7-1.04-1.7-.97,0-.7,1.84,.42,2.99,.56,.54,1.04,1.16,1.04,1.43,0,.75,4.66,5.1,5.42,5.1,.42,0,.83,.34,.97,.82,.21,.48,2.43,.82,6.12,.95,5.01,.2,6.19,0,8.27-1.22,1.39-.82,2.64-1.77,2.71-2.04,.14-.27,.7-.54,1.25-.54s.97-.41,.97-.88,.63-1.36,1.39-2.04c.76-.61,1.39-1.9,1.39-2.86s.35-1.7,.7-1.7c.42,0,.7-1.9,.7-4.42s-.28-4.42-.63-4.42-.76-.68-.9-1.56c-.14-.82-.21,1.22-.21,4.62Z"/>
  <path d="M213.92,14.48c-.07,5.92,.56,8.91,2.43,10.88,.9,1.02,1.67,2.04,1.67,2.45,0,.34,.28,.61,.63,.61,.42,0,1.53,.75,2.5,1.7,1.11,.95,3.13,1.84,5.01,2.11,3.96,.54,10.15,0,10.5-1.02,.14-.41,.63-.75,1.11-.75,2.64,0,7.65-7,7.16-10q-.28-1.77-.42,.27c0,1.22-.35,2.24-.7,2.24s-.9,.61-1.11,1.43c-.56,1.56-2.78,4.01-3.75,4.01-.35,0-.97,.48-1.46,1.02s-1.74,1.02-2.85,1.02-2.02,.27-2.02,.68c0,.34-.9,.68-2.09,.68-1.11,0-2.09-.34-2.09-.68,0-.41-1.04-.68-2.36-.68s-2.85-.48-3.48-1.02c-.56-.54-1.18-1.02-1.39-1.02-.56,0-3.2-2.58-3.2-3.13,0-.2-.49-.82-1.04-1.36-.56-.61-1.04-1.63-1.04-2.38,0-.68-.35-1.29-.76-1.29s-.63-.41-.42-.88,.07-2.72-.21-4.9l-.49-4.08-.14,4.08Z"/>
  <path d="M107.82,16.18c.21,5.17,.49,6.53,1.6,7.62,.49,.48,.83,1.22,.83,1.7s.35,.88,.7,.88c.42,0,.7,.41,.7,.82,.07,.48,1.39,1.77,2.99,2.92,2.71,1.84,3.41,2.04,8.83,2.04s6.19-.2,9.25-2.04c1.81-1.09,3.27-2.38,3.27-2.79s.63-1.43,1.39-2.31,1.39-2.38,1.39-3.33c0-1.56-.21-1.36-1.6,1.29-1.81,3.54-3.27,5.1-5.28,5.78-.83,.2-1.46,.75-1.46,1.09s-.9,.61-2.09,.61c-1.11,0-2.09,.2-2.09,.48,0,.34-.97,.61-2.09,.68-1.18,.07-2.09-.14-2.09-.48,0-.41-1.04-.68-2.36-.68s-2.85-.48-3.48-1.02c-.56-.54-1.18-1.02-1.39-1.02-.56,0-3.2-2.58-3.2-3.13,0-.2-.49-.82-1.04-1.36-.56-.61-1.04-1.63-1.04-2.38,0-.68-.28-1.29-.7-1.29-.35,0-.76-1.9-.9-4.28l-.28-4.22,.14,4.42Z"/>
  <path d="M139.38,12.24c-.49,.95-.42,6.73,.07,7,.42,.27,.7-1.16,.7-3.33,0-3.13-.28-4.56-.76-3.67Z"/>
  <path d="M54.42,17.48c.49,5.58,3.06,9.86,7.65,12.65,2.99,1.84,3.89,2.04,8.97,2.04,4.38,0,5.84-.27,6.81-1.22,.7-.61,1.53-1.16,1.95-1.16,1.04,0,4.59-3.94,5.15-5.71,.28-.82,.7-1.56,.97-1.77s.7-2.18,.97-4.42c.49-3.94,.49-4.01-.56-2.11-.63,1.02-1.11,2.99-1.11,4.22,0,1.29-.21,2.31-.49,2.31-.35,0-1.32,1.29-2.29,2.79-1.95,3.13-5.21,5.37-7.86,5.37-.97,0-2.02,.27-2.22,.68-.21,.34-1.18,.68-2.16,.68-.9,0-1.67-.34-1.67-.68,0-.41-.83-.68-1.81-.68-1.88,0-5.84-1.97-5.84-2.86,0-.27-.49-.54-1.04-.54s-1.04-.48-1.04-1.02c0-.61-.49-1.22-1.04-1.43-.56-.27-1.04-.82-1.04-1.36s-.28-.95-.63-.95-.49-.61-.28-1.43c.21-.75,.07-2.04-.35-2.86s-.9-2.24-1.11-3.2c-.14-.95-.14,.27,.07,2.65Z"/>
  <path d="M42.81,224.25v183.59h54.23V250.77h52.5l-.21-25.29c-.14-16.73,.07-25.5,.56-25.97s.7,24.34,.7,80.03c0,49.77,.28,80.71,.63,80.71,.42,0,.7,.54,.7,1.16,.07,3.33,.97,9.04,1.46,9.04,.28,0,.7,1.22,.9,2.72s.83,3.2,1.46,3.74c.63,.61,1.11,1.5,1.11,2.04,0,.48,.49,1.02,1.04,1.29,.56,.2,1.04,.82,1.04,1.43,0,.54,.28,1.02,.63,1.02s.9,.68,1.18,1.5c.21,.82,.7,1.77,1.04,2.18,2.85,3.33,3.41,4.08,3.41,4.62,0,.88,2.5,3.06,4.1,3.6,.83,.2,1.46,.75,1.46,1.09s.49,.61,1.04,.61,1.04,.27,1.04,.61,.97,.95,2.09,1.36c1.18,.34,2.09,1.02,2.09,1.36,0,.41,.49,.75,1.04,.75s1.04,.27,1.04,.68c0,.34,.42,.68,.9,.68,.56,0,1.67,.61,2.57,1.36,.97,.88,2.57,1.36,4.31,1.36,1.46,0,2.64,.27,2.64,.54s.56,.54,1.25,.61c4.52,.2,9.8,1.16,9.46,1.63-.21,.34,12.45,.61,28.16,.61h28.58v-33.25c0-27.81-.14-33.66-1.04-36.11-.56-1.56-1.04-4.08-1.04-5.51s-.28-2.65-.63-2.65c-.42,0-.7-.54-.7-1.22-.07-2.58-.97-5.51-1.6-5.17-.35,.2-.56,0-.49-.48,.21-1.22-.63-4.49-1.88-7.21-.56-1.16-.97-2.45-.97-2.86s-.28-.75-.63-.75-.83-.88-1.11-2.04c-.28-1.09-.7-2.04-1.04-2.04s-.76-.95-1.04-2.04-.7-2.04-1.04-2.04-.76-.88-1.04-1.97c-.21-1.09-.9-2.18-1.46-2.38s-.97-.82-.97-1.43c0-.54-.28-1.02-.63-1.02s-.9-.68-1.18-1.5c-.21-.82-.83-1.84-1.25-2.31-.42-.41-1.25-1.5-1.81-2.31s-2.36-2.86-3.96-4.56c-1.67-1.63-2.99-3.2-2.99-3.4,0-.68-4.73-4.96-5.56-4.96-.35,0-.7-.48-.7-1.02s-.35-1.02-.83-1.02c-.42,0-1.25-.48-1.88-1.02-4.45-4.01-5.56-4.96-6.61-5.3-.63-.27-1.11-.75-1.11-1.09s-.76-.82-1.74-1.02c-.97-.27-1.74-.75-1.74-1.09,0-.41-.49-.68-1.04-.68-.63,0-1.25-.48-1.46-1.02-.28-.54-1.11-1.02-2.02-1.02-.83,0-1.95-.48-2.43-1.02s-1.39-1.02-2.09-1.02-1.6-.48-2.09-1.02-1.32-1.02-1.88-1.02-1.46-.48-2.02-1.02c-.63-.54-1.67-1.02-2.43-1.02-.7,0-1.32-.27-1.32-.68,0-.34-.42-.48-.97-.27s-1.18,.07-1.46-.34c-.21-.41-1.18-.75-2.16-.75-.9,0-1.67-.34-1.67-.75s-.49-.61-1.04-.41c-.56,.27-1.18,.14-1.39-.2-.28-.41-1.67-.68-3.2-.68s-2.71-.27-2.71-.61c0-.75-9.94-2.18-17.04-2.45-3.06-.07-5.77-.2-6.05-.27-.63-.07-.63-52.56,0-53.58,.28-.41,1.25-.88,2.22-1.09l1.74-.27-1.81-.14-1.81-.07v-17.88c.07-11.56,.35-18.02,.83-18.29,.49-.34,.42-.54-.14-.54-.49,0-.76-1.9-.7-6.12,.07-4.83,.28-6.12,1.18-6.39,.83-.2,.76-.27-.14-.34-.7,0-1.25-.34-1.25-.75,0-.34,2.29-.75,5.08-.88l5.01-.2-5.01-.14-4.94-.14,.07-24.75c.14-17.68-.07-24.89-.63-25.43-1.11-1.02-54.23-1.16-54.86-.14-.21,.41-.7,.54-.97,.41-.28-.2-.56,.2-.63,.82-.28,3.26-.07,131.71,.21,131.98,.21,.14,.35-6.19,.35-14.21,0-12.99,.14-14.35,1.11-13.53,.83,.68,6.54,.82,26.42,.75l25.31-.07v48.21h-2.57c-1.46,0-12.93,.07-25.52,.2-21.69,.2-22.88,.27-23.64,1.56-.63,1.09-.83,.68-1.18-2.79-.56-5.44-.7,13.94-.7,92.27v65.75l-1.88,.27c-1.04,.2-12.17,.27-24.82,.2l-22.95-.07-.07-156.53V92.34l12.17-.2,12.24-.14-12.24-.2-12.24-.14,.07-24.34,.07-24.27,48.67-.2c26.77-.07,49.99,0,51.59,.2l2.92,.41v19.45c0,10.68,.21,19.58,.42,19.79,.21,.27,.35-5.51,.35-12.78-.07-24.14,0-27.2,.7-27.2,.42,0,.7,6.05,.7,16.8,0,9.18,.14,16.59,.35,16.39s.42-7.55,.35-16.39v-16.05l7.16,.2c3.89,.14,8.34,.54,9.87,.95s4.73,1.09,7.16,1.56c2.36,.41,4.31,1.09,4.31,1.43s.28,.48,.56,.27c.83-.48,10.36,2.92,14.05,5.03,1.81,1.02,4.03,2.11,4.94,2.38,5.84,1.77,23.5,15.71,31.78,24.95,8.14,9.18,19.68,31.55,20.72,40.25,.21,1.5,.63,3.2,.97,3.74,.76,1.5,2.29,15.84,1.95,18.36-.21,1.16-.07,2.11,.28,2.11,.28,0,.56,.27,.56,.68,0,.34-1.46,.75-3.27,.82l-3.34,.07,3.06,.27,3.06,.27-.49,6.6c-1.88,27.13-14.32,50.86-37.27,71.19-7.09,6.32-22.04,14.42-33.37,18.22-6.12,2.04-21.9,5.24-26.21,5.37-1.6,0-3.34,.48-3.75,.95-.7,.82,.21,.95,5.21,.95,3.27,0,5.98-.27,5.98-.61s2.71-.82,5.98-1.09,5.63-.75,5.15-1.02c-.49-.34,.63-.75,2.71-1.02,1.95-.27,3.41-.75,3.2-1.02s1.18-.75,3.13-1.02c1.88-.27,3.48-.75,3.48-1.09s.76-.61,1.67-.61c.97,0,2.16-.41,2.64-.88,.49-.54,1.81-1.16,2.85-1.43,1.04-.2,1.88-.75,1.88-1.09,0-.41,.63-.68,1.32-.68,.76,0,1.81-.41,2.29-.95,.56-.48,1.67-1.16,2.5-1.36,.83-.27,1.53-.82,1.53-1.16s.49-.61,1.04-.61c.63,0,1.25-.41,1.46-.95s1.11-1.16,2.09-1.36c.9-.27,1.67-.75,1.67-1.09,0-.41,.49-.68,1.04-.68s1.04-.34,1.04-.75,.49-.54,1.11-.34c.56,.2,.9,.14,.76-.14-.21-.27,.76-1.43,2.09-2.52,1.39-1.16,3.55-3.06,4.87-4.28,1.25-1.16,2.64-2.18,2.99-2.18,.42,0,.7-.27,.7-.68,0-.34,1.67-2.38,3.75-4.42s3.96-4.28,4.24-5.03c.21-.68,.83-1.5,1.39-1.7s1.04-.82,1.04-1.43c0-.54,.28-1.02,.63-1.02s.9-.68,1.18-1.5c.21-.82,.7-1.77,1.04-2.18,2.92-3.4,3.41-4.15,3.41-4.96,0-.48,.28-.88,.63-.88s.83-.95,1.11-2.04c.28-1.16,.7-2.04,1.04-2.04s.76-.95,1.04-2.04c.28-1.16,.76-2.04,1.11-2.04s.63-.34,.63-.75,.42-1.7,.97-2.86c.9-1.97,1.74-5.03,1.95-7.14,.07-.41,.35-.82,.7-.82,.28,0,.56-.82,.56-1.9,0-1.02,.49-2.72,1.04-3.74,.56-1.09,1.04-3.47,1.11-5.3s.42-3.33,.83-3.33c.35,0,.49-.48,.28-1.02-.28-.54-.14-1.16,.21-1.36,.97-.54,.9-27.27,0-28.97-.63-1.09-1.81-7.07-2.22-11.7-.07-.61-.42-1.16-.7-1.16s-.56-.88-.56-1.97-.35-2.11-.76-2.24c-.35-.14-.9-1.5-1.11-3.13-.21-1.56-.63-2.65-.9-2.52-.28,.2-.76-.82-1.04-2.18-.21-1.36-.9-2.86-1.46-3.4s-.97-1.56-.97-2.31c0-.68-.28-1.29-.63-1.29s-.83-.95-1.11-2.04c-.28-1.16-.76-2.04-1.11-2.04s-.63-.41-.63-.88c0-.54-.63-1.63-1.39-2.52s-1.39-1.97-1.39-2.52c0-.48-.28-.88-.7-.88-.35,0-.83-.75-1.11-1.7-.21-.95-.7-1.56-.97-1.36-.35,.2-.83-.34-1.11-1.16-.28-.88-1.18-2.24-2.09-3.06s-1.67-1.84-1.67-2.24c0-.34-.49-.68-1.04-.68s-1.04-.34-1.04-.68c0-.68-.97-1.84-4.52-5.44-3.48-3.47-4.24-4.08-5.08-4.08-.49,0-.83-.48-.83-1.02s-.35-1.02-.76-1.02c-.49,0-1.53-.75-2.43-1.7s-1.95-1.7-2.36-1.7-.9-.48-1.11-1.02c-.28-.54-1.04-1.02-1.74-1.02-.76,0-1.53-.48-1.74-1.02-.28-.54-.83-1.02-1.39-1.02s-.97-.27-.97-.68c0-.34-.76-.82-1.67-1.09-.97-.2-1.88-.82-2.09-1.36s-.97-.95-1.67-.95c-.76,0-1.74-.48-2.22-1.02s-1.6-1.02-2.43-1.02c-.9,0-1.74-.48-2.02-1.02-.21-.54-.83-1.02-1.39-1.02-.49,0-1.88-.48-2.92-1.02-1.11-.54-2.57-1.02-3.2-1.02-.7,0-1.25-.27-1.25-.61s-1.32-.75-2.92-1.02-3.13-.75-3.34-1.09-2.29-.82-4.52-1.09c-2.29-.27-4.38-.75-4.59-1.09s-4.1-.82-8.55-1.02c-4.45-.2-8.07-.68-8.07-.95,0-.34-25.17-.61-55.97-.61H42.81V224.25Zm107.77-77.72v51.88h-53.54V94.72h53.54v51.81Zm8.14,106.35c2.99,.41,6.4,.88,7.51,.95,7.72,.82,19.82,4.49,29.2,8.84,6.47,2.99,18.29,10.34,22.18,13.87,12.65,11.29,20.51,21.08,26.77,33.25,3.13,6.12,6.88,15.98,7.44,19.51,.14,.75,.56,2.58,.9,4.08,.7,2.79,1.04,4.83,1.95,10.88,.28,1.84,.56,16.39,.56,32.3v28.9l-25.1,.07c-13.77,0-25.38,.27-25.8,.48-.42,.27-.9,.2-1.04-.14-.07-.34-1.46-.82-2.99-1.09-3.89-.61-8.69-1.5-10.78-1.97-.97-.2-2.71-.61-3.96-.82s-2.57-.82-3.06-1.36c-.42-.54-1.11-.95-1.46-.95-.42,0-1.88-.95-3.34-2.04-1.46-1.16-2.85-2.04-3.13-2.04s-1.95-1.09-3.75-2.31c-2.85-2.04-10.85-12.38-13.84-17.88-2.36-4.22-6.05-30.12-4.17-29.03,.49,.34,.56,.14,.14-.48-.28-.54-.63-10.54-.63-22.23-.07-21.01-.07-21.21,1.32-21.28q1.39-.14-.07-.41l-1.46-.27v-24.82c0-13.6,.28-24.75,.56-24.75,.35,0,3.06,.34,6.05,.75Z"/>
  <path d="M115.12,106.41c-1.46,.61-5.15,4.28-4.17,4.28,.42,0,.9-.48,1.11-1.02s1.04-1.16,1.88-1.43,1.88-.88,2.43-1.36c.97-.95,.56-1.16-1.25-.48Z"/>
  <path d="M132.5,106.82c0,.27,.97,1.36,2.09,2.52,1.88,1.84,2.85,2.11,1.53,.34-.83-1.09-3.62-3.33-3.62-2.86Z"/>
  <path d="M108.72,125.45c-.28,.88,0,1.84,.56,2.31,.56,.41,.97,1.09,.97,1.43,0,1.16,3.75,4.28,7.23,5.92,2.92,1.36,3.96,1.56,7.86,1.16,2.5-.27,5.01-.88,5.56-1.43s1.32-1.02,1.67-1.02c1.88,0,6.47-6.73,5.98-8.64-.28-1.16-.35-1.16-.42-.07,0,.68-.35,1.22-.7,1.22s-.83,.75-1.04,1.63c-.56,2.31-5.98,6.53-8.34,6.53-.97,0-1.81,.27-1.81,.68,0,.34-.9,.68-2.09,.68-1.11,0-2.09-.34-2.09-.68,0-.41-1.04-.68-2.36-.68s-2.85-.48-3.48-1.02c-.56-.54-1.18-1.02-1.39-1.02-.7,0-3.2-2.65-3.2-3.4,0-.41-.28-.68-.7-.68-.35,0-.9-1.02-1.25-2.24-.49-1.97-.63-2.04-.97-.68Z"/>
  <path d="M133.33,160.47c3.62,3.47,4.87,5.85,5.21,10.13,.49,4.69,1.6,5.37,1.6,.95,0-1.7-.28-3.06-.63-3.06s-.76-.95-1.04-2.04c-.21-1.16-.76-2.52-1.25-3.13-1.67-2.04-5.01-5.03-5.63-5.03-.35,0,.49,1.02,1.74,2.18Z"/>
  <path d="M138.06,176.93c0,.95-.28,1.77-.7,1.77-.35,0-.7,.41-.7,.95,0,1.22-3.96,5.17-5.21,5.17-.49,0-1.04,.27-1.18,.68-.35,1.09-6.26,1.77-10.01,1.16-4.52-.68-9.73-5.03-10.43-8.57-.35-1.7-.63-1.97-1.04-1.22-.63,1.09,1.11,5.24,2.22,5.24,.35,0,.63,.41,.63,.88s1.6,1.84,3.48,3.06c3.13,1.97,4.03,2.24,8.48,2.24,2.71,0,5.15-.27,5.35-.61s1.11-.82,2.02-1.09c.83-.27,1.53-.75,1.53-1.09,0-.27,.76-.75,1.74-.95,.97-.27,1.74-.88,1.74-1.36,0-.54,.49-1.5,1.11-2.04,1.39-1.43,2.43-5.03,1.6-5.51-.35-.27-.63,.34-.63,1.29Z"/>
  <path d="M272.12,56.3c-.7,.61-1.25,1.5-1.25,1.9,0,.48-.28,.82-.63,.82s-.9,.68-1.18,1.5c-.28,.88-.76,1.77-1.18,2.04-.42,.2-.76,2.72-.76,5.51,0,3.81,.28,5.71,1.32,7.55,.76,1.36,1.6,2.45,1.88,2.45,.35,0,.56,.48,.56,1.02s.28,1.02,.63,1.02,1.11,.41,1.6,.88c2.85,2.65,5.01,3.33,10.36,3.33,3.62,0,5.77-.34,6.47-.95,.49-.48,1.67-1.36,2.5-1.9,4.24-2.72,6.74-6.87,7.16-11.63,.14-2.04,.14-2.86,0-1.84-.14,1.09-.56,1.9-.97,1.9-.35,0-.63,1.02-.63,2.24,0,1.29-.56,2.92-1.18,3.74-.7,.75-1.74,2.04-2.29,2.79-.56,.82-1.39,1.43-1.81,1.43-.49,0-1.39,.48-1.95,1.09-2.36,2.31-13.84,2.18-15.23-.2-.28-.48-.97-.88-1.39-.88-.49,0-1.32-.68-1.88-1.43-.56-.82-1.46-1.9-2.02-2.45s-1.11-2.52-1.32-4.35c-.14-1.84-.56-3.33-.9-3.33s-.63-.48-.63-1.02,.28-1.02,.63-1.02c.28,0,.76-1.22,.97-2.72s.83-3.2,1.46-3.74c.63-.61,1.11-1.5,1.11-2.04,0-.48,.83-1.16,1.88-1.5,1.25-.41,1.53-.75,.83-1.02-.49-.2-1.53,.14-2.16,.82Z"/>
  <path d="M294.3,56.91c.83,.75,1.6,1.77,1.81,2.24,.14,.48,.56,.68,.83,.41,.56-.48-2.71-3.94-3.62-3.94-.28,0,.21,.61,.97,1.29Z"/>
  <path d="M31.96,67.59c0,4.96-.21,6.46-1.18,7.34-.63,.68-1.18,1.5-1.18,1.84,0,.95-3.55,4.01-4.59,4.01-.56,0-.97,.27-.97,.68,0,.54-1.74,1.02-6.19,1.63-3.69,.48-7.86-1.02-10.78-3.94-1.6-1.5-3.2-3.54-3.62-4.42-.42-.95-.9-1.36-1.18-1.02-.56,.95,3.62,7.07,4.8,7.07,.56,0,.97,.27,.97,.61s.7,.88,1.6,1.16c.83,.27,1.74,.75,1.95,1.16,.56,.82,11.75,.82,12.38,0,.21-.27,1.53-1.29,2.85-2.18,2.78-1.84,5.56-5.64,5.56-7.62,0-.68,.35-1.29,.7-1.29,.42,0,.7-1.84,.7-4.08s-.28-4.08-.63-4.08-.76-.68-.9-1.56c-.14-.82-.28,1.29-.28,4.69Z"/>
  <path d="M244.44,73.1c0,.82-.42,1.56-.83,1.77-.7,.2-.7,.48-.14,1.16,.63,.61,.97,.34,1.32-1.36,.28-1.16,.28-2.31,.07-2.52-.21-.27-.42,.2-.42,.95Z"/>
  <path d="M150.72,84.32c-.07,4.42,.07,8.02,.42,8.02,.28,0,.42-2.52,.28-5.58-.28-9.72-.63-10.68-.7-2.45Z"/>
  <path d="M240.76,78.81c-1.11,1.09-2.22,1.97-2.64,1.97-.35,0-.63,.48-.63,1.02,0,1.36,4.66-1.63,5.15-3.4,.49-1.84,.35-1.77-1.88,.41Z"/>
  <path d="M76.39,92.14c3.69,.14,9.8,.14,13.56,0,3.69-.07,.63-.2-6.81-.2s-10.5,.14-6.74,.2Z"/>
  <path d="M16.25,104.37c.42,.14,1.25,.14,1.74,0,.42-.2,.07-.34-.9-.34s-1.32,.14-.83,.34Z"/>
  <path d="M284.08,104.65c1.32,.34,2.92,.75,3.48,.88,1.67,.27,3.75,1.29,4.73,2.24,.49,.48,1.25,.88,1.67,.88s-.07-.61-1.04-1.36-2.09-1.36-2.43-1.36c-.42,0-.83-.27-.97-.61-.07-.34-1.95-.75-4.03-.95-3.34-.34-3.48-.34-1.39,.27Z"/>
  <path d="M21.95,105.73c1.74,.54,3.41,1.43,3.69,1.97s1.04,.95,1.53,.95c.56,0,1.04,.48,1.04,1.02s.28,1.02,.7,1.02c.35,0,.83,.75,1.11,1.7,.21,.95,.63,1.7,.9,1.7s.83,1.29,1.18,2.86c.83,3.47-.07,7.96-2.29,11.56-1.67,2.72-6.33,5.98-8.55,5.98-.76,0-1.39,.2-1.39,.48,0,.34-1.11,.61-2.43,.68-1.32,.14-2.43-.14-2.43-.48,0-.41-.9-.68-2.02-.68s-2.5-.48-3.13-1.02c-.56-.54-1.18-1.02-1.39-1.02-.76,0-3.2-2.38-3.2-3.13,0-.48-.49-.95-1.04-1.22-.56-.2-1.04-.95-1.04-1.7s-.35-1.43-.76-1.56c-1.18-.41-1.04-10.06,.14-10.81,.49-.27,.7-.75,.42-1.09-.76-.75-1.81,1.16-1.95,3.54-.35,5.37,.28,9.52,1.74,11.49,1.88,2.65,5.01,5.85,5.7,5.85,.28,0,1.11,.54,1.88,1.16,1.04,.95,2.57,1.22,7.3,1.22,4.1,0,6.05-.27,6.26-.88,.14-.41,.7-.82,1.18-.82,1.11,0,5.21-3.88,5.21-4.83,0-.41,.49-1.16,1.04-1.7,.56-.61,1.04-1.63,1.04-2.38,0-.68,.35-1.29,.7-1.29,.42,0,.7-1.84,.7-4.08s-.28-4.08-.7-4.08c-.35,0-.7-.54-.7-1.22,0-.75-.63-1.97-1.39-2.86s-1.39-1.97-1.39-2.45c0-.54-.76-1.09-1.67-1.36-.97-.2-1.88-.82-2.09-1.36s-.83-.95-1.46-.95c-.56,0-1.04-.34-1.04-.68,0-.41-1.04-.68-2.22-.68q-2.22,.07,.83,1.16Z"/>
  <path d="M4.01,110.15c-.49,.48-.83,1.09-.83,1.43s.49,.07,1.11-.54,.97-1.22,.83-1.36c-.14-.2-.7,.07-1.11,.48Z"/>
  <path d="M268.15,113.89c-.7,.75-.97,2.72-.97,6.26,0,4.56,.28,5.58,2.16,8.57,1.32,2.11,3.48,4.22,5.49,5.44,2.99,1.84,3.89,2.04,8.76,2.04,2.99-.07,5.63-.34,5.91-.68,.56-.82,2.85-2.24,4.31-2.79,1.11-.41,4.17-4.62,4.17-5.78,0-.34,.35-.61,.76-.61,.49,0,.7-.82,.49-2.04-.21-1.16-.07-2.04,.28-2.04,.28,0,.49-1.02,.49-2.24-.14-1.84-.14-1.9-.42-.48-.21,.95-.63,1.97-.97,2.31-.35,.41-.63,1.43-.63,2.38,0,2.24-4.17,8.23-5.77,8.23-.35,0-1.04,.48-1.6,1.02-.63,.54-1.95,1.02-3.06,1.02s-2.22,.27-2.43,.68c-.21,.34-1.18,.68-2.16,.68-.9,0-1.67-.34-1.67-.68,0-.41-.83-.68-1.88-.68-4.03,0-10.64-6.39-10.64-10.27,0-1.09-.42-2.58-.83-3.33-.63-1.02-.7-1.56-.14-1.9s1.95-6.32,1.46-6.26c-.07,.07-.56,.54-1.11,1.16Z"/>
  <path d="M21.25,157.68c0,.34,.63,.61,1.32,.61,.76,0,1.81,.48,2.43,1.02,.56,.54,1.25,1.02,1.6,1.02,.76,0,2.99,2.52,2.99,3.33,0,.34,.56,1.16,1.25,1.84,1.67,1.7,1.67,11.83-.07,13.53-.63,.61-1.18,1.43-1.18,1.77,0,.95-3.55,4.01-4.59,4.01-.56,0-.97,.27-.97,.61,0,1.36-7.37,2.04-12.03,1.09-2.09-.41-2.16-.41-1.11,.61,1.6,1.63,10.29,1.63,13.14,0,1.11-.68,2.09-1.43,2.09-1.7s.76-.68,1.67-.88c.97-.2,1.81-1.09,2.09-2.11,.28-.95,.76-1.7,1.11-1.7s.9-1.22,1.11-2.72c.28-1.5,.7-2.72,1.04-2.72s.63-1.56,.63-3.4-.28-3.4-.63-3.4-.76-.95-1.04-2.18c-.28-1.36-1.6-3.26-3.48-5.03-3.06-2.79-7.37-4.9-7.37-3.6Z"/>
  <path d="M275.59,158.5c-.49,.48-1.74,1.22-2.78,1.63-1.11,.48-1.95,1.16-1.95,1.56,0,.48-.49,1.22-1.04,1.77-.56,.61-1.04,1.36-1.04,1.7,0,.88,1.39-.48,2.99-2.99,.7-1.02,1.67-1.84,2.16-1.84s1.32-.41,1.81-.95c.42-.54,1.67-1.16,2.64-1.29l1.88-.27-1.88-.14c-1.04,0-2.29,.34-2.78,.82Z"/>
  <path d="M267.18,169.31c-.49,3.33,.14,9.38,.97,9.38,.28,0,.76,.68,1.04,1.5,.56,1.77,4.03,5.17,7.02,6.8,2.43,1.36,12.72,1.77,12.72,.54,0-.41,.42-.68,.9-.68,.56,0,1.67-.61,2.57-1.36s1.81-1.36,2.16-1.36c1.11,0,4.87-6.94,4.45-8.23-.28-.75-.14-1.29,.28-1.29s.7-1.22,.63-2.92q-.07-2.72-.35-.48c-.21,1.29-.63,2.65-.97,2.99-.35,.41-.63,1.5-.63,2.52s-.49,2.31-1.04,2.92c-.56,.54-1.04,1.22-1.04,1.56,0,.75-2.57,2.92-3.48,2.92-.35,0-.9,.41-1.18,.88-1.39,2.38-14.39,2.45-15.71,.14-.28-.54-.9-1.02-1.25-1.02-.9,0-2.71-1.77-2.71-2.65,0-.34-.49-.95-1.11-1.29-.76-.41-1.25-1.84-1.53-4.15-.14-1.9-.56-3.47-.9-3.47s-.63-.48-.63-1.02,.35-1.02,.7-1.02c.42,0,.7-.95,.7-2.04,0-3.06-1.18-2.45-1.6,.82Z"/>
  <path d="M.6,172.85c.28,.68,.49,2.04,.49,3.13,0,1.02,.63,2.58,1.32,3.47l1.32,1.63-.35-1.84c-.21-1.02-.63-1.7-.97-1.5s-.63-.88-.63-2.38-.35-2.92-.83-3.2c-.56-.34-.63-.14-.35,.68Z"/>
  <path d="M277.82,209.22c0,.34-.76,.82-1.74,1.02-1.74,.41-6.61,4.69-6.61,5.85,0,.34-.49,1.09-1.11,1.7-.9,.82-1.18,2.45-1.18,6.6,0,2.99,.35,5.64,.7,5.92,.42,.2,.9,1.09,1.18,1.9,.28,.88,.76,1.56,1.11,1.56,.28,0,.7,.61,.9,1.36s.83,1.36,1.46,1.36,1.11,.27,1.11,.61,.7,.88,1.6,1.16c.83,.27,1.67,.68,1.88,.95,.21,.34,2.09,.68,4.17,.88,2.09,.14,2.99,.14,1.95,0-1.11-.14-1.95-.54-1.95-.82,0-.34-1.25-.75-2.78-.95-2.71-.34-3.89-1.22-8.27-6.26-.49-.61-1.04-2.38-1.25-3.94s-.76-3.26-1.18-3.81c-.56-.75-.56-1.02,.14-1.22,.42-.2,.83-1.22,.83-2.38,0-2.38,2.02-5.85,4.24-7.34,.83-.54,1.95-1.43,2.43-1.9,.56-.54,2.29-1.09,3.82-1.29,3.55-.48,4.24-1.56,1.04-1.56-1.39,0-2.5,.27-2.5,.61Z"/>
  <path d="M8.74,210.45c-1.18,.48-5.56,4.56-5.56,5.24,0,.27,.97-.41,2.16-1.56s2.57-2.11,3.13-2.11,.97-.27,.97-.61,.56-.82,1.25-.95c.76-.2,.83-.34,.14-.34-.56,0-1.53,.14-2.09,.34Z"/>
  <path d="M23.89,210.45c.42,.14,.7,.61,.42,.95-.21,.34-.14,.54,.21,.48,1.32-.41,4.87,2.52,6.12,5.1,1.53,3.26,1.88,12.78,.49,13.26-.49,.14-.83,.61-.83,1.09,0,2.18-6.33,7.21-9.04,7.21-.76,0-1.39,.27-1.39,.54,0,.82-5.7,.95-6.19,.2-.21-.34-1.46-.82-2.78-1.09-3.41-.75-2.16,.68,1.6,1.7,3.2,.88,11.54,.41,11.54-.68,0-.34,.63-.82,1.46-1.02,2.71-.88,6.88-6.32,6.88-9.04,0-.75,.35-1.63,.7-1.84,.83-.54,.9-6.46,.07-6.46-.35,0-.83-1.09-1.04-2.38-.28-1.29-.76-2.38-1.04-2.38-.35,0-.83-.75-1.04-1.7-.28-1.02-1.11-1.84-2.09-2.11-.97-.2-1.88-.82-2.09-1.36s-.9-.95-1.6-.88c-.76,0-.9,.2-.35,.41Z"/>
  <path d="M1.37,218.27c-.28,.88-.49,3.74-.49,6.46,.07,3.81,.42,5.44,1.6,7.34,.83,1.29,1.81,2.38,2.16,2.38s.63,.48,.63,1.02,.49,1.02,1.04,1.02,1.04,.27,1.04,.68c0,.34,.56,.41,1.18,.2,.97-.34,.83-.54-.7-1.09-1.04-.34-1.88-.82-1.88-1.16s-.42-1.02-.9-1.5c-2.64-2.72-3.34-4.83-3.41-9.93-.07-3.33,.21-5.24,.7-5.44,.97-.27,1.11-1.5,.21-1.5-.35,0-.9,.68-1.18,1.5Z"/>
  <path d="M299.44,223.37c0,1.63-.35,2.92-.7,2.92-.28,0-.76,1.22-.97,2.72s-.83,3.2-1.46,3.81c-1.67,1.63-2.85,3.88-1.81,3.54,.42-.14,1.46-1.43,2.29-2.92s1.81-2.92,2.09-3.13c.35-.2,.49-.82,.42-1.36s.07-1.77,.35-2.72c.28-1.02,.42-2.72,.21-3.74-.21-1.5-.28-1.29-.42,.88Z"/>
  <path d="M138.13,223.3c0,.75,.21,.95,.42,.41,.21-.48,.14-1.09-.07-1.29-.21-.27-.42,.14-.35,.88Z"/>
  <path d="M95.23,235.13c0,4.28,.07,6.05,.21,3.88,.14-2.11,.14-5.64,0-7.82-.14-2.11-.21-.34-.21,3.94Z"/>
  <path d="M244.44,230.03c0,.95-.35,1.7-.7,1.7-.42,0-.97,.54-1.18,1.16-.63,1.5-2.43,3.6-3.2,3.6-.35,0-1.04,.48-1.6,1.02-.63,.54-2.02,1.02-3.13,1.02s-2.02,.27-2.02,.68c0,.34-1.11,.68-2.43,.68s-2.43-.34-2.43-.68c0-.41-.9-.68-2.02-.68s-2.5-.48-3.13-1.02c-.56-.54-1.18-1.02-1.39-1.02-.63,0-3.2-2.65-3.2-3.26,0-.34-.63-1.16-1.39-1.84s-1.39-1.02-1.39-.75c0,1.43,4.8,7.21,5.98,7.21,.28,0,1.11,.48,1.74,1.09,1.74,1.5,13.84,1.63,13.84,.2,0-.34,.49-.61,1.04-.61,.97,0,3.82-2.52,6.12-5.51,1.04-1.43,1.67-4.69,.83-4.69-.21,0-.35,.75-.35,1.7Z"/>
  <path d="M13.26,260.9c-.42,.34-1.32,.75-2.09,.95-.9,.2-.56,.34,.9,.41s2.16-.2,1.88-.61c-.28-.48,.42-.61,1.88-.48,1.32,.14,2.99,0,3.69-.27,.97-.34,.28-.54-2.09-.54-1.95-.07-3.82,.2-4.17,.54Z"/>
  <path d="M120.68,260.56c0,.54,4.17,.82,5.01,.27,.56-.27-.28-.54-2.02-.54s-2.99,.14-2.99,.27Z"/>
  <path d="M117.48,261.72c-.21,.34,.49,.61,1.53,.61s1.67-.2,1.39-.48c-.76-.75-2.43-.82-2.92-.14Z"/>
  <path d="M127.29,261.65c-1.11,.48-.97,.61,.9,.61,1.18,.07,2.22,.34,2.22,.68s.63,.88,1.46,1.09c1.67,.54,4.1,2.72,4.1,3.67,0,.34,.42,1.09,.97,1.56,1.25,1.29,2.43,6.73,1.74,8.36-.28,.75-.56,2.18-.56,3.2-.07,1.09-.35,1.9-.76,1.9-.35,0-.7,.41-.7,.88,0,1.36-2.43,3.88-5.42,5.64-1.53,.95-2.09,1.63-1.39,1.63,.63,0,1.6-.41,2.09-.95,.56-.48,1.6-1.09,2.43-1.36s1.67-1.22,1.88-2.11c.28-.95,.7-1.7,1.04-1.7,.7,0,1.81-3.88,1.53-5.37-.07-.48,.14-.68,.56-.41,.49,.27,.76-.88,.76-3.4,0-2.38-.28-3.67-.7-3.4-.35,.2-.7-.2-.7-.95s-.49-1.77-1.04-2.38c-.56-.54-1.04-1.29-1.04-1.56,0-.34-.9-1.5-2.09-2.58-1.11-1.09-2.09-1.7-2.09-1.36,0,.27-.56-.07-1.18-.75-1.46-1.5-2.16-1.7-4.03-.95Z"/>
  <path d="M222.96,262.4c-.76,.68-1.74,1.29-2.16,1.29-.97,0-4.87,3.88-4.87,4.83,0,.41,1.04-.41,2.36-1.7,1.25-1.36,2.64-2.45,2.99-2.45,.42,0,1.11-.48,1.6-1.02s1.67-1.02,2.64-1.02,1.53-.2,1.25-.48c-.9-.95-2.43-.75-3.82,.54Z"/>
  <path d="M277.12,261.72c0,.2-.56,.68-1.18,.88-2.16,.82-4.38,2.11-4.38,2.52,0,.2-.63,1.09-1.39,1.97s-1.39,1.97-1.39,2.52c0,.48-.28,.88-.7,.88-.35,0-.7,1.02-.7,2.24s-.35,2.58-.76,2.99c-.56,.54-.56,.88,0,1.16,.42,.27,.76,1.56,.76,2.86s.28,2.31,.63,2.31,.83,.75,1.04,1.7c.28,.95,.76,1.7,1.11,1.7,.42,0,.7,.41,.7,.88s.63,1.36,1.39,2.04c.76,.61,1.39,1.02,1.39,.82s.83,.34,1.81,1.22,3.06,1.63,4.94,1.9c2.64,.27,2.92,.2,1.95-.48-.7-.54-2.09-.75-3.41-.48-1.18,.2-1.95,.14-1.67-.14,.49-.48-2.22-3.06-3.27-3.06-.7,0-2.43-1.84-2.43-2.65,0-.34-.49-.95-1.11-1.29-.7-.41-1.25-1.9-1.53-3.94-.14-1.84-.7-3.54-1.11-3.88-.56-.34-.56-.61,0-1.02,.42-.27,.9-1.77,1.18-3.33,.21-1.56,.83-3.4,1.46-3.94,.63-.61,1.11-1.29,1.11-1.56,0-.88,6.05-4.22,7.65-4.22,.9,0,1.39-.2,1.11-.48-.63-.61-3.2-.75-3.2-.14Z"/>
  <path d="M19.93,261.92c.14,.14,1.53,.41,3.06,.61,1.88,.27,2.43,.2,1.74-.2-.97-.61-5.49-1.02-4.8-.41Z"/>
  <path d="M115.12,263.08c0,.34-.28,.48-.7,.27-.35-.2-.7-.07-.7,.27,0,.41-.49,.75-1.04,.75s-1.04,.48-1.04,1.02-.21,1.02-.49,1.02c-.35,0-1.11,.95-1.74,2.04-.63,1.16-.9,2.04-.56,2.04s.83-.61,1.04-1.36,.7-1.36,1.04-1.36,.83-.61,1.04-1.36c.28-.75,.76-1.22,1.11-1.02,.35,.27,.63,.07,.63-.27,0-.41,.42-.75,.97-.75s1.11-.48,1.39-1.02c.21-.54,.07-1.02-.28-1.02-.42,0-.7,.34-.7,.75Z"/>
  <path d="M25.84,263.62c-.28,.41-.07,.75,.42,.75s1.67,1.16,2.64,2.58c.97,1.36,2.02,2.72,2.36,2.99,.35,.2,.63,2.99,.63,6.19,.07,4.56-.21,5.98-1.11,6.87-.63,.68-1.18,1.5-1.18,1.84,0,.95-2.57,3.2-5.35,4.69q-2.57,1.36-.7,1.36c1.04,0,2.09-.48,2.29-1.02,.28-.54,.83-1.02,1.39-1.02,1.39,0,5.15-6.12,5.15-8.36,0-1.02,.35-1.84,.7-1.84,.42,0,.7-1.09,.7-2.38s-.28-2.38-.7-2.38c-.35,0-.7-.88-.7-1.97s-.49-2.45-1.04-3.06c-.56-.54-1.04-1.29-1.04-1.56,0-1.16-4.03-4.42-4.45-3.67Z"/>
  <path d="M107.68,273.55c0,1.5,.14,2.04,.28,1.16,.14-.82,.14-2.04,0-2.72-.21-.61-.35,.07-.28,1.56Z"/>
  <path d="M299.44,276.47c-.07,1.77-.35,2.79-.76,2.52s-.7,.34-.7,1.43c0,2.52-2.29,5.92-5.77,8.5-2.22,1.63-2.5,1.97-1.18,1.63,.97-.27,2.09-.88,2.5-1.43s1.11-.95,1.6-.95c.42,0,.76-.48,.76-1.02s.28-1.02,.7-1.02c.35,0,.83-.75,1.11-1.7,.21-.95,.7-1.7,.97-1.7,.7,0,1.67-7,1.18-8.3-.21-.48-.42,.41-.42,2.04Z"/>
  <path d="M.11,275.79c-.21,.41-.14,.88,.28,1.16,.35,.2,.7,1.63,.7,3.06s.49,3.06,1.04,3.67c.56,.54,1.04,1.22,1.04,1.43,0,.68,2.99,3.74,3.69,3.74,.35,0,1.04,.48,1.6,1.02,.63,.54,1.6,1.02,2.22,.95,.97,0,.97-.14,.14-.41-.56-.27-1.46-.82-1.95-1.36-.49-.48-1.39-.88-1.95-.88s-.97-.27-.97-.54c0-.34-.63-1.29-1.39-2.18s-1.39-1.97-1.39-2.52c0-.48-.28-.88-.7-.88-.35,0-.7-1.16-.7-2.58,0-2.79-.9-4.83-1.67-3.67Z"/>
  <path d="M107.68,278.99c0,1.5,.14,2.04,.28,1.16,.14-.82,.14-2.04,0-2.72-.21-.61-.35,.07-.28,1.56Z"/>
  <path d="M244.51,281.5c-.07,1.5-3.69,6.6-4.59,6.66-.83,0-3.41,2.72-2.64,2.72,1.11,0,5.15-3.2,5.49-4.42,.28-.75,.9-1.7,1.46-2.11,.63-.41,.9-1.36,.7-2.38-.14-.88-.35-1.09-.42-.48Z"/>
  <path d="M108.65,281.84c-.63,.95,2.99,6.26,4.52,6.73,.7,.2,1.11,.61,.9,.95-.42,.61,3.06,1.63,3.69,1.02,.21-.2,0-.34-.49-.34-1.74,0-6.54-4.76-7.65-7.62-.28-.82-.76-1.16-.97-.75Z"/>
  <path d="M12,291.7c-.49,.27,1.81,.54,5.01,.54s5.7-.2,5.42-.41c-.56-.61-9.53-.68-10.43-.14Z"/>
  <path d="M118.46,291.64c-.56,.41,.21,.61,2.16,.61,1.67,0,2.92-.2,2.71-.41-.7-.68-3.89-.82-4.87-.2Z"/>
  <path d="M125.9,291.57q-2.09,.54,.56,.61c1.6,.07,2.5-.2,2.22-.61-.21-.41-.49-.61-.56-.61-.07,.07-1.04,.34-2.22,.61Z"/>
  <path d="M118.59,313.33c0,.34,1.11,.68,2.43,.68s2.43-.34,2.43-.68c0-.41-1.11-.68-2.43-.68s-2.43,.27-2.43,.68Z"/>
  <path d="M124.16,313.26c0,.34,1.6,.75,3.48,1.02,1.95,.27,3.48,.75,3.48,1.09s.7,.82,1.53,1.09c1.74,.54,3.34,1.9,3.34,2.86,0,.34,.42,1.02,.97,1.43,.56,.48,1.25,2.58,1.46,4.69,.63,5.71,1.6,7.48,1.67,2.99,.07-1.9-.21-3.54-.63-3.54-.35,0-.7-.75-.7-1.63,0-.95-.42-2.11-.97-2.58-.49-.54-1.18-1.63-1.39-2.45-.28-.82-1.25-1.7-2.16-1.9s-1.81-.82-2.02-1.36-1.18-.95-2.16-.95-1.74-.34-1.74-.68c0-.41-.9-.68-2.09-.68-1.11,0-2.09,.27-2.09,.61Z"/>
  <path d="M278.52,313.33c0,.34,2.22,.61,4.87,.61,2.85,0,4.73-.27,4.52-.68-.56-.82-9.39-.82-9.39,.07Z"/>
  <path d="M23.34,314.48c2.22,.88,6.95,5.37,6.95,6.66,0,.48,.35,1.02,.76,1.16,1.04,.34,1.18,11.36,.14,11.97-.42,.27-.9,1.16-1.18,1.97-.28,.88-.83,1.56-1.18,1.56s-.63,.48-.63,1.02-.28,1.02-.56,1.02c-.35,0-1.32,.61-2.22,1.36s-2.29,1.36-3.2,1.36c-1.11,0-1.53,.34-1.25,.95,.42,1.02,3.06,.68,3.06-.34,0-.34,.42-.61,.97-.61,1.11,0,5.28-3.81,5.28-4.83,0-.41,.49-1.16,1.04-1.7,.56-.61,1.04-1.77,1.04-2.72,0-.88,.35-1.63,.7-1.63,1.6,0-.35-9.86-2.36-11.97-.42-.41-1.25-1.43-1.81-2.24-.56-.75-1.25-1.43-1.6-1.43s-1.04-.48-1.6-1.02c-.63-.54-1.6-1.02-2.22-.95-.9,0-.97,.14-.14,.41Z"/>
  <path d="M114.84,315.03c-.56,.54-1.25,1.02-1.6,1.02-.7,0-2.99,2.52-2.99,3.2,0,.2-.49,.95-1.11,1.63-.7,.75-.83,1.29-.35,1.63,.42,.2,.76-.07,.76-.68,0-.54,.49-1.22,1.04-1.43,.56-.27,1.04-.82,1.04-1.36s.21-.95,.56-.95c.28,0,1.32-.75,2.29-1.56,.9-.88,2.16-1.84,2.71-2.04,.83-.27,.83-.41-.14-.41-.63-.07-1.6,.41-2.22,.95Z"/>
  <path d="M273.93,315.57c-2.16,1.5-5.15,5.1-5.15,6.26,0,.34,.56-.07,1.25-.95,2.16-2.79,5.42-5.71,7.09-6.39q.9-.34,0-.34c-.56,0-2.02,.68-3.2,1.43Z"/>
  <path d="M2.96,320.33c-.28,1.02-.83,1.84-1.18,1.84-.42,0-.7,.88-.7,2.04,0,1.09-.28,2.04-.56,2.04s-.56,.88-.49,1.97c0,1.09,.21,1.84,.42,1.7,.28-.14,.63,1.22,.83,2.92,.21,1.77,.7,3.33,1.11,3.47s.76,.61,.76,1.09c0,1.02,4.31,5.17,5.35,5.17,.42,0,.9,.34,1.04,.82,.21,.48,.76,.61,1.67,.27,1.18-.54,1.04-.68-.9-1.22-1.25-.34-2.29-.88-2.29-1.22s-.63-.82-1.39-1.02-1.39-.88-1.39-1.43-.28-.95-.63-.95-.9-.68-1.18-1.56c-.28-.82-.76-1.7-1.11-1.9-.42-.27-.76-2.72-.76-5.44-.07-3.81,.21-5.51,1.18-6.87,.7-1.02,1.11-2.24,.97-2.72-.21-.48-.56-.07-.76,1.02Z"/>
  <path d="M267.18,325.5c-.42,3.26,.21,8.91,.97,8.91,.35,0,.63,.41,.63,.95s.42,1.43,.9,1.9,1.11,1.43,1.39,2.04c.21,.68,.9,1.22,1.53,1.22,.56,0,1.04,.27,1.04,.61s.7,.88,1.6,1.16c.83,.27,1.74,.82,2.02,1.22,.83,1.22,12.59,.95,13.98-.27,2.36-2.11,3.2-2.72,3.96-2.72,.35,0,.7-.48,.7-1.02s.28-1.02,.63-1.02,.76-.54,1.04-1.22c.21-.61,.76-1.63,1.25-2.31,.63-.82,.63-1.5,.07-2.72-.76-1.5-.83-1.5-.83,.61-.07,1.16-.49,2.58-1.04,3.06-.49,.54-1.18,1.63-1.39,2.45-.28,.82-1.25,1.7-2.16,1.9s-1.81,.82-2.02,1.36-1.04,.95-1.81,.95-1.39,.27-1.39,.68-1.88,.68-4.17,.68-4.17-.27-4.17-.61-.9-.75-2.02-.95c-2.29-.48-7.51-5.24-8.48-7.75-.35-.95-.63-2.58-.63-3.67s-.35-1.97-.83-1.97c-.63,0-.63-.2,0-.82,.97-.95,1.11-5.3,.21-5.3-.28,0-.76,1.16-.97,2.65Z"/>
  <path d="M107.61,330.73c-.14,2.72,3.48,9.79,5.01,9.79,.49,0,1.46,.75,3.69,2.72,.83,.68,2.85,1.02,7.16,1.02,4.94,0,6.26-.2,7.3-1.29q1.32-1.22-.35-.75c-.97,.27-1.81,.82-1.95,1.09-.35,.88-8.48,.75-8.48-.07,0-.41-.76-.68-1.74-.68s-1.95-.41-2.16-.95-1.11-1.16-2.02-1.36-1.88-1.02-2.09-1.77c-.28-.75-.7-1.22-1.04-1.02s-.83-.68-1.11-2.04c-.21-1.29-.7-2.38-.97-2.38-.35,0-.76-1.02-.9-2.24l-.28-2.18-.07,2.11Z"/>
  <path d="M138.13,333.11c0,1.02-.56,2.18-1.11,2.65s-1.04,1.16-1.04,1.56c0,.34-.83,1.43-1.81,2.31s-1.67,1.84-1.46,2.04c1.18,1.09,6.26-6.53,5.84-8.77q-.28-1.43-.42,.2Z"/>
  <path d="M14.99,365c0,.34-1.11,.68-2.43,.68-1.53,0-2.64,.41-2.85,.95s-1.32,1.22-2.43,1.43c-1.11,.27-1.88,.75-1.6,1.09,.21,.34-.14,.82-.7,1.02-.63,.2-.9,.68-.7,1.02s1.04-.14,1.95-1.09,1.95-1.7,2.29-1.7c.42,0,1.11-.48,1.6-1.02s1.67-1.02,2.71-1.02,2.22-.34,2.71-.82c.63-.61,1.18-.61,2.36-.07,2.02,.95,8.2,1.7,6.74,.82-.49-.34-2.16-.61-3.62-.61-1.6,0-2.5-.27-2.22-.68s-.49-.68-1.67-.68-2.16,.27-2.16,.68Z"/>
  <path d="M121.38,365c0,.41-.76,.54-1.67,.41-1.04-.2-2.22,.2-3.13,1.02-.76,.68-1.74,1.29-2.09,1.29-1.74,0-6.81,6.39-5.7,7.14,.35,.2,.9-.34,1.18-1.16,.49-1.7,3.96-5.3,5.01-5.3,.35,0,1.04-.48,1.53-1.02s1.95-1.02,3.2-1.02c1.32,0,2.36-.27,2.36-.61s.83-.82,1.95-.95q1.74-.27-.35-.41c-1.25,0-2.29,.27-2.29,.61Z"/>
  <path d="M125.83,365.75c-.21,.34,.63,.61,1.81,.61,2.29,0,8.27,3.74,8.34,5.24,0,.41,.56,1.29,1.18,1.97,.97,.95,1.25,2.38,1.18,7.34,0,5.78-.14,6.32-1.88,8.16-1.04,1.09-1.88,2.24-1.88,2.52,0,.34-.42,.61-.83,.61-.49,0-1.67,.82-2.57,1.77s-2.02,1.56-2.5,1.36c-.42-.14-1.25,0-1.81,.34-.7,.41-.28,.61,1.32,.61,1.18,0,2.22-.27,2.22-.61s.7-.88,1.53-1.09c1.74-.61,4.73-3.6,4.73-4.76,0-.48,.49-1.02,1.04-1.29,.63-.2,1.04-1.29,1.04-2.79s.28-2.31,.7-2.04,.7-1.02,.7-3.4-.28-3.67-.7-3.4c-.42,.2-.7-.34-.7-1.29,0-.88-.49-2.11-1.04-2.72-.56-.54-1.04-1.29-1.04-1.63,0-2.18-9.8-7.14-10.85-5.51Z"/>
  <path d="M277.47,365.89c-1.11,.41-2.5,1.09-2.99,1.63-.49,.48-1.39,.88-1.95,.88s-.97,.27-.97,.68c0,.34,.49,.68,1.04,.68s1.04-.2,1.04-.54c0-.88,2.99-2.38,5.56-2.86,1.46-.2,2.02-.54,1.39-.75-.56-.2-1.95-.07-3.13,.27Z"/>
  <path d="M287.21,365.75l-2.09,.48,2.09,.07c2.29,.07,8.48,3.88,8.97,5.51,.21,.75,.28,.75,.35-.2,0-.68-.42-1.36-.97-1.56-.56-.27-.9-.68-.7-.95s-.42-.75-1.39-.95c-.97-.27-1.74-.75-1.74-1.09,0-.41-.42-.68-.97-.68s-1.11-.27-1.25-.54c-.07-.27-1.11-.34-2.29-.07Z"/>
  <path d="M25.77,368.4c1.53,.61,3.82,3.06,3.82,4.01,0,.34,.49,1.16,1.11,1.77,1.46,1.36,1.74,11.97,.42,12.44-.49,.14-.83,.68-.83,1.22s-1.25,2.11-2.71,3.47c-3.96,3.74-4.87,4.42-5.49,4.01-.28-.14-.97-.07-1.53,.34-.76,.41-.56,.61,.9,.61,1.04,0,2.29-.34,2.78-.68,3.2-2.65,4.24-3.4,4.8-3.4,.28,0,.56-.41,.56-.95s.49-1.5,1.11-2.11c.63-.54,1.25-2.24,1.46-3.74s.7-2.72,.97-2.72c.83,0,.83-3.88,0-4.35-.28-.2-.76-1.63-1.04-3.13-.21-1.5-.76-2.72-1.11-2.72-.42,0-.7-.34-.7-.82,0-1.16-3.48-3.94-4.8-3.88-.83,0-.76,.14,.28,.61Z"/>
  <path d="M269.96,371.67c-.7,.68-1.18,1.56-1.18,1.97s-.35,.88-.76,1.02c-1.32,.41-.97,9.86,.49,12.65,1.6,2.99,5.15,6.66,7.16,7.28,.83,.2,1.46,.75,1.46,1.09s.76,.61,1.67,.61c.97,0,2.43,.27,3.41,.61,.9,.34,2.02,.41,2.5,.07,.56-.27-.63-.68-2.99-.95-2.16-.27-3.89-.82-3.89-1.16s-.42-.61-.9-.61c-.83,0-4.38-3.06-6.67-5.78-.49-.68-1.11-2.52-1.32-4.15-.14-1.63-.63-2.99-1.04-2.99s-.42-.27,0-.88c.42-.41,.9-2.31,1.11-4.08,.21-2.11,.76-3.6,1.6-4.22,.76-.48,1.11-1.09,.9-1.29s-.9,.14-1.53,.82Z"/>
  <path d="M107.47,377.58c0,1.43-.35,2.38-.83,2.38-.7,0-.7,.14-.07,.54,.42,.27,.9,1.56,1.04,2.86s.35,0,.42-2.92c0-2.86-.07-5.24-.28-5.24-.14,0-.28,1.09-.28,2.38Z"/>
  <path d="M.18,379.76c-.28,.48-.21,1.43,.21,2.18,.35,.75,.7,2.24,.7,3.4,0,1.09,.42,2.45,.9,2.92s1.46,1.7,2.16,2.72c.7,1.09,1.74,1.9,2.22,1.9,.56,0,.97,.27,.97,.61s.63,.88,1.39,1.09c.76,.27,1.25,.68,1.04,1.02-.35,.54,8.55,1.7,9.11,1.16,.14-.14-1.25-.48-3.2-.68-5.08-.61-11.06-4.42-12.1-7.82-.28-.82-.83-1.36-1.18-1.16-.35,.27-.7-.61-.7-1.84-.14-3.6-.9-6.46-1.53-5.51Z"/>
  <path d="M297.98,385.74c0,.95-.63,2.38-1.39,3.2s-1.39,1.9-1.39,2.38-.76,1.02-1.74,1.29c-.97,.2-1.74,.68-1.74,.95,0,.34-.42,.68-.83,.88-.49,.14-.14,.14,.76,0,1.53-.27,3.41-1.9,6.88-5.92,1.04-1.22,1.11-3.54,.14-4.15-.42-.27-.7,.34-.7,1.36Z"/>
  <path d="M108.86,385.4c-.49,1.5-.49,2.72,.07,2.72,.35,0,.63,.41,.63,.95,0,1.16,5.35,5.85,6.67,5.85,.56,0,.97,.27,.97,.68,0,.34,.83,.68,1.81,.68s1.6-.27,1.32-.68-.7-.54-1.04-.34c-.9,.54-6.88-3.2-7.37-4.56-.21-.68-.63-1.22-.97-1.22s-.97-1.02-1.32-2.24c-.35-1.16-.7-2.04-.76-1.84Z"/>
  <path d="M12.91,417.36c0,.34-.76,.68-1.6,.68-.9,0-2.29,.54-3.13,1.16-.83,.68-2.16,1.77-3.06,2.38-1.18,.95-1.32,1.43-.7,2.04s.83,.54,.83-.34c0-.61,.28-1.16,.63-1.16,.28,0,1.46-.82,2.5-1.77,1.53-1.36,2.85-1.84,6.67-2.11,5.56-.48,6.47-1.56,1.32-1.56-1.88,0-3.48,.27-3.48,.68Z"/>
  <path d="M70.62,417.29c0,.27,1.32,.75,2.92,.95,1.67,.2,3.06,.75,3.2,1.09,.14,.41,.7,.75,1.18,.75,1.04,0,5.21,3.88,5.21,4.83,0,.41,.28,.54,.63,.34,.63-.41,1.46,2.72,1.46,5.44,0,.88,.35,1.63,.7,1.63,.42,0,.7-.75,.7-1.63,0-2.04-1.88-6.53-2.78-6.53-.42,0-.7-.48-.7-1.02s-.49-1.02-1.04-1.02-1.04-.41-1.04-.88c0-.88-3.75-3.2-5.28-3.2-.56,0-.97-.34-.97-.68,0-.41-.9-.68-2.09-.68-1.11,0-2.09,.27-2.09,.61Z"/>
  <path d="M119.98,417.36c0,.34-.97,.68-2.09,.68-1.18,0-2.29,.41-2.5,.95s-1.04,1.16-1.88,1.36c-1.53,.34-5.56,6.05-4.87,6.8,.42,.41,1.95-1.7,2.71-3.88,.21-.61,.76-1.16,1.11-1.16s1.11-.41,1.6-.88c3.27-2.79,3.48-2.86,9.66-2.86,4.38,0,6.33,.27,6.47,.82,.21,.48,.76,.88,1.25,.88,1.25,0,5.21,3.94,5.21,5.17,0,.54,.28,.95,.63,.95s.83,.54,.97,1.16c.14,.68,.21,.41,.07-.68-.28-1.9-.97-3.06-3.27-5.1-3.2-2.86-4.24-3.54-5.49-3.54-.7,0-1.25-.27-1.25-.61,0-.27-1.88-.61-4.17-.68-2.5-.07-4.17,.2-4.17,.61Z"/>
  <path d="M173.52,417.43c0,.34-.28,.54-.63,.34-1.32-.82-9.8,4.62-9.8,6.32,0,.34-.56,1.16-1.18,1.84-.9,.88-1.18,2.31-1.11,6.94,0,3.74,.28,5.92,.83,6.12,.42,.14,.76,.61,.76,1.16,0,1.09,4.8,6.46,5.84,6.46,.42,0-.07-.75-1.11-1.63-2.43-2.11-4.73-6.32-4.73-8.7,0-1.09-.28-1.9-.7-1.9-.35,0-.7-.95-.7-2.04,0-1.16,.35-2.04,.7-2.04,.42,0,.7-.88,.7-1.9,0-1.09,.63-2.65,1.39-3.54s1.39-1.77,1.39-2.04,1.11-1.02,2.43-1.77c1.32-.68,2.43-1.5,2.43-1.7,0-.61,6.67-1.56,9.04-1.36,2.78,.27,7.44,2.86,9.73,5.3,1.18,1.22,1.88,2.24,1.6,2.24s-.14,.34,.35,.82,.83,1.5,.83,2.38,.28,1.56,.63,1.56c.42,0,.83,.82,.97,1.84,.14,1.09,.14,.34,0-1.5-.14-1.9-.56-3.54-.97-3.6-.35-.14-.63-.54-.63-.95,0-.95-4.17-5.98-5.01-5.98-.35,0-1.11-.48-1.67-1.02-.63-.54-1.67-1.02-2.43-1.02-.7,0-1.32-.34-1.32-.68,0-.41-1.74-.68-3.82-.68-2.22,0-3.82,.27-3.82,.75Z"/>
  <path d="M283.38,417.29c0,.34,1.6,.75,3.48,1.02,1.95,.27,3.48,.75,3.48,1.09s.63,.82,1.46,1.02c1.95,.61,4.1,2.45,4.1,3.54,0,.48,.28,.88,.63,.88s.9,.61,1.11,1.36c.28,.75,.76,1.22,1.11,1.02,.35-.27,.21-.88-.42-1.43-.56-.54-1.53-1.84-2.09-2.86-1.18-1.97-5.77-4.9-7.58-4.9-.63,0-1.11-.34-1.11-.68,0-.41-.9-.68-2.09-.68-1.11,0-2.09,.27-2.09,.61Z"/>
  <path d="M222.2,418.65c0,.34-1.11,1.22-2.43,2.04-1.32,.75-2.43,1.84-2.43,2.45,0,.54-.28,1.02-.7,1.02-.35,0-.7,.41-.7,.95s-.35,1.09-.83,1.22c-1.46,.48-1.53,8.3-.14,12.17,.7,1.9,1.74,3.67,2.16,3.81,.49,.2,.9,.75,.9,1.29s.49,.95,1.04,.95,1.04,.48,1.04,1.02,.49,1.02,1.11,1.02c.76,0,.56-.54-.9-1.97-3.27-3.33-4.38-5.03-4.38-6.66,0-.88-.35-1.56-.7-1.56-.42,0-.7-1.77-.63-4.08,.07-2.24,.35-4.08,.63-4.08s.7-.68,.97-1.56c.42-1.84,4.03-5.92,5.15-5.92,.42,0,1.04-.41,1.32-.95s1.18-1.09,1.95-1.29c1.04-.27,.97-.34-.49-.41-1.11,0-1.95,.2-1.95,.54Z"/>
  <path d="M27.51,420.9c0,.61,.35,1.36,.76,1.56,1.18,.75,1.25,.14,.21-1.29-.83-1.16-.97-1.16-.97-.27Z"/>
  <path d="M271.01,422.39c-1.25,1.36-2.22,2.99-2.22,3.54s-.28,.82-.7,.61c-1.11-.68-1.11,11.15,0,11.9,.28,.2,.7,1.02,.97,1.84,.28,.88,.83,1.56,1.18,1.56s.63,.41,.63,.95c0,.48,.83,1.5,1.81,2.18s2.29,1.7,2.78,2.18c.56,.54,2.22,1.09,3.75,1.29s2.78,.68,2.78,.95c0,.34,.49,.61,1.11,.61,2.29,0,.42-1.7-2.09-1.9-2.29-.2-8.14-2.86-6.33-2.86,.42,0-.07-.41-.97-.88-4.87-2.45-6.81-13.94-3.27-19.38,.97-1.5,2.09-2.86,2.57-2.99s.7-.68,.56-1.16c-.21-.61-1.11-.07-2.57,1.56Z"/>
  <path d="M29.94,424.84c.28,.95,.83,1.9,1.25,2.11,.35,.27,.7,2.92,.7,5.98,0,4.15-.28,5.85-1.18,6.8-.63,.61-1.11,1.43-1.11,1.7,0,1.02-4.03,4.42-5.84,4.9-.97,.2-1.81,.68-1.81,1.02s-1.11,.61-2.43,.61c-1.88,0-2.43,.27-2.36,1.16,0,.75,.21,.88,.42,.34,.14-.41,1.25-.82,2.43-.82,3.34,0,10.29-4.83,10.29-7.14,0-.48,.49-1.02,1.04-1.29,.7-.2,1.04-1.29,1.04-3.13,0-1.5,.35-2.72,.7-2.72,.42,0,.7-.95,.7-2.04,0-1.16-.28-2.04-.7-2.04-.35,0-.7-.88-.7-1.9,0-1.09-.7-2.72-1.46-3.6l-1.46-1.63,.49,1.7Z"/>
  <path d="M.81,429.06c-.9,4.76-.97,5.3-.35,5.3,.35,0,.63,1.09,.63,2.31,0,2.92,3.55,8.36,6.19,9.45,.97,.48,2.22,1.16,2.71,1.63s2.09,.82,3.48,.75l2.57-.07-2.57-.27c-1.46-.14-2.64-.54-2.64-.88s-.7-.82-1.53-1.09c-1.39-.41-3.34-2.18-6.74-6.05-.63-.75-.97-3.13-.97-7.21-.07-3.33-.14-6.05-.21-6.05s-.35,1.02-.56,2.18Z"/>
  <path d="M139.45,429.26c-.07,.75-.28,2.45-.42,3.74-.42,5.51-.97,6.53-5.28,10.74-3.82,3.74-4.38,4.08-6.88,4.42l-2.36,.27,2.36,.07c3.06,.2,9.11-3.33,9.11-5.3,0-.41,.49-.88,1.04-1.09s1.18-1.5,1.46-2.86c.28-1.43,.76-2.72,1.11-2.92s.49-2.18,.35-4.42c-.14-2.18-.35-3.4-.49-2.65Z"/>
  <path d="M245.14,429.4c0,.68,.35,1.7,.7,2.24,.49,.75,.7,.48,.7-1.22,0-1.16-.28-2.18-.7-2.18-.35,0-.7,.54-.7,1.16Z"/>
  <path d="M85.08,436.33c-.21,2.31-.9,3.88-2.16,5.24-1.04,1.09-1.88,2.18-1.88,2.45,0,.34-.28,.54-.7,.54-.9,0-3.48,2.18-3.48,2.99,0,.34,.56,.14,1.25-.48,.7-.68,1.53-1.16,1.81-1.16,1.18,0,3.41-2.86,5.35-6.8,1.04-2.04,1.46-6.12,.7-6.12-.35,0-.76,1.5-.9,3.33Z"/>
  <path d="M107.82,436.47c.07,1.77,.49,3.6,.9,4.08,3.89,4.62,5.28,6.05,6.05,6.05,.49,0,1.04,.41,1.25,.82,.21,.68,.49,.68,1.18,.14,.63-.61,.35-.88-1.18-1.22-1.11-.27-2.5-1.09-3.06-1.84-.56-.82-1.53-2.04-2.16-2.79-.7-.82-1.25-1.84-1.25-2.38,0-.48-.28-.88-.63-.88-.42,0-.83-1.16-.97-2.58-.21-1.77-.28-1.63-.14,.61Z"/>
  <path d="M245.63,434.43c-.35,.61-.49,1.36-.42,1.7,.28,.95-.83,3.88-1.88,4.9-.56,.48-.97,1.36-.97,1.84,0,.54-.63,1.16-1.39,1.36s-1.39,.68-1.39,.88c0,.61-4.03,2.65-5.91,3.06-.76,.2-.14,.2,1.39,.07,1.53-.07,2.85-.54,2.99-.88,.14-.41,.56-.75,.97-.75,1.18,0,5.21-4.28,5.77-6.19,.28-.88,.83-1.84,1.18-2.04s.56-1.43,.42-2.72c-.21-1.63-.42-1.97-.76-1.22Z"/>
  <path d="M191.6,436.67c0,1.29-.49,2.79-1.04,3.4-.56,.54-1.04,1.29-1.04,1.7,0,.34-.97,1.56-2.16,2.72s-1.81,2.11-1.32,2.11c.42,0,.9-.48,1.11-1.02,.28-.54,.83-1.02,1.39-1.02s.97-.48,.97-1.02,.28-1.02,.56-1.02c.7,0,2.92-4.83,2.92-6.32,0-.61-.28-1.29-.7-1.5-.42-.27-.7,.54-.7,1.97Z"/>
  <path d="M297.78,438.85c-.42,2.58-5.15,7.75-7.09,7.75-.56,0-1.04,.27-1.04,.61,0,.41-1.04,.82-2.22,.95-1.25,.14-.9,.2,.76,.14,1.67-.14,3.2-.48,3.48-.88,.21-.34,1.11-.82,2.02-1.09,.83-.27,1.39-.75,1.18-1.09s-.14-.68,.21-.82c1.04-.41,4.31-5.1,4.31-6.19,0-2.18-1.25-1.7-1.6,.61Z"/>
  <path d="M54.7,438.58c-.07,1.09,.21,1.9,.49,1.9s1.32,1.22,2.22,2.72c.97,1.5,2.09,2.72,2.5,2.72s1.46,.61,2.36,1.36,2.57,1.36,3.89,1.36c1.25,0,2.36,.41,2.57,.82,.14,.48,.56,.68,.83,.41,.97-.88-.49-1.9-2.85-1.9-1.32,0-2.36-.34-2.36-.68,0-.41-.49-.68-1.04-.68-1.39,0-6.05-4.62-7.44-7.48q-1.18-2.38-1.18-.54Z"/>
  <path d="M222.89,447.21c0,.82,1.74,1.43,4.1,1.43,1.04,0,2.29,.41,2.78,.82,.76,.75,.9,.68,.63-.14-.21-.61-1.39-1.09-3.2-1.22-1.6-.14-2.92-.48-2.92-.88,0-.34-.28-.61-.7-.61-.35,0-.7,.27-.7,.61Z"/>
</svg>