<?xml version="1.0" encoding="UTF-8"?>
<svg id="Layer_1" data-name="Layer 1" xmlns="http://www.w3.org/2000/svg" viewBox="0 0 300 500">
  <path d="M16.12,.43c.5,.21,1.13,.14,1.35-.07,.28-.21-.14-.42-.92-.35-.78,0-.99,.21-.43,.42Z"/>
  <path d="M69.32,.43c.43,.14,1.28,.14,1.77,0,.43-.21,.07-.35-.92-.35s-1.35,.14-.85,.35Z"/>
  <path d="M175.72,.43c.5,.21,1.13,.14,1.35-.07,.28-.21-.14-.42-.92-.35-.78,0-.99,.21-.43,.42Z"/>
  <path d="M10.09,1.81c-.5,.14-.92,.62-.92,1.04,0,.48,.28,.48,.92,0,.43-.42,1.84-.83,2.98-1.04l2.13-.28-2.13-.07c-1.13,0-2.55,.14-2.98,.35Z"/>
  <path d="M19.31,1.81c.64,.14,1.77,.14,2.48,0,.64-.21,.07-.35-1.28-.35s-1.92,.14-1.21,.35Z"/>
  <path d="M63.08,2.02c-.57,.35-.85,.83-.64,1.04,.28,.21,.85-.07,1.35-.69,.99-1.18,.78-1.32-.71-.35Z"/>
  <path d="M66.13,1.81c.64,.14,1.63,.14,2.13,0,.43-.21-.07-.35-1.28-.35-1.13,0-1.56,.14-.85,.35Z"/>
  <path d="M71.66,1.61c.14,.14,1.7,.42,3.48,.62,2.13,.28,2.7,.21,1.77-.21-1.35-.55-5.89-.97-5.25-.42Z"/>
  <path d="M115.99,1.95c-1.28,.48-1.28,.55-.21,.97,.64,.21,1.21,.14,1.21-.21s1.06-.76,2.34-.9l2.27-.28-2.13-.07c-1.13,0-2.77,.21-3.48,.48Z"/>
  <path d="M126.92,1.81c1.35,.21,2.77,.69,3.05,1.11,.43,.55,.5,.48,.28-.21-.14-.69-1.21-1.04-3.05-1.11-2.62-.07-2.7-.07-.28,.21Z"/>
  <path d="M169.69,1.81c-.5,.14-.92,.62-.92,1.04,0,.48,.28,.48,.92,0,.43-.42,1.84-.83,2.98-1.04l2.13-.28-2.13-.07c-1.13,0-2.55,.14-2.98,.35Z"/>
  <path d="M178.91,1.81c.64,.14,1.77,.14,2.48,0,.64-.21,.07-.35-1.28-.35s-1.92,.14-1.21,.35Z"/>
  <path d="M222.25,2.3c-.21,.55-1.21,1.18-2.2,1.45-.99,.21-1.63,.55-1.49,.76,.64,.55,3.9-.97,4.33-2.08,.28-.62,.28-1.11,.07-1.11-.14,0-.5,.42-.71,.97Z"/>
  <path d="M225.38,1.81c.43,.14,1.28,.14,1.77,0,.43-.21,.07-.35-.92-.35s-1.35,.14-.85,.35Z"/>
  <path d="M233.46,1.95c1.42,.28,3.12,.97,3.76,1.45,.92,.76,1.06,.69,.71-.21-.5-1.18-2.62-1.87-5.32-1.8-1.28,.07-.99,.21,.85,.55Z"/>
  <path d="M275.6,1.95c-1.28,.48-1.28,.55-.21,.97,.64,.21,1.21,.14,1.21-.21s1.06-.76,2.34-.9l2.27-.28-2.13-.07c-1.13,0-2.77,.21-3.48,.48Z"/>
  <path d="M286.52,1.81c1.35,.21,2.77,.69,3.05,1.11,.43,.55,.5,.48,.28-.21-.14-.69-1.21-1.04-3.05-1.11-2.62-.07-2.7-.07-.28,.21Z"/>
  <path d="M24.77,3.41c.99,.69,2.34,1.8,3.05,2.35,.64,.62,1.21,.9,1.21,.55,0-1.04-1.13-2.01-2.62-2.49-.92-.28-1.63-.83-1.63-1.18s-.43-.62-.85-.62c-.5,.07-.14,.62,.85,1.39Z"/>
  <path d="M184.38,3.41c.99,.69,2.34,1.8,3.05,2.35,.64,.62,1.21,.9,1.21,.55,0-1.04-1.13-2.01-2.62-2.49-.92-.28-1.63-.83-1.63-1.18s-.43-.62-.85-.62c-.5,.07-.14,.62,.85,1.39Z"/>
  <path d="M6.4,4.03c-.5,.35-.64,.76-.35,.97,.35,.21,1.06-.07,1.56-.62,.99-1.11,.35-1.25-1.21-.35Z"/>
  <path d="M59.53,4.1c-.57,.35-.71,.69-.35,.69,.43,0,1.21-.35,1.77-.69s.78-.69,.35-.69c-.35,0-1.21,.35-1.77,.69Z"/>
  <path d="M131.24,3.62c.14,.07,.99,.76,1.92,1.45,.85,.76,1.56,1.11,1.56,.9,0-.69-2.2-2.56-2.98-2.56-.43,0-.64,.07-.5,.21Z"/>
  <path d="M166,4.03c-.5,.35-.64,.76-.35,.97,.35,.21,1.06-.07,1.56-.62,.99-1.11,.35-1.25-1.21-.35Z"/>
  <path d="M290.85,3.62c.14,.07,.99,.76,1.92,1.45,.85,.76,1.56,1.11,1.56,.9,0-.69-2.2-2.56-2.98-2.56-.43,0-.64,.07-.5,.21Z"/>
  <path d="M57.61,5.97c-1.06,.35-1.21,1.59-.28,1.59,.35,0,.78-.48,1.06-1.04,.21-.55,.28-1.04,.21-.97-.07,0-.57,.21-.99,.42Z"/>
  <path d="M81.24,6.04c.43,.28,.92,1.04,1.21,1.66,.21,.69,.85,1.25,1.35,1.25,.64,0,.64-.21,.14-.55-.43-.28-.92-1.04-1.21-1.73-.21-.62-.85-1.18-1.35-1.18-.64,0-.64,.21-.14,.55Z"/>
  <path d="M217.01,6.18c-.57,.35-.85,.83-.64,1.04,.28,.21,.85-.07,1.35-.69,.99-1.18,.78-1.32-.71-.35Z"/>
  <path d="M240.84,6.04c.43,.28,.92,1.04,1.21,1.66,.21,.69,.85,1.25,1.35,1.25,.64,0,.64-.21,.14-.55-.43-.28-.92-1.04-1.21-1.73-.21-.62-.85-1.18-1.35-1.18-.64,0-.64,.21-.14,.55Z"/>
  <path d="M3.63,7.29c-.5,.55-.57,.97-.21,.97,.71,0,1.77-1.32,1.42-1.73-.14-.07-.71,.21-1.21,.76Z"/>
  <path d="M163.24,7.29c-.5,.55-.57,.97-.21,.97,.71,0,1.77-1.32,1.42-1.73-.14-.07-.71,.21-1.21,.76Z"/>
  <path d="M295.03,6.52c0,.35,.35,1.18,.71,1.73s.71,.69,.71,.35c0-.42-.35-1.18-.71-1.73s-.71-.76-.71-.35Z"/>
  <path d="M109.25,8.05c-.5,.55-.78,1.11-.57,1.32,.14,.14,.71-.14,1.21-.76,1.21-1.39,.64-1.87-.64-.55Z"/>
  <path d="M269,7.91c-.5,.48-1.06,1.73-1.35,2.7-.21,.97-.71,1.8-1.06,1.8s-.64,1.87-.64,4.16,.28,4.16,.71,4.16,.71,.76,.71,1.66,.64,2.42,1.42,3.39,1.42,2.08,1.42,2.49,.43,.76,.99,.76,1.13,.42,1.35,.97,1.35,1.18,2.55,1.45,2.34,.76,2.55,1.11c.57,.83,9.58,.83,9.58,0,0-.35,.78-.83,1.7-1.04,1.99-.48,6.81-4.64,6.81-5.89,0-.42,.28-.76,.71-.76,.78,0,2.13-4.57,2.06-6.93-.14-1.59-.14-1.52-.57,.35-.78,3.39-2.27,6.58-3.05,6.58-.43,0-.57,.48-.35,.97,.28,.62-.14,1.18-.99,1.45-.71,.28-1.35,.76-1.35,1.11s-.5,.62-1.06,.62c-.5,0-1.28,.55-1.63,1.18-.57,.97-1.77,1.18-6.6,1.18-3.9,0-5.96-.28-6.17-.83-.14-.48-.64-.83-1.13-.83-1.28,0-5.04-3.39-6.17-5.54-1.92-3.46-2.55-7.76-1.63-11.29,.5-1.8,1.28-3.81,1.77-4.36,1.06-1.25,.57-1.8-.57-.62Z"/>
  <path d="M29.45,8.05c.43,.28,.99,1.04,1.21,1.59,.35,.76,.43,.62,.28-.28-.07-.76-.64-1.45-1.21-1.59-.71-.21-.78-.14-.28,.28Z"/>
  <path d="M189.06,8.05c.43,.28,.99,1.04,1.21,1.59,.35,.76,.43,.62,.28-.28-.07-.76-.64-1.45-1.21-1.59-.71-.21-.78-.14-.28,.28Z"/>
  <path d="M55.34,9.43c-.5,.55-.78,1.11-.57,1.32,.14,.14,.71-.14,1.21-.76,1.21-1.39,.64-1.87-.64-.55Z"/>
  <path d="M84.71,15.94c0,5.33-.28,6.86-1.28,7.83-.64,.69-1.21,1.59-1.21,2.01,0,.48-1.21,1.59-2.7,2.56-1.42,.97-2.84,2.01-3.12,2.35-.28,.42-3.26,.69-6.67,.62-4.97,0-6.24-.21-6.81-1.18-.35-.62-.92-1.11-1.28-1.11-.92,0-3.55-2.22-3.55-2.98,0-.28-.64-1.18-1.35-2.01-.78-.76-1.21-1.8-1.06-2.29,.21-.48,.07-1.11-.35-1.39-.43-.21-.78-1.25-.78-2.22,0-1.04-.21-1.66-.43-1.45-.71,.69,.57,6.79,1.56,7.83,.57,.48,.99,1.18,.99,1.45,0,1.04,4.89,5.06,6.67,5.54,.99,.21,1.84,.69,1.84,1.04s1.92,.62,4.26,.62c2.7,0,4.26-.28,4.26-.76,0-.55,.28-.55,.99,0,.57,.48,1.13,.55,1.28,.28,.35-.83,4.61-3.67,5.53-3.67,.35,0,.71-.35,.71-.76s.64-1.52,1.42-2.49,1.42-2.49,1.42-3.39,.35-1.66,.71-1.66c.43,0,.71-1.73,.71-3.81s-.28-3.81-.64-3.81-.78-.83-.92-1.94c-.14-1.04-.21,1.11-.21,4.78Z"/>
  <path d="M214.17,10.4c0,.35,.35,.48,.71,.28,.43-.21,.71-.55,.71-.76,0-.14-.28-.28-.71-.28-.35,0-.71,.35-.71,.76Z"/>
  <path d="M244.1,11.03c0,.97,.14,1.32,.35,.83,.14-.42,.14-1.25,0-1.73-.21-.42-.35-.07-.35,.9Z"/>
  <path d="M.51,12.97c-.57,3.81,.14,9.21,1.06,8.66,.43-.28,.57,0,.35,.62-.28,.55,.28,1.94,1.28,3.05,.92,1.11,1.63,2.42,1.7,2.84,0,.48,.43,.9,.99,.9,.5,0,1.35,.48,1.84,1.11,.57,.55,2.06,1.52,3.4,2.08,3.05,1.25,10.07,1.32,10.07,.07,0-.55,.28-.48,.71,.21,.43,.62,.71,.69,.71,.21,0-.42,.71-1.04,1.56-1.25,1.92-.62,6.24-4.43,6.24-5.61,0-.48,.35-.97,.78-1.11s1.06-1.94,1.42-4.02c.71-4.16,.14-10.6-.85-9.97-.85,.48-.78,3.74,.07,3.74,.43,0,.71,.9,.71,2.08,0,1.11-.28,2.08-.64,2.08-.28,0-.78,1.32-.99,2.91s-.92,3.12-1.49,3.46c-.64,.35-1.13,1.11-1.13,1.59,0,.55-.35,1.04-.78,1.04s-1.21,.42-1.7,.83c-3.05,2.7-3.48,2.84-8.87,2.84-4.26,0-5.89-.28-6.74-1.18-.64-.62-1.49-1.11-1.84-1.11-.99,0-4.19-3.53-4.19-4.57,0-.55-.28-.97-.71-.97-.35,0-.85-1.18-1.13-2.63-.28-1.39-.78-3.12-1.13-3.81-.43-.83-.43-2.01,0-3.19,.43-1.11,.5-2.35,.14-2.77-.28-.55-.64,.21-.85,1.87Z"/>
  <path d="M107.91,12.07c0,1.11,.14,1.52,.35,.83,.14-.62,.14-1.59,0-2.08-.21-.42-.35,.07-.35,1.25Z"/>
  <path d="M191.18,11.93c-.35,1.04-.43,2.15-.14,2.35,.78,.76,1.28-.35,.99-2.35l-.28-1.94-.57,1.94Z"/>
  <path d="M138.48,13.45c0,1.52,.14,2.08,.28,1.18,.14-.83,.14-2.08,0-2.77-.21-.62-.35,.07-.28,1.59Z"/>
  <path d="M160.04,13.8c-.57,4.43,.28,8.38,2.55,11.84,2.2,3.26,5.82,6.16,7.8,6.16,.57,0,1.35,.28,1.56,.69,.57,.83,9.58,.9,9.58,.07,0-.35,.71-.76,1.63-1.04,4.04-.97,8.65-7.41,9.29-12.88,.21-2.08,.21-3.32,0-2.77s-.71,1.73-1.13,2.49c-.35,.83-.57,2.08-.43,2.77,.14,.76-.5,2.08-1.35,3.05-.92,.97-1.63,2.08-1.63,2.56s-.5,.9-1.06,.9-1.06,.21-1.06,.55c0,.28-1.13,1.11-2.55,1.87-3.26,1.66-11.78,1.73-13.69,.07-.71-.62-1.56-1.11-1.92-1.11s-1.63-1.11-2.77-2.49c-1.21-1.45-2.48-2.91-2.91-3.26-.43-.42-.57-1.52-.43-2.42,.21-.9-.07-2.42-.64-3.32-.57-1.11-.64-1.94-.28-2.22,.92-.62,1.28-4.29,.5-4.29-.35,0-.85,1.25-1.06,2.77Z"/>
  <path d="M298.01,12.76c0,1.11,.14,1.52,.35,.83,.14-.62,.14-1.59,0-2.08-.21-.42-.35,.07-.35,1.25Z"/>
  <path d="M54,13.8c0,1.32,.14,1.87,.35,1.18,.14-.62,.14-1.73,0-2.42-.21-.62-.35-.07-.35,1.25Z"/>
  <path d="M213.6,13.8c0,1.32,.14,1.87,.35,1.18,.14-.62,.14-1.73,0-2.42-.21-.62-.35-.07-.35,1.25Z"/>
  <path d="M245.24,13.8c-.28,.55-.43,1.52-.43,2.08-.07,1.8-1.06,6.58-1.49,6.93-.21,.21-.92,1.25-1.49,2.42-.64,1.11-2.48,2.98-4.26,4.09-2.77,1.87-3.62,2.08-8.73,2.01-4.47,0-5.82-.28-6.31-1.18-.35-.62-.92-1.11-1.35-1.11-1.63,0-6.67-6.44-5.96-7.62,.21-.35,.14-.69-.28-.69-.35,0-.85-.83-.99-1.94-.21-1.04-.21-.21-.07,1.87,.14,2.49,.57,4.02,1.28,4.36,.64,.35,1.13,.97,1.13,1.39,0,1.04,4.26,4.71,5.46,4.71,.5,0,.92,.28,.92,.69,0,.35,.5,.48,1.06,.28,.57-.28,1.06-.07,1.06,.35,0,.9,8.23,1.04,8.8,.14,.21-.35,1.21-.83,2.27-1.04,1.92-.48,6.67-4.36,6.67-5.4,0-.35,.5-1.11,1.06-1.66,.57-.62,1.06-2.08,1.06-3.39,0-1.25,.35-2.42,.78-2.56s.64-1.45,.5-2.98c-.14-1.59-.43-2.35-.71-1.73Z"/>
  <path d="M106.35,15.25c0,.35,.35,.48,.71,.28,.43-.21,.71-.55,.71-.76,0-.14-.28-.28-.71-.28-.35,0-.71,.35-.71,.76Z"/>
  <path d="M106.35,17.95c0,.76,.28,1.39,.64,1.39,.43,0,.64,.55,.64,1.18-.14,1.32,1.7,5.4,3.19,7.13,1.42,1.73,6.88,4.92,7.59,4.5,.43-.21,.71-.07,.71,.28,0,.48,1.63,.76,3.9,.76,2.62,0,3.9-.28,3.9-.9,0-.55,.28-.48,.71,.21,.43,.62,.71,.69,.71,.21,0-.42,.71-1.04,1.56-1.32,.85-.21,1.99-.83,2.48-1.32s1.13-1.04,1.42-1.18c1.06-.42,4.47-5.33,4.47-6.37,0-1.66-1.21-1.32-1.7,.48-.43,1.87-4.11,6.03-5.25,6.03-.43,0-1.06,.55-1.42,1.18-.57,.97-1.77,1.18-6.6,1.18-3.9,0-5.96-.28-6.17-.83-.14-.48-.64-.83-1.13-.83-1.28,0-6.1-4.71-6.1-5.89,0-.55-.28-1.04-.71-1.04-.35,0-.71-.69-.71-1.59,0-2.29-.78-4.64-1.49-4.64-.35,0-.64,.62-.64,1.39Z"/>
  <path d="M138.34,18.78c.14,1.94,.14,2.01,.43,.55,.21-.97,.71-1.94,1.21-2.22,.5-.35,.35-.55-.43-.55-.99,0-1.28,.55-1.21,2.22Z"/>
  <path d="M43.21,249.98c0,166.02-.21,208.41-.92,208.69-.43,.21,24.9,.42,56.46,.42,37.74,.07,57.24-.14,57.24-.62,0-.42,.5-.69,1.13-.69,.57,0,.85,.28,.64,.69-.21,.35-.07,.69,.28,.69,.43,0,.78-.28,.78-.62s3.19-.83,7.09-1.11,7.09-.76,7.09-1.04,1.84-.76,4.11-1.04c2.2-.28,4.26-.76,4.47-1.18,.21-.35,1.77-.83,3.4-1.04,1.56-.21,2.91-.62,2.91-.97,0-.28,.99-.76,2.27-.97,1.21-.28,2.7-.97,3.26-1.45,.5-.55,1.42-.97,1.99-.97,.64,0,1.56-.48,2.13-1.04,.64-.55,1.7-1.04,2.48-1.04,.71,0,1.35-.28,1.35-.62s.99-.97,2.13-1.39c1.21-.35,2.13-.97,2.13-1.32,0-.42,.78-.9,1.77-1.11,.99-.28,1.77-.76,1.77-1.11,0-.42,.5-.69,1.06-.69,.64,0,1.28-.48,1.49-1.04,.28-.55,.78-1.04,1.28-1.04,1.13,0,5.39-3.53,12.41-10.46,6.88-6.72,8.8-8.8,10.07-11.08,.5-.9,1.28-2.08,1.84-2.56,.5-.48,.92-1.39,.92-1.94s.35-.97,.71-.97c.43,0,.99-.55,1.21-1.18,.28-.69,.92-1.66,1.42-2.15s.92-1.52,.92-2.29,.35-1.18,.71-.97c.43,.21,.71-.21,.71-.97s.43-1.8,.92-2.29c.57-.48,1.21-1.8,1.49-2.84,.21-1.04,.78-1.87,1.13-1.87s.85-1.11,1.13-2.42c.21-1.32,.71-2.42,.99-2.42s.78-1.39,.99-3.12c.28-1.73,.78-3.12,1.06-3.12,.35,0,.85-1.45,1.13-3.32,.28-1.8,.85-3.46,1.28-3.81,.64-.35,.57-.62-.14-1.11-.64-.42-.71-.69-.14-.83,.43-.14,.99-2.35,1.28-4.99,.21-2.56,.71-4.64,.99-4.64,.99,0,.71-1.94-.21-2.29-.71-.28-.71-.42,0-.42,1.13-.07,1.28-176.69,.14-176.69-.35,0-.71-1.04-.71-2.35,0-4.22-.92-10.8-1.42-10.46-.28,.21-.78-1.66-1.06-4.16-.21-2.49-.78-4.5-1.13-4.5s-.85-1.25-1.06-2.77c-.28-1.52-.71-2.77-.99-2.77s-.78-1.11-.99-2.42c-.28-1.32-.78-2.42-1.13-2.42-.28,0-.78-.97-1.06-2.08-.28-1.18-.71-2.08-1.06-2.08s-.78-.97-1.06-2.08c-.28-1.18-.71-2.08-1.06-2.08s-.78-.9-1.06-2.01c-.21-1.11-.92-2.22-1.49-2.42s-.99-.83-.99-1.45c0-.55-.28-1.04-.71-1.04-.35,0-.85-.76-1.13-1.73-.21-.97-.71-1.73-1.06-1.73s-.92-.55-1.13-1.25c-.28-.62-1.28-2.01-2.27-2.98-.99-1.04-2.77-2.98-3.97-4.43-1.13-1.45-3.05-3.53-4.26-4.64-1.13-1.04-2.98-2.84-4.04-3.88-1.13-1.04-1.99-1.59-1.99-1.25s-.64-.21-1.49-1.25c-.78-.97-1.92-1.8-2.48-1.8s-.99-.42-.99-.97c0-.48-.57-1.18-1.21-1.39-2.48-.9-5.18-2.56-5.18-3.26,0-.35-.5-.62-1.06-.62-.64,0-1.28-.48-1.49-1.04-.28-.55-1.21-1.04-2.13-1.04-.99,0-1.92-.48-2.13-1.04-.28-.55-1.21-1.04-2.13-1.04-.99,0-1.92-.48-2.13-1.04-.28-.55-.99-1.04-1.7-1.04s-1.77-.42-2.27-.97c-.57-.48-2.34-1.18-3.97-1.45s-2.98-.69-2.98-1.04c0-.28-1.42-.76-3.19-.97-1.77-.28-3.19-.76-3.19-1.11s-2.2-.83-4.97-1.11c-2.7-.21-4.82-.69-4.61-.97,.43-.62-6.88-1.39-13.97-1.39-3.55,0-5.46-.28-5.18-.69,.21-.42-.07-.69-.64-.69-.64,0-1.13,.28-1.13,.69,0,.35-1.92,.83-4.26,1.11s-4.26,.76-4.26,1.04c0,.35-.35,.62-.78,.62-.35,0-.5-.35-.28-.69,.21-.42,.07-.69-.28-.69-.43,0-.78,.28-.78,.69,0,.35-1.92,.83-4.26,1.11s-4.26,.69-4.26,.97-.85,.76-1.92,1.04c-1.06,.21-2.62,1.25-3.55,2.15-.92,.97-1.99,1.52-2.34,1.32-.43-.21-.71-.07-.71,.28,0,.42-.35,.76-.71,.76-.43,0-1.49,.76-2.34,1.59-.85,.9-1.99,1.52-2.41,1.39-.5-.21-.92,0-.92,.42s-.28,.76-.71,.76c-.85,0-3.55,2.56-3.55,3.32,0,.35-.64,1.39-1.42,2.29s-1.63,1.94-1.99,2.35c-.28,.35-.78,1.25-1.06,1.87-.21,.69-.78,1.25-1.13,1.25s-.85,.76-1.06,1.73c-.28,.97-.78,1.73-1.13,1.73-.43,0-.71,.35-.71,.83,0,.42-.43,1.32-.99,1.87-.57,.62-1.28,2.98-1.49,5.26-.28,2.29-.85,4.36-1.28,4.64-.57,.35-.5,.55,.21,.55s.78,.21,.28,.55c-.71,.42-1.77,5.54-1.77,8.59,0,1.18-.57,1.39-4.04,1.39-1.35,0-1.35,.07-.21,.35,1.42,.28,1.42,1.18,1.49,51.67,0,28.26,.28,53.12,.64,55.2l.64,3.81,.07-4.36c.07-2.7,.35-4.22,.78-3.95,.5,.28,.71-16.48,.71-49.87s-.21-50.15-.71-49.87c-.35,.21-.71-.07-.71-.69,0-1.04,2.62-1.11,29.79-.9,20.71,.14,30.01,.42,30.36,.97,.28,.42,.99,.76,1.56,.83,4.33,.28,9.22,1.11,9.22,1.66,0,.35,.28,.48,.71,.21,.85-.55,5.67,1.45,5.67,2.35,0,.42,.5,.76,1.06,.76s1.06,.28,1.06,.62,.99,.97,2.13,1.39c1.21,.35,2.13,1.04,2.13,1.39,0,.42,.78,.76,1.77,.76s1.99,.48,2.2,1.04c.28,.55,.85,1.04,1.42,1.04s.99,.35,.99,.76,.43,.62,.99,.42c.64-.28,1.13,.21,1.42,1.32,.28,.9,.71,1.66,1.06,1.66s.85,.9,1.13,2.08c.28,1.11,.78,2.08,1.13,2.08s.64,.48,.64,1.04c0,.62,.43,1.25,.99,1.45s1.21,1.11,1.42,2.08c.28,.9,.78,1.66,1.13,1.66,.43,0,.71,.48,.71,1.04,0,.48,.5,1.25,1.13,1.59s1.21,2.01,1.49,4.5c.21,2.15,.64,3.74,.92,3.6,.35-.21,.78,2.15,1.06,5.19s.78,5.54,1.13,5.54,.64,11.71,.64,27.36c0,17.8,.28,27.36,.71,27.36s.71-2.56,.71-6.44c0-3.46,.14-11.36,.35-17.45,.28-6.1,.35-12.19,.28-13.51-.35-6.86-.28-12.95,.28-14.06,.28-.69,.28-1.18-.14-1.18-.35,0-.64-.55-.57-1.25,0-.62-.71-4.92-1.63-9.49-1.7-8.17-2.62-10.11-8.37-18.01-.28-.42-.57-1.18-.71-1.66-.43-1.87-4.54-7-7.09-8.87-1.42-1.04-2.84-2.22-3.05-2.49-.21-.35-.71-.62-1.06-.62-.99-.07-4.11-1.32-4.54-1.8-.21-.28-1.13-.9-2.13-1.39s-3.19-1.59-4.89-2.56-4.04-1.73-5.18-1.73c-1.06,0-1.99-.28-1.99-.62,0-.42-1.06-.48-2.41-.28s-2.55,.07-2.84-.42c-.28-.42-1.63-.76-2.98-.76s-2.34-.21-2.2-.55c.21-.28-12.27-.42-27.66-.28-18.09,.14-27.88,0-27.59-.48,.28-.35,.78-2.15,1.13-4.02,2.27-11.15,3.48-15.79,4.19-16,.43-.14,.78-.55,.78-.9,0-.62,7.09-11.01,9.15-13.37,1.28-1.45,8.23-5.96,9.22-5.96,.35,0,.78-.48,1.06-1.04,.21-.55,.85-1.04,1.35-1.04,.57,0,1.56-.62,2.27-1.39,1.42-1.52,4.89-2.63,9.72-3.12,1.7-.21,4.04-.62,5.18-.9,1.21-.35,3.12-.62,4.4-.55,1.21,.07,2.06-.14,1.84-.48-.14-.28,.35-.48,1.13-.48,.99,0,1.49,.55,1.7,1.87l.28,1.94,.14-2.01,.07-2.01,4.47,.55c2.41,.28,5.53,.55,6.88,.69,16.74,1.25,41.78,11.91,54.19,23.13,10.57,9.56,14.61,13.92,19.72,21.61,7.16,10.74,13.12,24.38,14.83,33.87,.35,2.08,.78,4.57,1.06,5.54,.64,2.91,1.63,12.74,1.42,14.2-.14,.76,.07,1.8,.5,2.22,.5,.69,.28,.9-.64,.9-.85,0-1.06,.21-.57,.55,.57,.35,.78,21.61,.71,77.85,0,42.6,.21,77.44,.5,77.44,.35,0,.43,.21,.28,.55-.21,.28-.57,3.46-.78,7.06-1.21,16.83-6.74,32.76-16.95,49.18-6.31,10.04-17.31,20.99-28.8,28.54-9.29,6.1-27.31,13.78-34.55,14.68-1.13,.21-2.55,.48-3.12,.69-2.13,.76-5.46,1.18-12.2,1.59l-6.88,.42-.28-4.09-.21-4.09-.14,4.22c-.07,3.12-.43,4.36-1.21,4.71-.57,.21-1.06,.14-1.06-.14s-11.49-.42-25.54-.28l-25.47,.14-.28-8.45-.21-8.52-.14,8.8c-.14,8.03-.5,9.7-1.7,8.45-.28-.21-11.7-.42-25.54-.48l-25.04-.14v-154.8c-.07-92.6,.21-155.15,.57-155.7,.35-.42,.43-.83,.07-.83-.99,0-1.13-49.25-.14-50.35,.5-.62,.5-.9-.07-.9-.43,0-.78-.35-.78-.69,0-.42,8.73-.69,24.83-.69,14.75,0,24.83,.28,24.83,.62s-.57,.83-1.21,.97c-1.21,.28-1.21,.35,0,.42,1.06,.07,1.21,.9,1.13,8.17-.21,22.3,.14,41.07,.71,41.07,.99,0,1.56-7.69,1.92-29.3,.21-12.19,.07-19.88-.28-19.88s-.92-2.35-1.21-5.19-.78-5.19-1.06-5.19c-.35,0-.85-2.49-1.13-5.54-.21-3.05-.78-5.54-1.06-5.54-.35,0-.64-.48-.64-1.04s-.64-1.59-1.42-2.22c-.78-.69-1.42-1.59-1.42-2.08s-.28-.9-.71-.9c-.35,0-.71-.42-.71-.9s-.64-1.39-1.42-2.08c-.78-.62-1.42-1.66-1.42-2.22s-.28-1.04-.71-1.04c-.35,0-.71-.42-.71-.9s-1.35-2.01-2.91-3.32c-1.63-1.32-3.33-2.7-3.83-3.19s-1.7-1.04-2.77-1.32c-.99-.21-1.84-.83-1.84-1.39s-.5-.97-1.06-.97-1.06-.28-1.06-.62-.92-.83-2.13-1.11c-1.13-.28-2.13-.9-2.13-1.45s-.5-.97-1.06-.97-1.06-.28-1.06-.62c0-.28-2.48-.76-5.46-1.04-3.05-.28-5.67-.76-5.89-1.04s-2.2-.76-4.4-.97l-4.11-.42V249.98ZM57.05,46.14c5.18,.97,6.46,1.59,14.05,6.65,7.94,5.33,8.51,5.82,13.05,12.54,5.18,7.62,6.81,11.43,8.02,18.84,.43,2.63,.99,5.47,1.21,6.3l.35,1.59H44.92l-.07-22.44c-.07-12.33,.07-23.13,.28-23.96,.43-1.66,.71-1.66,11.92,.48Z"/>
  <path d="M12.57,53.07c.85,.14,2.13,.14,2.84,0,.64-.21-.07-.35-1.63-.28-1.56,0-2.13,.14-1.21,.28Z"/>
  <path d="M18.6,53.35c.78,.48,1.63,.48,2.48,0,.99-.62,.78-.69-1.28-.69s-2.27,.07-1.21,.69Z"/>
  <path d="M119.33,53.07c.64,.14,1.63,.14,2.13,0,.43-.21-.07-.35-1.28-.35-1.13,0-1.56,.14-.85,.35Z"/>
  <path d="M124.08,52.86c0,.55,3.62,.9,3.97,.35,.21-.35-.64-.62-1.77-.62-1.21,0-2.2,.14-2.2,.28Z"/>
  <path d="M172.17,53.07c.85,.14,2.27,.14,3.19,0,.85-.14,.14-.28-1.63-.28s-2.48,.14-1.56,.28Z"/>
  <path d="M178.49,53.35c.57,.55,1.13,.55,2.13,0,1.13-.62,.99-.69-.78-.76-1.56,0-1.92,.21-1.35,.76Z"/>
  <path d="M225.38,53.07c.85,.14,2.13,.14,2.84,0,.64-.21-.07-.35-1.63-.28-1.56,0-2.13,.14-1.21,.28Z"/>
  <path d="M231.41,53.07c.64,.14,1.77,.14,2.48,0,.64-.21,.07-.35-1.28-.35s-1.92,.14-1.21,.35Z"/>
  <path d="M278.01,52.86c0,.62,2.84,.9,3.26,.35,.21-.35-.43-.62-1.42-.62s-1.84,.14-1.84,.28Z"/>
  <path d="M283.68,52.86c0,.55,3.62,.9,3.97,.35,.21-.35-.64-.62-1.77-.62-1.21,0-2.2,.14-2.2,.28Z"/>
  <path d="M8.1,54.66c-.92,.35-.99,.62-.35,.62,.57,0,1.7-.28,2.48-.62,.92-.35,.99-.62,.35-.62-.57,0-1.7,.28-2.48,.62Z"/>
  <path d="M23.35,54.66c.57,.35,1.56,.62,2.13,.62,.71,0,.57-.21-.35-.62-1.92-.83-3.05-.83-1.77,0Z"/>
  <path d="M167.71,54.66c-.92,.35-.99,.62-.35,.62,.57,0,1.7-.28,2.48-.62,.92-.35,.99-.62,.35-.62-.57,0-1.7,.28-2.48,.62Z"/>
  <path d="M182.96,54.66c.57,.35,1.56,.62,2.13,.62,.71,0,.57-.21-.35-.62-1.92-.83-3.05-.83-1.77,0Z"/>
  <path d="M221.26,54.66c-1.28,.83-.14,.83,1.77,0,.92-.42,1.06-.62,.35-.62-.57,0-1.56,.28-2.13,.62Z"/>
  <path d="M236.37,54.45c.64,.14,1.21,.62,1.21,.97,0,.42,.35,.48,.78,.21,.99-.55-.57-1.66-2.2-1.59-.78,.07-.71,.21,.21,.42Z"/>
  <path d="M131.6,55.63c.21,.62,.85,1.11,1.35,1.11s1.06,.48,1.35,1.04c.21,.55,.71,1.04,1.13,1.04,.78,0-.71-1.66-3.05-3.39-1.06-.83-1.21-.83-.78,.21Z"/>
  <path d="M291.2,55.7c.28,.55,.78,1.04,1.28,1.04,.43,0,1.7,1.32,2.84,2.84,1.06,1.52,2.13,2.63,2.34,2.42s-.07-.76-.57-1.32c-.57-.55-1.49-1.66-2.06-2.49s-1.77-1.94-2.62-2.49c-1.42-.9-1.56-.9-1.21,0Z"/>
  <path d="M165.22,56.74c-.64,.42-.71,.69-.21,.69,.43,0,1.06-.35,1.28-.69,.57-.83,.28-.83-1.06,0Z"/>
  <path d="M218.14,56.67c-.28,.35,.21,.48,.99,.28,1.63-.42,1.84-.9,.43-.9-.57,0-1.21,.28-1.42,.62Z"/>
  <path d="M271.13,57.36c-2.62,2.7-3.76,4.57-3.76,6.1,0,.9-.28,1.59-.71,1.59-.35,0-.71,1.52-.71,3.39s.35,3.67,.71,3.88c.43,.21,.71,1.11,.71,2.01,0,2.42,4.4,7.27,8.23,9.07,3.48,1.59,10.5,1.32,14.33-.48,1.7-.9,3.48-2.29,3.9-3.12,.35-.83,.92-1.39,1.28-1.25,.28,.21,.78-.35,1.06-1.18,.28-.9,.71-1.73,.99-1.94s.78-1.11,.99-2.08c.28-.97-.57-.07-2.06,2.08-2.84,4.16-6.31,6.93-8.73,6.93-.85,0-1.56,.28-1.56,.69,0,.35-1.42,.69-3.19,.69s-3.19-.35-3.19-.69c0-.42-.78-.69-1.7-.69-.99,0-2.2-.48-2.84-1.04-.57-.55-1.28-1.04-1.63-1.04-.78,0-3.05-2.56-3.05-3.46,0-.35-.57-.9-1.21-1.32-1.84-.97-1.84-13.02,0-13.99,.64-.42,1.21-1.04,1.21-1.45s.78-1.45,1.84-2.35c.99-.9,1.42-1.66,1.06-1.66-.43,0-1.35,.55-1.99,1.32Z"/>
  <path d="M110.67,57.5c-.07,.62-.71,1.8-1.49,2.7s-1.35,2.42-1.35,3.39l.07,1.8,.5-1.73c.21-.97,.99-2.56,1.7-3.6,.78-1.04,1.21-2.29,.99-2.77-.28-.62-.43-.55-.43,.21Z"/>
  <path d="M241.19,57.5c-.07,.62,.5,1.87,1.28,2.77,.71,.9,1.49,2.29,1.7,3.05,.28,1.32,.35,1.25,.43-.14,0-.83-.43-1.94-.99-2.56-.57-.55-1.35-1.73-1.7-2.63-.43-1.04-.71-1.18-.71-.48Z"/>
  <path d="M28.32,57.92c0,1.04,1.35,2.56,1.84,2.15,.21-.28-.07-.97-.71-1.59s-1.13-.9-1.13-.55Z"/>
  <path d="M187.92,57.71c0,.28,.78,1.59,1.63,3.05,.92,1.39,1.56,2.91,1.42,3.32s.14,.97,.71,1.18c.71,.28,.92-.07,.64-1.32-.14-.9-.57-1.66-.85-1.66-.35,0-.85-.69-1.13-1.52-.43-1.45-2.41-3.88-2.41-3.05Z"/>
  <path d="M3.77,58.68c-.43,.28-1.06,1.25-1.35,2.22-.57,1.94-.43,1.87,1.28-.9,1.35-2.01,1.35-2.15,.07-1.32Z"/>
  <path d="M163.38,58.68c-.43,.28-1.06,1.25-1.35,2.22-.57,1.94-.43,1.87,1.28-.9,1.35-2.01,1.35-2.15,.07-1.32Z"/>
  <path d="M216.3,58.82c0,.35,.35,.69,.71,.69,.43,0,.71-.35,.71-.69,0-.42-.28-.69-.71-.69-.35,0-.71,.28-.71,.69Z"/>
  <path d="M136.14,60.06c0,.35,.5,1.04,1.06,1.52s1.06,.62,1.06,.42c0-.28-.5-.97-1.06-1.52-.57-.62-1.06-.76-1.06-.42Z"/>
  <path d="M214.95,60.83c-2.27,1.39-1.99,13.44,.35,16.07,.57,.55,.99,1.32,.99,1.52,0,.62,2.7,3.26,3.33,3.26,.21,0,1.06,.55,1.84,1.18,1.84,1.66,13.69,1.8,15.61,.21,5.39-4.5,7.59-7.48,7.52-10.04l-.14-2.08-.28,2.08c-.21,1.11-.78,2.35-1.35,2.63s-.99,.83-.99,1.18c0,.9-2.27,3.46-3.05,3.46-.35,0-1.06,.48-1.63,1.04-.64,.55-1.7,1.04-2.48,1.04-.71,0-1.35,.28-1.35,.69,0,.9-5.32,.9-6.95,.07-.64-.42-1.99-.83-2.98-1.04-3.12-.69-7.09-4.92-8.16-8.73-.07-.21-.35-.9-.71-1.59-.85-1.94-.07-9.49,1.06-10.18,.57-.35,.85-.76,.64-.97-.14-.21-.78-.07-1.28,.21Z"/>
  <path d="M30.87,63.11c.21,1.25,.78,2.98,1.21,3.81,.5,1.18,.5,2.01-.07,3.12-.43,.9-.99,2.63-1.21,3.81-.28,1.25-.78,2.29-1.13,2.29s-.78,.69-.99,1.59c-.43,1.59-1.06,2.08-5.04,3.88-1.13,.48-2.62,1.18-3.26,1.52-1.7,.83-6.95,.76-6.95-.07,0-.42-.78-.69-1.63-.69-.92,0-2.48-.62-3.4-1.39-4.33-3.53-4.97-4.16-4.68-4.64,.21-.35-.07-.97-.64-1.39-.57-.55-1.06-.62-1.35-.21-.21,.42-.07,.69,.28,.69,.43,0,.78,.42,.78,.9,0,.83,3.33,4.43,5.89,6.44,1.92,1.52,8.87,2.29,13.05,1.39,3.19-.69,6.31-3.12,9.43-7.34,1.49-2.08,1.7-3.19,1.7-8.03,0-4.36-.28-5.89-1.21-6.79-1.13-1.11-1.13-1.04-.78,1.11Z"/>
  <path d="M.65,64.29c0,.76-.21,1.94-.43,2.63-.28,.97-.28,1.04,.28,.21,1.21-1.87,1.7-4.16,.92-4.16-.43,0-.78,.62-.78,1.32Z"/>
  <path d="M138.41,65.05c0,1.32,.14,1.87,.35,1.18,.14-.62,.14-1.73,0-2.42-.21-.62-.35-.07-.35,1.25Z"/>
  <path d="M160.04,65.74c-.43,3.39,.14,8.38,.99,7.9s.78-4.43-.07-4.43c-.35,0-.71-.48-.71-1.04s.28-1.04,.71-1.04c.35,0,.57-.9,.5-2.08-.21-2.91-.92-2.56-1.42,.69Z"/>
  <path d="M298.01,64.7c0,1.11,.14,1.52,.35,.83,.14-.62,.14-1.59,0-2.08-.21-.42-.35,.07-.35,1.25Z"/>
  <path d="M245.17,65.54c-.78,.69-.57,4.92,.21,5.4,.43,.28,.71-.83,.71-2.7,0-3.26-.14-3.53-.92-2.7Z"/>
  <path d="M106.35,66.44c0,.35,.35,.69,.71,.69,.43,0,.71-.35,.71-.69,0-.42-.28-.69-.71-.69-.35,0-.71,.28-.71,.69Z"/>
  <path d="M191.61,69.07c-.99,2.08-1.13,4.09-.21,4.57,.5,.35,1.77-5.75,1.28-6.23-.07-.07-.57,.62-1.06,1.66Z"/>
  <path d="M106.35,69.55c0,.97,.28,1.73,.64,1.73,.28,0,.78,1.11,.99,2.42,.43,2.49,.99,3.39,4.19,6.44,3.83,3.67,4.33,3.95,9.65,4.22,6.53,.28,11.14-1.59,13.76-5.61,.85-1.45,1.84-2.63,2.13-2.63s.71-1.59,.99-3.46c.28-1.94,.78-3.46,1.13-3.46s.43-.35,.21-.69c-.92-1.52-1.77-.55-1.77,2.08,0,1.52-.28,2.77-.64,2.77s-.85,.83-1.06,1.8c-.64,2.29-5.18,6.44-7.73,7-1.06,.21-2.13,.69-2.34,.97-.5,.83-6.46,.76-7.02-.07-.21-.42-1.06-.69-1.77-.69s-1.77-.48-2.41-1.04c-.57-.55-1.35-1.04-1.63-1.04-1.35,0-5.11-6.23-5.53-9.28-.57-3.39-1.77-4.36-1.77-1.45Z"/>
  <path d="M298.01,69.55c0,1.11,.14,1.52,.35,.83,.14-.62,.14-1.59,0-2.08-.21-.42-.35,.07-.35,1.25Z"/>
  <path d="M.65,71.28c0,1.11,.35,2.08,.71,2.08,.43,0,.71-.97,.71-2.08,0-1.18-.28-2.08-.71-2.08-.35,0-.71,.9-.71,2.08Z"/>
  <path d="M161.75,74.82c-.07,1.45,3.9,6.79,5.46,7.34,.64,.28,1.42,.76,1.63,1.11,.21,.28,1.77,.76,3.4,.97,1.56,.21,2.91,.76,2.91,1.18,0,.55,.14,.55,.57,0,.28-.42,1.99-.9,3.83-1.11s3.83-.9,4.47-1.52,1.49-1.11,1.84-1.11c.92,0,4.89-5.54,4.82-6.86,0-.9-.14-.9-.43-.07-.5,1.18-1.42,2.35-3.4,4.22-3.05,2.98-3.69,3.39-5.18,3.39-.78,0-1.7,.28-1.92,.69-.21,.35-1.84,.69-3.62,.69s-3.12-.35-3.12-.69c0-.42-.78-.69-1.7-.69s-2.48-.62-3.48-1.39-2.13-1.39-2.55-1.39-.78-.42-.78-.97-.43-1.45-.92-1.94c-.57-.48-1.13-1.39-1.42-1.94-.28-.9-.43-.83-.43,.07Z"/>
  <path d="M57.61,94.63c1.06,.14,2.77,.14,3.9,0,1.06-.14,.14-.28-1.99-.28s-3.05,.14-1.92,.28Z"/>
  <path d="M151.32,112.5c0,7.2,.14,10.11,.21,6.37,.14-3.74,.14-9.63,0-13.16-.07-3.53-.21-.48-.21,6.79Z"/>
  <path d="M280.85,104.67c0,.35,1.28,.55,2.84,.55s2.84-.14,2.84-.28-1.28-.42-2.84-.55-2.84,0-2.84,.28Z"/>
  <path d="M10.94,105.22c-1.92,.48-1.92,.55-.35,.55,.99,0,2.55-.28,3.55-.55,1.42-.42,1.49-.55,.35-.55-.78,0-2.34,.28-3.55,.55Z"/>
  <path d="M17.18,105.02c.64,.14,1.63,.14,2.13,0,.43-.21-.07-.35-1.28-.35-1.13,0-1.56,.14-.85,.35Z"/>
  <path d="M230.2,105.22c2.34,.28,4.68,.69,5.11,.97,.5,.28,.85,.21,.85-.14,0-.83-3.62-1.52-7.38-1.45-2.41,.14-2.2,.21,1.42,.62Z"/>
  <path d="M277.3,105.22c-1.49,.48-1.49,.55-.35,.62,.78,0,1.92-.28,2.48-.62,1.28-.76,.35-.76-2.13,0Z"/>
  <path d="M22,105.43c.14,.07,.85,.62,1.56,1.11,1.06,.83,1.21,.83,.78-.21-.21-.62-.92-1.11-1.56-1.11-.57,0-.92,.07-.78,.21Z"/>
  <path d="M223.25,105.71c.5,.21,1.13,.14,1.35-.07,.28-.21-.14-.42-.92-.35-.78,0-.99,.21-.43,.42Z"/>
  <path d="M287.8,105.71c.43,.14,1.28,.14,1.77,0,.43-.21,.07-.35-.92-.35s-1.35,.14-.85,.35Z"/>
  <path d="M219.84,107.3c-1.28,.83-.14,.83,1.77,0,.92-.42,1.06-.62,.35-.62-.57,0-1.56,.28-2.13,.62Z"/>
  <path d="M239,108.34c2.7,1.94,2.84,2.01,2.84,1.04,0-.42-.35-.69-.78-.69s-1.21-.48-1.77-1.04c-.64-.55-1.42-1.04-1.92-1.04-.43,0,.28,.76,1.63,1.73Z"/>
  <path d="M290.78,107.3c.57,.35,1.56,.62,2.13,.62,.71,0,.57-.21-.35-.62-1.92-.83-3.05-.83-1.77,0Z"/>
  <path d="M27.04,108.96c.92,.9,1.77,1.52,1.92,1.39,.43-.35-2.13-3.05-2.91-3.05-.35,0,.14,.76,.99,1.66Z"/>
  <path d="M271.2,109.1c-.71,.97-1.92,2.42-2.55,3.19-.71,.83-1.28,2.35-1.28,3.46,0,1.18-.28,1.87-.71,1.59s-.71,.9-.71,3.05c0,1.94,.35,3.53,.71,3.53,.43,0,.71,.76,.71,1.66,0,2.56,2.77,6.23,6.6,8.66,2.98,1.94,3.97,2.22,8.44,2.22,2.77,0,5.25-.28,5.46-.62s1.13-.83,2.06-1.11c.85-.28,1.56-.83,1.56-1.18s.35-.62,.71-.62c.85,0,3.05-2.08,3.83-3.53,.28-.55,.92-1.73,1.49-2.7s.99-2.84,.99-4.16l-.07-2.42-.57,2.42c-.28,1.32-.64,2.91-.78,3.46-.43,1.45-5.67,6.93-6.74,6.93-.5,0-.99,.42-1.21,.83-.14,.62-2.06,.9-6.24,.9-4.75,0-6.38-.28-8.09-1.39-2.91-1.94-4.4-3.46-4.97-5.13-.21-.83-.71-1.45-1.06-1.45-.43,0-1.21-3.46-1.42-6.58-.14-1.73,.92-6.58,1.49-6.58,.28,0,.71-.55,.92-1.25,.21-.62,1.21-2.01,2.2-3.12,.99-1.04,1.56-1.87,1.21-1.87s-1.28,.83-1.99,1.8Z"/>
  <path d="M4.55,109.45c-.78,1.11-.07,1.32,.92,.21,.5-.55,.57-.97,.21-.97s-.92,.35-1.13,.76Z"/>
  <path d="M293.62,108.96c0,.14,.5,.62,1.06,1.11,.64,.48,1.06,.55,1.06,.14,0-.35-.5-.83-1.06-1.11-.57-.21-1.06-.28-1.06-.14Z"/>
  <path d="M216.01,111.18c-.64,1.66-.5,1.87,.64,.69,1.21-1.18,1.35-1.8,.43-1.8-.35,0-.85,.48-1.06,1.11Z"/>
  <path d="M29.45,111.32c-.21,.35,.07,1.04,.64,1.52,1.13,.97,1.42,.21,.43-1.32-.35-.55-.78-.62-1.06-.21Z"/>
  <path d="M243.18,113.19c.64,1.25,1.21,2.15,1.35,2.08,.5-.42-.78-3.74-1.56-4.02-.64-.28-.57,.35,.21,1.94Z"/>
  <path d="M295.74,112.08c0,.69,1.35,1.73,1.77,1.39,.07-.14-.21-.69-.78-1.18s-.99-.55-.99-.21Z"/>
  <path d="M.37,116.93c-.5,3.19,.21,9.07,1.06,9.07,.35,0,.64,.35,.64,.69,0,1.66,3.83,6.16,6.24,7.34,1.42,.76,2.84,1.52,3.05,1.87,.85,1.11,9.22,.69,11.85-.62,1.49-.76,2.77-1.52,2.84-1.87,.14-.28,.64-.48,1.06-.48,1.56,0,5.32-6.44,5.75-9.97,.5-3.74-.14-8.73-1.06-8.73-.85,0-.78,3.26,.07,3.81s.92,3.81,.07,3.81c-.28,0-.78,1.25-.99,2.7-.35,2.7-.85,3.6-3.83,6.51-3.62,3.53-3.9,3.6-10.5,3.6-5.67,0-6.6-.21-8.02-1.59-.85-.83-1.92-1.39-2.2-1.18-.35,.21-.99-.62-1.42-1.73-.35-1.18-.99-2.08-1.35-2.08-.78,0-1.77-2.63-1.56-4.09,.07-.55-.28-1.73-.78-2.63-.64-1.18-.71-2.22-.14-4.02,.43-1.32,.57-2.56,.21-2.77-.28-.14-.71,.9-.99,2.35Z"/>
  <path d="M298.01,116.3c0,1.32,.14,1.87,.35,1.18,.14-.62,.14-1.73,0-2.42-.21-.62-.35-.07-.35,1.25Z"/>
  <path d="M245.1,117.48c-.43,1.45-.07,4.92,.57,5.54,.21,.21,.43-1.18,.43-3.12,0-3.74-.35-4.5-.99-2.42Z"/>
  <path d="M244.03,124.41c0,1.25-.35,2.29-.71,2.29s-.92,.69-1.13,1.52c-.5,1.52-3.33,4.43-4.82,4.92-.5,.14-.64,.55-.35,.83s.99,0,1.63-.62,1.35-1.11,1.63-1.11,1.42-1.39,2.48-3.12c1.35-2.08,1.92-3.67,1.7-4.99-.28-1.87-.28-1.8-.43,.28Z"/>
  <path d="M151.25,128.77c0,1.73,.14,2.42,.28,1.52,.14-.83,.14-2.22,0-3.12-.14-.83-.28-.14-.28,1.59Z"/>
  <path d="M70.38,134.8c.64,.14,1.63,.14,2.13,0,.43-.21-.07-.35-1.28-.35-1.13,0-1.56,.14-.85,.35Z"/>
  <path d="M71.8,145.88c2.62,.14,6.81,.14,9.22,0s.28-.21-4.82-.21-7.02,.07-4.4,.21Z"/>
  <path d="M14.84,156.06c0,.62,2.84,.9,3.26,.35,.21-.35-.43-.62-1.42-.62s-1.84,.14-1.84,.28Z"/>
  <path d="M122.16,156.27c.64,.14,1.77,.14,2.48,0,.64-.21,.07-.35-1.28-.35s-1.92,.14-1.21,.35Z"/>
  <path d="M283.54,156.27c.5,.21,1.13,.14,1.35-.07,.28-.21-.14-.42-.92-.35-.78,0-.99,.21-.43,.42Z"/>
  <path d="M11.15,157.65c.43,.14,1.28,.14,1.77,0,.43-.21,.07-.35-.92-.35s-1.35,.14-.85,.35Z"/>
  <path d="M20.02,157.65c.64,.14,1.63,.14,2.13,0,.43-.21-.07-.35-1.28-.35-1.13,0-1.56,.14-.85,.35Z"/>
  <path d="M117.91,157.65c.64,.14,1.77,.14,2.48,0,.64-.21,.07-.35-1.28-.35s-1.92,.14-1.21,.35Z"/>
  <path d="M127.91,157.79c1.49,.28,2.91,.9,3.19,1.25,.71,1.18,3.62,2.42,3.62,1.59,0-.35-.5-.69-1.06-.69-.5,0-1.28-.48-1.63-1.11s-1.84-1.18-3.76-1.32l-3.12-.28,2.77,.55Z"/>
  <path d="M171.11,157.65c.64,.14,1.63,.14,2.13,0,.43-.21-.07-.35-1.28-.35-1.13,0-1.56,.14-.85,.35Z"/>
  <path d="M275.88,157.65c-1.63,.62-4.54,2.98-3.69,2.98,.43,0,1.21-.48,1.84-1.04,.57-.55,2.27-1.32,3.76-1.66,1.84-.42,2.13-.62,.92-.62-.99,0-2.27,.14-2.84,.35Z"/>
  <path d="M285.17,157.45c.14,.14,1.7,.42,3.48,.62,2.13,.28,2.7,.21,1.77-.21-1.35-.55-5.89-.97-5.25-.42Z"/>
  <path d="M25.27,158.97c-.64,.62,1.13,2.22,2.13,1.87,.5-.21,.92,.14,.92,.69,0,.62,.5,1.59,1.13,2.22,.64,.55,1.28,2.29,1.49,3.81s.71,2.77,.99,2.77c.35,0,.64,.62,.64,1.39s-.28,1.39-.71,1.39c-.35,0-.71,1.04-.71,2.35,0,2.98-2.41,6.65-5.67,8.8-1.35,.9-2.7,1.94-2.91,2.29-.28,.28-2.91,.55-5.96,.55s-5.67-.28-5.96-.55c-.21-.35-1.63-1.39-3.05-2.35-1.49-.97-2.7-2.08-2.7-2.49,0-.35-.43-1.11-.85-1.52-.5-.48-1.63-2.98-2.48-5.54L.01,169.98l.43,3.81c.28,2.08,.85,4.22,1.42,4.71,.5,.48,.92,1.39,.92,1.94s.28,.97,.64,.97,.85,.62,1.13,1.32c.57,1.8,6.31,4.92,8.94,4.92,1.13,0,2.06,.28,2.06,.69,0,.35,.64,.69,1.35,.69,.78,0,1.63-.35,1.84-.69,.21-.42,1.35-.69,2.41-.69s2.7-.62,3.62-1.39,1.99-1.39,2.41-1.39,1.84-1.66,3.19-3.67c2.27-3.32,2.48-4.02,2.48-9,0-3.05-.35-5.68-.78-5.89-.43-.28-.92-1.18-1.21-2.08-.28-.83-.85-1.52-1.21-1.52s-.64-.48-.64-1.04c0-.62-.57-1.32-1.21-1.52-.71-.28-1.49-.69-1.7-1.04s-.57-.42-.85-.14Z"/>
  <path d="M6.33,159.73c-1.21,.48-2.13,1.59-2.13,2.56,0,.42,.43,.21,.92-.42,.43-.55,1.49-1.39,2.27-1.8,1.49-.83,.78-1.04-1.06-.35Z"/>
  <path d="M165.58,159.94c-.92,.42-1.06,.62-.35,.62,.57,0,1.56-.28,2.13-.62,1.28-.83,.14-.83-1.77,0Z"/>
  <path d="M293.26,160.63c.21,.35,.57,.69,.78,.69,.14,0,.28-.35,.28-.69,0-.42-.35-.69-.78-.69-.35,0-.5,.28-.28,.69Z"/>
  <path d="M269.78,162.16c-.21,.83-.92,1.94-1.42,2.49-.57,.48-.99,1.66-.99,2.63,0,.9-.28,1.66-.71,1.66-.92,0-.92,5.19-.07,6.79,.43,.62,.85,1.94,1.06,2.91,.5,1.94,4.68,6.93,5.89,6.93,.43,0,.92,.35,1.06,.76,.14,.35,1.56,.9,3.26,1.11,1.63,.21,2.98,.69,2.98,.97,0,.35,.64,.62,1.42,.62s1.42-.35,1.42-.69c0-.42,1.13-.69,2.48-.69,3.05,0,8.37-3.39,9.86-6.3,.28-.55,.92-1.73,1.49-2.7s1.06-2.77,1.06-4.02c0-1.18,.35-2.22,.71-2.22,.43,0,.71-.35,.71-.76,0-.55-.35-.55-1.06,.07-.57,.48-1.06,1.8-1.06,2.91,0,2.08-1.99,6.1-2.98,6.1-.28,0-.57,.48-.57,1.04,0,.62-.57,1.32-1.21,1.52-.71,.28-2.06,1.18-3.05,2.08-1.06,.97-2.77,1.66-4.26,1.66-4.82,.21-8.8-.21-9.65-1.04-.5-.42-2.06-1.66-3.4-2.77-1.42-1.04-2.55-2.35-2.55-2.91,0-.48-.57-1.18-1.21-1.52-1.77-1.04-1.84-11.84,0-13.58,.64-.69,1.21-1.59,1.21-2.15,0-.48,.35-1.04,.85-1.18,.64-.21,.64-.42,.07-.76-.5-.28-.99,.14-1.35,1.04Z"/>
  <path d="M110.11,162.5c-.28,.69-.92,1.66-1.42,2.15s-.92,1.52-.92,2.22-.28,1.52-.71,1.73c-.35,.21-.71,1.66-.71,3.19s.28,2.63,.64,2.42,.78,.97,.92,2.63c.35,3.05,.85,3.88,3.9,6.86s3.9,3.39,6.67,3.74c1.49,.21,2.77,.69,2.77,.97,0,.35,.78,.62,1.77,.62s1.77-.35,1.77-.69c0-.42,.99-.69,2.13-.69,3.05,0,9.93-5.06,9.93-7.34,0-.48,.35-.97,.85-1.11,.5-.21,.85-2.42,.92-6.16,.14-5.54,.14-5.61-.28-1.32-.5,4.64-1.92,9-2.91,9-.35,0-.78,.55-.99,1.25-.21,.62-1.92,2.08-3.76,3.19-2.84,1.66-4.11,1.94-8.16,1.94-4.97-.07-6.03-.55-10.5-5.06-2.91-3.05-3.33-3.67-3.76-6.51-.21-1.52-.57-3.6-.85-4.71-.21-1.04-.07-1.87,.35-1.87,.35,0,.71-.76,.71-1.66s.43-2.01,.99-2.42,1.13-1.45,1.35-2.15c.43-1.73-.07-1.8-.71-.21Z"/>
  <path d="M162.88,162.92c-.64,.76-1.21,1.87-1.21,2.35s-.28,.9-.64,.9c-1.56,0-1.28,11.91,.35,13.09,.78,.48,2.34,2.84,2.84,4.22s6.53,4.16,8.94,4.16c.99,0,1.99,.42,2.2,.83,.21,.69,.64,.69,1.99,.07,.92-.42,2.91-.97,4.4-1.25,1.42-.21,2.62-.69,2.62-1.04s.78-.83,1.77-1.11c.99-.21,1.77-.69,1.77-.97,0-.35,.21-1.18,.5-1.87,.5-1.18,.43-1.18-.85,0-3.55,3.46-6.88,4.85-11.85,4.78-3.4,0-5.11-.35-5.89-1.11-.64-.62-1.49-1.11-1.84-1.11-.85,0-3.48-2.56-3.48-3.39,0-.35-.5-1.18-1.13-1.8-.64-.55-1.28-2.42-1.49-4.02-.28-1.59-.78-3.12-1.21-3.46-.5-.28-.57-.69-.07-1.04,.43-.28,.85-1.45,.92-2.56,.14-1.18,.92-3.12,1.7-4.36,1.7-2.63,1.49-3.46-.35-1.32Z"/>
  <path d="M2.35,164.44c-.21,.97-.71,1.73-1.06,1.73s-.64,.83-.57,1.87c0,1.11,.21,1.45,.43,.9,.64-1.94,1.99-4.5,2.62-4.92,.28-.28,.21-.62-.21-.9s-.92,.28-1.21,1.32Z"/>
  <path d="M136.85,165.48c0,.35,.35,.69,.71,.69,.43,0,.71-.35,.71-.69,0-.42-.28-.69-.71-.69-.35,0-.71,.28-.71,.69Z"/>
  <path d="M296.88,165.41c-.28,.42-.14,.76,.21,.76,.43,0,.85,.83,.85,1.87q.14,1.66,.43,.42c.35-1.87-.78-4.22-1.49-3.05Z"/>
  <path d="M191.26,174.28c-.28,.21-.5,1.18-.5,2.01s-.5,2.08-1.13,2.7c-.78,.76-.92,1.39-.5,1.8,.5,.48,.92,.14,1.21-1.11,.28-.97,.78-1.59,1.13-1.39,.43,.28,.71-.62,.71-2.01,0-2.56-.14-2.84-.92-2.01Z"/>
  <path d="M12.21,208.91c.64,.14,1.77,.14,2.48,0,.64-.21,.07-.35-1.28-.35s-1.92,.14-1.21,.35Z"/>
  <path d="M18.6,208.91c.64,.14,1.77,.14,2.48,0,.64-.21,.07-.35-1.28-.35s-1.92,.14-1.21,.35Z"/>
  <path d="M116.42,209.46c-.78,.83-.71,1.04,.21,1.04,.57,0,1.06-.28,1.06-.62,0-.42,1.21-.83,2.7-.97l2.62-.28-2.84-.07c-1.7-.07-3.19,.35-3.76,.9Z"/>
  <path d="M124.29,208.91c.64,.14,1.77,.14,2.48,0,.64-.21,.07-.35-1.28-.35s-1.92,.14-1.21,.35Z"/>
  <path d="M171.82,208.91c.64,.14,1.77,.14,2.48,0,.64-.21,.07-.35-1.28-.35s-1.92,.14-1.21,.35Z"/>
  <path d="M178.2,208.91c.64,.14,1.77,.14,2.48,0,.64-.21,.07-.35-1.28-.35s-1.92,.14-1.21,.35Z"/>
  <path d="M278.58,208.91c.85,.14,2.13,.14,2.84,0,.64-.21-.07-.35-1.63-.28-1.56,0-2.13,.14-1.21,.28Z"/>
  <path d="M285.32,208.91c.64,.14,1.77,.14,2.48,0,.64-.21,.07-.35-1.28-.35s-1.92,.14-1.21,.35Z"/>
  <path d="M9.16,209.74c0,.42-.57,.76-1.21,.83-.71,0-.92,.21-.43,.35,1.28,.55,3.48-.76,2.41-1.39-.43-.28-.78-.14-.78,.21Z"/>
  <path d="M22.64,209.74c0,.35,.64,.9,1.49,1.11,2.91,.9,7.02,6.3,7.02,9.21,0,.83,.43,2.22,.92,2.98,.71,1.18,.71,1.59,0,1.8-.5,.21-.92,1.25-.92,2.35,0,1.18-.71,3.26-1.56,4.71-1.56,2.7-6.53,6.3-8.65,6.3-.64,0-1.13,.28-1.13,.69,0,.35-1.42,.69-3.19,.69s-3.19-.35-3.19-.69c0-.42-.5-.69-1.13-.69-1.77,0-7.31-3.46-7.73-4.92-.28-.69-.71-1.32-1.06-1.32s-.78-.55-.92-1.25c-.28-1.04-.35-1.04-.43,0,0,.62,.35,1.59,.85,2.08s1.13,1.45,1.42,2.08c.21,.69,.92,1.25,1.56,1.25,.57,0,1.06,.21,1.06,.55,0,.28,1.21,1.11,2.62,1.87,3.05,1.59,13.05,1.94,13.55,.48,.14-.48,.71-.83,1.28-.83s1.21-.48,1.42-1.04c.28-.55,.85-1.04,1.28-1.04,.5,0,1.92-1.45,3.19-3.26,2.2-3.05,2.41-3.67,2.41-8.8,.07-3.67-.21-5.61-.78-5.82-.5-.14-.85-.69-.85-1.18,0-1.18-5.11-6.58-6.24-6.58-.5,0-.85-.35-.85-.69,0-.42-.28-.69-.71-.69-.35,0-.71,.28-.71,.62Z"/>
  <path d="M168.77,209.81c0,.42-.35,.69-.78,.69-.99,0-5.6,4.5-5.6,5.47,0,.35-.5,1.18-1.21,1.8-.85,.9-1.13,2.42-1.13,6.23,.07,4.5,.28,5.4,2.41,8.59,1.35,1.94,2.77,3.53,3.26,3.53s.92,.21,.92,.55c0,.28,1.21,1.11,2.62,1.87,3.19,1.73,12.13,1.87,13.9,.28,2.13-1.87,2.98-2.42,4.26-2.91,.64-.21,1.21-.9,1.21-1.52,0-.55,.28-1.04,.64-1.04s.92-.69,1.21-1.59c.28-.83,.71-1.66,.99-1.87s.64-1.94,.85-3.81c.14-1.94,.21-2.91,.07-2.29-.21,.69-.64,1.25-.99,1.25-.43,0-.57,.28-.35,.55,.85,1.39-1.7,7.06-4.19,9.21-2.91,2.56-4.33,3.39-5.82,3.39-.85,0-1.63,.28-1.63,.55,0,.35-1.28,.62-2.84,.69s-2.84-.21-2.84-.55c0-.42-.78-.69-1.7-.69-.99,0-2.2-.42-2.7-.9s-1.49-1.11-2.13-1.39c-2.13-.76-5.53-6.03-5.53-8.59,0-1.25-.28-2.29-.71-2.29-.35,0-.71-.62-.71-1.39s.35-1.39,.78-1.39,.64-.48,.35-1.04c-.43-1.11,.85-4.5,1.77-4.5,.28,0,.71-.76,.92-1.66,.21-.97,1.06-1.94,1.92-2.15,.78-.28,1.28-.69,.99-.9-.21-.28,.57-.76,1.84-1.18,1.84-.62,2.06-.9,1.13-1.25-.64-.21-1.21-.14-1.21,.21Z"/>
  <path d="M274.46,210.43c-.99,.62-1.84,1.32-1.99,1.59-.14,.35-.71,.55-1.28,.55s-.99,.48-.99,1.04c0,.62-.5,1.25-1.06,1.45-.57,.28-1.28,1.66-1.49,3.12-.28,1.45-.71,2.7-1.06,2.7s-.64,1.39-.64,3.12,.35,3.12,.71,3.12c.43,0,.71,.83,.71,1.8,0,2.49,4.47,8.59,6.31,8.59,.35,0,1.13,.48,1.77,1.04,.64,.62,2.77,1.18,5.18,1.32,2.27,.14,3.05,.14,1.84-.07-1.28-.14-2.34-.55-2.34-.97,0-.35-.71-.62-1.63-.62-2.34,0-6.67-3.12-8.8-6.44-1.63-2.49-1.92-3.67-1.92-8.17,0-3.53,.35-5.61,1.06-6.44,3.12-3.67,5.46-5.75,6.95-6.37,.99-.42,1.49-.9,1.06-1.11-.35-.21-1.42,.14-2.41,.76Z"/>
  <path d="M129.97,210.64c1.06,.35,1.92,.97,1.92,1.32s.43,.62,.92,.62c.43-.07,.07-.69-.85-1.39-.92-.76-2.2-1.39-2.84-1.32-.64,0-.28,.35,.85,.76Z"/>
  <path d="M183.52,210.64c.35,.35,1.13,.55,1.63,.42,.57-.21,.21-.48-.71-.76-1.21-.28-1.49-.21-.92,.35Z"/>
  <path d="M113.23,210.99c-.71,.69-.57,1.59,.28,1.59,.35,0,.57-.28,.35-.62-.28-.35,0-.83,.43-.97,.5-.21,.57-.42,.14-.42-.43-.07-.99,.14-1.21,.42Z"/>
  <path d="M292.62,211.82c-.21,.35,.07,.76,.64,.97,.64,.28,.85,.07,.57-.62-.43-1.11-.71-1.18-1.21-.35Z"/>
  <path d="M3.99,213.96c-.64,.76-.92,1.39-.5,1.39,.35,0,.99-.62,1.42-1.39s.64-1.39,.57-1.39c-.14,0-.78,.62-1.49,1.39Z"/>
  <path d="M110.32,214.31c-.28,.97-.78,1.59-1.13,1.39-.43-.21-.71-.07-.71,.28,0,1.45,1.42,.69,2.48-1.32,.64-1.18,.78-2.08,.43-2.08s-.85,.76-1.06,1.73Z"/>
  <path d="M134.08,212.99c-.07,.42,.71,1.66,1.63,2.7,.99,1.11,1.63,2.22,1.42,2.56-.21,.28-.07,.55,.35,.55,.35,0,.85,.83,.99,1.87,.14,1.11,.21,.76,.14-.62-.14-1.45-.71-3.12-1.35-3.67-.64-.62-1.13-1.59-1.13-2.15s-.28-.9-.64-.69c-.35,.28-.85,0-.99-.42-.21-.55-.43-.55-.43-.14Z"/>
  <path d="M188.13,213.55c.07,.76,.64,1.45,1.21,1.59,.71,.21,.78,.14,.28-.28-.43-.28-.99-1.04-1.21-1.59-.35-.76-.43-.62-.28,.28Z"/>
  <path d="M294.82,213.69c-.21,.35,.07,1.04,.64,1.52,1.13,.97,1.28,.35,.35-1.18-.35-.48-.78-.62-.99-.35Z"/>
  <path d="M107.91,219.16c0,1.11,.14,1.52,.35,.83,.14-.62,.14-1.59,0-2.08-.21-.42-.35,.07-.35,1.25Z"/>
  <path d="M190.97,218.54c-.21,.55-.07,1.39,.43,1.87,.57,.55,.78,.28,.78-1.11,0-2.08-.5-2.42-1.21-.76Z"/>
  <path d="M.65,219.78c0,1.52,.21,1.87,.78,1.32s.57-1.11,0-2.08c-.64-1.11-.71-.97-.78,.76Z"/>
  <path d="M298.01,220.54c0,1.11,.14,1.52,.35,.83,.14-.62,.14-1.59,0-2.08-.21-.42-.35,.07-.35,1.25Z"/>
  <path d="M106.35,224.15c0,2.42,.21,3.05,.71,2.29,.92-1.39,.92-4.64,0-5.19-.43-.28-.71,.83-.71,2.91Z"/>
  <path d="M138.34,225.6c-.07,2.22-1.92,6.3-3.76,8.45-1.84,2.01-5.53,4.16-7.31,4.16-.99,0-1.77,.28-1.77,.69,0,.35-1.13,.69-2.48,.69s-2.48-.28-2.48-.62c0-.28-1.13-.76-2.55-.97-2.7-.42-8.09-5.13-8.09-7.06,0-.55-.28-1.04-.64-1.04s-.85-.55-.99-1.25c-.14-.62-.21-.28-.07,.9,.21,1.11,.57,2.22,.99,2.42,.35,.21,.92,1.25,1.35,2.29s1.21,1.87,1.84,1.87c.57,0,1.06,.28,1.06,.62s.71,.9,1.63,1.18c.85,.28,1.77,.83,2.06,1.25,.71,1.11,12.06,.97,12.48-.14,.14-.48,.71-.83,1.28-.83s1.21-.48,1.42-1.04c.28-.55,.85-1.04,1.42-1.04s.99-.42,.99-.97,.5-1.11,1.06-1.39c.57-.21,1.06-.83,1.06-1.45,0-.55,.28-1.04,.64-1.04,.78,0,1.84-5.75,1.28-7.06-.21-.48-.43,.14-.43,1.39Z"/>
  <path d="M298.01,226.57c-.07,1.45-.43,2.63-.78,2.63s-.85,.76-1.06,1.73c-.78,3.12-6.03,7.27-9.08,7.27-1.21,0-1.92,.28-1.63,.69,.21,.35,1.21,.69,2.2,.69,.92,0,1.7-.35,1.7-.69,0-.42,.5-.69,1.06-.69,.5,0,1.28-.42,1.56-.9,.28-.55,1.06-1.11,1.7-1.32,2.13-.76,5.04-6.58,4.68-9.42l-.28-2.56-.07,2.56Z"/>
  <path d="M.51,227.54c.21,1.66,.57,2.22,.99,1.8,.78-.76,.21-4.29-.71-4.29-.28,0-.43,1.11-.28,2.49Z"/>
  <path d="M96.98,250.47c-.14,.35-.07,5.4,.14,11.29l.43,10.74,.14-10.18,.14-10.18h52.21c28.73,0,52.42-.21,52.56-.35,1.7-1.59-3.48-1.8-52.99-1.8-28.8,0-52.49,.21-52.63,.48Z"/>
  <path d="M94.78,260.16c.57,3.6,.92,3.74,.92,.35,0-1.59-.28-2.91-.64-2.91-.43,0-.5,1.18-.28,2.56Z"/>
  <path d="M13.78,260.37c-.21,.35-1.49,.69-2.7,.76-1.28,0-1.84,.21-1.35,.42,1.35,.48,5.82-.42,5.82-1.18,0-.9-1.21-.9-1.77,0Z"/>
  <path d="M16.68,260.3c-.28,.35,1.13,.83,3.4,1.11s4.04,.9,4.26,1.45,.78,.97,1.28,.97c.57,0,1.42,.62,1.99,1.45,.57,.76,1.63,2.08,2.34,2.84,.64,.83,1.21,2.42,1.21,3.67,0,1.18,.35,2.49,.85,2.98,.64,.62,.64,1.04,0,1.66-.5,.48-.85,1.8-.85,3.05,0,1.18-.64,2.98-1.42,3.95s-1.42,2.01-1.42,2.35c-.07,.28-1.42,1.45-3.05,2.63-2.7,1.87-3.48,2.08-8.65,2.08s-5.96-.21-8.65-2.08c-1.7-1.18-3.19-2.63-3.48-3.32-.21-.62-.64-1.18-.99-1.18-.28,0-.92-1.59-1.42-3.46-.5-1.94-1.13-3.6-1.42-3.81-.85-.48,.07,5.4,.99,6.3,.43,.42,1.21,1.39,1.7,2.08,.5,.76,1.13,1.59,1.42,2.01,2.27,3.12,13.05,6.3,15.82,4.64,.71-.48,1.63-.83,2.06-.83,.85,0,5.04-2.77,5.82-3.81,.28-.42,.92-1.25,1.42-2.01,.5-.69,1.35-1.73,1.92-2.29,.71-.69,.99-2.77,.99-6.79s-.28-6.1-.99-6.79c-.57-.55-1.42-1.59-1.92-2.29-.5-.76-1.13-1.66-1.42-2.01-1.06-1.45-4.82-3.6-6.88-3.95-1.21-.21-2.62-.55-3.26-.83-.71-.28-1.42-.21-1.63,.21Z"/>
  <path d="M279.78,260.37c-.28,.42,.78,.69,2.91,.69,3.83,0,3.9-.28,.14-.97-1.49-.28-2.77-.14-3.05,.28Z"/>
  <path d="M115.57,260.65c0,.14,.5,.48,1.13,.69,.57,.21,.85,.14,.64-.28-.43-.69-1.77-.97-1.77-.42Z"/>
  <path d="M225.73,261.55c.64,.14,1.77,.14,2.48,0,.64-.21,.07-.35-1.28-.35s-1.92,.14-1.21,.35Z"/>
  <path d="M275.03,261.96c-.5,.48-1.49,1.11-2.13,1.39-1.92,.69-5.53,6.03-5.53,8.24,0,1.04-.28,1.94-.71,1.94-1.06,0-.85,3.12,.5,7.13,1.35,4.22,7.02,10.18,9.58,10.18,1.28,0,.92-.42-1.7-2.08-1.84-1.11-4.26-3.39-5.32-4.99-1.63-2.63-1.84-3.67-1.84-8.45,0-2.98,.28-5.61,.64-5.89,.35-.21,1.42-1.59,2.41-2.98,.99-1.45,2.13-2.63,2.62-2.63,.43,0,1.28-.42,1.77-.97,.57-.55,1.63-1.11,2.41-1.32,1.21-.28,1.21-.35-.21-.42-.85,0-1.99,.35-2.48,.83Z"/>
  <path d="M287.8,261.55c.43,.14,1.28,.14,1.77,0,.43-.21,.07-.35-.92-.35s-1.35,.14-.85,.35Z"/>
  <path d="M290.99,262.45c.14,.55,.85,1.11,1.63,1.18,.92,.14,1.06,.07,.28-.28-.57-.21-1.35-.76-1.63-1.18-.43-.48-.5-.42-.28,.28Z"/>
  <path d="M4.62,264.87c-.64,1.8-.5,2.22,.35,.83,.43-.69,.64-1.45,.43-1.59-.14-.21-.5,.14-.78,.76Z"/>
  <path d="M294.75,266.26c1.42,2.08,1.7,2.15,1.21,.42-.21-.76-.78-1.52-1.35-1.73-.78-.28-.78,0,.14,1.32Z"/>
  <path d="M94.78,267.78c.57,3.46,.92,3.81,.92,.69,0-1.39-.28-2.63-.64-2.91-.43-.21-.5,.69-.28,2.22Z"/>
  <path d="M2.78,267.3c0,.35,.35,.69,.78,.69,.35,0,.5-.35,.28-.69-.21-.42-.57-.69-.78-.69-.14,0-.28,.28-.28,.69Z"/>
  <path d="M296.88,268.54c-.21,.42-.14,.9,.28,1.18,.35,.21,.78,1.25,.78,2.29,.07,1.39,.21,1.52,.43,.48,.35-1.87-.78-4.99-1.49-3.95Z"/>
  <path d="M.65,271.04c0,1.52,.21,1.87,.78,1.32s.57-1.11,0-2.08c-.64-1.11-.71-.97-.78,.76Z"/>
  <path d="M97.12,286.9c-.21,7.97-.21,14.61-.07,14.75s24.05,.28,53.06,.28c46.46,0,52.71-.14,52.71-1.04s-4.4-1.04-35.96-1.04c-19.86,.07-43.48,.07-52.49,0h-16.53l-.14-13.71-.21-13.64-.35,14.41Z"/>
  <path d="M.01,274.64c0,.76,.21,.97,.43,.42,.21-.48,.14-1.11-.07-1.32-.21-.28-.43,.14-.35,.9Z"/>
  <path d="M95.21,276.65c0,1.52,.14,2.08,.28,1.18,.14-.83,.14-2.08,0-2.77-.21-.62-.35,.07-.28,1.59Z"/>
  <path d="M299.29,276.23c0,.48-.28,.62-.71,.42-.43-.28-.71,.55-.71,2.08,0,1.39-.43,2.98-.85,3.46-2.06,2.22-2.7,3.12-2.7,3.6,0,.62-.85,1.25-4.61,3.67-1.42,.9-1.7,1.39-.92,1.39,.64,0,1.63-.48,2.27-1.04,.57-.55,1.35-1.04,1.7-1.04s1.28-.83,1.99-1.8,1.77-2.22,2.27-2.77,1.13-2.15,1.35-3.53c.21-1.45,.71-3.05,1.13-3.53,.35-.48,.5-1.04,.21-1.32-.21-.21-.43-.07-.43,.42Z"/>
  <path d="M95.07,283.64c0,.76,.21,.97,.43,.42,.21-.48,.14-1.11-.07-1.32-.21-.28-.43,.14-.35,.9Z"/>
  <path d="M229.63,290.64c.5,.21,1.13,.14,1.35-.07,.28-.21-.14-.42-.92-.35-.78,0-.99,.21-.43,.42Z"/>
  <path d="M95.07,294.65c-.07,2.29-.28,4.92-.43,5.89s-.35,24.87-.35,53.12c-.07,49.25,.07,54.23,1.92,53.68,.28-.07,.71,3.67,.92,8.31l.43,8.52,.28-7.97,.35-7.97,26.6-.07c14.61-.07,27.1-.28,27.66-.48s2.2-.55,3.55-.69c7.38-.9,14.61-2.84,17.31-4.64,1.63-1.11,5.67-3.67,9.08-5.82,6.03-3.67,6.31-4.02,12.34-13.02,5.25-7.76,6.38-9.9,7.09-13.71,.5-2.49,1.06-5.26,1.28-6.23,.64-2.29,1.35-7,1.42-8.52,0-1.11,1.35-1.18,15.68-1.32l15.61-.21-15.39-.14-15.46-.21-.07-13.71c-.07-28.67-.28-37.54-.99-37.68-.5-.14-.78,9.63-.92,27.98-.07,16.62-.43,28.26-.78,28.26s-.92,2.49-1.21,5.54c-.21,3.05-.71,5.4-.99,5.19s-.71,1.04-.85,2.77c-.21,1.66-.92,3.53-1.56,4.16s-1.13,1.52-1.13,2.08c0,.48-.5,1.04-1.06,1.32-.57,.21-1.06,.83-1.06,1.45,0,.55-.28,1.04-.64,1.04s-.92,.83-1.35,1.87c-.35,1.11-1.35,2.56-2.13,3.39-.78,.76-1.63,2.08-1.84,2.91-.28,.83-.78,1.52-1.06,1.52s-1.28,.62-2.2,1.39-2.06,1.39-2.62,1.39c-.5,0-.92,.28-.92,.62s-.92,.97-2.13,1.39c-1.13,.35-2.13,1.04-2.13,1.39,0,.42-.5,.76-1.06,.76s-1.06,.28-1.06,.69c0,.35-.78,.83-1.77,1.11-.99,.21-2.06,.83-2.34,1.39s-1.84,1.04-3.55,1.11c-1.63,.07-2.98,.35-2.98,.69s-.35,.42-.71,.21c-.43-.28-1.13-.14-1.63,.21s-2.84,.83-5.32,1.04c-2.41,.14-4.82,.62-5.32,1.04-1.28,1.04-54.41,1.18-54.41,.14,0-.42-.28-.55-.71-.35-.35,.21-.71-.07-.71-.69s.35-.9,.71-.69c.5,.28,.71-16.62,.71-50.22s-.21-50.49-.71-50.22c-.35,.21-.78-2.29-.92-6.37-.14-4.92-.28-5.61-.43-2.63Z"/>
  <path d="M278.72,291.54c0,.35,.99,.69,2.13,.69,1.21,0,2.13-.35,2.13-.69,0-.42-.92-.69-2.13-.69-1.13,0-2.13,.28-2.13,.69Z"/>
  <path d="M283.68,291.54c0,.35,.43,.69,.99,.69s1.28-.35,1.49-.69c.21-.42-.21-.69-.99-.69-.85,0-1.49,.28-1.49,.69Z"/>
  <path d="M16.47,312.11c.64,.14,1.63,.14,2.13,0,.43-.21-.07-.35-1.28-.35-1.13,0-1.56,.14-.85,.35Z"/>
  <path d="M120.6,312.25c-.5,.35-1.56,.42-2.27,.28-.71-.21-1.35,0-1.35,.42s-.28,.76-.64,.76c-.99,0-5.67,3.05-5.75,3.6,0,.35,.35,.55,.71,.55,.43,0,.71-.35,.71-.69,0-.42,.5-.69,1.06-.69,.5,0,1.28-.48,1.63-1.11,.35-.55,1.92-1.25,3.55-1.45s2.98-.69,2.98-.97c0-.35,.78-.62,1.77-.62s1.77,.28,1.77,.69c0,.35,1.13,.69,2.48,.69s2.48,.35,2.48,.76c0,.35,.35,.48,.78,.28,1.13-.69-2.06-2.63-3.69-2.22-.71,.21-1.35,.07-1.35-.28,0-.76-3.62-.83-4.89,0Z"/>
  <path d="M175.72,312.11c.43,.14,1.28,.14,1.77,0,.43-.21,.07-.35-.92-.35s-1.35,.14-.85,.35Z"/>
  <path d="M278.93,312.11c-1.28,.14-2.34,.55-2.34,.9,0,.28-.71,.69-1.56,.97-1.99,.48-5.53,3.6-5.53,4.85,0,.55-.5,1.11-1.06,1.39-.64,.21-1.06,1.25-1.06,2.49,0,1.11-.28,2.08-.71,2.08-.35,0-.71,1.25-.71,2.77s.35,2.77,.71,2.77c.43,0,.71,.76,.71,1.73,0,1.94,1.42,5.19,2.27,5.19,.28,0,.57,.48,.57,1.04s.43,1.04,.99,1.04,1.13,.48,1.42,1.04c.21,.55,.71,1.04,1.13,1.04s1.28,.48,1.84,1.04c.64,.55,1.99,1.04,3.12,1.04s2.62,.21,3.33,.42c1.06,.35,1.06,.28,.21-.35-.57-.42-1.99-.76-3.05-.76-1.13,0-2.41-.42-2.91-.9-.5-.42-2.13-1.73-3.55-2.91-1.42-1.11-2.55-2.35-2.55-2.7s-.5-1.25-1.13-1.87c-.85-.97-1.21-2.7-1.21-6.93,0-3.05,.28-5.82,.64-6.03,.43-.28,1.35-1.52,2.06-2.77,.78-1.18,1.63-2.22,1.84-2.22,.28,0,1.06-.48,1.7-1.11,.57-.62,2.34-1.25,3.9-1.45s2.84-.62,2.84-.97c0-.28,1.06-.69,2.34-.83q2.2-.28,.14-.28c-1.13,0-3.19,.14-4.4,.28Z"/>
  <path d="M9.16,313.56c-.99,.62-1.84,1.39-1.99,1.66-.14,.35-.71,.55-1.21,.55s-1.13,.48-1.35,1.11c-.71,1.8-.5,2.01,.99,.55,2.84-2.77,3.76-3.26,6.81-3.6,3.48-.35,3.62-.76,.5-1.18-1.13-.21-2.77,.21-3.76,.9Z"/>
  <path d="M18.74,313.01c-1.13,.48-.92,.62,1.21,.62,1.42,.07,3.05,.48,3.55,.97s1.77,1.25,2.91,1.66c1.06,.48,1.92,1.18,1.92,1.52s.5,1.18,1.13,1.8,1.35,2.49,1.56,4.22c.14,1.66,.64,3.05,.92,3.05,.35,0,.64,.48,.64,1.04s-.28,1.04-.71,1.04c-.35,0-.71,1.04-.71,2.35s-.5,2.84-1.06,3.46c-.57,.55-1.06,1.32-1.06,1.73,0,1.04-2.91,3.53-5.32,4.64-1.13,.48-1.77,.97-1.42,1.04,.43,.07-.43,.35-1.77,.62l-2.48,.48,2.27,.14c1.21,0,2.7-.42,3.33-.97,.57-.55,1.35-1.04,1.7-1.04,.78,0,5.11-4.57,5.11-5.47,0-.42,.5-.97,1.13-1.32,.85-.48,1.13-1.87,1.13-6.1,.07-4.99-.14-5.75-2.2-9.14-1.28-1.94-2.77-3.6-3.33-3.6s-.99-.28-.99-.69c0-.35-.78-.83-1.77-1.11-.99-.21-1.77-.69-1.77-1.04,0-.76-1.99-.76-3.9,.07Z"/>
  <path d="M170.19,312.94c0,.35-.78,.83-1.77,1.04-.99,.28-1.77,.76-1.77,1.11,0,.42-.5,.69-1.06,.69s-1.06,.28-1.06,.55c0,.35-.64,1.32-1.42,2.22s-1.42,2.08-1.35,2.7c0,.97,.07,.97,.43,.07,.21-.55,1.84-2.42,3.48-4.09,2.55-2.42,3.69-3.05,6.31-3.32,1.7-.21,2.98-.62,2.77-.97-.5-.83-4.54-.83-4.54,0Z"/>
  <path d="M178.35,313.01c-1.13,.48-.85,.62,1.28,.62,1.42,.07,2.62-.21,2.62-.48,0-.76-2.2-.83-3.9-.14Z"/>
  <path d="M285.53,312.94c-.21,.35,.92,.76,2.55,.97,1.56,.21,3.19,.76,3.48,1.32,.43,.69,.64,.69,.64,.07,0-.48-1.13-1.39-2.55-1.94-2.98-1.18-3.62-1.25-4.11-.42Z"/>
  <path d="M64,314.19c.64,.14,1.63,.14,2.13,0,.43-.21-.07-.35-1.28-.35-1.13,0-1.56,.14-.85,.35Z"/>
  <path d="M72.86,314.19c.5,.21,1.13,.14,1.35-.07,.28-.21-.14-.42-.92-.35-.78,0-.99,.21-.43,.42Z"/>
  <path d="M184.38,315.09c.92,.76,2.06,1.39,2.48,1.39,.5,0,1.13,.76,1.35,1.73,.28,.97,.78,1.73,1.13,1.73s.85,1.11,1.13,2.42c.57,2.91,1.7,3.88,1.7,1.45,0-.97-.28-1.8-.64-1.8s-.85-.76-1.06-1.73c-.28-.97-.78-1.73-1.13-1.73-.43,0-.71-.48-.71-1.04,0-.62-.57-1.32-1.21-1.52-.71-.28-1.7-.9-2.2-1.39s-1.28-.9-1.7-.9-.07,.62,.85,1.39Z"/>
  <path d="M131.53,315.02c-.21,.35,.21,.83,.92,1.04s2.06,1.66,3.05,3.19c1.63,2.63,2.77,3.46,2.77,2.08,0-.42-.28-.69-.71-.69-.35,0-.71-.35-.71-.76,0-1.18-4.82-5.54-5.32-4.85Z"/>
  <path d="M295.03,317.51c0,.35,.35,1.18,.71,1.73s.71,.69,.71,.35c0-.42-.35-1.18-.71-1.73s-.71-.76-.71-.35Z"/>
  <path d="M2.5,319.59c-.64,1.8-.5,2.22,.35,.83,.43-.69,.64-1.45,.43-1.59-.14-.21-.5,.14-.78,.76Z"/>
  <path d="M108.9,320.07c-.64,.83-1.06,2.35-1.06,3.32l.14,1.73,.28-1.73c.21-.97,.85-2.29,1.49-2.98,.57-.62,.92-1.39,.71-1.59s-.92,.35-1.56,1.25Z"/>
  <path d="M.65,323.05c0,.55,.14,1.04,.28,1.04s.43-.48,.71-1.04c.21-.55,.07-1.04-.28-1.04-.43,0-.71,.48-.71,1.04Z"/>
  <path d="M160.12,324.23c-.28,4.43,.28,9.84,1.13,10.67,1.84,2.15,2.55,3.05,2.55,3.39,0,.76,3.12,3.05,4.11,3.12,.43,0,.85,.28,.85,.62,0,.62,1.56,1.04,6.6,1.8,1.77,.28,1.99,.21,.85-.28-.78-.35-2.27-.69-3.33-.69-1.13-.07-1.99-.35-1.99-.69s-.85-.83-1.84-1.04c-.99-.28-2.41-1.04-3.12-1.66-1.77-1.66-4.11-6.3-4.4-8.8-.14-1.18-.5-2.29-.85-2.56-.43-.28-.43-.83,0-1.39,.99-1.18,1.06-3.88,.21-4.36-.35-.28-.71,.62-.78,1.87Z"/>
  <path d="M298.01,324.09c0,1.32,.14,1.87,.35,1.18,.14-.62,.14-1.73,0-2.42-.21-.62-.35-.07-.35,1.25Z"/>
  <path d="M138.41,324.78c0,1.32,.14,1.87,.35,1.18,.14-.62,.14-1.73,0-2.42-.21-.62-.35-.07-.35,1.25Z"/>
  <path d="M106.35,327.97c0,1.8,.21,3.05,.43,2.84,.78-.69,.92-5.26,.21-5.75-.35-.21-.64,1.11-.64,2.91Z"/>
  <path d="M.51,329.91c.35,4.57,3.12,9.21,6.46,10.87,.99,.55,2.27,1.39,2.77,1.8,.5,.48,1.77,.9,2.84,.9s2.7,.21,3.69,.35c1.56,.35,1.56,.28,.35-.28-.78-.35-2.48-.69-3.69-.69-1.28-.07-2.34-.35-2.34-.69s-.71-.9-1.56-1.18c-1.84-.55-6.24-5.06-6.24-6.37,0-.48-.35-.69-.71-.48-.5,.28-.64-.14-.28-1.32,.21-1.04,.14-2.22-.28-2.7-.43-.42-.85-1.59-1.06-2.56-.14-.97-.14,.07,.07,2.35Z"/>
  <path d="M191.18,330.95c-1.77,6.58-5.82,10.67-12.13,12.05-.92,.21-.71,.35,.71,.42,2.48,.07,8.87-3.6,8.87-5.13,0-.55,.28-1.04,.71-1.04,.35,0,.85-.76,1.13-1.73,.21-.97,.71-1.73,.99-1.73,.57,0,1.7-6.86,1.21-7.34-.14-.14-.78,1.87-1.49,4.5Z"/>
  <path d="M298.72,328.25c-.43,.76-.85,2.29-.85,3.39s-.5,2.35-1.06,2.84-1.06,1.18-1.06,1.59c0,.55-2.41,2.91-5.96,5.82-.57,.48-1.84,.9-2.84,.9s-1.92,.28-2.13,.55c-.21,.35,.64,.42,1.84,.28,2.48-.35,6.95-2.7,6.95-3.67,0-.35,.5-.62,1.06-.62s1.06-.42,1.06-.9c0-.55,.64-1.66,1.42-2.56,.85-.97,1.42-2.56,1.42-4.22,0-1.39,.35-2.7,.85-2.84,.43-.14,.64-.62,.5-1.11-.21-.55-.64-.35-1.21,.55Z"/>
  <path d="M138.34,329.36c-.07,2.22-1.77,6.16-3.4,7.76-.5,.48-.92,1.25-.92,1.59s-.5,.62-1.06,.62-1.06,.28-1.06,.62-.64,.9-1.42,1.11c-.78,.28-1.28,.76-1.06,1.11,.85,1.25,6.24-2.98,7.02-5.47,.28-.83,.78-1.52,1.13-1.52,.78,0,1.7-5.75,1.21-7.06-.21-.48-.43,.07-.43,1.25Z"/>
  <path d="M107.91,331.71c-.14,2.42,.64,4.92,1.35,4.43,.35-.14,.78,.48,1.06,1.45,.21,.97,.85,1.73,1.42,1.73s.99,.35,.99,.69c0,.42,.57,.9,1.28,1.18,.64,.21,1.7,.83,2.27,1.25,1.21,.97,7.59,1.94,6.67,1.04-.35-.35-1.77-.69-3.12-.83-2.7-.21-3.12-.42-6.95-4.09-3.69-3.53-4.26-4.36-4.61-6.58-.28-1.8-.28-1.87-.35-.28Z"/>
  <path d="M124.36,343.35c.35,.55,4.68,.28,4.68-.28,0-.14-1.13-.28-2.55-.28s-2.34,.28-2.13,.55Z"/>
  <path d="M239.56,353.67c1.99,.14,5.39,.14,7.45,0,1.99-.14,.35-.21-3.76-.21s-5.75,.07-3.69,.21Z"/>
  <path d="M251.62,353.67c.5,.21,1.13,.14,1.35-.07,.28-.21-.14-.42-.92-.35-.78,0-.99,.21-.43,.42Z"/>
  <path d="M10.58,364.75c-.57,.28-1.49,.9-2.06,1.45-.92,.9-.85,.97,.64,.48,.99-.28,1.92-.83,1.99-1.11,.35-.83,9.58-.83,10.5,0,.35,.35,1.42,.83,2.41,1.11,1.56,.48,1.7,.42,.78-.62-.57-.62-1.42-1.04-1.99-.83-.5,.21-.92,.07-.92-.28,0-.76-9.58-.9-11.35-.21Z"/>
  <path d="M74.28,364.75c.5,.21,1.13,.14,1.35-.07,.28-.21-.14-.42-.92-.35-.78,0-.99,.21-.43,.42Z"/>
  <path d="M116.99,364.75c-3.55,1.45-9.22,7.9-9.22,10.39,0,.9-.28,1.59-.71,1.59-.35,0-.71,1.25-.71,2.84,0,1.73,.28,2.63,.71,2.35s.71-.97,.64-1.59c-.21-1.73,.85-6.51,1.77-7.62,2.84-3.46,6.31-6.37,7.59-6.37,.78,0,1.21-.35,.99-.69-.78-1.18,8.16-.83,11.14,.48,1.49,.62,2.7,1.39,2.7,1.73,0,.28,.43,.55,.99,.55s1.99,1.59,3.19,3.46c1.84,2.98,2.2,4.22,2.34,8.52,.07,3.12,.21,3.95,.35,2.22,.21-1.52,.71-2.98,1.13-3.26,.57-.35,.64-.55,.07-.55-.43,0-.99-1.25-1.21-2.77s-.85-3.26-1.49-3.81c-.64-.62-1.13-1.45-1.13-1.8s-.64-1.25-1.42-2.01-1.7-1.39-2.06-1.39-1.21-.55-1.92-1.25c-.92-.9-2.62-1.25-6.95-1.32-3.19-.07-6.24,0-6.81,.28Z"/>
  <path d="M170.9,364.96c0,.35-.5,.48-1.06,.28-.57-.28-1.06-.07-1.06,.35s-.43,.76-.92,.76c-1.35,0-5.18,4.22-5.75,6.3-.43,1.25-.14,1.04,1.13-.76,3.05-4.57,7.38-6.79,14.05-7.13l4.61-.21-5.46-.14c-3.19-.07-5.53,.14-5.53,.55Z"/>
  <path d="M282.62,364.96c4.4,.42,8.87,1.8,8.87,2.77,0,.28,.64,.69,1.35,.9,.92,.21,1.28,.07,1.06-.55-.21-.48-1.13-1.11-2.13-1.32-.92-.28-1.7-.76-1.7-1.18s-.28-.55-.64-.28c-.35,.21-.85,.07-1.13-.35-.21-.35-2.55-.62-5.18-.55l-4.75,.07,4.26,.48Z"/>
  <path d="M181.96,365.58c-.21,.35,.35,.83,1.35,1.04,1.92,.48,3.19,1.59,5.89,4.85,.85,1.11,1.56,1.66,1.56,1.25,0-1.04-5.25-6.37-6.24-6.37-.5,0-.85-.35-.85-.69,0-.83-1.21-.9-1.7-.07Z"/>
  <path d="M274.46,366.13c-2.7,1.8-7.02,6.72-7.16,8.17-.07,.35-.07,1.25,0,1.87,.07,.69-.21,1.25-.57,1.25-.85,0-1.06,3.67-.28,4.43,.28,.21,.57,1.11,.71,1.94,.14,.76,.71,2.29,1.28,3.26s1.21,2.35,1.49,2.98c.43,1.25,2.41,2.29,2.41,1.32,0-.28-.64-1.25-1.42-2.15s-1.42-2.01-1.42-2.49-.35-.97-.78-1.11c-.57-.21-.85-2.35-.85-6.03,0-4.64,.28-5.96,1.21-6.44,.64-.35,1.13-.97,1.13-1.39,0-1.18,5.18-5.4,6.6-5.4,.71,0,1.06-.35,.85-.69-.64-.97-1.21-.9-3.19,.48Z"/>
  <path d="M4.77,369.18c-1.13,1.04-1.99,2.15-1.99,2.49,.07,.28,.57-.07,1.28-.9,.64-.76,1.84-1.73,2.55-2.15s1.06-.9,.71-1.04c-.35-.21-1.49,.48-2.55,1.59Z"/>
  <path d="M26.19,367.73c0,.35,.43,.9,.92,1.18,1.63,.97,4.04,5.54,4.04,7.69,0,1.18,.43,2.22,.92,2.42,.64,.21,.64,.48,.07,1.25-.43,.55-.99,2.22-1.21,3.81-.28,2.56-1.42,4.57-3.83,6.79-2.34,2.08-3.4,2.77-5.46,3.26-1.99,.55-1.92,.55,.64,.28,1.56-.14,3.12-.76,3.55-1.25,.35-.48,1.28-1.11,1.99-1.39,.64-.21,1.21-.9,1.21-1.52,0-.55,.28-1.04,.64-1.04s.92-.69,1.21-1.59c.28-.83,.71-1.66,.99-1.87,1.21-.76,1.13-12.81,0-12.12-.35,.21-.71,0-.71-.55s-.64-1.66-1.42-2.56-1.42-1.8-1.42-2.08c0-.35-.5-.69-1.06-.97-.57-.21-1.06-.07-1.06,.28Z"/>
  <path d="M295.11,369.25c-.14,1.25,1.42,4.02,2.2,4.02,.57,0,.64-.21,.21-.55-.43-.28-1.13-1.25-1.56-2.22s-.85-1.52-.85-1.25Z"/>
  <path d="M.65,375.35c0,1.11,.28,2.08,.57,2.08,.35,0,.5-.97,.28-2.08-.14-1.18-.43-2.08-.57-2.08s-.28,.9-.28,2.08Z"/>
  <path d="M191.26,373.75c-.78,.69-.57,2.98,.21,2.98,.43,0,.71-.76,.71-1.73,0-1.8-.14-2.01-.92-1.25Z"/>
  <path d="M160.04,376.59c-.5,3.67,.21,9.56,.99,8.31,.85-1.32,.78-3.88-.14-4.16-.64-.21-.57-.97,.14-2.84,.64-1.8,.71-2.77,.14-3.32-.5-.48-.85,.07-1.13,2.01Z"/>
  <path d="M298.01,375.69c0,1.11,.14,1.52,.35,.83,.14-.62,.14-1.59,0-2.08-.21-.42-.35,.07-.35,1.25Z"/>
  <path d="M192.25,378.53c0,.76,.21,.97,.43,.42,.21-.48,.14-1.11-.07-1.32-.21-.28-.43,.14-.35,.9Z"/>
  <path d="M.44,382.27c.21,2.08,.78,4.29,1.35,4.92,.57,.55,.99,1.32,.99,1.59,0,.76,4.19,4.78,5.96,5.68,.85,.42,2.2,.48,2.91,.21,1.21-.48,1.21-.55-.43-.55-2.06-.07-7.02-3.88-7.02-5.33,0-.55-.28-.97-.64-.97s-.92-1.04-1.13-2.29c-.28-1.18-.78-2.56-1.06-2.91-.35-.42-.71-1.45-.92-2.42-.14-.97-.14,0,0,2.08Z"/>
  <path d="M298.72,380.47c-.43,1.04-.85,2.63-.85,3.53,0,.97-.28,1.73-.71,1.73-.35,0-.71,.48-.71,1.04,0,1.66-6.1,7.27-7.94,7.27-1.13,0-1.35,.21-.78,.76,.71,.69,3.33-.21,4.47-1.52,.21-.21,1.06-.76,1.99-1.25,.85-.42,1.56-1.25,1.56-1.73s.64-1.59,1.42-2.49,1.42-2.56,1.42-3.88c0-1.25,.35-2.35,.78-2.49s.71-.83,.57-1.59c-.21-1.11-.43-1.04-1.21,.62Z"/>
  <path d="M107.91,384.14c-.14,2.08,1.7,5.61,4.19,7.97,1.63,1.66,5.39,3.19,6.31,2.63,.5-.28-.14-.69-1.7-.97-1.42-.28-2.41-.76-2.2-1.18,.28-.35,0-.62-.5-.62-.99,0-3.4-2.35-3.4-3.39,0-.35-.43-.97-.99-1.45-.57-.42-1.21-1.8-1.35-2.98l-.28-2.22-.07,2.22Z"/>
  <path d="M136.49,387.19c-.71,2.01-4.33,5.4-6.95,6.51-1.56,.62-1.77,.9-.92,1.25,.64,.28,1.13,.14,1.13-.21,0-.42,.43-.69,.92-.69,1.13-.07,3.33-1.94,5.67-4.92,2.06-2.63,2.34-3.39,1.28-3.39-.35,0-.92,.69-1.13,1.45Z"/>
  <path d="M161.75,386.36c-.21,3.12,6.46,8.66,9.72,8.17l1.92-.28-1.84-.14c-1.92-.07-8.51-5.54-9.36-7.69-.28-.83-.43-.9-.43-.07Z"/>
  <path d="M274.39,393.35c.92,.83,2.62,1.39,3.9,1.32,1.99-.07,1.92-.14-.78-.76-1.7-.35-3.05-.9-3.05-1.32,0-.35-.43-.62-.85-.62-.5,.07-.14,.69,.78,1.39Z"/>
  <path d="M172.95,395.5c-.71,.42-.28,.62,1.35,.62,1.21,0,2.27-.14,2.27-.28,0-.62-2.77-.9-3.62-.35Z"/>
  <path d="M279.93,395.57c-.43,.28,1.06,.48,3.4,.48,4.54-.07,4.61-.35,.14-.76-1.42-.14-3.05,0-3.55,.28Z"/>
  <path d="M13.99,395.92c1.21,.14,3.33,.14,4.61,0,1.21-.14,.21-.28-2.34-.28s-3.55,.14-2.27,.28Z"/>
  <path d="M121.1,395.92c1.21,.14,3.33,.14,4.61,0,1.21-.14,.21-.28-2.34-.28s-3.55,.14-2.27,.28Z"/>
  <path d="M13.78,416.21c-.21,.35-1.21,.69-2.06,.69-.92,0-2.48,.62-3.48,1.39s-2.13,1.39-2.55,1.39-.78,.28-.78,.55c0,.35-.64,1.32-1.42,2.22s-1.35,2.08-1.35,2.7c.07,.9,.14,.9,.43-.14,.14-.62,.57-1.18,.92-1.18s.85-.62,1.06-1.39,.78-1.39,1.13-1.39c.43,0,1.21-.42,1.7-.9,.57-.42,1.49-1.25,2.06-1.73,.64-.48,3.05-1.04,5.39-1.32,2.34-.21,4.26-.69,4.26-.97,0-.83-4.75-.76-5.32,.07Z"/>
  <path d="M279.78,416.21c-.21,.35-1.21,.69-2.13,.69s-2.13,.48-2.77,1.04c-.57,.55-1.35,1.04-1.7,1.04-.85,0-3.69,3.05-3.69,4.02,0,.48-.28,.83-.71,.83-.71,0-1.84,3.26-1.56,4.64,.14,.48-.14,.9-.57,.9-.35,0-.71,.9-.71,2.08,0,1.11,.35,2.08,.71,2.08s.64,.21,.64,.48c-.28,1.94,.21,4.43,1.13,5.33,.57,.55,1.06,1.32,1.06,1.66s1.35,1.8,2.98,3.26c2.41,2.08,3.69,2.7,6.24,2.84l3.19,.21-2.84-.55c-1.49-.35-2.91-.97-3.05-1.39s-.71-.76-1.21-.76c-1.21,0-4.61-3.46-4.61-4.64,0-.48-.5-1.11-1.13-1.45-.92-.48-1.13-1.8-1.21-5.89,0-6.51,1.99-10.8,5.89-12.74,1.35-.69,2.7-1.52,2.98-1.94,.71-.97,12.13-.76,12.48,.21,.14,.48,.64,.83,1.13,.83s1.84,.76,2.98,1.73c1.06,.9,2.13,1.52,2.34,1.39,.14-.21-.5-.97-1.42-1.73s-2.13-1.73-2.62-2.08c-.5-.42-1.99-.97-3.4-1.18-1.35-.21-2.62-.69-2.84-.97-.5-.83-5.04-.76-5.6,.07Z"/>
  <path d="M21.22,417.46c2.77,.76,7.09,3.6,7.09,4.64,0,.55,.5,1.25,1.13,1.59,.78,.42,1.28,1.87,1.56,4.22,.14,1.94,.64,3.53,.99,3.53,.5,0,.5,.28,0,.83-.35,.48-.92,2.35-1.13,4.16-.28,1.87-.85,3.32-1.21,3.32s-.92,.55-1.13,1.18c-.57,1.52-1.49,2.42-3.4,3.53-1.06,.62-1.13,.76-.28,.83,1.49,0,3.76-2.29,6.53-6.44,1.56-2.35,1.99-12.33,.64-12.81-.5-.14-.85-.62-.85-1.11s-.64-1.66-1.42-2.56c-4.04-4.78-4.11-4.78-8.16-5.19-1.92-.21-1.92-.14-.35,.28Z"/>
  <path d="M236.87,418.29c0,.42,.57,.97,1.28,1.18,1.13,.48,1.92,1.18,5.11,5.06,1.13,1.39,1.35,1.45,.92,.35-.28-.76-.92-1.8-1.42-2.29s-1.13-1.25-1.42-1.73c-.85-1.32-4.47-3.39-4.47-2.56Z"/>
  <path d="M296.24,424.24c.43,1.04,1.63,1.32,1.63,.35,0-.35-.5-.76-.99-.97-.71-.28-.92-.07-.64,.62Z"/>
  <path d="M97.27,426.25c0,1.11,.14,1.52,.35,.83,.14-.62,.14-1.59,0-2.08-.21-.42-.35,.07-.35,1.25Z"/>
  <path d="M.65,426.88c0,.62,.35,1.11,.71,1.11,.43,0,.71-.28,.71-.62,0-.42-.28-.9-.71-1.11-.35-.21-.71,.07-.71,.62Z"/>
  <path d="M298.01,427.64c0,1.11,.14,1.52,.35,.83,.14-.62,.14-1.59,0-2.08-.21-.42-.35,.07-.35,1.25Z"/>
  <path d="M244.67,429.3c0,.76,.35,1.59,.71,1.8,.43,.28,.71-.35,.71-1.32s-.28-1.8-.71-1.8c-.35,0-.71,.62-.71,1.32Z"/>
  <path d="M.44,433.87c.21,2.29,.57,4.29,.85,4.5,.35,.21,.78,.97,1.06,1.73,.57,1.73,2.55,4.02,3.97,4.71,.57,.28,1.84,.97,2.84,1.52s2.84,1.04,4.11,1.04c1.21,0,2.27,.28,2.27,.69,0,.35,.28,.69,.71,.69,.35,0,.5-.48,.28-1.04-.28-.62-1.35-1.04-2.7-1.04-3.05,0-5.46-.69-4.97-1.45,.21-.35-.14-.62-.71-.62-.64,0-1.13-.35-1.13-.76,0-.35-.28-.55-.57-.35-.35,.21-1.06-.42-1.56-1.32-.5-.97-1.21-1.73-1.49-1.73-.35,0-.78-1.18-1.06-2.63-.28-1.39-.71-2.91-.99-3.26-.35-.42-.71-1.66-.92-2.77-.14-1.18-.14-.21,0,2.08Z"/>
  <path d="M97.2,431.17c0,.76,.21,.97,.43,.42,.21-.48,.14-1.11-.07-1.32-.21-.28-.43,.14-.35,.9Z"/>
  <path d="M299.22,430.41c-.07,.21-.14,.62-.21,.97,0,.35-.28,.9-.57,1.18-.35,.28-.57,1.73-.57,3.19s-.21,2.63-.5,2.63c-.35,0-1.35,1.18-2.2,2.63-1.99,3.05-5.89,5.68-8.51,5.75-1.06,0-1.49,.21-.99,.42,1.35,.48,5.96-.42,5.46-1.18-.21-.35,.35-.83,1.21-1.11,.92-.28,2.2-1.11,2.84-1.94,.71-.83,1.63-1.87,2.06-2.42,.5-.48,.99-2.42,1.21-4.29,.14-1.87,.57-3.19,.92-2.98s.64-.42,.64-1.39c0-1.52-.5-2.49-.78-1.45Z"/>
  <path d="M244.67,433.8c0,.97,.35,1.94,.71,2.15,.43,.28,.71-.48,.71-1.66s-.28-2.15-.71-2.15c-.35,0-.71,.76-.71,1.66Z"/>
  <path d="M244.03,437.4c0,.83-.57,1.87-1.13,2.35s-1.06,1.25-1.06,1.66-.64,1.25-1.49,1.8c-4.4,3.05-5.32,4.57-1.35,2.22,2.77-1.66,5.82-6.16,5.46-8.03l-.28-1.45-.14,1.45Z"/>
  <path d="M215.59,439.55c0,.42,.64,1.39,1.42,2.29s1.42,1.87,1.42,2.22c0,.28,.43,.55,.92,.55,.57,0,1.7,.62,2.62,1.39,.99,.9,2.62,1.39,4.4,1.39,1.49,0,2.7,.28,2.7,.69,0,.83,2.34,.9,3.19,.07,.43-.35,1.35-.76,2.13-.97,.92-.21,.57-.35-.92-.42-1.42-.07-2.2,.21-1.92,.62,.21,.35-.07,.69-.64,.69s-1.28-.35-1.49-.69c-.21-.42-1.49-.69-2.84-.69-1.28,0-2.84-.48-3.48-1.04-.57-.55-1.35-1.04-1.7-1.04s-1.84-1.32-3.26-2.84c-1.42-1.59-2.55-2.56-2.55-2.22Z"/>
  <path d="M19.8,446.62c-1.56,.28-2.06,.62-1.42,.83,.57,.21,2.2,0,3.55-.48,2.62-.9,1.92-1.04-2.13-.35Z"/>
  <path d="M282.41,447.72c-.78,.9-.64,1.04,1.06,.97,1.06,0,1.56-.21,1.06-.42-.43-.14-.71-.62-.43-.97,.64-1.04-.71-.69-1.7,.42Z"/>
  <path d="M17.61,468.43c.43,.48,2.06,1.11,3.62,1.39,1.56,.21,2.84,.76,2.84,1.25,0,.42,.21,.62,.43,.35,.21-.21,.21-1.04-.07-1.94-.43-1.18-.64-1.32-1.13-.55-.57,.83-.71,.83-1.28,0-.35-.55-1.28-.83-2.13-.55-.85,.21-1.49,.07-1.49-.28s-.35-.62-.78-.62c-.57,0-.57,.28,0,.97Z"/>
  <path d="M66.13,468.23c-1.99,.69-2.13,2.01-.21,1.52,1.42-.35,2.55-1.45,2.06-1.87-.14-.14-.99,0-1.84,.35Z"/>
  <path d="M69.89,468.02c-.21,.21-.43,.69-.43,1.11s.35,.28,.78-.28c.57-.76,.85-.83,1.13-.21,.14,.48,1.42,.9,2.7,.9,1.84,0,3.12,.62,5.32,2.63,1.56,1.52,2.84,3.05,2.84,3.39,0,.42,.43,1.11,.99,1.52,.57,.48,1.21,2.35,1.49,4.29,.5,3.74,1.77,4.64,1.77,1.32,0-1.18-.28-2.08-.71-2.08-.35,0-.71-.76-.71-1.59,0-.9-.64-2.35-1.42-3.26s-1.42-2.01-1.42-2.56c0-.48-.28-.9-.57-.9-.35,0-1.42-.62-2.34-1.39s-2.06-1.59-2.41-1.94c-.92-.76-6.53-1.52-7.02-.97Z"/>
  <path d="M119.68,467.95c-1.49,.14-2.7,.55-2.7,.97,0,.35-.43,.62-.92,.62-.99,0-5.04,3.6-7.02,6.23-.71,.9-1.21,2.49-1.21,3.46l.14,1.73,.28-1.8c.14-1.04,1.92-3.46,3.83-5.47,2.98-3.12,4.04-3.67,6.67-4.02,1.77-.14,3.19-.55,3.19-.9,0-.28,.57-.69,1.28-.83,1.42-.35,.21-.35-3.55,0Z"/>
  <path d="M172.88,467.95c-1.13,.14-1.99,.69-1.99,1.18,0,.62,.64,.83,1.77,.55,.99-.14,1.77-.55,1.77-.83,0-.35,.57-.76,1.28-.9,1.49-.42-.14-.42-2.84,0Z"/>
  <path d="M224.45,468.85c-1.56,.76-3.12,1.32-3.4,1.39-.71,0-2.62,1.8-2.62,2.42,0,.28,1.42-.35,3.12-1.32,1.77-.97,3.62-1.8,4.26-1.8,.99,0,2.27-1.25,1.7-1.73-.14-.14-1.49,.35-3.05,1.04Z"/>
  <path d="M228.71,468.23c-.28,.42-.28,.9-.07,1.11,.21,.28,.43,.07,.43-.42s.28-.69,.64-.42c.35,.21,.85,.07,1.13-.35,.21-.35-.07-.69-.64-.69s-1.28,.35-1.49,.76Z"/>
  <path d="M278.51,468.64c-2.34,1.18-2.27,1.73,.07,1.11,.85-.21,1.56-.69,1.56-1.18,0-.42,.35-.28,.71,.28,.43,.62,.71,.69,.71,.21,0-1.39-.99-1.52-3.05-.42Z"/>
  <path d="M12,468.85c0,.35,.5,.69,1.13,.69,.57,0,.85-.35,.64-.69-.21-.42-.71-.69-1.13-.69-.35,0-.64,.28-.64,.69Z"/>
  <path d="M125.5,468.85c0,.35,.71,.69,1.63,.69,.85,0,2.2,.14,2.98,.28s.99,.07,.57-.07c-.5-.21-.92-.62-.92-.97s-.92-.62-2.13-.62c-1.13,0-2.13,.28-2.13,.69Z"/>
  <path d="M177.28,468.78c0,.35,.99,.62,2.13,.62,1.21-.07,2.13-.35,2.13-.69,0-.28-.92-.55-2.13-.55-1.13,0-2.13,.28-2.13,.62Z"/>
  <path d="M231.9,468.85c0,.35,.78,.69,1.77,.69s1.77-.35,1.77-.69c0-.42-.78-.69-1.77-.69s-1.77,.28-1.77,.69Z"/>
  <path d="M284.39,468.78c0,.28,1.28,.76,2.77,.97,1.56,.21,3.26,.69,3.76,1.11,3.62,2.98,4.68,4.16,5.18,5.47,.21,.83,.71,1.52,1.06,1.52s.78,.69,.92,1.52q.28,1.59,.43,.07c0-.83-.43-1.94-.99-2.56-.57-.55-1.06-1.32-1.06-1.66,0-.69-3.76-4.16-6.53-5.89-1.99-1.25-5.53-1.59-5.53-.55Z"/>
  <path d="M8.46,470.03c-1.21,.48-5.67,4.71-5.67,5.33,0,1.04,1.28,.28,2.13-1.32,.5-.9,1.56-1.94,2.41-2.15,.78-.28,1.84-.9,2.41-1.39,.99-.97,.57-1.18-1.28-.48Z"/>
  <path d="M61.23,470.58c-.28,.55-.85,1.04-1.35,1.04s-1.49,.83-2.2,1.8-1.77,2.29-2.34,2.84-1.06,2.49-1.13,4.22c-.14,2.84-.14,2.91,.28,.76,.57-3.39,4.19-8.73,6.1-9.21,1.63-.42,3.05-2.49,1.7-2.49-.35,0-.85,.48-1.06,1.04Z"/>
  <path d="M168.06,470.03c-1.77,.69-5.46,4.64-5.96,6.44-.43,1.39-.14,1.18,1.28-.83,1.06-1.45,3.05-3.39,4.54-4.36,2.48-1.66,2.55-2.15,.14-1.25Z"/>
  <path d="M184.87,471.34c1.63,.97,3.19,2.35,3.4,3.12,.28,.69,.71,1.32,1.06,1.32s.85,1.11,1.13,2.42c.5,2.56,1.7,3.32,1.7,1.04,0-.76-.28-1.39-.64-1.39s-.85-.76-1.06-1.73c-.28-.97-.78-1.73-1.13-1.73-.43,0-.71-.48-.71-1.04,0-.62-.57-1.32-1.21-1.52-.71-.28-1.7-.9-2.2-1.39s-1.49-.9-2.13-.9c-.71,.07,.07,.83,1.77,1.8Z"/>
  <path d="M237.36,470.65c.78,.69,2.2,1.8,2.98,2.35,.85,.55,1.49,1.39,1.49,1.87,0,.42,.43,1.11,.99,1.39,.5,.28,1.13,1.04,1.35,1.59,.28,.83,.43,.76,.43-.21,.07-.69-.35-1.39-.92-1.59s-1.21-1.11-1.42-2.01-1.06-1.87-1.84-2.08c-.78-.28-1.28-.76-1.06-1.11,.28-.35,.14-.62-.28-.62-.35,0-1.28-.21-1.99-.48-1.06-.35-.99-.21,.28,.9Z"/>
  <path d="M274.18,470.65c-.64,1.66-.14,1.8,.85,.28,.5-.76,.57-1.39,.21-1.39s-.85,.48-1.06,1.11Z"/>
  <path d="M26.19,470.79c0,.9,2.77,3.88,3.19,3.46,.21-.14-.5-1.18-1.42-2.22-.99-1.11-1.77-1.66-1.77-1.25Z"/>
  <path d="M132.59,472.04c1.21,.35,4.26,4.43,4.26,5.68,0,.48,.28,.83,.64,.83,.43,0,.85,1.18,.99,2.56,.14,1.45,.21,1.11,.14-.83-.07-1.87-.57-3.53-.99-3.67s-.78-.62-.78-1.11c0-1.18-3.05-3.88-4.33-3.81-.78,.07-.78,.14,.07,.35Z"/>
  <path d="M270.56,472.73c-.64,.62-.92,1.32-.64,1.59,.28,.21,.64,0,.78-.48,.21-.42,.57-.69,.92-.48,.28,.21,.71-.14,.99-.69,.5-1.39-.57-1.32-2.06,.07Z"/>
  <path d="M216.3,474.32c0,.35-.57,1.18-1.21,1.87-1.7,1.66-1.84,13.3-.21,14.96,.57,.62,1.7,1.94,2.48,2.98s1.56,2.08,1.77,2.35c1.49,1.87,7.09,3.88,6.03,2.15-.28-.42-.78-.55-1.13-.35-1.49,.97-7.38-5.4-8.73-9.42-1.35-3.95-1.49-8.93-.28-8.93,.43,0,.64-.21,.35-.42-.5-.55,1.49-4.57,2.62-5.26,.5-.35,.28-.55-.43-.55s-1.28,.28-1.28,.62Z"/>
  <path d="M29.52,476.33c.43,.28,.99,1.39,1.21,2.42s.57,2.63,.78,3.6c.64,2.91,1.63,1.94,1.28-1.25-.43-2.91-1.92-5.33-3.33-5.33-.5,0-.5,.21,.07,.55Z"/>
  <path d="M267.87,476.26c-.28,.21-.5,1.45-.5,2.77,0,1.25-.28,2.29-.71,2.29-.35,0-.71,.9-.71,2.08,0,1.11,.35,2.08,.71,2.08,.43,0,.64,.21,.64,.48-.28,1.87,.21,4.43,1.06,5.19,.5,.55,1.13,1.59,1.42,2.42s.99,1.66,1.63,1.87c1.7,.69,1.77,.14,.21-1.52-.78-.83-1.42-1.73-1.42-2.15,0-.35-.35-.76-.78-.9-2.13-.69-1.99-13.16,.14-14.48,.85-.48,.78-.62-.14-.62-.64,0-1.35,.21-1.56,.48Z"/>
  <path d="M1.57,477.58c-1.06,1.04-1.21,2.35-.28,2.35,.57,0,1.7-2.84,1.28-3.19-.07-.07-.57,.28-.99,.83Z"/>
  <path d="M160.26,479.86c0,1.11-.21,2.63-.5,3.32q-.43,1.18,.71,.07c1.35-1.25,1.63-4.36,.5-5.06-.43-.28-.71,.42-.71,1.66Z"/>
  <path d="M245.31,479.38c-.35,1.18-.28,3.46,.21,4.16,.35,.55,.57-.07,.57-1.73,0-1.39-.14-2.56-.35-2.56s-.35,.07-.43,.14Z"/>
  <path d="M.16,483.39c0,1.73,.14,2.42,.28,1.52,.14-.83,.14-2.22,0-3.12-.14-.83-.28-.14-.28,1.59Z"/>
  <path d="M106.35,483.26c0,1.59,.28,3.46,.64,4.16,.43,.62,.85,2.01,1.06,2.98,.57,2.63,6.31,8.03,9.51,8.87,1.42,.42,4.26,.69,6.17,.69,3.19-.14,3.05-.14-1.56-.62-5.18-.55-5.89-.9-9.72-4.57-3.83-3.81-4.4-5.06-4.89-11.5-.21-3.05-1.21-3.05-1.21,0Z"/>
  <path d="M192.18,483.6c0,1.39-.28,2.7-.71,2.91-.85,.55-.92,3.6-.07,4.09,.71,.42,1.84-8.45,1.21-9.07-.21-.28-.43,.69-.43,2.08Z"/>
  <path d="M299.29,482.01c-.21,.42-.57,2.22-1.13,5.89-.28,1.52-.92,3.05-1.42,3.32-.57,.28-.99,.83-.99,1.25,0,1.04-2.48,3.39-5.46,5.19-1.7,1.04-2.27,1.59-1.42,1.66,.64,0,1.21-.35,1.21-.76,0-.35,.35-.48,.71-.28,.43,.21,.71,.07,.71-.28,0-.42,.43-.76,.99-.76,.5,0,1.56-.83,2.27-1.8s1.92-2.42,2.62-3.19c.64-.83,1.21-2.49,1.21-3.74s.35-2.35,.78-2.49,.64-1.18,.43-2.29c-.14-1.18-.35-1.94-.5-1.73Z"/>
  <path d="M30.94,487.62c-.21,1.59-.71,3.12-1.06,3.32s-.85,1.11-1.13,1.87c-.43,1.39-3.4,3.67-7.16,5.75q-1.28,.69,.57,.76c1.13,0,1.84-.28,1.56-.69-.21-.42-.07-.69,.35-.69,1.21,0,4.97-2.98,4.97-3.95,0-.48,.28-.9,.64-.9s.85-.97,1.13-2.08c.28-1.18,.78-2.08,1.13-2.08s.64-.97,.64-2.08c0-3.12-1.21-2.49-1.63,.76Z"/>
  <path d="M54.21,488.03c.07,1.59,.71,3.39,1.35,4.02s1.13,1.45,1.13,1.8c0,.97,2.34,3.39,3.33,3.39,.5,0,.92,.28,.92,.69,0,.35,.5,.42,1.21,.21,.71-.28,.99-.14,.64,.35-.57,.9,4.47,1.73,8.44,1.32,2.27-.21,2.06-.28-1.28-.35-3.83-.14-7.87-1.52-9.08-3.19-.28-.35-.85-.35-1.35-.07-.57,.35-.78,.28-.5-.14,.28-.35-.21-1.32-.92-2.15-.78-.83-1.42-1.73-1.42-2.08s-.43-1.04-.99-1.52c-.57-.42-1.21-1.8-1.35-2.98-.14-1.25-.21-.9-.14,.69Z"/>
  <path d="M138.34,486.3c0,.97-.64,2.84-1.28,4.09-1.42,2.56-5.53,6.86-6.6,6.86-.43,0-.71,.28-.71,.69,0,.35-.5,.69-1.21,.69-.64,0-.92,.21-.71,.48,.57,.48,5.18-1.73,6.81-3.26,1.99-1.94,4.47-7.55,4.11-9.49l-.28-1.94-.14,1.87Z"/>
  <path d="M160.26,486.86c0,1.11,.35,2.08,.71,2.08,.43,0,.71,.55,.71,1.18,.07,2.01,3.05,6.23,4.19,5.89,.57-.21,.78,0,.5,.48-.28,.42-.21,.76,.21,.76,.35,0,1.28,.21,1.99,.48,.78,.28,.57-.14-.64-1.04-.99-.83-2.13-1.52-2.48-1.52-.78,0-3.76-6.37-3.9-8.59-.21-2.49-1.28-2.29-1.28,.28Z"/>
  <path d="M244.74,485.61c0,.48,.28,1.52,.64,2.29,.5,1.18,.64,1.04,.64-.9,.07-1.18-.21-2.22-.64-2.22-.35,0-.71,.42-.64,.83Z"/>
  <path d="M84.36,488.52c0,1.39-.35,2.49-.78,2.49-.35,0-.5,.35-.28,.76,.71,1.04,1.06,.42,1.77-2.42,.28-1.39,.28-2.7-.07-2.91s-.64,.76-.64,2.08Z"/>
  <path d="M.65,488.59c0,.97,.28,2.15,.71,2.63,2.91,3.53,6.24,6.72,6.95,6.72,.5,0,.85,.28,.85,.69,0,.35,.71,.69,1.56,.69s1.28-.21,.99-.55c-.28-.28-.78-.48-1.06-.48-1.21,0-5.6-3.46-7.02-5.54-.85-1.18-1.56-2.98-1.56-4.02s-.28-1.87-.71-1.87c-.35,0-.71,.76-.71,1.73Z"/>
  <path d="M243.96,489.97c0,.55-.28,1.04-.71,1.04-.35,0-.71,.48-.71,1.04,0,2.7-6.38,6.58-12.06,7.34-3.62,.42-3.55,.48,1.21,.28,3.69-.21,5.39-.55,6.46-1.52,.71-.69,1.99-1.8,2.7-2.42s1.7-1.59,2.2-2.15c.99-1.25,1.99-4.64,1.35-4.64-.21,0-.43,.48-.43,1.04Z"/>
  <path d="M189.2,492.47c-.71,.69-1.28,1.59-1.28,1.87s-1.49,1.45-3.26,2.56-2.91,2.15-2.55,2.29c.78,.21,5.25-2.49,5.67-3.46,.14-.21,.85-1.11,1.63-2.01,.71-.83,1.35-1.8,1.35-2.15,0-.76-.14-.69-1.56,.9Z"/>
  <path d="M81.52,493.85c-.57,.83-2.48,2.35-4.26,3.46-2.62,1.59-2.91,2.01-1.56,2.01,.85,0,1.77-.48,1.99-1.04,.28-.55,.78-1.04,1.21-1.04,.92,0,4.04-3.32,4.04-4.29,0-.9-.28-.69-1.42,.9Z"/>
  <path d="M273.04,496.55c-.92,.55-.85,.69,.21,.69,.64,0,1.21,.28,1.21,.69,0,.35,.5,.42,1.21,.21,.71-.28,.99-.14,.64,.35-.57,.9,4.47,1.73,8.44,1.32,2.27-.21,2.06-.28-1.28-.35-3.69-.14-7.87-1.52-9.01-3.05-.21-.28-.85-.21-1.42,.14Z"/>
  <path d="M169.55,498.56c-.57,.35,.07,.69,1.84,.97,3.62,.62,9.79,.62,9.15,0-.21-.28-2.06-.42-3.97-.28-1.92,.07-4.04-.14-4.75-.55-.78-.35-1.77-.42-2.27-.14Z"/>
  <path d="M14.34,499.81c1.06,.14,2.77,.14,3.9,0,1.06-.14,.14-.28-1.99-.28s-3.05,.14-1.92,.28Z"/>
</svg>