<?xml version="1.0" encoding="UTF-8"?>
<svg id="Layer_1" data-name="Layer 1" xmlns="http://www.w3.org/2000/svg" viewBox="0 0 730 305">
  <path d="M544.3,297.68c-2.22-2.53-2.22-2.79,.91-5.85,3.13-2.79,3.26-7.05,.26-5.85-.65,.13-1.17-.8-1.3-2.26-.13-2.13,0-2.13,.39-.27,.39,1.2,1.17,2,1.83,1.46,.65-.4,.91-1.2,.52-1.86-.39-.53-.91-3.33-1.3-6.12-.39-3.59-.26-4.52,.65-3.19,.65,1.06,1.3,1.33,1.3,.53,0-.8-.91-2.26-1.96-3.19-1.43-1.2-1.56-2.13-.52-3.46,.91-1.06,.91-2.53,.13-4.12-1.43-2.93-1.04-12.77,.78-18.49,1.17-3.86,1.04-4.12-1.56-3.46-2.48,.67-2.48,.53-.91-1.46,1.43-1.86,1.43-2.26,0-2.26-1.56,0-1.56-.27-.13-1.2,1.04-.53,1.69-1.46,1.69-2-.13-.4,.26-.67,.78-.53,.65,.27,.91,.93,.65,1.46-.13,.67,.26,.8,1.04,.27,.25-.15,.49-.2,.71-.19,.07-.45,.14-.9,.21-1.35-.51-.64-1.08-1.29-1.7-1.92-2.74-2.66-3.13-3.99-2.48-7.58,.52-2.79,.13-5.32-.91-6.65q-1.43-2,.39-.53c1.69,1.33,2.48,1.2,3.78-.4,1.43-1.73,1.3-1.86-.26-1.33-1.04,.4-2.74-.27-3.78-1.46-1.56-2.13-1.56-2.26,.39-1.6,2.22,.93,2.48-.93,.39-4.26-1.7-2.79-2.22-6.65-.78-6.65,.65,0,.91-2.66,.52-5.99-.52-5.32-.26-5.85,1.82-5.06,2.22,.93,2.22,.8,0-1.46-1.3-1.33-2.09-3.33-1.7-4.26,.39-.93,0-2.13-.78-2.66-.91-.53-.78-1.2,.26-1.86,.91-.53,1.43-1.86,1.04-2.79-1.04-2.93-.91-4.52,.52-4.12,.65,.13,.91-.27,.39-1.06-.39-.8-1.43-1.06-2.09-.66-.65,.53-1.17,.27-1.17-.4,0-.8,.91-1.73,1.96-2.13,1.83-.67,1.83-1.2-.26-4.39-2.22-3.33-2.22-3.59,0-2.66,1.43,.53,2.22,.27,2.22-1.06,0-1.06-.78-1.6-1.83-1.2-1.3,.53-1.69-.8-1.43-5.99,.26-6.92-.26-7.58-5.61-6.92-1.04,.13-2.61-.8-3.65-2.13-1.3-1.73-1.7-1.86-1.17-.27,.65,1.6-.65,2-7.3,2.26-13.43,.4-11.21,2.26,2.48,2.26h12.65s.27,45.23,.27,45.23c.26,24.88,.53,57.07,.66,71.57l.39,26.21h-18.9c-10.43,0-31.68,.41-47.32,.94l-28.29,.8,.25-72.23,.38-72.1,32.85-.14c18.12,0,32.98-.54,32.98-1.2,0-1.06-1.17-1.2-10.04-1.46-2.22-.13-3.91-.4-3.65-.93,.13-.4-.39-1.46-1.43-2.39-1.43-1.33-2.22-1.2-4.43,1.06-1.43,1.46-2.61,2.13-2.61,1.6,0-.67-.78-1.2-1.7-1.2-.78,0-2.61-.53-3.91-1.06-1.3-.53-2.22-.4-2.22,.53,0,.8,.91,1.46,1.96,1.46,1.04,0,1.96,.66,1.96,1.46,0,.67-.65,.93-1.56,.4-.91-.53-6.78-.93-13.04-.66-8.73,.27-11.47-.13-11.47-1.46s-.26-1.33-1.17,.13c-.91,1.33-1.56,1.06-3.26-1.33-1.17-1.73-2.09-2.39-2.09-1.46,0,1.06-.65,1.33-1.56,.8-.91-.53-1.04-.4-.52,.67,.52,.8,1.43,1.2,2.09,.8,.65-.4,1.43-.27,1.83,.4,.26,.53-.52,1.2-1.96,1.2-1.56,.13-3.13-.93-3.78-2.66l-1.17-2.93v2.93c-.13,1.73-.65,3.06-1.17,3.06-.65,0-2.22,.8-3.52,1.86-2.22,1.6-2.35,2.13-.65,4.26,1.96,2.39,1.83,2.39-1.69,.13-2.16-1.51-3.23-1.8-3.47-1.06,.17,.12,.33,.24,.5,.35,.93,.61,1.62,1.34,2.11,2.14,.4,.36,.85,.85,1.38,1.5,1.83,2.26,2.22,3.59,1.17,4.66-1.56,1.6-1.82,3.99-.39,3.06,1.3-.8,1.17,8.11-.13,9.31-.39,.4-.78,.13-.78-.66,0-.93-.52-1.6-1.17-1.6-.52,0-.78,1.46-.52,3.19,.39,2.13,1.3,3.06,2.48,2.53,1.04-.4,1.83,0,1.83,.8,0,.8-1.04,1.46-2.35,1.46-1.69,0-2.35,1.2-2.61,3.99-.26,2.93,.13,3.72,1.56,3.19,2.22-.93,3.91,5.32,2.22,8.51-.78,1.46-.78,3.19-.13,4.26,.78,1.33,.39,2.79-1.04,4.52-1.17,1.46-1.56,2.13-.78,1.73,.91-.53,1.83,.27,2.22,1.73,.18,.66-.15,.92-.47,2.41-.09,.41-.16,1.12-.31,2.51-.36,3.48-.21,3.25-.39,3.86-.48,1.64-1.43,2.79-1.04,3.11,.06,.05,.15,.08,.26,.08,.78,0,1.69-.8,1.96-1.73,.39-.93,.78-.67,.78,.67,.13,1.33-.65,2.39-1.56,2.39-2.09,0-1.95,5.19,.13,6.52,.78,.53,1.04,1.6,.26,2.66-.52,1.06-.78,2.79-.39,3.99,.65,1.73,.39,1.86-1.04,.4-.91-.8-2.22-1.6-3-1.6-.65,0,.13,1.2,1.7,2.66,2.22,1.86,3,3.99,3,8.25,.13,8.25-.13,9.05-1.69,9.05-1.04,0-1.04-.53,.13-1.86,1.17-1.6,1.04-2-1.17-1.73-1.43,0-2.22,.67-1.83,1.33,.39,.67-.13,1.86-1.04,2.53-1.43,1.06-1.43,1.2,.39,.67,1.17-.4,3.13,.4,4.56,1.99,1.3,1.6,1.56,2.39,.65,1.86-.91-.53-1.69-.27-1.69,.8-.91,8.11-.91,10.64,.13,9.05,1.69-2.93,3-.67,1.43,2.53-.78,1.46-.91,2.93-.39,3.33,.82,.56,1.05,2.67,.73,4.57,.62,2.91,.67,6.02,.43,8.62-.24,2.58-.97,5.05-1.51,7.57,2.2-1.68,3.4,1.21,2.37,6.35,.37,.03,.74,.05,1.11,.06,.77-.97,3.52-1.23,10.44-1.24,17.99,.13,19.82,.26,21.38,1.59,1.04,.93,1.83,.8,2.48-.13,.52-.93,2.74-1.33,4.82-1.06,2.87,.53,3.65,.13,3.13-1.2-.52-1.2-.13-1.46,.78-.93,.78,.53,7.17,1.2,14.21,1.33,6.91,.27,14.21,.66,16.04,1.06,1.83,.4,3.65,.13,4.04-.53,.39-.67,3.26-.93,6.52-.67,4.17,.4,6.13,0,6.91-1.46,.91-1.73,1.56-1.6,4.56,.8,.38,.31,.73,.63,1.06,.96,.55-.06,.95-.1,1.25-.14-.24-.25-.49-.51-.75-.82Zm-49.04-152.71c.91-.27,1.96-.13,2.35,.27,1.3,1.33-.65,2.53-2.35,1.33-1.43-.8-1.43-1.06,0-1.6Zm-51.36,39.65c-1.04,0-1.96-.53-1.96-1.33,0-.67,.91-.93,1.96-.53,1.04,.53,1.96,1.06,1.96,1.33s-.91,.53-1.96,.53Zm101.05,103.75c.65,0,1.3,.27,1.3,.53,0,.4-.65,1.06-1.3,1.46-.78,.4-1.3,.13-1.3-.53,0-.8,.52-1.46,1.3-1.46Zm-1.83-42.97c.39-1.33,1.17-2,1.56-1.6,.39,.4,0,1.46-.91,2.39-1.3,1.2-1.43,1.06-.65-.8Z"/>
  <path d="M442.07,169.99c.65,0,.91-.67,.52-1.33-.39-.8-1.04-1.33-1.43-1.33-.26,0-.52,.53-.52,1.33,0,.67,.65,1.33,1.43,1.33Z"/>
  <path d="M443.25,191.27c.78,1.2,1.3,1.33,1.3,.4,0-.8-.65-2-1.3-2.39-1.56-1.06-1.56-.53,0,2Z"/>
  <path d="M452.24,188.61c.78,0,1.69-.53,2.09-1.33s-.13-.93-1.17-.53c-2.35,.93-2.74,1.86-.91,1.86Z"/>
  <path d="M454.6,275.74c1.96,7.85,9.91,13.3,17.34,11.84,12.78-2.66,17.99-23.28,7.43-29.8-2.35-1.46-4.82-2.66-5.48-2.66-.78,0-.52,.53,.52,1.2,1.43,.93,1.3,1.33-.65,1.86-2.22,.53-2.22,.67-.13,.8,1.56,.13,2.09,.8,1.43,1.73-.52,.93-.52,1.33,.13,.8,.52-.53,1.96-.27,3.13,.53,1.3,1.06,1.17,.53-.39-1.33-1.43-1.6-1.83-2.93-1.04-2.93,2.61,0,6.78,7.05,6.78,11.57,0,9.98-7.04,16.1-16.69,14.63-10.3-1.73-14.08-13.7-7.3-23.41l3.26-4.79-3.91,4.66c-2.22,2.53-4.04,5.59-4.04,6.78,0,1.33-.26,3.06-.52,4.12-.26,.93-.13,2.93,.13,4.39Z"/>
  <path d="M459.42,234.64c3.26,3.33,5.61,4.52,8.74,4.52,9.52,0,16.95-8.12,16.69-17.83-.26-4.39-.39-4.66-.78-1.46-1.69,13.04-10.82,18.76-21.25,13.31-8.6-4.52-9-16.36-.79-23.68l2.74-2.39-2.87,1.46c-4.17,2-6.91,8.12-6.91,15.43,0,5.19,.65,6.78,4.43,10.64Z"/>
  <path d="M458.76,185.95c2.09,2.13,5.22,4.26,7.17,4.79,4.69,1.2,12.25-2,15.51-6.25,5.08-7.05,3.78-21.02-2.09-21.95-1.43-.13-2.09,.13-1.56,.53,.52,.53,1.56,.93,2.35,.93,.91,0,2.09,2.13,2.74,4.66,1.7,6.92-1.69,14.1-7.82,16.76-9.13,3.86-17.34-1.59-18.91-12.24l-.78-6.52-.26,7.72c-.13,6.92,.26,8.25,3.65,11.57Z"/>
  <path d="M459.67,162.93c1.96-2,4.04-3.59,4.82-3.59s1.04-.4,.65-.8c-1.17-1.06-7.17,3.19-8.21,5.72-.39,1.2,.78,.53,2.74-1.33Z"/>
  <path d="M459.16,225.99c2.09,.8,14.08,.66,14.08-.13,0-.67-1.04-.93-2.35-.4-1.17,.4-1.83,.4-1.3-.27,.52-.53,.26-2-.65-3.06-1.3-1.73-1.17-2,1.43-1.33,2.61,.66,2.74,.53,1.43-1.06-1.43-1.73-1.83-1.73-3.65,.13-1.82,1.86-1.82,2.26-.13,3.33q2.22,1.46-3.52,2c-3.39,.27-4.3-.27-4.69-2.53q-.52-2.66-.78,.13c0,1.73,0,3.06,.13,3.19Z"/>
  <path d="M459.41,173.98c.26,0,.78-1.2,1.17-2.66s.13-2.66-.52-2.66-1.17,1.2-1.17,2.66,.26,2.66,.52,2.66Z"/>
  <path d="M462.16,266.69c1.04,0,1.56-.53,1.17-1.2s-1.3-.8-1.96-.4c-1.69,1.2-1.43,1.6,.78,1.6Z"/>
  <path d="M461.76,176.9c.78-.8,1.04-2.39,.78-3.72-.39-1.86-.65-1.6-1.3,1.2-.39,2.53-.26,3.33,.52,2.53Z"/>
  <path d="M463.84,169.98c1.7,1.86,2.87,2.66,2.48,2-.39-.8-.26-2.26,.52-3.33,.91-1.6,1.17-1.33,1.17,.93,0,4.26-1.43,7.18-3,6.12-.65-.4-.91-.27-.52,.53,.52,.67,2.74,1.33,5.08,1.46,3.91,.13,4.04,0,1.56-1.46-3.26-1.99-2.35-7.98,1.3-8.65,1.43-.4,2.09,0,1.56,.93-.52,.8-.26,1.46,.52,1.46,.91,0,1.3-.8,1.04-1.73-.39-.8-2.74-1.73-5.35-1.86-3.78-.27-4.82,.27-4.82,1.86,0,1.86-.26,1.86-1.83-.4-1.04-1.33-2.09-2.26-2.48-1.86-.26,.4,.91,2.13,2.74,3.99Z"/>
  <path d="M464.24,230.64c.78,.4,1.96,.27,2.61-.4s.13-1.2-1.43-1.2c-3,0-3.13,.27-1.17,1.6Z"/>
  <path d="M463.33,223.19c.26,0,.91-.93,1.3-2.13,.39-1.06,.26-1.6-.52-1.2-1.3,.8-1.82,3.33-.78,3.33Z"/>
  <path d="M465.28,217.87c1.43,0,2.87-.53,3.26-1.2s-.65-1.06-2.48-.93c-3.78,.13-4.43,2.13-.78,2.13Z"/>
  <path d="M465.29,275.74c.65,.4,1.56,.13,2.09-.67s1.43-1.06,2.09-.67,.78-.13,.26-1.46c-.65-2-.91-2-1.96,0-.65,1.2-1.69,1.86-2.48,1.46-.65-.53-1.17-.53-1.17-.13s.52,.93,1.17,1.46Z"/>
  <path d="M469.97,157.75c2.09,0,2.87-.27,1.56-.67-1.17-.27-3-.27-3.91,0-.78,.4,.13,.67,2.35,.66Z"/>
  <path d="M470.11,254.99c1.43,0,1.83-.4,.78-.8-.91-.4-2.09-.27-2.48,.13-.52,.4,.26,.8,1.69,.66Z"/>
  <path d="M472.59,217.61c1.56,1.46,1.96,1.33,1.96-.4,0-1.06-.91-2-1.96-2-2.35,0-2.35,.27,0,2.39Z"/>
  <path d="M472.71,209.89c1.17,0,3.91,1.99,6.13,4.26,2.22,2.66,3.39,3.19,2.48,1.6-.78-1.46-2.35-3.46-3.39-4.39-1.17-1.06-1.83-2.26-1.43-2.79,.26-.53-.91-.67-2.61-.27-3.65,.67-4.3,1.6-1.17,1.6Z"/>
  <path d="M473.23,162.8c1.43,0,2.61-.53,2.61-1.06s-1.17-1.06-2.61-1.06c-1.43,0-2.61,.53-2.61,1.06s1.17,1.06,2.61,1.06Z"/>
  <path d="M473.24,271.75c.65,.4,1.3,.13,1.3-.53,0-.8-.65-1.46-1.3-1.46-.78,0-1.3,.27-1.3,.53,0,.4,.52,1.06,1.3,1.46Z"/>
  <path d="M472.98,265.63c1.04,.13,1.3,.8,.78,1.73-.65,1.33-.52,1.33,.78,.13,2.09-2,1.04-3.72-1.56-2.66-1.43,.53-1.43,.8,0,.8Z"/>
  <path d="M473.23,173.31c.65,.4,1.3,.13,1.3-.53,0-.8-.65-1.46-1.3-1.46-.78,0-1.3,.27-1.3,.53,0,.4,.52,1.06,1.3,1.46Z"/>
  <path d="M477.41,222.13c.65-.67,1.04-2.13,.78-3.06-.39-1.06-.91-.4-1.43,1.33-.52,2.26-.39,2.79,.65,1.73Z"/>
  <path d="M478.2,275.07c.52,0,1.17-1.33,1.17-2.93,.26-2.39,0-2.66-.91-1.06-1.56,2.39-1.69,3.99-.26,3.99Z"/>
  <path d="M478.33,265.76c.91,0,1.17,.53,.78,1.33-.39,.67-.26,1.33,.52,1.33,.65,0,1.69-.67,2.09-1.33,.91-1.46-2.87-3.46-4.17-2.13-.52,.4-.13,.8,.78,.8Z"/>
  <path d="M478.58,176.63c.65,0,1.17-1.06,1.17-2.39,0-1.2,.39-3.59,.78-5.32,.65-2.26,.26-2.93-1.56-2.79-1.43,0-1.83,.4-1.04,.67,1.04,.4,1.17,2.13,.52,5.19-.52,2.66-.52,4.66,.13,4.66Z"/>
  <path d="M481.71,213.08c1.04,1.46,1.96,2,1.96,1.2s-.91-2.13-1.96-3.06c-2.48-2.13-2.48-1.46,0,1.86Z"/>
  <path d="M483.67,256.45c.65,0,1.3-.67,1.3-1.46,0-.67-.65-.93-1.3-.53-.78,.4-1.3,1.06-1.3,1.46,0,.27,.52,.53,1.3,.53Z"/>
  <path d="M504.27,279.06c5.87,12.1,23.34,10.11,27.64-3.33,.78-2.53,1.17-5.99,.91-7.58-.39-2.39-.65-2.26-.78,.93,0,2.13-1.3,5.99-2.74,8.38-7.17,11.97-24.77,6.65-24.77-7.45,0-4.92,.78-6.65,4.43-10.38,2.74-2.79,5.87-4.66,8.08-4.66,3-.13,3.13-.4,.91-.8-4.43-.93-10.56,3.19-13.43,8.91-3.26,6.39-3.26,9.98-.26,15.96Z"/>
  <path d="M504.14,230.9c6.26,13.04,23.6,9.57,27.64-5.59,.78-2.93,1.17-5.59,.78-5.85-.26-.27-1.04,1.86-1.82,4.66-1.69,6.52-4.95,9.58-10.82,10.51-6.13,1.06-12.52-2.39-14.86-8.11-2.48-6.25-.13-13.44,5.86-17.56,2.48-1.73,3.78-3.06,3.13-3.06-2.61,0-8.6,5.85-10.3,10.11-2.35,5.72-2.22,9.45,.39,14.9Z"/>
  <path d="M504.52,184.21c3.65,6.25,11.08,8.25,17.73,4.92,9.52-4.92,12.77-19.02,6.25-27-1.83-2.26-3.91-4.12-4.69-4.12s.13,1.2,2.09,2.79c1.83,1.46,3.39,3.19,3.39,3.86,0,1.6-6,2.4-8.34,1.07-2.61-1.46-2.74-.13-.26,2.39,1.3,1.33,2.22,1.46,2.74,.4,.52-.8,1.83-1.06,3-.53,1.04,.4,2.48,0,3.13-.93,.78-1.06,1.04,.93,.65,5.45-.78,9.18-4.82,13.44-12.64,13.44-7.69,0-13.69-5.85-13.43-13.03,.39-9.05,4.82-13.7,14.73-15.3q2.74-.53-.78-.8c-11.86-.53-20.21,16.23-13.56,27.4Z"/>
  <path d="M507,225.05c.39,.27,2.74,.53,5.08,.53,3.78,.13,4.43-.4,5.08-3.99,.91-4.39,3.91-6.39,5.74-3.59,.91,1.46,1.17,1.46,1.17-.4,0-1.46,.65-2,1.96-1.6,1.3,.53,1.7,2,1.3,4.39q-.65,3.46,.78-.27c.78-2.13,1.17-3.99,.78-4.39-1.04-1.06-10.04-1.46-10.04-.4,0,.53-1.17,.67-2.61,.27s-2.61,0-2.61,.8c0,.67,.78,1.06,1.83,.66,1.3-.53,1.56,.27,1.17,2.79-.91,4.39-2.61,5.32-5.21,3.06-1.56-1.2-1.96-1.2-1.17-.13,.52,1.06,.26,1.73-.91,1.73-1.3,0-1.69-1.06-1.17-3.33,.26-1.86,.26-3.33-.13-3.33-.91,0-1.95,6.65-1.04,7.18Z"/>
  <path d="M508.96,268.02q1.82-2.39,2.48,0c.52,1.86,.65,1.86,.78-.67,0-1.6-.39-2.93-.91-2.93-1.56,0-4.17,2.93-4.17,4.52,0,.8,.91,.4,1.83-.93Z"/>
  <path d="M508.04,177.83c.78,.13,1.96-.53,2.48-1.33,.52-1.06,1.17-.93,1.96,.27,.91,1.6,1.3,1.6,2.74,0,1.04-1.2,1.17-1.46,.13-.93-.78,.4-2.48-.53-3.52-2.13l-2.09-2.93v2.79c0,1.6-.78,3.19-1.69,3.46-1.17,.53-1.17,.8,0,.8Z"/>
  <path d="M508.04,170.24c.26-1.6,.91-2.93,1.3-2.93,.26,0,1.83,1.33,3.13,2.93l2.61,3.06-2.22-3.72c-2.61-4.26-4.95-4.12-5.35,.53q-.13,2.93,.52,.13Z"/>
  <path d="M509.74,216.54c.65,0,1.3,.8,1.3,1.86s.78,2.13,1.83,2.53c1.43,.53,1.43,.13,.26-2.53s-4.69-4.52-4.69-2.53c0,.4,.52,.67,1.3,.66Z"/>
  <path d="M514.18,275.07c1.04,0,2.22-.93,2.61-2.13,1.17-3.06,.52-3.19-2.22-.27-1.69,1.86-1.82,2.39-.39,2.39Z"/>
  <path d="M514.82,167.98c.65-.4,1.56,.93,1.83,2.93q.52,3.46,.78-.67c.13-2.93-.39-4.26-1.83-4.26-1.04,0-1.96,.67-1.96,1.46,0,.67,.52,1.06,1.17,.53Z"/>
  <path d="M518.35,257.64c1.43,0,1.83-.4,.78-.8-.91-.4-2.09-.27-2.48,.13-.52,.4,.26,.8,1.69,.66Z"/>
  <path d="M519.79,274.93c2.35,.13,3-.53,2.87-2.93-.13-2-.39-2.26-.78-.67-.26,1.2-1.56,2.53-2.74,2.79-1.56,.4-1.3,.67,.65,.8Z"/>
  <path d="M520.17,225.58c1.83,0,2.48-.27,1.56-.67-.78-.27-2.35-.27-3.26,0-.78,.4-.13,.67,1.69,.66Z"/>
  <path d="M519.51,177.96c1.04,0,1.96-.53,1.96-1.33,0-.67-.91-.93-1.96-.53-1.04,.53-1.96,1.06-1.96,1.33s.91,.53,1.96,.53Z"/>
  <path d="M519.78,220.93c.39,.53,1.43,.93,2.22,.93s.65-.67-.26-1.6c-.78-.8-1.83-1.2-2.22-.93-.39,.4-.26,1.2,.26,1.6Z"/>
  <path d="M522.13,266.82c1.56,1.46,1.96,1.33,1.96-.4,0-1.06-.91-2-1.96-2-2.35,0-2.35,.27,0,2.39Z"/>
  <path d="M521.99,210.28c3.13,1.2,3.65,1.2,2.74-.4-.39-.8-.13-1.33,.65-1.33,.65,0,2.48,2,3.91,4.26,1.43,2.39,2.61,3.72,2.61,2.79s-1.3-3.19-3-5.05c-2.35-2.93-3.39-3.33-6-2.26-2.74,.93-2.87,1.33-.91,2Z"/>
  <path d="M521.47,173.97c.65,0,1.3-.67,1.3-1.33,0-.8-.65-1.33-1.3-1.33-.78,0-1.3,.53-1.3,1.33,0,.67,.52,1.33,1.3,1.33Z"/>
  <path d="M525.52,257.51c2.22,1.46,2.35,2.13,1.17,3.72-1.17,1.33-1.3,2.39-.13,3.59,.78,1.06,1.04,2.26,.52,2.66-.39,.53-.13,.93,.65,.93,2.09,0,1.96-3.59,0-4.26-.91-.4-1.04-1.2-.39-2.39,.78-1.33,1.43-1.2,2.87,.66,.91,1.46,1.7,1.86,1.69,1.2,0-1.73-7.56-9.18-8.34-8.38-.39,.4,.52,1.33,1.96,2.26Z"/>
  <path d="M526.7,275.07c.78,0,1.3-.93,1.3-2s-.26-2-.52-2-.78,.93-1.3,2c-.39,1.06-.13,2,.52,2Z"/>
  <path d="M525.9,177.96c.26,0,.78-1.46,1.04-3.33,.39-1.73,.13-2.93-.39-2.53-1.17,.67-1.69,5.85-.65,5.85Z"/>
  <path d="M630.01,296.42c3.69,.26,6.43,1.14,5.96,1.9-.47,.62,.5,1.06,1.94,.74,1.6-.32,2.88-.65,2.88-.8,0-.15,4.49-.51,10.1-.89,9.46-.58,9.94-.43,6.76,1.74-.17,.11-.33,.25-.5,.38,2.72-.94,5.75-1.34,8.84-1.53,.07-.01,.14-.04,.21-.05,2.87-.42,5.35-.64,8.25-.27,.29,.04,.55,.11,.82,.17-.44-1.06-.18-1.51,.79-1.52,1.28-.02,2.42,.73,2.43,1.64,0,.11,.05,.18,.08,.27,2.86-.62,5.7-1.37,8.59-1.95,1.24-.25,2.45-.19,3.59,.06,.08-.11,.17-.21,.29-.29,.02-.48,.05-.97,.07-1.45l-9.14,.12c-4.97,.22-20.37,.41-34.01,.74-13.64,.33-21.81,.74-17.96,.99Z"/>
  <path d="M713.04,199.89c-7.22,.09-13.5,9.61-13.04,19.66l.24,5.63,1.05-5.34c1.35-6.72,6.08-12.26,9.31-11.08,1.61,.44,2.09,.13,1.27-1.08-.82-1.21,.63-1.07,4.66,.4,3.23,1.33,6.45,2.05,7.08,1.58,.64-.31,1.29,.14,1.3,1.2,.18,1.06,.7,3.95,1.37,6.38,.85,3.49,.4,5.63-2.13,8.4-1.73,2.15-3.17,2.93-3.34,2.02-.02-1.07,.61-1.99,1.42-2,2.25-.03,1.6-11.9-.84-13.69-1.3-1.05-2.58-1.03-3.05-.27-.47,.92,.19,1.82,1.48,2.42,1.29,.44,2.43,1.95,2.46,3.47q-.12,2.59-1.76,.17c-.82-1.51-2.93-2.7-4.37-2.53-2.25,.03-2.24,.33,.5,1.52q2.91,1.18-.63,.92c-4.5-.25-6.47-3.57-2.79-4.38,1.76-.33,1.27-1.08-1.64-2.26-3.39-1.48-3.87-1.47-2.24,.33,1.14,1.36,1.32,2.27,.04,3.04-.8,.47-1.6,.02-1.62-1.05-.21-3.35-4.76,3.71-4.71,7.22,.03,1.83,1.35,4.4,2.97,5.6,3.25,2.7,8.89,4.76,7.58,2.8-.49-.75,.13-1.83,1.09-2.3,1.11-.62,.63-.77-1.29-.29-3.84,.66-7.59-3.71-6.2-7.38,1.09-2.6,3.17-3.09,4.64-.82,.49,.91,2.27,1.49,3.87,1.47,2.41-.03,3.07,1.18,3.13,6.05,.24,5.78-.07,6.09-4.57,6.15-2.73,.03-6.43-.68-8.37-1.57-2.59-1.34-3.55-1.32-4.01,.05-.31,.92-1.26,1.69-2.22,1.7-.8,.01-.98-1.36-.52-3.04,.62-1.68,.28-3.05-.68-3.04-.96,.01-1.75,1.39-1.72,3.07,.03,1.83-1.08,3.06-2.52,3.08-2.25,.03-2.25-.43-.67-2.28,1.58-1.85,1.57-2.76,.1-4.42-1.63-1.81-1.32-2.27,1.72-2.91,3.68-.66,3.68-.81,.29-1.83-3.06-.87-3.4-2.09-3.57-14.11,.06-7.31,.77-13.71,1.72-14.33,1.11-.78,.95-1.23-.18-1.22-2.57,.03-1.73-9.11,.97-10.82,1.75-1.09,1.58-1.39-.82-1.36-2.41,.03-2.57-.42-1-2.27s1.57-2.3-.03-2.28c-1.6,.02-1.61-.44-.03-2.28,1.26-1.54,1.41-2.3,.29-2.29-1.28,.02-1.3-1.35-.23-4.56,1.39-3.82,2.19-4.29,4.77-3.11,2.26,1.19,2.6,2.4,1.68,5-.62,1.83-.73,5.03-.06,7.16,.67,2.12,1.04,5.47,.91,7.6-.13,2.13,.04,2.59,.34,1.06,.61-2.44,.93-2.45,4.82,.4,5.19,3.74,10.97,3.97,9.47,.49-.5-1.36-1-2.73-1.01-3.03,0-.46-.81-.29-1.76,.33-1.27,.63-1.1,1.38,.36,2.43,1.62,.89,.98,1.05-1.76,.48-6.12-1.6-8.73-4.61-8.81-10.55-.1-7.31,2.43-9.62,6.66-5.72,1.79,1.65,4.54,3.29,6.15,3.58s3.4,2.09,4.07,4.21q1.17,3.33,.95-1.08c-.2-2.59-.71-4.71-1.19-4.7s-2.25,.03-4.01-.1c-2.89-.27-2.89-.42,.46-1.83,4.63-1.73,6.73-.7,6.79,3.26,.02,1.52,.84,2.88,1.81,2.87,1.93-.02,.07-6.55-2.03-7.28-.81-.29-1.14-1.2-.51-1.97,1.26-2-.51-1.67-5.6,.99-4.14,2.03-4.79,2.04-7.39-.67-1.63-1.65-2.29-3.02-1.49-3.18,.8-.01,3.36-.5,5.76-.83,2.4-.49,6.58,.22,9.33,1.56,3.72,1.78,4.86,3.29,4.91,6.94,.06,4.41-4.95,12.85-6.58,11.2-.49-.45-1.28,.63-1.73,2.31-.76,2.9-.6,3.05,3.86,.86,8.6-4.53,10.11-22.36,2.02-27.13-7.12-4.32-13.54-4.09-19.24,.85-2.85,2.47-5.72,4.03-6.21,3.58-.49-.45-2.1-1.04-3.87-1.17-2.25-.28-2.75-1.64-2.65-5.6,.01-.25,.02-.55,.03-.87-1.58-2.03-1.97-4.71,.05-7.48,.06-.08,.12-.16,.18-.24,.06-2.37,.11-4.9,.14-7.26,.05-3.48,.33-7.08,.71-9.69-2.96-5.27-3.1-12.25-3.24-17.85-.26-10.18-1.18-20.3-.05-30.47,.48-4.35,1.18-8.59,2.02-12.79,.11-3.24,.46-5.55,1.09-5.18,0,0,.01,0,.02,.01,.4-1.76,.83-3.51,1.28-5.27-1.9-.61-3.16-1.3-3.17-1.88-.01-.76,.62-1.38,1.42-1.39,.8-.01,1.09-2.3,.73-4.88-.7-3.8-.38-4.41,.76-2.75,1.47,1.96,1.79,1.96,1.76-.33-.02-1.37,.92-2.75,2.04-3.22,.17-.06,.33-.14,.46-.23,.14-.5,.26-1,.4-1.5-.03-.03-.05-.07-.08-.1-.65-.6-2.25-.28-3.68,.81-1.9,1.55-2.55,1.56-3.21-.26-1.18-2.75-.52-9.87,.83-13.07,.08-1.49,.32-2.93,.65-4.36-.04,.02-.09,.03-.13,.05-1.76,.63-2.41-.27-2.46-3.78-.04-2.59,.58-4.27,1.55-3.67,.81,.45,1.15,1.96,.69,3.49q-.77,2.45,1.44-.02s.01-.01,.02-.02c.48-1.48,.99-2.96,1.47-4.49,.42-1.3,1.12-2.34,1.98-3.17-2.17,.88-5.44,.08-6.34-2.02-.5-1.36-1.02-4.25-1.06-6.69-.02-1.08-.13-1.96-.37-2.68-4.11-.17-8.17-.57-12.21-1.09-10.78,.1-21.76,1.75-32.43,1.35-2.82-.11-5.62-.14-8.43-.15-2.16,1.61-5.11,2.02-8.12,.03-4.81,.04-9.62,.07-14.44-.07-5.89-.17-15.29-1.58-22.09-.05-.16,.4-.47,.48-.99,.25-1.06,.3-2.04,.67-2.92,1.15-3.38,1.85-2.36,4.56-2.47,8.1-.2,6.36-1.56,12.61-1.7,18.99-.04,1.84-.64,3.34-1.59,4.49,.09,.23,.21,.43,.38,.59,1.58,1.61,1.52,5.81-.24,7.18-.02,.1-.02,.2-.05,.3-.11,.42-.23,.84-.34,1.25,.29,.6,.94,1.31,1.91,2.06,2.27,1.65,2.43,1.95,.66,1.36-1.91-.55-3.41,.18-3.96,1.24-.06,.2-.13,.39-.2,.58-.12,.79,.25,1.66,1.32,2.32,1.94,1.04,1.95,1.5,.2,2.74-1.75,.94-1.58,1.54,.84,2.43,2.74,1.03,2.74,1.18-.29,2.29-1.75,.78-2.23,1.4-1.1,1.38,.96,.14,1.94,.74,1.95,1.65,.01,.76-1.27,.93-2.72,.49-2.1-.73-1.93-.28,.67,2.12,3.58,3.3,3.87,12.74,.56,16.74-1.58,1.69-1.58,2,.02,1.67,2.72-.64,3.92,5.13,1.38,6.68-.11,.07-.2,.14-.29,.21-.06,.55-.2,1.12-.39,1.7,.21,.21,.49,.43,.88,.68,1.78,1.04,1.78,1.35-.29,2.14-.62,.23-1.23,.27-1.76,.14-.51,1.2-1.02,2.41-1.52,3.61,.28-.2,.63-.47,1.08-.83,1.59-1.24,3.03-1.41,3.52-.5,.49,.75,.03,1.83-.93,2.14-1.6,.63-1.59,.93-.15,.92,1.13,.14,1.62,1.2,1,2.58-.77,1.99-1.1,1.99-2.24,.33-1.14-1.51-1.46-1.35-1.43,.78,.02,1.52,1.01,3.03,2.3,3.47,1.61,.59,1.95,1.95,1.04,5.16-.76,2.75-.57,4.88,.57,5.93,1.46,1.35,1.31,2.11-.28,3.2-2.07,1.09-2.06,1.7,.06,3.96,1.31,1.51,1.48,2.27,.51,1.67-2.75-1.49-3.79,4.62-1.19,6.71,1.95,1.5,1.96,2.11-.43,3.81-1.75,1.24-2.06,2.01-.77,2.14,.96-.01,1.94,.74,1.95,1.65,.01,.76-.95,1.08-1.92,.48-1.13-.59-.64,.31,.99,2.12,2.61,2.86,2.78,3.31,.53,3.34-2.57,.03-2.51,3.84,.16,11.42,1.84,5,1.72,8.35-.04,8.37-.96,.01-.79,.77,.35,1.82,.98,.9,2.27,1.49,2.58,1.03,.32-.31,.59-37.61,.59-82.83l-.2-82.22,12.03-.15c6.58-.08,29.36-.07,50.55-.19l38.83-.19-.89,16.45c-.35,8.99,.09,74.3,1.1,145.39l1.8,126.95c.36-4.67,1.07-9.34,2.42-13.72-1.24-8.19-1.3-23.69,.56-24.83,1.11-.78,1.28-.32,.5,1.06-.78,1.23,.49,.6,2.55-1.1,2.06-1.85,5.24-4.03,6.99-4.96,2.55-1.4,2.7-1.71,.46-1.83-4.33,.06-7.68,1.77-7.65,4.06,.02,1.07-.94,1.69-2.23,1.25-2.42-.88-3.16-8.03-.8-10.8,.95-1.08,.77-2.14-.36-2.74-.81-.45-1.63-2.11-1.65-3.48-.03-1.98,.62-1.68,2.58,.88,1.96,2.56,3.09,3.01,4.68,1.77,1.43-1.24,2.23-.94,3.06,.72,.5,1.21,1.64,2.26,2.6,2.25,.96-.01,1.44-.63,.78-1.38-1.64-2.42,1.4-3.06,4.64-.82,2.75,1.79,2.76,2.1,.52,3.04-2.19,.75-2.94,1.7-2.42,2.34,1.8-1.62,4.27-2.36,6.62-2.18,.42-1.48,.08-2.65-.86-2.64-.8,.01-.98-.9-.35-1.82,.63-1.07,.46-1.53-.17-.76-.79,.62-3.05,.04-5.31-1.3-2.1-1.19-4.2-1.93-4.83-1.46-.47,.46,.01,.91,1.14,.9,1.12-.01,1.45,.74,.98,1.51-.63,.92-1.91,1.09-2.88,.49-1.94-1.19-2.75-1.34-6.12-1.75-.8,.01-1.29-.74-.67-1.67,.47-.77,1.91-1.09,3.04-.65,1.29,.44,2.73,.12,3.2-.65,.63-.92,3.04-.8,6.75,.37,11.44,3.51,19.71-1.93,20.83-13.82,1.28-11.74-5.25-19.12-16.8-18.97Zm4.21-42.23c.47-.46,1.44-.32,2.41,.27,2.59,1.34,2.12,2.26-.62,1.23-1.45-.44-2.26-1.19-1.79-1.5Zm-6.26-.38c.47-.92,1.58-1.54,2.55-1.56,2.25-.03,1.78,1.04-1.09,2.15-1.28,.47-1.92,.33-1.45-.59Z"/>
  <path d="M700.67,198.83c-7.03,2.37-7.34,2.99-1.41,2.45,2.73-.19,5.44-1.29,5.75-2.2,.62-1.53-.5-1.52-4.34-.25Z"/>
  <path d="M697.43,196.44c-1.6,.48-2.39,1.4-1.9,1.85s1.76-.02,2.87-1.1c1.42-1.54,1.26-1.69-.97-.75Z"/>
  <path d="M696.11,182.6c-.81-.45-1.61-.13-1.6,.63,.01,.91,.83,1.66,1.63,1.65,.96-.01,1.6-.32,1.6-.63,0-.46-.66-1.21-1.63-1.65Z"/>
  <path d="M694.65,203.94c-.95,.77,.12,8.37,1.24,8.36,.48,0,.45-1.99,.26-4.42s-.86-4.25-1.5-3.94Z"/>
  <path d="M675.42,13.71c-3.58-3.3-7.13-5.09-9.7-5.05-5.62,.07-13.26,3.98-15.3,7.66-2.5,4.75-1.86,4.74,3.05-.04,8.23-8.02,20.46-5.44,24.3,5.17,1.5,4.24,1.37,6.22-.81,10.82-2.96,5.98-11.08,10.65-15.92,8.88-1.94-.74-2.41-.43-1.43,.93,1.64,2.57,9.96,.94,14.08-2.77,9.03-7.88,9.69-18.24,1.72-25.6Z"/>
  <path d="M679.39,67.1c-2.81-5.9-6.06-8.3-12.65-9.13-9.33-1.25-19.15,7.25-18.55,16.07,.02,1.37,.81,.45,1.57-2.15,1.84-6.11,5.96-9.82,13-10.98,14.89-2.47,21.95,19.97,8.57,26.99-2.07,1.09-3.5,2.18-3.17,2.48,1.79,1.8,7.97-3.6,10.62-9.27,3.42-7.5,3.42-8.11,.6-14.02Z"/>
  <path d="M675.99,110.38c-6.18-5.71-14.04-5.76-20.87-.34-4.6,3.87-9.27,13.82-7.32,15.62,.49,.6,1.43-1.24,1.87-3.98,.61-2.6,3.12-6.59,5.81-8.75,6.19-5.1,14.54-4.45,20.08,1.42,4.24,4.67,4.63,9.69,1.2,16.43l-2.34,4.9,3.15-3.85c5.05-6,4.27-15.89-1.59-21.45Z"/>
  <path d="M676.84,159.1c-7.98-8.27-21.1-5.52-26.56,5.52-1.4,2.91-2.47,6.58-2.29,8.25,.02,1.52,1.12-.17,2.51-3.84,3.39-9.79,11.85-13.4,21.06-8.95,9.21,4.3,10.49,15.55,2.73,23.11-2.22,2.16-3,3.54-1.88,3.22,3.99-1.42,9.15-10.77,9.07-16.71-.06-4.26-1.39-7.14-4.64-10.6Z"/>
  <path d="M680.64,211.73c-2.15-4.54-7.18-8.13-12.48-8.98-9.65-1.7-20.09,9.39-19.45,20.35,.21,3.8,.37,3.65,1.27-1.08,3-14.81,16.57-19.7,26.5-9.47,4.07,4.21,4.21,13.95,.11,18.73l-2.84,3.39,3.49-3.09c3.8-3.55,5.89-14.84,3.41-19.84Z"/>
  <path d="M680.35,259.39c-1.32-2.27-3.92-4.82-5.7-5.71-4.52-2.23-13.34-1.66-17.48,1.14-4.13,2.95-8.03,10.91-7.95,16.24,.2,2.43,.83,1.66,2.37-2.62,3.71-10.25,11.04-13.84,20.4-10,8.56,3.54,10.99,16.61,4.35,24l-3.47,4,4.12-3.86c5.39-4.94,7.14-16.99,3.36-23.19Z"/>
  <path d="M672.48,168.59c-2.89-.12-5.88,4.03-3.78,5.22,.81,.45,1.6-.02,1.58-1.39-.02-1.22,.93-2.6,2.04-2.92,1.11-.62,1.27-.93,.15-.92Z"/>
  <path d="M669.81,71.03c-.32,0-1.43,1.08-2.53,2.32-1.1,1.38-1.25,2.3-.29,2.29,.8-.01,1.91-1.09,2.53-2.32,.46-1.22,.61-2.29,.29-2.29Z"/>
  <path d="M668.93,121.59c-1.27,1.08-1.89,2.31-1.73,2.61,.97,.75,3.99-1.57,3.97-3.1-.01-.76-.97-.6-2.24,.49Z"/>
  <path d="M668.02,125.86c-.8,.01-1.59,.78-1.58,1.7,.01,.76,.82,1.06,1.61,.59,.96-.47,1.59-1.24,1.58-1.7,0-.3-.65-.6-1.61-.59Z"/>
  <path d="M668.34,215.84c-1.76,.02-2.24,.49-.95,.93,1.13,.44,2.57,.27,3.05-.19,.64-.46-.33-.91-2.1-.73Z"/>
  <path d="M669.29,271.4c-1.27,.63-2.39,1.25-2.39,1.55s1.13,.59,2.42,.58,2.4-.64,2.39-1.55c-.01-.76-1.14-1.05-2.42-.58Z"/>
  <path d="M668.07,275.99c-1.6,.48-2.39,1.4-1.9,1.85s1.76-.02,2.87-1.1c1.42-1.54,1.26-1.69-.97-.75Z"/>
  <path d="M660.34,36.59c-2.9-1.03-4.85-2.37-4.38-2.99,.47-.77-.04-2.89-1.19-4.86-1.81-3.02-2.29-3.17-3.06-1.03-.62,1.53-.45,2.29,.35,1.82s1.77,.13,2.43,1.34c.5,1.21,.03,2.28-1.09,2.3s.5,1.52,3.25,3.16c2.91,1.64,5.98,2.82,6.94,2.5s-.5-1.36-3.24-2.24Z"/>
  <path d="M659.43,28.99c-1.28,.02-1.92,.63-1.42,1.39s1.62,.89,2.41,.43c2.07-1.4,1.74-1.85-.99-1.81Z"/>
  <path d="M661.78,126.71c-1.27,.63-2.72,.34-3.54-.87-.98-1.36-1.47-1.5-1.45-.29,.04,2.89,3.43,4.07,5.32,1.91,1.42-1.54,1.42-1.69-.33-.76Z"/>
  <path d="M663.44,221.54c-.47,1.07-.29,2.44,.2,2.89,.49,.6,.96-.32,.77-1.99-.02-1.67-.51-2.13-.98-.9Z"/>
  <path d="M663.78,267.67c-1.15-1.81-2.1-1.04-4.28,3.4-2.5,5.06-6.65,6.63-4.79,1.58,.46-1.22,.14-1.68-.66-1.21-2.23,1.4-1.86,4.9,.72,5.78,2.26,.88,7.17-3.9,7.44-7.1,.15-.92,.8-.16,1.47,1.96,1.17,3.18,1.33,3.18,1.45,.74-.02-1.67-.54-3.95-1.36-5.16Z"/>
  <path d="M659.8,134.04c-3.24-2.24-6.15-3.73-6.14-2.97,0,.46,1.79,1.8,4.06,3.15,4.21,2.53,5.65,2.36,2.08-.18Z"/>
  <path d="M661.29,216.54c-.81-.45-1.61-.13-1.6,.63,.01,.91,.83,1.66,1.63,1.65,.96-.01,1.6-.32,1.6-.63,0-.46-.66-1.21-1.63-1.65Z"/>
  <path d="M661.97,230.85c-.8,.01-2.57-.27-4.18-.56-2.25-.43-2.57-.12-1.1,1.54,.98,1.21,2.91,1.64,4.19,1.16,2.39-.94,3.02-2.02,1.09-2.15Z"/>
  <path d="M662.45,276.06c-.81-.45-1.44,.17-1.42,1.39s.67,2.28,1.48,2.26c.64,0,1.27-.63,1.26-1.39-.01-.91-.67-1.82-1.32-2.27Z"/>
  <path d="M653.61,37.59c-2.11-1.34-3.92-4.82-4.62-9.08-1.04-5.62-1.37-5.92-1.47-1.81-.08,5.94,2.41,11.39,6.61,13.77s3.85,.1-.52-2.89Z"/>
  <path d="M655.83,137.59c-2.26-.88-2.42-.73-.95,.77,1.14,1.05,2.43,1.49,2.9,1.03s-.34-1.37-1.95-1.8Z"/>
  <path d="M658.37,225.71c-1.27,.63-2.72,.34-3.54-.87-.98-1.36-1.47-1.5-1.45-.29,.04,2.89,3.43,4.07,5.32,1.91,1.42-1.54,1.42-1.69-.33-.76Z"/>
  <path d="M659,281.28c-.82-1.21-1.95-1.8-2.43-1.34-.47,.62,.19,1.82,1.65,2.87,2.76,2.1,3.07,1.64,.78-1.53Z"/>
  <path d="M655.43,176.73c-.81-.45-1.77-.28-2.24,.18-.64,.46-.15,.92,.82,.9s1.46,.89,.99,2.12-.12,2.59,.85,3.03c.81,.6,1.44-.48,1.25-2.3-.18-1.67-.85-3.49-1.66-3.94Z"/>
  <path d="M653.81,74.28c-.32,0-1.11,1.08-1.57,2.46-.46,1.22-.29,1.83,.66,1.36,1.59-.93,2.19-3.83,.91-3.82Z"/>
  <path d="M652.36,85.11c-1.3-1.05-2.78-3.31-3.12-5.14q-.68-3.04-.81-.29c-.12,3.2,3.98,9.39,5.41,8,.47-.46-.18-1.67-1.48-2.57Z"/>
  <path d="M651.08,130.65c-1.48-2.57-2.29-3.02-2.27-1.34,.02,1.37,1.17,3.33,2.47,4.38,2.92,2.25,2.92,1.94-.2-3.04Z"/>
  <path d="M627,16.46c-2.96-5.14-7-7.22-13.9-7.13-9.79,.13-17.37,8.75-16.9,18.79,.23,4.56,.38,4.41,1.26-1.39,1.48-8.85,6.86-14.25,14.4-14.34,12.19-.16,18.91,9.81,13.77,20.38-2.96,6.28-4.07,7.06-11.75,8.68q-5.44,1.14-.78,1.23c12.52,.3,20.65-15.03,13.91-26.21Z"/>
  <path d="M628.34,66.23c-3.12-5.29-8.46-8.27-14.88-8.18-5.13,.07-7.2,1.16-11.47,5.63-7.12,7.25-7.31,16.23-.95,23.46,2.44,2.56,4.55,4.36,5.03,3.89,.32-.31-1.16-2.27-3.43-4.37-12.03-11.11,2.13-31.09,16.83-23.81,5.49,2.52,7.46,5.84,7.71,12.08,.1,6.85-6.21,15-11.82,15.07-2.09,.03-4.16,.66-4.63,1.43-1.26,1.84,9.78-.73,12.48-2.9,3.17-2.63,7.22-11.51,7.16-15.77-.03-1.83-1.03-4.86-2.02-6.52Z"/>
  <path d="M628.55,114.64c-4.63-9.69-17.17-11.05-25.87-2.56-3.17,3.09-5.36,6.77-5.33,8.9,.21,3.19,.36,3.04,2.23-1.25,4.67-10.41,15.54-12.99,23.51-5.63,6.5,6.01,6.61,13.31,.28,19.79-2.53,2.62-4.1,4.77-3.46,4.76,2.09-.03,7.77-6.8,9.47-11.24,2.17-5.51,1.99-6.88-.82-12.78Z"/>
  <path d="M626.13,159.13c-8.94-8.26-21.26-5.36-26.55,6.12-1.72,3.52-2.94,7.5-2.93,8.72s1.11-.62,2.51-4.3c3.86-11.01,16.16-14.37,24.46-6.71,5.04,4.66,5.76,9.82,2.16,16.72-3.75,7.36-2.94,7.95,1.3,1.2,4.55-7.21,4.09-17.1-.95-21.76Z"/>
  <path d="M628.46,210.26c-2.46-4.08-8.45-7.5-13.11-7.6-8.98,.11-18.62,11.2-17.99,21.09,.2,3.04,.53,3.5,.98,1.21,2.11-9.47,4.14-13.3,8.29-15.33,6.69-3.44,10.55-3.03,16.4,1.92,4.22,3.45,5.21,5.41,5.11,9.83-.07,6.4-4.3,13.76-7.36,12.73-1.13-.44-2.08,.18-2.07,1.4,.05,3.65,6.24-1.15,9.36-7.28,3.28-6.13,3.35-12.98,.39-17.97Z"/>
  <path d="M628.85,260.04c-1.32-2.27-4.57-5.27-7.15-6.46-5.98-2.82-15.09-.11-19.65,5.88-3.31,4.46-5.49,20.02-2.9,21.51,.65,.45,1.1-1.84,.73-5.03-1.82-14.9,12.02-23.45,23.38-14.61,3.89,3,5.05,5.11,5.11,9.53,.07,5.18-2.89,11.3-6.86,14.4-1.11,.78-.79,1.08,.65,.75,3.2-.8,9.44-13.06,9.37-18.09-.19-2.13-1.2-5.62-2.68-7.88Z"/>
  <path d="M623.07,270.93c-.79,.77-1.08,2.91-.73,4.88,.52,3.04,.84,2.88,1.42-1.39,.44-3.05,.26-4.42-.69-3.49Z"/>
  <path d="M620.92,266.85c-2.24,.18-3.19,1.56-3.47,4.16-.11,3.66-.11,3.81,1.62,.89,.94-1.69,2.52-3.53,3.47-4.16s.31-.92-1.62-.89Z"/>
  <path d="M616.93,19.33c-.81-.6-1.12,.47-.61,2.14,1.01,3.49,2.14,3.93,2.1,.89-.02-1.22-.68-2.58-1.49-3.03Z"/>
  <path d="M617.99,71.39c-.31,.92-1.26,1.54-2.07,1.09-.65-.45-.95,.77-.28,2.59,.85,3.19,1.01,3.18,2.09,.28,.62-1.53,1.23-3.52,1.22-4.43-.17-.76-.49-.6-.96,.47Z"/>
  <path d="M618.18,118.89c-.8,.01-1.58,1.54-1.55,3.52,.04,2.74,.36,2.89,1.62,1.05,2.04-2.92,2.02-4.59-.06-4.57Z"/>
  <path d="M618.7,166.84c-2.59-1.64-3.05-.11-.45,1.99,1.3,1.05,2.26,1.19,2.25,.43s-.83-1.97-1.8-2.41Z"/>
  <path d="M616.99,170.97c-2.44-2.25-5.65-2.21-7.06,.09-.63,1.07-.46,1.22,.81,.6,.95-.62,3.04-.34,4.34,.71,2.92,2.25,4.51,1.01,1.91-1.39Z"/>
  <path d="M612.95,134.94c-3.52,.5-8.2-1.11-7.25-2.34,.32-.31-.67-2.28-2.31-4.39-1.47-1.96-2.77-2.86-2.76-1.94,.02,1.07,.83,2.27,1.64,2.72,.97,.6,1.31,1.51,.83,2.27-1.1,1.69,5.54,6.02,9.23,5.97,1.44-.02,3.04-.65,3.51-1.42,.47-.62-.82-1.06-2.9-.88Z"/>
  <path d="M614.29,138.88c-1.76,.02-2.24,.49-.95,.93,1.13,.44,2.57,.27,3.05-.19,.64-.46-.33-.91-2.1-.73Z"/>
  <path d="M612.73,176.21c-2.25,.03-4.66-.55-5.32-1.45-.82-1.06-1.29-.59-1.27,1.08,.02,1.37,.52,2.58,1.32,2.72,6.75,.52,9.47,.34,9.45-1.03-.01-.91-1.95-1.5-4.19-1.32Z"/>
  <path d="M615.22,215.76c-2.26-.88-2.42-.73-.95,.77,1.14,1.05,2.43,1.49,2.9,1.03s-.34-1.37-1.95-1.8Z"/>
  <path d="M617.36,275.72c-.8,.01-2.07,.79-2.55,1.56-.47,.92-.3,1.53,.66,1.51,.8-.01,2.08-.64,2.55-1.56,.47-.77,.3-1.53-.66-1.51Z"/>
  <path d="M611.95,87.15c-1.76,.02-2.24,.49-.95,.93,1.13,.44,2.57,.27,3.05-.19,.64-.46-.33-.91-2.1-.73Z"/>
  <path d="M612.39,118.05c-2.29-2.71-2.45-2.71-.63,.62,.99,1.81,2.13,3.32,2.45,3.32,1.28-.02,.95-.77-1.82-3.94Z"/>
  <path d="M612.52,183.67c-2.88,.65-4.97,.22-6.76-1.28-2.28-2.25-2.6-2.25-2.24,.33,.19,2.13,1.48,2.72,5.49,2.52,2.73-.03,5.77-.68,6.4-1.45,.63-.62-.65-.75-2.89-.12Z"/>
  <path d="M613.85,265.87c-.81-.45-2.4,.18-3.67,1.42-1.58,1.7-2.7,1.86-4,.66s-2.25-.58-3.5,2.48c-.77,2.29-1.53,5.35-1.35,6.72s.96-.01,2.04-3.22c.92-3.21,2.33-5.36,2.82-4.91,.65,.6,.67,2.12,.21,3.5-.46,1.53,.66,1.06,2.71-1.25l3.48-3.85-.75,3.82c-.29,2.14-1.21,5.19-1.67,6.87q-1.08,2.91,.65,.3c2.83-4.3,4.65-11.63,3.03-12.52Z"/>
  <path d="M608.67,127.23c-2.09,.03-2.56,.64-1.58,1.54,1.14,1.05,2.1,1.04,3.21-.04,.95-.93,.46-1.53-1.63-1.5Z"/>
  <path d="M611.64,223.27c-2.07,1.24-3.1-3.31-1.2-5.16,1.42-1.39,1.26-1.69-.82-.9-1.44,.63-3.01,2.78-3.62,5.07s-1.86,4.59-2.81,5.21c-1.27,.78-.95,1.23,.82,1.21,1.44-.02,2.87-1.56,3.32-3.39q.59-3.51,2.41,.27c.99,2.12,1.81,3.48,1.97,3.02,1.07-3.67,1.04-5.95-.08-5.33Z"/>
  <path d="M606.58,36.21c-2.1-.73-2.27-1.49-.86-4.25q1.72-3.37-.81-.45c-2.05,2.61-2.04,3.22,.07,5.18,1.3,1.2,2.75,1.79,3.23,1.33s-.18-1.22-1.63-1.81Z"/>
  <path d="M607.54,70.3c-.64,0-1.27,.63-1.26,1.39,.01,.91,.67,1.82,1.32,2.27,.81,.45,1.44-.17,1.42-1.39s-.67-2.28-1.48-2.26Z"/>
  <path d="M607.44,119.94c-2.26-.88-2.42-.73-.95,.77,1.14,1.05,2.43,1.49,2.9,1.03s-.34-1.37-1.95-1.8Z"/>
  <path d="M605.83,39.87c-.8,.01-3.07-1.48-5.02-3.29l-3.42-3.46,1.81,3.33c2.14,3.78,8.29,7.51,8.25,4.92-.01-.76-.66-1.51-1.63-1.5Z"/>
  <path d="M605.83,232.63c-2.26-.88-2.42-.73-.95,.77,1.14,1.05,2.43,1.49,2.9,1.03s-.34-1.37-1.95-1.8Z"/>
  <path d="M605.98,276.63c-.8,.47-1.58,1.7-1.57,2.46,.01,.91,.82,1.06,1.61,.59,.96-.47,1.58-1.7,1.57-2.46-.01-.91-.66-1.06-1.61-.59Z"/>
  <path d="M584.8,265.94c-.94,1.69-1.09,2.6-.29,2.14,.64-.46,1.29,.74,1.32,2.72s-.44,3.2-.92,2.9c-.49-.3-.27,3.35,.59,7.91s1.09,9.12,.46,10.04c-.63,.77-.29,1.98,.52,2.58,.75,.34,1.71,1.7,2.42,3.28,.94-.07,1.93,.04,2.97,.4,.86,.29,1.67,.61,2.48,.94,1.12-.83,2.41-1.28,3.26-.95,1.13,.44,4.01,.1,6.57-.69l4.48-1.28-5.62-.23c-3.05-.11-7.39-.36-9.63-.33l-4.02-.25-.64-22.83c-.34-12.48-.67-24.66-.7-26.94-.2-2.43-1.02-4.25-1.99-4.24s-1.43,1.08-.77,2.29c1.16,2.88-.38,7.16-2.16,6.12-.19-.1-.39-.15-.6-.16,.03,.57,.03,1.15,.05,1.73,2.61,1.06,4.41,10.71,2.23,14.85Z"/>
  <path d="M601.32,27.45c-.47,1.07-.29,2.44,.2,2.89,.49,.6,.96-.32,.77-1.99-.02-1.67-.51-2.13-.98-.9Z"/>
  <path d="M602.03,77.68c-.47,1.07-.29,2.44,.2,2.89,.49,.6,.96-.32,.77-1.99-.02-1.67-.51-2.13-.98-.9Z"/>
  <path d="M601.23,134.18c-2.6-1.95-2.75-1.79-.63,.62,1.14,1.36,2.44,2.56,2.76,2.55,1.28-.02,.46-1.22-2.13-3.17Z"/>
  <path d="M602.94,221.09c-.32,0-.95,1.08-1.57,2.3-.46,1.22-.13,2.29,.67,2.28,.96-.01,1.59-1.09,1.57-2.3s-.35-2.28-.67-2.28Z"/>
  <path d="M583.64,172.77c.01,.76,.82,1.06,1.93,.43,1.11-.62,1.28-.47,.65,.75-.63,.92-1.91,1.39-2.71,.95-.81-.6-1.45-.13-1.44,.63,.01,.91,.99,1.66,2.11,1.65,.85-.01-.77,2.14-3.76,4.87,.28,.63,.47,1.29,.56,1.99,.71-.36,1.21-.34,1.22,.17,.01,.76,.81,.29,1.59-.93,1.26-2,1.58-2,1.61,.28,.02,1.37-1.24,3.37-2.67,4.3-.67,.42-1.17,.74-1.51,.97,0,.12,0,.25,0,.38,.34-.09,.84-.23,1.52-.43,3.99-1.27,3.4,1.94-.75,3.66-.35,.12-.63,.23-.91,.33-.02,.35-.05,.7-.08,1.05,.17,0,.33,0,.53,0,2.09,.13,3.39,1.17,3.57,2.85,.27,2.39-1.98,3.36-4.7,2.64-.07,.54-.14,1.07-.22,1.61,.75,.29,1.49,.43,2.09,.36,2.08-.33,2.58,1.03,2.83,7.27,.06,4.26,.61,8.82,1.27,10.03,.5,1.36-.11,3.35-1.38,4.28-2.54,2.16-2.97,5.37-.59,3.81,2.86-1.71,1.79,1.5-1.69,5.05-.73,.78-1.51,1.43-2.23,1.93,.22,1.2,.43,2.4,.63,3.6,1.36-.44,2.58-1.38,2.76-2.65,.14-1.68,.92-3.36,1.55-3.83,.63-.62,.66,1.21,.22,3.96-.75,3.66-.41,4.88,1.35,4.85,2.09-.03,2.34-5.05,1.92-34.28-.42-29.38-.81-34.25-2.89-34.22-1.28,.02-2.4,.79-2.38,1.71Z"/>
  <path d="M581.14,109.46c-.97-.44-1.12,.17-.62,1.38,1.16,2.73,2.29,3.17,2.26,1.04-.01-.91-.67-1.97-1.64-2.42Z"/>
  <path d="M386.48,168.61c-.6-.9-1.1-1-1.1-.3,0,.55-.26,1.78-.53,2.75,.14-.28,.27-.57,.43-.84,.34-.62,.79-1.11,1.3-1.48-.03-.04-.06-.08-.1-.13Z"/>
  <path d="M290.7,276.93c.5,.11,.99,.31,1.49,.56-.08-.36-.08-.65,.04-.83,.28-.63,3.03,.76,5.93,2.9,3.72,2.77,7.31,4.16,11.99,4.67,3.58,.38,7.17,1.26,7.72,2.02,.83,.88,.96,.76,.69-.38-.41-1.01,1.52-3.53,4-5.55,2.48-2.02,4.55-4.54,4.55-5.8,0-1.64-.28-1.64-1.24-.25-.96,1.39-1.38,1.39-2.07,0-.41-1.01-.41-.38,0,1.26,.55,2.02,.41,2.65-.69,2.14-2.21-1.26-1.93-4.54,.55-5.3,1.1-.5,2.07-1.77,2.21-2.9,0-1.13,.69-.13,1.38,2.27,.83,2.27,1.1,6.81,.83,10.09-.69,7.31,0,8.95,3.72,8.95,5.24,0,6.75,1.89,6.75,8.32,0,3.4,.28,5.04,.55,3.66,1.24-5.55,2.07-6.43,3.17-3.78,1.1,2.4,1.24,2.4,1.24,.13,.14-1.89,.55-2.02,2.07-.88,1.52,1.13,2.21,1.13,2.89,0,.83-1.01,1.38-.88,2.21,.25,.83,1.26,1.24,1.39,1.24,.13,0-.76,1.24-1.51,2.76-1.51s2.76,.5,2.76,1.13c0,1.13,6.62,.88,7.86-.38,.41-.38,1.52,.25,2.48,1.39,1.24,1.64,1.93,1.64,2.76,.38,.83-1.13,.55-1.39-.83-.63-1.52,.76-1.65,.63-.14-.76,1.38-1.39,2.07-1.13,4,1.39l2.34,3.03,1.79-3.78c.83-2.02,1.65-3.03,1.79-2.14,0,.76,.41,2.52,.83,3.78,.03,.08,.05,.13,.07,.2,.55-.29,1.14-.52,1.75-.64,.52-2.35,1.33-2.64,3.83-2.33,1.93,.13,4,1.13,4.82,2.02,.96,1.39,1.1,1.13,.83-.76-.28-1.64,.28-2.4,1.52-2.14,1.24,.25,1.65-.5,1.1-2.14-.41-1.64,.41-2.9,2.62-4.03,1.79-.88,3.31-2.14,3.31-2.9s-.69-.63-1.65,.25c-2.62,2.4-4.14,1.77-2.34-1.13,.83-1.51,.96-2.4,.14-1.89-1.24,.63-3.03-8.45-3.03-15.51,0-3.66,1.24-2.9,2.07,1.26,1.65,7.94,9.92,13.11,20.95,13.11,6.06,0,7.86-.5,11.03-3.53,3.17-2.9,3.86-4.54,3.86-9.71s-.69-6.81-4.41-10.34c-3.72-3.4-5.65-4.03-12.82-4.54-8.41-.5-15.85,1.39-14.33,3.78,.41,.5-.14,1.01-1.38,1.01-1.1,0-2.34,.76-2.62,1.51-.41,.88-.83-.13-.83-2.14-.14-2.14,.83-5.42,1.93-7.44,2.89-4.92,2.48-5.8-.96-2.02l-2.89,3.15,1.1-3.15c.55-1.77,2.07-3.91,3.31-4.79,1.24-1.01,1.52-1.39,.69-1.01-.96,.38-1.93-.13-2.48-1.13-.41-1.13,0-1.89,1.24-1.89,1.1,0,2.07-.5,2.07-1.26,0-.63-.83-.88-1.79-.5-1.1,.38-1.79-.76-2.07-3.53-.14-2.27-.55-6.68-.96-9.83-.41-4.79-.28-5.17,.96-2.52,2.62,5.8,3.31,6.81,7.03,9.33,2.34,1.64,6.62,2.65,11.72,3.03,7.44,.5,8.41,.25,12.82-3.4,4.14-3.53,4.69-4.67,4.69-10.09,0-7.19-3.58-11.73-11.16-14-9.92-3.03-19.16-.38-24.26,6.93-2.48,3.4-2.62,3.53-1.79,.63,.41-1.77,1.1-4.92,1.52-6.93,.41-2.14,1.38-4.03,2.07-4.16,.69-.25,.96-1.01,.41-1.64-.47-.71,.99-.9,2.6-.68-.25-.58-.39-1.2-.4-1.83,0,0,0,0,0,0,0-.5-1.38-.63-3.03-.25-2.48,.5-2.76,.25-1.1-.76,1.65-1.13,1.65-1.39-.41-2.14-1.24-.38-2.34-2.02-2.34-3.4q0-2.52-1.93-.25c-1.52,1.89-2.34,2.14-3.86,.88-1.52-1.13-2.34-1.13-3.58,0-2.34,2.14-3.45,.38-1.65-2.77,1.52-2.52,1.38-2.65-1.65-1.89-1.65,.5-3.72,1.51-4.55,2.27-.96,.88-.55,1.01,1.1,.5,2.21-.76,3.17,.38,1.52,2.02-1.24,1.13-4.69-.5-4.69-2.27,0-1.01,1.65-2.9,3.58-4.29,.16-.12,.31-.22,.45-.33-1.34,.07-2.46,.31-3.22,.77-.15,.43-.57,1.03-1.23,1.7-.04,.04-.08,.08-.12,.12-.32,.54-.7,1.02-1.12,1.45-.39,.73-.46,1.36-.13,1.59,.41,.5,.28,1.01-.41,1.01-5.79,.76-8.27,.63-8.96-.5-.55-.63-2.07-.88-3.45-.25-1.52,.5-6.89,1.13-12.27,1.39-5.14,.25-11.74,.62-14.59,.99-.27,1.32-.51,2.66-.66,4,.34-.21,.7-.37,1.05-.45,1.65-.25,2.34,1.26,3.17,7.19,.55,4.16,.41,10.09-.14,12.99-.55,3.03-.96,5.93-.83,6.43,.14,.5,.28,14.63,.28,31.39,0,27.36-.55,35.05-2.34,30.26-.41-.76-1.1-1.26-1.65-.88-.69,.25-.69-1.64-.14-4.41,.55-3.03,.41-5.04-.28-5.04-.83,0-1.1-1.26-.69-2.9,.96-4.03-5.79-14.88-11.03-17.65-6.75-3.53-15.3-3.78-20.12-.63-4.41,2.9-10.75,14.12-6.62,11.85,1.52-.88,.14,5.67-1.52,7.69-.11,.11-.2,.25-.28,.4Zm125.3-17.68c1.93,0,5.38,.88,7.58,1.89,4.41,2.14,5.93,5.55,5.24,11.98-.41,4.41-4.69,8.2-10.75,9.46-3.72,.76-14.61-4.29-11.3-5.3,.83-.38,1.65-1.51,1.52-2.65,0-1.39-.28-1.51-.83-.5-1.1,2.65-3.17,.38-3.17-3.66,0-4.92,6.62-11.22,11.72-11.22Zm-16.13,7.82c.69-1.13,1.1-2.77,.69-3.53-.28-.76,.96-2.02,2.62-2.77,4.41-1.89,4.55-1.77,2.21,.63-1.24,1.26-2.62,3.53-3.03,5.04-.55,1.64-1.65,2.9-2.34,2.9-.83,0-.83-.88-.14-2.27Zm.14,3.53c.69,0,1.52,1.13,1.93,2.65,.55,2.02,.41,2.27-1.24,1.01-2.21-1.64-2.62-3.66-.69-3.66Zm6.2-59.13c1.52-.13,2.34,.25,1.79,.63-.41,.38-1.65,.5-2.62,.13-1.1-.38-.69-.76,.83-.76Zm2.07,3.66c5.38-5.04,12.68-5.17,17.37-.5,1.93,1.89,3.45,4.03,3.58,4.79,.96,8.57-3.58,14.63-11.3,15.26-5.1,.38-10.34-2.14-8.82-4.29,.55-.88-.14-1.01-1.65-.5-2.21,.76-2.21,.63-.55-1.26,1.52-1.77,2.34-1.89,3.86-.76,2.62,2.14,4.55,.13,5.24-5.93,.69-5.17,.14-4.66-1.24,1.01-1.1,4.29-4.96,4.79-4.96,.63,0-2.27,.28-2.4,1.38-.88,.69,1.01,1.38,1.64,1.52,1.26,0-.38,.28-1.89,.69-3.53,.41-2.52,.28-2.65-2.21-1.26-1.38,.88-2.76,2.9-3.03,4.66-.69,4.79-3.31,4.41-3.58-.5-.28-3.53,.55-5.3,3.72-8.2Zm-7.72,.88c.55,.25,.96-.13,.96-.88s.69-1.01,1.38-.63c.96,.5,.96,1.51,0,3.15-1.79,3.03-1.79,8.32,.14,11.73q1.38,2.65-.69,.38c-1.24-1.39-2.34-3.53-2.34-4.79-.55-7.19-.41-9.58,.55-8.95Zm-25.22,83.59c-.69,0-1.38-.63-1.38-1.26,0-.76,.69-1.26,1.38-1.26,.83,0,1.38,.5,1.38,1.26,0,.63-.55,1.26-1.38,1.26Zm-35.84-102.13l26.19,.25,26.33,.38-.14,47.79c0,26.35-.28,48.04-.41,48.16-.41,.38-26.19,.76-42.59,.63l-9.37-.13v-97.08Zm-32.39,83.59c-3.17-1.39-4.69-2.77-4.27-4.03,.41-1.13,1.24-3.78,1.79-5.8l1.1-3.78,.41,3.78c.28,2.02,1.1,4.54,1.93,5.3,.83,1.01,2.76,1.26,5.1,.76,3.31-.76,3.45-.76,1.1,1.39-1.24,1.26-2.34,2.77-2.34,3.4s-2.21,.13-4.82-1.01Zm2.07-7.94c.55,0,1.52-1.64,2.07-3.66,.55-2.52,1.52-3.53,2.89-3.03,1.1,.38,1.93,1.13,1.93,1.77s-.96,1.51-2.07,1.89c-1.1,.5-2.07,2.14-2.07,3.78,0,3.4-2.07,4.03-3.31,1.13-.41-1.01-.14-1.89,.55-1.89Zm-8.55-14.25c2.21-2.27,4.41-2.27,13.37-.25,4.69,1.01,8.96,3.4,8.96,4.92,0,1.26-.83,1.64-2.34,1.13-2.07-.63-2.21-.38-.83,.88,1.38,1.39,2.07,1.39,3.86,0,1.65-1.26,2.07-1.26,2.07,.13,0,1.01-.69,2.65-1.38,3.66-1.24,1.64-1.38,1.64-1.52,0,0-1.01-.96,.13-1.93,2.52-2.62,6.18-2.48,7.56,.41,6.68,1.79-.5,1.79-.25-.41,1.13-4.27,2.77-7.99,3.78-7.17,2.02,.28-.88,1.38-1.51,2.21-1.39,2.21,.5,1.93-2.77-.55-4.67-1.1-.88-2.07-2.27-2.07-3.03s.55-.63,1.24,.38c.83,1.26,1.52,.63,2.21-2.27,.69-3.15,.41-4.54-1.65-5.8-3.45-2.4-3.86-2.27-4.14,.76-.14,1.51-.96,3.4-1.93,4.16-1.24,1.01-1.52,.76-.96-1.13s-.14-2.52-2.48-2.65c-1.79-.13-2.89,.38-2.48,1.26,.28,.76,0,3.03-.55,5.17l-1.1,3.78-.96-4.16c-1.1-4.79,1.65-10.84,5.38-12.1,1.24-.5,1.93-1.13,1.52-1.51-1.38-1.39-6.06,1.89-7.72,5.42-2.48,5.67-2.62,9.58-.41,12.99l1.93,3.15-2.89-3.03c-4.55-4.67-3.58-11.85,2.34-18.16Z"/>
  <path d="M331.72,206.56c.17-2.78,.17-4.03-.03-4.31-.1,1.45-.1,2.89,.03,4.31Z"/>
  <path d="M354.67,207.3c-6.06,2.65-10.2,9.96-8.96,15.26,2.89,12.23,20.4,18.41,31.7,11.35,2.62-1.64,4.82-3.53,4.82-4.16s-.96-.38-2.07,.5c-1.38,1.13-2.07,1.13-2.07,.13,0-.76-.69-1.39-1.52-1.39-1.1,0-1.1,.5,0,1.77,4.27,4.67-13.37,6.43-19.57,2.02-11.3-8.2-5.24-25.22,8.96-25.22,6.34,0,11.3,2.02,9.92,4.03-.55,.76-.41,1.01,.55,.5,.83-.38,2.76,.76,4.27,2.52,1.65,1.89,2.89,2.9,2.89,2.4,0-3.28-7.31-9.2-12.96-10.59-8.27-1.89-10.34-1.77-15.99,.88Z"/>
  <path d="M361.7,212.22c-.14,.88-1.38,2.77-2.89,4.16-1.65,1.51-2.76,4.03-2.62,6.56q.14,4.16,1.38-.88c1.79-6.93,6.75-9.83,5.65-3.28-.41,2.52,.14,3.78,1.79,4.41,3.03,1.01,4.82-.13,4.69-2.77-.14-1.89-.28-1.89-.83,0-.28,1.26-1.24,2.27-2.07,2.27s-1.1-1.13-.69-2.52,.14-2.14-.55-1.77c-.83,.38-1.1-.76-.69-2.52,.41-1.89,.14-3.03-.55-2.65-.55,.38-1.52-.13-1.79-.88-.55-1.26-.83-1.26-.83-.13Z"/>
  <path d="M368.45,216.38c0,.63,.96,.88,2.07,.5,1.1-.5,2.07-1.01,2.07-1.26s-.96-.5-2.07-.5-2.07,.5-2.07,1.26Z"/>
  <path d="M374.79,216.25c-.55,.63,.41,.88,1.93,.5,3.17-.76,3.58-1.64,.83-1.64-1.1,0-2.34,.5-2.76,1.13Z"/>
  <path d="M359.63,220.92c-.55,1.77-.69,3.53-.41,3.91,.41,.25,1.1-1.01,1.52-2.9,.55-1.77,.69-3.53,.41-3.91-.41-.25-1.1,1.01-1.52,2.9Z"/>
  <path d="M375.48,221.55c-1.79,4.92-1.93,7.19-.28,5.42,1.24-1.13,3.17-9.33,2.34-9.33-.28,0-1.24,1.77-2.07,3.91Z"/>
  <path d="M383.89,221.42c0,1.77,.28,2.4,.69,1.51,.28-.76,.28-2.27,0-3.15-.41-.76-.69-.13-.69,1.64Z"/>
  <path d="M379.2,224.58c-.41,1.77-.28,3.15,.28,3.15s1.38-1.39,1.65-3.15c.41-1.77,.28-3.15-.28-3.15s-1.38,1.39-1.65,3.15Z"/>
  <path d="M369.83,225.33c0,.63,.69,.88,1.38,.5,.83-.38,1.38-1.01,1.38-1.39,0-.25-.55-.5-1.38-.5-.69,0-1.38,.63-1.38,1.39Z"/>
  <path d="M355.08,256.1c-5.1,2.02-10.06,8.57-10.06,13.24,0,4.41,4.69,10.97,9.92,13.74,5.65,3.28,14.06,4.54,17.23,2.65q2.21-1.26-.55-.63c-4.41,1.13-13.23-1.39-16.82-4.79-6.2-6.05-4.69-16.64,2.89-21.56,7.17-4.67,20.12-.63,23.85,7.19,1.1,2.14,1.93,3.15,2.07,2.02,.14-5.3-12.41-13.74-20.26-13.74-2.07,.13-5.93,.88-8.27,1.89Z"/>
  <path d="M356.05,268.83c-.83,1.77-1.38,4.41-1.24,5.93,.14,1.64,.69,.76,1.52-2.27,.83-2.77,2.21-5.42,3.03-5.93,1.1-.63,.96-1.01-.28-1.01-.96,0-2.34,1.51-3.03,3.28Z"/>
  <path d="M365,268.96c-.69,2.52-1.24,2.9-2.07,1.77-.69-1.13-1.1-.13-1.1,2.77,0,3.66,.41,4.29,1.65,3.03,.96-.88,2.21-3.66,2.76-6.3,1.1-5.42,.28-6.3-1.24-1.26Z"/>
  <path d="M370.79,268.2c-1.38,1.39-2.21,3.4-1.79,4.41s.28,1.64-.41,1.26-1.52,.38-1.93,1.64c-.41,1.89,0,2.4,1.93,2.27,1.65-.13,2.62-1.13,2.62-2.77,0-4.54,1.65-8.2,3.58-8.2,2.21,0,2.62,3.4,.55,4.03-.83,.25-.96,1.89-.28,4.03,.96,3.28,1.1,3.15,2.48-2.9s1.24-6.43-1.52-6.43c-1.52,0-4,1.13-5.24,2.65Z"/>
  <path d="M359.08,270.6c0,1.77,.28,2.4,.69,1.51,.28-.76,.28-2.27,0-3.15-.41-.76-.69-.13-.69,1.64Z"/>
  <path d="M383.75,272.61c0,1.39,.41,1.77,.83,.76,.41-.88,.28-2.02-.14-2.4-.41-.5-.83,.25-.69,1.64Z"/>
  <path d="M379.48,274.25c0,1.39-1.1,3.53-2.34,4.67-2.34,2.14-2.34,2.27,0,1.39,1.24-.38,2.34-.25,2.34,.38s-1.1,1.77-2.34,2.4c-1.38,.76-1.79,1.39-.96,1.39s2.48-1.01,3.72-2.27c2.62-2.52,3.17-4.67,.96-3.4-.83,.5-.96-.76-.55-3.15,.55-2.02,.55-3.78,0-3.78-.41,0-.83,1.13-.83,2.4Z"/>
  <path d="M388.71,192.05c-.55,.38-.96,1.39-.96,2.14s.69,.63,1.65-.25c.83-.76,1.24-1.77,.96-2.14-.41-.38-1.24-.25-1.65,.25Z"/>
  <path d="M136.95,261.12c1.04,.11,1.97,.71,1.98,1.44,0,.61-.69,.85-1.39,.37-1.05-.72-1.04-.36,0,1.09,.93,1.08,1.29,2.53,.83,3.26-.34,.61-.11,1.21,.47,1.21,.69,0,1.28,.6,1.28,1.32,0,.73-.8,1.1-1.73,.62-1.51-.47-1.62-.23-.57,1.7,.7,1.33,1.52,2.41,1.87,2.41,.35,0,.23-.49-.12-1.21-.35-.6,0-.85,.92-.49,1.86,.71,1.42,4.83-.66,6.18-.01,0-.02,0-.03,.01-.01,.4-.06,.79-.15,1.17,.04,.06,.08,.13,.12,.19,.46-.09,.89-.16,1.23-.17,.81,0,1.15-.37,.92-.85-.23-.36,.11-1.45,.68-2.43,.8-1.46,.92-1.22,.7,.84-.22,1.45-.67,3.15-1.14,3.52-.26,.27-.47,.69-.61,1.14,.3,.28,.62,.53,.96,.76,1.35-1.34,5.63,.39,6.63,2.89,.35,1.09,1.99,3.38,3.62,5.18,1.63,1.68,2.56,2.28,2.09,1.32-.47-.97-.12-.85,.81,.36,2.1,2.53,10.12,7.31,10.92,6.34,.35-.24,2.78,.22,5.33,1.29,4.18,1.54,6.5,2.26,8.93,2.6,.11,.04,.12,.12,.07,.24,.45-.13,.9-.2,1.35-.21,.01-.13,.04-.26,.08-.41,.45-1.33-.82-2.17-5.34-3.11-13.1-2.69-23.21-9.65-29.99-20.49-3.16-5.18-6.82-16.42-6.96-21.26,0-1.21,5.08-1.61,21.4-1.72l21.41-.15,.14,21.67c.11,17.28,.45,23.65,1.59,24.81,.49-.49,.9-1.07,1.25-1.71h-.37s-.15-23.73-.15-23.73c-.07-10.85,.12-19.89,.52-22.41-.13-.18-.26-.38-.38-.58,.3,.52-.76-.27-.95-.27-.43,0-.85-.09-1.27-.21l-43.21,.3v-.44c-.17,.14-.33,.27-.5,.39,.96,1.01,.49,2.47-1.22,2.48-2.08,.01-2.3,2.44-.22,2.54,.69,0,.35,.48-.92,1.1-1.96,.86-1.96,1.1-.22,1.09Z"/>
  <path d="M42.78,287.9c1.12,.69,1.37,3.06,.82,4.75,.58,.04,1.16,.15,1.73,.34,.02-.03,.05-.06,.07-.09,1.99-2.2,2.11-2.2,2.28,.07,.03,1.26,.39,1.64,.73,.74,.56-1.91,3.91-2.37,3.95-.6,.02,1.14,4.62,2.93,6.53,2.63,.6-.14,.73,.62,.4,1.76-.12,.34-.18,.62-.21,.86,.6,.12,1.16,.26,1.68,.44,.29-.22,.6-.48,.94-.85,.82-.9,1.43-.54,1.94,1.22,.12,.46,.14,.89,.11,1.27,.43,.31,.86,.65,1.33,1.03,.07,.06,.13,.13,.19,.19,.17-.55,.44-1.1,.79-1.54,1.39-2.18,1.63-2.19,4.08-.09,.87,.82,1.43,1.5,1.7,2.15,.37-.02,.72-.03,1.03-.05,.46-.02,.93-.06,1.39-.1,0-.07-.01-.13,0-.2-.03-1.69,.19-1.64,.98,.11,.51-.05,1.02-.09,1.53-.12,.12-.15,.26-.16,.41-.02,1.22-.06,2.45-.03,3.69,.24,.07,.02,.15,.05,.22,.07,.27-.04,.55-.07,.85-.08,1.68-.04,3,.18,3.01,.44,0,.29-.27,.69-.71,1.12,.7,.36,1.4,.66,2.08,.75,.03-.67,.23-.63,.58,.08,.64,.08,1.28,.27,1.89,.56,.19-.17,.4-.35,.63-.59,1.05-1.29,3.2-1.84,5.84-1.65,1.47,.2,2.71,.12,3.45-.18-1.1-3.87-.08-7.93,1.63-11.53-.02-.32-.02-.65-.04-.97-.89,.84-1.44,2.2-1.85,4.39l-.86,4.7-.84-5.67c-.84-6.05-.28-13.4,.75-10.14,.65,2.06,1.62,3.45,2.69,4-.01-.65,0-1.3,0-1.95-.23-1.98-.44-6.36-.91-15.12-.58-10.61-.71-11.24-4.51-14.95-2.93-2.72-3.56-4.09-2.5-4.75,.18-.11,.33-.28,.45-.47-.37-1.19-.46-2.51-.31-3.73,.17-1.34,.03-2.81-.26-4.34-.04,.18-.05,.44-.05,.83,.03,1.26-.45,1.4-1.55,.42-1.1-.99-1.45-.6-1.4,1.68,.03,1.64,.3,2.9,.66,2.77,1.78-.67,.77,2.39-1.01,3.19-2.38,.94-5.89-.75-4.6-2.3,.59-.52,1.44-.16,2.06,.84,.99,1.62,1.23,1.49,1.19-.28-.03-1.26-.65-2.26-1.37-2.25-.96,.02-.97-.61,.08-1.9,.82-1.03,1.04-1.92,.56-1.91-.48,.01-.14-1.01,.67-2.17,1.52-2.06,1.39-2.18-.37-.5-1.18,.91-1.88,2.07-1.63,2.57,.25,.37-.79,2.55-2.42,4.61-1.87,2.45-3.17,3.36-3.55,2.36-.26-.88-2.31-1.72-4.35-1.67-2.4-.07-3-.31-1.45-.73,9.19-2.36,12.34-6.36,12.74-16.23,.02-.37,.04-.74,.06-1.11-1.92-1.07-3.38-3.16-3.4-5.51,0-.01,0-.02,0-.04-1.07-.89-2.47-1.93-3.93-2.91-5.84-4.04-11.85-4.66-15.74-1.53-1.42,1.04-2.85,1.58-3.33,1.34-.37-.37-.48-.24-.11,.26,.37,.37-.09,1.65-.9,2.8-.7,1.03,.13,.63,2.02-.93,2.12-1.69,5.1-2.9,7.73-2.96,4.67-.11,10.25,2.93,9.22,4.97-.47,.64-.22,1.14,.38,1.13s1.46,1.1,1.85,2.49c.39,1.51,.17,2.27-.56,1.78-.85-.61-1.07,.28-.43,2.54,.53,2.26,.43,3.15-.42,2.67-.61-.37-1.37-2.62-1.42-4.77l-.2-4.04-.76,3.81c-.55,2.54-.27,4.18,.82,4.79,.85,.49,1.59,1.48,1.61,2.24,.01,.63-1.07,.53-2.41-.32-1.94-1.22-2.66-1.2-3.83,.21-1.29,1.29-1.05,1.54,.87,1.24,1.31-.28,3-.07,3.85,.42,2.55,1.59,5.41-4.93,4.58-10.35-.56-3.91-.57-4.16,.56-1.91,2.13,4.25,.35,11.25-3.42,14.37-3.9,3-6.52,3.69-2.98,.7,2-1.69,1.64-1.81-3.86-.92-3.71,.46-7.07,.29-8.65-.56-2.79-1.45-3.68-3.84-1.4-3.89,.6-.01,.85,.61,.51,1.25-.46,.77,.75,1.25,2.54,1.21,3.24-.07,3.23-.2,.92-1.92-1.22-.98-3.52-1.82-4.83-1.79-2.64,.06-5.02-4.94-3.63-7.51,.46-.77,.09-1.27-.75-1.25-.84,.02-1.21-.35-.73-.74,.35-.39,.07-2.4-.69-4.41-1.02-2.76-.93-4.28,.24-5.82s1.16-1.92,.1-1.14c-.71,.52-1.43,.41-1.44-.09-.01-.63-1.23-1.62-2.8-2.21-1.57-.72-2.69-2.34-2.72-3.98-.03-1.39-.54-3.15-1.16-3.77-.02-.02-.04-.02-.05-.03-.09,.07-.17,.16-.27,.22-.29,.8-.24,3.56,.12,7.4,2,21.33,18.8,39.28,38.75,41.35l6.13,.62,.96,46.27-4.57-.53c-19.59-2.21-32.04-6.6-45.79-16.15-4.99-3.43-11.58-9.09-14.53-12.57-12.04-13.64-21.33-34.04-22.73-49.57-.45-4.54-1.27-9.08-1.89-10.33-.87-1.5-.64-1.88,1.05-1.54,1.39,.38,1.87-.07,1.94-2.85-2.38,.22-4.2,.54-5.51,1.76,.06,.13,.12,.26,.2,.4,1.62,3.12,1.79,11.34,.12,11.38-.6,.01-.97-.48-.5-1.13,.31-.69-.17-1.57-1.07-2.18,.12,.45,.22,.92,.27,1.43,.14,1.23,.37,2.45,.54,3.68,.03,0,.05,0,.08,0,2.51-.44,3.35-.33,2.17,.46-1.3,1.04-1.29,1.29,.04,1.9,1.33,.48,1.33,.73,.14,.76-1.08,.15-1.18,.79-.31,2.54,.75,1.25,.89,2.64,.54,3.15-.35,.39-.22,.76,.5,.75,.72-.02,1.12,2,.82,4.66-.28,3.93-.15,4.3,1.38,3,1.41-1.3,1.79-.67,2.59,3.61,.54,2.77,1.54,5.02,2.26,5.01,.96-.02,1.09,.35,.14,1.01-.71,.52-1.64,2.06-2.09,3.46-.09,.3-.19,.55-.29,.76,.54,.54,.96,1.17,1.25,1.87,.14,0,.27-.01,.42,0,2.16-.05,2.39-.43,1.39-2.31-.63-1.25-.89-2.26-.65-2.26,1.44-.03,4.35,7.49,3.79,9.27-.34,1.15-.2,2.03,.52,2.01,.72-.02,1.54-.79,1.77-1.56,.46-1.15,.7-1.03,.72,.24,.16,2.02-4.29,7.06-6.21,7.1-.6,.01-1.53,1.55-1.96,3.59-.29,1.22-.33,2.11-.08,2.7,.76,.18,1.48,.51,2.13,.96,.56,0,1.19-.07,1.98-.22,.84-.15,1.54,4.64,1.52,9.58-.1,.89,.39,1.26,.98,.99,.47-.39,1.57,.34,2.19,1.72,.36,.66,1.31,1.45,2.56,2.21,.68,.11,1.34,.34,1.92,.73,.43,.29,.86,.57,1.28,.85,.54,.22,1.09,.42,1.64,.6,4.95,1.66,6.75,1.62,10.32,.39,2.26-.94,4.51-2.38,4.85-3.4,.34-1.02,1.05-1.42,1.66-1.05Zm53.65-21.35c.6,.24,.92,3.77,1,7.69,.04,7.84-.58,6.72-1.37-2.5-.31-3.16-.12-5.56,.37-5.19Zm-24.65-20.56c-.72,.02-1.2-.23-1.21-.48,0-.38,.46-1.02,1.17-1.42,.59-.39,1.2-.15,1.21,.48,.02,.76-.57,1.4-1.17,1.42Zm-54.43,35.53c-2-3.75-1.56-5.91,.65-3.18,1.73,2.24,1.85,2.23,.47-.52-.75-1.63-1.15-3.64-.93-4.53,.79-2.3-1.07-5.29-2.11-3.37-.46,.77-.33,1.4,.39,1.38,.72-.02,.97,.74,.64,1.76-.68,1.91-5.25,1.39-5.29-.64-.01-.63,.7-.78,1.43-.29,.97,.61,.84-.02-.27-1.39-.99-1.24-1.24-2-.39-1.51,.85,.49,2.75-.57,4.38-2.63,2.46-2.84,3.29-3.24,4.52-2,1.22,1.24,1.24,1.87-.18,2.79-.95,.65-2.14,.81-2.63,.57-.49-.37-.59,.27-.21,1.27,.64,1.76,1,1.75,3.48-.08,2.48-1.83,2.72-1.83,2.52-.06-.1,1.14-.67,2.42-1.26,2.94-.47,.52-.59,.27-.13-.5,1.15-2.3-1.12-2-2.87,.32-.82,1.03-.92,1.92-.32,1.9,.6-.01,1.25,2.25,1.42,5.03,.35,5.43-1.18,6.6-3.3,2.73Zm9.76,7.87c-2.29-.45-5.07-1.65-6.05-2.64-.98-1.12-1.11-1.62-.38-1.13,1.09,.61,1.55-.42,1.48-3.7-.1-4.93,1.6-9.52,3.52-9.57,.6-.01,.39,1.64-.64,3.81-2.18,4.6-2.17,5.24-.03,4.3,.95-.4,1.53-1.43,1.15-2.3-.38-.88,.31-2.41,1.37-3.45,1.88-1.69,2.01-1.56,1.35,1.36-.44,1.78-.76,4.06-.73,5.33,.03,1.52-.68,1.91-2.73,1.45-1.93-.34-2.16-.2-1.07,.66,.97,.61,1.59,1.61,1.49,2.24-.11,.63,.51,1.25,1.47,1.48,1.33,.35,1.32,.22-.02-.76-1.34-.85-1.34-1.23,.2-1.9,1.07-.53,1.87-2.19,1.84-3.96-.04-1.77,.41-3.42,1-3.82,1.18-.91,2.56,2.09,2.51,5.25-.09,1.27-.46,.9-1.1-.99-.9-2.76-1.02-2.89-1.09-.48-.09,1.52,.91,3.52,2.01,4.38,1.34,1.23,1.7,1.23,1.08,.23-.5-1-.27-1.64,.45-1.65,.72-.02,.94-.78,.45-1.53-.63-1.25-.51-1.25,.72-.14,1.35,1.36,1.12,2.12-1.22,4.96-2.34,2.71-3.41,3.11-7.02,2.56Zm12.18-2.68c-.85-.49-1.44-.09-1.41,1.17,.02,1.14-.57,1.66-1.17,1.29-.73-.36-1.2-.1-1.18,.79,.02,.88-.34,1.15-.83,.65-.49-.37,.2-2.03,1.61-3.45,1.76-2.06,2.59-2.34,3.34-1.09,.62,1,.51,1.25-.35,.64Z"/>
  <path d="M44.27,206.4c-.3,0-.59,0-.89-.01-.33,.48-.79,.65-1.44,.71-1.2,.15-2.16-.2-2.18-.96,0-.06,.01-.11,.02-.17-.54-.13-1.06-.28-1.58-.48-.23,.35-.29,.72-.12,1.06,.5,.75-.1,1.01-1.67,.54-5.55-1.77-7.47-1.6-8.63,.45-.69,1.41-1.05,1.54-1.19,.53-.02-1.14-.87-1.37-2.42-.83-1.43,.54-2.39,.31-2.41-.58-.02-.76-.62-1-1.57-.47-.54,.43-.67,.29-.41-.24-1.47,.22-2.93,.44-4.4,.63-.32,.85-1.31,1-3.08,.93-2.4-.07-3.71,.46-3.68,1.6,.03,1.26,3.87,1.56,18.61,1.22l18.58-.43-.08-3.77c-.48,.15-.97,.25-1.49,.26Z"/>
  <path d="M273.25,269.08c-1.19,.83-2.07,2.07-1.96,2.58,.22,.52-.22,.93-.87,.93s-.87-.93-.43-2.07c.44-1.35,.22-2.07-.75-2.18-1.08,0-1.08-.21-.11-.62,.76-.21,1.41-.93,1.41-1.45,0-.62-.43-.83-.87-.52-.54,.31-.98-.11-.97-.93,0-2.28,1.63-1.86,2.38,.52,.32,1.14,1.51,2.07,2.49,2.08,.27,.02,.47,.04,.64,.07-.09-.38-.18-.75-.28-1.13-1.14-.08-1.18-.38-.35-.91,.04-.02,.06-.04,.09-.06-.11-.42-.22-.84-.34-1.25-.15-.05-.32-.09-.51-.14-1.63-.42-2.06-1.04-1.62-2.28,.44-1.03,.11-2.17-.75-2.69-.87-.42-1.51-1.35-1.51-1.87,0-1.55-4.11-4.77-5.95-4.78-.87,0-2.17,.41-2.82,.72-.65,.41-1.52,.41-1.95,.1-1.08-1.14-3.9-1.25-3.9-.22,0,.52-.54,.93-1.2,.93-.54,0-.76-.52-.32-1.24,.44-.62,.33-.83-.43-.42-2.5,1.44-2.17-1.35,.33-2.9,5.32-3.3,7.95-12.1,5.25-17.39-.76-1.45-2.59-3.63-4.11-4.77-1.71-1.31-2.19-1.91-1.68-2.36-1-.13-2-.24-3-.33-.62,.17-1.34,.31-2.15,.4-6.18,.92-10.2,3.91-12.06,9.19-1.97,5.9-.79,11.08,3.33,14.82,2.6,2.28,4.22,3.01,6.93,2.71,2.06-.1,4.23,.32,4.99,1.05q1.41,1.35-5.32,1.54c-2.39,.1-4.23-.11-3.9-.63,.22-.41-.32-.73-1.41-.73-.98,0-2.49-.83-3.36-1.87q-1.41-1.56-.44,.52c.65,1.24,1.73,2.49,2.49,2.7,.87,.42,.76,.62-.44,.62-.98,.1-2.49-.63-3.47-1.46-1.95-1.97-3.25-1.98-2.49-.21,.32,.93-.44,1.45-2.5,1.44-2.6,0-2.93-.32-2.16-2.18,.55-1.45,1.63-2.07,3.15-1.96,1.95,.21,2.17,0,1.3-1.45-.54-.93-.54-2.69-.1-3.94,.66-1.76,.44-2.17-1.19-2.28-1.41-.11-1.84,.2-1.3,1.03,1.3,1.97,1.07,4.87-.34,4.87-.65,0-1.96,1.55-2.61,3.31l-1.31,3.41-.97-2.59c-.86-2.49-.86-2.38-.54,.41,.53,3.73-.34,6.01-1.75,5.17-.54-.31-.33,.72,.64,2.38,1.19,2.28,1.29,4.04,.63,7.04-.66,2.79-.55,4.56,.31,5.59,.97,1.24,.97,1.35,0,.72-.97-.52-1.19-.21-.65,1.03,.54,1.35,.32,1.66-1.09,1.14-.98-.31-1.84-.21-1.84,.31,0,.62,.76,1.04,1.62,1.04,1.19,0,1.62,.94,1.4,2.9-.11,1.55,.1,3.31,.42,3.94,.43,.52,.32,1.66-.22,2.48-.58,.94-1.1,1.16-2.3,.67,.11,.46,.22,.92,.33,1.38,1.3,0,2.08,1.99,2.6,6.23,.43,3.42,1.07,6.42,1.39,6.73,1.3,.73,9.87-.7,9.22-1.64-.65-1.04,4.78-2.47,5.86-1.54,.32,.41-.44,.93-1.74,1.34-2.82,.61-3.04,1.65-.77,3.42,1.41,1.14,1.52,1.04,.98-.31-.54-1.45,.44-1.66,6.51-1.44,3.9,.11,7.16-.09,7.16-.4s1.3-.51,2.93-.41c1.73,.11,2.17,0,1.09-.2-3.25-.84-1.95-2.18,1.96-2.07,2.93,.11,3.47,.42,2.49,1.46-.87,1.03-.65,1.34,1.19,1.35,1.19,0,2.28-.41,2.28-.82,0-.52,1.42-2.38,3.16-4.24,1.74-1.86,2.94-4.03,2.72-4.65-.32-.73,.22-1.35,1.09-1.34,1.01,0,1.22,.33,.55,1.85,.54-.78,1.07-1.57,1.55-2.38,.15-.25,.28-.51,.42-.76-.1-.03-.22-.04-.36-.04-1.74,0-2.06-2.18-.42-3.94,.76-.83,.76-.93-.11-.31-1.96,1.55-4.56,.2-3.03-1.56,.65-.83,.98-2.07,.66-2.9-.32-.73,0-1.97,.66-2.59,.87-.83,.76-1.14-.43-1.14-.98,0-1.73-.73-1.73-1.56s.44-1.24,.87-1.03c.97,.62,3.26-2.06,2.39-2.89-.32-.41,0-.72,.87-.72,.55,0,1.27-.37,1.92-.93-.11-.47-.23-.94-.34-1.41-.24,.22-.61,.5-1.14,.89Zm-33.56-25.55c.32,.52,.43,1.04,.11,1.04s-1.3-1.25-2.16-2.9c-2.05-3.42-2.26-7.88-.42-6.84,.87,.52,.98,.21,.54-.93-.43-1.14,.33-2.8,1.96-4.45l2.72-2.79v4.45c-.02,3.52-.35,4.25-1.76,3.72-1.3-.52-1.63,0-1.31,2.17,.21,2.28,.97,2.9,3.25,3.11,1.63,.11,4.66,.63,6.72,1.26,3.36,.84,4.12,.73,4.99-.92,2.4-4.34-.51-12.74-4.2-11.61-.87,.31-1.19,0-.76-.62,.44-.72-.54-.93-2.6-.63-1.84,.31-3.25,.1-3.25-.53,0-1.55,6.84-1.43,8.89,.12,5.63,4.47,6.59,10.47,2.46,15.12-2.07,2.38-3.59,3.1-6.95,3.09-2.49,0-4.88-.53-5.64-1.46-1.41-1.66-3.68-1.98-2.6-.42Zm6.73-3.82c-1.63-.31-2.93-1.04-2.92-1.56,0-.62,.76-.83,1.63-.41,.87,.31,1.63,.11,1.63-.41,0-.62,.87-1.03,1.85-1.03,1.63,0,1.74-.2,.33-1.03s-1.41-1.04,.22-1.04c.98,0,2.06,.52,2.27,1.04,.32,.62,.43,.52,.33-.21-.11-.73-2.06-1.77-4.22-2.29-4.34-1.05-5.31-3.22-1.83-4.04,1.19-.31,2.17-.1,2.17,.32,0,.52,1.08,1.04,2.27,1.25,3.69,.53,4.65,4.46,1.72,7.46-1.85,1.96-3.04,2.48-5.43,1.96Zm6.84-1.33c.54,0,1.08,.21,1.08,.42,0,.31-.54,.83-1.09,1.14-.65,.31-1.08,.1-1.08-.42,0-.62,.44-1.14,1.09-1.14Zm-11.82,.08c-.97-1.45,2.07-5.28,4.24-5.27,1.95,0,1.08,2.28-1.09,2.79-1.19,.31-2.17,1.34-2.17,2.27,0,1.35-.22,1.35-.98,.2Zm1.93,9.64c-1.41-.73-3.03-1.04-3.58-.73-.54,.41-.65,.1-.22-.52,.54-.93,1.41-.93,3.04-.1,1.19,.62,3.79,.94,5.75,.74,4.12-.4,4.12,.73,.1,1.45-1.41,.31-3.69-.11-5.1-.84Zm6.27,50.24c1.19,.62,.97,.93-.55,1.34-1.3,.31-2.17,0-2.17-.83s.33-1.45,.65-1.45,1.3,.42,2.06,.94Zm20.92-37.23c0,.62-.55,1.14-1.09,1.14-.65,0-1.08-.21-1.08-.42,0-.31,.44-.83,1.09-1.14,.54-.31,1.08-.1,1.08,.42Zm-3.51,14.18l.17,19.78-20.28,.47c-11.28,.28-20.71,.37-21.26,.06-.43-.21-.74-9.22-.71-20.09l.05-19.57,17.57-.06c9.76-.08,19.09-.16,20.93-.26l3.25-.1,.28,19.78Z"/>
  <path d="M233.3,283.8c3.67,7.05,12.12,9.35,18.86,5.01,6.19-3.82,9.58-13.65,6.44-18.31-.65-1.04-.87-.42-.44,2.17,1.82,10.98-8.29,18.72-18.04,13.84-8.02-3.95-8.75-12.55-1.69-20.09l2.28-2.48-2.5,1.44c-5.21,3.09-7.95,12.82-4.93,18.42Z"/>
  <path d="M238.75,273.77c.33-.72,.22-1.66-.1-1.97-.32-.41-.65,.21-.55,1.34,0,1.14,.32,1.45,.65,.62Z"/>
  <path d="M243.84,278.34c.87,.31,2.49,.42,3.58,.11,1.52-.41,1.41-.51-.54-.62-1.3,0-2.38-.63-2.38-1.14,0-.62-.54-1.04-1.08-1.04-1.63,0-1.31,2.07,.43,2.69Z"/>
  <path d="M245.59,272.85c1.19-.31,2.17-.72,2.17-.93s-.98-.42-2.17-.42-2.17,.41-2.17,.93,.97,.73,2.17,.42Z"/>
  <path d="M245.61,263.01c1.52,0,2.06-.2,1.3-.51-.65-.21-1.95-.21-2.71,0-.65,.31-.11,.52,1.41,.52Z"/>
  <path d="M246.25,265.19c1.19,0,1.52-.31,.65-.62-.76-.31-1.73-.21-2.06,.1-.43,.31,.22,.62,1.41,.52Z"/>
  <path d="M246.66,275.13c.54,.31,1.08,.11,1.09-.41,0-.62-.54-1.14-1.08-1.14-.65,0-1.09,.2-1.09,.41,0,.31,.43,.83,1.08,1.14Z"/>
  <path d="M250.81,266.75c1.41,.42,2.17,1.25,1.73,1.97s-.44,.93,.11,.52c.43-.41,1.63-.2,2.6,.42,.97,.73,.54,0-.86-1.56-2.92-3.11-2.05-3.73,1.41-1.03,1.62,1.35,1.52,1.04-.32-1.04-1.51-1.56-2.92-2.39-3.25-1.97-.33,.52-1.41,1.14-2.28,1.44-1.19,.41-.98,.72,.86,1.24Z"/>
  <path d="M250.99,278.77c.54,0,1.09-.52,1.09-1.14,0-.52-.54-.73-1.08-.42-.65,.31-1.09,.83-1.09,1.14,0,.21,.43,.42,1.08,.42Z"/>
  <path d="M251,275.66c.54,0,1.09-.52,1.09-1.14,0-.52-.54-.73-1.08-.42-.65,.31-1.09,.83-1.09,1.14,0,.21,.43,.42,1.08,.42Z"/>
  <path d="M254.35,280.33c.54-.41,.98-1.65,.98-2.79,0-2.69-.97-1.97-1.63,1.14-.22,1.24,0,1.97,.65,1.66Z"/>
</svg>