<?xml version="1.0" encoding="UTF-8"?>
<svg id="Layer_1" data-name="Layer 1" xmlns="http://www.w3.org/2000/svg" viewBox="0 0 350 450">
  <path d="M181.91,2.49c4.06,1.61,8.12,6.74,8.12,10.35,0,.88,.32,1.61,.73,1.61,.89,0,0-3.53-1.54-6.34-1.79-3.37-5.93-6.58-8.28-6.42-.57,0-.16,.4,.97,.8Z"/>
  <path d="M218.86,3.29c-2.92,2.09-6.01,6.58-6.66,9.63-.24,1.28-.16,4.25,.08,6.66,.49,3.85,1.06,4.9,4.63,8.43,4.39,4.41,8.12,5.54,14.46,4.49,4.87-.8,11.21-6.82,11.94-11.48,.24-1.85,.81-3.37,1.14-3.37,.41,0,.49-.8,.16-1.77-.41-1.69-.49-1.69-1.06-.16-.32,.8-.65,2.41-.65,3.45-.08,2.73-4.14,8.51-6.98,9.95-5.2,2.65-7.47,2.97-11.69,1.69-7.47-2.17-11.94-8.67-11.21-16.05,.24-2.33,.81-4.74,1.3-5.3s1.71-2.09,2.68-3.37c.97-1.2,2.84-2.73,4.22-3.37,1.38-.56,1.95-1.04,1.3-1.12-.65,0-2.36,.8-3.65,1.69Z"/>
  <path d="M272.62,2.49c-2.19,1.28-5.36,4.57-4.79,5.06,.24,.24,0,.48-.49,.48-1.46,0-2.84,6.42-2.36,10.92,.49,4.9,2.84,8.75,6.98,11.56,2.44,1.61,3.9,1.93,8.61,2.01,4.79,0,6.09-.32,8.53-2.01,1.54-1.12,2.92-2.25,3.09-2.57,.16-.24,.97-1.28,1.87-2.33,.89-.96,1.79-2.73,2.03-3.85s.57-2.73,.73-3.53c.16-.72-.08-1.36-.49-1.36s-.73,.96-.73,2.17c-.08,5.54-8.77,12.68-15.11,12.52-4.14-.16-9.75-3.29-12.26-6.98-1.87-2.73-2.27-4.17-2.27-8.51,0-3.13,.41-5.78,1.06-6.42,.57-.64,1.79-2.25,2.76-3.53,.97-1.2,2.84-2.73,4.22-3.37,1.38-.56,1.95-1.04,1.3-1.04s-1.87,.32-2.68,.8Z"/>
  <path d="M239.24,5.78c1.3,1.44,2.68,2.97,3.09,3.45,1.06,1.2-.32-1.2-2.27-3.85-.89-1.2-1.95-2.17-2.44-2.17-.41,0,.24,1.2,1.62,2.57Z"/>
  <path d="M109.71,6.9c-1.79,2.25-2.27,4.01-.89,3.13,.49-.24,.81-.96,.81-1.61s.81-1.69,1.79-2.33c.97-.72,1.38-1.28,.89-1.28s-1.71,.96-2.6,2.09Z"/>
  <path d="M162.42,6.82c-.57,1.12-.81,2.25-.57,2.57,.32,.24,.57,0,.57-.56s.57-1.77,1.38-2.57c.73-.8,.97-1.44,.49-1.44-.41,0-1.3,.88-1.87,2.01Z"/>
  <path d="M293.41,7.3c1.14,1.52,2.19,3.69,2.44,4.82l.32,1.93,.08-2.01c.08-1.2-.89-3.13-2.44-4.82l-2.44-2.81,2.03,2.89Z"/>
  <path d="M320.94,6.42c-.89,.88-2.36,3.53-3.09,6.02-1.22,3.85-1.3,4.82-.32,7.79,1.79,5.7,3,7.46,6.42,9.71,8.04,5.22,16.49,3.29,23.55-5.46,1.22-1.44,2.92-9.07,2.19-9.79-.16-.24-.57,1.2-.89,3.13-1.3,8.59-10.31,15.09-18.52,13.32-2.11-.4-3.82-1.12-3.82-1.52s-.49-.72-1.14-.72c-1.71,0-5.52-5.38-6.33-9.07-.81-3.61-.08-9.79,1.3-11.24,3.25-3.45,3.74-4.98,.65-2.17Z"/>
  <path d="M135.62,7.95c0,.48,.32,1.04,.81,1.28s.57-.08,.32-.72c-.57-1.44-1.14-1.69-1.14-.56Z"/>
  <path d="M31.27,9.55c-.24,.48-.16,.88,.24,.88,.49,0,.81,2.41,.81,5.38-.08,6.18-2.19,10.27-6.82,13.16-4.63,2.81-7.47,3.21-11.78,1.85-7.31-2.41-11.21-7.7-11.37-15.49l-.08-3.69-.65,3.05c-.81,4.41,1.14,9.63,5.36,13.8,3.09,3.05,4.22,3.61,8.12,4.09,4.47,.48,10.88-.64,10.88-2.01,0-.32,.89-1.04,2.03-1.52s2.03-1.36,2.03-1.85c0-.56,.57-1.36,1.22-1.85,1.71-1.28,3-8.75,2.11-12.68-.81-3.61-1.3-4.33-2.11-3.13Z"/>
  <path d="M159.66,11.4c-1.14,4.33-.16,11.24,2.11,13.96,2.92,3.61,6.25,6.1,9.1,6.82,7.88,2.09,15.92-1.61,18.68-8.59,.81-2.17,1.87-4.57,2.27-5.38,.41-.88,.57-1.77,.24-2.01-.65-.72-2.03,1.52-2.03,3.37,0,2.89-4.3,8.35-7.96,10.11-4.71,2.33-7.8,2.33-13.24-.16-3.57-1.61-4.79-2.65-5.93-5.14-.73-1.77-1.71-3.77-2.11-4.49-1.14-2.01-.97-6.58,.16-7.7,.65-.64,.73-1.2,.08-1.85-.57-.56-.97-.32-1.38,1.04Z"/>
  <path d="M242.98,12.04c0,1.12,.16,1.52,.41,.96,.16-.48,.16-1.44,0-2.01-.24-.48-.41-.08-.41,1.04Z"/>
  <path d="M106.63,16.45c.49,5.86,3.41,11.24,7.55,14.05,2.44,1.61,3.98,1.93,8.77,1.93,7.15,0,10.64-2.01,13.72-7.95,2.6-5.22,3.41-8.51,1.87-7.95-.57,.24-1.3,1.85-1.54,3.61-.41,3.29-3.57,7.7-6.5,9.15-5.68,2.73-7.55,2.89-12.02,1.28-4.14-1.61-8.85-5.22-8.85-6.82,0-.48-.49-1.77-1.06-2.89s-1.14-3.45-1.22-5.22c-.16-1.69-.49-3.37-.73-3.61s-.24,1.77,0,4.41Z"/>
  <path d="M54.17,15.01c-.89,.8-.65,4.09,.32,4.65,.41,.32,.65,.96,.49,1.44-.49,1.61,3.09,6.9,6.17,8.91,5.2,3.45,13.81,3.77,17.62,.48,.97-.8,2.03-1.61,2.27-1.77,1.54-.72,4.95-7.06,5.36-10.11,.49-3.13,.41-3.37-.73-2.33-.65,.72-1.22,2.01-1.22,2.97,0,4.9-4.79,9.87-11.45,11.96-2.52,.8-3.65,.72-7.39-.72-2.44-.88-5.44-2.65-6.58-3.93-2.11-2.41-4.63-9.31-4.06-11.16,.41-1.04,0-1.28-.81-.4Z"/>
  <path d="M43.04,163.89c-.08,67.66-.16,150.4-.24,183.87l-.16,60.76h105.98V251.21l26.23-.16,26.15-.24,.24-25.92c.08-16.29,.49-25.84,.97-25.84s.81,.8,.89,1.77q.08,1.77,.65-.16c.32-1.12,.32-2.09-.08-2.25-.32-.16-.32-.88,.08-1.61,.32-.72,.57-12.12,.49-25.28-.08-14.61,.16-23.84,.65-23.84s.41-.4-.08-1.04c-.49-.56-.81-10.75-.89-26.24-.08-21.19-.32-25.44-1.3-26.16-1.06-.72-1.22-4.9-1.22-26.4,0-20.23,.24-25.36,1.06-24.72,.49,.4,3.57,.8,6.66,.96,3.17,.16,6.01,.4,6.33,.64,.41,.24,3.25,.72,6.5,1.12,10.8,1.36,28.5,8.51,37.68,15.25,2.36,1.77,4.55,3.13,5.04,3.13,.97,0,20.38,19.02,20.38,19.98s4.63,7.87,5.77,8.51c.41,.32,.73,1.2,.73,2.01s.32,1.61,.65,1.77c1.14,.4,6.33,11.8,8.53,18.7,2.68,8.19,5.52,27.05,4.71,30.9-.08,.24-.24,3.45-.41,7.22-1.06,23.52-13.16,49.2-30.94,65.89-5.68,5.3-8.04,7.14-12.59,10.11-2.44,1.61-5.28,3.69-6.33,4.57-1.06,.96-2.03,1.61-2.27,1.52-.16-.16-3.33,1.2-6.98,2.97-3.74,1.77-7.15,3.21-7.63,3.21s-3,.88-5.68,1.93c-2.6,1.04-6.58,2.17-8.85,2.49-2.19,.32-4.79,.72-5.68,.8-3.98,.64-9.1,1.36-10.39,1.44-.73,.08-1.38,.48-1.38,.96,0,1.36,7.39,1.36,12.18,.08,2.44-.64,6.33-1.44,8.53-1.77,2.27-.24,5.6-1.2,7.47-2.01,1.87-.88,3.9-1.52,4.55-1.52,1.22,0,17.7-8.11,19.41-9.55,1.87-1.52,7.15-4.9,7.15-4.49,0,.24,1.38-.96,3.09-2.65,1.71-1.61,4.55-4.25,6.33-5.86,6.25-5.62,12.34-13,17.95-21.99,2.27-3.69,7.47-14.61,8.04-16.85,.32-1.36,.89-2.81,1.3-3.29,.41-.56,1.3-3.61,1.95-6.82,1.62-7.46,1.54-7.22,2.44-9.15,1.22-2.65,.89-32.42-.41-35.96-.57-1.69-1.54-5.46-2.19-8.35-.97-4.65-4.22-13.72-6.09-17.01-.41-.72-1.22-2.57-1.95-4.09-1.54-3.69-4.22-8.19-5.12-8.75-.41-.24-1.38-1.69-2.19-3.21-1.38-2.65-1.38-2.81,.08-3.85,.81-.56,1.95-1.04,2.52-1.04s1.06-.56,1.06-1.2c0-.72,.49-1.44,1.14-1.69,1.46-.56,2.68-3.77,3.25-8.35,.32-2.65,.24-3.05-.24-1.61-.41,1.12-.73,2.81-.81,3.85-.08,2.09-.81,3.13-5.28,7.46-3.09,3.05-4.55,3.85-4.55,2.41,0-1.28-17.62-18.38-20.38-19.82-1.46-.72-3-1.61-3.49-2.01-3.98-3.13-6.74-4.82-13.48-8.11-9.18-4.41-16-6.74-24.77-8.35-3.57-.64-7.8-1.44-9.34-1.69-1.54-.32-40.77-.64-87.06-.8l-84.3-.32v123.04ZM200.51,68.22v24.88h-25.34c-19.9,.08-25.66,.32-26.8,1.12-1.3,1.04-1.38,4.25-1.46,51.93,0,28.01,0,51.29,.08,51.85,0,.48,.73,1.2,1.62,1.44s1.62,1.12,1.62,1.85c0,1.12,.16,1.2,.73,.24,.65-.96,4.87-1.2,24.77-1.28,23.79-.16,24.12-.08,24.53,1.52,.16,.96,.32,11.8,.16,24.16l-.24,22.47h-24.2c-19.08,0-24.36-.24-24.85-1.12-.49-.72-.81-.56-1.14,.72-.32,1.2-.89,1.69-1.71,1.36-1.14-.4-1.3,.4-1.3,5.3,0,3.21-.08,34.59-.08,69.74-.08,47.19-.32,63.89-1.06,63.48-.57-.32-.49-.08,.08,.64,1.06,1.28,1.06,15.49,0,16.45-.49,.48-99.73,.56-100.21,.08-.49-.56-.24-360.2,.24-361.08,.24-.32,35.08-.56,77.47-.64h77.07v24.88Zm1.06,96.55l.24,33.47h-53.19V95.51l26.23-.16,26.15-.24,.16,18.06c.16,9.95,.32,33.15,.41,51.61Z"/>
  <path d="M173.22,104.9c1.22,.16,3.17,.16,4.47,0,1.22-.16,.16-.32-2.27-.32s-3.49,.16-2.19,.32Z"/>
  <path d="M181.91,105.94c0,.48,.89,1.28,2.03,1.77s2.03,1.12,2.03,1.44,.89,1.52,2.03,2.73,2.03,1.85,2.03,1.44-1.22-1.93-2.76-3.45c-3.98-3.93-5.36-4.98-5.36-3.93Z"/>
  <path d="M165.59,107.55c-.73,.4-2.52,2.65-3.98,4.82-2.44,3.77-2.6,4.49-2.19,8.99,.24,3.13,1.06,5.7,2.11,7.14,.97,1.28,1.71,2.57,1.71,2.89,0,.4,1.71,1.69,3.9,2.97,3.09,1.93,4.79,2.33,8.77,2.33,2.68,.08,5.44-.32,6.09-.88,6.25-5.06,7.31-6.18,8.2-9.23,.49-1.85,.97-3.61,.97-3.93,.08-.24,.32-.8,.73-1.12,1.06-1.04,.57-2.17-.57-1.2-.57,.48-1.3,2.17-1.54,3.69-.57,3.37-3.33,7.22-6.9,9.39-4.14,2.57-11.45,2.25-15.67-.64-3.25-2.25-6.09-6.26-5.77-8.19,.16-.48-.16-.96-.65-.96-.41,0-.81-1.77-.81-4.01s.41-4.01,.81-4.01c.49,0,.73-.24,.65-.64-.24-1.12,3-5.62,5.04-6.9,2.19-1.28,1.3-1.77-.89-.48Z"/>
  <path d="M173.22,157.07c1.22,.16,3.17,.16,4.47,0,1.22-.16,.16-.32-2.27-.32s-3.49,.16-2.19,.32Z"/>
  <path d="M164.13,161.4c-1.95,1.77-3.25,3.53-2.92,3.77,.32,.32,1.06-.16,1.62-1.04,1.79-2.57,2.68-3.45,4.22-4.33,.81-.4,1.22-.96,.97-1.2-.24-.32-2.03,.96-3.9,2.81Z"/>
  <path d="M183.94,159.87c2.03,1.04,5.28,4.65,5.28,5.7,0,.48,.16,.64,.41,.4,1.38-1.36-4.06-7.14-6.66-7.06-.32,0,.08,.48,.97,.96Z"/>
  <path d="M159.66,167.42c-.73,1.93-.57,6.82,.32,10.03,1.22,4.33,6.5,9.39,10.56,10.03,1.79,.32,3.25,.8,3.25,1.2s.73,.72,1.62,.72,1.62-.4,1.62-.8c0-.48,.89-.8,2.03-.8,4.06,0,9.34-4.01,10.56-8.03,.49-1.85,.41-1.85-1.3,.48-4.22,5.46-6.74,6.82-12.51,6.9-4.55,0-5.85-.32-8.61-2.25-3.17-2.17-6.9-7.62-5.85-8.67,.32-.24,.08-.48-.41-.48-1.22,0-1.3-6.58-.08-7.79,.57-.56,.57-1.04,.08-1.36-.41-.24-1.06,.08-1.3,.8Z"/>
  <path d="M190.52,173.04c-.57,1.52-.65,4.74-.08,4.25,.16-.24,.49-1.12,.65-2.01,.08-.8,.49-2.01,.81-2.57,.41-.48,.32-.96-.08-.96-.49,0-1.06,.56-1.3,1.28Z"/>
  <path d="M24.36,54.98c1.14,.64,2.6,1.12,3.25,1.2,.65,0,.16-.56-1.14-1.2-2.92-1.52-4.79-1.52-2.11,0Z"/>
  <path d="M272.46,54.74c-2.52,1.36-5.36,4.49-4.55,5.06,.41,.24,1.06-.32,1.3-1.28,.32-.88,2.11-2.33,3.9-3.21,1.87-.8,2.84-1.52,2.19-1.44-.65,0-1.95,.4-2.84,.88Z"/>
  <path d="M287.97,54.98c.81,.64,2.11,1.12,2.76,1.12,.73,0,.32-.48-.81-1.12-2.68-1.52-3.98-1.52-1.95,0Z"/>
  <path d="M322,57.3c-1.62,1.69-3.33,4.65-4.14,7.22-1.38,4.25-1.38,4.65,.08,8.83,1.46,4.25,4.55,8.51,6.09,8.51,.41,0,1.3,.64,2.11,1.36,.97,.96,2.76,1.36,6.74,1.36,4.71,0,5.77-.24,9.01-2.49,5.68-4.01,7.47-7.22,7.63-13.88,.08-4.33-.24-5.86-1.3-6.98-.81-.72-1.46-.96-1.46-.48s.49,1.04,1.06,1.28c.65,.16,.97,2.01,.89,5.46-.08,6.18-2.03,9.87-6.9,13.24-2.68,1.77-4.06,2.17-7.88,2.17-5.85-.08-9.18-1.52-12.18-5.3-5.36-6.58-3.41-18.62,3.49-22.07,.89-.48,1.14-.88,.57-.88-.65-.08-2.36,1.2-3.82,2.65Z"/>
  <path d="M29.8,59.95c.81,1.28,1.71,2.41,1.95,2.65,.32,.24,.57,2.73,.49,5.62-.16,5.94-2.19,9.71-6.82,12.84-3.33,2.25-11.94,2.65-14.94,.64-4.39-2.89-6.5-5.54-7.47-9.47-1.06-4.41-2.44-5.62-1.62-1.44,.89,4.82,3.49,8.51,8.36,11.88,2.36,1.69,3.74,2.01,8.12,2.01,6.17-.08,9.75-2.01,13.16-7.22,3.09-4.74,3.49-13.24,.65-16.45-.89-1.04-1.62-2.17-1.62-2.57,0-.32-.41-.64-.81-.64-.49,0-.24,.96,.57,2.17Z"/>
  <path d="M13.4,104.74c1.87,.64,10.15,.88,9.18,.32-.57-.4-3.09-.64-5.52-.64s-4.06,.16-3.65,.32Z"/>
  <path d="M330.52,104.82c2.84,.56,7.96,.72,7.63,.16-.24-.4-2.36-.56-4.63-.56-2.36,.08-3.65,.24-3,.4Z"/>
  <path d="M339.86,105.94c.24,.4,1.3,1.2,2.27,1.69l1.79,.88-1.79-1.69c-1.87-1.77-3.17-2.25-2.27-.88Z"/>
  <path d="M24.12,106.5c-.24,.4,.65,1.2,1.95,1.77,1.54,.64,3.17,2.49,4.47,5.14,5.93,11.48-3.57,23.92-16.4,21.51-1.79-.32-4.3-1.28-5.44-2.17-3-2.25-6.25-7.54-6.25-10.27,0-1.69-.24-2.17-.89-1.52-1.87,1.85,4.55,13.08,7.47,13.08,.32,0,1.22,.56,1.95,1.28,2.11,2.09,9.83,1.85,13.97-.4,4.47-2.57,8.12-7.62,8.36-11.72,.41-5.86,0-8.19-1.62-10.03-.89-.96-1.79-2.49-2.03-3.29-.32-.88-.89-1.52-1.38-1.52s-1.54-.56-2.36-1.28c-.73-.64-1.54-.88-1.79-.56Z"/>
  <path d="M7.71,107.55c-.24,.48,.08,.56,.73,.32,1.46-.56,1.71-1.12,.57-1.12-.49,0-1.06,.32-1.3,.8Z"/>
  <path d="M321.67,109.79c-3.98,4.17-5.93,10.51-4.22,13.64,.49,.72,.97,2.25,1.22,3.37,.41,2.09,4.55,7.22,5.77,7.22,.41,0,1.38,.56,2.19,1.36,1.06,.88,2.92,1.28,6.17,1.28,8.61-.08,15.84-6.18,16.89-14.37,.24-2.41,.32-4.57,.08-4.82s-.65,1.77-.97,4.41c-.32,2.97-.97,4.98-1.71,5.22-.65,.24-1.14,.96-1.14,1.52,0,1.77-5.12,5.22-8.85,6.1-6.09,1.36-9.75,.24-13.97-4.01-3.17-3.21-3.9-4.57-4.39-7.79-.89-6.5,1.71-12.52,6.58-15.25,.97-.56,1.14-.88,.41-.96-.65,0-2.44,1.36-4.06,3.05Z"/>
  <path d="M4.22,110.84c-1.06,1.28-2.03,3.69-2.19,5.3l-.41,3.05,.73-2.73c.41-1.44,1.54-3.77,2.52-5.06,2.27-3.05,1.79-3.53-.65-.56Z"/>
  <path d="M11.94,157.23c-.81,.24,1.06,.56,4.14,.48,3.17,0,5.52-.24,5.28-.64-.41-.72-7.47-.64-9.42,.16Z"/>
  <path d="M328.25,157.07c-.97,.16-3.49,2.01-5.68,4.09-4.47,4.41-6.66,10.11-5.12,13.48,.49,1.12,.89,2.57,.89,3.29,0,1.85,4.79,7.79,7.23,8.91,1.14,.56,2.68,.96,3.49,.96s2.27,.48,3.17,.96c1.38,.8,1.87,.8,2.11,0,.24-.48,1.54-.96,3-.96,5.6,0,11.61-6.74,12.1-13.64,.24-2.41,.24-3.53,0-2.41-1.54,8.59-5.77,14.05-11.78,15.09-6.82,1.28-10.07,.4-14.37-3.85-3.25-3.21-3.98-4.49-4.47-7.79-.24-2.17-.24-5.22,.08-6.74,.57-2.97,4.14-7.95,5.68-7.95,.57,0,1.3-.64,1.79-1.36,.57-1.12,1.95-1.36,7.31-1.44,3.57,0,5.85-.24,5.12-.56-1.54-.56-7.63-.64-10.56-.08Z"/>
  <path d="M24.85,159.31c1.3,1.12,2.6,2.01,3,2.01,.32,0,1.22,1.28,1.95,2.81s1.62,2.81,2.03,2.81c.32,0,.65,2.17,.65,4.82s-.32,4.82-.81,4.82c-.41,0-.81,.56-.81,1.2,0,2.01-2.27,4.9-5.77,7.3-2.68,1.77-4.06,2.17-8.04,2.17-4.22-.08-5.36-.4-8.85-2.97-3.98-2.89-5.77-5.94-5.77-9.79,0-1.04-.32-1.93-.81-1.93-1.22,0-.97,1.85,.73,5.94,2.44,5.46,4.63,7.3,11.69,9.71,2.6,.88,4.22,1.04,5.2,.48,.81-.4,2.44-.96,3.65-1.28,3-.56,7.47-4.57,9.18-8.11,1.87-3.93,1.79-11.24-.16-13.88-.89-1.12-1.79-2.73-2.11-3.53-.24-.72-.97-1.36-1.54-1.36-.65,0-1.71-.72-2.52-1.61-.73-.88-1.79-1.61-2.27-1.61-.57,0,.08,.88,1.38,2.01Z"/>
  <path d="M341.57,158.75c-.24,.4,.41,1.2,1.46,1.77s2.36,1.85,2.84,2.89,1.22,1.93,1.62,1.93,.97,.64,1.14,1.36c.24,1.04,.41,1.12,.49,.24,.08-1.52-6.98-9.15-7.55-8.19Z"/>
  <path d="M3.82,163.57c-1.3,1.44-3.33,8.51-2.19,7.79,.32-.16,.81-1.69,1.06-3.29s1.14-3.61,1.87-4.41c.73-.88,1.22-1.52,.97-1.52s-.97,.64-1.71,1.44Z"/>
  <path d="M328.9,209.31c-5.04,1.36-10.56,6.9-10.56,10.59,0,.8-.32,1.77-.81,2.01-1.06,.64-1.06,3.21-.08,5.06,.49,.72,1.06,2.41,1.3,3.61,.49,2.41,4.47,6.98,7.31,8.35,4.39,2.17,14.37,1.69,16.24-.88,.57-.72,1.38-1.28,1.79-1.28,.49,0,1.87-1.44,3.09-3.13,1.62-2.49,2.27-4.33,2.44-8.27l.32-5.06-.81,5.22c-.41,2.81-1.14,5.38-1.46,5.62s-1.06,1.12-1.54,2.09c-.49,.88-2.36,2.65-4.14,3.85-4.55,3.13-11.45,3.21-16,.16-5.28-3.45-7.07-6.82-7.07-13.48,0-4.33,.32-5.94,1.38-6.66,.73-.56,1.3-1.36,1.3-1.85s1.06-1.44,2.36-2.17c1.3-.64,2.52-1.61,2.68-2.17,.24-.72,2.44-1.04,7.07-1.04,5.68,0,6.9,.24,7.88,1.52,.57,.88,1.3,1.36,1.54,1.12,.24-.16-.32-1.04-1.14-1.77-1.71-1.52-9.58-2.41-13.07-1.44Z"/>
  <path d="M22.41,210.04c.97,.16,2.44,1.04,3.25,1.93,.73,.8,1.87,1.52,2.52,1.52,.57,0,1.06,.4,1.06,.8,0,.48,.73,2.41,1.62,4.17,1.71,3.45,2.19,10.27,.81,10.27-.41,0-.81,.56-.81,1.2,0,2.09-2.36,4.9-5.93,7.3-2.84,1.85-4.22,2.17-8.69,2.17-3.98,0-4.63,.16-2.44,.56,1.62,.24,3.33,.8,3.9,1.12s.97,.16,.97-.24c0-.48,.89-.88,2.03-.88,4.3,0,10.56-5.3,12.18-10.27,1.22-3.93,.57-9.71-1.46-13-2.27-3.85-6.66-7.3-9.01-7.14q-1.62,.16,0,.48Z"/>
  <path d="M291.79,213.81c2.92,3.13,3.65,4.17,4.06,5.78,.32,1.44,.41,1.44,.49,0,.08-1.52-4.39-7.7-5.6-7.7-.41,0,.08,.88,1.06,1.93Z"/>
  <path d="M296.34,222.8c-.24,6.9-2.27,10.92-7.39,14.45-4.39,3.05-11.21,3.05-15.75,0-1.87-1.2-3.82-3.05-4.39-4.09-1.06-2.01-2.44-2.65-2.44-1.2,0,.96,4.06,5.06,6.9,6.9,3.49,2.25,12.34,1.85,16.24-.72,4.47-2.97,6.74-6.58,7.39-11.56,.24-2.33,.32-4.57,0-4.82-.24-.32-.49,.16-.57,1.04Z"/>
  <path d="M1.38,227.29c.65,3.29,3.25,8.67,4.3,8.67,.41,0,1.46,.8,2.44,1.77,.89,.96,1.79,1.52,2.11,1.28,.24-.24-.16-.96-.89-1.52-4.95-4.01-6.9-7.06-6.9-10.83,0-1.04-.32-1.93-.81-1.93-.41,0-.57,1.12-.24,2.57Z"/>
  <path d="M203.11,248.96c-.08,.8-.41,1.44-.89,1.44-.57,0-.81,18.14-.81,52.81,0,43.9,.16,53.45,1.14,56.42,.65,1.93,1.62,6.18,2.11,9.39,.73,4.9,1.38,6.66,4.06,10.19,1.79,2.41,3.65,5.3,4.22,6.42,.49,1.12,1.14,2.01,1.46,2.01s1.06,1.12,1.62,2.41c.73,1.69,2.84,3.53,6.42,5.7,2.92,1.77,6.98,4.41,9.01,5.86,3,2.17,5.04,2.81,10.56,3.61,3.82,.56,8.45,1.52,10.39,2.17,4.79,1.52,55.39,1.69,55.39,.08v-33.07c0-29.54-.16-32.67-1.71-39.33-.89-4.01-2.44-9.23-3.25-11.64-.89-2.41-2.19-6.1-2.84-8.27-.65-2.09-1.46-3.77-1.87-3.77-.32,0-1.06-1.52-1.62-3.29-.57-1.85-1.38-3.77-1.79-4.25s-2.27-3.21-4.22-6.02c-3.09-4.65-6.5-8.91-10.48-13-.73-.8-1.71-2.17-2.27-3.05-.49-.96-1.22-1.69-1.62-1.69s-2.11-1.36-3.82-3.05c-2.84-2.73-5.52-4.74-9.1-6.98-.73-.48-3.33-2.17-5.77-3.69-5.12-3.37-16.24-8.75-17.95-8.75-.65,0-2.19-.56-3.41-1.2-1.3-.64-4.71-1.69-7.71-2.33s-6.9-1.52-8.69-2.01c-1.71-.4-5.93-.88-9.34-.96-5.44-.16-6.17-.32-6.66-1.85-.41-1.36-.49-1.36-.57-.32Zm17.38,5.78c.89,.16,1.62,.4,1.62,.48s.97,.32,2.11,.4c1.22,.16,3.74,.72,5.68,1.28s3.82,.96,4.22,.88c.32-.08,.57,.24,.57,.72,0,.4,.32,.64,.65,.4,1.3-.8,18.27,7.38,25.34,12.2q5.68,3.93,11.69,9.15c3.98,3.45,15.11,16.13,15.11,17.18,0,.32,.89,1.69,1.95,3.13,2.92,3.77,8.93,16.13,11.29,23.36,1.95,5.86,3,10.59,4.22,19.42,.73,4.98,1.14,59.95,.49,61-.41,.64-8.53,.96-25.91,1.12l-25.34,.24-.16-8.03-.16-8.03-.24,7.46-.32,7.54-3.82-.48c-2.11-.32-4.39-.64-5.04-.8-.65-.08-2.68-.48-4.47-.88-9.1-1.77-21.93-11.72-26.56-20.47-.57-1.12-1.22-2.17-1.46-2.41-1.79-1.61-4.06-5.78-4.06-7.46,0-1.12-.32-2.25-.73-2.49-.57-.4-1.22-3.93-2.19-11.72-.08-.64-.24-1.36-.32-1.61-.32-1.04-.57-100.16-.24-102.01l.41-2.01,6.98,1.04c3.9,.56,7.8,1.12,8.69,1.36Z"/>
  <path d="M14.62,260.92c-.65,.32-2.27,.88-3.57,1.12-1.22,.24-2.19,.64-1.95,.8,.16,.16,1.87-.08,3.9-.48,7.88-1.77,14.86,1.44,17.79,8.11,1.79,4.09,2.27,10.43,.89,10.43-.41,0-.81,.56-.81,1.2,0,2.09-2.36,4.9-5.93,7.3-4.63,2.97-11.13,3.13-15.43,.24-4.06-2.81-6.25-5.78-6.82-9.31-.57-3.21-2.68-6.34-2.68-3.93,0,.64,.41,1.44,.81,1.69,.49,.24,.81,1.2,.81,2.09,0,4.9,6.25,11.16,12.18,12.28,3.65,.64,10.56-.56,11.45-2.01,.41-.64,.73-.8,.73-.4,0,1.2,5.77-5.3,6.58-7.38,2.27-5.86-.24-14.85-5.2-18.62-3.17-2.49-10.56-4.25-12.75-3.13Z"/>
  <path d="M170.54,261.72c-10.56,3.37-14.62,14.69-8.53,23.76,1.3,1.93,2.6,3.45,2.84,3.45,.32,0,1.38,.64,2.27,1.52,1.79,1.52,7.39,2.65,10.31,2.09,.89-.16,2.27-.32,3-.32,.73-.08,1.87-.56,2.44-1.12,.57-.64,1.87-1.52,2.92-2.09,2.11-1.12,5.04-6.42,5.04-9.31,0-1.12,.41-2.01,.81-2.01,.49,0,.81-.56,.81-1.2,0-2.49-1.54-1.12-2.03,1.77-.32,1.69-.73,3.61-.89,4.33-.32,1.2-4.39,5.62-7.23,7.87-1.79,1.44-12.75,1.61-13.24,.16-.16-.48-1.38-1.44-2.76-2.17-2.76-1.36-6.33-8.43-6.33-12.44,0-3.21,3.65-10.11,5.68-10.75,.89-.24,1.62-.8,1.62-1.2,0-1.28,6.66-2.57,10.48-2.01,3.41,.48,9.01,3.29,9.01,4.49,0,.24,.73,1.28,1.62,2.33s1.71,2.81,1.71,3.93c.08,1.52,.24,1.69,.49,.56,.41-1.61-2.03-7.7-3.09-7.7-.41,0-1.3-.72-2.11-1.52-.81-.88-3.49-2.09-5.93-2.73-4.06-1.04-4.95-.96-8.93,.32Z"/>
  <path d="M277.09,261.24c-1.95,.48-4.71,1.85-6.25,3.05-3.09,2.41-5.12,5.38-3.65,5.38,.49,0,1.22-.88,1.62-1.93s1.46-2.17,2.36-2.49c.81-.24,1.71-.96,1.95-1.52,.24-.64,2.44-1.36,5.36-1.69,2.76-.32,4.95-.8,4.95-1.12,0-.72-2.27-.64-6.33,.32Z"/>
  <path d="M330.52,261.16c-3.65,.72-5.12,1.52-8.28,4.49-2.76,2.65-3.9,4.33-3.9,5.86,0,1.2-.32,2.17-.81,2.17-1.46,0-.89,2.97,1.87,10.67,1.14,3.21,7.31,7.62,11.37,8.19,1.87,.24,4.87,.16,6.66-.24,3-.72,2.84-.72-2.44-.72-4.87,0-6.17-.24-8.93-2.09-5.2-3.37-7.07-6.9-7.15-12.84-.08-4.17,.32-5.62,1.87-7.87,1.06-1.52,2.27-2.89,2.68-3.05,.32-.08,1.3-.88,2.03-1.69,1.79-1.85,8.53-2.73,12.91-1.77,1.95,.48,3.25,.48,3,.08s-1.14-.72-2.03-.72-2.27-.32-3-.64-3.41-.24-5.85,.16Z"/>
  <path d="M349.04,277.53c-.49,5.06-3.09,9.87-6.09,11.32-1.06,.48-1.87,1.2-1.87,1.77,0,1.04,3.33-1.44,6.09-4.74,1.62-1.85,2.19-3.69,2.6-7.7,.24-2.89,.32-5.3,.08-5.3s-.65,2.09-.81,4.65Z"/>
  <path d="M296.09,277.93c-.57,4.49-2.92,8.51-6.09,10.75-.97,.64-1.71,1.52-1.71,1.93,0,1.2,3.98-2.01,6.09-4.98,1.71-2.17,3.57-10.67,2.6-11.64-.24-.24-.65,1.61-.89,3.93Z"/>
  <path d="M15.02,313.01c-.24,.4-1.22,.8-2.11,.8-2.27,0-6.42,2.25-6.42,3.45,0,.64,.24,.72,.65,.08,2.76-4.17,15.43-4.25,19.9-.16,2.76,2.57,5.44,8.11,5.44,11.32,0,2.81-2.52,8.67-4.71,11-.81,.8-3,2.25-4.95,3.21-2.84,1.44-4.47,1.69-7.55,1.36-4.06-.48-4.79-.88-9.26-5.22-1.87-1.77-2.92-3.61-3.25-5.78-.32-1.77-.89-3.45-1.3-3.69-.97-.64,0,4.25,1.54,7.46,.65,1.44,2.92,3.85,5.04,5.22,3.25,2.25,4.47,2.57,9.1,2.65,6.17,0,9.83-1.93,13.48-7.14,3.17-4.41,3.65-11.96,.97-16.29-2.52-4.25-5.44-6.5-9.1-7.14-1.62-.32-3.25-.88-3.49-1.2-.57-.96-3.33-.88-3.98,.08Z"/>
  <path d="M172.98,313.01c-.65,.4-2.27,.96-3.65,1.2-3.25,.72-9.18,6.98-9.83,10.59-.81,4.41,.08,9.23,2.36,12.52,2.19,3.13,6.25,6.82,6.25,5.62,0-.32,.32-.16,.65,.4,.41,.56,2.68,1.2,5.12,1.36l4.39,.32-3.9-.8c-2.19-.4-5.36-1.69-7.07-2.81-3.57-2.33-7.31-8.83-7.31-12.68,0-2.73,3.57-10.92,4.71-10.92,.41,0,1.54-.72,2.52-1.52,.97-.88,3.57-1.77,5.85-2.09,2.19-.32,4.14-.88,4.47-1.28,.57-.88-2.92-.88-4.55,.08Z"/>
  <path d="M330.12,313.17c-6.25,2.09-10.64,5.7-11.45,9.39-.24,1.12-.81,3.05-1.3,4.25-.57,1.44-.49,2.65,.08,3.69,.49,.96,.89,2.33,.89,3.13,0,1.77,4.63,8.27,5.85,8.27,.41,0,1.3,.48,1.95,1.12,1.54,1.52,6.98,2.33,11.37,1.69,2.84-.4,4.39-1.28,7.55-4.41,4.14-4.09,5.04-6.42,4.87-12.76-.16-3.37-.16-3.21-.73,1.52-.81,6.58-3.17,10.27-8.45,13.24-3.33,1.85-4.55,2.17-7.88,1.77-4.63-.56-9.34-3.45-12.02-7.38s-2.76-12.04-.08-15.89c3.49-4.98,6.74-6.58,13.72-6.5,3.41,0,5.28-.16,4.14-.32s-2.36-.64-2.76-1.04c-.97-.88-2.52-.8-5.77,.24Z"/>
  <path d="M179.88,314.53c1.38,.4,3.17,.96,4.06,1.28,1.22,.48,1.38,.4,.73-.32-.49-.48-2.27-1.12-4.06-1.28-2.84-.32-2.92-.32-.73,.32Z"/>
  <path d="M185.73,316.7c-.32,.32,.57,1.85,1.87,3.45,1.38,1.52,2.44,3.77,2.52,4.9,0,1.12,.24,1.52,.49,.96s.16-1.85-.08-2.81c-.57-2.33-4.14-7.14-4.79-6.5Z"/>
  <path d="M191.17,328.66c.24,.64,.08,1.2-.32,1.2-.49,0-.81,1.04-.81,2.25,0,2.65-4.22,8.67-6.5,9.39-.89,.32-1.62,.88-1.62,1.28,0,.48-.32,.64-.65,.4-.73-.48-3.17,.88-2.52,1.44,.73,.72,5.85-2.25,8.61-4.9,1.79-1.77,2.84-3.77,3.17-5.86,.32-1.77,.89-3.45,1.22-3.69,1.06-.64,.89-2.73-.16-2.73-.49,0-.73,.56-.41,1.2Z"/>
  <path d="M13.64,364.93c-1.3,.16-2.27,.72-2.27,1.12,0,1.04,3.57,.88,4.71-.24,.65-.64,1.22-.64,1.95-.08,.57,.48,2.27,1.04,3.74,1.36,4.47,.8,7.07,3.21,9.01,8.35,.97,2.57,1.62,5.54,1.46,6.66-.81,5.38-4.87,11.16-8.69,12.36-.89,.24-1.62,.88-1.62,1.28,0,1.04,.32,.96,3.49-.88,7.23-4.25,9.99-14.53,5.93-21.83-2.19-3.69-5.12-6.26-7.31-6.26-.65,0-1.3-.32-1.46-.72-.32-.88-6.01-1.61-8.93-1.12Z"/>
  <path d="M174.6,365.18c0,.4,.32,.8,.73,.8,.49,0,1.06-.4,1.3-.8,.24-.48-.08-.8-.73-.8-.73,0-1.3,.32-1.3,.8Z"/>
  <path d="M326.87,366.54c-4.79,2.41-7.71,5.06-5.68,5.06,.73,0,1.46-.48,1.71-1.12s2.27-1.93,4.47-2.81c2.19-.96,3.98-2.09,3.98-2.49,0-.96,.32-1.12-4.47,1.36Z"/>
  <path d="M167.29,367.1c-1.54,.8-3.9,2.97-5.28,4.82-2.19,2.89-2.44,3.93-2.44,8.91s.32,6.02,2.52,9.23c3.57,5.14,8.69,7.54,14.94,7.06,2.92-.24,5.2-.8,6.01-1.69,.81-.72,1.79-1.36,2.19-1.36s1.79-1.52,3.17-3.37c1.71-2.33,2.44-4.17,2.36-6.18-.08-1.61-.24-2.17-.49-1.28-.16,.88-.49,2.33-.65,3.29-.49,2.09-5.2,7.54-6.58,7.54-.57,0-1.54,.48-2.11,1.12-.65,.56-2.84,1.04-5.12,1.04-8.36,0-15.59-7.3-15.75-16.05-.08-2.09,.24-3.77,.57-3.77s1.06-1.2,1.62-2.65c1.3-3.21,6.17-6.98,9.26-6.98,1.22,0,2.27-.32,2.27-.8,0-1.2-3.33-.64-6.5,1.12Z"/>
  <path d="M177.85,366.14c0,.32,.89,.64,1.95,.64,2.27,0,8.04,4.41,9.34,7.06,.49,1.04,.89,2.65,.89,3.53,0,1.28,.24,1.52,.89,.88,1.22-1.2-1.79-6.74-5.12-9.39-1.46-1.12-3.09-2.41-3.57-2.89-1.14-.88-4.39-.72-4.39,.16Z"/>
  <path d="M318.67,374.57c-.24,1.28-.81,3.21-1.3,4.49-.57,1.44-.57,2.49-.08,3.21,.49,.48,1.06,2.25,1.38,3.77,.57,3.05,3.25,6.5,6.25,8.11,1.54,.8,1.38,.4-.73-1.69-1.54-1.44-3.33-3.53-3.98-4.57-1.54-2.25-1.71-11.16-.32-13.72,.57-1.12,.65-1.77,.16-1.77s-1.06,.96-1.38,2.17Z"/>
  <path d="M349.12,381.23c-.49,6.34-3.41,11.16-7.63,12.84-1.54,.64-2.84,1.36-2.84,1.69,0,.72-8.12,.4-9.91-.4-.89-.4-1.46-.32-1.46,.16,0,1.2,5.04,2.09,9.18,1.61,3.49-.4,9.42-3.61,9.5-5.06,0-.48,.73-1.44,1.54-2.17,1.71-1.44,2.84-6.66,2.36-11.08-.16-2.01-.41-1.28-.73,2.41Z"/>
  <path d="M190.84,380.42c0,.4,.41,.8,.81,.8,.49,0,.81-.4,.81-.8,0-.48-.32-.8-.81-.8-.41,0-.81,.32-.81,.8Z"/>
  <path d="M1.3,384.2c1.79,7.7,7.23,12.36,15.11,12.92,2.6,.24,4.71,0,4.71-.4,0-.32-1.46-.56-3.25-.4-6.74,.64-15.43-6.02-15.43-11.8,0-.88-.41-1.85-.81-2.09-.57-.32-.73,.24-.32,1.77Z"/>
  <path d="M13.16,417.1c-1.46,.16-2.92,.88-3.17,1.52s-.89,1.12-1.38,1.12c-2.19,0-7.07,6.58-6.9,9.39,0,.88,.41,.56,.97-1.04,2.68-6.9,11.29-11.64,17.62-9.71,5.93,1.77,8.12,3.45,10.15,7.87,1.95,4.41,2.76,10.35,1.3,10.35-.41,0-.89,1.12-1.22,2.49-.65,3.29-5.44,7.7-9.01,8.43-3.33,.56-4.63,1.93-1.87,1.85s8.69-4.01,10.23-6.74c.73-1.36,1.71-2.65,2.11-2.89,.41-.32,.89-3.05,1.06-6.1,.32-4.17,.16-5.86-.73-6.74-.65-.64-1.62-2.25-2.27-3.53-1.79-4.09-10.15-7.14-16.89-6.26Z"/>
  <path d="M65.94,417.34c-3.41,.8-8.28,4.65-9.91,7.7-.65,1.28-1.46,2.49-1.71,2.73s-.73,1.61-.97,3.05c-1.14,5.54,4.3,15.57,8.93,16.69,1.06,.32,1.87,.72,1.87,1.04s1.14,.64,2.52,.72c1.54,.16,2.27-.16,1.95-.64-.24-.4-1.22-.8-2.11-.8-4.63,0-9.91-5.22-11.21-11.08-1.62-7.7,1.71-14.53,8.45-17.1,1.38-.48,3.25-1.28,4.14-1.69,.97-.48,2.6-.56,3.65-.16,1.06,.32,2.36,.72,2.92,.8s2.44,1.2,4.22,2.49c5.36,3.77,7.31,10.27,5.12,17.1-1.14,3.45-5.12,8.19-7.55,8.99-.65,.24-.97,.64-.73,.8,.24,.24,1.79-.4,3.41-1.44,6.17-3.93,9.26-15.09,5.68-20.23-.81-1.2-1.71-2.73-2.03-3.45-.65-1.85-7.15-5.3-10.88-5.78-1.71-.24-4.3-.16-5.77,.24Z"/>
  <path d="M119.38,417.26c-2.52,.56-8.93,4.17-8.93,4.9,0,.32-.97,1.93-2.11,3.69-4.22,6.1-1.3,16.93,5.68,21.03,1.62,.96,2.92,1.44,2.92,1.04s-.97-1.12-2.19-1.61c-2.84-1.2-4.47-3.45-6.17-8.43-1.87-5.3-1.71-7.79,.41-11.48,2.52-4.25,3.25-4.82,8.53-7.14,4.3-1.93,4.95-2.01,7.96-1.04,8.28,2.65,12.1,7.3,11.94,14.77-.08,7.62-4.06,13.08-10.64,14.85-3.82,.96-5.52,2.81-1.95,1.93,4.87-1.12,9.5-4.65,11.86-9.15,1.3-2.41,2.11-4.98,1.95-5.78-.24-.8-.16-1.61,.24-1.85,2.03-1.2-3.09-11.08-6.74-12.92-1.38-.72-2.76-1.61-3-1.93-.57-.88-7.39-1.52-9.75-.88Z"/>
  <path d="M172.33,417.1c-3.41,.64-8.2,3.93-10.48,7.14-1.95,2.73-2.27,3.85-2.27,8.91,0,4.65,.32,6.18,1.87,8.19,.97,1.28,1.79,2.73,1.79,3.05s1.87,1.69,4.14,2.97c3,1.61,5.28,2.25,8.12,2.25,4.47,0,10.31-2.97,12.99-6.58,1.71-2.33,3.41-8.83,2.27-8.83-.41,0-.73,.96-.73,2.17,0,4.49-5.68,10.67-10.31,11.32-1.22,.16-2.6,.56-3.09,.96s-1.38,.4-2.03,0c-.65-.48-1.95-.8-2.84-.8-4.87,0-11.78-8.83-11.78-15.01,0-5.14,4.3-11.24,9.01-13,1.54-.56,3.33-1.28,3.98-1.61,3.09-1.61,10.56,1.28,14.21,5.38,1.14,1.2,2.27,3.53,2.52,5.14,.49,2.81,2.76,6.1,2.76,3.93,0-.48-.41-.88-.89-.88s-.73-.88-.57-1.93c.24-2.25-3.9-9.07-6.01-9.79-.81-.24-1.95-.88-2.52-1.44-1.14-1.2-7.31-2.09-10.15-1.52Z"/>
  <path d="M224.55,417.1c-1.3,.24-2.6,.64-2.84,1.04-.24,.32-1.54,1.2-3,1.85-1.38,.72-2.76,2.09-3.09,2.97-.24,.88-.81,1.61-1.22,1.61-1.38,0-2.6,6.66-2.03,10.83,.89,6.82,6.17,12.52,13.07,14.05,3.98,.88,3.41-.56-.65-1.61-1.79-.56-4.22-1.52-5.36-2.25-2.84-1.85-5.85-6.9-6.42-11-.89-6.66,5.36-15.65,10.96-15.65,.89,0,1.87-.32,2.11-.72,.81-1.2,4.14-.48,9.83,1.93,2.68,1.2,5.93,5.06,6.9,8.35,.57,1.69,.65,1.77,.73,.48,.08-2.17-3.9-8.27-5.77-8.91-.81-.24-1.95-.88-2.52-1.44-1.22-1.2-7.15-2.01-10.72-1.52Z"/>
  <path d="M277.58,417.1c-1.71,.24-3.09,.72-3.09,1.2,0,.56,.89,.64,2.68,.24,3.98-.96,5.52-.72,10.07,1.2,6.17,2.57,8.77,6.66,8.77,13.64,0,6.34-2.11,10.03-7.23,12.92-6.09,3.37-16.16,1.69-19-3.21-1.46-2.65-4.06-4.41-2.68-1.85,1.46,2.73,7.23,7.79,7.96,7.06,.24-.24,.97-.08,1.54,.4,2.03,1.69,8.93,.96,12.91-1.28,2.03-1.2,3.65-2.65,3.65-3.21s.49-1.2,1.14-1.44c1.71-.64,3.25-8.51,2.6-13-.32-2.01-1.3-4.41-2.19-5.3-.81-.8-1.54-1.85-1.54-2.33,0-.4-1.22-1.36-2.6-2.09-1.46-.72-2.84-1.61-3.09-1.93-.57-.8-6.33-1.36-9.91-1.04Z"/>
  <path d="M328.9,417.1c-1.14,.24-2.36,.88-2.68,1.52s-1.06,1.12-1.54,1.12-1.71,.88-2.68,1.93c-1.46,1.61-1.62,2.09-.65,2.41,.65,.24,.89,.08,.65-.32-.49-.8,5.44-4.9,7.63-5.14,.65-.16,1.38-.64,1.54-1.12,.16-.56,.16-.88,0-.88-.08,.08-1.14,.32-2.27,.48Z"/>
  <path d="M334.5,417.74c1.46,.64,3.09,1.2,3.65,1.2,1.95,0,6.17,2.89,8.53,5.94,1.38,1.69,2.52,2.73,2.52,2.33s-.89-1.85-2.03-3.13-2.03-2.57-2.03-2.97c0-.32-.57-.56-1.22-.56-.57,0-1.54-.64-1.95-1.44-.49-.72-.89-1.04-.89-.64s-.49,.32-.97-.08c-.57-.48-2.68-1.04-4.71-1.36l-3.65-.48,2.76,1.2Z"/>
  <path d="M271.08,420.23c-1.3,.64-2.27,1.44-2.27,1.85,0,.32-.73,1.44-1.62,2.49s-1.62,2.49-1.62,3.21c0,.8-.16,2.65-.41,4.09-.24,2.01-.08,1.77,.65-.88,1.3-4.41,4.39-9.63,5.85-9.63,1.14,0,2.44-1.44,1.95-2.01-.16-.16-1.3,.24-2.52,.88Z"/>
  <path d="M318.83,425.85c-.24,.72-.49,2.09-.49,3.05s-.41,2.17-.97,2.73c-.65,.64-.65,1.2-.08,1.93,.49,.56,1.06,2.41,1.3,4.09,.89,5.46,7.71,11.4,13.56,11.8,4.3,.32,6.5,.08,6.5-.72,0-.4-2.19-.72-4.87-.56-2.68,.08-4.87-.08-4.87-.4s-1.14-.96-2.52-1.52-3.09-2.01-3.82-3.13-1.79-2.57-2.36-3.13c-1.62-1.69-1.71-11.08-.16-13.96,.49-.88,.49-1.44,0-1.44-.41,0-.97,.56-1.22,1.28Z"/>
  <path d="M240.38,442.7c-1.22,1.69-3.41,3.21-5.68,4.01-2.03,.72-4.22,1.52-4.87,1.77-.97,.32-.97,.48,.24,.72,.81,.24,2.11,.08,2.84-.24s1.54-.64,1.79-.72c2.44-.72,4.87-2.57,6.42-4.9,2.52-3.61,1.87-4.17-.73-.64Z"/>
</svg>