<?xml version="1.0" encoding="UTF-8"?>
<svg id="Layer_1" data-name="Layer 1" xmlns="http://www.w3.org/2000/svg" viewBox="0 0 1256.54 848.02">
  <defs>
    <style>
      .cls-1 {
        fill: #9fc3e9;
      }

      .cls-1, .cls-2, .cls-3, .cls-4, .cls-5, .cls-6, .cls-7, .cls-8 {
        stroke: #000;
        stroke-miterlimit: 10;
        stroke-width: 3px;
      }

      .cls-2 {
        fill: #b4d2e3;
      }

      .cls-3 {
        fill: #0a3463;
      }

      .cls-4 {
        fill: #078bc9;
      }

      .cls-5 {
        fill: #3592c3;
      }

      .cls-6 {
        fill: #5a93db;
      }

      .cls-7 {
        fill: #7dbfdd;
      }

      .cls-8 {
        fill: #008f9b;
      }
    </style>
  </defs>
  <g>
    <rect class="cls-6" x="151.77" y="155.43" width="100" height="150"/>
    <circle class="cls-6" cx="175.77" cy="280.43" r="15"/>
    <circle class="cls-6" cx="175.77" cy="229.43" r="15"/>
    <circle class="cls-6" cx="175.77" cy="180.43" r="15"/>
    <circle class="cls-6" cx="226.77" cy="280.43" r="15"/>
    <circle class="cls-6" cx="226.77" cy="229.43" r="15"/>
    <circle class="cls-6" cx="226.77" cy="180.43" r="15"/>
  </g>
  <rect class="cls-6" x="1.77" y="103.43" width="100" height="300"/>
  <circle class="cls-6" cx="25.77" cy="378.43" r="15"/>
  <circle class="cls-6" cx="25.77" cy="327.43" r="15"/>
  <circle class="cls-6" cx="25.77" cy="278.43" r="15"/>
  <circle class="cls-6" cx="76.77" cy="378.43" r="15"/>
  <circle class="cls-6" cx="76.77" cy="327.43" r="15"/>
  <circle class="cls-6" cx="76.77" cy="278.43" r="15"/>
  <circle class="cls-6" cx="25.77" cy="228.43" r="15"/>
  <circle class="cls-6" cx="25.77" cy="177.43" r="15"/>
  <circle class="cls-6" cx="25.77" cy="128.43" r="15"/>
  <circle class="cls-6" cx="76.77" cy="228.43" r="15"/>
  <circle class="cls-6" cx="76.77" cy="177.43" r="15"/>
  <circle class="cls-6" cx="76.77" cy="128.43" r="15"/>
  <path class="cls-6" d="M1.5,77.04v25.43H27.47c6.13-.3,13.77-.64,16.84-.64h7.19v-2.01c0-2.01,0-2,0-2.01-.03-1.2-.14-2.11-.24-2.94-.15-1.23-.37-2.43-.73-3.99-.84-3.68-1.92-7.19-4.01-11.28,0,0,0,0,0,0-3.76-7.24-9.57-13.44-17.33-18.48-4.18-2.71-6.93-4.25-9.75-5.29-2.33-.86-4.34-1.21-7.16-1.78-3.96-.79-7.4-1.18-10.09-1.56h0l-.68,24.57Z"/>
  <path class="cls-6" d="M1.77,28.43v24c.57,.13,1.44,.31,2.5,.5,1.76,.31,2.96,.38,3.5,.5,1.91,.44,3.59,1.05,5.94,2.13,12.11,5.57,22.19,9.94,29.36,20.16,4.87,6.94,6.16,10.25,8.76,22.48l.97,4.63h48.66v-6.28c0-3.47-1.14-10.74-2.43-16.03C88.64,39.2,53.29,7.64,13.22,4.33L1.71,3.18c.05,11.44,.06,19.71,.07,25.25Z"/>
  <g>
    <rect class="cls-6" x="101.77" y="203.43" width="50" height="50"/>
    <circle class="cls-6" cx="126.77" cy="228.43" r="15"/>
  </g>
  <g>
    <rect class="cls-6" x="101.77" y="353.43" width="50" height="50"/>
    <circle class="cls-6" cx="126.77" cy="378.43" r="15"/>
  </g>
  <path class="cls-6" d="M151.3,54.3h0c-2.69,.38-6.14,.77-10.09,1.56-2.82,.56-4.83,.92-7.16,1.78-2.83,1.04-5.57,2.58-9.75,5.29-7.76,5.04-13.57,11.24-17.33,18.48,0,0,0,0,0,0-2.08,4.09-3.17,7.6-4.01,11.28-.36,1.56-.57,2.77-.73,3.99-.11,.84-.22,1.74-.24,2.94,0,.02,0,0,0,2.01v2.01s0,0,1.03,0h1.03c1.51,0,5.13,0,5.14,0,3.06,0,10.7,.34,16.84,.64h25.97s0-25.43,0-25.43l-.68-24.57Z"/>
  <path class="cls-6" d="M151.22,127.94v25.43h25.97c6.13-.3,13.77-.64,16.84-.64h7.19v-2.01c0-2.01,0-2,0-2.01-.03-1.2-.14-2.11-.24-2.94-.15-1.23-.37-2.43-.73-3.99-.84-3.68-1.92-7.19-4.01-11.28,0,0,0,0,0,0-3.76-7.24-9.57-13.44-17.33-18.48-4.18-2.71-6.93-4.25-9.75-5.29-2.33-.86-4.34-1.21-7.16-1.78-3.96-.79-7.4-1.18-10.09-1.56h0l-.68,24.57Z"/>
  <path class="cls-6" d="M177.75,302.75h-25.43v25.97c.3,6.13,.64,13.77,.64,16.84v7.19h2.01c2.01,0,2,0,2.01,0,1.2-.03,2.11-.14,2.94-.24,1.23-.15,2.43-.37,3.99-.73,3.68-.84,7.19-1.92,11.28-4.01,0,0,0,0,0,0,7.24-3.76,13.44-9.57,18.48-17.33,2.71-4.18,4.25-6.93,5.29-9.75,.86-2.33,1.21-4.34,1.78-7.16,.79-3.96,1.18-7.4,1.56-10.09h0l-24.57-.68Z"/>
  <g>
    <rect class="cls-1" x="483.43" y="154.2" width="100" height="150"/>
    <circle class="cls-1" cx="507.43" cy="279.2" r="15"/>
    <circle class="cls-1" cx="507.43" cy="228.2" r="15"/>
    <circle class="cls-1" cx="507.43" cy="179.2" r="15"/>
    <circle class="cls-1" cx="558.43" cy="279.2" r="15"/>
    <circle class="cls-1" cx="558.43" cy="228.2" r="15"/>
    <circle class="cls-1" cx="558.43" cy="179.2" r="15"/>
  </g>
  <rect class="cls-1" x="331.77" y="103.43" width="100" height="300"/>
  <circle class="cls-1" cx="357.43" cy="377.2" r="15"/>
  <circle class="cls-1" cx="357.43" cy="326.2" r="15"/>
  <circle class="cls-1" cx="357.43" cy="277.2" r="15"/>
  <circle class="cls-1" cx="408.43" cy="377.2" r="15"/>
  <circle class="cls-1" cx="408.43" cy="326.2" r="15"/>
  <circle class="cls-1" cx="408.43" cy="277.2" r="15"/>
  <circle class="cls-1" cx="357.43" cy="227.2" r="15"/>
  <circle class="cls-1" cx="357.43" cy="176.2" r="15"/>
  <circle class="cls-1" cx="357.43" cy="127.2" r="15"/>
  <circle class="cls-1" cx="408.43" cy="227.2" r="15"/>
  <circle class="cls-1" cx="408.43" cy="176.2" r="15"/>
  <circle class="cls-1" cx="408.43" cy="127.2" r="15"/>
  <path class="cls-1" d="M332.16,75.8v25.43h25.97c6.13-.3,13.77-.64,16.84-.64h7.19v-2.01c0-2.01,0-2,0-2.01-.03-1.2-.14-2.11-.24-2.94-.15-1.23-.37-2.43-.73-3.99-.84-3.68-1.92-7.19-4.01-11.28,0,0,0,0,0,0-3.76-7.24-9.57-13.44-17.33-18.48-4.18-2.71-6.93-4.25-9.75-5.29-2.33-.86-4.34-1.21-7.16-1.78-3.96-.79-7.4-1.18-10.09-1.56h0l-.68,24.57Z"/>
  <g>
    <path class="cls-1" d="M333.85,26.57c.49,14.21,1.46,25.12,2.27,25.61,.97,.66,5.03,1.65,9.25,2.15,9.73,1.32,22.71,10.25,29.36,20.16,4.87,6.94,6.16,10.25,8.76,22.48l.97,4.63h48.66v-6.28c0-3.47-1.14-10.74-2.43-16.03-10.38-41.31-45.74-72.88-85.8-76.18l-11.52-1.16,.49,24.62Z"/>
    <path class="cls-1" d="M338.1,52.91h-4.99l.36-51.32c1.54,17.11,3.08,34.21,4.63,51.32Z"/>
  </g>
  <g>
    <rect class="cls-1" x="433.43" y="202.2" width="50" height="50"/>
    <circle class="cls-1" cx="458.43" cy="227.2" r="15"/>
  </g>
  <g>
    <rect class="cls-1" x="433.43" y="352.2" width="50" height="50"/>
    <circle class="cls-1" cx="458.43" cy="377.2" r="15"/>
  </g>
  <path class="cls-1" d="M482.95,53.07h0c-2.69,.38-6.14,.77-10.09,1.56-2.82,.56-4.83,.92-7.16,1.78-2.83,1.04-5.57,2.58-9.75,5.29-7.76,5.04-13.57,11.24-17.33,18.48,0,0,0,0,0,0-2.08,4.09-3.17,7.6-4.01,11.28-.36,1.56-.57,2.77-.73,3.99-.11,.84-.22,1.74-.24,2.94,0,.02,0,0,0,2.01v2.01s0,0,1.03,0h1.03c1.51,0,5.13,0,5.14,0,3.06,0,10.7,.34,16.84,.64h25.97s0-25.43,0-25.43l-.68-24.57Z"/>
  <path class="cls-1" d="M482.88,126.7v25.43h25.97c6.13-.3,13.77-.64,16.84-.64h7.19v-2.01c0-2.01,0-2,0-2.01-.03-1.2-.14-2.11-.24-2.94-.15-1.23-.37-2.43-.73-3.99-.84-3.68-1.92-7.19-4.01-11.28,0,0,0,0,0,0-3.76-7.24-9.57-13.44-17.33-18.48-4.18-2.71-6.93-4.25-9.75-5.29-2.33-.86-4.34-1.21-7.16-1.78-3.96-.79-7.4-1.18-10.09-1.56h0l-.68,24.57Z"/>
  <g>
    <path class="cls-1" d="M484.57,77.46c.49,14.21,1.46,25.12,2.27,25.61,.97,.66,5.03,1.65,9.25,2.15,9.73,1.32,22.71,10.25,29.36,20.16,4.87,6.94,6.16,10.25,8.76,22.48l.97,4.63h48.66v-6.28c0-3.47-1.14-10.74-2.43-16.03-10.38-41.31-45.74-72.88-85.8-76.18l-11.52-1.16,.49,24.62Z"/>
    <path class="cls-1" d="M488.83,103.81h-4.99l.36-51.32c1.54,17.11,3.08,34.21,4.63,51.32Z"/>
  </g>
  <path class="cls-1" d="M509.4,301.51h-25.43v25.97c.3,6.13,.64,13.77,.64,16.84v7.19h2.01c2.01,0,2,0,2.01,0,1.2-.03,2.11-.14,2.94-.24,1.23-.15,2.43-.37,3.99-.73,3.68-.84,7.19-1.92,11.28-4.01,0,0,0,0,0,0,7.24-3.76,13.44-9.57,18.48-17.33,2.71-4.18,4.25-6.93,5.29-9.75,.86-2.33,1.21-4.34,1.78-7.16,.79-3.96,1.18-7.4,1.56-10.09h0l-24.57-.68Z"/>
  <g>
    <path class="cls-1" d="M558.64,303.21c-14.21,.49-25.12,1.46-25.61,2.27-.66,.97-1.65,5.03-2.15,9.25-1.32,9.73-10.25,22.71-20.16,29.36-6.94,4.87-10.25,6.16-22.48,8.76l-4.63,.97v48.66h6.28c3.47,0,10.74-1.14,16.03-2.43,41.31-10.38,72.88-45.74,76.18-85.8l1.16-11.52-24.62,.49Z"/>
    <path class="cls-1" d="M532.3,307.46v-4.99l51.32,.36c-17.11,1.54-34.21,3.08-51.32,4.63Z"/>
  </g>
  <path class="cls-6" d="M226.52,303.67h-24c-.13,.57-.31,1.44-.5,2.5-.31,1.76-.38,2.96-.5,3.5-.44,1.91-1.05,3.59-2.13,5.94-5.57,12.11-9.94,22.19-20.16,29.36-6.94,4.87-10.25,6.16-22.48,8.76l-4.63,.97v48.66h6.28c3.47,0,10.74-1.14,16.03-2.43,41.31-10.38,72.88-45.74,76.18-85.8l1.16-11.52c-11.44,.05-19.71,.06-25.25,.07Z"/>
  <path class="cls-6" d="M151.14,79.91v24c.57,.13,1.44,.31,2.5,.5,1.76,.31,2.96,.38,3.5,.5,1.91,.44,3.59,1.05,5.94,2.13,12.11,5.57,22.19,9.94,29.36,20.16,4.87,6.94,6.16,10.25,8.76,22.48l.97,4.63h48.66v-6.28c0-3.47-1.14-10.74-2.43-16.03-10.38-41.31-45.74-72.88-85.8-76.18l-11.52-1.16c.05,11.44,.06,19.71,.07,25.25Z"/>
  <g>
    <rect class="cls-2" x="817.94" y="155.31" width="100" height="150"/>
    <circle class="cls-2" cx="841.94" cy="280.31" r="15"/>
    <circle class="cls-2" cx="841.94" cy="229.31" r="15"/>
    <circle class="cls-2" cx="841.94" cy="180.31" r="15"/>
    <circle class="cls-2" cx="892.94" cy="280.31" r="15"/>
    <circle class="cls-2" cx="892.94" cy="229.31" r="15"/>
    <circle class="cls-2" cx="892.94" cy="180.31" r="15"/>
  </g>
  <rect class="cls-2" x="666.28" y="104.54" width="100" height="300"/>
  <circle class="cls-2" cx="691.94" cy="378.31" r="15"/>
  <circle class="cls-2" cx="691.94" cy="327.31" r="15"/>
  <circle class="cls-2" cx="691.94" cy="278.31" r="15"/>
  <circle class="cls-2" cx="742.94" cy="378.31" r="15"/>
  <circle class="cls-2" cx="742.94" cy="327.31" r="15"/>
  <circle class="cls-2" cx="742.94" cy="278.31" r="15"/>
  <circle class="cls-2" cx="691.94" cy="228.31" r="15"/>
  <circle class="cls-2" cx="691.94" cy="177.31" r="15"/>
  <circle class="cls-2" cx="691.94" cy="128.31" r="15"/>
  <circle class="cls-2" cx="742.94" cy="228.31" r="15"/>
  <circle class="cls-2" cx="742.94" cy="177.31" r="15"/>
  <circle class="cls-2" cx="742.94" cy="128.31" r="15"/>
  <path class="cls-2" d="M666.67,76.91v25.43h25.97c6.13-.3,13.77-.64,16.84-.64h7.19v-2.01c0-2.01,0-2,0-2.01-.03-1.2-.14-2.11-.24-2.94-.15-1.23-.37-2.43-.73-3.99-.84-3.68-1.92-7.19-4.01-11.28,0,0,0,0,0,0-3.76-7.24-9.57-13.44-17.33-18.48-4.18-2.71-6.93-4.25-9.75-5.29-2.33-.86-4.34-1.21-7.16-1.78-3.96-.79-7.4-1.18-10.09-1.56h0l-.68,24.57Z"/>
  <g>
    <path class="cls-2" d="M668.36,27.68c.49,14.21,1.46,25.12,2.27,25.61,.97,.66,5.03,1.65,9.25,2.15,9.73,1.32,22.71,10.25,29.36,20.16,4.87,6.94,6.16,10.25,8.76,22.48l.97,4.63h48.66v-6.28c0-3.47-1.14-10.74-2.43-16.03-10.38-41.31-45.74-72.88-85.8-76.18l-11.52-1.16,.49,24.62Z"/>
    <path class="cls-2" d="M672.61,54.02h-4.99l.36-51.32c1.54,17.11,3.08,34.21,4.63,51.32Z"/>
  </g>
  <g>
    <rect class="cls-2" x="767.94" y="203.31" width="50" height="50"/>
    <circle class="cls-2" cx="792.94" cy="228.31" r="15"/>
  </g>
  <g>
    <rect class="cls-2" x="767.94" y="353.31" width="50" height="50"/>
    <circle class="cls-2" cx="792.94" cy="378.31" r="15"/>
  </g>
  <path class="cls-2" d="M817.46,54.18h0c-2.69,.38-6.14,.77-10.09,1.56-2.82,.56-4.83,.92-7.16,1.78-2.83,1.04-5.57,2.58-9.75,5.29-7.76,5.04-13.57,11.24-17.33,18.48,0,0,0,0,0,0-2.08,4.09-3.17,7.6-4.01,11.28-.36,1.56-.57,2.77-.73,3.99-.11,.84-.22,1.74-.24,2.94,0,.02,0,0,0,2.01v2.01s0,0,1.03,0h1.03c1.51,0,5.13,0,5.14,0,3.06,0,10.7,.34,16.84,.64h25.97s0-25.43,0-25.43l-.68-24.57Z"/>
  <path class="cls-2" d="M817.39,127.81v25.43h25.97c6.13-.3,13.77-.64,16.84-.64h7.19v-2.01c0-2.01,0-2,0-2.01-.03-1.2-.14-2.11-.24-2.94-.15-1.23-.37-2.43-.73-3.99-.84-3.68-1.92-7.19-4.01-11.28,0,0,0,0,0,0-3.76-7.24-9.57-13.44-17.33-18.48-4.18-2.71-6.93-4.25-9.75-5.29-2.33-.86-4.34-1.21-7.16-1.78-3.96-.79-7.4-1.18-10.09-1.56h0l-.68,24.57Z"/>
  <g>
    <path class="cls-2" d="M819.09,78.57c.49,14.21,1.46,25.12,2.27,25.61,.97,.66,5.03,1.65,9.25,2.15,9.73,1.32,22.71,10.25,29.36,20.16,4.87,6.94,6.16,10.25,8.76,22.48l.97,4.63h48.66v-6.28c0-3.47-1.14-10.74-2.43-16.03-10.38-41.31-45.74-72.88-85.8-76.18l-11.52-1.16,.49,24.62Z"/>
    <path class="cls-2" d="M823.34,104.92h-4.99l.36-51.32c1.54,17.11,3.08,34.21,4.63,51.32Z"/>
  </g>
  <path class="cls-2" d="M843.92,302.62h-25.43v25.97c.3,6.13,.64,13.77,.64,16.84v7.19h2.01c2.01,0,2,0,2.01,0,1.2-.03,2.11-.14,2.94-.24,1.23-.15,2.43-.37,3.99-.73,3.68-.84,7.19-1.92,11.28-4.01,0,0,0,0,0,0,7.24-3.76,13.44-9.57,18.48-17.33,2.71-4.18,4.25-6.93,5.29-9.75,.86-2.33,1.21-4.34,1.78-7.16,.79-3.96,1.18-7.4,1.56-10.09h0l-24.57-.68Z"/>
  <g>
    <path class="cls-2" d="M893.15,304.32c-14.21,.49-25.12,1.46-25.61,2.27-.66,.97-1.65,5.03-2.15,9.25-1.32,9.73-10.25,22.71-20.16,29.36-6.94,4.87-10.25,6.16-22.48,8.76l-4.63,.97v48.66h6.28c3.47,0,10.74-1.14,16.03-2.43,41.31-10.38,72.88-45.74,76.18-85.8l1.16-11.52-24.62,.49Z"/>
    <path class="cls-2" d="M866.81,308.57v-4.99l51.32,.36c-17.11,1.54-34.21,3.08-51.32,4.63Z"/>
  </g>
  <g>
    <rect class="cls-5" x="1154.55" y="153.92" width="100" height="150"/>
    <circle class="cls-5" cx="1178.55" cy="278.92" r="15"/>
    <circle class="cls-5" cx="1178.55" cy="227.92" r="15"/>
    <circle class="cls-5" cx="1178.55" cy="178.92" r="15"/>
    <circle class="cls-5" cx="1229.55" cy="278.92" r="15"/>
    <circle class="cls-5" cx="1229.55" cy="227.92" r="15"/>
    <circle class="cls-5" cx="1229.55" cy="178.92" r="15"/>
  </g>
  <rect class="cls-5" x="1002.9" y="103.15" width="100" height="300"/>
  <circle class="cls-5" cx="1028.55" cy="376.92" r="15"/>
  <circle class="cls-5" cx="1028.55" cy="325.92" r="15"/>
  <circle class="cls-5" cx="1028.55" cy="276.92" r="15"/>
  <circle class="cls-5" cx="1079.55" cy="376.92" r="15"/>
  <circle class="cls-5" cx="1079.55" cy="325.92" r="15"/>
  <circle class="cls-5" cx="1079.55" cy="276.92" r="15"/>
  <circle class="cls-5" cx="1028.55" cy="226.92" r="15"/>
  <circle class="cls-5" cx="1028.55" cy="175.92" r="15"/>
  <circle class="cls-5" cx="1028.55" cy="126.92" r="15"/>
  <circle class="cls-5" cx="1079.55" cy="226.92" r="15"/>
  <circle class="cls-5" cx="1079.55" cy="175.92" r="15"/>
  <circle class="cls-5" cx="1079.55" cy="126.92" r="15"/>
  <path class="cls-5" d="M1003.28,75.52v25.43h25.97c6.13-.3,13.77-.64,16.84-.64h7.19v-2.01c0-2.01,0-2,0-2.01-.03-1.2-.14-2.11-.24-2.94-.15-1.23-.37-2.43-.73-3.99-.84-3.68-1.92-7.19-4.01-11.28,0,0,0,0,0,0-3.76-7.24-9.57-13.44-17.33-18.48-4.18-2.71-6.93-4.25-9.75-5.29-2.33-.86-4.34-1.21-7.16-1.78-3.96-.79-7.4-1.18-10.09-1.56h0l-.68,24.57Z"/>
  <g>
    <path class="cls-5" d="M1004.97,26.29c.49,14.21,1.46,25.12,2.27,25.61,.97,.66,5.03,1.65,9.25,2.15,9.73,1.32,22.71,10.25,29.36,20.16,4.87,6.94,6.16,10.25,8.76,22.48l.97,4.63h48.66v-6.28c0-3.47-1.14-10.74-2.43-16.03-10.38-41.31-45.74-72.88-85.8-76.18l-11.52-1.16,.49,24.62Z"/>
    <path class="cls-5" d="M1009.22,52.63h-4.99l.36-51.32c1.54,17.11,3.08,34.21,4.63,51.32Z"/>
  </g>
  <g>
    <rect class="cls-5" x="1104.55" y="201.92" width="50" height="50"/>
    <circle class="cls-5" cx="1129.55" cy="226.92" r="15"/>
  </g>
  <g>
    <rect class="cls-5" x="1104.55" y="351.92" width="50" height="50"/>
    <circle class="cls-5" cx="1129.55" cy="376.92" r="15"/>
  </g>
  <path class="cls-5" d="M1154.08,52.79h0c-2.69,.38-6.14,.77-10.09,1.56-2.82,.56-4.83,.92-7.16,1.78-2.83,1.04-5.57,2.58-9.75,5.29-7.76,5.04-13.57,11.24-17.33,18.48,0,0,0,0,0,0-2.08,4.09-3.17,7.6-4.01,11.28-.36,1.56-.57,2.77-.73,3.99-.11,.84-.22,1.74-.24,2.94,0,.02,0,0,0,2.01v2.01s0,0,1.03,0h1.03c1.51,0,5.13,0,5.14,0,3.06,0,10.7,.34,16.84,.64h25.97s0-25.43,0-25.43l-.68-24.57Z"/>
  <path class="cls-5" d="M1154.01,126.42v25.43h25.97c6.13-.3,13.77-.64,16.84-.64h7.19v-2.01c0-2.01,0-2,0-2.01-.03-1.2-.14-2.11-.24-2.94-.15-1.23-.37-2.43-.73-3.99-.84-3.68-1.92-7.19-4.01-11.28,0,0,0,0,0,0-3.76-7.24-9.57-13.44-17.33-18.48-4.18-2.71-6.93-4.25-9.75-5.29-2.33-.86-4.34-1.21-7.16-1.78-3.96-.79-7.4-1.18-10.09-1.56h0l-.68,24.57Z"/>
  <g>
    <path class="cls-5" d="M1155.7,77.18c.49,14.21,1.46,25.12,2.27,25.61,.97,.66,5.03,1.65,9.25,2.15,9.73,1.32,22.71,10.25,29.36,20.16,4.87,6.94,6.16,10.25,8.76,22.48l.97,4.63h48.66v-6.28c0-3.47-1.14-10.74-2.43-16.03-10.38-41.31-45.74-72.88-85.8-76.18l-11.52-1.16,.49,24.62Z"/>
    <path class="cls-5" d="M1159.95,103.53h-4.99l.36-51.32c1.54,17.11,3.08,34.21,4.63,51.32Z"/>
  </g>
  <path class="cls-5" d="M1180.53,301.23h-25.43v25.97c.3,6.13,.64,13.77,.64,16.84v7.19h2.01c2.01,0,2,0,2.01,0,1.2-.03,2.11-.14,2.94-.24,1.23-.15,2.43-.37,3.99-.73,3.68-.84,7.19-1.92,11.28-4.01,0,0,0,0,0,0,7.24-3.76,13.44-9.57,18.48-17.33,2.71-4.18,4.25-6.93,5.29-9.75,.86-2.33,1.21-4.34,1.78-7.16,.79-3.96,1.18-7.4,1.56-10.09h0l-24.57-.68Z"/>
  <g>
    <path class="cls-5" d="M1229.77,302.93c-14.21,.49-25.12,1.46-25.61,2.27-.66,.97-1.65,5.03-2.15,9.25-1.32,9.73-10.25,22.71-20.16,29.36-6.94,4.87-10.25,6.16-22.48,8.76l-4.63,.97v48.66h6.28c3.47,0,10.74-1.14,16.03-2.43,41.31-10.38,72.88-45.74,76.18-85.8l1.16-11.52-24.62,.49Z"/>
    <path class="cls-5" d="M1203.42,307.18v-4.99l51.32,.36c-17.11,1.54-34.21,3.08-51.32,4.63Z"/>
  </g>
  <g>
    <rect class="cls-3" x="151.85" y="597.41" width="100" height="150"/>
    <circle class="cls-3" cx="175.85" cy="722.41" r="15"/>
    <circle class="cls-3" cx="175.85" cy="671.41" r="15"/>
    <circle class="cls-3" cx="175.85" cy="622.41" r="15"/>
    <circle class="cls-3" cx="226.85" cy="722.41" r="15"/>
    <circle class="cls-3" cx="226.85" cy="671.41" r="15"/>
    <circle class="cls-3" cx="226.85" cy="622.41" r="15"/>
  </g>
  <rect class="cls-3" x="1.85" y="545.41" width="100" height="300"/>
  <circle class="cls-3" cx="25.85" cy="820.41" r="15"/>
  <circle class="cls-3" cx="25.85" cy="769.41" r="15"/>
  <circle class="cls-3" cx="25.85" cy="720.41" r="15"/>
  <circle class="cls-3" cx="76.85" cy="820.41" r="15"/>
  <circle class="cls-3" cx="76.85" cy="769.41" r="15"/>
  <circle class="cls-3" cx="76.85" cy="720.41" r="15"/>
  <circle class="cls-3" cx="25.85" cy="670.41" r="15"/>
  <circle class="cls-3" cx="25.85" cy="619.41" r="15"/>
  <circle class="cls-3" cx="25.85" cy="570.41" r="15"/>
  <circle class="cls-3" cx="76.85" cy="670.41" r="15"/>
  <circle class="cls-3" cx="76.85" cy="619.41" r="15"/>
  <circle class="cls-3" cx="76.85" cy="570.41" r="15"/>
  <path class="cls-3" d="M1.58,519.02v25.43H27.55c6.13-.3,13.77-.64,16.84-.64h7.19v-2.01c0-2.01,0-2,0-2.01-.03-1.2-.14-2.11-.24-2.94-.15-1.23-.37-2.43-.73-3.99-.84-3.68-1.92-7.19-4.01-11.28,0,0,0,0,0,0-3.76-7.24-9.57-13.44-17.33-18.48-4.18-2.71-6.93-4.25-9.75-5.29-2.33-.86-4.34-1.21-7.16-1.78-3.96-.79-7.4-1.18-10.09-1.56h0l-.68,24.57Z"/>
  <path class="cls-3" d="M1.85,470.41v24c.57,.13,1.44,.31,2.5,.5,1.76,.31,2.96,.38,3.5,.5,1.91,.44,3.59,1.05,5.94,2.13,12.11,5.57,22.19,9.94,29.36,20.16,4.87,6.94,6.16,10.25,8.76,22.48l.97,4.63h48.66v-6.28c0-3.47-1.14-10.74-2.43-16.03-10.38-41.31-45.74-72.88-85.8-76.18l-11.52-1.16c.05,11.44,.06,19.71,.07,25.25Z"/>
  <g>
    <rect class="cls-3" x="101.85" y="645.41" width="50" height="50"/>
    <circle class="cls-3" cx="126.85" cy="670.41" r="15"/>
  </g>
  <g>
    <rect class="cls-3" x="101.85" y="795.41" width="50" height="50"/>
    <circle class="cls-3" cx="126.85" cy="820.41" r="15"/>
  </g>
  <path class="cls-3" d="M151.37,496.28h0c-2.69,.38-6.14,.77-10.09,1.56-2.82,.56-4.83,.92-7.16,1.78-2.83,1.04-5.57,2.58-9.75,5.29-7.76,5.04-13.57,11.24-17.33,18.48,0,0,0,0,0,0-2.08,4.09-3.17,7.6-4.01,11.28-.36,1.56-.57,2.77-.73,3.99-.11,.84-.22,1.74-.24,2.94,0,.02,0,0,0,2.01v2.01s0,0,1.03,0h1.03c1.51,0,5.13,0,5.14,0,3.06,0,10.7,.34,16.84,.64h25.97s0-25.43,0-25.43l-.68-24.57Z"/>
  <path class="cls-3" d="M151.3,569.91v25.43h25.97c6.13-.3,13.77-.64,16.84-.64h7.19v-2.01c0-2.01,0-2,0-2.01-.03-1.2-.14-2.11-.24-2.94-.15-1.23-.37-2.43-.73-3.99-.84-3.68-1.92-7.19-4.01-11.28,0,0,0,0,0,0-3.76-7.24-9.57-13.44-17.33-18.48-4.18-2.71-6.93-4.25-9.75-5.29-2.33-.86-4.34-1.21-7.16-1.78-3.96-.79-7.4-1.18-10.09-1.56h0l-.68,24.57Z"/>
  <path class="cls-3" d="M177.82,744.73h-25.43v25.97c.3,6.13,.64,13.77,.64,16.84v7.19h2.01c2.01,0,2,0,2.01,0,1.2-.03,2.11-.14,2.94-.24,1.23-.15,2.43-.37,3.99-.73,3.68-.84,7.19-1.92,11.28-4.01,0,0,0,0,0,0,7.24-3.76,13.44-9.57,18.48-17.33,2.71-4.18,4.25-6.93,5.29-9.75,.86-2.33,1.21-4.34,1.78-7.16,.79-3.96,1.18-7.4,1.56-10.09h0l-24.57-.68Z"/>
  <g>
    <rect class="cls-4" x="483.5" y="596.18" width="100" height="150"/>
    <circle class="cls-4" cx="507.5" cy="721.18" r="15"/>
    <circle class="cls-4" cx="507.5" cy="670.18" r="15"/>
    <circle class="cls-4" cx="507.5" cy="621.18" r="15"/>
    <circle class="cls-4" cx="558.5" cy="721.18" r="15"/>
    <circle class="cls-4" cx="558.5" cy="670.18" r="15"/>
    <circle class="cls-4" cx="558.5" cy="621.18" r="15"/>
  </g>
  <rect class="cls-4" x="331.85" y="545.41" width="100" height="300"/>
  <circle class="cls-4" cx="357.5" cy="819.18" r="15"/>
  <circle class="cls-4" cx="357.5" cy="768.18" r="15"/>
  <circle class="cls-4" cx="357.5" cy="719.18" r="15"/>
  <circle class="cls-4" cx="408.5" cy="819.18" r="15"/>
  <circle class="cls-4" cx="408.5" cy="768.18" r="15"/>
  <circle class="cls-4" cx="408.5" cy="719.18" r="15"/>
  <circle class="cls-4" cx="357.5" cy="669.18" r="15"/>
  <circle class="cls-4" cx="357.5" cy="618.18" r="15"/>
  <circle class="cls-4" cx="357.5" cy="569.18" r="15"/>
  <circle class="cls-4" cx="408.5" cy="669.18" r="15"/>
  <circle class="cls-4" cx="408.5" cy="618.18" r="15"/>
  <circle class="cls-4" cx="408.5" cy="569.18" r="15"/>
  <path class="cls-4" d="M332.23,517.78v25.43h25.97c6.13-.3,13.77-.64,16.84-.64h7.19v-2.01c0-2.01,0-2,0-2.01-.03-1.2-.14-2.11-.24-2.94-.15-1.23-.37-2.43-.73-3.99-.84-3.68-1.92-7.19-4.01-11.28,0,0,0,0,0,0-3.76-7.24-9.57-13.44-17.33-18.48-4.18-2.71-6.93-4.25-9.75-5.29-2.33-.86-4.34-1.21-7.16-1.78-3.96-.79-7.4-1.18-10.09-1.56h0l-.68,24.57Z"/>
  <g>
    <path class="cls-4" d="M333.92,468.54c.49,14.21,1.46,25.12,2.27,25.61,.97,.66,5.03,1.65,9.25,2.15,9.73,1.32,22.71,10.25,29.36,20.16,4.87,6.94,6.16,10.25,8.76,22.48l.97,4.63h48.66v-6.28c0-3.47-1.14-10.74-2.43-16.03-10.38-41.31-45.74-72.88-85.8-76.18l-11.52-1.16,.49,24.62Z"/>
    <path class="cls-4" d="M338.18,494.89h-4.99l.36-51.32c1.54,17.11,3.08,34.21,4.63,51.32Z"/>
  </g>
  <g>
    <rect class="cls-4" x="433.5" y="644.18" width="50" height="50"/>
    <circle class="cls-4" cx="458.5" cy="669.18" r="15"/>
  </g>
  <g>
    <rect class="cls-4" x="433.5" y="794.18" width="50" height="50"/>
    <circle class="cls-4" cx="458.5" cy="819.18" r="15"/>
  </g>
  <path class="cls-4" d="M483.03,495.05h0c-2.69,.38-6.14,.77-10.09,1.56-2.82,.56-4.83,.92-7.16,1.78-2.83,1.04-5.57,2.58-9.75,5.29-7.76,5.04-13.57,11.24-17.33,18.48,0,0,0,0,0,0-2.08,4.09-3.17,7.6-4.01,11.28-.36,1.56-.57,2.77-.73,3.99-.11,.84-.22,1.74-.24,2.94,0,.02,0,0,0,2.01v2.01s0,0,1.03,0h1.03c1.51,0,5.13,0,5.14,0,3.06,0,10.7,.34,16.84,.64h25.97s0-25.43,0-25.43l-.68-24.57Z"/>
  <path class="cls-4" d="M482.96,568.68v25.43h25.97c6.13-.3,13.77-.64,16.84-.64h7.19v-2.01c0-2.01,0-2,0-2.01-.03-1.2-.14-2.11-.24-2.94-.15-1.23-.37-2.43-.73-3.99-.84-3.68-1.92-7.19-4.01-11.28,0,0,0,0,0,0-3.76-7.24-9.57-13.44-17.33-18.48-4.18-2.71-6.93-4.25-9.75-5.29-2.33-.86-4.34-1.21-7.16-1.78-3.96-.79-7.4-1.18-10.09-1.56h0l-.68,24.57Z"/>
  <g>
    <path class="cls-4" d="M484.65,519.44c.49,14.21,1.46,25.12,2.27,25.61,.97,.66,5.03,1.65,9.25,2.15,9.73,1.32,22.71,10.25,29.36,20.16,4.87,6.94,6.16,10.25,8.76,22.48l.97,4.63h48.66v-6.28c0-3.47-1.14-10.74-2.43-16.03-10.38-41.31-45.74-72.88-85.8-76.18l-11.52-1.16,.49,24.62Z"/>
    <path class="cls-4" d="M488.9,545.79h-4.99l.36-51.32c1.54,17.11,3.08,34.21,4.63,51.32Z"/>
  </g>
  <path class="cls-4" d="M509.48,743.49h-25.43v25.97c.3,6.13,.64,13.77,.64,16.84v7.19h2.01c2.01,0,2,0,2.01,0,1.2-.03,2.11-.14,2.94-.24,1.23-.15,2.43-.37,3.99-.73,3.68-.84,7.19-1.92,11.28-4.01,0,0,0,0,0,0,7.24-3.76,13.44-9.57,18.48-17.33,2.71-4.18,4.25-6.93,5.29-9.75,.86-2.33,1.21-4.34,1.78-7.16,.79-3.96,1.18-7.4,1.56-10.09h0l-24.57-.68Z"/>
  <g>
    <path class="cls-4" d="M558.72,745.19c-14.21,.49-25.12,1.46-25.61,2.27-.66,.97-1.65,5.03-2.15,9.25-1.32,9.73-10.25,22.71-20.16,29.36-6.94,4.87-10.25,6.16-22.48,8.76l-4.63,.97v48.66h6.28c3.47,0,10.74-1.14,16.03-2.43,41.31-10.38,72.88-45.74,76.18-85.8l1.16-11.52-24.62,.49Z"/>
    <path class="cls-4" d="M532.37,749.44v-4.99l51.32,.36c-17.11,1.54-34.21,3.08-51.32,4.63Z"/>
  </g>
  <path class="cls-3" d="M226.6,745.65h-24c-.13,.57-.31,1.44-.5,2.5-.31,1.76-.38,2.96-.5,3.5-.44,1.91-1.05,3.59-2.13,5.94-5.57,12.11-9.94,22.19-20.16,29.36-6.94,4.87-10.25,6.16-22.48,8.76l-4.63,.97v48.66h6.28c3.47,0,10.74-1.14,16.03-2.43,41.31-10.38,72.88-45.74,76.18-85.8l1.16-11.52c-11.44,.05-19.71,.06-25.25,.07Z"/>
  <path class="cls-3" d="M151.22,521.89v24c.57,.13,1.44,.31,2.5,.5,1.76,.31,2.96,.38,3.5,.5,1.91,.44,3.59,1.05,5.94,2.13,12.11,5.57,22.19,9.94,29.36,20.16,4.87,6.94,6.16,10.25,8.76,22.48l.97,4.63h48.66v-6.28c0-3.47-1.14-10.74-2.43-16.03-10.38-41.31-45.74-72.88-85.8-76.18l-11.52-1.16c.05,11.44,.06,19.71,.07,25.25Z"/>
  <g>
    <rect class="cls-7" x="818.01" y="597.29" width="100" height="150"/>
    <circle class="cls-7" cx="842.01" cy="722.29" r="15"/>
    <circle class="cls-7" cx="842.01" cy="671.29" r="15"/>
    <circle class="cls-7" cx="842.01" cy="622.29" r="15"/>
    <circle class="cls-7" cx="893.01" cy="722.29" r="15"/>
    <circle class="cls-7" cx="893.01" cy="671.29" r="15"/>
    <circle class="cls-7" cx="893.01" cy="622.29" r="15"/>
  </g>
  <rect class="cls-7" x="666.36" y="546.52" width="100" height="300"/>
  <circle class="cls-7" cx="692.01" cy="820.29" r="15"/>
  <circle class="cls-7" cx="692.01" cy="769.29" r="15"/>
  <circle class="cls-7" cx="692.01" cy="720.29" r="15"/>
  <circle class="cls-7" cx="743.01" cy="820.29" r="15"/>
  <circle class="cls-7" cx="743.01" cy="769.29" r="15"/>
  <circle class="cls-7" cx="743.01" cy="720.29" r="15"/>
  <circle class="cls-7" cx="692.01" cy="670.29" r="15"/>
  <circle class="cls-7" cx="692.01" cy="619.29" r="15"/>
  <circle class="cls-7" cx="692.01" cy="570.29" r="15"/>
  <circle class="cls-7" cx="743.01" cy="670.29" r="15"/>
  <circle class="cls-7" cx="743.01" cy="619.29" r="15"/>
  <circle class="cls-7" cx="743.01" cy="570.29" r="15"/>
  <path class="cls-7" d="M666.74,518.89v25.43h25.97c6.13-.3,13.77-.64,16.84-.64h7.19v-2.01c0-2.01,0-2,0-2.01-.03-1.2-.14-2.11-.24-2.94-.15-1.23-.37-2.43-.73-3.99-.84-3.68-1.92-7.19-4.01-11.28,0,0,0,0,0,0-3.76-7.24-9.57-13.44-17.33-18.48-4.18-2.71-6.93-4.25-9.75-5.29-2.33-.86-4.34-1.21-7.16-1.78-3.96-.79-7.4-1.18-10.09-1.56h0l-.68,24.57Z"/>
  <g>
    <path class="cls-7" d="M668.44,469.66c.49,14.21,1.46,25.12,2.27,25.61,.97,.66,5.03,1.65,9.25,2.15,9.73,1.32,22.71,10.25,29.36,20.16,4.87,6.94,6.16,10.25,8.76,22.48l.97,4.63h48.66v-6.28c0-3.47-1.14-10.74-2.43-16.03-10.38-41.31-45.74-72.88-85.8-76.18l-11.52-1.16,.49,24.62Z"/>
    <path class="cls-7" d="M672.69,496h-4.99l.36-51.32c1.54,17.11,3.08,34.21,4.63,51.32Z"/>
  </g>
  <g>
    <rect class="cls-7" x="768.01" y="645.29" width="50" height="50"/>
    <circle class="cls-7" cx="793.01" cy="670.29" r="15"/>
  </g>
  <g>
    <rect class="cls-7" x="768.01" y="795.29" width="50" height="50"/>
    <circle class="cls-7" cx="793.01" cy="820.29" r="15"/>
  </g>
  <path class="cls-7" d="M817.54,496.16h0c-2.69,.38-6.14,.77-10.09,1.56-2.82,.56-4.83,.92-7.16,1.78-2.83,1.04-5.57,2.58-9.75,5.29-7.76,5.04-13.57,11.24-17.33,18.48,0,0,0,0,0,0-2.08,4.09-3.17,7.6-4.01,11.28-.36,1.56-.57,2.77-.73,3.99-.11,.84-.22,1.74-.24,2.94,0,.02,0,0,0,2.01v2.01s0,0,1.03,0h1.03c1.51,0,5.13,0,5.14,0,3.06,0,10.7,.34,16.84,.64h25.97s0-25.43,0-25.43l-.68-24.57Z"/>
  <path class="cls-7" d="M817.47,569.79v25.43h25.97c6.13-.3,13.77-.64,16.84-.64h7.19v-2.01c0-2.01,0-2,0-2.01-.03-1.2-.14-2.11-.24-2.94-.15-1.23-.37-2.43-.73-3.99-.84-3.68-1.92-7.19-4.01-11.28,0,0,0,0,0,0-3.76-7.24-9.57-13.44-17.33-18.48-4.18-2.71-6.93-4.25-9.75-5.29-2.33-.86-4.34-1.21-7.16-1.78-3.96-.79-7.4-1.18-10.09-1.56h0l-.68,24.57Z"/>
  <g>
    <path class="cls-7" d="M819.16,520.55c.49,14.21,1.46,25.12,2.27,25.61,.97,.66,5.03,1.65,9.25,2.15,9.73,1.32,22.71,10.25,29.36,20.16,4.87,6.94,6.16,10.25,8.76,22.48l.97,4.63h48.66v-6.28c0-3.47-1.14-10.74-2.43-16.03-10.38-41.31-45.74-72.88-85.8-76.18l-11.52-1.16,.49,24.62Z"/>
    <path class="cls-7" d="M823.41,546.9h-4.99l.36-51.32c1.54,17.11,3.08,34.21,4.63,51.32Z"/>
  </g>
  <path class="cls-7" d="M843.99,744.6h-25.43v25.97c.3,6.13,.64,13.77,.64,16.84v7.19h2.01c2.01,0,2,0,2.01,0,1.2-.03,2.11-.14,2.94-.24,1.23-.15,2.43-.37,3.99-.73,3.68-.84,7.19-1.92,11.28-4.01,0,0,0,0,0,0,7.24-3.76,13.44-9.57,18.48-17.33,2.71-4.18,4.25-6.93,5.29-9.75,.86-2.33,1.21-4.34,1.78-7.16,.79-3.96,1.18-7.4,1.56-10.09h0l-24.57-.68Z"/>
  <g>
    <path class="cls-7" d="M893.23,746.3c-14.21,.49-25.12,1.46-25.61,2.27-.66,.97-1.65,5.03-2.15,9.25-1.32,9.73-10.25,22.71-20.16,29.36-6.94,4.87-10.25,6.16-22.48,8.76l-4.63,.97v48.66h6.28c3.47,0,10.74-1.14,16.03-2.43,41.31-10.38,72.88-45.74,76.18-85.8l1.16-11.52-24.62,.49Z"/>
    <path class="cls-7" d="M866.88,750.55v-4.99l51.32,.36c-17.11,1.54-34.21,3.08-51.32,4.63Z"/>
  </g>
  <g>
    <rect class="cls-8" x="1154.63" y="595.89" width="100" height="150"/>
    <circle class="cls-8" cx="1178.63" cy="720.89" r="15"/>
    <circle class="cls-8" cx="1178.63" cy="669.89" r="15"/>
    <circle class="cls-8" cx="1178.63" cy="620.89" r="15"/>
    <circle class="cls-8" cx="1229.63" cy="720.89" r="15"/>
    <circle class="cls-8" cx="1229.63" cy="669.89" r="15"/>
    <circle class="cls-8" cx="1229.63" cy="620.89" r="15"/>
  </g>
  <rect class="cls-8" x="1002.97" y="545.13" width="100" height="300"/>
  <circle class="cls-8" cx="1028.63" cy="818.89" r="15"/>
  <circle class="cls-8" cx="1028.63" cy="767.89" r="15"/>
  <circle class="cls-8" cx="1028.63" cy="718.89" r="15"/>
  <circle class="cls-8" cx="1079.63" cy="818.89" r="15"/>
  <circle class="cls-8" cx="1079.63" cy="767.89" r="15"/>
  <circle class="cls-8" cx="1079.63" cy="718.89" r="15"/>
  <circle class="cls-8" cx="1028.63" cy="668.89" r="15"/>
  <circle class="cls-8" cx="1028.63" cy="617.89" r="15"/>
  <circle class="cls-8" cx="1028.63" cy="568.89" r="15"/>
  <circle class="cls-8" cx="1079.63" cy="668.89" r="15"/>
  <circle class="cls-8" cx="1079.63" cy="617.89" r="15"/>
  <circle class="cls-8" cx="1079.63" cy="568.89" r="15"/>
  <path class="cls-8" d="M1003.36,517.5v25.43h25.97c6.13-.3,13.77-.64,16.84-.64h7.19v-2.01c0-2.01,0-2,0-2.01-.03-1.2-.14-2.11-.24-2.94-.15-1.23-.37-2.43-.73-3.99-.84-3.68-1.92-7.19-4.01-11.28,0,0,0,0,0,0-3.76-7.24-9.57-13.44-17.33-18.48-4.18-2.71-6.93-4.25-9.75-5.29-2.33-.86-4.34-1.21-7.16-1.78-3.96-.79-7.4-1.18-10.09-1.56h0l-.68,24.57Z"/>
  <g>
    <path class="cls-8" d="M1005.05,468.26c.49,14.21,1.46,25.12,2.27,25.61,.97,.66,5.03,1.65,9.25,2.15,9.73,1.32,22.71,10.25,29.36,20.16,4.87,6.94,6.16,10.25,8.76,22.48l.97,4.63h48.66v-6.28c0-3.47-1.14-10.74-2.43-16.03-10.38-41.31-45.74-72.88-85.8-76.18l-11.52-1.16,.49,24.62Z"/>
    <path class="cls-8" d="M1009.3,494.61h-4.99l.36-51.32c1.54,17.11,3.08,34.21,4.63,51.32Z"/>
  </g>
  <g>
    <rect class="cls-8" x="1104.63" y="643.89" width="50" height="50"/>
    <circle class="cls-8" cx="1129.63" cy="668.89" r="15"/>
  </g>
  <g>
    <rect class="cls-8" x="1104.63" y="793.89" width="50" height="50"/>
    <circle class="cls-8" cx="1129.63" cy="818.89" r="15"/>
  </g>
  <path class="cls-8" d="M1154.15,494.77h0c-2.69,.38-6.14,.77-10.09,1.56-2.82,.56-4.83,.92-7.16,1.78-2.83,1.04-5.57,2.58-9.75,5.29-7.76,5.04-13.57,11.24-17.33,18.48,0,0,0,0,0,0-2.08,4.09-3.17,7.6-4.01,11.28-.36,1.56-.57,2.77-.73,3.99-.11,.84-.22,1.74-.24,2.94,0,.02,0,0,0,2.01v2.01s0,0,1.03,0h1.03c1.51,0,5.13,0,5.14,0,3.06,0,10.7,.34,16.84,.64h25.97s0-25.43,0-25.43l-.68-24.57Z"/>
  <path class="cls-8" d="M1154.08,568.4v25.43h25.97c6.13-.3,13.77-.64,16.84-.64h7.19v-2.01c0-2.01,0-2,0-2.01-.03-1.2-.14-2.11-.24-2.94-.15-1.23-.37-2.43-.73-3.99-.84-3.68-1.92-7.19-4.01-11.28,0,0,0,0,0,0-3.76-7.24-9.57-13.44-17.33-18.48-4.18-2.71-6.93-4.25-9.75-5.29-2.33-.86-4.34-1.21-7.16-1.78-3.96-.79-7.4-1.18-10.09-1.56h0l-.68,24.57Z"/>
  <g>
    <path class="cls-8" d="M1155.77,519.16c.49,14.21,1.46,25.12,2.27,25.61,.97,.66,5.03,1.65,9.25,2.15,9.73,1.32,22.71,10.25,29.36,20.16,4.87,6.94,6.16,10.25,8.76,22.48l.97,4.63h48.66v-6.28c0-3.47-1.14-10.74-2.43-16.03-10.38-41.31-45.74-72.88-85.8-76.18l-11.52-1.16,.49,24.62Z"/>
    <path class="cls-8" d="M1160.03,545.51h-4.99l.36-51.32c1.54,17.11,3.08,34.21,4.63,51.32Z"/>
  </g>
  <path class="cls-8" d="M1180.6,743.21h-25.43v25.97c.3,6.13,.64,13.77,.64,16.84v7.19h2.01c2.01,0,2,0,2.01,0,1.2-.03,2.11-.14,2.94-.24,1.23-.15,2.43-.37,3.99-.73,3.68-.84,7.19-1.92,11.28-4.01,0,0,0,0,0,0,7.24-3.76,13.44-9.57,18.48-17.33,2.71-4.18,4.25-6.93,5.29-9.75,.86-2.33,1.21-4.34,1.78-7.16,.79-3.96,1.18-7.4,1.56-10.09h0l-24.57-.68Z"/>
  <g>
    <path class="cls-8" d="M1229.84,744.91c-14.21,.49-25.12,1.46-25.61,2.27-.66,.97-1.65,5.03-2.15,9.25-1.32,9.73-10.25,22.71-20.16,29.36-6.94,4.87-10.25,6.16-22.48,8.76l-4.63,.97v48.66h6.28c3.47,0,10.74-1.14,16.03-2.43,41.31-10.38,72.88-45.74,76.18-85.8l1.16-11.52-24.62,.49Z"/>
    <path class="cls-8" d="M1203.5,749.16v-4.99l51.32,.36c-17.11,1.54-34.21,3.08-51.32,4.63Z"/>
  </g>
</svg>