<?xml version="1.0" encoding="UTF-8"?>
<svg id="Layer_1" data-name="Layer 1" xmlns="http://www.w3.org/2000/svg" viewBox="0 0 253.16 403.16">
  <defs>
    <style>
      .cls-1 {
        stroke: #606060;
        stroke-miterlimit: 10;
        stroke-width: 3px;
      }
    </style>
  </defs>
  <g>
    <rect class="cls-1" x="151.61" y="153.82" width="99.89" height="149.9"/>
    <ellipse class="cls-1" cx="175.58" cy="278.74" rx="14.98" ry="14.99"/>
    <ellipse class="cls-1" cx="175.58" cy="227.77" rx="14.98" ry="14.99"/>
    <ellipse class="cls-1" cx="175.58" cy="178.8" rx="14.98" ry="14.99"/>
    <ellipse class="cls-1" cx="226.52" cy="278.74" rx="14.98" ry="14.99"/>
    <ellipse class="cls-1" cx="226.52" cy="227.77" rx="14.98" ry="14.99"/>
    <ellipse class="cls-1" cx="226.52" cy="178.8" rx="14.98" ry="14.99"/>
  </g>
  <rect class="cls-1" x="1.77" y="101.85" width="99.89" height="299.81"/>
  <ellipse class="cls-1" cx="25.75" cy="376.67" rx="14.98" ry="14.99"/>
  <ellipse class="cls-1" cx="25.75" cy="325.71" rx="14.98" ry="14.99"/>
  <ellipse class="cls-1" cx="25.75" cy="276.74" rx="14.98" ry="14.99"/>
  <ellipse class="cls-1" cx="76.69" cy="376.67" rx="14.98" ry="14.99"/>
  <ellipse class="cls-1" cx="76.69" cy="325.71" rx="14.98" ry="14.99"/>
  <ellipse class="cls-1" cx="76.69" cy="276.74" rx="14.98" ry="14.99"/>
  <ellipse class="cls-1" cx="25.75" cy="226.77" rx="14.98" ry="14.99"/>
  <ellipse class="cls-1" cx="25.75" cy="175.8" rx="14.98" ry="14.99"/>
  <ellipse class="cls-1" cx="25.75" cy="126.83" rx="14.98" ry="14.99"/>
  <ellipse class="cls-1" cx="76.69" cy="226.77" rx="14.98" ry="14.99"/>
  <ellipse class="cls-1" cx="76.69" cy="175.8" rx="14.98" ry="14.99"/>
  <ellipse class="cls-1" cx="76.69" cy="126.83" rx="14.98" ry="14.99"/>
  <path class="cls-1" d="M1.5,75.47v25.42H27.44c6.13-.3,13.76-.64,16.82-.64h7.18v-2.01c0-2.01,0-1.99,0-2.01-.03-1.2-.14-2.1-.24-2.94-.15-1.22-.37-2.43-.72-3.99-.84-3.68-1.92-7.19-4-11.27,0,0,0,0,0,0-3.75-7.24-9.55-13.43-17.31-18.47-4.18-2.71-6.92-4.25-9.74-5.29-2.33-.86-4.34-1.21-7.16-1.78-3.95-.79-7.4-1.18-10.08-1.56h0l-.68,24.55Z"/>
  <path class="cls-1" d="M1.77,26.9v23.98c.57,.13,1.43,.31,2.5,.5,1.76,.31,2.96,.38,3.5,.5,1.91,.44,3.58,1.05,5.93,2.13,12.09,5.57,22.17,9.93,29.33,20.15,4.86,6.94,6.16,10.24,8.75,22.46l.97,4.62h48.61v-6.28c0-3.47-1.13-10.74-2.43-16.02C88.55,37.66,53.23,6.12,13.21,2.82L1.71,1.66c.05,11.43,.06,19.7,.07,25.24Z"/>
  <g>
    <rect class="cls-1" x="101.66" y="201.79" width="49.94" height="49.97"/>
    <ellipse class="cls-1" cx="126.63" cy="226.77" rx="14.98" ry="14.99"/>
  </g>
  <g>
    <rect class="cls-1" x="101.66" y="351.69" width="49.94" height="49.97"/>
    <ellipse class="cls-1" cx="126.63" cy="376.67" rx="14.98" ry="14.99"/>
  </g>
  <path class="cls-1" d="M177.55,301.04h-25.41v25.95c.3,6.13,.64,13.77,.64,16.83v7.19h2.01c2.01,0,1.99,0,2.01,0,1.2-.03,2.1-.14,2.94-.24,1.22-.15,2.43-.37,3.99-.72,3.68-.84,7.18-1.92,11.27-4.01,0,0,0,0,0,0,7.24-3.75,13.42-9.56,18.46-17.32,2.71-4.18,4.25-6.92,5.29-9.75,.86-2.33,1.21-4.34,1.78-7.16,.79-3.95,1.18-7.4,1.56-10.09h0l-24.54-.68Z"/>
  <path class="cls-1" d="M226.27,301.96h-23.97c-.13,.57-.31,1.44-.5,2.5-.31,1.76-.38,2.96-.5,3.5-.44,1.91-1.05,3.58-2.13,5.93-5.56,12.1-9.93,22.18-20.14,29.34-6.93,4.86-10.23,6.16-22.45,8.75l-4.62,.97v48.63h6.27c3.47,0,10.73-1.13,16.01-2.43,41.27-10.37,72.8-45.71,76.1-85.75l1.16-11.51c-11.43,.05-19.69,.06-25.23,.07Z"/>
</svg>