<?xml version="1.0" encoding="UTF-8"?>
<svg id="Layer_1" data-name="Layer 1" xmlns="http://www.w3.org/2000/svg" viewBox="0 0 203.12 353">
  <defs>
    <style>
      .cls-1 {
        stroke: #606060;
        stroke-miterlimit: 10;
        stroke-width: 3px;
      }
    </style>
  </defs>
  <path class="cls-1" d="M102.13,278.17v-25.36s-26.03,0-26.03,0c-6.15,.3-13.8,.64-16.87,.64h-5.15c-.34,0-.69,0-1.03,0h-1.03s0,1.13,0,2.01c0,2,0,1.99,0,2.01,.03,1.2,.14,2.1,.24,2.94,.15,1.22,.37,2.42,.73,3.98,.84,3.67,1.93,7.17,4.02,11.25,0,0,0,0,0,0,3.76,7.22,9.59,13.4,17.36,18.43,4.19,2.7,6.94,4.24,9.78,5.28,2.34,.85,4.35,1.21,7.18,1.77,3.96,.79,7.42,1.17,10.11,1.55h0l.68-24.5Z"/>
  <path class="cls-1" d="M102.21,326.06s0-10.98,0-12.96v-10.97c-.57-.13-1.44-.31-2.5-.5-1.76-.31-2.97-.38-3.51-.5-1.91-.44-3.59-1.05-5.95-2.13-12.13-5.56-22.24-9.91-29.42-20.1-4.88-6.92-6.18-10.22-8.78-22.41l-.98-4.61H26.7s-24.38,0-24.38,0v6.26c0,3.46,1.14,10.71,2.44,15.98,10.4,41.2,45.84,72.67,85.98,75.97l11.54,1.15c-.05-11.41-.06-19.65-.07-25.18Z"/>
  <g>
    <rect class="cls-1" x="1.5" y="102.21" width="100.21" height="149.57"/>
    <ellipse class="cls-1" cx="25.55" cy="226.86" rx="15.03" ry="14.96"/>
    <ellipse class="cls-1" cx="25.55" cy="176" rx="15.03" ry="14.96"/>
    <ellipse class="cls-1" cx="25.55" cy="127.14" rx="15.03" ry="14.96"/>
    <ellipse class="cls-1" cx="76.66" cy="226.86" rx="15.03" ry="14.96"/>
    <ellipse class="cls-1" cx="76.66" cy="176" rx="15.03" ry="14.96"/>
    <ellipse class="cls-1" cx="76.66" cy="127.14" rx="15.03" ry="14.96"/>
  </g>
  <path class="cls-1" d="M75.27,101.13h25.49s0-25.9,0-25.9c-.3-6.11-.64-13.73-.65-16.79v-5.12c0-.34,0-.68,0-1.02v-1.02s-1.14,0-2.02,0c-2.01,0-2,0-2.02,0-1.2,.03-2.11,.14-2.95,.24-1.23,.15-2.43,.37-4,.72-3.69,.84-7.21,1.92-11.3,4,0,0,0,0,0,0-7.26,3.75-13.47,9.54-18.52,17.28-2.72,4.17-4.26,6.91-5.3,9.73-.86,2.32-1.22,4.33-1.78,7.14-.79,3.94-1.18,7.38-1.56,10.06h0l24.62,.68Z"/>
  <path class="cls-1" d="M27.14,101.21s11.03,0,13.03,0c3.67,0,7.35,0,11.02,0,.13-.57,.31-1.43,.5-2.49,.31-1.76,.38-2.95,.5-3.49,.44-1.9,1.05-3.58,2.14-5.92,5.58-12.07,9.96-22.13,20.2-29.27,6.96-4.85,10.27-6.15,22.52-8.73l4.64-.97V26.07s0-24.26,0-24.26h-6.29c-3.48,0-10.76,1.13-16.06,2.43C37.94,14.59,6.31,49.85,3,89.8l-1.16,11.48c11.47-.05,19.75-.06,25.31-.07Z"/>
  <g>
    <rect class="cls-1" x="75.91" y="26.3" width="99.72" height="50.11" transform="translate(74.41 177.12) rotate(-90)"/>
    <ellipse class="cls-1" cx="125.76" cy="77.28" rx="15.03" ry="14.96"/>
    <ellipse class="cls-1" cx="125.76" cy="26.43" rx="15.03" ry="14.96"/>
  </g>
  <g>
    <rect class="cls-1" x="75.91" y="276.59" width="99.72" height="50.11" transform="translate(-175.88 427.41) rotate(-90)"/>
    <ellipse class="cls-1" cx="125.76" cy="327.57" rx="15.03" ry="14.96"/>
    <ellipse class="cls-1" cx="125.76" cy="276.71" rx="15.03" ry="14.96"/>
  </g>
  <path class="cls-1" d="M176.25,301.54h-25.49s0,25.9,0,25.9c.3,6.11,.64,13.73,.65,16.79,0,.01,0,3.62,0,5.12v2.05s1.14,0,2.02,0c2.01,0,2,0,2.02,0,1.2-.03,2.11-.14,2.95-.24,1.23-.15,2.43-.37,4-.72,3.69-.84,7.21-1.92,11.3-4,0,0,0,0,0,0,7.26-3.75,13.47-9.54,18.52-17.28,2.72-4.17,4.26-6.91,5.3-9.73,.86-2.32,1.22-4.33,1.78-7.14,.79-3.94,1.18-7.38,1.56-10.06h0l-24.62-.68Z"/>
  <path class="cls-1" d="M150.87,276.45v25.36s26.03,0,26.03,0c6.15-.3,13.8-.64,16.87-.64,.01,0,3.64,0,5.15,0h2.06s0-1.13,0-2.01c0-2,0-1.99,0-2.01-.03-1.2-.14-2.1-.24-2.94-.15-1.22-.37-2.42-.73-3.98-.84-3.67-1.93-7.17-4.02-11.25,0,0,0,0,0,0-3.76-7.22-9.59-13.4-17.36-18.43-4.19-2.7-6.94-4.24-9.78-5.28-2.34-.85-4.35-1.21-7.18-1.77-3.96-.79-7.42-1.17-10.11-1.55h0l-.68,24.5Z"/>
  <path class="cls-1" d="M176.78,51.4h-25.49s0,25.9,0,25.9c.3,6.11,.64,13.73,.65,16.79,0,.01,0,3.62,0,5.12v2.05s1.14,0,2.02,0c2.01,0,2,0,2.02,0,1.2-.03,2.11-.14,2.95-.24,1.23-.15,2.43-.37,4-.72,3.69-.84,7.21-1.92,11.3-4,0,0,0,0,0,0,7.26-3.75,13.47-9.54,18.52-17.28,2.72-4.17,4.26-6.91,5.3-9.73,.86-2.32,1.22-4.33,1.78-7.14,.79-3.94,1.18-7.38,1.56-10.06h0l-24.62-.68Z"/>
  <path class="cls-1" d="M151.39,26.31v25.36s26.03,0,26.03,0c6.15-.3,13.8-.64,16.87-.64,.01,0,3.64,0,5.15,0h2.06s0-1.13,0-2.01c0-2,0-1.99,0-2.01-.03-1.2-.14-2.1-.24-2.94-.15-1.22-.37-2.42-.73-3.98-.84-3.67-1.93-7.17-4.02-11.25,0,0,0,0,0,0-3.76-7.22-9.59-13.4-17.36-18.43-4.19-2.7-6.94-4.24-9.78-5.28-2.34-.85-4.35-1.21-7.18-1.77-3.96-.79-7.42-1.17-10.11-1.55h0l-.68,24.5Z"/>
</svg>