<?xml version="1.0" encoding="UTF-8"?>
<svg id="Layer_1" data-name="Layer 1" xmlns="http://www.w3.org/2000/svg" viewBox="0 0 253.22 403.16">
  <defs>
    <style>
      .cls-1 {
        stroke: #606060;
        stroke-miterlimit: 10;
        stroke-width: 3px;
      }
    </style>
  </defs>
  <rect class="cls-1" x="1.77" y="101.85" width="99.25" height="299.81"/>
  <ellipse class="cls-1" cx="25.59" cy="376.68" rx="14.89" ry="14.99"/>
  <ellipse class="cls-1" cx="25.59" cy="325.71" rx="14.89" ry="14.99"/>
  <ellipse class="cls-1" cx="25.59" cy="276.74" rx="14.89" ry="14.99"/>
  <ellipse class="cls-1" cx="76.21" cy="376.68" rx="14.89" ry="14.99"/>
  <ellipse class="cls-1" cx="76.21" cy="325.71" rx="14.89" ry="14.99"/>
  <ellipse class="cls-1" cx="76.21" cy="276.74" rx="14.89" ry="14.99"/>
  <ellipse class="cls-1" cx="25.59" cy="226.77" rx="14.89" ry="14.99"/>
  <ellipse class="cls-1" cx="25.59" cy="175.8" rx="14.89" ry="14.99"/>
  <ellipse class="cls-1" cx="25.59" cy="126.83" rx="14.89" ry="14.99"/>
  <ellipse class="cls-1" cx="76.21" cy="226.77" rx="14.89" ry="14.99"/>
  <ellipse class="cls-1" cx="76.21" cy="175.8" rx="14.89" ry="14.99"/>
  <ellipse class="cls-1" cx="76.21" cy="126.83" rx="14.89" ry="14.99"/>
  <path class="cls-1" d="M1.5,75.47v25.42H27.28c6.09-.3,13.67-.64,16.71-.64h7.14v-2.01c0-2.01,0-1.99,0-2.01-.02-1.2-.14-2.1-.24-2.94-.15-1.22-.37-2.43-.72-3.99-.83-3.68-1.91-7.19-3.98-11.27,0,0,0,0,0,0-3.73-7.24-9.49-13.43-17.2-18.47-4.15-2.71-6.88-4.25-9.68-5.29-2.31-.86-4.31-1.21-7.11-1.78-3.93-.79-7.35-1.18-10.02-1.56h0l-.68,24.55Z"/>
  <path class="cls-1" d="M1.77,26.9v23.98c.57,.13,1.43,.31,2.48,.5,1.75,.31,2.94,.38,3.47,.5,1.89,.44,3.56,1.05,5.89,2.13,12.02,5.57,22.02,9.93,29.14,20.15,4.83,6.94,6.12,10.24,8.69,22.46l.97,4.62h48.29v-6.28c0-3.47-1.13-10.74-2.41-16.02C87.99,37.66,52.9,6.12,13.13,2.82L1.71,1.66c.05,11.43,.06,19.7,.06,25.24Z"/>
  <path class="cls-1" d="M249.23,101.46c-2.67,.38-6.09,.77-10.02,1.56-2.8,.56-4.8,.92-7.11,1.78-2.81,1.04-5.53,2.58-9.68,5.29-7.7,5.04-13.47,11.23-17.2,18.47,0,0,0,0,0,0-2.07,4.09-3.15,7.59-3.98,11.27-.35,1.56-.57,2.77-.72,3.99-.1,.84-.22,1.74-.24,2.94,0,.02,0,0,0,2.01v2.01h7.14c3.04,0,10.62,.34,16.71,.64h25.78v-25.42l-.68-24.55Z"/>
  <path class="cls-1" d="M249.7,52.2l-11.43,1.16c-39.76,3.3-74.85,34.85-85.16,76.14-1.29,5.28-2.41,12.55-2.41,16.02v6.28s24.15,0,24.15,0h24.15s.97-4.62,.97-4.62c2.58-12.22,3.86-15.52,8.69-22.46,7.11-10.22,17.12-14.58,29.14-20.15,2.33-1.08,4-1.69,5.89-2.13,.54-.12,1.73-.19,3.47-.5,1.06-.19,1.92-.37,2.48-.5v-10.99c0-1.99,0-12.96,0-12.99,0-5.54,.01-13.8,.06-25.24Z"/>
  <path class="cls-1" d="M251.5,300.53c-.38-2.69-.76-6.13-1.55-10.09-.56-2.82-.91-4.83-1.76-7.16-1.03-2.83-2.56-5.57-5.25-9.75-5.01-7.76-11.15-13.56-18.34-17.32,0,0,0,0,0,0-4.06-2.08-7.54-3.17-11.19-4.01-1.55-.36-2.75-.57-3.96-.73-.83-.11-1.73-.22-2.92-.24-.02,0,0,0-2,0h-2v7.19c0,3.06-.34,10.7-.64,16.83v25.95h25.24l24.38-.68Z"/>
  <g>
    <rect class="cls-1" x="126.07" y="277.02" width="99.94" height="49.62" transform="translate(-125.79 477.88) rotate(-90)"/>
    <ellipse class="cls-1" cx="176.04" cy="327.82" rx="14.89" ry="14.99"/>
    <ellipse class="cls-1" cx="176.04" cy="276.85" rx="14.89" ry="14.99"/>
  </g>
  <path class="cls-1" d="M150.48,352.02c.38,2.69,.76,6.13,1.55,10.09,.56,2.82,.91,4.83,1.76,7.16,1.03,2.83,2.56,5.57,5.25,9.75,5.01,7.76,11.15,13.56,18.34,17.32,0,0,0,0,0,0,4.06,2.08,7.54,3.17,11.19,4.01,1.55,.36,2.75,.57,3.96,.73,.83,.11,1.73,.22,2.92,.24,.02,0,0,0,2,0h2v-7.19c0-3.06,.34-10.7,.64-16.83v-25.95h-25.24l-24.38,.68Z"/>
  <g>
    <rect class="cls-1" x="101.61" y="201.9" width="49.62" height="49.97"/>
    <ellipse class="cls-1" cx="126.42" cy="226.88" rx="14.89" ry="14.99"/>
  </g>
  <path class="cls-1" d="M201,201.69c2.67-.38,6.09-.77,10.02-1.56,2.8-.56,4.8-.92,7.11-1.78,2.81-1.04,5.53-2.58,9.68-5.29,7.7-5.04,13.47-11.23,17.2-18.47,0,0,0,0,0,0,2.07-4.09,3.15-7.59,3.98-11.27,.35-1.56,.57-2.77,.72-3.99,.1-.84,.22-1.74,.24-2.94,0-.02,0,0,0-2.01v-2.01h-7.14c-3.04,0-10.62-.34-16.71-.64h-25.78v25.42l.68,24.55Z"/>
  <g>
    <rect class="cls-1" x="126.07" y="177.09" width="99.94" height="49.62" transform="translate(-25.86 377.94) rotate(-90)"/>
    <ellipse class="cls-1" cx="176.04" cy="227.88" rx="14.89" ry="14.99"/>
    <ellipse class="cls-1" cx="176.04" cy="176.91" rx="14.89" ry="14.99"/>
  </g>
  <g>
    <rect class="cls-1" x="176.69" y="326.49" width="99.44" height="50.12" transform="translate(-125.14 577.96) rotate(-90)"/>
    <ellipse class="cls-1" cx="226.41" cy="377.41" rx="15.04" ry="14.92"/>
    <ellipse class="cls-1" cx="226.41" cy="326.69" rx="15.04" ry="14.92"/>
  </g>
</svg>