<?xml version="1.0" encoding="UTF-8"?>
<svg id="Layer_1" data-name="Layer 1" xmlns="http://www.w3.org/2000/svg" viewBox="0 0 1513.23 451.49">
  <defs>
    <style>
      .cls-1 {
        stroke: #606060;
        stroke-miterlimit: 10;
        stroke-width: 3px;
      }
    </style>
  </defs>
  <rect class="cls-1" x="151.77" y="201.67" width="100" height="150"/>
  <rect class="cls-1" x="1.77" y="149.67" width="100" height="300"/>
  <path class="cls-1" d="M1.5,123.28v25.43H27.47c6.13-.3,13.77-.64,16.84-.64h7.19v-2.01c0-2.01,0-2,0-2.01-.03-1.2-.14-2.11-.24-2.94-.15-1.23-.37-2.43-.73-3.99-.84-3.68-1.92-7.19-4.01-11.28,0,0,0,0,0,0-3.76-7.24-9.57-13.44-17.33-18.48-4.18-2.71-6.93-4.25-9.75-5.29-2.33-.86-4.34-1.21-7.16-1.78-3.96-.79-7.4-1.18-10.09-1.56h0l-.68,24.57Z"/>
  <path class="cls-1" d="M1.77,74.67v24c.57,.13,1.44,.31,2.5,.5,1.76,.31,2.96,.38,3.5,.5,1.91,.44,3.59,1.05,5.94,2.13,12.11,5.57,22.19,9.94,29.36,20.16,4.87,6.94,6.16,10.25,8.76,22.48l.97,4.63h48.66v-6.28c0-3.47-1.14-10.74-2.43-16.03C88.64,85.44,53.29,53.88,13.22,50.57l-11.52-1.16c.05,11.44,.06,19.71,.07,25.25Z"/>
  <rect class="cls-1" x="101.77" y="249.67" width="50" height="50"/>
  <rect class="cls-1" x="101.77" y="399.67" width="50" height="50"/>
  <path class="cls-1" d="M151.3,100.54h0c-2.69,.38-6.14,.77-10.09,1.56-2.82,.56-4.83,.92-7.16,1.78-2.83,1.04-5.57,2.58-9.75,5.29-7.76,5.04-13.57,11.24-17.33,18.48,0,0,0,0,0,0-2.08,4.09-3.17,7.6-4.01,11.28-.36,1.56-.57,2.77-.73,3.99-.11,.84-.22,1.74-.24,2.94,0,.02,0,0,0,2.01v2.01s0,0,1.03,0h1.03c1.51,0,5.13,0,5.14,0,3.06,0,10.7,.34,16.84,.64h25.97s0-25.43,0-25.43l-.68-24.57Z"/>
  <path class="cls-1" d="M151.22,174.18v25.43h25.97c6.13-.3,13.77-.64,16.84-.64h7.19v-2.01c0-2.01,0-2,0-2.01-.03-1.2-.14-2.11-.24-2.94-.15-1.23-.37-2.43-.73-3.99-.84-3.68-1.92-7.19-4.01-11.28,0,0,0,0,0,0-3.76-7.24-9.57-13.44-17.33-18.48-4.18-2.71-6.93-4.25-9.75-5.29-2.33-.86-4.34-1.21-7.16-1.78-3.96-.79-7.4-1.18-10.09-1.56h0l-.68,24.57Z"/>
  <path class="cls-1" d="M177.75,348.99h-25.43v25.97c.3,6.13,.64,13.77,.64,16.84v7.19h2.01c2.01,0,2,0,2.01,0,1.2-.03,2.11-.14,2.94-.24,1.23-.15,2.43-.37,3.99-.73,3.68-.84,7.19-1.92,11.28-4.01,0,0,0,0,0,0,7.24-3.76,13.44-9.57,18.48-17.33,2.71-4.18,4.25-6.93,5.29-9.75,.86-2.33,1.21-4.34,1.78-7.16,.79-3.96,1.18-7.4,1.56-10.09h0l-24.57-.68Z"/>
  <path class="cls-1" d="M226.52,349.91h-24c-.13,.57-.31,1.44-.5,2.5-.31,1.76-.38,2.96-.5,3.5-.44,1.91-1.05,3.59-2.13,5.94-5.57,12.11-9.94,22.19-20.16,29.36-6.94,4.87-10.25,6.16-22.48,8.76l-4.63,.97v48.66h6.28c3.47,0,10.74-1.14,16.03-2.43,41.31-10.38,72.88-45.74,76.18-85.8l1.16-11.52c-11.44,.05-19.71,.06-25.25,.07Z"/>
  <path class="cls-1" d="M151.14,126.15v24c.57,.13,1.44,.31,2.5,.5,1.76,.31,2.96,.38,3.5,.5,1.91,.44,3.59,1.05,5.94,2.13,12.11,5.57,22.19,9.94,29.36,20.16,4.87,6.94,6.16,10.25,8.76,22.48l.97,4.63h48.66v-6.28c0-3.47-1.14-10.74-2.43-16.03-10.38-41.31-45.74-72.88-85.8-76.18l-11.52-1.16c.05,11.44,.06,19.71,.07,25.25Z"/>
  <rect class="cls-1" x="302.77" y="149.67" width="100" height="300"/>
  <rect class="cls-1" x="402.77" y="249.67" width="50" height="50"/>
  <rect class="cls-1" x="402.77" y="100.67" width="50" height="50"/>
  <rect class="cls-1" x="302.77" y="100.67" width="100" height="50" transform="translate(705.54 251.34) rotate(-180)"/>
  <path class="cls-1" d="M454.89,174.24v25.43h25.97c6.13-.3,13.77-.64,16.84-.64h7.19v-2.01c0-2.01,0-2,0-2.01-.03-1.2-.14-2.11-.24-2.94-.15-1.23-.37-2.43-.73-3.99-.84-3.68-1.92-7.19-4.01-11.28,0,0,0,0,0,0-3.76-7.24-9.57-13.44-17.33-18.48-4.18-2.71-6.93-4.25-9.75-5.29-2.33-.86-4.34-1.21-7.16-1.78-3.96-.79-7.4-1.18-10.09-1.56h0l-.68,24.57Z"/>
  <path class="cls-1" d="M454.81,126.21v24c.57,.13,1.44,.31,2.5,.5,1.76,.31,2.96,.38,3.5,.5,1.91,.44,3.59,1.05,5.94,2.13,12.11,5.57,22.19,9.94,29.36,20.16,4.87,6.94,6.16,10.25,8.76,22.48l.97,4.63h48.66v-6.28c0-3.47-1.14-10.74-2.43-16.03-10.38-41.31-45.74-72.88-85.8-76.18l-11.52-1.16c.05,11.44,.06,19.71,.07,25.25Z"/>
  <path class="cls-1" d="M480.93,199.82h-25.43v25.97c.3,6.13,.64,13.77,.64,16.84v7.19h2.01c2.01,0,2,0,2.01,0,1.2-.03,2.11-.14,2.94-.24,1.23-.15,2.43-.37,3.99-.73,3.68-.84,7.19-1.92,11.28-4.01,0,0,0,0,0,0,7.24-3.76,13.44-9.57,18.48-17.33,2.71-4.18,4.25-6.93,5.29-9.75,.86-2.33,1.21-4.34,1.78-7.16,.79-3.96,1.18-7.4,1.56-10.09h0l-24.57-.68Z"/>
  <path class="cls-1" d="M528.96,199.74h-24c-.13,.57-.31,1.44-.5,2.5-.31,1.76-.38,2.96-.5,3.5-.44,1.91-1.05,3.59-2.13,5.94-5.57,12.11-9.94,22.19-20.16,29.36-6.94,4.87-10.25,6.16-22.48,8.76l-4.63,.97v48.66h6.28c3.47,0,10.74-1.14,16.03-2.43,41.31-10.38,72.88-45.74,76.18-85.8l1.16-11.52c-11.44,.05-19.71,.06-25.25,.07Z"/>
  <path class="cls-1" d="M455.44,373.3v25.43h25.97c6.13-.3,13.77-.64,16.84-.64h7.19v-2.01c0-2.01,0-2,0-2.01-.03-1.2-.14-2.11-.24-2.94-.15-1.23-.37-2.43-.73-3.99-.84-3.68-1.92-7.19-4.01-11.28,0,0,0,0,0,0-3.76-7.24-9.57-13.44-17.33-18.48-4.18-2.71-6.93-4.25-9.75-5.29-2.33-.86-4.34-1.21-7.16-1.78-3.96-.79-7.4-1.18-10.09-1.56h0l-.68,24.57Z"/>
  <path class="cls-1" d="M455.36,325.27v24c.57,.13,1.44,.31,2.5,.5,1.76,.31,2.96,.38,3.5,.5,1.91,.44,3.59,1.05,5.94,2.13,12.11,5.57,22.19,9.94,29.36,20.16,4.87,6.94,6.16,10.25,8.76,22.48l.97,4.63h48.66v-6.28c0-3.47-1.14-10.74-2.43-16.03-10.38-41.31-45.74-72.88-85.8-76.18l-11.52-1.16c.05,11.44,.06,19.71,.07,25.25Z"/>
  <path class="cls-1" d="M504.99,425.06v-25.43h-25.97c-6.13,.3-13.77,.64-16.84,.64h-7.19v2.01c0,2.01,0,2,0,2.01,.03,1.2,.14,2.11,.24,2.94,.15,1.23,.37,2.43,.73,3.99,.84,3.68,1.92,7.19,4.01,11.28,0,0,0,0,0,0,3.76,7.24,9.57,13.44,17.33,18.48,4.18,2.71,6.93,4.25,9.75,5.29,2.33,.86,4.34,1.21,7.16,1.78,3.96,.79,7.4,1.18,10.09,1.56h0l.68-24.57Z"/>
  <rect class="cls-1" x="505.77" y="399.67" width="50" height="50"/>
  <rect class="cls-1" x="607.77" y="149.67" width="100" height="300"/>
  <path class="cls-1" d="M706.95,50.95h0c-2.69,.38-6.14,.77-10.09,1.56-2.82,.56-4.83,.92-7.16,1.78-2.83,1.04-5.57,2.58-9.75,5.29-7.76,5.04-13.57,11.24-17.33,18.48,0,0,0,0,0,0-2.08,4.09-3.17,7.6-4.01,11.28-.36,1.56-.57,2.77-.73,3.99-.11,.84-.22,1.74-.24,2.94,0,.02,0,0,0,2.01v2.01s0,0,1.03,0h1.03c1.51,0,5.13,0,5.14,0,3.06,0,10.7,.34,16.84,.64h25.97s0-25.43,0-25.43l-.68-24.57Z"/>
  <path class="cls-1" d="M707.43,1.66l-11.52,1.16c-40.06,3.31-75.42,34.87-85.8,76.18-1.3,5.29-2.43,12.56-2.43,16.03v6.28s24.33,0,24.33,0h24.33s.97-4.63,.97-4.63c2.6-12.23,3.89-15.53,8.76-22.48,7.17-10.22,17.25-14.59,29.36-20.16,2.35-1.08,4.03-1.7,5.94-2.13,.54-.12,1.74-.19,3.5-.5,1.06-.19,1.93-.37,2.5-.5v-11c0-1.99,0-12.97,0-13,0-5.54,.01-13.81,.07-25.25Z"/>
  <path class="cls-1" d="M860.19,376.13v-25.43s-25.97,0-25.97,0c-6.13,.3-13.77,.64-16.84,.64h-5.14c-.34,0-.68,0-1.03,0h-1.03s0,1.13,0,2.01c0,2.01,0,2,0,2.01,.03,1.2,.14,2.11,.24,2.94,.15,1.23,.37,2.43,.73,3.99,.84,3.68,1.92,7.19,4.01,11.28,0,0,0,0,0,0,3.76,7.24,9.56,13.44,17.33,18.48,4.18,2.71,6.93,4.25,9.75,5.29,2.33,.86,4.34,1.21,7.16,1.78,3.96,.79,7.4,1.18,10.09,1.56h0l.68-24.57Z"/>
  <path class="cls-1" d="M860.27,424.16v-13c0-3.67,0-7.33,0-11-.57-.13-1.44-.31-2.5-.5-1.76-.31-2.96-.38-3.5-.5-1.91-.44-3.59-1.05-5.94-2.13-12.11-5.57-22.19-9.94-29.36-20.16-4.87-6.94-6.16-10.25-8.76-22.48l-.97-4.63h-24.33s-24.33,0-24.33,0v6.28c0,3.47,1.14,10.74,2.43,16.03,10.38,41.31,45.74,72.88,85.8,76.18l11.52,1.16c-.05-11.44-.06-19.71-.07-25.25Z"/>
  <rect class="cls-1" x="759.77" y="199.67" width="100" height="150"/>
  <path class="cls-1" d="M833.39,198.59h25.43s0-25.97,0-25.97c-.3-6.13-.64-13.77-.64-16.84v-5.14c0-.34,0-.68,0-1.03v-1.03s-1.13,0-2.01,0c-2.01,0-2,0-2.01,0-1.2,.03-2.11,.14-2.94,.24-1.23,.15-2.43,.37-3.99,.73-3.68,.84-7.19,1.92-11.28,4.01,0,0,0,0,0,0-7.24,3.76-13.44,9.56-18.48,17.33-2.71,4.18-4.25,6.93-5.29,9.75-.86,2.33-1.21,4.34-1.78,7.16-.79,3.96-1.18,7.4-1.56,10.09h0l24.57,.68Z"/>
  <path class="cls-1" d="M785.36,198.67s11.01,0,13,0c3.67,0,7.33,0,11,0,.13-.57,.31-1.44,.5-2.5,.31-1.76,.38-2.96,.5-3.5,.44-1.91,1.05-3.59,2.13-5.94,5.57-12.11,9.94-22.19,20.16-29.36,6.94-4.87,10.25-6.16,22.48-8.76l4.63-.97v-24.33s0-24.33,0-24.33h-6.28c-3.47,0-10.74,1.14-16.03,2.43-41.31,10.38-72.88,45.74-76.18,85.8l-1.16,11.52c11.44-.05,19.71-.06,25.25-.07Z"/>
  <rect class="cls-1" x="833.77" y="123.67" width="100" height="50" transform="translate(735.1 1032.44) rotate(-90)"/>
  <rect class="cls-1" x="833.77" y="374.67" width="100" height="50" transform="translate(484.1 1283.44) rotate(-90)"/>
  <path class="cls-1" d="M934.16,399.57h-25.43s0,25.97,0,25.97c.3,6.13,.64,13.77,.64,16.84v5.14c0,.34,0,.68,0,1.03v1.03s1.13,0,2.01,0c2.01,0,2,0,2.01,0,1.2-.03,2.11-.14,2.94-.24,1.23-.15,2.43-.37,3.99-.73,3.68-.84,7.19-1.92,11.28-4.01,0,0,0,0,0,0,7.24-3.76,13.44-9.56,18.48-17.33,2.71-4.18,4.25-6.93,5.29-9.75,.86-2.33,1.21-4.34,1.78-7.16,.79-3.96,1.18-7.4,1.56-10.09h0l-24.57-.68Z"/>
  <path class="cls-1" d="M908.83,374.41v25.43s25.97,0,25.97,0c6.13-.3,13.77-.64,16.84-.64h5.14c.34,0,.68,0,1.03,0h1.03s0-1.13,0-2.01c0-2.01,0-2,0-2.01-.03-1.2-.14-2.11-.24-2.94-.15-1.23-.37-2.43-.73-3.99-.84-3.68-1.92-7.19-4.01-11.28,0,0,0,0,0,0-3.76-7.24-9.56-13.44-17.33-18.48-4.18-2.71-6.93-4.25-9.75-5.29-2.33-.86-4.34-1.21-7.16-1.78-3.96-.79-7.4-1.18-10.09-1.56h0l-.68,24.57Z"/>
  <path class="cls-1" d="M934.68,148.71h-25.43s0,25.97,0,25.97c.3,6.13,.64,13.77,.64,16.84v5.14c0,.34,0,.68,0,1.03v1.03s1.13,0,2.01,0c2.01,0,2,0,2.01,0,1.2-.03,2.11-.14,2.94-.24,1.23-.15,2.43-.37,3.99-.73,3.68-.84,7.19-1.92,11.28-4.01,0,0,0,0,0,0,7.24-3.76,13.44-9.56,18.48-17.33,2.71-4.18,4.25-6.93,5.29-9.75,.86-2.33,1.21-4.34,1.78-7.16,.79-3.96,1.18-7.4,1.56-10.09h0l-24.57-.68Z"/>
  <path class="cls-1" d="M909.35,123.55v25.43s25.97,0,25.97,0c6.13-.3,13.77-.64,16.84-.64h5.14c.34,0,.68,0,1.03,0h1.03s0-1.13,0-2.01c0-2.01,0-2,0-2.01-.03-1.2-.14-2.11-.24-2.94-.15-1.23-.37-2.43-.73-3.99-.84-3.68-1.92-7.19-4.01-11.28,0,0,0,0,0,0-3.76-7.24-9.56-13.44-17.33-18.48-4.18-2.71-6.93-4.25-9.75-5.29-2.33-.86-4.34-1.21-7.16-1.78-3.96-.79-7.4-1.18-10.09-1.56h0l-.68,24.57Z"/>
  <rect class="cls-1" x="1009.95" y="149.99" width="100" height="300"/>
  <path class="cls-1" d="M1009.68,123.6v25.43h25.97c6.13-.3,13.77-.64,16.84-.64h7.19v-2.01c0-2.01,0-2,0-2.01-.03-1.2-.14-2.11-.24-2.94-.15-1.23-.37-2.43-.73-3.99-.84-3.68-1.92-7.19-4.01-11.28,0,0,0,0,0,0-3.76-7.24-9.57-13.44-17.33-18.48-4.18-2.71-6.93-4.25-9.75-5.29-2.33-.86-4.34-1.21-7.16-1.78-3.96-.79-7.4-1.18-10.09-1.56h0l-.68,24.57Z"/>
  <path class="cls-1" d="M1009.95,74.99v24c.57,.13,1.44,.31,2.5,.5,1.76,.31,2.96,.38,3.5,.5,1.91,.44,3.59,1.05,5.94,2.13,12.11,5.57,22.19,9.94,29.36,20.16,4.87,6.94,6.16,10.25,8.76,22.48l.97,4.63h48.66v-6.28c0-3.47-1.14-10.74-2.43-16.03-10.38-41.31-45.74-72.88-85.8-76.18l-11.52-1.16c.05,11.44,.06,19.71,.07,25.25Z"/>
  <rect class="cls-1" x="1109.77" y="249.67" width="100" height="50" transform="translate(2319.54 549.34) rotate(-180)"/>
  <rect class="cls-1" x="1159.77" y="199.67" width="100" height="50" transform="translate(2419.54 449.34) rotate(-180)"/>
  <path class="cls-1" d="M1259.29,149.6c-2.69,.38-6.14,.77-10.09,1.56-2.82,.56-4.83,.92-7.16,1.78-2.83,1.04-5.57,2.58-9.75,5.29-7.76,5.04-13.57,11.24-17.33,18.48,0,0,0,0,0,0-2.08,4.09-3.17,7.6-4.01,11.28-.36,1.56-.57,2.77-.73,3.99-.11,.84-.22,1.74-.24,2.94,0,.02,0,0,0,2.01v2.01h7.19c3.06,0,10.7,.34,16.84,.64h25.97v-25.43l-.68-24.57Z"/>
  <path class="cls-1" d="M1259.76,100.31l-11.52,1.16c-40.06,3.31-75.42,34.87-85.8,76.18-1.3,5.29-2.43,12.56-2.43,16.03v6.28s24.33,0,24.33,0h24.33s.97-4.63,.97-4.63c2.6-12.23,3.89-15.53,8.76-22.48,7.17-10.22,17.25-14.59,29.36-20.16,2.35-1.08,4.03-1.7,5.94-2.13,.54-.12,1.74-.19,3.5-.5,1.06-.19,1.93-.37,2.5-.5v-11c0-1.99,0-12.97,0-13,0-5.54,.01-13.81,.07-25.25Z"/>
  <rect class="cls-1" x="1159.77" y="299.67" width="50" height="50"/>
  <path class="cls-1" d="M1259.58,348.8c-.38-2.69-.77-6.14-1.56-10.09-.56-2.82-.92-4.83-1.78-7.16-1.04-2.83-2.58-5.57-5.29-9.75-5.04-7.76-11.24-13.57-18.48-17.33,0,0,0,0,0,0-4.09-2.08-7.6-3.17-11.28-4.01-1.56-.36-2.77-.57-3.99-.73-.84-.11-1.74-.22-2.94-.24-.02,0,0,0-2.01,0h-2.01v7.19c0,3.06-.34,10.7-.64,16.84v25.97h25.43l24.57-.68Z"/>
  <rect class="cls-1" x="1159.77" y="349.67" width="100" height="50" transform="translate(2419.54 749.34) rotate(-180)"/>
  <path class="cls-1" d="M1159.79,400.32c.38,2.69,.77,6.14,1.56,10.09,.56,2.82,.92,4.83,1.78,7.16,1.04,2.83,2.58,5.57,5.29,9.75,5.04,7.76,11.24,13.57,18.48,17.33,0,0,0,0,0,0,4.09,2.08,7.6,3.17,11.28,4.01,1.56,.36,2.77,.57,3.99,.73,.84,.11,1.74,.22,2.94,.24,.02,0,0,0,2.01,0h2.01v-7.19c0-3.06,.34-10.7,.64-16.84v-25.97h-25.43l-24.57,.68Z"/>
  <rect class="cls-1" x="1209.77" y="399.67" width="50" height="50"/>
  <path class="cls-1" d="M1358.42,349.92c.38,2.69,.77,6.14,1.56,10.09,.56,2.82,.92,4.83,1.78,7.16,1.04,2.83,2.58,5.57,5.29,9.75,5.04,7.76,11.24,13.57,18.48,17.33,0,0,0,0,0,0,4.09,2.08,7.6,3.17,11.28,4.01,1.56,.36,2.77,.57,3.99,.73,.84,.11,1.74,.22,2.94,.24,.02,0,0,0,2.01,0h2.01s0,0,0-1.03v-1.03c0-1.51,0-5.13,0-5.14,0-3.06,.34-10.7,.64-16.84v-25.97s-25.43,0-25.43,0l-24.57,.68Z"/>
  <path class="cls-1" d="M1309.12,349.44l1.16,11.52c3.31,40.06,34.87,75.42,76.18,85.8,5.29,1.3,12.56,2.43,16.03,2.43h6.28s0-24.33,0-24.33v-24.33s-4.63-.97-4.63-.97c-12.23-2.6-15.53-3.89-22.48-8.76-10.22-7.17-14.59-17.25-20.16-29.36-1.08-2.35-1.7-4.03-2.13-5.94-.12-.54-.19-1.74-.5-3.5-.19-1.06-.37-1.93-.5-2.5-3.67,0-7.33,0-11,0-1.99,0-12.97,0-13,0-5.54,0-13.81-.01-25.25-.07Z"/>
  <path class="cls-1" d="M1409.54,399.75c2.69-.38,6.14-.77,10.09-1.56,2.82-.56,4.83-.92,7.16-1.78,2.83-1.04,5.57-2.58,9.75-5.29,7.76-5.04,13.57-11.24,17.33-18.48,0,0,0,0,0,0,2.08-4.09,3.17-7.6,4.01-11.28,.36-1.56,.57-2.77,.73-3.99,.11-.84,.22-1.74,.24-2.94,0-.02,0,0,0-2.01v-2.01s0,0-1.03,0h-1.03c-1.51,0-5.13,0-5.14,0-3.06,0-10.7-.34-16.84-.64h-25.97s0,25.43,0,25.43l.68,24.57Z"/>
  <path class="cls-1" d="M1409.07,449.04l11.52-1.16c40.06-3.31,75.42-34.87,85.8-76.18,1.3-5.29,2.43-12.56,2.43-16.03v-6.28s-24.33,0-24.33,0h-24.33s-.97,4.63-.97,4.63c-2.6,12.23-3.89,15.53-8.76,22.48-7.17,10.22-17.25,14.59-29.36,20.16-2.35,1.08-4.03,1.7-5.94,2.13-.54,.12-1.74,.19-3.5,.5-1.06,.19-1.93,.37-2.5,.5,0,3.67,0,7.33,0,11,0,1.99,0,12.97,0,13,0,5.54-.01,13.81-.07,25.25Z"/>
  <rect class="cls-1" x="1408.77" y="299.67" width="100" height="50" transform="translate(2917.54 649.34) rotate(-180)"/>
  <rect class="cls-1" x="1360.77" y="249.67" width="100" height="50" transform="translate(2821.54 549.34) rotate(-180)"/>
  <rect class="cls-1" x="1311.77" y="199.67" width="100" height="50" transform="translate(2723.54 449.34) rotate(-180)"/>
  <path class="cls-1" d="M1509.39,298.84c-.38-2.69-.77-6.14-1.56-10.09-.56-2.82-.92-4.83-1.78-7.16-1.04-2.83-2.58-5.57-5.29-9.75-5.04-7.76-11.24-13.57-18.48-17.33,0,0,0,0,0,0-4.09-2.08-7.6-3.17-11.28-4.01-1.56-.36-2.77-.57-3.99-.73-.84-.11-1.74-.22-2.94-.24-.02,0,0,0-2.01,0h-2.01v7.19c0,3.06-.34,10.7-.64,16.84v25.97h25.43l24.57-.68Z"/>
  <path class="cls-1" d="M1311.39,250.21c.38,2.69,.77,6.14,1.56,10.09,.56,2.82,.92,4.83,1.78,7.16,1.04,2.83,2.58,5.57,5.29,9.75,5.04,7.76,11.24,13.57,18.48,17.33,0,0,0,0,0,0,4.09,2.08,7.6,3.17,11.28,4.01,1.56,.36,2.77,.57,3.99,.73,.84,.11,1.74,.22,2.94,.24,.02,0,0,0,2.01,0h2.01v-7.19c0-3.06,.34-10.7,.64-16.84v-25.97h-25.43l-24.57,.68Z"/>
  <path class="cls-1" d="M1462.28,199.7c-.38-2.69-.77-6.14-1.56-10.09-.56-2.82-.92-4.83-1.78-7.16-1.04-2.83-2.58-5.57-5.29-9.75-5.04-7.76-11.24-13.57-18.48-17.33,0,0,0,0,0,0-4.09-2.08-7.6-3.17-11.28-4.01-1.56-.36-2.77-.57-3.99-.73-.84-.11-1.74-.22-2.94-.24-.02,0,0,0-2.01,0h-2.01s0,0,0,1.03v1.03c0,1.51,0,5.13,0,5.14,0,3.06-.34,10.7-.64,16.84v25.97s25.43,0,25.43,0l24.57-.68Z"/>
  <path class="cls-1" d="M1511.57,200.18l-1.16-11.52c-3.31-40.06-34.87-75.42-76.18-85.8-5.29-1.3-12.56-2.43-16.03-2.43h-6.28s0,24.33,0,24.33v24.33s4.63,.97,4.63,.97c12.23,2.6,15.53,3.89,22.48,8.76,10.22,7.17,14.59,17.25,20.16,29.36,1.08,2.35,1.7,4.03,2.13,5.94,.12,.54,.19,1.74,.5,3.5,.19,1.06,.37,1.93,.5,2.5,3.67,0,7.33,0,11,0,1.99,0,12.97,0,13,0,5.54,0,13.81,.01,25.25,.07Z"/>
  <path class="cls-1" d="M1411.15,149.87c-2.69,.38-6.14,.77-10.09,1.56-2.82,.56-4.83,.92-7.16,1.78-2.83,1.04-5.57,2.58-9.75,5.29-7.76,5.04-13.57,11.24-17.33,18.48,0,0,0,0,0,0-2.08,4.09-3.17,7.6-4.01,11.28-.36,1.56-.57,2.77-.73,3.99-.11,.84-.22,1.74-.24,2.94,0,.02,0,0,0,2.01v2.01s0,0,1.03,0h1.03c1.51,0,5.13,0,5.14,0,3.06,0,10.7,.34,16.84,.64h25.97s0-25.43,0-25.43l-.68-24.57Z"/>
  <path class="cls-1" d="M1411.63,100.58l-11.52,1.16c-40.06,3.31-75.42,34.87-85.8,76.18-1.3,5.29-2.43,12.56-2.43,16.03v6.28s24.33,0,24.33,0h24.33s.97-4.63,.97-4.63c2.6-12.23,3.89-15.53,8.76-22.48,7.17-10.22,17.25-14.59,29.36-20.16,2.35-1.08,4.03-1.7,5.94-2.13,.54-.12,1.74-.19,3.5-.5,1.06-.19,1.93-.37,2.5-.5,0-3.67,0-7.33,0-11,0-1.99,0-12.97,0-13,0-5.54,.01-13.81,.07-25.25Z"/>
</svg>