<?xml version="1.0" encoding="UTF-8"?>
<svg id="Layer_1" data-name="Layer 1" xmlns="http://www.w3.org/2000/svg" viewBox="0 0 203.31 353.02">
  <defs>
    <style>
      .cls-1 {
        stroke: #606060;
        stroke-miterlimit: 10;
        stroke-width: 3px;
      }
    </style>
  </defs>
  <path class="cls-1" d="M50.36,251.89c.38,2.7,.76,6.16,1.54,10.13,.56,2.83,.91,4.85,1.76,7.19,1.03,2.84,2.55,5.59,5.23,9.79,4.98,7.79,11.1,13.62,18.26,17.39,0,0,0,0,0,0,4.04,2.09,7.5,3.18,11.14,4.02,1.54,.36,2.73,.57,3.94,.73,.83,.11,1.72,.22,2.91,.24,.02,0,0,0,1.99,0h1.99s0,0,0-1.03v-1.03c0-1.51,0-5.15,0-5.16,0-3.07,.34-10.74,.64-16.9v-26.06s-25.13,0-25.13,0l-24.27,.69Z"/>
  <path class="cls-1" d="M1.66,251.41l1.14,11.56c3.27,40.2,34.45,75.69,75.26,86.1,5.22,1.3,12.41,2.44,15.84,2.44h6.2s0-24.41,0-24.41v-24.42s-4.57-.98-4.57-.98c-12.08-2.6-15.35-3.91-22.2-8.79-10.1-7.19-14.41-17.31-19.92-29.46-1.07-2.36-1.68-4.04-2.11-5.96-.12-.54-.19-1.75-.49-3.51-.18-1.07-.37-1.94-.49-2.51-3.62,0-7.24,0-10.87,0-1.97,0-12.81,0-12.84,0-5.48,0-13.65-.01-24.95-.07Z"/>
  <path class="cls-1" d="M100.86,301.89c2.66-.38,6.06-.77,9.97-1.56,2.79-.57,4.78-.92,7.08-1.78,2.79-1.04,5.5-2.59,9.64-5.31,7.67-5.06,13.41-11.28,17.12-18.55,0,0,0,0,0,0,2.06-4.1,3.13-7.62,3.96-11.32,.35-1.57,.56-2.78,.72-4.01,.1-.84,.21-1.75,.24-2.95,0-.02,0,0,0-2.02v-2.02s0,0-1.02,0h-1.02c-1.49,0-5.07,0-5.08,0-3.03,0-10.58-.35-16.63-.65h-25.66s0,25.52,0,25.52l.67,24.65Z"/>
  <path class="cls-1" d="M100.39,351.36l11.38-1.16c39.58-3.32,74.51-34.99,84.76-76.45,1.28-5.31,2.4-12.6,2.4-16.09v-6.3s-24.03,0-24.03,0h-24.04s-.96,4.64-.96,4.64c-2.56,12.27-3.85,15.59-8.65,22.55-7.08,10.26-17.04,14.64-29,20.23-2.32,1.09-3.98,1.7-5.87,2.14-.53,.12-1.72,.19-3.46,.5-1.05,.19-1.91,.37-2.47,.5,0,3.68,0,7.36,0,11.04,0,2,0,13.01,0,13.05,0,5.56-.01,13.86-.06,25.34Z"/>
  <g>
    <rect class="cls-1" x="100.1" y="201.46" width="98.79" height="50.18" transform="translate(298.99 453.1) rotate(-180)"/>
    <ellipse class="cls-1" cx="175.18" cy="226.55" rx="14.82" ry="15.05"/>
    <ellipse class="cls-1" cx="124.8" cy="226.55" rx="14.82" ry="15.05"/>
  </g>
  <g>
    <rect class="cls-1" x="52.68" y="151.28" width="98.79" height="50.18" transform="translate(204.15 352.74) rotate(-180)"/>
    <ellipse class="cls-1" cx="127.76" cy="176.37" rx="14.82" ry="15.05"/>
    <ellipse class="cls-1" cx="77.38" cy="176.37" rx="14.82" ry="15.05"/>
  </g>
  <g>
    <rect class="cls-1" x="4.27" y="101.11" width="98.79" height="50.18" transform="translate(107.34 252.39) rotate(-180)"/>
    <ellipse class="cls-1" cx="79.35" cy="126.2" rx="14.82" ry="15.05"/>
    <ellipse class="cls-1" cx="28.97" cy="126.2" rx="14.82" ry="15.05"/>
  </g>
  <path class="cls-1" d="M199.5,200.63c-.38-2.7-.76-6.16-1.54-10.13-.56-2.83-.91-4.85-1.76-7.19-1.03-2.84-2.55-5.59-5.23-9.79-4.98-7.79-11.1-13.62-18.26-17.39,0,0,0,0,0,0-4.04-2.09-7.5-3.18-11.14-4.02-1.54-.36-2.73-.57-3.94-.73-.83-.11-1.72-.22-2.91-.24-.02,0,0,0-1.99,0h-1.99v7.22c0,3.07-.34,10.74-.64,16.9v26.06h25.13l24.27-.69Z"/>
  <path class="cls-1" d="M3.9,151.82c.38,2.7,.76,6.16,1.54,10.13,.56,2.83,.91,4.85,1.76,7.19,1.03,2.84,2.55,5.59,5.23,9.79,4.98,7.79,11.1,13.62,18.26,17.39,0,0,0,0,0,0,4.04,2.09,7.5,3.18,11.14,4.02,1.54,.36,2.73,.57,3.94,.73,.83,.11,1.72,.22,2.91,.24,.02,0,0,0,1.99,0h1.99v-7.22c0-3.07,.34-10.74,.64-16.9v-26.06H28.17l-24.27,.69Z"/>
  <path class="cls-1" d="M152.96,101.14c-.38-2.7-.76-6.16-1.54-10.13-.56-2.83-.91-4.85-1.76-7.19-1.03-2.84-2.55-5.59-5.23-9.79-4.98-7.79-11.1-13.62-18.26-17.39,0,0,0,0,0,0-4.04-2.09-7.5-3.18-11.14-4.02-1.54-.36-2.73-.57-3.94-.73-.83-.11-1.72-.22-2.91-.24-.02,0,0,0-1.99,0h-1.99s0,0,0,1.03v1.03c0,1.51,0,5.15,0,5.16,0,3.07-.34,10.74-.64,16.9v26.06s25.13,0,25.13,0l24.27-.69Z"/>
  <path class="cls-1" d="M201.66,101.61l-1.14-11.56C197.25,49.85,166.07,14.37,125.25,3.95c-5.22-1.3-12.41-2.44-15.84-2.44h-6.2s0,24.41,0,24.41v24.42s4.57,.98,4.57,.98c12.08,2.6,15.35,3.91,22.2,8.79,10.1,7.19,14.41,17.31,19.92,29.46,1.07,2.36,1.68,4.04,2.11,5.96,.12,.54,.19,1.75,.49,3.51,.18,1.07,.37,1.94,.49,2.51,3.62,0,7.24,0,10.87,0,1.97,0,12.81,0,12.84,0,5.48,0,13.65,.01,24.95,.07Z"/>
  <path class="cls-1" d="M102.45,51.13c-2.66,.38-6.06,.77-9.97,1.56-2.79,.57-4.78,.92-7.08,1.78-2.79,1.04-5.5,2.59-9.64,5.31-7.67,5.06-13.41,11.28-17.12,18.55,0,0,0,0,0,0-2.06,4.1-3.13,7.62-3.96,11.32-.35,1.57-.56,2.78-.72,4.01-.1,.84-.21,1.75-.24,2.95,0,.02,0,0,0,2.02v2.02s0,0,1.02,0h1.02c1.49,0,5.07,0,5.08,0,3.03,0,10.58,.35,16.63,.65h25.66s0-25.52,0-25.52l-.67-24.65Z"/>
  <path class="cls-1" d="M102.92,1.66l-11.38,1.16C51.97,6.14,17.04,37.82,6.78,79.28c-1.28,5.31-2.4,12.6-2.4,16.09v6.3s24.03,0,24.03,0h24.04s.96-4.64,.96-4.64c2.56-12.27,3.85-15.59,8.65-22.55,7.08-10.26,17.04-14.64,29-20.23,2.32-1.09,3.98-1.7,5.87-2.14,.53-.12,1.72-.19,3.46-.5,1.05-.19,1.91-.37,2.47-.5,0-3.68,0-7.36,0-11.04,0-2,0-13.01,0-13.05,0-5.56,.01-13.86,.06-25.34Z"/>
</svg>