<?xml version="1.0" encoding="UTF-8"?>
<svg id="Layer_1" data-name="Layer 1" xmlns="http://www.w3.org/2000/svg" viewBox="0 0 250 350">
  <path d="M248.55,82.34c-.54-1.6-1.45-5.19-2.07-7.94-.92-4.43-3.98-13.06-5.74-16.19-.38-.69-1.15-2.44-1.84-3.9-1.46-3.51-3.98-7.79-4.82-8.33-.38-.23-1.3-1.6-2.07-3.06-.62-1.2-.94-1.87-.96-2.34-.35-.26-.67-.57-.94-.91-.51,.19-.78,.02-.78-.57,0-1.22-16.62-17.49-19.22-18.87-1.38-.69-2.83-1.53-3.29-1.91-3.75-2.98-6.36-4.58-12.71-7.71-8.65-4.2-15.08-6.42-23.35-7.94-3.37-.61-7.35-1.37-8.81-1.6-1.45-.31-38.44-.61-82.08-.76L.38,0V117.1c-.08,64.39-.15,143.14-.23,174.99l-.15,57.82H99.92V200.2l24.73-.15,24.66-.23,.23-24.67c.08-15.51,.46-24.6,.92-24.6s.77,.76,.84,1.68q.08,1.68,.61-.15c.31-1.07,.31-1.99-.08-2.14-.31-.15-.31-.84,.08-1.53,.31-.69,.54-11.53,.46-24.06-.08-13.9,.15-22.69,.61-22.69s.38-.38-.08-.99c-.46-.53-.77-10.24-.84-24.98-.08-20.17-.31-24.21-1.23-24.9-1-.69-1.15-4.66-1.15-25.13,0-19.25,.23-24.14,1-23.53,.46,.38,3.37,.76,6.28,.92,2.99,.15,5.67,.38,5.97,.61,.38,.23,3.06,.69,6.13,1.07,10.18,1.3,26.88,8.1,35.53,14.51,2.22,1.68,4.29,2.98,4.75,2.98,.92,0,19.22,18.1,19.22,19.02s4.36,7.49,5.44,8.1c.38,.31,.69,1.15,.69,1.91s.31,1.53,.61,1.68c1.07,.38,5.97,11.23,8.04,17.8,2.53,7.79,5.21,25.74,4.44,29.41-.08,.23-.23,3.28-.38,6.87-1,22.38-12.4,46.82-29.17,62.71-5.36,5.04-7.58,6.8-11.87,9.62-2.3,1.53-4.98,3.51-5.97,4.35-1,.92-1.91,1.53-2.14,1.45-.15-.15-3.14,1.15-6.59,2.83-3.52,1.68-6.74,3.06-7.2,3.06s-2.83,.84-5.36,1.83c-2.45,.99-6.2,2.06-8.35,2.37-2.07,.31-4.52,.69-5.36,.76-3.75,.61-8.58,1.3-9.8,1.37-.69,.08-1.3,.46-1.3,.92,0,1.3,6.97,1.3,11.49,.08,2.3-.61,5.97-1.37,8.04-1.68,2.14-.23,5.28-1.15,7.04-1.91,1.76-.84,3.68-1.45,4.29-1.45,1.15,0,16.69-7.71,18.3-9.09,1.76-1.45,6.74-4.66,6.74-4.28,0,.23,1.3-.92,2.91-2.52,1.61-1.53,4.29-4.05,5.97-5.58,5.9-5.35,11.64-12.37,16.92-20.93,2.14-3.51,7.04-13.9,7.58-16.04,.31-1.3,.84-2.67,1.23-3.13,.38-.53,1.23-3.44,1.84-6.49,1.53-7.1,1.45-6.87,2.3-8.71,1.15-2.52,.84-30.86-.38-34.22Zm-99.77,93.8l-.23,21.39h-22.82c-17.99,0-22.97-.23-23.43-1.07-.46-.69-.77-.53-1.07,.69-.31,1.15-.84,1.6-1.61,1.3-1.07-.38-1.23,.38-1.23,5.04,0,3.06-.08,32.92-.08,66.38-.08,44.91-.31,60.8-1,60.42-.54-.31-.46-.08,.08,.61,1,1.22,1,14.74,0,15.66-.46,.46-94.03,.53-94.49,.08-.46-.53-.23-342.81,.23-343.65,.23-.31,33.08-.53,73.05-.61h72.66V49.73h-23.89c-18.76,.08-24.2,.31-25.27,1.07-1.23,.99-1.3,4.05-1.38,49.42,0,26.66,0,48.81,.08,49.34,0,.46,.69,1.15,1.53,1.37,.84,.23,1.53,1.07,1.53,1.76,0,1.07,.15,1.15,.69,.23,.61-.92,4.59-1.15,23.35-1.22,22.44-.15,22.74-.08,23.12,1.45,.15,.92,.31,11.23,.15,22.99Zm1.07-58.2l.23,31.85h-50.15V52.02l24.73-.15,24.66-.23,.15,17.19c.15,9.47,.31,31.55,.38,49.11Z"/>
  <path d="M151.3,198.06c-.08,.76-.38,1.37-.84,1.37-.54,0-.77,17.26-.77,50.26,0,41.78,.15,50.87,1.07,53.7,.61,1.83,1.53,5.88,1.99,8.94,.69,4.66,1.3,6.34,3.83,9.7,1.68,2.29,3.45,5.04,3.98,6.11,.46,1.07,1.07,1.91,1.38,1.91s1,1.07,1.53,2.29c.69,1.6,2.68,3.36,6.05,5.42,2.76,1.68,6.58,4.2,8.5,5.58,2.83,2.06,4.75,2.67,9.95,3.44,3.6,.53,7.96,1.45,9.8,2.06,4.52,1.45,52.22,1.6,52.22,.08v-31.47c0-28.11-.15-31.09-1.61-37.43-.84-3.82-2.3-8.78-3.06-11.08-.84-2.29-2.07-5.81-2.68-7.87-.61-1.99-1.38-3.59-1.76-3.59-.31,0-1-1.45-1.53-3.13-.54-1.76-1.3-3.59-1.68-4.05s-2.14-3.06-3.98-5.73c-2.91-4.43-6.13-8.48-9.88-12.37-.69-.76-1.61-2.06-2.14-2.9-.46-.92-1.15-1.6-1.53-1.6s-1.99-1.3-3.6-2.9c-2.68-2.6-5.21-4.51-8.58-6.65-.69-.46-3.14-2.06-5.44-3.51-4.82-3.21-15.31-8.33-16.92-8.33-.61,0-2.07-.53-3.22-1.15-1.23-.61-4.44-1.6-7.27-2.22s-6.51-1.45-8.19-1.91c-1.61-.38-5.59-.84-8.81-.92-5.13-.15-5.82-.31-6.28-1.76-.38-1.3-.46-1.3-.54-.31Zm16.39,5.5c.84,.15,1.53,.38,1.53,.46s.92,.31,1.99,.38c1.15,.15,3.52,.69,5.36,1.22s3.6,.92,3.98,.84c.31-.08,.54,.23,.54,.69,0,.38,.31,.61,.61,.38,1.23-.76,17.23,7.03,23.89,11.61q5.36,3.74,11.03,8.71c3.75,3.28,14.24,15.35,14.24,16.35,0,.31,.84,1.6,1.84,2.98,2.76,3.59,8.42,15.35,10.64,22.23,1.84,5.58,2.83,10.08,3.98,18.48,.69,4.74,1.07,57.06,.46,58.05-.38,.61-8.04,.92-24.43,1.07l-23.89,.23-.15-7.64-.15-7.64-.23,7.1-.31,7.18-3.6-.46c-1.99-.31-4.13-.61-4.75-.76-.61-.08-2.53-.46-4.21-.84-8.58-1.68-20.67-11.15-25.04-19.48-.54-1.07-1.15-2.06-1.38-2.29-1.68-1.53-3.83-5.5-3.83-7.1,0-1.07-.31-2.14-.69-2.37-.54-.38-1.15-3.74-2.07-11.15-.08-.61-.23-1.3-.31-1.53-.31-.99-.54-95.33-.23-97.08l.38-1.91,6.58,.99c3.68,.53,7.35,1.07,8.19,1.3Z"/>
</svg>