<?xml version="1.0" encoding="UTF-8"?>
<svg id="Layer_1" data-name="Layer 1" xmlns="http://www.w3.org/2000/svg" viewBox="0 0 103 453.16">
  <defs>
    <style>
      .cls-1 {
        stroke: #606060;
        stroke-miterlimit: 10;
        stroke-width: 3px;
      }
    </style>
  </defs>
  <rect class="cls-1" x="1.6" y="150.33" width="99.9" height="301.33"/>
  <ellipse class="cls-1" cx="25.57" cy="426.55" rx="14.99" ry="15.07"/>
  <ellipse class="cls-1" cx="25.57" cy="375.32" rx="14.99" ry="15.07"/>
  <ellipse class="cls-1" cx="25.57" cy="326.11" rx="14.99" ry="15.07"/>
  <ellipse class="cls-1" cx="76.52" cy="426.55" rx="14.99" ry="15.07"/>
  <ellipse class="cls-1" cx="76.52" cy="375.32" rx="14.99" ry="15.07"/>
  <ellipse class="cls-1" cx="76.52" cy="326.11" rx="14.99" ry="15.07"/>
  <ellipse class="cls-1" cx="25.57" cy="275.88" rx="14.99" ry="15.07"/>
  <ellipse class="cls-1" cx="25.57" cy="224.66" rx="14.99" ry="15.07"/>
  <ellipse class="cls-1" cx="25.57" cy="175.44" rx="14.99" ry="15.07"/>
  <ellipse class="cls-1" cx="76.52" cy="275.88" rx="14.99" ry="15.07"/>
  <ellipse class="cls-1" cx="76.52" cy="224.66" rx="14.99" ry="15.07"/>
  <ellipse class="cls-1" cx="76.52" cy="175.44" rx="14.99" ry="15.07"/>
  <path class="cls-1" d="M100.68,51.17h0c-2.69,.38-6.13,.77-10.08,1.57-2.82,.57-4.83,.92-7.16,1.79-2.82,1.04-5.57,2.59-9.75,5.32-7.76,5.07-13.56,11.29-17.31,18.56,0,0,0,0,0,0-2.08,4.11-3.17,7.63-4.01,11.33-.36,1.57-.57,2.78-.72,4.01-.11,.84-.22,1.75-.24,2.96,0,.02,0,0,0,2.02v2.02s0,0,1.03,0h1.03c1.51,0,5.12,0,5.13,0,3.06,0,10.69,.35,16.82,.65h25.95s0-25.55,0-25.55l-.68-24.67Z"/>
  <path class="cls-1" d="M101.15,1.66l-11.5,1.16C49.62,6.14,14.3,37.85,3.93,79.34c-1.3,5.31-2.43,12.62-2.43,16.1v6.31s24.31,0,24.31,0h24.31s.97-4.65,.97-4.65c2.59-12.28,3.89-15.6,8.75-22.57,7.16-10.27,17.23-14.66,29.33-20.25,2.35-1.09,4.02-1.7,5.93-2.14,.54-.12,1.74-.19,3.5-.5,1.06-.19,1.93-.37,2.5-.5,0-3.68,0-7.37,0-11.05,0-2,0-13.02,0-13.06,0-5.57,.01-13.87,.07-25.37Z"/>
</svg>