<?xml version="1.0" encoding="UTF-8"?>
<svg id="Layer_1" data-name="Layer 1" xmlns="http://www.w3.org/2000/svg" viewBox="0 0 253.06 353.18">
  <defs>
    <style>
      .cls-1 {
        stroke: #606060;
        stroke-miterlimit: 10;
        stroke-width: 3px;
      }
    </style>
  </defs>
  <rect class="cls-1" x="1.56" y="51.18" width="98.81" height="300.25"/>
  <ellipse class="cls-1" cx="25.28" cy="326.41" rx="14.82" ry="15.01"/>
  <ellipse class="cls-1" cx="25.28" cy="275.37" rx="14.82" ry="15.01"/>
  <ellipse class="cls-1" cx="25.28" cy="226.33" rx="14.82" ry="15.01"/>
  <ellipse class="cls-1" cx="75.67" cy="326.41" rx="14.82" ry="15.01"/>
  <ellipse class="cls-1" cx="75.67" cy="275.37" rx="14.82" ry="15.01"/>
  <ellipse class="cls-1" cx="75.67" cy="226.33" rx="14.82" ry="15.01"/>
  <ellipse class="cls-1" cx="25.28" cy="176.28" rx="14.82" ry="15.01"/>
  <ellipse class="cls-1" cx="25.28" cy="125.24" rx="14.82" ry="15.01"/>
  <ellipse class="cls-1" cx="25.28" cy="76.2" rx="14.82" ry="15.01"/>
  <ellipse class="cls-1" cx="75.67" cy="176.28" rx="14.82" ry="15.01"/>
  <ellipse class="cls-1" cx="75.67" cy="125.24" rx="14.82" ry="15.01"/>
  <ellipse class="cls-1" cx="75.67" cy="76.2" rx="14.82" ry="15.01"/>
  <g>
    <rect class="cls-1" x="100.38" y="151.26" width="49.41" height="50.04"/>
    <ellipse class="cls-1" cx="125.08" cy="176.28" rx="14.82" ry="15.01"/>
  </g>
  <g>
    <rect class="cls-1" x="50.75" y="1.57" width="98.81" height="50.04" transform="translate(200.31 53.18) rotate(-180)"/>
    <ellipse class="cls-1" cx="125.85" cy="26.59" rx="14.82" ry="15.01"/>
    <ellipse class="cls-1" cx="75.45" cy="26.59" rx="14.82" ry="15.01"/>
  </g>
  <path class="cls-1" d="M151.88,75.77v25.46h25.66c6.06-.3,13.61-.64,16.64-.64h7.11v-2.02c0-2.01,0-2,0-2.02-.02-1.2-.13-2.11-.24-2.95-.15-1.23-.36-2.43-.72-4-.83-3.69-1.9-7.2-3.96-11.29,0,0,0,0,0,0-3.71-7.25-9.45-13.45-17.12-18.5-4.13-2.71-6.85-4.26-9.64-5.3-2.3-.86-4.29-1.22-7.08-1.78-3.91-.79-7.32-1.18-9.97-1.56h0l-.67,24.59Z"/>
  <path class="cls-1" d="M150.8,26.7v24.02c.56,.13,1.42,.31,2.47,.5,1.74,.31,2.93,.38,3.46,.5,1.89,.44,3.54,1.05,5.87,2.13,11.96,5.58,21.93,9.95,29.01,20.18,4.81,6.95,6.09,10.25,8.65,22.49l.96,4.63h48.08v-6.28c0-3.47-1.12-10.75-2.4-16.04C236.64,37.49,201.7,5.89,162.11,2.59l-11.38-1.16c.05,11.45,.06,19.73,.06,25.27Z"/>
  <path class="cls-1" d="M177.61,101.37h-25.13v25.99c.3,6.14,.64,13.79,.64,16.85v7.2h1.99c1.99,0,1.97,0,1.99,0,1.19-.03,2.08-.14,2.91-.24,1.21-.15,2.4-.37,3.94-.73,3.64-.84,7.1-1.93,11.14-4.01,0,0,0,0,0,0,7.16-3.76,13.28-9.57,18.26-17.34,2.68-4.19,4.2-6.93,5.23-9.76,.85-2.33,1.2-4.35,1.76-7.17,.78-3.96,1.16-7.41,1.54-10.1h0l-24.27-.68Z"/>
  <path class="cls-1" d="M225.07,101.29h-23.72c-.13,.57-.31,1.44-.49,2.5-.31,1.76-.37,2.96-.49,3.5-.43,1.91-1.04,3.59-2.11,5.94-5.5,12.12-9.82,22.21-19.92,29.38-6.86,4.87-10.12,6.17-22.21,8.77l-4.57,.97v48.7h6.21c3.43,0,10.61-1.14,15.84-2.44,40.82-10.39,72.01-45.78,75.28-85.87l1.14-11.53c-11.31,.05-19.48,.06-24.95,.07Z"/>
  <path class="cls-1" d="M152.42,274.99v25.46h25.66c6.06-.3,13.61-.64,16.64-.64h7.11v-2.02c0-2.01,0-2,0-2.02-.02-1.2-.13-2.11-.24-2.95-.15-1.23-.36-2.43-.72-4-.83-3.69-1.9-7.2-3.96-11.29,0,0,0,0,0,0-3.71-7.25-9.45-13.45-17.12-18.5-4.13-2.71-6.85-4.26-9.64-5.3-2.3-.86-4.29-1.22-7.08-1.78-3.91-.79-7.32-1.18-9.97-1.56h0l-.67,24.59Z"/>
  <path class="cls-1" d="M152.34,226.92v24.02c.56,.13,1.42,.31,2.47,.5,1.74,.31,2.93,.38,3.46,.5,1.89,.44,3.54,1.05,5.87,2.13,11.96,5.58,21.93,9.95,29.01,20.18,4.81,6.95,6.09,10.25,8.65,22.49l.96,4.63h48.08v-6.28c0-3.47-1.12-10.75-2.4-16.04-10.26-41.35-45.2-72.94-84.78-76.25l-11.38-1.16c.05,11.45,.06,19.73,.06,25.27Z"/>
  <path class="cls-1" d="M201.39,326.8v-25.46h-25.66c-6.06,.3-13.61,.64-16.64,.64h-7.11v2.02c0,2.01,0,2,0,2.02,.02,1.2,.13,2.11,.24,2.95,.15,1.23,.36,2.43,.72,4,.83,3.69,1.9,7.2,3.96,11.29,0,0,0,0,0,0,3.71,7.25,9.45,13.45,17.12,18.5,4.13,2.71,6.85,4.26,9.64,5.3,2.3,.86,4.29,1.22,7.08,1.78,3.91,.79,7.32,1.18,9.97,1.56h0l.67-24.59Z"/>
  <g>
    <rect class="cls-1" x="202.16" y="301.39" width="49.41" height="50.04"/>
    <ellipse class="cls-1" cx="226.86" cy="326.41" rx="14.82" ry="15.01"/>
  </g>
  <path class="cls-1" d="M25.99,51.93h25.13V25.93c-.3-6.14-.64-13.79-.64-16.85V1.88h-1.99c-1.99,0-1.97,0-1.99,0-1.19,.03-2.08,.14-2.91,.24-1.21,.15-2.4,.37-3.94,.73-3.64,.84-7.1,1.93-11.14,4.01,0,0,0,0,0,0-7.16,3.76-13.28,9.57-18.26,17.34-2.68,4.19-4.2,6.93-5.23,9.76-.85,2.33-1.2,4.35-1.76,7.17-.78,3.96-1.16,7.41-1.54,10.1h0l24.27,.68Z"/>
</svg>