<?xml version="1.0" encoding="UTF-8"?>
<svg id="Layer_1" data-name="Layer 1" xmlns="http://www.w3.org/2000/svg" viewBox="0 0 1252.79 1250.64">
  <defs>
    <style>
      .cls-1 {
        fill: none;
      }

      .cls-1, .cls-2 {
        stroke: #000;
        stroke-miterlimit: 10;
        stroke-width: 3px;
      }

      .cls-3 {
        letter-spacing: -.02em;
      }

      .cls-4 {
        font-family: MyriadPro-Regular, 'Myriad Pro';
        font-size: 12px;
      }

      .cls-2 {
        fill: #fc3;
      }
    </style>
  </defs>
  <g>
    <rect class="cls-2" x="152.77" y="154.12" width="100" height="150"/>
    <circle class="cls-2" cx="176.77" cy="279.12" r="15"/>
    <circle class="cls-2" cx="176.77" cy="228.12" r="15"/>
    <circle class="cls-2" cx="176.77" cy="179.12" r="15"/>
    <circle class="cls-2" cx="227.77" cy="279.12" r="15"/>
    <circle class="cls-2" cx="227.77" cy="228.12" r="15"/>
    <circle class="cls-2" cx="227.77" cy="179.12" r="15"/>
  </g>
  <rect class="cls-2" x="2.77" y="102.12" width="100" height="300"/>
  <circle class="cls-2" cx="26.77" cy="377.12" r="15"/>
  <circle class="cls-2" cx="26.77" cy="326.12" r="15"/>
  <circle class="cls-2" cx="26.77" cy="277.12" r="15"/>
  <circle class="cls-2" cx="77.77" cy="377.12" r="15"/>
  <circle class="cls-2" cx="77.77" cy="326.12" r="15"/>
  <circle class="cls-2" cx="77.77" cy="277.12" r="15"/>
  <circle class="cls-2" cx="26.77" cy="227.12" r="15"/>
  <circle class="cls-2" cx="26.77" cy="176.12" r="15"/>
  <circle class="cls-2" cx="26.77" cy="127.12" r="15"/>
  <circle class="cls-2" cx="77.77" cy="227.12" r="15"/>
  <circle class="cls-2" cx="77.77" cy="176.12" r="15"/>
  <circle class="cls-2" cx="77.77" cy="127.12" r="15"/>
  <path class="cls-2" d="M1.5,75.73v25.43H27.47c6.13-.3,13.77-.64,16.84-.64h7.19v-2.01c0-2.01,0-2,0-2.01-.03-1.2-.14-2.11-.24-2.94-.15-1.23-.37-2.43-.73-3.99-.84-3.68-1.92-7.19-4.01-11.28,0,0,0,0,0,0-3.76-7.24-9.57-13.44-17.33-18.48-4.18-2.71-6.93-4.25-9.75-5.29-2.33-.86-4.34-1.21-7.16-1.78-3.96-.79-7.4-1.18-10.09-1.56h0l-.68,24.57Z"/>
  <g>
    <path class="cls-2" d="M3.19,26.49c.49,14.21,1.46,25.12,2.27,25.61,.97,.66,5.03,1.65,9.25,2.15,9.73,1.32,22.71,10.25,29.36,20.16,4.87,6.94,6.16,10.25,8.76,22.48l.97,4.63h48.66v-6.28c0-3.47-1.14-10.74-2.43-16.03C89.64,37.89,54.29,6.33,14.22,3.02L2.71,1.86l.49,24.62Z"/>
    <path class="cls-2" d="M7.44,52.84H2.46L2.82,1.52c1.54,17.11,3.08,34.21,4.63,51.32Z"/>
  </g>
  <g>
    <rect class="cls-2" x="102.77" y="202.12" width="50" height="50"/>
    <circle class="cls-2" cx="127.77" cy="227.12" r="15"/>
  </g>
  <g>
    <rect class="cls-2" x="102.77" y="352.12" width="50" height="50"/>
    <circle class="cls-2" cx="127.77" cy="377.12" r="15"/>
  </g>
  <path class="cls-2" d="M152.3,52.99h0c-2.69,.38-6.14,.77-10.09,1.56-2.82,.56-4.83,.92-7.16,1.78-2.83,1.04-5.57,2.58-9.75,5.29-7.76,5.04-13.57,11.24-17.33,18.48,0,0,0,0,0,0-2.08,4.09-3.17,7.6-4.01,11.28-.36,1.56-.57,2.77-.73,3.99-.11,.84-.22,1.74-.24,2.94,0,.02,0,0,0,2.01v2.01s0,0,1.03,0h1.03c1.51,0,5.13,0,5.14,0,3.06,0,10.7,.34,16.84,.64h25.97s0-25.43,0-25.43l-.68-24.57Z"/>
  <path class="cls-2" d="M152.22,126.62v25.43h25.97c6.13-.3,13.77-.64,16.84-.64h7.19v-2.01c0-2.01,0-2,0-2.01-.03-1.2-.14-2.11-.24-2.94-.15-1.23-.37-2.43-.73-3.99-.84-3.68-1.92-7.19-4.01-11.28,0,0,0,0,0,0-3.76-7.24-9.57-13.44-17.33-18.48-4.18-2.71-6.93-4.25-9.75-5.29-2.33-.86-4.34-1.21-7.16-1.78-3.96-.79-7.4-1.18-10.09-1.56h0l-.68,24.57Z"/>
  <g>
    <path class="cls-2" d="M153.92,77.39c.49,14.21,1.46,25.12,2.27,25.61,.97,.66,5.03,1.65,9.25,2.15,9.73,1.32,22.71,10.25,29.36,20.16,4.87,6.94,6.16,10.25,8.76,22.48l.97,4.63h48.66v-6.28c0-3.47-1.14-10.74-2.43-16.03-10.38-41.31-45.74-72.88-85.8-76.18l-11.52-1.16,.49,24.62Z"/>
    <path class="cls-2" d="M158.17,103.73h-4.99l.36-51.32c1.54,17.11,3.08,34.21,4.63,51.32Z"/>
  </g>
  <path class="cls-2" d="M178.75,301.44h-25.43v25.97c.3,6.13,.64,13.77,.64,16.84v7.19h2.01c2.01,0,2,0,2.01,0,1.2-.03,2.11-.14,2.94-.24,1.23-.15,2.43-.37,3.99-.73,3.68-.84,7.19-1.92,11.28-4.01,0,0,0,0,0,0,7.24-3.76,13.44-9.57,18.48-17.33,2.71-4.18,4.25-6.93,5.29-9.75,.86-2.33,1.21-4.34,1.78-7.16,.79-3.96,1.18-7.4,1.56-10.09h0l-24.57-.68Z"/>
  <g>
    <path class="cls-2" d="M227.99,303.13c-14.21,.49-25.12,1.46-25.61,2.27-.66,.97-1.65,5.03-2.15,9.25-1.32,9.73-10.25,22.71-20.16,29.36-6.94,4.87-10.25,6.16-22.48,8.76l-4.63,.97v48.66h6.28c3.47,0,10.74-1.14,16.03-2.43,41.31-10.38,72.88-45.74,76.18-85.8l1.16-11.52-24.62,.49Z"/>
    <path class="cls-2" d="M201.64,307.38v-4.99l51.32,.36c-17.11,1.54-34.21,3.08-51.32,4.63Z"/>
  </g>
  <g>
    <rect class="cls-2" x="486.51" y="153.92" width="100" height="150"/>
    <circle class="cls-2" cx="510.51" cy="278.92" r="15"/>
    <circle class="cls-2" cx="510.51" cy="227.92" r="15"/>
    <circle class="cls-2" cx="510.51" cy="178.92" r="15"/>
    <circle class="cls-2" cx="561.51" cy="278.92" r="15"/>
    <circle class="cls-2" cx="561.51" cy="227.92" r="15"/>
    <circle class="cls-2" cx="561.51" cy="178.92" r="15"/>
  </g>
  <rect class="cls-2" x="334.77" y="102.12" width="100" height="300"/>
  <path class="cls-2" d="M335.24,75.52v25.43h25.97c6.13-.3,13.77-.64,16.84-.64h7.19v-2.01c0-2.01,0-2,0-2.01-.03-1.2-.14-2.11-.24-2.94-.15-1.23-.37-2.43-.73-3.99-.84-3.68-1.92-7.19-4.01-11.28,0,0,0,0,0,0-3.76-7.24-9.57-13.44-17.33-18.48-4.18-2.71-6.93-4.25-9.75-5.29-2.33-.86-4.34-1.21-7.16-1.78-3.96-.79-7.4-1.18-10.09-1.56h0l-.68,24.57Z"/>
  <g>
    <path class="cls-2" d="M336.93,26.29c.49,14.21,1.46,25.12,2.27,25.61,.97,.66,5.03,1.65,9.25,2.15,9.73,1.32,22.71,10.25,29.36,20.16,4.87,6.94,6.16,10.25,8.76,22.48l.97,4.63h48.66v-6.28c0-3.47-1.14-10.74-2.43-16.03-10.38-41.31-45.74-72.88-85.8-76.18l-11.52-1.16,.49,24.62Z"/>
    <path class="cls-2" d="M341.18,52.63h-4.99l.36-51.32c1.54,17.11,3.08,34.21,4.63,51.32Z"/>
  </g>
  <g>
    <rect class="cls-2" x="436.51" y="201.92" width="50" height="50"/>
    <circle class="cls-2" cx="461.51" cy="226.92" r="15"/>
  </g>
  <g>
    <rect class="cls-2" x="436.51" y="351.92" width="50" height="50"/>
    <circle class="cls-2" cx="461.51" cy="376.92" r="15"/>
  </g>
  <path class="cls-2" d="M486.03,52.79h0c-2.69,.38-6.14,.77-10.09,1.56-2.82,.56-4.83,.92-7.16,1.78-2.83,1.04-5.57,2.58-9.75,5.29-7.76,5.04-13.57,11.24-17.33,18.48,0,0,0,0,0,0-2.08,4.09-3.17,7.6-4.01,11.28-.36,1.56-.57,2.77-.73,3.99-.11,.84-.22,1.74-.24,2.94,0,.02,0,0,0,2.01v2.01s0,0,1.03,0h1.03c1.51,0,5.13,0,5.14,0,3.06,0,10.7,.34,16.84,.64h25.97s0-25.43,0-25.43l-.68-24.57Z"/>
  <path class="cls-2" d="M485.96,126.42v25.43h25.97c6.13-.3,13.77-.64,16.84-.64h7.19v-2.01c0-2.01,0-2,0-2.01-.03-1.2-.14-2.11-.24-2.94-.15-1.23-.37-2.43-.73-3.99-.84-3.68-1.92-7.19-4.01-11.28,0,0,0,0,0,0-3.76-7.24-9.57-13.44-17.33-18.48-4.18-2.71-6.93-4.25-9.75-5.29-2.33-.86-4.34-1.21-7.16-1.78-3.96-.79-7.4-1.18-10.09-1.56h0l-.68,24.57Z"/>
  <g>
    <path class="cls-2" d="M487.65,77.18c.49,14.21,1.46,25.12,2.27,25.61,.97,.66,5.03,1.65,9.25,2.15,9.73,1.32,22.71,10.25,29.36,20.16,4.87,6.94,6.16,10.25,8.76,22.48l.97,4.63h48.66v-6.28c0-3.47-1.14-10.74-2.43-16.03-10.38-41.31-45.74-72.88-85.8-76.18l-11.52-1.16,.49,24.62Z"/>
    <path class="cls-2" d="M491.91,103.53h-4.99l.36-51.32c1.54,17.11,3.08,34.21,4.63,51.32Z"/>
  </g>
  <path class="cls-2" d="M512.49,301.23h-25.43v25.97c.3,6.13,.64,13.77,.64,16.84v7.19h2.01c2.01,0,2,0,2.01,0,1.2-.03,2.11-.14,2.94-.24,1.23-.15,2.43-.37,3.99-.73,3.68-.84,7.19-1.92,11.28-4.01,0,0,0,0,0,0,7.24-3.76,13.44-9.57,18.48-17.33,2.71-4.18,4.25-6.93,5.29-9.75,.86-2.33,1.21-4.34,1.78-7.16,.79-3.96,1.18-7.4,1.56-10.09h0l-24.57-.68Z"/>
  <g>
    <path class="cls-2" d="M561.72,302.93c-14.21,.49-25.12,1.46-25.61,2.27-.66,.97-1.65,5.03-2.15,9.25-1.32,9.73-10.25,22.71-20.16,29.36-6.94,4.87-10.25,6.16-22.48,8.76l-4.63,.97v48.66h6.28c3.47,0,10.74-1.14,16.03-2.43,41.31-10.38,72.88-45.74,76.18-85.8l1.16-11.52-24.62,.49Z"/>
    <path class="cls-2" d="M535.38,307.18v-4.99l51.32,.36c-17.11,1.54-34.21,3.08-51.32,4.63Z"/>
  </g>
  <rect class="cls-2" x="818.77" y="152.12" width="100" height="150"/>
  <rect class="cls-2" x="666.66" y="102.14" width="100" height="300"/>
  <path class="cls-2" d="M667.12,75.54v25.43h25.97c6.13-.3,13.77-.64,16.84-.64h7.19v-2.01c0-2.01,0-2,0-2.01-.03-1.2-.14-2.11-.24-2.94-.15-1.23-.37-2.43-.73-3.99-.84-3.68-1.92-7.19-4.01-11.28,0,0,0,0,0,0-3.76-7.24-9.57-13.44-17.33-18.48-4.18-2.71-6.93-4.25-9.75-5.29-2.33-.86-4.34-1.21-7.16-1.78-3.96-.79-7.4-1.18-10.09-1.56h0l-.68,24.57Z"/>
  <g>
    <path class="cls-2" d="M668.81,26.3c.49,14.21,1.46,25.12,2.27,25.61,.97,.66,5.03,1.65,9.25,2.15,9.73,1.32,22.71,10.25,29.36,20.16,4.87,6.94,6.16,10.25,8.76,22.48l.97,4.63h48.66v-6.28c0-3.47-1.14-10.74-2.43-16.03-10.38-41.31-45.74-72.88-85.8-76.18l-11.52-1.16,.49,24.62Z"/>
    <path class="cls-2" d="M673.06,52.65h-4.99l.36-51.32c1.54,17.11,3.08,34.21,4.63,51.32Z"/>
  </g>
  <g>
    <rect class="cls-2" x="768.39" y="201.94" width="50" height="50"/>
    <circle class="cls-2" cx="793.39" cy="226.94" r="15"/>
  </g>
  <g>
    <rect class="cls-2" x="768.39" y="351.94" width="50" height="50"/>
    <circle class="cls-2" cx="793.39" cy="376.94" r="15"/>
  </g>
  <path class="cls-2" d="M817.92,52.81h0c-2.69,.38-6.14,.77-10.09,1.56-2.82,.56-4.83,.92-7.16,1.78-2.83,1.04-5.57,2.58-9.75,5.29-7.76,5.04-13.57,11.24-17.33,18.48,0,0,0,0,0,0-2.08,4.09-3.17,7.6-4.01,11.28-.36,1.56-.57,2.77-.73,3.99-.11,.84-.22,1.74-.24,2.94,0,.02,0,0,0,2.01v2.01s0,0,1.03,0h1.03c1.51,0,5.13,0,5.14,0,3.06,0,10.7,.34,16.84,.64h25.97s0-25.43,0-25.43l-.68-24.57Z"/>
  <path class="cls-2" d="M817.84,126.44v25.43h25.97c6.13-.3,13.77-.64,16.84-.64h7.19v-2.01c0-2.01,0-2,0-2.01-.03-1.2-.14-2.11-.24-2.94-.15-1.23-.37-2.43-.73-3.99-.84-3.68-1.92-7.19-4.01-11.28,0,0,0,0,0,0-3.76-7.24-9.57-13.44-17.33-18.48-4.18-2.71-6.93-4.25-9.75-5.29-2.33-.86-4.34-1.21-7.16-1.78-3.96-.79-7.4-1.18-10.09-1.56h0l-.68,24.57Z"/>
  <g>
    <path class="cls-2" d="M819.54,77.2c.49,14.21,1.46,25.12,2.27,25.61,.97,.66,5.03,1.65,9.25,2.15,9.73,1.32,22.71,10.25,29.36,20.16,4.87,6.94,6.16,10.25,8.76,22.48l.97,4.63h48.66v-6.28c0-3.47-1.14-10.74-2.43-16.03-10.38-41.31-45.74-72.88-85.8-76.18l-11.52-1.16,.49,24.62Z"/>
    <path class="cls-2" d="M823.79,103.55h-4.99l.36-51.32c1.54,17.11,3.08,34.21,4.63,51.32Z"/>
  </g>
  <path class="cls-2" d="M844.37,301.25h-25.43v25.97c.3,6.13,.64,13.77,.64,16.84v7.19h2.01c2.01,0,2,0,2.01,0,1.2-.03,2.11-.14,2.94-.24,1.23-.15,2.43-.37,3.99-.73,3.68-.84,7.19-1.92,11.28-4.01,0,0,0,0,0,0,7.24-3.76,13.44-9.57,18.48-17.33,2.71-4.18,4.25-6.93,5.29-9.75,.86-2.33,1.21-4.34,1.78-7.16,.79-3.96,1.18-7.4,1.56-10.09h0l-24.57-.68Z"/>
  <g>
    <path class="cls-2" d="M893.61,302.95c-14.21,.49-25.12,1.46-25.61,2.27-.66,.97-1.65,5.03-2.15,9.25-1.32,9.73-10.25,22.71-20.16,29.36-6.94,4.87-10.25,6.16-22.48,8.76l-4.63,.97v48.66h6.28c3.47,0,10.74-1.14,16.03-2.43,41.31-10.38,72.88-45.74,76.18-85.8l1.16-11.52-24.62,.49Z"/>
    <path class="cls-2" d="M867.26,307.2v-4.99l51.32,.36c-17.11,1.54-34.21,3.08-51.32,4.63Z"/>
  </g>
  <rect class="cls-2" x="1150.23" y="152.14" width="100" height="150"/>
  <rect class="cls-2" x="998.12" y="102.16" width="100" height="300"/>
  <path class="cls-2" d="M998.58,75.57v25.43h25.97c6.13-.3,13.77-.64,16.84-.64h7.19v-2.01c0-2.01,0-2,0-2.01-.03-1.2-.14-2.11-.24-2.94-.15-1.23-.37-2.43-.73-3.99-.84-3.68-1.92-7.19-4.01-11.28,0,0,0,0,0,0-3.76-7.24-9.57-13.44-17.33-18.48-4.18-2.71-6.93-4.25-9.75-5.29-2.33-.86-4.34-1.21-7.16-1.78-3.96-.79-7.4-1.18-10.09-1.56h0l-.68,24.57Z"/>
  <g>
    <path class="cls-2" d="M1000.27,26.33c.49,14.21,1.46,25.12,2.27,25.61,.97,.66,5.03,1.65,9.25,2.15,9.73,1.32,22.71,10.25,29.36,20.16,4.87,6.94,6.16,10.25,8.76,22.48l.97,4.63h48.66v-6.28c0-3.47-1.14-10.74-2.43-16.03-10.38-41.31-45.74-72.88-85.8-76.18l-11.52-1.16,.49,24.62Z"/>
    <path class="cls-2" d="M1004.53,52.68h-4.99l.36-51.32c1.54,17.11,3.08,34.21,4.63,51.32Z"/>
  </g>
  <g>
    <rect class="cls-2" x="1099.85" y="201.96" width="50" height="50"/>
    <circle class="cls-2" cx="1124.85" cy="226.96" r="15"/>
  </g>
  <rect class="cls-2" x="1099.85" y="351.96" width="50" height="50"/>
  <path class="cls-2" d="M1149.38,52.83h0c-2.69,.38-6.14,.77-10.09,1.56-2.82,.56-4.83,.92-7.16,1.78-2.83,1.04-5.57,2.58-9.75,5.29-7.76,5.04-13.57,11.24-17.33,18.48,0,0,0,0,0,0-2.08,4.09-3.17,7.6-4.01,11.28-.36,1.56-.57,2.77-.73,3.99-.11,.84-.22,1.74-.24,2.94,0,.02,0,0,0,2.01v2.01s0,0,1.03,0h1.03c1.51,0,5.13,0,5.14,0,3.06,0,10.7,.34,16.84,.64h25.97s0-25.43,0-25.43l-.68-24.57Z"/>
  <path class="cls-2" d="M1149.31,126.47v25.43h25.97c6.13-.3,13.77-.64,16.84-.64h7.19v-2.01c0-2.01,0-2,0-2.01-.03-1.2-.14-2.11-.24-2.94-.15-1.23-.37-2.43-.73-3.99-.84-3.68-1.92-7.19-4.01-11.28,0,0,0,0,0,0-3.76-7.24-9.57-13.44-17.33-18.48-4.18-2.71-6.93-4.25-9.75-5.29-2.33-.86-4.34-1.21-7.16-1.78-3.96-.79-7.4-1.18-10.09-1.56h0l-.68,24.57Z"/>
  <g>
    <path class="cls-2" d="M1151,77.23c.49,14.21,1.46,25.12,2.27,25.61,.97,.66,5.03,1.65,9.25,2.15,9.73,1.32,22.71,10.25,29.36,20.16,4.87,6.94,6.16,10.25,8.76,22.48l.97,4.63h48.66v-6.28c0-3.47-1.14-10.74-2.43-16.03-10.38-41.31-45.74-72.88-85.8-76.18l-11.52-1.16,.49,24.62Z"/>
    <path class="cls-2" d="M1155.25,103.58h-4.99l.36-51.32c1.54,17.11,3.08,34.21,4.63,51.32Z"/>
  </g>
  <path class="cls-2" d="M1175.83,301.28h-25.43v25.97c.3,6.13,.64,13.77,.64,16.84v7.19h2.01c2.01,0,2,0,2.01,0,1.2-.03,2.11-.14,2.94-.24,1.23-.15,2.43-.37,3.99-.73,3.68-.84,7.19-1.92,11.28-4.01,0,0,0,0,0,0,7.24-3.76,13.44-9.57,18.48-17.33,2.71-4.18,4.25-6.93,5.29-9.75,.86-2.33,1.21-4.34,1.78-7.16,.79-3.96,1.18-7.4,1.56-10.09h0l-24.57-.68Z"/>
  <g>
    <path class="cls-2" d="M1225.07,302.97c-14.21,.49-25.12,1.46-25.61,2.27-.66,.97-1.65,5.03-2.15,9.25-1.32,9.73-10.25,22.71-20.16,29.36-6.94,4.87-10.25,6.16-22.48,8.76l-4.63,.97v48.66h6.28c3.47,0,10.74-1.14,16.03-2.43,41.31-10.38,72.88-45.74,76.18-85.8l1.16-11.52-24.62,.49Z"/>
    <path class="cls-2" d="M1198.72,307.22v-4.99l51.32,.36c-17.11,1.54-34.21,3.08-51.32,4.63Z"/>
  </g>
  <g>
    <rect class="cls-2" x="484.61" y="575.78" width="100" height="150"/>
    <circle class="cls-2" cx="508.61" cy="700.78" r="15"/>
    <circle class="cls-2" cx="508.61" cy="649.78" r="15"/>
    <circle class="cls-2" cx="508.61" cy="600.78" r="15"/>
    <circle class="cls-2" cx="559.61" cy="700.78" r="15"/>
    <circle class="cls-2" cx="559.61" cy="649.78" r="15"/>
    <circle class="cls-2" cx="559.61" cy="600.78" r="15"/>
  </g>
  <rect class="cls-1" x="332.77" y="523.53" width="100" height="300"/>
  <path class="cls-2" d="M333.34,497.39v25.43h25.97c6.13-.3,13.77-.64,16.84-.64h7.19v-2.01c0-2.01,0-2,0-2.01-.03-1.2-.14-2.11-.24-2.94-.15-1.23-.37-2.43-.73-3.99-.84-3.68-1.92-7.19-4.01-11.28,0,0,0,0,0,0-3.76-7.24-9.57-13.44-17.33-18.48-4.18-2.71-6.93-4.25-9.75-5.29-2.33-.86-4.34-1.21-7.16-1.78-3.96-.79-7.4-1.18-10.09-1.56h0l-.68,24.57Z"/>
  <g>
    <path class="cls-2" d="M335.03,448.15c.49,14.21,1.46,25.12,2.27,25.61,.97,.66,5.03,1.65,9.25,2.15,9.73,1.32,22.71,10.25,29.36,20.16,4.87,6.94,6.16,10.25,8.76,22.48l.97,4.63h48.66v-6.28c0-3.47-1.14-10.74-2.43-16.03-10.38-41.31-45.74-72.88-85.8-76.18l-11.52-1.16,.49,24.62Z"/>
    <path class="cls-2" d="M339.28,474.5h-4.99l.36-51.32c1.54,17.11,3.08,34.21,4.63,51.32Z"/>
  </g>
  <g>
    <rect class="cls-2" x="434.61" y="623.78" width="50" height="50"/>
    <circle class="cls-2" cx="459.61" cy="648.78" r="15"/>
  </g>
  <g>
    <rect class="cls-2" x="434.61" y="773.78" width="50" height="50"/>
    <circle class="cls-2" cx="459.61" cy="798.78" r="15"/>
  </g>
  <path class="cls-2" d="M484.14,474.66h0c-2.69,.38-6.14,.77-10.09,1.56-2.82,.56-4.83,.92-7.16,1.78-2.83,1.04-5.57,2.58-9.75,5.29-7.76,5.04-13.57,11.24-17.33,18.48,0,0,0,0,0,0-2.08,4.09-3.17,7.6-4.01,11.28-.36,1.56-.57,2.77-.73,3.99-.11,.84-.22,1.74-.24,2.94,0,.02,0,0,0,2.01v2.01s0,0,1.03,0h1.03c1.51,0,5.13,0,5.14,0,3.06,0,10.7,.34,16.84,.64h25.97s0-25.43,0-25.43l-.68-24.57Z"/>
  <path class="cls-2" d="M484.06,548.29v25.43h25.97c6.13-.3,13.77-.64,16.84-.64h7.19v-2.01c0-2.01,0-2,0-2.01-.03-1.2-.14-2.11-.24-2.94-.15-1.23-.37-2.43-.73-3.99-.84-3.68-1.92-7.19-4.01-11.28,0,0,0,0,0,0-3.76-7.24-9.57-13.44-17.33-18.48-4.18-2.71-6.93-4.25-9.75-5.29-2.33-.86-4.34-1.21-7.16-1.78-3.96-.79-7.4-1.18-10.09-1.56h0l-.68,24.57Z"/>
  <g>
    <path class="cls-2" d="M485.76,499.05c.49,14.21,1.46,25.12,2.27,25.61,.97,.66,5.03,1.65,9.25,2.15,9.73,1.32,22.71,10.25,29.36,20.16,4.87,6.94,6.16,10.25,8.76,22.48l.97,4.63h48.66v-6.28c0-3.47-1.14-10.74-2.43-16.03-10.38-41.31-45.74-72.88-85.8-76.18l-11.52-1.16,.49,24.62Z"/>
    <path class="cls-2" d="M490.01,525.4h-4.99l.36-51.32c1.54,17.11,3.08,34.21,4.63,51.32Z"/>
  </g>
  <path class="cls-2" d="M510.59,723.1h-25.43v25.97c.3,6.13,.64,13.77,.64,16.84v7.19h2.01c2.01,0,2,0,2.01,0,1.2-.03,2.11-.14,2.94-.24,1.23-.15,2.43-.37,3.99-.73,3.68-.84,7.19-1.92,11.28-4.01,0,0,0,0,0,0,7.24-3.76,13.44-9.57,18.48-17.33,2.71-4.18,4.25-6.93,5.29-9.75,.86-2.33,1.21-4.34,1.78-7.16,.79-3.96,1.18-7.4,1.56-10.09h0l-24.57-.68Z"/>
  <g>
    <path class="cls-2" d="M559.83,724.79c-14.21,.49-25.12,1.46-25.61,2.27-.66,.97-1.65,5.03-2.15,9.25-1.32,9.73-10.25,22.71-20.16,29.36-6.94,4.87-10.25,6.16-22.48,8.76l-4.63,.97v48.66h6.28c3.47,0,10.74-1.14,16.03-2.43,41.31-10.38,72.88-45.74,76.18-85.8l1.16-11.52-24.62,.49Z"/>
    <path class="cls-2" d="M533.48,729.05v-4.99l51.32,.36c-17.11,1.54-34.21,3.08-51.32,4.63Z"/>
  </g>
  <rect class="cls-1" x="817.92" y="575.62" width="100" height="150"/>
  <rect class="cls-1" x="666.08" y="523.37" width="100" height="300"/>
  <path class="cls-2" d="M666.65,497.23v25.43h25.97c6.13-.3,13.77-.64,16.84-.64h7.19v-2.01c0-2.01,0-2,0-2.01-.03-1.2-.14-2.11-.24-2.94-.15-1.23-.37-2.43-.73-3.99-.84-3.68-1.92-7.19-4.01-11.28,0,0,0,0,0,0-3.76-7.24-9.57-13.44-17.33-18.48-4.18-2.71-6.93-4.25-9.75-5.29-2.33-.86-4.34-1.21-7.16-1.78-3.96-.79-7.4-1.18-10.09-1.56h0l-.68,24.57Z"/>
  <g>
    <path class="cls-2" d="M668.34,447.99c.49,14.21,1.46,25.12,2.27,25.61,.97,.66,5.03,1.65,9.25,2.15,9.73,1.32,22.71,10.25,29.36,20.16,4.87,6.94,6.16,10.25,8.76,22.48l.97,4.63h48.66v-6.28c0-3.47-1.14-10.74-2.43-16.03-10.38-41.31-45.74-72.88-85.8-76.18l-11.52-1.16,.49,24.62Z"/>
    <path class="cls-2" d="M672.6,474.34h-4.99l.36-51.32c1.54,17.11,3.08,34.21,4.63,51.32Z"/>
  </g>
  <g>
    <rect class="cls-2" x="767.92" y="623.62" width="50" height="50"/>
    <circle class="cls-2" cx="792.92" cy="648.62" r="15"/>
  </g>
  <g>
    <rect class="cls-2" x="767.92" y="773.62" width="50" height="50"/>
    <circle class="cls-2" cx="792.92" cy="798.62" r="15"/>
  </g>
  <path class="cls-2" d="M817.45,474.49h0c-2.69,.38-6.14,.77-10.09,1.56-2.82,.56-4.83,.92-7.16,1.78-2.83,1.04-5.57,2.58-9.75,5.29-7.76,5.04-13.57,11.24-17.33,18.48,0,0,0,0,0,0-2.08,4.09-3.17,7.6-4.01,11.28-.36,1.56-.57,2.77-.73,3.99-.11,.84-.22,1.74-.24,2.94,0,.02,0,0,0,2.01v2.01s0,0,1.03,0h1.03c1.51,0,5.13,0,5.14,0,3.06,0,10.7,.34,16.84,.64h25.97s0-25.43,0-25.43l-.68-24.57Z"/>
  <path class="cls-2" d="M817.38,548.13v25.43h25.97c6.13-.3,13.77-.64,16.84-.64h7.19v-2.01c0-2.01,0-2,0-2.01-.03-1.2-.14-2.11-.24-2.94-.15-1.23-.37-2.43-.73-3.99-.84-3.68-1.92-7.19-4.01-11.28,0,0,0,0,0,0-3.76-7.24-9.57-13.44-17.33-18.48-4.18-2.71-6.93-4.25-9.75-5.29-2.33-.86-4.34-1.21-7.16-1.78-3.96-.79-7.4-1.18-10.09-1.56h0l-.68,24.57Z"/>
  <g>
    <path class="cls-2" d="M819.07,498.89c.49,14.21,1.46,25.12,2.27,25.61,.97,.66,5.03,1.65,9.25,2.15,9.73,1.32,22.71,10.25,29.36,20.16,4.87,6.94,6.16,10.25,8.76,22.48l.97,4.63h48.66v-6.28c0-3.47-1.14-10.74-2.43-16.03-10.38-41.31-45.74-72.88-85.8-76.18l-11.52-1.16,.49,24.62Z"/>
    <path class="cls-2" d="M823.32,525.24h-4.99l.36-51.32c1.54,17.11,3.08,34.21,4.63,51.32Z"/>
  </g>
  <path class="cls-2" d="M843.9,722.94h-25.43v25.97c.3,6.13,.64,13.77,.64,16.84v7.19h2.01c2.01,0,2,0,2.01,0,1.2-.03,2.11-.14,2.94-.24,1.23-.15,2.43-.37,3.99-.73,3.68-.84,7.19-1.92,11.28-4.01,0,0,0,0,0,0,7.24-3.76,13.44-9.57,18.48-17.33,2.71-4.18,4.25-6.93,5.29-9.75,.86-2.33,1.21-4.34,1.78-7.16,.79-3.96,1.18-7.4,1.56-10.09h0l-24.57-.68Z"/>
  <g>
    <path class="cls-2" d="M893.14,724.63c-14.21,.49-25.12,1.46-25.61,2.27-.66,.97-1.65,5.03-2.15,9.25-1.32,9.73-10.25,22.71-20.16,29.36-6.94,4.87-10.25,6.16-22.48,8.76l-4.63,.97v48.66h6.28c3.47,0,10.74-1.14,16.03-2.43,41.31-10.38,72.88-45.74,76.18-85.8l1.16-11.52-24.62,.49Z"/>
    <path class="cls-2" d="M866.79,728.88v-4.99l51.32,.36c-17.11,1.54-34.21,3.08-51.32,4.63Z"/>
  </g>
  <g>
    <rect class="cls-2" x="153.87" y="575.78" width="100" height="150"/>
    <circle class="cls-2" cx="177.87" cy="700.78" r="15"/>
    <circle class="cls-2" cx="177.87" cy="649.78" r="15"/>
    <circle class="cls-2" cx="177.87" cy="600.78" r="15"/>
    <circle class="cls-2" cx="228.87" cy="700.78" r="15"/>
    <circle class="cls-2" cx="228.87" cy="649.78" r="15"/>
    <circle class="cls-2" cx="228.87" cy="600.78" r="15"/>
  </g>
  <rect class="cls-2" x="3.87" y="523.78" width="100" height="300"/>
  <circle class="cls-2" cx="27.87" cy="798.78" r="15"/>
  <circle class="cls-2" cx="27.87" cy="747.78" r="15"/>
  <circle class="cls-2" cx="27.87" cy="698.78" r="15"/>
  <circle class="cls-2" cx="78.87" cy="798.78" r="15"/>
  <circle class="cls-2" cx="78.87" cy="747.78" r="15"/>
  <circle class="cls-2" cx="78.87" cy="698.78" r="15"/>
  <circle class="cls-2" cx="27.87" cy="648.78" r="15"/>
  <circle class="cls-2" cx="27.87" cy="597.78" r="15"/>
  <circle class="cls-2" cx="27.87" cy="548.78" r="15"/>
  <circle class="cls-2" cx="78.87" cy="648.78" r="15"/>
  <circle class="cls-2" cx="78.87" cy="597.78" r="15"/>
  <circle class="cls-2" cx="78.87" cy="548.78" r="15"/>
  <path class="cls-2" d="M2.6,497.39v25.43H28.57c6.13-.3,13.77-.64,16.84-.64h7.19v-2.01c0-2.01,0-2,0-2.01-.03-1.2-.14-2.11-.24-2.94-.15-1.23-.37-2.43-.73-3.99-.84-3.68-1.92-7.19-4.01-11.28,0,0,0,0,0,0-3.76-7.24-9.57-13.44-17.33-18.48-4.18-2.71-6.93-4.25-9.75-5.29-2.33-.86-4.34-1.21-7.16-1.78-3.96-.79-7.4-1.18-10.09-1.56h0l-.68,24.57Z"/>
  <g>
    <path class="cls-2" d="M4.29,448.15c.49,14.21,1.46,25.12,2.27,25.61,.97,.66,5.03,1.65,9.25,2.15,9.73,1.32,22.71,10.25,29.36,20.16,4.87,6.94,6.16,10.25,8.76,22.48l.97,4.63h48.66v-6.28c0-3.47-1.14-10.74-2.43-16.03-10.38-41.31-45.74-72.88-85.8-76.18l-11.52-1.16,.49,24.62Z"/>
    <path class="cls-2" d="M8.54,474.5H3.55l.36-51.32c1.54,17.11,3.08,34.21,4.63,51.32Z"/>
  </g>
  <rect class="cls-1" x="103.87" y="623.78" width="50" height="50"/>
  <rect class="cls-2" x="103.87" y="773.78" width="50" height="50"/>
  <path class="cls-2" d="M153.39,474.66h0c-2.69,.38-6.14,.77-10.09,1.56-2.82,.56-4.83,.92-7.16,1.78-2.83,1.04-5.57,2.58-9.75,5.29-7.76,5.04-13.57,11.24-17.33,18.48,0,0,0,0,0,0-2.08,4.09-3.17,7.6-4.01,11.28-.36,1.56-.57,2.77-.73,3.99-.11,.84-.22,1.74-.24,2.94,0,.02,0,0,0,2.01v2.01s0,0,1.03,0h1.03c1.51,0,5.13,0,5.14,0,3.06,0,10.7,.34,16.84,.64h25.97s0-25.43,0-25.43l-.68-24.57Z"/>
  <path class="cls-2" d="M153.32,548.29v25.43h25.97c6.13-.3,13.77-.64,16.84-.64h7.19v-2.01c0-2.01,0-2,0-2.01-.03-1.2-.14-2.11-.24-2.94-.15-1.23-.37-2.43-.73-3.99-.84-3.68-1.92-7.19-4.01-11.28,0,0,0,0,0,0-3.76-7.24-9.57-13.44-17.33-18.48-4.18-2.71-6.93-4.25-9.75-5.29-2.33-.86-4.34-1.21-7.16-1.78-3.96-.79-7.4-1.18-10.09-1.56h0l-.68,24.57Z"/>
  <g>
    <path class="cls-2" d="M155.01,499.05c.49,14.21,1.46,25.12,2.27,25.61,.97,.66,5.03,1.65,9.25,2.15,9.73,1.32,22.71,10.25,29.36,20.16,4.87,6.94,6.16,10.25,8.76,22.48l.97,4.63h48.66v-6.28c0-3.47-1.14-10.74-2.43-16.03-10.38-41.31-45.74-72.88-85.8-76.18l-11.52-1.16,.49,24.62Z"/>
    <path class="cls-2" d="M159.27,525.4h-4.99l.36-51.32c1.54,17.11,3.08,34.21,4.63,51.32Z"/>
  </g>
  <path class="cls-2" d="M179.85,723.1h-25.43v25.97c.3,6.13,.64,13.77,.64,16.84v7.19h2.01c2.01,0,2,0,2.01,0,1.2-.03,2.11-.14,2.94-.24,1.23-.15,2.43-.37,3.99-.73,3.68-.84,7.19-1.92,11.28-4.01,0,0,0,0,0,0,7.24-3.76,13.44-9.57,18.48-17.33,2.71-4.18,4.25-6.93,5.29-9.75,.86-2.33,1.21-4.34,1.78-7.16,.79-3.96,1.18-7.4,1.56-10.09h0l-24.57-.68Z"/>
  <g>
    <path class="cls-2" d="M229.08,724.79c-14.21,.49-25.12,1.46-25.61,2.27-.66,.97-1.65,5.03-2.15,9.25-1.32,9.73-10.25,22.71-20.16,29.36-6.94,4.87-10.25,6.16-22.48,8.76l-4.63,.97v48.66h6.28c3.47,0,10.74-1.14,16.03-2.43,41.31-10.38,72.88-45.74,76.18-85.8l1.16-11.52-24.62,.49Z"/>
    <path class="cls-2" d="M202.74,729.05v-4.99l51.32,.36c-17.11,1.54-34.21,3.08-51.32,4.63Z"/>
  </g>
  <rect class="cls-1" x="1150.88" y="575.94" width="100" height="150"/>
  <rect class="cls-1" x="999.04" y="523.69" width="100" height="300"/>
  <path class="cls-2" d="M999.61,497.55v25.43h25.97c6.13-.3,13.77-.64,16.84-.64h7.19v-2.01c0-2.01,0-2,0-2.01-.03-1.2-.14-2.11-.24-2.94-.15-1.23-.37-2.43-.73-3.99-.84-3.68-1.92-7.19-4.01-11.28,0,0,0,0,0,0-3.76-7.24-9.57-13.44-17.33-18.48-4.18-2.71-6.93-4.25-9.75-5.29-2.33-.86-4.34-1.21-7.16-1.78-3.96-.79-7.4-1.18-10.09-1.56h0l-.68,24.57Z"/>
  <g>
    <path class="cls-2" d="M1001.3,448.31c.49,14.21,1.46,25.12,2.27,25.61,.97,.66,5.03,1.65,9.25,2.15,9.73,1.32,22.71,10.25,29.36,20.16,4.87,6.94,6.16,10.25,8.76,22.48l.97,4.63h48.66v-6.28c0-3.47-1.14-10.74-2.43-16.03-10.38-41.31-45.74-72.88-85.8-76.18l-11.52-1.16,.49,24.62Z"/>
    <path class="cls-2" d="M1005.56,474.66h-4.99l.36-51.32c1.54,17.11,3.08,34.21,4.63,51.32Z"/>
  </g>
  <g>
    <rect class="cls-1" x="1100.88" y="623.94" width="50" height="50"/>
    <circle class="cls-1" cx="1125.88" cy="648.94" r="15"/>
  </g>
  <rect class="cls-1" x="1100.88" y="773.94" width="50" height="50"/>
  <path class="cls-2" d="M1150.41,474.82h0c-2.69,.38-6.14,.77-10.09,1.56-2.82,.56-4.83,.92-7.16,1.78-2.83,1.04-5.57,2.58-9.75,5.29-7.76,5.04-13.57,11.24-17.33,18.48,0,0,0,0,0,0-2.08,4.09-3.17,7.6-4.01,11.28-.36,1.56-.57,2.77-.73,3.99-.11,.84-.22,1.74-.24,2.94,0,.02,0,0,0,2.01v2.01s0,0,1.03,0h1.03c1.51,0,5.13,0,5.14,0,3.06,0,10.7,.34,16.84,.64h25.97s0-25.43,0-25.43l-.68-24.57Z"/>
  <path class="cls-2" d="M1150.34,548.45v25.43h25.97c6.13-.3,13.77-.64,16.84-.64h7.19v-2.01c0-2.01,0-2,0-2.01-.03-1.2-.14-2.11-.24-2.94-.15-1.23-.37-2.43-.73-3.99-.84-3.68-1.92-7.19-4.01-11.28,0,0,0,0,0,0-3.76-7.24-9.57-13.44-17.33-18.48-4.18-2.71-6.93-4.25-9.75-5.29-2.33-.86-4.34-1.21-7.16-1.78-3.96-.79-7.4-1.18-10.09-1.56h0l-.68,24.57Z"/>
  <g>
    <path class="cls-2" d="M1152.03,499.21c.49,14.21,1.46,25.12,2.27,25.61,.97,.66,5.03,1.65,9.25,2.15,9.73,1.32,22.71,10.25,29.36,20.16,4.87,6.94,6.16,10.25,8.76,22.48l.97,4.63h48.66v-6.28c0-3.47-1.14-10.74-2.43-16.03-10.38-41.31-45.74-72.88-85.8-76.18l-11.52-1.16,.49,24.62Z"/>
    <path class="cls-2" d="M1156.28,525.56h-4.99l.36-51.32c1.54,17.11,3.08,34.21,4.63,51.32Z"/>
  </g>
  <path class="cls-2" d="M1176.86,723.26h-25.43v25.97c.3,6.13,.64,13.77,.64,16.84v7.19h2.01c2.01,0,2,0,2.01,0,1.2-.03,2.11-.14,2.94-.24,1.23-.15,2.43-.37,3.99-.73,3.68-.84,7.19-1.92,11.28-4.01,0,0,0,0,0,0,7.24-3.76,13.44-9.57,18.48-17.33,2.71-4.18,4.25-6.93,5.29-9.75,.86-2.33,1.21-4.34,1.78-7.16,.79-3.96,1.18-7.4,1.56-10.09h0l-24.57-.68Z"/>
  <g>
    <path class="cls-2" d="M1226.1,724.96c-14.21,.49-25.12,1.46-25.61,2.27-.66,.97-1.65,5.03-2.15,9.25-1.32,9.73-10.25,22.71-20.16,29.36-6.94,4.87-10.25,6.16-22.48,8.76l-4.63,.97v48.66h6.28c3.47,0,10.74-1.14,16.03-2.43,41.31-10.38,72.88-45.74,76.18-85.8l1.16-11.52-24.62,.49Z"/>
    <path class="cls-2" d="M1199.75,729.21v-4.99l51.32,.36c-17.11,1.54-34.21,3.08-51.32,4.63Z"/>
  </g>
  <rect class="cls-1" x="154.36" y="1000.78" width="100" height="150"/>
  <rect class="cls-1" x="4.36" y="948.78" width="100" height="300"/>
  <path class="cls-1" d="M3.09,922.39v25.43H29.06c6.13-.3,13.77-.64,16.84-.64h7.19v-2.01c0-2.01,0-2,0-2.01-.03-1.2-.14-2.11-.24-2.94-.15-1.23-.37-2.43-.73-3.99-.84-3.68-1.92-7.19-4.01-11.28,0,0,0,0,0,0-3.76-7.24-9.57-13.44-17.33-18.48-4.18-2.71-6.93-4.25-9.75-5.29-2.33-.86-4.34-1.21-7.16-1.78-3.96-.79-7.4-1.18-10.09-1.56h0l-.68,24.57Z"/>
  <g>
    <path class="cls-2" d="M4.78,873.15c.49,14.21,1.46,25.12,2.27,25.61,.97,.66,5.03,1.65,9.25,2.15,9.73,1.32,22.71,10.25,29.36,20.16,4.87,6.94,6.16,10.25,8.76,22.48l.97,4.63h48.66v-6.28c0-3.47-1.14-10.74-2.43-16.03-10.38-41.31-45.74-72.88-85.8-76.18l-11.52-1.16,.49,24.62Z"/>
    <path class="cls-2" d="M9.03,899.5H4.04l.36-51.32c1.54,17.11,3.08,34.21,4.63,51.32Z"/>
  </g>
  <rect class="cls-1" x="104.36" y="1048.78" width="50" height="50"/>
  <rect class="cls-1" x="104.36" y="1198.78" width="50" height="50"/>
  <path class="cls-1" d="M153.88,899.66h0c-2.69,.38-6.14,.77-10.09,1.56-2.82,.56-4.83,.92-7.16,1.78-2.83,1.04-5.57,2.58-9.75,5.29-7.76,5.04-13.57,11.24-17.33,18.48,0,0,0,0,0,0-2.08,4.09-3.17,7.6-4.01,11.28-.36,1.56-.57,2.77-.73,3.99-.11,.84-.22,1.74-.24,2.94,0,.02,0,0,0,2.01v2.01s0,0,1.03,0h1.03c1.51,0,5.13,0,5.14,0,3.06,0,10.7,.34,16.84,.64h25.97s0-25.43,0-25.43l-.68-24.57Z"/>
  <path class="cls-1" d="M153.81,973.29v25.43h25.97c6.13-.3,13.77-.64,16.84-.64h7.19v-2.01c0-2.01,0-2,0-2.01-.03-1.2-.14-2.11-.24-2.94-.15-1.23-.37-2.43-.73-3.99-.84-3.68-1.92-7.19-4.01-11.28,0,0,0,0,0,0-3.76-7.24-9.57-13.44-17.33-18.48-4.18-2.71-6.93-4.25-9.75-5.29-2.33-.86-4.34-1.21-7.16-1.78-3.96-.79-7.4-1.18-10.09-1.56h0l-.68,24.57Z"/>
  <g>
    <path class="cls-2" d="M155.5,924.05c.49,14.21,1.46,25.12,2.27,25.61,.97,.66,5.03,1.65,9.25,2.15,9.73,1.32,22.71,10.25,29.36,20.16,4.87,6.94,6.16,10.25,8.76,22.48l.97,4.63h48.66v-6.28c0-3.47-1.14-10.74-2.43-16.03-10.38-41.31-45.74-72.88-85.8-76.18l-11.52-1.16,.49,24.62Z"/>
    <path class="cls-2" d="M159.76,950.4h-4.99l.36-51.32c1.54,17.11,3.08,34.21,4.63,51.32Z"/>
  </g>
  <path class="cls-1" d="M180.34,1148.1h-25.43v25.97c.3,6.13,.64,13.77,.64,16.84v7.19h2.01c2.01,0,2,0,2.01,0,1.2-.03,2.11-.14,2.94-.24,1.23-.15,2.43-.37,3.99-.73,3.68-.84,7.19-1.92,11.28-4.01,0,0,0,0,0,0,7.24-3.76,13.44-9.57,18.48-17.33,2.71-4.18,4.25-6.93,5.29-9.75,.86-2.33,1.21-4.34,1.78-7.16,.79-3.96,1.18-7.4,1.56-10.09h0l-24.57-.68Z"/>
  <g>
    <path class="cls-2" d="M229.57,1149.79c-14.21,.49-25.12,1.46-25.61,2.27-.66,.97-1.65,5.03-2.15,9.25-1.32,9.73-10.25,22.71-20.16,29.36-6.94,4.87-10.25,6.16-22.48,8.76l-4.63,.97v48.66h6.28c3.47,0,10.74-1.14,16.03-2.43,41.31-10.38,72.88-45.74,76.18-85.8l1.16-11.52-24.62,.49Z"/>
    <path class="cls-2" d="M203.23,1154.05v-4.99l51.32,.36c-17.11,1.54-34.21,3.08-51.32,4.63Z"/>
  </g>
  <circle class="cls-1" cx="129.77" cy="1223.9" r="15"/>
  <circle class="cls-1" cx="129.77" cy="1073.9" r="15"/>
  <rect class="cls-1" x="484.66" y="1000.78" width="100" height="150"/>
  <rect class="cls-1" x="334.66" y="948.78" width="100" height="300"/>
  <path class="cls-2" d="M333.39,922.39v25.43h25.97c6.13-.3,13.77-.64,16.84-.64h7.19v-2.01c0-2.01,0-2,0-2.01-.03-1.2-.14-2.11-.24-2.94-.15-1.23-.37-2.43-.73-3.99-.84-3.68-1.92-7.19-4.01-11.28,0,0,0,0,0,0-3.76-7.24-9.57-13.44-17.33-18.48-4.18-2.71-6.93-4.25-9.75-5.29-2.33-.86-4.34-1.21-7.16-1.78-3.96-.79-7.4-1.18-10.09-1.56h0l-.68,24.57Z"/>
  <g>
    <path class="cls-1" d="M335.08,873.15c.49,14.21,1.46,25.12,2.27,25.61,.97,.66,5.03,1.65,9.25,2.15,9.73,1.32,22.71,10.25,29.36,20.16,4.87,6.94,6.16,10.25,8.76,22.48l.97,4.63h48.66v-6.28c0-3.47-1.14-10.74-2.43-16.03-10.38-41.31-45.74-72.88-85.8-76.18l-11.52-1.16,.49,24.62Z"/>
    <path class="cls-1" d="M339.33,899.5h-4.99l.36-51.32c1.54,17.11,3.08,34.21,4.63,51.32Z"/>
  </g>
  <rect class="cls-1" x="434.66" y="1048.78" width="50" height="50"/>
  <rect class="cls-1" x="434.66" y="1198.78" width="50" height="50"/>
  <path class="cls-2" d="M484.19,899.66h0c-2.69,.38-6.14,.77-10.09,1.56-2.82,.56-4.83,.92-7.16,1.78-2.83,1.04-5.57,2.58-9.75,5.29-7.76,5.04-13.57,11.24-17.33,18.48,0,0,0,0,0,0-2.08,4.09-3.17,7.6-4.01,11.28-.36,1.56-.57,2.77-.73,3.99-.11,.84-.22,1.74-.24,2.94,0,.02,0,0,0,2.01v2.01s0,0,1.03,0h1.03c1.51,0,5.13,0,5.14,0,3.06,0,10.7,.34,16.84,.64h25.97s0-25.43,0-25.43l-.68-24.57Z"/>
  <path class="cls-2" d="M484.11,973.29v25.43h25.97c6.13-.3,13.77-.64,16.84-.64h7.19v-2.01c0-2.01,0-2,0-2.01-.03-1.2-.14-2.11-.24-2.94-.15-1.23-.37-2.43-.73-3.99-.84-3.68-1.92-7.19-4.01-11.28,0,0,0,0,0,0-3.76-7.24-9.57-13.44-17.33-18.48-4.18-2.71-6.93-4.25-9.75-5.29-2.33-.86-4.34-1.21-7.16-1.78-3.96-.79-7.4-1.18-10.09-1.56h0l-.68,24.57Z"/>
  <g>
    <path class="cls-1" d="M485.81,924.05c.49,14.21,1.46,25.12,2.27,25.61,.97,.66,5.03,1.65,9.25,2.15,9.73,1.32,22.71,10.25,29.36,20.16,4.87,6.94,6.16,10.25,8.76,22.48l.97,4.63h48.66v-6.28c0-3.47-1.14-10.74-2.43-16.03-10.38-41.31-45.74-72.88-85.8-76.18l-11.52-1.16,.49,24.62Z"/>
    <path class="cls-1" d="M490.06,950.4h-4.99l.36-51.32c1.54,17.11,3.08,34.21,4.63,51.32Z"/>
  </g>
  <path class="cls-2" d="M510.64,1148.1h-25.43v25.97c.3,6.13,.64,13.77,.64,16.84v7.19h2.01c2.01,0,2,0,2.01,0,1.2-.03,2.11-.14,2.94-.24,1.23-.15,2.43-.37,3.99-.73,3.68-.84,7.19-1.92,11.28-4.01,0,0,0,0,0,0,7.24-3.76,13.44-9.57,18.48-17.33,2.71-4.18,4.25-6.93,5.29-9.75,.86-2.33,1.21-4.34,1.78-7.16,.79-3.96,1.18-7.4,1.56-10.09h0l-24.57-.68Z"/>
  <g>
    <path class="cls-1" d="M559.88,1149.79c-14.21,.49-25.12,1.46-25.61,2.27-.66,.97-1.65,5.03-2.15,9.25-1.32,9.73-10.25,22.71-20.16,29.36-6.94,4.87-10.25,6.16-22.48,8.76l-4.63,.97v48.66h6.28c3.47,0,10.74-1.14,16.03-2.43,41.31-10.38,72.88-45.74,76.18-85.8l1.16-11.52-24.62,.49Z"/>
    <path class="cls-1" d="M533.53,1154.05v-4.99l51.32,.36c-17.11,1.54-34.21,3.08-51.32,4.63Z"/>
  </g>
  <circle class="cls-1" cx="460.08" cy="1073.9" r="15"/>
  <rect class="cls-1" x="818.56" y="1000.87" width="100" height="150"/>
  <rect class="cls-1" x="668.56" y="948.87" width="100" height="300"/>
  <path class="cls-1" d="M667.29,922.48v25.43h25.97c6.13-.3,13.77-.64,16.84-.64h7.19v-2.01c0-2.01,0-2,0-2.01-.03-1.2-.14-2.11-.24-2.94-.15-1.23-.37-2.43-.73-3.99-.84-3.68-1.92-7.19-4.01-11.28,0,0,0,0,0,0-3.76-7.24-9.57-13.44-17.33-18.48-4.18-2.71-6.93-4.25-9.75-5.29-2.33-.86-4.34-1.21-7.16-1.78-3.96-.79-7.4-1.18-10.09-1.56h0l-.68,24.57Z"/>
  <g>
    <path class="cls-1" d="M668.98,873.24c.49,14.21,1.46,25.12,2.27,25.61,.97,.66,5.03,1.65,9.25,2.15,9.73,1.32,22.71,10.25,29.36,20.16,4.87,6.94,6.16,10.25,8.76,22.48l.97,4.63h48.66v-6.28c0-3.47-1.14-10.74-2.43-16.03-10.38-41.31-45.74-72.88-85.8-76.18l-11.52-1.16,.49,24.62Z"/>
    <path class="cls-1" d="M673.23,899.59h-4.99l.36-51.32c1.54,17.11,3.08,34.21,4.63,51.32Z"/>
  </g>
  <rect class="cls-2" x="768.56" y="1048.87" width="50" height="50"/>
  <rect class="cls-1" x="768.56" y="1198.87" width="50" height="50"/>
  <path class="cls-1" d="M818.08,899.74h0c-2.69,.38-6.14,.77-10.09,1.56-2.82,.56-4.83,.92-7.16,1.78-2.83,1.04-5.57,2.58-9.75,5.29-7.76,5.04-13.57,11.24-17.33,18.48,0,0,0,0,0,0-2.08,4.09-3.17,7.6-4.01,11.28-.36,1.56-.57,2.77-.73,3.99-.11,.84-.22,1.74-.24,2.94,0,.02,0,0,0,2.01v2.01s0,0,1.03,0h1.03c1.51,0,5.13,0,5.14,0,3.06,0,10.7,.34,16.84,.64h25.97s0-25.43,0-25.43l-.68-24.57Z"/>
  <path class="cls-1" d="M818.01,973.37v25.43h25.97c6.13-.3,13.77-.64,16.84-.64h7.19v-2.01c0-2.01,0-2,0-2.01-.03-1.2-.14-2.11-.24-2.94-.15-1.23-.37-2.43-.73-3.99-.84-3.68-1.92-7.19-4.01-11.28,0,0,0,0,0,0-3.76-7.24-9.57-13.44-17.33-18.48-4.18-2.71-6.93-4.25-9.75-5.29-2.33-.86-4.34-1.21-7.16-1.78-3.96-.79-7.4-1.18-10.09-1.56h0l-.68,24.57Z"/>
  <g>
    <path class="cls-1" d="M819.7,924.14c.49,14.21,1.46,25.12,2.27,25.61,.97,.66,5.03,1.65,9.25,2.15,9.73,1.32,22.71,10.25,29.36,20.16,4.87,6.94,6.16,10.25,8.76,22.48l.97,4.63h48.66v-6.28c0-3.47-1.14-10.74-2.43-16.03-10.38-41.31-45.74-72.88-85.8-76.18l-11.52-1.16,.49,24.62Z"/>
    <path class="cls-1" d="M823.96,950.48h-4.99l.36-51.32c1.54,17.11,3.08,34.21,4.63,51.32Z"/>
  </g>
  <path class="cls-1" d="M844.54,1148.19h-25.43v25.97c.3,6.13,.64,13.77,.64,16.84v7.19h2.01c2.01,0,2,0,2.01,0,1.2-.03,2.11-.14,2.94-.24,1.23-.15,2.43-.37,3.99-.73,3.68-.84,7.19-1.92,11.28-4.01,0,0,0,0,0,0,7.24-3.76,13.44-9.57,18.48-17.33,2.71-4.18,4.25-6.93,5.29-9.75,.86-2.33,1.21-4.34,1.78-7.16,.79-3.96,1.18-7.4,1.56-10.09h0l-24.57-.68Z"/>
  <g>
    <path class="cls-1" d="M893.77,1149.88c-14.21,.49-25.12,1.46-25.61,2.27-.66,.97-1.65,5.03-2.15,9.25-1.32,9.73-10.25,22.71-20.16,29.36-6.94,4.87-10.25,6.16-22.48,8.76l-4.63,.97v48.66h6.28c3.47,0,10.74-1.14,16.03-2.43,41.31-10.38,72.88-45.74,76.18-85.8l1.16-11.52-24.62,.49Z"/>
    <path class="cls-1" d="M867.43,1154.13v-4.99l51.32,.36c-17.11,1.54-34.21,3.08-51.32,4.63Z"/>
  </g>
  <circle class="cls-1" cx="793.97" cy="1073.98" r="15"/>
  <rect class="cls-1" x="1149.33" y="1000.7" width="100" height="150"/>
  <rect class="cls-1" x="999.33" y="948.7" width="100" height="300"/>
  <path class="cls-1" d="M998.06,922.3v25.43h25.97c6.13-.3,13.77-.64,16.84-.64h7.19v-2.01c0-2.01,0-2,0-2.01-.03-1.2-.14-2.11-.24-2.94-.15-1.23-.37-2.43-.73-3.99-.84-3.68-1.92-7.19-4.01-11.28,0,0,0,0,0,0-3.76-7.24-9.57-13.44-17.33-18.48-4.18-2.71-6.93-4.25-9.75-5.29-2.33-.86-4.34-1.21-7.16-1.78-3.96-.79-7.4-1.18-10.09-1.56h0l-.68,24.57Z"/>
  <g>
    <path class="cls-1" d="M999.75,873.07c.49,14.21,1.46,25.12,2.27,25.61,.97,.66,5.03,1.65,9.25,2.15,9.73,1.32,22.71,10.25,29.36,20.16,4.87,6.94,6.16,10.25,8.76,22.48l.97,4.63h48.66v-6.28c0-3.47-1.14-10.74-2.43-16.03-10.38-41.31-45.74-72.88-85.8-76.18l-11.52-1.16,.49,24.62Z"/>
    <path class="cls-1" d="M1004,899.41h-4.99l.36-51.32c1.54,17.11,3.08,34.21,4.63,51.32Z"/>
  </g>
  <rect class="cls-1" x="1099.33" y="1048.7" width="50" height="50"/>
  <rect class="cls-1" x="1099.33" y="1198.7" width="50" height="50"/>
  <path class="cls-1" d="M1148.86,899.57h0c-2.69,.38-6.14,.77-10.09,1.56-2.82,.56-4.83,.92-7.16,1.78-2.83,1.04-5.57,2.58-9.75,5.29-7.76,5.04-13.57,11.24-17.33,18.48,0,0,0,0,0,0-2.08,4.09-3.17,7.6-4.01,11.28-.36,1.56-.57,2.77-.73,3.99-.11,.84-.22,1.74-.24,2.94,0,.02,0,0,0,2.01v2.01s0,0,1.03,0h1.03c1.51,0,5.13,0,5.14,0,3.06,0,10.7,.34,16.84,.64h25.97s0-25.43,0-25.43l-.68-24.57Z"/>
  <path class="cls-1" d="M1148.78,973.2v25.43h25.97c6.13-.3,13.77-.64,16.84-.64h7.19v-2.01c0-2.01,0-2,0-2.01-.03-1.2-.14-2.11-.24-2.94-.15-1.23-.37-2.43-.73-3.99-.84-3.68-1.92-7.19-4.01-11.28,0,0,0,0,0,0-3.76-7.24-9.57-13.44-17.33-18.48-4.18-2.71-6.93-4.25-9.75-5.29-2.33-.86-4.34-1.21-7.16-1.78-3.96-.79-7.4-1.18-10.09-1.56h0l-.68,24.57Z"/>
  <g>
    <path class="cls-1" d="M1150.48,923.96c.49,14.21,1.46,25.12,2.27,25.61,.97,.66,5.03,1.65,9.25,2.15,9.73,1.32,22.71,10.25,29.36,20.16,4.87,6.94,6.16,10.25,8.76,22.48l.97,4.63h48.66v-6.28c0-3.47-1.14-10.74-2.43-16.03-10.38-41.31-45.74-72.88-85.8-76.18l-11.52-1.16,.49,24.62Z"/>
    <path class="cls-1" d="M1154.73,950.31h-4.99l.36-51.32c1.54,17.11,3.08,34.21,4.63,51.32Z"/>
  </g>
  <path class="cls-1" d="M1175.31,1148.01h-25.43v25.97c.3,6.13,.64,13.77,.64,16.84v7.19h2.01c2.01,0,2,0,2.01,0,1.2-.03,2.11-.14,2.94-.24,1.23-.15,2.43-.37,3.99-.73,3.68-.84,7.19-1.92,11.28-4.01,0,0,0,0,0,0,7.24-3.76,13.44-9.57,18.48-17.33,2.71-4.18,4.25-6.93,5.29-9.75,.86-2.33,1.21-4.34,1.78-7.16,.79-3.96,1.18-7.4,1.56-10.09h0l-24.57-.68Z"/>
  <g>
    <path class="cls-1" d="M1224.55,1149.71c-14.21,.49-25.12,1.46-25.61,2.27-.66,.97-1.65,5.03-2.15,9.25-1.32,9.73-10.25,22.71-20.16,29.36-6.94,4.87-10.25,6.16-22.48,8.76l-4.63,.97v48.66h6.28c3.47,0,10.74-1.14,16.03-2.43,41.31-10.38,72.88-45.74,76.18-85.8l1.16-11.52-24.62,.49Z"/>
    <path class="cls-1" d="M1198.2,1153.96v-4.99l51.32,.36c-17.11,1.54-34.21,3.08-51.32,4.63Z"/>
  </g>
  <circle class="cls-1" cx="1124.75" cy="1073.81" r="15"/>
  <text class="cls-4" transform="translate(330.07 1022.23)"><tspan x="0" y="0">FF</tspan><tspan class="cls-3" x="11.69" y="0">C</tspan><tspan x="18.4" y="0">C33</tspan></text>
</svg>