<?xml version="1.0" encoding="UTF-8"?>
<svg id="Layer_1" data-name="Layer 1" xmlns="http://www.w3.org/2000/svg" viewBox="0 0 583 302.87">
  <defs>
    <style>
      .cls-1 {
        fill: none;
        stroke: #000;
        stroke-miterlimit: 10;
        stroke-width: 3px;
      }
    </style>
  </defs>
  <g>
    <rect class="cls-1" x="355.65" y="151.41" width="99.94" height="149.91"/>
    <circle class="cls-1" cx="379.63" cy="276.34" r="14.99"/>
    <circle class="cls-1" cx="379.63" cy="225.37" r="14.99"/>
    <circle class="cls-1" cx="379.63" cy="176.4" r="14.99"/>
    <circle class="cls-1" cx="430.6" cy="276.34" r="14.99"/>
    <circle class="cls-1" cx="430.6" cy="225.37" r="14.99"/>
    <circle class="cls-1" cx="430.6" cy="176.4" r="14.99"/>
  </g>
  <g>
    <rect class="cls-1" x="254.71" y="226.37" width="99.94" height="49.97" transform="translate(556.03 -53.32) rotate(90)"/>
    <circle class="cls-1" cx="304.68" cy="225.37" r="14.99"/>
    <circle class="cls-1" cx="304.68" cy="276.34" r="14.99"/>
  </g>
  <g>
    <rect class="cls-1" x="481.56" y="1.5" width="99.94" height="299.83"/>
    <circle class="cls-1" cx="505.55" cy="276.34" r="14.99"/>
    <circle class="cls-1" cx="505.55" cy="225.37" r="14.99"/>
    <circle class="cls-1" cx="505.55" cy="176.4" r="14.99"/>
    <circle class="cls-1" cx="556.52" cy="276.34" r="14.99"/>
    <circle class="cls-1" cx="556.52" cy="225.37" r="14.99"/>
    <circle class="cls-1" cx="556.52" cy="176.4" r="14.99"/>
  </g>
  <g>
    <circle class="cls-1" cx="505.55" cy="126.43" r="14.99"/>
    <circle class="cls-1" cx="505.55" cy="75.46" r="14.99"/>
    <circle class="cls-1" cx="505.55" cy="26.49" r="14.99"/>
    <circle class="cls-1" cx="556.52" cy="126.43" r="14.99"/>
    <circle class="cls-1" cx="556.52" cy="75.46" r="14.99"/>
    <circle class="cls-1" cx="556.52" cy="26.49" r="14.99"/>
  </g>
  <path class="cls-1" d="M177.43,276.59v-25.42h-25.95c-6.13,.3-13.77,.64-16.83,.64h-7.19v2.01c0,2.01,0,1.99,0,2.01,.03,1.2,.14,2.1,.24,2.94,.15,1.22,.37,2.43,.72,3.99,.84,3.68,1.92,7.19,4.01,11.27,0,0,0,0,0,0,3.75,7.24,9.56,13.43,17.32,18.47,4.18,2.71,6.92,4.25,9.75,5.29,2.33,.86,4.34,1.21,7.16,1.78,3.95,.79,7.4,1.18,10.09,1.56h0l.68-24.55Z"/>
  <g>
    <path class="cls-1" d="M100.7,276.54c-.49-14.2-1.46-25.1-2.27-25.6-.97-.66-5.02-1.65-9.24-2.15-9.73-1.32-22.69-10.24-29.34-20.15-4.86-6.94-6.16-10.24-8.75-22.46l-.97-4.62H1.5v6.28c0,3.47,1.13,10.74,2.43,16.02,10.37,41.29,45.71,72.84,85.75,76.14l11.51,1.16-.49-24.61Z"/>
    <path class="cls-1" d="M96.45,250.21h4.98l-.36,51.29c-1.54-17.1-3.08-34.19-4.62-51.29Z"/>
  </g>
  <g>
    <rect class="cls-1" x="203.74" y="251.35" width="49.97" height="49.97"/>
    <circle class="cls-1" cx="228.73" cy="276.34" r="14.99"/>
  </g>
  <path d="M257.62,6.93c.28,.68,.49,1.63,.49,2.18s.28,.95,.56,.95c.9,0,.56-2.45-.49-3.47-.9-.75-.97-.75-.56,.34Z"/>
  <path d="M258.1,112.73c0,.34,.35,.68,.7,.68,.42,0,.7-.34,.7-.68,0-.41-.28-.68-.7-.68-.35,0-.7,.27-.7,.68Z"/>
</svg>