<?xml version="1.0" encoding="UTF-8"?>
<svg id="Layer_1" data-name="Layer 1" xmlns="http://www.w3.org/2000/svg" viewBox="0 0 250 400">
  <path d="M13.31,.35c-1.07,.12-1.97,.47-1.97,.81,0,.7,2.8,.7,3.28-.06,.18-.35,1.13-.58,2.09-.58s1.91,.23,2.09,.58c.18,.29,.95,.58,1.61,.58,1.55,0,6.38,2.67,7.76,4.3,.6,.7,1.31,1.51,1.61,1.86s.72,1.22,.95,2.04c.24,.76,.72,1.57,1.01,1.74,.36,.23,.6,2.33,.6,4.65,0,3.84-.24,4.65-1.97,7.56-2.09,3.37-6.5,6.92-8.77,6.92-.66,0-1.43,.23-1.61,.58-.18,.29-1.67,.58-3.28,.58s-3.1-.29-3.28-.58c-.18-.35-1.01-.58-1.73-.58-.78,0-2.09-.52-2.92-1.16s-1.79-1.16-2.09-1.16-.72-.41-.95-.87c-.18-.47-.6-.87-.95-.87-1.37,0-.42,1.1,2.86,3.26,3.4,2.21,3.46,2.21,9.43,2.21,4.71,.06,6.32-.17,7.16-.87,.66-.52,1.61-1.1,2.21-1.28,.54-.23,1.01-.64,1.01-.99,0-.29,.42-.58,.89-.58s.89-.29,.89-.64,.36-.99,.78-1.4c2.03-2.21,2.33-2.85,2.86-5.7,.3-1.63,.6-3.31,.54-3.61,0-1.05-.66-4.65-1.01-5.52-.24-.47-.42-.99-.42-1.16-.3-1.4-4.42-6.51-5.55-6.75-.78-.23-1.37-.58-1.37-.87,0-1.57-7.22-3.08-11.75-2.44Z"/>
  <path d="M67.3,.35c-.95,.12-1.67,.47-1.67,.7,0,.29-.72,.64-1.67,.81-1.43,.29-5.07,3.2-7.16,5.87-.42,.52-.95,1.86-1.13,3.02-.18,1.1-.6,2.15-.84,2.33-.72,.41-.72,2.56,0,2.56,.3,0,.72-1.22,.95-2.67,.42-2.97,3.58-8.14,5.25-8.72,.54-.17,1.01-.58,1.01-.87,0-.35,.3-.41,.6-.23,.36,.17,.6,.12,.6-.23,0-.29,1.07-.7,2.33-.93,1.31-.23,2.68-.76,3.1-1.22,.36-.47,.6-.76,.48-.76-.12,.06-.95,.23-1.85,.35Z"/>
  <path d="M121.3,.35c-1.07,.12-1.97,.58-1.97,.99,0,.47,.6,.64,1.79,.47,1.01-.12,1.79-.47,1.79-.76,0-.7,2.74-.64,4.06,0,.54,.35,2.03,.76,3.28,.93,1.19,.17,2.21,.58,2.21,.93s.78,.87,1.73,1.16c.89,.29,2.03,1.22,2.45,1.98,.42,.81,1.01,1.45,1.25,1.45s.6,.7,.84,1.57c.18,.87,.66,1.8,1.01,2.04,1.01,.58,.89,10.58-.18,11.75-1.25,1.34-1.91,2.21-3.1,3.95-.6,.93-1.43,1.63-1.91,1.63s-1.07,.41-1.37,.93c-.3,.47-1.61,1.05-2.98,1.22s-2.51,.58-2.51,.81c0,.7-5.79,.64-6.26-.06-.18-.35-1.01-.58-1.85-.58s-1.61-.41-1.79-.87c-.24-.47-.72-.87-1.13-.87-1.07,0-5.07-3.84-5.07-4.88,0-.47-.3-.93-.66-1.05s-.89-1.1-1.19-2.21l-.54-2.04,.24,2.33c.24,2.67,2.39,6.16,4.53,7.44,.84,.52,2.15,1.51,2.98,2.27,1.31,1.22,1.97,1.34,7.76,1.34h6.26l3.46-2.5c1.91-1.4,3.7-3.14,4-3.9,.3-.7,.84-1.45,1.19-1.57s.78-1.22,.95-2.5,.48-2.73,.72-3.2c.54-1.34,.54-3.49,0-3.49-.24,0-.48-1.16-.48-2.62,0-1.8-.3-2.73-.89-2.97-.48-.23-.89-.7-.89-1.1,0-.35-.54-1.28-1.19-2.04s-1.19-1.57-1.19-1.8-.84-.58-1.79-.81c-1.01-.23-1.67-.64-1.43-.93,.18-.29-.18-.7-.78-.93s-1.19-.58-1.37-.81c-.42-.52-7.52-1.05-9.96-.7Z"/>
  <path d="M176.01,.35c-1.97,.29-5.55,2.04-6.15,2.91-.24,.41-.84,.76-1.19,.76-.84,0-2.8,2.04-2.8,2.91,0,.29-.42,.76-.95,1.05-.48,.29-1.07,1.57-1.25,2.91s-.54,2.44-.78,2.44-.48,1.69-.48,3.78c-.06,2.09,.18,3.78,.48,3.78,.36,0,.6,.52,.6,1.16,0,2.04,2.92,5.58,6.74,8.37,1.91,1.34,3.04,1.69,6.86,1.92,4.65,.29,9.67-.52,9.67-1.57,0-.35,.36-.58,.78-.58,.95-.06,3.4-2.04,3.4-2.79,0-.29,.42-.7,.89-.93,.48-.17,.89-.7,.89-1.22,0-.47,.24-.87,.6-.87,.72,0,1.79-3.84,1.73-6.11-.06-1.28-.18-1.05-.54,.99-.54,3.08-3.46,7.56-5.85,9.07-.89,.52-1.97,1.28-2.39,1.69s-1.61,.76-2.57,.76-1.73,.23-1.73,.58c0,.7-5.79,.76-6.21,.06-.18-.29-1.31-.7-2.45-.87-1.13-.23-2.09-.64-2.09-.87,0-.29-.78-.81-1.67-1.16s-2.57-2.04-3.7-3.72c-2.03-2.97-2.09-3.2-2.03-8.61,0-4.07,.24-5.87,.89-6.51,1.79-1.98,2.33-2.67,2.33-3.26,0-1.05,5.61-4.24,7.88-4.59,1.25-.12,2.27-.52,2.27-.76,0-.76,2.68-.64,4.42,.12,.84,.41,1.97,.47,2.57,.23,1.85-.81-4.53-1.63-8.17-1.05Z"/>
  <path d="M229.89,.35c-1.67,.35-1.79,1.34-.18,1.34,.66,0,1.19-.23,1.19-.47,0-.64,3.58-.81,4.42-.23,.36,.29,1.67,.7,2.92,.93s2.74,.81,3.28,1.28,1.73,1.45,2.57,2.15,1.85,1.8,2.27,2.44c.66,1.1,.66,1.05,.36-.29-.24-.81-1.01-1.98-1.79-2.62-2.63-2.21-4.12-3.2-4.83-3.2-.42,0-.84-.23-.95-.52-.24-.64-7.28-1.22-9.25-.81Z"/>
  <path d="M7.82,2.67C2.92,6.34-.06,11.11,1.07,13.43c.6,1.22,.66,1.16,.72-.99,.06-2.5,2.86-6.86,5.07-8.08,.66-.35,1.31-.81,1.49-.99s.84-.64,1.49-.99c.89-.47,.95-.64,.3-.7-.54,0-1.55,.47-2.33,.99Z"/>
  <path d="M78.58,2.97c1.01,.76,2.45,1.74,3.1,2.21,.72,.47,1.25,1.16,1.25,1.57s.24,.76,.54,.76c.66,0,2.57,4.59,2.15,5.23-.18,.29-.06,.64,.3,.87,.78,.47,.78,6.69,0,6.69-.3,0-.6,.58-.6,1.34,0,1.74-2.57,5.06-6.15,7.79-1.07,.81-3.94,1.63-5.01,1.45-.42-.12-.78,.12-.78,.47,0,1.22-5.31,.47-9.25-1.28-3.52-1.57-5.91-3.61-6.56-5.76-.24-.64-.6-1.1-.89-1.1s-.72-1.34-.95-2.91c-.42-3.14-1.43-3.95-1.43-1.16,0,.93,.3,1.74,.6,1.74,.36,0,.6,.41,.6,.99,0,1.69,3.58,6.51,5.85,7.85,1.25,.7,2.39,1.57,2.63,1.86,.24,.35,3.1,.64,6.62,.64,5.13,0,6.44-.17,7.4-1.05,.66-.52,1.43-.99,1.79-.99,.72,0,4.95-4.07,4.95-4.77,0-.29,.36-.93,.84-1.4,.48-.41,1.01-1.86,1.25-3.2,.54-2.91-.18-10.99-.95-10.99-.3,0-.54-.23-.54-.58,0-1.22-3.16-4.94-5.25-6.16-2.86-1.74-3.88-1.8-1.49-.12Z"/>
  <path d="M116.53,2.27c-.78,.29-1.37,.81-1.37,1.16,0,.29-.36,.58-.72,.58-1.01,0-4.42,5.06-5.13,7.56-.3,1.1-.3,2.56-.06,3.2,.36,.87,.48,.58,.48-1.16,.06-2.62,3.7-8.78,5.55-9.36,.6-.17,.89-.58,.72-.93-.3-.41-.12-.52,.42-.35,.48,.17,1.19-.06,1.61-.47,.84-.93,.42-.99-1.49-.23Z"/>
  <path d="M186.04,2.09c.36,.17,.72,.52,.72,.81,0,.35,.72,.87,1.67,1.16,1.49,.52,4.3,3.95,4.3,5.23,0,.29,.24,.52,.54,.52s.72,1.28,.95,2.85c.24,1.8,.78,3.02,1.31,3.2,.72,.29,.78,.17,.3-.35-.3-.41-.78-1.98-1.01-3.49-.24-1.45-.84-3.26-1.43-3.95-2.27-3.02-5.43-5.81-6.74-5.99-.78-.12-1.01-.12-.6,0Z"/>
  <path d="M224.4,2.67c-2.39,1.8-4.83,4.19-4.83,4.77,0,.29-.42,.99-.95,1.51s-1.13,2.09-1.31,3.55c-.12,1.4-.54,2.56-.78,2.56-.3,0-.54,.93-.54,2.04s.24,2.04,.54,2.04c.24,0,.66,1.05,.84,2.33s.72,2.73,1.25,3.2c.54,.52,.95,1.16,.95,1.45,0,.7,3.7,4.07,4.53,4.07,.42,0,1.01,.47,1.37,.99,.48,.87,1.49,1.05,7.04,1.05,6.21,0,6.5-.06,8.83-1.74,2.86-2.09,5.07-4.24,5.07-4.94,0-.29,.42-.76,.95-1.05s1.01-1.45,1.13-2.79c.12-1.45,0-1.74-.24-.81-.66,2.62-2.98,5.47-6.92,8.61-.48,.41-1.85,.93-2.98,1.1s-2.09,.58-2.09,.81c0,.7-5.79,.64-6.26-.06-.18-.35-.95-.58-1.61-.58-1.73,0-6.92-3.31-7.34-4.71-.24-.58-.66-1.1-.95-1.1s-.54-.41-.54-.87c0-.41-.42-1.05-.95-1.34-.78-.41-.95-1.57-.95-5.41-.06-2.91,.24-5.52,.72-6.34,2.09-3.95,4-6.4,5.25-6.75,.72-.17,1.31-.58,1.31-.81,0-.29,.72-.76,1.67-1.05,1.31-.52,1.37-.64,.42-.64-.72-.06-1.85,.41-2.63,.93Z"/>
  <path d="M247.37,9.19c-.24,.35-.12,.64,.18,.64,.36,0,.66,.76,.66,1.69,0,2.5,.66,5.29,1.25,5.29,.3,0,.54-.7,.54-1.51s-.24-1.34-.6-1.1-.6-.52-.6-1.86c0-2.5-.78-4.19-1.43-3.14Z"/>
  <path d="M108,16.69c0,1.05,.3,1.86,.6,1.86,.36,0,.48-.64,.24-1.63-.6-2.27-.84-2.33-.84-.23Z"/>
  <path d="M1.49,22.33c.48,1.16,1.25,2.5,1.79,2.97,1.31,1.28,1.13,.41-.3-1.34-.66-.81-1.19-1.98-1.19-2.56,0-.64-.3-1.1-.6-1.1-.36,0-.24,.87,.3,2.04Z"/>
  <path d="M43.26,100.36c.12,32.27,.3,58.73,.36,58.9s.18,9.54,.18,20.76c.06,13.32-.18,20.53-.54,20.53s-.36,.17,.06,.47c.72,.47,.72,1.22,.78,92.57l.06,65.42,55.61-.12c38.13-.06,55.73-.29,55.85-.76,.12-.29,.48-.58,.78-.58,.36,0,.42,.35,.18,.7-.36,.58-.3,.58,.48,.06,.48-.41,2.33-.93,4.12-1.1s3.4-.58,3.58-.93c.24-.35,.54-.29,.72,.17,.18,.52,.36,.58,.36,.12,.06-.41,1.55-.87,3.7-1.1,2.03-.23,3.76-.7,3.94-1.1,.12-.41,.89-.93,1.61-1.1s2.03-.93,2.8-1.63c.84-.76,2.15-1.69,2.92-2.04,2.09-1.05,3.58-2.04,4.89-3.26,.6-.52,1.37-.99,1.73-.99,.95,0,4.3-3.49,5.19-5.41,.36-.87,.95-1.57,1.31-1.57,.3,0,.6-.23,.6-.52,0-.81,4.3-7.04,4.83-7.04,.3,0,.54-.35,.54-.81,0-.41,.54-1.45,1.19-2.27,.78-.93,1.19-2.33,1.19-3.84,0-1.34,.3-2.38,.6-2.38,.36,0,.6-.35,.54-.76-.06-.35,0-1.1,.24-1.57,.18-.47,.48-2.38,.66-4.24,.12-1.86,.54-3.72,.84-4.07,.89-1.05,1.19-167.23,.36-167.76-.42-.23-.95-2.5-1.31-5.06-.78-5.81-2.27-11.57-3.1-11.8-.3-.12-.6-.58-.6-1.05s-.42-.99-.89-1.16c-.48-.23-.89-.7-.89-1.1,0-.58-.54-1.4-2.98-4.19-.3-.41-.6-.87-.6-1.16,0-.64-3.1-5-4.53-6.28-2.63-2.44-4.36-3.66-5.55-4.07-.72-.17-1.25-.64-1.25-.93s-.66-.81-1.49-1.1-1.49-.81-1.49-1.16c0-.29-.36-.58-.84-.58-.42,0-1.13-.41-1.55-.87s-1.25-.87-1.85-.87c-.66,0-1.13-.41-1.13-.87s-.84-.99-2.09-1.22c-1.13-.17-2.09-.58-2.09-.81,0-.29-2.03-.64-4.47-.87s-4.47-.64-4.47-.81c0-.23-2.21-.81-4.89-1.22-3.7-.64-11.93-.81-32.28-.87h-27.27v-1.34c0-.7-.24-1.28-.54-1.28s-.72-1.98-.95-4.36-.66-4.36-.89-4.36c-.3,0-.66-1.98-.89-4.36s-.66-4.36-.89-4.36c-.3,0-.78-.81-1.13-1.74-.3-.99-.89-1.74-1.19-1.74-.36,0-.66-.41-.66-.87,0-.52-.42-1.05-.89-1.22-.48-.23-.89-.7-.89-1.1,0-.58-.54-1.4-2.98-4.19-.3-.41-.6-.87-.6-1.1,0-1.16-4.06-6.11-5.19-6.4-.78-.17-1.37-.58-1.37-.81s-.78-.76-1.79-1.16c-.95-.41-1.79-.93-1.79-1.22s-.42-.52-.89-.52c-.54,0-1.07-.41-1.25-.87-.24-.47-.72-.87-1.13-.87-.6,0-1.43-.52-4.3-2.91-.42-.29-.89-.58-1.13-.58s-.89-.41-1.43-.87c-.78-.7-6.56-1.98-10.26-2.21-.6-.06-1.07-.23-1.07-.47,0-.17-1.97-.52-4.3-.76-2.39-.23-4.42-.64-4.53-.93-.12-.35-.6-.58-1.07-.58-.72,0-.78,8.72-.54,58.56Zm16.35-53.38c3.22,.64,5.07,1.51,11.93,6.05,9.31,6.16,9.61,6.4,12.11,10.47,1.07,1.63,3.28,5,4.95,7.38,3.22,4.59,4.12,7.21,6.09,17.33,.78,4.36,.84,5.52,.24,5.87-.54,.35-.24,.64,.95,.93l1.67,.47-1.79,.41c-1.79,.47-1.73,.47,.48,.52l2.21,.06v3.31c0,2.09,.24,3.08,.54,2.62,.24-.47,.36-1.8,.24-3.08l-.3-2.27h2.63c16.11-.06,24.94-.06,36.1,0,7.34,.06,13.54-.06,13.9-.29,.3-.17,.95-.17,1.37,.12,.36,.23,1.13,.47,1.61,.58,3.16,.41,8.77,1.57,9.25,1.8,.3,.17,.95,.41,1.49,.47,.48,.06,2.33,.35,4.06,.58,1.67,.23,3.1,.64,3.1,.87,0,.29,.24,.52,.54,.52,.72,0,13.42,8.2,13.66,8.84,.12,.23,.6,.47,1.07,.47,.42,0,2.86,3.08,5.43,6.8,2.57,3.78,4.77,6.98,4.95,7.15,2.09,1.8,5.31,13.43,5.67,20.58,.06,1.22,.48,2.44,.95,2.73s.6,.52,.24,.52c-.42,0-.6,26.05-.6,76.93,0,42.27-.12,77.57-.24,78.44s-.66,1.69-1.19,1.8c-.6,.17-.42,.29,.48,.35,1.01,.06,1.25,.23,.84,.76-.3,.41-.66,1.8-.72,3.08-.12,1.28-.36,2.44-.54,2.62-.24,.17-.48,.93-.54,1.74-.54,7.27-2.33,12.5-5.61,16.51-.3,.35-2.21,3.08-4.18,5.99-3.64,5.29-3.82,5.47-12.05,10.7-7.94,5.06-10.62,6.16-16.53,7.15-3.34,.52-10.98,1.92-11.93,2.15-.66,.17-.95-.52-1.25-2.97l-.36-3.2-.06,3.2-.12,3.2h-51.01l.12-2.5c0-1.34-.18-2.44-.48-2.44s-.54,1.16-.54,2.62c0,2.21-.18,2.62-.89,2.21-.48-.29-2.68-.35-4.89-.17-2.27,.23-11.16,.29-19.87,.23-8.71-.12-18.44-.17-21.6-.17l-5.73-.06,.06-104.08c.06-57.22-.12-104.08-.36-104.08-.3,0-.3-.29-.12-.58,.18-.35,.36-12.09,.36-26.11l-.06-25.59,1.31-.23c1.13-.23,1.07-.29-.36-.35-1.37-.06-1.55-.23-1.01-.81,.36-.47,.54-.93,.36-1.1-.42-.35-.42-48.67,0-49.25,.12-.29,2.51-.06,5.19,.52,2.74,.52,6.68,1.28,8.77,1.69Z"/>
  <path d="M70.29,96.29c.42,.17,.95,.12,1.13-.06,.24-.17-.12-.35-.78-.29-.66,0-.84,.17-.36,.35Z"/>
  <path d="M87.29,96.29c.89,.12,2.33,.12,3.28,0,.89-.12,.12-.23-1.67-.23s-2.57,.12-1.61,.23Z"/>
  <path d="M98.45,112.63c0,5.18,.18,9.42,.48,9.42,.54,0,.48-17.85-.06-18.43-.24-.17-.42,3.84-.42,9.01Z"/>
  <path d="M150.48,117.4c0,.81,.12,1.1,.3,.7,.12-.35,.12-1.05,0-1.45-.18-.35-.3-.06-.3,.76Z"/>
  <path d="M98.57,140.78c-.12,6.11-.3,6.63-2.03,6.34-.24,0-.42,.41-.42,.99,0,.52-.06,12.44-.06,26.52l-.12,25.47,1.37,1.28c1.31,1.22,1.49,1.22,27.63,1.1,25-.17,26.31-.23,27.57-1.28l1.31-1.1v-25.64c-.06-16.4-.24-25.64-.66-25.64-.3,0-.24-.41,.18-.87,.6-.7,.54-.87-.42-.87-.66,0-1.31-.12-1.49-.29s-12.05-.35-26.31-.29h-26.01l-.24-5.93-.18-5.99-.12,6.22Zm53.58,33.55v26.75h-27.15l-27.15,.06v-52.91l27.03-.17c14.8-.06,27.03-.17,27.15-.29,.06-.06,.12,11.92,.12,26.57Z"/>
  <path d="M123.33,159.03c.18,.52,.54,.7,.72,.41,.48-.64,2.63-.93,2.21-.29-.18,.29,.95,.7,2.57,.81,1.61,.17,3.34,.64,3.94,1.1,2.51,2.04,5.67,5.47,6.03,6.57,.24,.64,.66,1.4,.95,1.57,.89,.52,.84,10.58-.06,10.87-.36,.12-.66,.47-.66,.76,0,1.28-3.16,5.06-5.37,6.34-1.31,.81-2.39,1.63-2.39,1.86,0,.7,.6,.58,1.49-.29,1.73-1.45,2.39-1.92,3.46-2.33,.54-.17,1.01-.76,1.01-1.22s.24-.93,.48-1.05c1.01-.41,3.1-4.48,3.1-6.11,0-.93,.24-1.92,.6-2.27s.36-1.16,0-2.27c-.3-.99-.72-2.73-.89-3.95-.18-1.16-.6-2.15-.89-2.15-.36,0-.6-.41-.6-.87,0-.52-.42-1.05-.89-1.22-.48-.23-.89-.7-.89-1.1,0-1.22-5.37-4.48-7.94-4.83-1.19-.12-2.39-.52-2.57-.76-.18-.29-1.07-.52-2.03-.52-1.37,0-1.67,.23-1.37,.93Z"/>
  <path d="M119.87,159.33c-.6,.35-.18,.52,1.19,.52,1.13,0,1.85-.17,1.61-.41-.6-.64-1.91-.7-2.8-.12Z"/>
  <path d="M115.39,161.59c-3.52,2.44-5.73,5.81-5.97,9.13q-.18,2.73,.24,.47c.72-3.55,3.28-6.86,8-10.29,2.33-1.69,.3-1.05-2.27,.7Z"/>
  <path d="M108,174.79c0,1.05,.3,1.92,.66,1.92s.54,.52,.36,1.1c-.12,.58-.06,1.45,.24,1.86,.36,.52,.54,.12,.54-1.34,0-1.16-.3-2.33-.6-2.5-.36-.23-.48-.58-.36-.81,.18-.23,.06-.76-.3-1.22-.36-.64-.54-.35-.54,.99Z"/>
  <path d="M109.79,181.36c0,.35,.42,.76,.89,.93,.48,.23,.89,.7,.89,1.05,0,.41,.95,1.57,2.09,2.62,1.13,.99,2.09,1.63,2.09,1.34,0-.23-.78-1.1-1.79-1.86-.95-.81-1.73-1.74-1.79-2.04,0-.81-2.39-2.79-2.39-2.04Z"/>
  <path d="M117.24,188.69c.54,.52,1.13,.76,1.37,.58,.18-.23,0-.64-.48-.93-1.43-.87-1.97-.64-.89,.35Z"/>
  <path d="M121.72,190.2c1.49,.29,2.98,.47,3.28,.47,.36,0,1.79-.17,3.28-.47,2.21-.41,1.61-.47-3.28-.47s-5.49,.06-3.28,.47Z"/>
  <path d="M67,149.21c2.21,.12,5.79,.12,8.05,0,2.21-.12,.36-.17-4.06-.17s-6.26,.06-4,.17Z"/>
  <path d="M150.48,206.95c0,.81,.12,1.1,.3,.7,.12-.35,.12-1.05,0-1.45-.18-.35-.3-.06-.3,.76Z"/>
  <path d="M150.42,209.62c0,.64,.18,.81,.36,.35,.18-.41,.12-.93-.06-1.1-.18-.23-.36,.12-.3,.76Z"/>
  <path d="M150.48,216.25c0,.81,.12,1.1,.3,.7,.12-.35,.12-1.05,0-1.45-.18-.35-.3-.06-.3,.76Z"/>
  <path d="M150.42,239.86c0,.64,.18,.81,.36,.35,.18-.41,.12-.93-.06-1.1-.18-.23-.36,.12-.3,.76Z"/>
  <path d="M97.43,252.42c-1.31,.64-1.37,.93-1.49,10.87-.12,5.64-.06,17.39,.12,26.11,.24,14.3,.42,15.99,1.37,16.63,.54,.41,1.01,1.45,1.01,2.27s.18,1.63,.48,1.8c.24,.12,.42-.58,.42-1.57v-1.86h25.24c20.76,0,25.3,.17,25.72,.81s.6,.64,.72-.17c.24-.93,1.43-1.05,12.77-1.1l12.53-.06-11.4-.17-11.34-.17,.12-25.76c.12-25,.06-25.76-1.07-26.98l-1.19-1.28h-26.37c-17.66,0-26.73,.23-27.63,.64Zm54.71,26.75v25.47h-26.79c-17.12,0-26.91,.23-27.03,.58-.06,.29-.18-11.16-.18-25.47v-25.99h54v25.41Z"/>
  <path d="M121.18,263.7c-.06,.35-1.07,.87-2.27,1.22l-2.27,.64,2.68-.29c1.49-.12,3.1-.41,3.58-.58s1.79-.41,2.86-.47c3.22-.17,2.92-.87-.42-.87-1.91,0-2.98,.23-2.74,.58,.18,.29,.12,.58-.24,.58-.3,0-.72-.35-.84-.76-.18-.35-.36-.41-.36-.06Z"/>
  <path d="M128.28,264.52c-.36,.23,.42,.58,1.91,.76,1.37,.17,2.63,.29,2.68,.17,.42-.41-3.94-1.34-4.59-.93Z"/>
  <path d="M115.45,266.38c-.3,.29-1.13,.93-1.79,1.51-1.73,1.45-3.88,4.59-3.88,5.64,0,.47-.24,.87-.48,.87-.3,0-.42,.93-.36,2.04,.12,1.1-.06,2.04-.36,2.04-.36,0-.6,.7-.54,1.57v1.63l.66-1.45c.36-.81,.84-2.73,1.13-4.36,.3-1.57,.78-2.97,1.13-3.08,.3-.12,.6-.58,.6-1.05s.42-.99,.89-1.16c.48-.23,.89-.58,.89-.93,0-.81,1.49-2.15,3.04-2.67,.95-.35,1.07-.58,.48-.81-.48-.17-1.07-.06-1.43,.23Z"/>
  <path d="M133.65,267.02c2.09,.93,3.22,2.21,4.89,5.64,.42,.81,.89,1.57,1.13,1.74,.18,.17,.48,1.57,.66,3.08,.36,2.85,.78,3.78,1.49,3.14,.18-.23,.06-.99-.3-1.74-.36-.7-.78-2.27-.89-3.43-.6-4.01-5.07-9.3-7.76-9.13-.42,0-.06,.35,.78,.7Z"/>
  <path d="M109.19,283.36c0,1.1,.18,2.15,.48,2.33,.24,.12,.36-.76,.24-2.04-.3-2.79-.72-2.97-.72-.29Z"/>
  <path d="M140.33,283.01c-.06,1.05-.48,2.33-.84,2.73-1.97,2.09-2.15,2.5-1.61,3.26,.42,.64,.54,.64,.54-.12,0-.52,.54-1.63,1.25-2.5,.84-1.05,1.13-2.09,.95-3.37l-.24-1.92-.06,1.92Z"/>
  <path d="M110.8,286.96c-.18,.29,.06,.87,.54,1.28,.95,.81,1.07,.29,.3-.99-.3-.41-.66-.52-.84-.29Z"/>
  <path d="M135.02,290.86c-2.03,1.34-3.1,2.91-1.61,2.33,.42-.17,.84-.52,.84-.76,0-.29,.54-.64,1.13-.87,.66-.17,1.31-.7,1.49-1.16s.24-.87,.18-.81c-.06,0-.95,.64-2.03,1.28Z"/>
  <path d="M113.37,291.03c0,.12,.54,.47,1.19,.81s1.19,.41,1.19,.12c0-.35-.54-.7-1.19-.87s-1.19-.17-1.19-.06Z"/>
  <path d="M118.74,294.17c0,.29,.24,.58,.54,.58,.36,0,.78-.29,.95-.58,.18-.35-.06-.58-.54-.58-.54,0-.95,.23-.95,.58Z"/>
  <path d="M129.47,293.82c0,.12,.42,.35,.89,.58,.48,.17,.89,.06,.89-.23,0-.35-.42-.58-.89-.58s-.89,.12-.89,.23Z"/>
  <path d="M121.9,295.16c.54,.12,1.49,.12,2.09,0,.54-.17,.06-.29-1.07-.29s-1.61,.12-1.01,.29Z"/>
  <path d="M126.07,295.16c.54,.12,1.49,.12,2.09,0,.54-.17,.06-.29-1.07-.29s-1.61,.12-1.01,.29Z"/>
  <path d="M177.68,306.21c.42,.17,.95,.12,1.13-.06,.24-.17-.12-.35-.78-.29-.66,0-.84,.17-.36,.35Z"/>
  <path d="M180.97,306.21c.89,.12,2.21,.12,2.98,0,.72-.12,0-.23-1.67-.23s-2.27,.12-1.31,.23Z"/>
  <path d="M189.26,306.21c2.21,.12,5.97,.12,8.35,0,2.39-.06,.6-.17-4-.17s-6.56,.06-4.36,.17Z"/>
  <path d="M150.48,309.87c0,.81,.12,1.1,.3,.7,.12-.35,.12-1.05,0-1.45-.18-.35-.3-.06-.3,.76Z"/>
  <path d="M150.42,317.78c0,.64,.18,.81,.36,.35,.18-.41,.12-.93-.06-1.1-.18-.23-.36,.12-.3,.76Z"/>
  <path d="M98.87,321.33c-.24,.17-.42,1.05-.36,1.86,.06,1.51,.06,1.45,.6-.17,.54-1.8,.42-2.38-.24-1.69Z"/>
  <path d="M98.45,327.2c0,1.28,.18,2.5,.48,2.67,.48,.29,.36-4.24-.18-4.77-.18-.17-.3,.76-.3,2.09Z"/>
  <path d="M150.42,329.41c0,.64,.18,.81,.36,.35,.18-.41,.12-.93-.06-1.1-.18-.23-.36,.12-.3,.76Z"/>
  <path d="M98.75,332.55c.18,.29,.48,.58,.66,.58,.12,0,.24-.29,.24-.58,0-.35-.3-.58-.66-.58-.3,0-.42,.23-.24,.58Z"/>
  <path d="M150.48,339.53c0,.81,.12,1.1,.3,.7,.12-.35,.12-1.05,0-1.45-.18-.35-.3-.06-.3,.76Z"/>
  <path d="M96.18,350.57c0,.81,.12,1.1,.3,.7,.12-.35,.12-1.05,0-1.45-.18-.35-.3-.06-.3,.76Z"/>
  <path d="M13.42,53.44c-.24,.35-.72,.58-1.07,.52-.89-.17-3.76,.99-4.95,1.92-2.86,2.33-4.3,4.07-5.85,7.04-.89,1.69-1.01,2.44-.48,3.43,.6,1.22,.66,1.16,.66-.81,.06-1.16,.42-2.5,.89-2.91,.42-.47,.95-1.4,1.19-2.09,.24-.64,1.25-1.92,2.33-2.73s2.21-1.74,2.63-2.04c.36-.29,1.79-.7,3.1-.93s2.33-.58,2.15-.81c-.12-.23,.84-.41,2.21-.47,3.4-.17,3.7-.7,.3-.7-1.49,0-2.92,.29-3.1,.58Z"/>
  <path d="M121.48,53.26c-.24,.23-.78,.47-1.13,.47-.78,.06-3.94,1.45-4.89,2.21-2.51,1.92-3.4,2.85-4.71,5.29-.95,1.69-1.55,3.72-1.49,4.94,.06,1.86,.12,1.8,.6-.81,.24-1.57,.78-2.97,1.13-3.08,.3-.12,.6-.58,.6-1.05,0-.87,4.06-4.88,4.95-4.88,.3,0,.89-.41,1.37-.87,.54-.47,1.73-.87,2.68-.87,1.01,0,1.67-.23,1.49-.47-.18-.29,.89-.58,2.33-.58,1.49-.06,2.68,.12,2.68,.41,0,.23,1.31,.64,2.92,.87,1.73,.23,3.04,.7,3.28,1.22,.18,.47,.6,.87,.95,.87,.84,0,2.39,1.45,2.39,2.27,0,.29,.36,.81,.78,1.05,1.31,.81,2.8,4.07,2.8,6.16s.78,3.26,1.49,2.15c.18-.29,.06-.58-.24-.58-.36,0-.66-.93-.66-2.09,0-1.98-1.61-5.29-3.34-7.04-.42-.41-.84-.93-.95-1.16-1.19-2.73-13.19-6.22-15.04-4.42Z"/>
  <path d="M175.42,53.5c0,.29-.24,.41-.6,.23-1.19-.7-8.95,4.36-8.95,5.87,0,.35-.54,1.1-1.19,1.69-.72,.64-1.19,1.8-1.19,2.97,0,1.05-.36,1.98-.72,2.09-.6,.23-.6,.58-.12,1.69,.6,1.28,.72,1.1,1.13-1.74,.24-1.74,.72-3.55,1.13-3.95,.95-1.05,1.73-2.09,2.57-3.43,.36-.58,.95-1.05,1.31-.99,.36,.12,.66-.06,.66-.35,0-.99,4-2.97,6.03-2.97,1.55,0,1.79-.17,1.13-.58-.66-.47-.24-.58,1.61-.47,1.37,.06,2.74-.06,2.92-.29,.24-.23-.95-.41-2.63-.41-1.79,0-3.1,.29-3.1,.64Z"/>
  <path d="M230.49,53.26c.24,.17,1.67,.35,3.22,.29,1.79-.06,2.57,.06,2.09,.41-.54,.29,.06,.58,1.85,.76,1.49,.17,3.16,.7,3.7,1.1,2.33,1.86,5.07,4.65,5.07,5.23,0,.35,.42,.99,.89,1.45,.48,.52,.89,1.74,.89,2.73,0,1.05,.42,2.91,.89,4.19l.84,2.33,.06-2.21c0-1.34-.24-2.09-.6-1.86s-.6-.52-.6-1.86c0-1.57-.6-3.14-2.15-5.41-1.19-1.74-2.39-3.31-2.68-3.37-.3-.12-.95-.58-1.37-1.05-1.43-1.4-6.86-3.14-9.73-3.14-1.49,0-2.57,.17-2.39,.41Z"/>
  <path d="M19.69,54.02c-.66,.41-.36,.58,1.19,.58,3.76,0,9.01,4.88,10.56,9.83,1.07,3.49,1.19,10.12,.18,10.41-.3,.12-.6,.47-.6,.7,0,1.1-3.1,4.94-4.95,6.05-4.3,2.67-4.89,2.85-9.61,2.79-2.57,0-4.89-.29-5.07-.58s-.89-.7-1.55-.93c-1.37-.41-5.67-4.13-5.67-4.83,0-.29-.54-.93-1.19-1.51-.66-.52-1.19-.7-1.19-.41,0,.35,.42,.76,.89,.93,.48,.23,.89,.64,.89,.93,0,.81,4.3,5.12,5.13,5.12,.36,0,1.01,.35,1.37,.81,.66,.76,4,1.51,6.92,1.57,8.47,.17,16.05-6.98,16.47-15.47,.06-.87-.72-5.12-1.07-6.11-.24-.47-.3-1.05-.3-1.34,.06-.23-.18-.41-.48-.41-.36,0-.6-.23-.6-.52,0-1.22-2.8-4.71-4-5.06-.78-.17-1.37-.58-1.37-.87,0-.52-2.39-1.69-4.18-2.04-.48-.12-1.31,.06-1.79,.35Z"/>
  <path d="M181.98,54.02c-.42,.23,.36,.58,1.73,.76s3.04,.93,4.06,1.8c.89,.81,1.85,1.51,2.09,1.51,.18,0,1.01,.99,1.73,2.15,.78,1.22,1.61,2.27,1.85,2.38s.6,1.74,.84,3.72c.24,1.92,.6,3.2,.84,2.85,.6-.99-.78-6.51-2.09-8.49-2.92-4.42-8.89-8.02-11.04-6.69Z"/>
  <path d="M227.21,53.85c-.06,.29-1.25,.99-2.51,1.63-2.63,1.28-4.95,3.49-5.49,5.23-.24,.58-.78,1.45-1.19,1.92-.48,.41-.84,1.69-.84,2.79s-.24,1.98-.6,1.98c-.78,0-.78,3.2-.06,4.54,.36,.52,.78,1.98,.95,3.14,.18,1.22,.6,2.21,.84,2.21,.3,0,.84,.76,1.19,1.63,.42,.93,1.79,2.33,3.04,3.08,1.31,.76,2.39,1.57,2.39,1.8s1.01,.58,2.27,.76c1.19,.17,3.1,.58,4.18,.93,1.25,.41,2.21,.41,2.68,.06,.42-.29,1.91-.7,3.4-.87,1.43-.17,2.74-.64,2.86-.93,.12-.35,.6-.64,1.07-.64s1.01-.41,1.19-.87c.24-.47,.66-.87,1.07-.87,.89-.06,5.13-5.81,5.07-6.98,0-.52-.24-.35-.54,.47-1.19,2.79-5.43,6.86-8.83,8.43-3.4,1.51-9.13,1.63-12.23,.17-1.25-.52-2.21-1.22-2.21-1.45,0-.29-.66-.64-1.43-.87-.72-.17-2.15-1.45-3.1-2.79-.95-1.4-1.97-2.67-2.27-2.91-.3-.17-.54-2.56-.54-5.29-.06-5.7,.89-8.08,4.47-11.46,3.52-3.26,4-3.55,6.15-3.9,1.13-.17,1.91-.52,1.73-.81-.36-.64-2.45-.7-2.74-.12Z"/>
  <path d="M108.11,69.72c0,1.1,.12,1.57,.3,.99,.12-.52,.12-1.45,0-2.04-.18-.52-.3-.06-.3,1.05Z"/>
  <path d="M140.57,71c-.18,.76-.36,1.8-.36,2.38s-.36,1.45-.72,1.86c-1.73,1.86-2.15,2.5-2.51,3.66-.36,1.1-1.91,2.21-6.32,4.65-2.21,1.22-8.83,1.16-11.63-.12-1.25-.58-2.63-1.34-2.92-1.63-2.45-1.92-3.76-3.31-4.47-4.71-.48-.87-1.07-1.57-1.37-1.57-.72,0-.6,1.05,.3,1.57,.36,.23,1.13,1.22,1.61,2.21,1.31,2.44,6.32,5.52,8.95,5.52,1.19,0,2.45,.29,2.86,.7,.54,.52,1.01,.52,2.03,.06,.78-.35,2.45-.81,3.76-.99s2.45-.58,2.57-.93c.12-.29,.6-.58,1.07-.58s1.01-.41,1.19-.87c.24-.47,.72-.87,1.13-.87,1.13,0,5.07-6.34,5.07-8.2,0-.93,.3-1.69,.6-1.69,.36,0,.6-.41,.6-.87,0-1.34-1.01-1.05-1.43,.41Z"/>
  <path d="M162.29,71.17c0,.81,.24,1.92,.54,2.5,2.8,5.58,3.58,6.75,5.73,8.14,1.31,.87,2.74,1.92,3.16,2.27,.42,.41,1.79,.76,3.04,.76s2.51,.29,2.92,.7c.54,.52,1.07,.52,2.21,0,.84-.41,2.27-.7,3.1-.7s2.51-.58,3.7-1.28c2.33-1.4,6.03-4.71,6.03-5.35,0-.23,.36-.81,.84-1.22,.84-.81,1.91-5.99,1.37-6.51-.18-.12-.48,1.1-.72,2.67-.24,1.63-.6,2.85-.89,2.67-.24-.17-.66,.35-.84,1.16-.36,1.4-2.33,3.78-3.04,3.78-.36,0-3.88,2.33-4.47,2.91-.48,.47-2.39,.7-6.32,.76-3.7,.06-7.1-1.05-8.59-2.79-.42-.47-1.13-.87-1.55-.87-.48,0-.84-.23-.84-.47,0-.29-.54-1.1-1.19-1.86s-1.19-1.69-1.19-2.15c0-.41-.24-.76-.6-.76-.3,0-.72-1.34-.95-2.91-.42-3.02-1.43-4.01-1.43-1.45Z"/>
  <path d="M109.37,72.92c0,1.28,.12,1.74,.24,.99,.12-.7,.12-1.74,0-2.33-.18-.52-.3,.06-.24,1.34Z"/>
  <path d="M248.27,72.39c0,.64,.18,.81,.36,.35,.18-.41,.12-.93-.06-1.1-.18-.23-.36,.12-.3,.76Z"/>
  <path d="M13.72,106.35c0,.29-.6,.58-1.31,.58-2.09,0-4.06,.64-3.76,1.16,.18,.29-.24,.7-.95,.87-1.13,.35-2.27,1.4-4.71,4.19-.72,.81-2.45,5.7-2.33,6.4,.06,.23-.06,.93-.3,1.45s-.36,1.45-.18,2.04c.18,.7,.3,.47,.36-.58,0-.93,.3-1.51,.6-1.34s.66-.99,.78-2.62c.18-1.63,.54-3.14,.84-3.37,.3-.17,.95-1.1,1.43-2.09,.54-.93,1.85-2.33,2.98-3.02,1.13-.76,2.39-1.57,2.74-1.86s2.03-.7,3.7-.93c3.16-.41,4.3-1.45,1.61-1.45-.84,0-1.49,.23-1.49,.58Z"/>
  <path d="M17.3,106.35c0,.29,.66,.58,1.49,.58s1.49-.29,1.49-.58c0-.35-.66-.58-1.49-.58s-1.49,.23-1.49,.58Z"/>
  <path d="M229.71,106.35c0,.29-.78,.58-1.67,.58-.95,0-2.33,.52-3.1,1.16s-1.79,1.16-2.33,1.22c-.6,0-.72,.12-.24,.35,.42,.12,1.67-.23,2.68-.87,1.07-.64,3.22-1.34,4.83-1.57,2.92-.47,3.88-1.45,1.31-1.45-.84,0-1.49,.23-1.49,.58Z"/>
  <path d="M233.29,106.29c0,.29,1.49,.7,3.34,.93,1.97,.23,3.4,.7,3.64,1.22,.18,.47,.6,.81,1.01,.81,.78,0,3.28,2.21,4.53,4.07,1.97,2.79,2.33,3.2,2.39,2.44,0-.41-.36-1.16-.72-1.57-1.79-1.92-2.27-2.62-1.97-2.62,.18,0-.36-.64-1.25-1.45s-1.85-1.45-2.15-1.45-.95-.41-1.43-.87c-.54-.47-1.55-.87-2.33-.87s-1.61-.29-1.79-.58c-.48-.7-3.28-.76-3.28-.06Z"/>
  <path d="M22.26,107.34c.95,.17,1.85,.64,2.03,1.1s.72,.81,1.13,.81c.48,0,1.01,.41,1.19,.87,.24,.47,.66,.87,1.07,.87,.66,0,1.37,.99,2.86,4.19,.42,.93,.95,1.63,1.19,1.63,.89,0,.78,10.64-.12,10.93-.36,.12-.6,.58-.6,1.05s-.42,.99-.89,1.16c-.48,.23-.89,.7-.89,1.1,0,1.16-4.36,4.3-6.5,4.71-1.01,.23-1.85,.58-1.85,.87,0,.7-7.58,.7-8,0-.18-.23-1.13-.64-2.09-.81s-2.09-.7-2.51-1.16c-.48-.41-1.37-.99-2.03-1.22-1.37-.47-.95-.12,2.27,2.21,1.91,1.34,3.1,1.69,6.86,1.92,4.65,.29,9.67-.52,9.67-1.57,0-.35,.36-.58,.78-.58,.95-.06,3.4-2.04,3.4-2.85,0-.35,.3-.64,.6-.64,.36,0,.84-.47,1.01-1.05,.24-.52,.78-1.34,1.19-1.74s.78-1.51,.78-2.38,.3-1.86,.72-2.27c.54-.52,.54-1.22,0-2.91-.42-1.28-.72-2.91-.72-3.72,0-3.43-7.52-11.05-10.74-10.87q-1.43,.12,.18,.35Z"/>
  <path d="M220.35,111.88c-.6,.81-1.55,2.04-2.09,2.73-.6,.64-1.07,1.8-1.07,2.56s-.24,1.51-.6,1.69c-.3,.17-.6,1.63-.6,3.2s.3,3.02,.6,3.2c.36,.17,.6,.93,.6,1.57,0,1.86,3.28,6.4,5.79,8.02,1.25,.81,2.39,1.57,2.57,1.8,.18,.17,1.79,.58,3.58,.87,3.64,.58,9.79,0,11.1-1.1,.48-.41,1.25-1.05,1.73-1.45,.42-.35,1.07-.7,1.43-.7,.3,0,.78-.23,.95-.58,.54-.81-1.37,0-3.82,1.57-1.13,.76-2.45,1.22-2.86,1.1-.42-.17-.78-.06-.78,.23,0,.7-6.98,.76-7.4,.06-.18-.29-1.25-.7-2.39-.87-1.13-.23-2.33-.76-2.74-1.22s-1.07-.87-1.43-.87c-.72,0-3.94-4.3-3.94-5.23,0-.29-.3-.58-.72-.7-.48-.17-.72-1.86-.72-5.47,0-4.59,.18-5.47,1.55-7.56,.84-1.28,2.03-2.79,2.57-3.31,.54-.58,.72-.99,.36-.99-.3,0-1.07,.64-1.67,1.45Z"/>
  <path d="M248.33,119.03c-.06,1.57,.24,2.85,.78,3.37,.78,.81,.89,.76,.89-.58,0-.81-.24-1.51-.54-1.51-.36,0-.72-.87-.84-1.92-.18-1.57-.24-1.51-.3,.64Z"/>
  <path d="M248.33,125.66c-.06,1.22-.42,2.21-.78,2.21-.3,0-.42,.29-.18,.64,.66,1.1,1.55-1.05,1.25-3.14q-.24-1.8-.3,.29Z"/>
  <path d="M246.18,129.9c-.54,1.51-.42,1.86,.3,.7,.36-.58,.54-1.22,.36-1.34-.12-.17-.42,.12-.66,.64Z"/>
  <path d="M3.1,130.43c.42,.47,.89,.7,1.01,.64,.3-.35-.6-1.45-1.19-1.45-.3,0-.24,.35,.18,.81Z"/>
  <path d="M4.18,132.58c0,.29,.3,.41,.6,.23,.36-.17,.6-.47,.6-.64,0-.12-.24-.23-.6-.23-.3,0-.6,.29-.6,.64Z"/>
  <path d="M13.42,158.98l-1.79,.81h2.39c1.73,.06,2.15-.12,1.49-.52s-.42-.58,1.07-.58c1.07,0,1.85,.23,1.67,.52s1.01,.64,2.74,.76c1.97,.23,3.22,.64,3.58,1.28,.3,.52,.95,.93,1.37,.93,.48,0,.89,.23,.89,.58,0,.29,.36,.58,.78,.58,.72,0,1.01,.41,2.8,3.84,.48,.93,1.07,1.86,1.37,2.04,.89,.64,.72,11.57-.24,11.57-.3,0-.54,.35-.54,.76s-.54,1.16-1.19,1.74c-.66,.52-1.19,1.4-1.19,1.86s-.36,.87-.78,.87c-.48,0-1.43,.52-2.15,1.1-.78,.64-1.67,1.28-2.03,1.4-.42,.12-.54,.47-.3,.7s1.43-.35,2.68-1.22c1.97-1.45,3.16-2.56,5.55-5.29,.78-.93,1.97-5.35,1.91-7.44,0-3.43-.89-7.38-1.67-7.68-.48-.17-.84-.64-.84-1.1,0-.7-1.91-2.73-5.43-5.7-.72-.58-2.45-1.22-3.88-1.4-1.43-.12-2.63-.52-2.63-.76,0-.76-3.64-.52-5.67,.35Z"/>
  <path d="M231.56,159.03c.48,.58,.89,.7,1.01,.29,.12-.35,.6-.64,1.07-.64,.54,0,.72,.23,.54,.58-.24,.35,.54,.58,1.97,.58,1.67,0,3.1,.52,4.95,1.8,4.65,3.26,6.44,5.76,7.16,10.06l.48,2.97-.24-3.43c-.12-1.92-.48-3.61-.72-3.78-.3-.17-1.13-1.34-1.85-2.5-1.85-2.91-8.11-6.57-10.02-5.87-.42,.12-.89,0-1.13-.35-.18-.35-1.19-.64-2.21-.64-1.61,0-1.73,.12-1.01,.93Z"/>
  <path d="M225.95,160.2c-1.37,.76-2.98,1.57-3.58,1.74-.54,.23-1.19,.99-1.37,1.8-.24,.76-.54,1.28-.66,1.1-.54-.47-3.16,3.66-3.16,4.88,0,.64-.24,1.16-.6,1.16-.72,0-.78,6.8-.06,7.21,.3,.17,.72,1.28,.89,2.38,.24,1.1,.66,2.04,.89,2.04,.3,0,.84,.76,1.25,1.74,.42,.93,.95,1.74,1.19,1.74,.3,0,.89,.35,1.31,.76,1.43,1.34,4.18,2.85,4.53,2.5,.18-.17,.18-.41,.06-.52-.12-.06-1.07-.7-2.15-1.45-1.07-.7-2.21-1.28-2.57-1.28-.3,0-.6-.29-.6-.58,0-.7-2.39-4.13-3.22-4.77-.3-.17-.6-2.85-.6-5.87-.06-4.48,.18-5.76,1.01-6.63,.54-.64,1.01-1.34,1.01-1.57,0-.35,3.22-3.49,5.73-5.58,.6-.47,2.15-.99,3.46-1.16,1.97-.29,2.21-.41,1.07-.7-.84-.23-2.21,.12-3.88,1.05Z"/>
  <path d="M7.64,161.3c-3.82,2.56-8.23,10.41-6.62,11.98,.42,.41,.72-.41,.95-2.44,.24-1.86,.78-3.26,1.31-3.55,.48-.29,.89-.87,.89-1.28,0-.87,2.39-2.97,5.37-4.83,1.13-.76,1.67-1.34,1.19-1.34-.54,0-1.91,.64-3.1,1.45Z"/>
  <path d="M248.33,177.87c0,1.1,.12,1.57,.3,.99,.12-.52,.12-1.45,0-2.04-.18-.52-.3-.06-.3,1.05Z"/>
  <path d="M247.32,180.78c-.18,.29-.06,.58,.24,.58,.36,0,.66-.29,.66-.58,0-.35-.12-.58-.24-.58-.18,0-.48,.23-.66,.58Z"/>
  <path d="M2.74,182.41c.36,.23,.78,.87,1.01,1.4,.18,.58,.72,1.05,1.13,1.05,.54,0,.54-.17,.12-.47-.36-.23-.78-.87-1.01-1.45-.18-.52-.72-.99-1.13-.99-.54,0-.54,.17-.12,.47Z"/>
  <path d="M246,182.93c-.24,.58-.66,1.28-1.01,1.51-.42,.35-.36,.41,.18,.29,.78-.23,2.21-2.79,1.49-2.79-.12,0-.48,.47-.66,.99Z"/>
  <path d="M5.79,186.07c.42,.41,.89,.58,1.07,.41s-.12-.52-.72-.7c-.84-.35-.89-.29-.36,.29Z"/>
  <path d="M243.08,186.25c-.6,.47-1.01,.93-.84,1.1,.18,.12,.84-.23,1.43-.81,1.37-1.28,1.07-1.45-.6-.29Z"/>
  <path d="M7.76,187.12c0,.58,1.13,1.45,1.49,1.16,.06-.12-.18-.58-.66-.99s-.84-.47-.84-.17Z"/>
  <path d="M239.56,188.34c-.78,.35-.89,.52-.3,.52,.48,0,1.31-.23,1.79-.52,1.07-.7,.12-.7-1.49,0Z"/>
  <path d="M10.74,189.21c.42,.47,1.49,.87,2.45,.87,.89,0,2.33,.23,3.16,.58,.89,.29,1.67,.35,1.85,0,.18-.29-1.31-.7-3.28-.93s-3.58-.64-3.58-.87c0-.29-.3-.52-.66-.52-.48,0-.48,.29,.06,.87Z"/>
  <path d="M19.87,189.91c.54,.12,1.49,.12,2.09,0,.54-.17,.06-.29-1.07-.29s-1.61,.12-1.01,.29Z"/>
  <path d="M229.71,190.2c1.49,.29,2.98,.47,3.28,.47,.36,0,1.79-.17,3.28-.47,2.21-.41,1.61-.47-3.28-.47s-5.49,.06-3.28,.47Z"/>
  <path d="M13.42,211.6c-.18,.29-.95,.58-1.73,.58s-1.97,.52-2.74,1.16-1.61,1.16-1.91,1.16c-.54,0-2.86,2.15-2.86,2.67,0,.17-.54,.99-1.19,1.8s-1.19,2.09-1.19,2.85c0,.7-.24,1.45-.54,1.63-.84,.52-1.13,3.78-.3,3.43,.36-.12,.89-1.57,1.07-3.2,.24-1.63,.72-3.26,1.13-3.72,1.73-1.92,2.21-2.56,2.21-3.14,0-.29,.24-.58,.48-.58,.48,0,1.13-.47,4.06-2.85,1.37-1.1,7.52-1.69,10.62-.99,4.83,1.1,7.28,2.97,10.8,8.2,1.61,2.44,1.67,9.48,.06,12.91-.66,1.4-1.37,2.5-1.61,2.5s-.6,.52-.84,1.1c-.18,.64-.89,1.34-1.55,1.51-.6,.23-1.01,.64-.78,.93,.3,.52,1.97-.99,4.89-4.42,.42-.47,.6-1.16,.42-1.45-.18-.35-.18-.58,.12-.58,.78,0,1.91-4.19,1.67-6.11-.54-4.59-1.13-6.8-1.85-7.09-.48-.17-.84-.58-.84-.87,0-1.98-6.26-6.8-8.83-6.86-.78,0-1.19-.23-1.01-.58,.24-.35-1.07-.58-3.52-.58-2.15,0-4.06,.23-4.24,.58Z"/>
  <path d="M229.12,211.6c0,.29-.66,.58-1.43,.58-1.85,0-6.62,3.08-8,5.12-.54,.87-1.31,1.92-1.73,2.33s-.78,1.4-.78,2.15-.24,1.57-.6,1.74c-.3,.17-.6,2.04-.6,4.13s.24,3.72,.6,3.72,.6,.41,.6,.93c0,3.14,8.11,10.47,10.98,9.94q1.19-.23-.06-.35c-.78,0-1.37-.29-1.37-.58s-.66-.7-1.49-.87c-.84-.23-1.49-.64-1.49-.93,0-.35-.36-.58-.84-.58-.42,0-1.55-1.1-2.51-2.5-.95-1.34-1.97-2.62-2.33-2.85-.3-.23-.6-2.97-.6-6.11,0-5.64,0-5.76,2.03-8.32,2.57-3.2,4-4.65,4.71-4.65,.3,0,.89-.35,1.25-.81,.42-.47,2.21-1.05,4-1.28,3.4-.41,4.42-1.4,1.43-1.4-.95,0-1.79,.23-1.79,.58Z"/>
  <path d="M233.29,211.54c0,.29,1.31,.64,2.92,.87,1.61,.17,3.22,.76,3.64,1.22s1.07,.87,1.49,.87c.48,0,.89,.29,1.01,.7,.18,.52,.36,.52,.72,0,.24-.41,0-.87-.66-1.1-.6-.23-1.43-.76-1.85-1.16s-1.43-.76-2.27-.76c-.78,0-1.43-.29-1.43-.58,0-.35-.78-.58-1.79-.58-.95,0-1.79,.23-1.79,.52Z"/>
  <path d="M243.74,215.67c-.18,.29-.06,.58,.24,.58,.36,0,.66,.29,.66,.64s.66,1.45,1.43,2.44c.89,1.16,1.61,3.08,1.91,4.94,.24,1.86,.6,2.85,.89,2.38,.24-.41,.18-1.34-.12-2.09-.3-.81-.54-1.92-.54-2.5,0-1.4-4-7.15-4.47-6.4Z"/>
  <path d="M248.33,229.63c0,.81,.12,1.1,.3,.7,.12-.35,.12-1.05,0-1.45-.18-.35-.3-.06-.3,.76Z"/>
  <path d="M247.32,233.12c.18,.29,.48,.58,.66,.58,.12,0,.24-.29,.24-.58,0-.35-.3-.58-.66-.58-.3,0-.42,.23-.24,.58Z"/>
  <path d="M2.39,234.57c0,.52,2.03,2.62,2.57,2.62,.3,0,.06-.41-.42-.93-.54-.47-.95-1.16-.95-1.45s-.24-.52-.6-.52c-.3,0-.6,.12-.6,.29Z"/>
  <path d="M245.35,236.37c-.42,.47-.48,.81-.18,.81,.6,0,1.49-1.1,1.19-1.45-.12-.06-.6,.17-1.01,.64Z"/>
  <path d="M243.08,238.64q-1.07,.81,.24,.47c.72-.17,1.31-.52,1.31-.81,0-.7-.18-.64-1.55,.35Z"/>
  <path d="M6.86,239.51c.6,.64,1.43,1.16,1.85,1.16s.89,.35,1.01,.7c.24,.58,.36,.58,.36,0,.06-.47-.48-.93-1.13-1.1s-1.19-.52-1.19-.76-.48-.64-1.01-.81c-.89-.35-.89-.23,.12,.81Z"/>
  <path d="M25.06,239.98c0,.29-1.13,.87-2.51,1.28-2.15,.7-2.33,.87-1.13,1.05,.78,.12,1.61-.12,1.85-.47,.24-.41,.72-.58,.95-.41,.3,.17,.89-.06,1.25-.52,.48-.47,.54-.87,.18-1.1-.36-.17-.6-.12-.6,.17Z"/>
  <path d="M239.86,240.67c-1.07,.7-.12,.7,1.49,0,.78-.35,.89-.52,.3-.52-.48,0-1.31,.23-1.79,.52Z"/>
  <path d="M11.34,241.72c0,.7,3.04,1.28,6.21,1.22,2.27-.12,2.21-.12-.84-.52-1.79-.23-3.76-.58-4.3-.81-.66-.29-1.07-.23-1.07,.12Z"/>
  <path d="M237.95,242.24c.42,.17,.95,.12,1.13-.06,.24-.17-.12-.35-.78-.29-.66,0-.84,.17-.36,.35Z"/>
  <path d="M231.09,242.83c.89,.12,2.21,.12,2.98,0,.72-.12,0-.23-1.67-.23s-2.27,.12-1.31,.23Z"/>
  <path d="M14.2,263.82c.78,.52,4.83,.35,5.37-.17,.18-.17-1.13-.29-2.92-.29s-2.92,.23-2.45,.47Z"/>
  <path d="M230.01,263.93c.72,.29,.84,.52,.36,.52-.48,.06-.66,.23-.48,.41,.24,.23,.72,.17,1.13-.17,.42-.29,1.55-.58,2.51-.64,3.28-.23,2.39-.7-1.19-.64-2.51,0-3.16,.17-2.33,.52Z"/>
  <path d="M9.55,265.27c-.84,.35-1.85,.99-2.27,1.4s-1.07,.76-1.37,.76-.54,.35-.54,.81-.18,.93-.42,1.05c-.95,.41-3.16,3.95-3.16,5.12,0,.64-.3,1.69-.72,2.27-.42,.64-.48,1.51-.18,2.15,.36,.81,.66,.23,1.07-2.38,.3-1.92,.95-3.72,1.37-3.95,.48-.23,.84-.76,.84-1.05,0-.76,4-4.59,4.71-4.59,.3,0,.84-.35,1.25-.81,.36-.47,1.55-.99,2.57-1.1l1.91-.23-1.79-.06c-.95,0-2.45,.29-3.28,.64Z"/>
  <path d="M21.54,265.04c2.15,.41,7.7,3.9,7.7,4.83,0,.47,.54,1.22,2.27,3.08,1.01,1.1,1.73,9.89,.84,10.41-.36,.23-.54,.76-.36,1.22s.06,1.16-.3,1.57c-2.33,2.62-3.04,3.61-3.04,4.07,0,.29-.72,.81-1.61,1.22-1.97,.81-3.76,2.21-3.76,2.91,0,.29,.42,.06,.95-.41,.48-.52,1.19-.93,1.49-.93,.89,0,5.31-4.3,5.31-5.12,0-.41,.24-.7,.54-.7,.84,0,2.27-4.94,2.09-7.38-.24-4.24-1.01-7.09-2.09-8.08-.66-.52-1.13-1.28-1.13-1.57,0-.64-2.8-3.31-3.52-3.31-.24,0-1.07-.52-1.85-1.16-.89-.76-2.15-1.16-3.52-1.1l-2.15,.06,2.15,.41Z"/>
  <path d="M224.34,265.74c-2.68,1.63-4.77,3.55-4.77,4.42,0,.41-.24,.76-.6,.76-.3,0-1.13,1.1-1.79,2.44-1.73,3.55-1.61,8.9,.24,12.39,1.43,2.62,4.42,6.11,5.25,6.11,.24,0-.36-.87-1.37-1.86-.95-1.05-1.91-2.38-2.09-2.91-.18-.58-.54-1.05-.84-1.05-.78,0-1.37-6.05-.95-9.48,.3-2.04,.89-3.61,1.79-4.54,.72-.76,1.25-1.69,1.13-1.98-.24-.7,5.49-4.54,7.58-5l1.49-.41-1.49-.06c-.84,0-2.45,.52-3.58,1.16Z"/>
  <path d="M235.86,264.92c.54,.12,1.49,.12,2.09,0,.54-.17,.06-.29-1.07-.29s-1.61,.12-1.01,.29Z"/>
  <path d="M240.39,266.09c2.21,1.69,4.47,3.84,5.55,5.41,.54,.81,1.01,1.16,1.01,.87,.06-.64-2.09-3.49-3.4-4.59-.42-.35-1.31-1.1-1.97-1.69-.6-.52-1.43-.99-1.85-.99s-.12,.47,.66,.99Z"/>
  <path d="M247.37,273.18c-.24,.29-.12,1.16,.18,1.92,.54,1.22,.6,1.22,.6-.58,.06-1.86-.18-2.27-.78-1.34Z"/>
  <path d="M248.33,278.18c0,.93,.12,1.28,.3,.7,.12-.52,.12-1.34,0-1.74-.18-.35-.3,.06-.3,1.05Z"/>
  <path d="M248.33,281.67c0,.93,.12,1.28,.3,.7,.12-.52,.12-1.34,0-1.74-.18-.35-.3,.06-.3,1.05Z"/>
  <path d="M247.26,284.34c-.18,.35-.06,.93,.3,1.28,.48,.47,.66,.29,.66-.64,0-1.4-.3-1.63-.95-.64Z"/>
  <path d="M1.85,284.87c-.06,1.22,.95,2.67,1.55,2.15,.24-.29,.18-.64-.18-.87s-.84-.81-1.01-1.28q-.3-.76-.36,0Z"/>
  <path d="M4.18,289.58c0,.29,.3,.41,.6,.23,.36-.17,.6-.47,.6-.64,0-.12-.24-.23-.6-.23-.3,0-.6,.29-.6,.64Z"/>
  <path d="M243.74,290.68c-.18,.29-.06,.58,.24,.58,.36,0,.66-.29,.66-.58,0-.35-.12-.58-.24-.58-.18,0-.48,.23-.66,.58Z"/>
  <path d="M6.38,291.32c.42,.41,.89,.58,1.07,.41s-.12-.52-.72-.7c-.84-.35-.89-.29-.36,.29Z"/>
  <path d="M8.71,292.37c-.18,.29,.06,.64,.54,.81,.54,.23,.72,.06,.48-.52-.36-.93-.6-.99-1.01-.29Z"/>
  <path d="M223.75,292.37c0,.29,.42,.64,.84,.81,.6,.23,.78,.06,.54-.52-.36-.87-1.37-1.1-1.37-.29Z"/>
  <path d="M238.96,293.65c-.66,.93-.06,1.1,.78,.17,.42-.47,.48-.81,.18-.81s-.78,.29-.95,.64Z"/>
  <path d="M21.48,294.17c0,.29,.3,.58,.6,.58,.36,0,.6-.29,.6-.58,0-.35-.24-.58-.6-.58-.3,0-.6,.23-.6,.58Z"/>
  <path d="M226.43,294.17c.18,.29,.48,.58,.66,.58,.12,0,.24-.29,.24-.58,0-.35-.3-.58-.66-.58-.3,0-.42,.23-.24,.58Z"/>
  <path d="M14.74,295.16c1.07,.12,2.98,.12,4.18,0,1.25-.12,.42-.23-1.91-.23s-3.28,.12-2.27,.23Z"/>
  <path d="M231.38,295.16c1.07,.12,2.68,.12,3.58,0s0-.23-1.97-.23-2.68,.12-1.61,.23Z"/>
  <path d="M17.48,316.09c.89,.12,1.61,.47,1.61,.81,0,.29,.89,.52,1.97,.52,2.15,0,8.17,3.61,8.17,4.88,0,.47,.42,.93,.89,1.16,.48,.17,.89,.7,.89,1.16s.36,.93,.78,1.05c1.13,.41,1.01,11.57-.18,12.85-1.79,1.92-2.27,2.56-2.63,3.78-.24,.7-.78,1.28-1.19,1.28s-1.37,.52-2.15,1.16-1.07,1.16-.72,1.16,1.01-.41,1.55-.87c.48-.47,1.13-.87,1.43-.87,.78,0,4.3-5.47,5.31-8.14,.42-1.1,.6-2.44,.42-3.02-.12-.52,0-1.1,.3-1.28,.36-.23,.24-1.1-.3-2.38-.48-1.1-.84-2.56-.84-3.2s-.54-1.63-1.19-2.15c-.66-.58-1.19-1.28-1.19-1.57,0-.76-4.24-4.36-5.67-4.77-.66-.23-1.31-.58-1.49-.87-.18-.23-1.91-.52-3.88-.7-1.97-.12-2.86-.12-1.91,0Z"/>
  <path d="M232.88,316.09c1.19,.12,2.21,.47,2.21,.81,0,.29,.78,.52,1.73,.52,.89,0,2.39,.52,3.22,1.16s1.67,1.16,1.85,1.16c.72,0,2.74,2.04,2.74,2.73,0,.41,.24,.76,.48,.76,.6,0,2.63,4.19,2.45,5-.06,.29,.06,.93,.24,1.4s.48,1.8,.6,2.91c.18,1.1,.18,.12,0-2.27-.24-3.78-.54-4.71-2.39-7.44-1.13-1.69-2.27-3.08-2.51-3.08-.3,0-1.07-.52-1.85-1.16s-1.73-1.16-2.15-1.16-.84-.23-.95-.58c-.06-.29-1.91-.64-4.06-.76s-2.86-.12-1.61,0Z"/>
  <path d="M8.35,318.53c-1.79,1.22-3.58,2.73-3.88,3.37-.36,.7-1.01,1.63-1.43,2.15-1.37,1.57-2.86,9.89-1.91,10.47,.24,.17,.66-1.69,.84-4.07,.24-2.38,.78-4.77,1.13-5.18,1.79-1.92,2.27-2.62,2.27-3.14,0-1.05,6.15-4.71,7.88-4.71,.95,0,1.67-.29,1.67-.58,0-1.28-3.46-.41-6.56,1.69Z"/>
  <path d="M224.05,318.24c-3.4,2.21-6.86,6.11-6.86,7.85,0,.58-.24,1.22-.54,1.34-.24,.06-.66,1.16-.89,2.44-.36,1.69-.24,2.15,.36,1.98,.42-.17,.95-1.63,1.25-3.31,.3-2.27,1.01-3.72,2.57-5.58,2.33-2.79,6.56-5.52,8.53-5.52,.72,0,1.25-.29,1.25-.58,0-1.16-2.74-.47-5.67,1.4Z"/>
  <path d="M215.99,334.58c0,1.1,.24,2.04,.54,2.04s.72,.64,.89,1.45c.24,.93,.66,1.34,1.07,1.1,.54-.35,.54-.52,0-.7-.36-.12-.84-1.51-1.07-3.08-.48-3.26-1.43-3.84-1.43-.81Z"/>
  <path d="M1.85,336.68c0,.87,.36,1.86,.84,2.27,.6,.52,.89,.52,.89,.06,0-.35-.24-.64-.54-.64s-.72-.7-.84-1.63l-.24-1.57-.12,1.51Z"/>
  <path d="M247.61,335.75c-.06,.29-.18,.81-.24,1.16-.12,.81-1.61,3.31-2.57,4.24-.42,.41-.78,1.22-.72,1.74,0,.81,.12,.87,.42,.12,.6-1.34,2.68-4.3,3.28-4.71,.3-.23,.42-.99,.24-1.74-.12-.76-.3-1.16-.42-.81Z"/>
  <path d="M218.97,339.99c0,.35,.36,.99,.78,1.4s.95,1.22,1.19,1.74c.18,.58,.78,1.05,1.25,1.05s1.01,.35,1.13,.7c.24,.58,.36,.58,.36,0,.06-.47-.48-.93-1.13-1.1s-1.19-.58-1.19-.87-.54-1.22-1.19-2.04-1.19-1.22-1.19-.87Z"/>
  <path d="M3.94,340.86c.18,.58,.54,.87,.72,.7s0-.64-.42-1.05c-.6-.52-.66-.47-.3,.35Z"/>
  <path d="M5.91,342.84c.66,1.28,2.8,2.33,3.46,1.69,.24-.17-.06-.35-.6-.35s-1.55-.58-2.27-1.34q-1.25-1.28-.6,0Z"/>
  <path d="M241.65,344.18c-.48,.29-.6,.58-.3,.58,.36,0,1.01-.29,1.49-.58s.66-.58,.3-.58c-.3,0-1.01,.29-1.49,.58Z"/>
  <path d="M225.54,346.15c.84,.47,1.67,.7,1.97,.52,.66-.41,.42-.52-1.67-.99l-1.79-.35,1.49,.81Z"/>
  <path d="M238.07,345.92c-1.25,.41-1.25,.47-.3,.52,.66,0,1.61-.23,2.09-.52,1.07-.64,.3-.64-1.79,0Z"/>
  <path d="M11.22,346.33c.42,.17,.95,.12,1.13-.06,.24-.17-.12-.35-.78-.29-.66,0-.84,.17-.36,.35Z"/>
  <path d="M21.96,346.33c.36,.12,1.07,.12,1.49,0,.36-.17,.06-.29-.78-.29s-1.13,.12-.72,.29Z"/>
  <path d="M13.9,347.49c.54,.12,1.49,.12,2.09,0,.54-.17,.06-.29-1.07-.29s-1.61,.12-1.01,.29Z"/>
  <path d="M18.38,347.49c.72,.12,1.79,.12,2.39,0,.54-.17-.06-.29-1.37-.23-1.31,0-1.79,.12-1.01,.23Z"/>
  <path d="M229.59,347.49c.72,.12,1.91,.12,2.68,0,.72-.12,.12-.23-1.37-.23s-2.09,.12-1.31,.23Z"/>
  <path d="M234.67,347.49c.54,.12,1.37,.12,1.79,0,.36-.17-.06-.29-1.07-.29-.95,0-1.31,.12-.72,.29Z"/>
  <path d="M17.78,368.43c1.01,.12,1.91,.47,1.91,.76,0,.23,.48,.41,1.07,.35,1.07-.17,3.76,.76,4.3,1.51,.18,.23,.66,.17,1.13-.06,.54-.35,.3-.58-.89-.87-.95-.23-1.85-.64-2.03-.93s-1.91-.58-3.88-.76c-1.97-.12-2.68-.12-1.61,0Z"/>
  <path d="M71.6,368.43c.84,.17,1.79,.52,2.15,.81s1.19,.41,1.91,.23c.72-.12,1.31,0,1.31,.35,0,.29,.42,.52,.89,.52s.89,.29,.89,.7c0,.35,.18,.52,.36,.29,.48-.41,1.67,.52,4.18,3.31,1.25,1.34,3.22,5.76,3.22,7.21,0,.76,.42,1.74,.89,2.21,.78,.81,.89,.76,.89-.29,0-.7-.24-1.22-.54-1.22s-.72-1.22-.95-2.73c-.42-2.73-3.52-7.68-4.83-7.73-.42,0-.84-.41-1.07-.87-.18-.47-.72-.87-1.19-.87s-1.25-.35-1.67-.81c-.48-.41-2.45-.93-4.42-1.05-1.91-.17-2.86-.17-2.03-.06Z"/>
  <path d="M125.3,368.54c1.13,.23,2.8,.64,3.64,.87,.95,.29,1.73,.17,1.97-.17,.24-.41-.06-.64-.72-.64s-2.45-.12-4.06-.29c-2.51-.23-2.63-.17-.84,.23Z"/>
  <path d="M179.59,368.72c1.49,.29,3.16,.64,3.76,.64,.54,.06,1.01,.29,1.01,.52s.36,.47,.84,.47c1.01,0,6.92,5.35,6.92,6.28,0,.41,.42,.87,.89,1.05,.54,.23,.89,1.1,.95,2.21,0,.99,.24,2.85,.54,4.13,.42,1.8,.42,1.45,.18-1.63-.24-3.26-.72-4.59-2.45-7.15-1.19-1.8-2.68-3.31-3.46-3.49-.72-.17-1.49-.7-1.67-1.16s-.72-.81-1.19-.81-.95-.23-1.07-.52c-.06-.29-1.91-.64-4.06-.81-3.7-.35-3.76-.35-1.19,.29Z"/>
  <path d="M228.4,368.43c-1.19,.12-2.51,.64-2.86,1.1-.42,.47-1.01,.81-1.31,.81-1.01,0-5.25,3.95-5.25,4.94,0,.35-.54,.93-1.25,1.34s-1.07,.93-.89,1.1c.18,.23,0,.76-.42,1.22-.89,1.1-.84,9.59,.12,9.89,.36,.12,.66,.52,.66,.93s.54,1.34,1.19,2.09,1.19,1.74,1.19,2.27c0,.76,.12,.81,.54,.12,.36-.52,.3-1.1-.12-1.57-1.85-1.98-2.21-2.56-2.21-3.37,0-.47-.24-.99-.54-1.16s-.42-.87-.24-1.57c.24-.7,0-1.45-.48-1.74-.6-.35-.66-.64-.18-.99,.36-.23,.84-1.63,1.01-3.2,.24-1.8,1.07-3.61,2.33-5.23,1.79-2.33,5.31-5.06,6.5-5.06,.3,0,.54-.17,.54-.47,0-.47,1.85-.76,5.67-.76,4.06-.06,6.26,.23,5.97,.7-.18,.23,.36,.58,1.19,.76,.84,.23,1.49,.64,1.49,.93,0,.35,.36,.58,.78,.58,.84,0,2.51,1.69,2.92,2.97,.18,.52,.36,.58,.66,.12,.48-.7-3.46-4.83-4.53-4.83-.36,0-1.07-.35-1.55-.81-1.01-.87-7.34-1.51-10.92-1.1Z"/>
  <path d="M11.34,369.12c0,.29-.6,.64-1.37,.87-1.25,.29-4.71,3.26-6.86,5.81-.42,.52-1.01,2.21-1.31,3.72-.24,1.51-.66,3.31-.78,4.01-.18,.76-.12,1.45,.18,1.63,.24,.17,.66-1.34,.89-3.37,.24-1.98,.6-3.72,.84-3.9,.72-.58,3.04-4.01,3.04-4.54,0-.29,.84-.87,1.79-1.28,1.01-.41,1.79-.93,1.79-1.16s1.19-.76,2.68-1.1c3.1-.76,3.46-1.22,.89-1.22-.95,0-1.79,.23-1.79,.52Z"/>
  <path d="M66.11,369.3c1.01,.47,1.55,.47,2.03,0,.54-.52,.24-.7-1.31-.64-1.97,0-2.03,.06-.72,.64Z"/>
  <path d="M119.33,369.12c0,.29-.78,.7-1.67,.93-2.21,.47-7.88,5.87-7.88,7.44,0,.47-.18,.99-.42,1.22s-.36,1.34-.24,2.5c.12,1.34-.06,1.92-.48,1.69-.42-.29-.66,.17-.66,1.22v1.63l.89-1.69c.48-.87,.89-2.38,.89-3.31,0-1.8,2.03-5.52,3.88-7.04,3.28-2.85,4.12-3.31,6.56-3.9,3.1-.76,3.46-1.22,.89-1.22-.95,0-1.79,.23-1.79,.52Z"/>
  <path d="M173.03,369.24c0,.35-.42,.52-.89,.29-.48-.17-.89-.06-.89,.23,0,.35-.3,.58-.72,.58-.84,0-7.04,6.11-7.04,6.98,0,.29-.24,.58-.48,.58s-.48,.47-.54,.99c0,.58-.24,2.21-.48,3.66-.42,2.33-.42,2.5,.42,1.74,.48-.52,1.01-2.09,1.19-3.61s.78-3.14,1.31-3.66,.95-1.22,.95-1.51c0-.7,2.92-3.43,3.7-3.43,.3,0,.42-.23,.24-.52s1.25-.93,3.22-1.45c4-1.1,4.47-1.51,1.79-1.51-.95,0-1.79,.29-1.79,.64Z"/>
  <path d="M61.52,371.16c-1.07,.81-2.39,2.04-2.92,2.79-.48,.76-1.31,1.63-1.79,2.04s-1.01,1.86-1.13,3.31c-.18,1.51-.6,2.67-.84,2.67-.3,0-.54,.64-.54,1.45s.3,1.45,.6,1.45c.36,0,.6-.06,.6-.17,.48-4.71,.89-6.63,1.55-6.98,.48-.23,.84-.87,.84-1.34,0-1.1,4-4.88,6.26-5.81,1.43-.58,1.55-.76,.54-.81-.66,0-2.09,.64-3.16,1.4Z"/>
  <path d="M133,371.16c1.13,.81,2.27,1.51,2.51,1.51,.6,0,3.52,5,3.52,6.05,0,.52,.3,.93,.6,.93,.36,0,.6,.76,.6,1.69,0,2.21,.6,3.61,1.31,3.2,.3-.17,.3-.58,0-.99s-.72-1.98-.95-3.55c-.18-1.63-.6-3.02-.84-3.2-.24-.23-1.07-1.34-1.91-2.5-.84-1.22-1.73-2.21-2.03-2.21s-.84-.35-1.19-.81-1.31-.99-2.15-1.22c-1.31-.35-1.19-.23,.54,1.1Z"/>
  <path d="M27.21,372.15c.66,.35,2.09,1.92,3.22,3.61,1.67,2.5,2.03,3.61,2.27,7.21,.18,2.56,0,4.54-.36,5-.42,.47-.42,1.05-.12,1.57,.36,.58,.6,.41,.95-.93,.24-.93,.48-2.33,.48-3.14s.18-1.63,.48-1.8,.12-1.28-.42-2.44c-.48-1.16-.89-2.67-.89-3.31s-.42-1.34-.89-1.51c-.48-.23-.89-.64-.89-1.05-.06-1.1-2.09-3.08-3.64-3.49-1.31-.35-1.31-.29-.18,.29Z"/>
  <path d="M246.24,376.57c.18,.58,.54,1.28,.78,1.63,.24,.29,.48,.99,.48,1.45,.06,.47,.24,1.98,.48,3.31,.18,1.34,.12,3.2-.24,4.13-.3,.93-.36,2.04-.12,2.44,.72,1.16,1.31-4.24,.84-8.14-.24-1.92-.66-3.49-.89-3.49-.3,0-.54-.35-.54-.81s-.24-1.05-.6-1.22c-.36-.23-.42,.06-.18,.7Z"/>
  <path d="M86.58,386.51c0,1.05-.36,2.44-.66,3.08-.42,.7-.42,1.1-.06,1.1,.72,0,1.49-3.55,1.07-5.06-.18-.58-.3-.23-.36,.87Z"/>
  <path d="M162.41,387.21c0,.93,.24,1.74,.54,1.74s.54,.41,.54,.87c0,.87,1.79,3.66,3.58,5.58,1.01,1.05,3.22,1.98,2.68,1.1-.18-.35-.72-.58-1.13-.58-.36,0-1.37-1.05-2.15-2.33-.84-1.28-1.67-2.33-1.91-2.33s-.6-1.34-.84-2.91c-.42-3.2-1.19-3.9-1.31-1.16Z"/>
  <path d="M109.25,387.56c0,.93,.24,2.21,.54,2.85,.36,.76,.42,.29,.18-1.45-.42-3.08-.78-3.84-.72-1.4Z"/>
  <path d="M140.33,387.79c0,1.1,.12,1.57,.3,.99,.12-.52,.12-1.45,0-2.04-.18-.52-.3-.06-.3,1.05Z"/>
  <path d="M55.61,388.37c0,1.1,.12,1.57,.3,.99,.12-.52,.12-1.45,0-2.04-.18-.52-.3-.06-.3,1.05Z"/>
  <path d="M194.03,388.08c0,.93,.12,1.28,.3,.7,.12-.52,.12-1.34,0-1.74-.18-.35-.3,.06-.3,1.05Z"/>
  <path d="M139.02,390.58c0,.52-1.55,2.5-3.34,4.3-.6,.58-.84,1.22-.66,1.45,.24,.17,.42,.06,.42-.35s.3-.52,.6-.35c.36,.17,.6,.12,.6-.17,0-.47,.66-1.34,2.98-4.01,.78-.87,.78-1.34,0-1.34-.3,0-.6,.23-.6,.47Z"/>
  <path d="M192,391.92c-1.25,2.04-1.07,2.15,.6,.23,.72-.76,1.07-1.51,.84-1.69-.24-.12-.89,.52-1.43,1.45Z"/>
  <path d="M246.18,390.99c-.18,.52-.36,1.28-.3,1.63,0,.41,.3,.06,.6-.7s.48-1.51,.3-1.63c-.12-.12-.36,.17-.6,.7Z"/>
  <path d="M3.1,391.51c.42,.47,.89,.7,1.01,.64,.3-.35-.6-1.45-1.19-1.45-.3,0-.24,.35,.18,.81Z"/>
  <path d="M31.03,391.34c0,.29,.3,.41,.6,.23,.36-.17,.6-.47,.6-.64,0-.12-.24-.23-.6-.23-.3,0-.6,.29-.6,.64Z"/>
  <path d="M84.25,392.21c-.42,.47-.48,.81-.18,.81,.6,0,1.49-1.1,1.19-1.45-.12-.06-.6,.17-1.01,.64Z"/>
  <path d="M110.98,391.8c0,.35,.24,.76,.6,.93s.42-.06,.24-.52c-.42-1.05-.84-1.22-.84-.41Z"/>
  <path d="M30.07,392.91c-.84,.52-1.61,2.62-.84,2.15,.54-.35,2.03-2.62,1.67-2.62-.12,0-.48,.23-.84,.47Z"/>
  <path d="M4.18,393.66c0,.29,.3,.41,.6,.23,.36-.17,.6-.47,.6-.64,0-.12-.24-.23-.6-.23-.3,0-.6,.29-.6,.64Z"/>
  <path d="M57.88,393.6c0,.29,.54,.81,1.19,1.16s1.19,.52,1.19,.47c0-.12-.54-.64-1.19-1.22-.66-.52-1.19-.76-1.19-.41Z"/>
  <path d="M82.76,394.42c-.24,.58-.06,.76,.48,.52,.48-.17,.72-.52,.54-.81-.42-.7-.66-.64-1.01,.29Z"/>
  <path d="M112.17,394.42c0,.12,.42,.41,.95,.58,.48,.17,.72,.12,.54-.23-.36-.58-1.49-.81-1.49-.35Z"/>
  <path d="M242.84,395.35c-.66,.64-1.43,1.16-1.73,1.16s-.84,.35-1.25,.81c-.36,.47-1.25,.99-1.97,1.1l-1.31,.23,1.31,.12c.72,0,1.67-.35,2.21-.81,.48-.47,1.07-.87,1.37-.87,.54,0,3.46-2.91,2.92-2.91-.18,0-.89,.52-1.55,1.16Z"/>
</svg>