<?xml version="1.0" encoding="UTF-8"?>
<svg id="Layer_1" data-name="Layer 1" xmlns="http://www.w3.org/2000/svg" viewBox="0 0 250 350">
  <path d="M14.52,.51c0,.23-1.17,.63-2.62,.74-1.86,.23-3.09,.74-4.08,1.83-.76,.8-1.63,1.49-1.92,1.49-.23,0-1.34,1.2-2.45,2.69-1.4,2-1.98,3.43-2.04,5.32-.12,1.72-.06,1.94,.12,.57,.12-1.09,1.05-3.09,1.98-4.46,.93-1.32,1.69-2.69,1.69-3.03,0-.29,.35-.51,.76-.51,.47,0,1.28-.51,1.86-1.14s1.4-1.14,1.86-1.14c.41,0,.76-.23,.76-.51s1.98-.69,4.37-.92c4.89-.46,6.47-1.43,2.39-1.43-1.46,0-2.68,.23-2.68,.51Z"/>
  <path d="M68.13,.51c0,.23,2.1,.69,4.6,.86,2.91,.29,4.89,.74,5.36,1.26,.35,.46,.93,.8,1.28,.8,.52,0,3.2,2.63,5.24,5.21,.52,.74,.99,2.06,.99,2.92s.29,1.6,.58,1.6c.35,0,.58,1.6,.58,3.72s-.23,3.72-.58,3.72c-.29,0-.58,.57-.58,1.32,0,1.49-1.17,3.15-3.9,5.78-3.2,3.03-3.61,3.26-6.88,3.6-1.75,.17-3.2,.57-3.2,.8,0,.29-.47,.29-.99,0-.58-.34-2.27-.74-3.79-.92-1.57-.17-2.8-.57-2.8-.92,0-.29-.41-.51-.87-.51-.52,0-1.05-.4-1.22-.86-.23-.46-.76-.86-1.22-.86-.41,0-1.28-.74-1.81-1.72-.52-.92-1.17-1.72-1.4-1.72-.99,0-.29,1.09,2.27,3.6,2.04,2,2.8,2.52,4.31,2.97,.76,.23,1.57,.69,1.81,1.03,.52,.8,10.37,.8,10.84,0,.23-.34,.99-.74,1.75-.97,.7-.23,1.28-.69,1.28-.97s.35-.51,.82-.51c.41,0,1.75-1.09,2.91-2.46,1.17-1.32,2.39-2.8,2.8-3.26,.52-.57,.76-2.92,.76-7.15,0-5.32-.17-6.52-.99-7.38-.58-.57-1.05-1.2-1.05-1.43,0-.69-3.2-4-5.3-5.55-1.11-.8-2.74-1.37-3.9-1.37s-1.81-.23-1.57-.57-.87-.57-2.86-.57c-1.81,0-3.26,.23-3.26,.51Z"/>
  <path d="M122.91,.57c0,.29-.76,.57-1.69,.57-1.75,0-7.23,2.52-6.7,3.03,.17,.17-.23,.46-.87,.69-.7,.17-1.22,.69-1.22,1.09s-.52,1.32-1.17,2.06-1.17,1.77-1.17,2.35-.23,1.2-.58,1.37c-.29,.17-.58,.97-.58,1.72s.29,1.54,.58,1.72c.35,.23,.58-.4,.58-1.54,0-1.03,.58-2.92,1.22-4.18,1.34-2.46,4.72-6.01,5.65-6.01,.35,0,1.05-.46,1.57-.97,1.4-1.32,11.89-1.49,13.23-.17,.47,.46,1.81,1.37,2.97,2s2.16,1.43,2.16,1.77c0,.57,.58,1.37,2.91,4.06,.29,.4,.58,1.66,.58,2.86,0,2.4,.82,4.12,1.57,3.37,.23-.29,.12-.63-.23-.74-.47-.17-.76-1.26-.76-2.57,0-4.58-5.89-11.15-10.55-11.73-1.28-.17-2.27-.57-2.27-.8,0-.29-1.17-.51-2.62-.51s-2.62,.23-2.62,.57Z"/>
  <path d="M176.52,.51c0,.23,1.98,.63,4.43,.8,2.68,.23,4.72,.74,5.24,1.26,.52,.46,1.11,.86,1.4,.86,.87,0,4.55,3.83,4.95,5.15,.17,.63,.64,1.14,.93,1.14s.58,.69,.58,1.54c.12,1.37,.12,1.43,.35,.29,.29-1.32-1.52-4.63-3.61-6.75-1.69-1.72-5.19-3.66-6.58-3.66-.64,0-1.4-.29-1.57-.57-.47-.69-6.12-.8-6.12-.06Z"/>
  <path d="M231,.57c-.17,.29-1.22,.57-2.33,.57-1.05,0-2.33,.34-2.74,.74-.41,.34-1.75,1.32-2.91,2.12-1.22,.8-2.21,1.77-2.21,2.12,0,.4-.23,.74-.52,.74s-.82,.74-1.17,1.72c-.29,.92-.87,1.72-1.17,1.72-.35,0-.64,1.03-.64,2.29s-.23,2.29-.47,2.29c-.7,0-.82,3.32-.12,3.72,.29,.17,.58,1.14,.58,2.12,0,1.94,3.85,8.41,5.07,8.47,.35,0,1.05,.34,1.46,.74,1.92,1.94,5.3,2.92,9.96,2.86,2.51,0,4.78-.29,5.01-.57,.17-.34,.76-.74,1.22-.97,.47-.17,.23-.23-.58-.06-.82,.11-2.33,.29-3.38,.29-1.17,0-1.81,.23-1.57,.57,.17,.29-.06,.57-.52,.57s-.99-.23-1.17-.51c-.17-.23-1.69-.63-3.32-.74-1.63-.17-3.15-.51-3.38-.8-.17-.29-1.34-1.14-2.56-1.94s-2.33-2-2.51-2.75c-.23-.69-.58-1.26-.87-1.26-.23,0-.93-.92-1.46-2.06-1.11-2.29-1.4-10.41-.35-11.04,.29-.17,.7-.92,.93-1.66,.23-.69,.64-1.26,.93-1.26,.23,0,.64-.63,.82-1.43,.23-.8,.64-1.32,.93-1.14,.35,.17,.58,.11,.58-.23,0-.29,.99-1.14,2.21-1.83,1.17-.74,2.21-1.49,2.33-1.77,.12-.23,2.04-.57,4.25-.8s4.02-.63,4.02-.86c0-.69-3.9-.63-4.37,.06Z"/>
  <path d="M63.47,2.29c-.76,.63-1.57,1.14-1.86,1.14-.87,0-4.14,3.6-5.3,5.78-.52,1.09-1.11,3.09-1.22,4.52s-.12,2.06,.06,1.43c.35-1.66,2.1-6.23,2.51-6.58,.17-.17,.76-.97,1.28-1.77,.52-.86,1.98-2.12,3.2-2.86s2.33-1.49,2.51-1.72,.93-.51,1.75-.69l1.46-.23-1.52-.11c-.82,0-2.1,.46-2.86,1.09Z"/>
  <path d="M172.44,1.54c-1.05,.46-1.98,1.14-4.55,3.72-3.38,3.26-3.73,3.83-4.02,6.23-.17,1.2-.52,2.23-.76,2.23s-.47,1.54-.52,3.43c-.06,2.06,.17,3.43,.52,3.43,.29,0,.58,.63,.58,1.32,0,.74,.52,1.94,1.17,2.69s1.17,1.54,1.17,1.83c0,1.03,2.91,3.32,6.99,5.49,2.16,1.2,9.91,1.09,12.65-.17,1.17-.57,2.51-1.32,2.91-1.66,2.16-1.77,4.25-3.95,4.25-4.4,0-.34,.41-.97,.87-1.43,.47-.51,.82-1.43,.82-2.12l-.12-1.26-.23,1.26c-.12,.69-.64,1.54-1.11,1.89-.47,.4-.82,.97-.82,1.26,0,1.72-5.89,5.55-9.15,6.01-1.52,.17-2.97,.63-3.2,.92-.23,.4-.64,.4-1.17,0-.41-.34-1.92-.74-3.32-.92s-2.74-.57-2.91-.86-.93-.69-1.63-.92c-.76-.23-1.34-.69-1.34-.97s-.41-.51-.87-.51-.87-.23-.87-.46c0-.29-.52-1.09-1.17-1.83s-1.17-1.66-1.17-2.06-.35-.8-.7-.97c-.93-.29-1.05-11.67-.17-12.3,.58-.4,1.57-1.77,2.68-3.83,.64-1.14,4.25-3.72,5.24-3.72,.29,0,.52-.23,.52-.51s.7-.69,1.63-.8q1.46-.23,.12-.29c-.82,0-1.86,.11-2.33,.29Z"/>
  <path d="M240.62,2.52c0,.51,.41,.92,.87,.92s.87,.23,.87,.46c0,.29,.64,.8,1.46,1.14,.82,.4,1.75,1.32,2.04,2.12s.82,1.43,1.11,1.43c.35,0,.76,.97,.93,2.12,.23,1.2,.58,2.69,.87,3.32s.64,1.89,.76,2.86c.17,.92,.12-.11,0-2.29-.17-2.23-.52-4.12-.82-4.18-.29-.11-.52-.51-.52-.92s-.47-1.32-.99-2c-.58-.63-1.57-1.83-2.21-2.63s-1.46-1.43-1.86-1.43c-.35,0-1.11-.4-1.57-.92-.87-.8-.93-.8-.93,0Z"/>
  <path d="M28.04,5.72c.41,.63,.93,1.14,1.17,1.14,.29,0,.47,.4,.47,.86,0,.4,.41,1.03,.93,1.32,.58,.34,1.05,1.6,1.28,3.32,.12,1.54,.58,2.97,.93,3.2,.41,.29,.41,.92-.06,2.29-.35,1.03-.82,2.86-1.05,4-.17,1.2-.58,2.17-.87,2.17-.35,0-.58,.29-.58,.69,0,.57-2.51,3.03-5.77,5.72-.41,.34-2.04,.74-3.61,.92-1.57,.11-2.86,.46-2.86,.74s-.41,.51-.87,.51-.87-.23-.87-.51c0-.23-1.34-.63-2.91-.8-1.63-.17-3.32-.74-3.85-1.26-.47-.46-1.17-.86-1.46-.86-.76,0-2.21-1.49-4.31-4.18-.87-1.2-1.75-2-1.92-1.89-.12,.17,.12,.69,.52,1.09,.47,.46,1.34,1.54,1.98,2.46,1.69,2.29,2.62,3.09,3.55,3.09,.47,0,.82,.23,.82,.51s.58,.74,1.34,.97c.7,.23,1.46,.63,1.63,.97,.23,.29,2.45,.57,4.95,.63,4.49,.06,7.93-.92,9.91-2.75,.41-.34,1.4-1.14,2.21-1.72s1.52-1.43,1.52-1.83c0-.46,.23-.8,.52-.8s.76-.57,.99-1.32c.23-.69,.64-1.43,.93-1.6,.23-.17,.64-1.94,.82-4,.41-3.95-1.05-9.27-2.91-11.15-.52-.46-.93-1.2-.93-1.66,0-.4-.41-.92-.93-1.09-1.4-.51-1.46-.46-.7,.8Z"/>
  <path d="M194.99,12.98c-.64,.57-.47,3.03,.17,3.03,.35,0,.58-.8,.58-1.72,0-1.77-.12-2-.76-1.32Z"/>
  <path d="M108.46,16.87c0,.92,.12,1.26,.29,.69,.12-.51,.12-1.32,0-1.72-.17-.34-.29,.06-.29,1.03Z"/>
  <path d="M54.9,18.53c.06,.97,.52,1.77,.99,1.89,.58,.17,.64,.11,.23-.23-.41-.23-.82-1.09-.99-1.89-.23-1.26-.29-1.2-.23,.23Z"/>
  <path d="M140.74,18.42c-.17,.74-.35,1.89-.35,2.57,0,.74-.23,1.32-.58,1.32-.29,0-.58,.23-.58,.57,0,1.09-3.09,4.92-4.84,6.01-1.05,.57-2.04,1.32-2.21,1.6-.23,.29-1.57,.69-3.09,.8-1.46,.17-2.68,.57-2.68,.8,0,.29-.52,.51-1.17,.51s-1.17-.23-1.17-.51c0-.23-1.34-.63-3.03-.8-1.81-.23-3.2-.74-3.5-1.26-.29-.46-.82-.86-1.11-.86-.82,0-4.02-3.15-4.02-3.95,0-.29-.41-.8-.93-1.09-.47-.29-1.05-1.54-1.22-2.86-.35-2.75-1.34-3.26-1.34-.69,0,.92,.23,1.72,.52,1.72s.64,.57,.87,1.32c.52,2.12,6.58,7.84,8.27,7.84,.41,0,.82,.29,.93,.69,.17,.46,1.86,.69,4.95,.69,4.66,0,8.04-.97,9.96-2.92,.41-.4,1.11-.74,1.52-.74s1.05-.57,1.4-1.32c.93-1.72,2.04-3.32,2.91-4.29,.35-.4,.7-1.66,.7-2.75s.29-1.94,.58-1.94c.35,0,.58-.4,.58-.86,0-1.32-.99-1.03-1.4,.4Z"/>
  <path d="M194.58,18.88c0,.92,.29,1.72,.58,1.72,.35,0,.58-.8,.58-1.72,0-.97-.23-1.72-.58-1.72-.29,0-.58,.74-.58,1.72Z"/>
  <path d="M1.24,20.59c0,1.09,.12,1.54,.29,.97,.12-.51,.12-1.43,0-2-.17-.51-.29-.06-.29,1.03Z"/>
  <path d="M248.37,20.93c-.17,.46-.06,1.14,.35,1.54,.47,.46,.64,.23,.64-.92,0-1.72-.41-2-.99-.63Z"/>
  <path d="M55.31,21.79c0,.34,.47,1.03,.99,1.54q.93,.92,.58-.06c-.23-.57-.41-1.32-.41-1.6s-.23-.51-.58-.51c-.29,0-.58,.29-.58,.63Z"/>
  <path d="M247.2,23.74c-.41,.46-.76,.97-.76,1.2,0,.69-3.38,4.18-3.73,3.83-.17-.23-.35-.06-.35,.29,0,1.09,1.05,.8,1.75-.46,.35-.63,.87-1.03,1.22-.86,.29,.23,.52-.06,.52-.51s.35-1.09,.82-1.32c.41-.23,.99-1.03,1.17-1.77,.47-1.43,.35-1.54-.64-.4Z"/>
  <path d="M240.91,30.32c.17,.29,.64,.57,.93,.57,.35,0,.41-.29,.23-.57-.17-.34-.64-.57-.93-.57-.35,0-.41,.23-.23,.57Z"/>
  <path d="M43.48,43.01c-.47,.29-.41,.57,.06,1.2,.52,.57,.7,8.58,.7,29.92,0,251.79-.12,235.43,1.11,234.74,1.75-.86,50.87-.8,51.8,.11,.52,.51,.7-29,.7-132.82V42.61h-26.86c-14.74,0-27.15,.17-27.5,.4Zm52.45,1.83c.12,.11,.29,47.82,.35,106.1,.12,105.53,.12,105.88-1.05,105.93-.99,.06-.99,.11-.12,.34,1.17,.29,1.11,0,1.05,31.06l-.12,18.59-25,.17-25.06,.11-.06-5.55c-.06-3.09-.12-14.3-.17-24.88l-.06-19.33,2.04-.11,2.04-.06-2.1-.23-2.04-.23-.12-105.88c-.06-58.23,0-106.05,.12-106.22,.23-.34,49.94-.17,50.29,.17Z"/>
  <path d="M69.76,255.51c.35,.11,1.05,.11,1.46,0,.35-.17,.06-.29-.76-.29s-1.11,.11-.7,.29Z"/>
  <path d="M66.56,257.22c1.17,.11,3.15,.11,4.37,0,1.17-.11,.17-.23-2.21-.23s-3.38,.11-2.16,.23Z"/>
  <path d="M89.28,257.22c.52,.11,1.34,.11,1.75,0,.35-.17-.06-.29-1.05-.29-.93,0-1.28,.11-.7,.29Z"/>
  <path d="M92.49,257.22c.41,.17,.93,.11,1.11-.06,.23-.17-.12-.34-.76-.29-.64,0-.82,.17-.35,.34Z"/>
  <path d="M152.34,42.84c-.35,.34-.47,10.07-.29,27.34,.17,14.7,.17,38.44,0,52.68-.17,14.19-.17,26.14-.12,26.43,.12,.34,9.91,.57,27.56,.57h27.39l-.23-28.49c-.29-31-.29-30.43-.99-30.43-.23,0-.64-2.06-.87-4.58s-.64-4.58-.87-4.58-.58-1.49-.7-3.26c-.17-1.77-.58-3.37-.93-3.49-.41-.11-.7-.51-.7-.92s-.52-1.2-1.17-1.77-1.17-1.26-1.17-1.54-.35-.92-.7-1.32c-1.69-1.83-2.1-2.46-2.45-3.6-.23-.69-.7-1.26-.99-1.26s-.52-.4-.52-.86c0-.51-.41-1.03-.87-1.2-.47-.23-.87-.69-.87-1.14,0-1.03-4.2-5.15-5.77-5.66-.7-.17-1.98-1.03-2.8-1.77-.87-.74-2.16-1.54-2.86-1.72s-1.46-.69-1.63-1.14-.7-.8-1.22-.8c-.47,0-.87-.23-.87-.57,0-.29-.64-.69-1.46-.92-.82-.17-1.46-.63-1.46-1.03,0-.63-6.58-2.29-11.83-2.97-1.52-.17-2.91-.57-3.09-.86s-1.69-.51-3.44-.51-3.2-.29-3.32-.57c-.12-.4-.41-.4-.76-.06Zm9.96,3.49c8.57,1.49,11.01,2.17,12.24,3.55,.58,.57,1.34,1.03,1.75,1.03s1.11,.34,1.52,.74,2.21,1.6,3.96,2.69c3.38,2.06,8.33,5.72,8.62,6.41,.12,.23,1.57,2.35,3.2,4.75,4.84,6.98,7.46,11.27,7.75,12.53,.17,.69,.64,3.26,1.11,5.78s.93,5.21,1.11,6.01c.17,.74,.47,2.35,.64,3.55l.35,2.17h-50.7v-24.71c0-13.61,.17-24.94,.29-25.17,.41-.63,.29-.63,8.16,.69Zm42.54,66.47c-.12,9.21-.23,20.82-.29,25.74l-.06,9.04h-25c-21.15,0-25.06-.11-25.29-.8-.17-.46-.35-11.78-.35-25.17,.06-13.38-.12-24.6-.35-24.94-.23-.4,7.75-.57,25.58-.57h25.99l-.23,16.7Z"/>
  <path d="M122.91,53.82c-1.46,.29-.76,.4,2.51,.46,2.56,0,4.49,.29,4.49,.63,0,.29,.52,.57,1.11,.57,.64,0,1.52,.4,2.04,.86,.47,.46,1.05,.86,1.22,.86,.7,0,3.2,2.57,3.2,3.26,0,.4,.23,.74,.52,.74s.76,.57,.99,1.26c.23,.74,.64,1.49,.99,1.72,.29,.17,.58,2.52,.58,5.21,.06,3.78-.17,5.38-1.05,6.92-.64,1.14-1.34,2.06-1.57,2.06-.29,0-.47,.34-.47,.74,0,.8-1.57,2.29-3.09,2.86-.52,.17-.99,.63-.99,.92,0,.57-2.74,1.49-3.9,1.26-.41-.06-.76,.17-.76,.51,0,.69-6.76,.8-7.23,.06-.17-.29-1.28-.69-2.39-.86-1.11-.23-2.04-.63-2.04-.92s-.64-.69-1.34-.86c-.76-.23-2.04-1.37-2.8-2.57-.76-1.26-1.57-2.29-1.81-2.29s-.58-1.32-.82-2.86c-.41-3.09-1.4-3.89-1.4-1.14,0,.92,.29,1.72,.58,1.72,.35,0,.58,.51,.58,1.09,0,.63,.41,1.49,.87,2,.47,.46,.87,1.03,.87,1.32,0,.69,2.68,3.03,3.44,3.03,.35,0,.64,.17,.64,.46,0,.23,.99,.92,2.16,1.54,1.69,.92,3.26,1.14,7.69,1.14,3.85,0,5.59-.23,5.77-.74,.12-.34,.52-.69,.93-.69s1.34-.46,2.04-1.03c.64-.51,1.86-1.49,2.68-2.12s1.46-1.43,1.46-1.77,.52-1.2,1.17-1.94c.76-.8,1.17-2.12,1.17-3.55,0-1.2,.29-2.17,.58-2.17,.35,0,.58-.8,.58-1.72,0-.97-.23-1.72-.58-1.72-.29,0-.58-.97-.58-2.23s-.47-2.75-1.17-3.66c-.64-.8-1.17-1.6-1.17-1.83,0-.69-2.68-3.03-5.19-4.58-2.8-1.66-7.28-2.52-10.55-1.94Z"/>
  <path d="M231,53.82c-1.75,.29-1.05,.4,2.51,.46,3.15,.06,4.72,.29,4.49,.63s-.17,.57,.12,.51c1.4-.23,2.62,.17,3.5,1.2,.58,.63,1.22,1.14,1.46,1.14,.64,0,2.8,2.17,2.8,2.8,0,.29,.35,.8,.82,1.14,.7,.57,1.46,2.86,1.81,5.49,.06,.29,.29,1.03,.58,1.6,.23,.51,.29,1.49,.12,2.12s0,1.14,.29,1.14c.76,0,.06-6.98-.76-7.49-.35-.17-.52-.57-.41-.86,.29-.97-3.03-5.78-4.49-6.41-.82-.34-1.46-.92-1.46-1.26,0-.29-.35-.57-.82-.57s-.93-.23-1.05-.57c-.23-.74-6.7-1.49-9.5-1.09Z"/>
  <path d="M10.15,54.97c-1.28,.69-2.39,1.43-2.51,1.72s-.58,.51-1.05,.51-1.11,.63-1.52,1.43c-.35,.74-.87,1.26-1.11,1.09-.29-.17-.52,.11-.52,.57s-.35,1.2-.82,1.6c-1.05,1.09-2.1,5.89-1.46,6.86,.35,.46,.52,0,.52-1.37,0-2.69,1.63-5.83,4.49-8.64,2.16-2.12,2.91-2.63,4.49-3.03,.82-.17,1.52-.57,1.52-.86,0-.23,2.16-.57,4.84-.69l4.78-.17-4.66-.11c-3.79-.11-5.13,.11-6.99,1.09Z"/>
  <path d="M22.1,54.91c0,.29,.35,.57,.82,.57s1.22,.34,1.63,.8c.47,.4,1.4,.92,2.04,1.14,.7,.23,1.46,.92,1.63,1.54,.23,.57,.58,1.09,.87,1.09s.7,.57,.93,1.26c.17,.69,.76,1.6,1.17,2.06,.47,.4,.82,1.66,.82,2.69,0,1.09,.29,2.12,.58,2.29,.35,.17,.58,.97,.58,1.72s-.23,1.54-.58,1.72c-.29,.17-.58,1.09-.58,2,0,1.94-2.97,6.52-5.13,7.89-.87,.51-1.92,1.26-2.33,1.66s-1.4,.74-2.21,.74c-.76,0-1.4,.23-1.4,.57,0,.92,3.32,.69,3.73-.29,.17-.46,.7-.86,1.22-.86,.47,0,.87-.23,.87-.51s.47-.69,1.05-.86,2.04-1.83,3.32-3.66c2.16-3.09,2.27-3.49,2.27-7.84,.06-3.37-.23-5.21-1.05-7.04-.64-1.32-1.34-2.4-1.63-2.4-.23,0-.47-.34-.47-.74,0-.97-3.32-4-5.71-5.21-2.1-1.09-2.45-1.14-2.45-.34Z"/>
  <path d="M116.79,55.94c-3.26,2.12-4.95,3.66-4.95,4.52,0,.4-.23,.74-.58,.74-.29,0-.76,.69-.93,1.54-.23,.92-.58,1.83-.82,2.17-.23,.29-.58,1.72-.7,3.15-.17,1.43-.17,2.12-.06,1.54,.17-.51,.52-.97,.82-.97s.52-.86,.52-1.89c0-1.83,1.69-5.61,3.26-7.09,.47-.46,.82-1.09,.82-1.37s.35-.51,.76-.51c.47,0,1.4-.51,2.16-1.14s1.81-1.14,2.45-1.14c.58,0,1.05-.29,1.05-.57,0-.97-1.34-.57-3.79,1.03Z"/>
  <path d="M225.47,55.37c-.82,.51-1.81,1.32-2.21,1.66-.41,.4-.99,.74-1.17,.74-.23,0-1.05,1.03-1.86,2.29s-1.63,2.29-1.86,2.29-.58,.97-.76,2.12c-.23,1.2-.64,2.75-.99,3.43-.82,1.6,.35,7.15,1.92,9.44,.64,.86,1.11,1.72,1.11,1.94,0,.51,4.2,4.23,4.78,4.23,.23,0,.82,.46,1.4,.97,1.4,1.37,12.88,1.49,14.39,.17,1.75-1.54,2.45-2.06,3.5-2.46,.52-.17,.99-.69,.93-1.09,0-.57-.12-.57-.35-.06-.12,.4-.52,.74-.87,.74-.29,0-1.22,.51-2.04,1.14s-2.27,1.14-3.15,1.14c-.93,0-1.69,.23-1.69,.57,0,.29-1.46,.57-3.2,.57s-3.2-.29-3.2-.57c0-.34-.76-.57-1.69-.57-.87,0-2.33-.51-3.15-1.14s-1.63-1.14-1.81-1.14c-.7,0-2.68-2-2.68-2.69,0-.4-.23-.74-.47-.74-1.11,0-2.68-4.98-2.74-8.29,0-3.37,1.34-7.61,2.8-9.15,.41-.4,1.11-1.26,1.57-1.94,.47-.63,1.17-1.2,1.63-1.2,.41,0,.87-.34,1.05-.8s1.11-1.03,2.04-1.2c.93-.23,1.69-.63,1.69-.92,0-.8-1.28-.57-2.91,.51Z"/>
  <path d="M1.24,73.21c0,1.09,.12,1.54,.29,.97,.12-.51,.12-1.43,0-2-.17-.51-.29-.06-.29,1.03Z"/>
  <path d="M248.6,74.36c.17,.63,.41,1.14,.52,1.14s.23-.51,.23-1.14-.23-1.14-.52-1.14-.41,.51-.23,1.14Z"/>
  <path d="M1.7,76.02c0,.34,.23,.63,.52,.63s.64,.51,.82,1.14,.64,1.14,1.11,1.09c.58,0,.58-.11,.06-.34-.41-.11-.76-.57-.76-1.03,0-.4-.41-1.03-.87-1.43-.58-.51-.87-.51-.87-.06Z"/>
  <path d="M6.36,81.51c0,.46,.23,.86,.58,.86,.29,0,.41-.4,.23-.86-.23-.46-.47-.86-.58-.86s-.23,.4-.23,.86Z"/>
  <path d="M7.82,82.88c-.17,.29,.29,.74,.99,.97,.76,.23,1.52,.63,1.69,.92s2.45,.63,4.95,.69c2.56,.11,3.09,.06,1.28-.06-1.86-.11-3.38-.46-3.38-.74,0-.34-.64-.57-1.4-.57-.82,0-1.81-.4-2.33-.86-.99-.97-1.34-1.03-1.81-.34Z"/>
  <path d="M16.15,106.79c.7,.11,1.75,.11,2.33,0,.52-.17-.06-.29-1.34-.23-1.28,0-1.75,.11-.99,.23Z"/>
  <path d="M124.54,106.79c.7,.11,1.75,.11,2.33,0,.52-.17-.06-.29-1.34-.23-1.28,0-1.75,.11-.99,.23Z"/>
  <path d="M229.14,106.79c-2.16,.4-1.52,1.32,.87,1.26,1.17-.06,1.63-.23,1.05-.34-.87-.23-.93-.4-.29-.8,.82-.51,.58-.51-1.63-.11Z"/>
  <path d="M232.63,106.79c.52,.11,1.46,.11,2.04,0,.52-.17,.06-.29-1.05-.29s-1.57,.11-.99,.29Z"/>
  <path d="M11.32,107.53c-.23,.34,.47,.57,1.75,.57s1.98-.23,1.75-.57c-.17-.34-.99-.57-1.75-.57s-1.57,.23-1.75,.57Z"/>
  <path d="M19.77,107.53c-.7,.4-.47,.57,.87,.57,2.45,0,4.43,.63,4.02,1.2-.17,.29,.12,.51,.58,.51,1.05,0,5.01,3.89,5.01,4.92,0,.4,.29,.8,.64,.92,.64,.23,.93,1.54,2.04,8.01,.29,1.43,.17,2.17-.29,2.17-.35,0-.64,.74-.64,1.72,0,.92-.23,1.72-.58,1.72-.29,0-.58,.34-.58,.74s-.52,1.32-1.17,2-1.17,1.49-1.17,1.83c0,.29-.23,.57-.52,.57-.35,0-1.75,.74-3.15,1.72-1.69,1.09-3.38,1.72-4.66,1.72-1.11,0-2.33,.4-2.74,.86-.52,.57-.52,.86-.06,.86,.35,0,.64-.23,.64-.51s1.34-.63,3.03-.74c1.69-.17,3.15-.63,3.26-.97s.58-.63,1.05-.63,.99-.34,1.17-.8,.93-.97,1.75-1.14c.76-.23,1.4-.57,1.4-.86,0-.23,.52-1.03,1.17-1.77s1.17-1.66,1.17-2.06,.35-.8,.7-.92c.52-.17,.76-2,.76-6.18s-.23-6.01-.76-6.18c-.35-.11-.7-.46-.7-.74,0-.74-2.39-4-3.79-5.21-2.1-1.77-2.33-1.94-4.31-2.92-2.27-1.09-2.91-1.2-4.14-.4Z"/>
  <path d="M119.7,107.53c-.17,.23-.99,.63-1.86,.86-2.56,.63-7.75,6.41-7.75,8.64,0,.74-.29,1.49-.64,1.66-.29,.23-.52,.97-.47,1.6,.06,.69-.12,1.72-.35,2.29s-.29,1.2-.06,1.37c.17,.23,.35-.06,.35-.57,0-.57,.23-.97,.52-.97,.23,0,.64-1.54,.87-3.37,.23-2.17,.7-3.49,1.22-3.72,.47-.17,.87-.57,.87-.97,0-.74,3.85-4.52,4.6-4.52,.29,0,.64-.29,.76-.63,.12-.29,1.28-.74,2.68-.92,1.34-.17,2.45-.51,2.45-.74,0-.57-2.86-.57-3.2,0Z"/>
  <path d="M127.86,107.53c-.17,.23,.76,.57,2.04,.74s2.74,.69,3.2,1.2c.52,.51,1.28,.92,1.69,.92,.35,0,1.17,.74,1.69,1.72,.58,.92,1.28,1.72,1.57,1.72s.64,.74,.87,1.72c.23,.92,.58,1.72,.87,1.72,.23,0,.64,1.66,.87,3.72,.17,2.06,.64,3.6,.93,3.43,.58-.4,.41-2.29-.23-2.92-.23-.23-.41-1.14-.41-2,0-2.12-.87-4.23-2.27-5.61-.58-.57-1.28-1.6-1.52-2.29-.17-.69-.99-1.37-1.75-1.54s-1.52-.69-1.69-1.14-.7-.8-1.22-.8c-.47,0-.87-.23-.87-.51,0-.63-3.44-.69-3.79-.06Z"/>
  <path d="M235.78,107.65c-.41,.29,.06,.46,1.22,.46,.99,0,1.86-.23,1.86-.51,0-.63-2.04-.57-3.09,.06Z"/>
  <path d="M6.42,110.85c-1.63,1.49-2.97,3.03-2.97,3.37,0,.4-.41,.92-.87,1.14-.52,.29-.93,1.72-1.11,3.89-.23,2.63-.17,2.92,.17,1.14,.87-4.52,4.02-9.09,7.23-10.47,.87-.34,1.57-.92,1.57-1.26,0-1.09-.99-.57-4.02,2.17Z"/>
  <path d="M224.77,108.79c-.47,.4-1.28,1.03-1.92,1.37-.58,.34-1.34,1.09-1.69,1.66-.35,.63-.93,1.37-1.28,1.72-1.46,1.26-2.56,3.49-2.56,4.98,0,.86-.23,1.72-.58,1.89-.29,.17-.58,1.37-.58,2.57s.29,2.4,.58,2.57c.35,.17,.58,1.03,.58,1.83,0,1.6,2.1,5.32,2.97,5.32,.29,0,.52,.4,.52,.86s.23,.86,.47,.86c.29,0,1.11,.51,1.86,1.14s1.69,1.14,2.1,1.14,.82,.29,.93,.63,1.46,.74,2.97,.92,2.74,.57,2.74,.8c0,.29,.41,.51,.87,.51s.87-.29,.87-.63c0-.29-.23-.4-.58-.23-.29,.17-.58,.06-.58-.23,0-.34-.99-.63-2.21-.63-2.91,0-7.46-3.03-10.37-6.92-2.16-2.86-2.27-3.26-2.27-7.32,0-5.49,.99-7.78,5.13-12.07,.93-.97,1.92-1.72,2.21-1.72,.35,0,.99-.4,1.46-.86,.82-.74,.82-.86,0-.86-.47,0-1.22,.34-1.63,.69Z"/>
  <path d="M240.15,108.91c.52,.51,1.17,.92,1.34,.92,.58,0,3.5,2.35,3.32,2.63-.06,.17,.17,.63,.58,1.09,1.81,2,2.1,2.52,2.51,4.86,.23,1.37,.82,3.26,1.28,4.23l.82,1.77-.29-1.94c-.23-1.03-.35-2.52-.35-3.32s-.23-1.2-.58-1.03-.58-.23-.58-1.03c0-.74-.52-1.94-1.17-2.69s-1.17-1.54-1.17-1.83c0-.63-2.21-2.75-2.86-2.75-.29,0-.64-.23-.76-.51-.06-.23-.82-.69-1.63-.92-1.28-.4-1.34-.34-.47,.51Z"/>
  <path d="M1.24,125.84c0,1.09,.12,1.54,.29,.97,.12-.51,.12-1.43,0-2-.17-.51-.29-.06-.29,1.03Z"/>
  <path d="M108.92,126.41c0,.92,.29,1.72,.58,1.72,.35,0,.58-.8,.58-1.72,0-.97-.23-1.72-.58-1.72-.29,0-.58,.74-.58,1.72Z"/>
  <path d="M248.48,125.27c-.17,.29-.06,.57,.23,.57,.35,0,.64-.29,.64-.57,0-.34-.12-.57-.23-.57-.17,0-.47,.23-.64,.57Z"/>
  <path d="M140.51,126.81c-.06,1.03-.35,1.89-.7,1.89-.29,0-.7,.63-.93,1.43-.17,.8-.58,1.43-.82,1.43-.29,0-.64,.51-.87,1.14-.41,1.26-6.12,4.69-8.74,5.21-1.34,.29-1.22,.34,.7,.23,1.34-.06,2.86-.57,3.38-1.09s1.34-.92,1.81-.92,.82-.23,.82-.51,.52-.74,1.17-.92,1.17-.74,1.17-1.2,.23-.8,.52-.8,.76-.57,.99-1.26c.23-.74,.76-1.6,1.22-1.89,.58-.4,.76-1.32,.58-2.57l-.23-2-.06,1.83Z"/>
  <path d="M248.48,126.92c-.17,.29-.06,.69,.29,.92,.29,.17,.58-.06,.58-.51,0-1.03-.35-1.2-.87-.4Z"/>
  <path d="M1.7,128.7c0,.29,.29,.57,.64,.57,.29,0,.41-.29,.23-.57-.17-.34-.47-.57-.64-.57-.12,0-.23,.23-.23,.57Z"/>
  <path d="M110.09,129.16c0,.34,.35,.97,.82,1.37,.41,.46,.99,1.37,1.22,2.12,.23,.69,1.05,1.54,1.81,1.89s1.4,.86,1.4,1.14c0,.23,.41,.46,.87,.46,.41,0,1.05,.4,1.34,.92,.35,.63,1.57,1.03,3.55,1.26,1.63,.11,2.97,.46,2.97,.74s.58,.46,1.34,.46c.93-.06,1.05-.11,.29-.34-.58-.11-1.05-.51-1.05-.8s-.87-.51-1.98-.51c-1.05,0-2.56-.34-3.32-.74-3.61-1.89-6.93-4.52-6.93-5.43,0-.29-.52-1.09-1.17-1.83s-1.17-1.03-1.17-.69Z"/>
  <path d="M2.87,130.24c0,.86,1.05,2,1.34,1.54,.17-.29-.06-.86-.52-1.26s-.82-.51-.82-.29Z"/>
  <path d="M244.52,133.27c-.93,.97-1.34,1.72-1.05,1.72,.82,0,2.97-2.12,2.97-2.86,0-.8-.06-.74-1.92,1.14Z"/>
  <path d="M5.61,134.47c.41,.4,.87,.57,1.05,.4s-.12-.51-.7-.69c-.82-.34-.87-.29-.35,.29Z"/>
  <path d="M7.59,135.56c-.52,.29-.29,.51,.58,.74,1.63,.4,1.81,.34,.82-.57-.35-.34-1.05-.46-1.4-.17Z"/>
  <path d="M241.2,136.13c-.47,.29-.58,.57-.29,.57,.35,0,.99-.29,1.46-.57s.64-.57,.29-.57c-.29,0-.99,.29-1.46,.57Z"/>
  <path d="M10.15,137.28c-.17,.29,.06,.57,.58,.57s.76-.29,.58-.57c-.17-.34-.47-.57-.58-.57s-.41,.23-.58,.57Z"/>
  <path d="M239.34,137.68c.41,.17,.93,.11,1.11-.06,.23-.17-.12-.34-.76-.29-.64,0-.82,.17-.35,.34Z"/>
  <path d="M13.24,138.25c.7,.11,1.75,.11,2.33,0,.52-.17-.06-.29-1.34-.23-1.28,0-1.75,.11-.99,.23Z"/>
  <path d="M235.26,138.25c.7,.11,1.75,.11,2.33,0,.52-.17-.06-.29-1.34-.23-1.28,0-1.75,.11-.99,.23Z"/>
  <path d="M124.36,159.58c-.17,.29-1.05,.63-1.92,.69-.87,0,.76,.23,3.55,.4,2.8,.23,5.3,.63,5.54,.92,.47,.63,1.98,1.66,4.08,2.69,.7,.34,1.28,.97,1.28,1.37s.35,1.09,.76,1.49c1.4,1.49,2.68,3.72,2.91,5.38,.12,.92,.17,.4,.06-1.14-.12-1.77-.52-3.03-1.11-3.32-.47-.29-.87-.74-.87-1.09,0-.86-3.61-4.52-4.49-4.52-.41,0-.76-.29-.76-.63,0-.29-.23-.46-.52-.29-.29,.23-.64,.06-.76-.29s-1.81-.74-3.79-.92c-2.04-.17-3.5-.57-3.32-.8,.17-.29,.17-.51,0-.51s-.47,.23-.64,.57Z"/>
  <path d="M177.98,159.53c-.35,.29-1.22,.63-2.04,.8-.82,.11,.23,.29,2.33,.34,4.78,.11,8.22,.63,7.87,1.26-.17,.23,.29,.63,.99,.86,1.46,.4,4.95,3.95,5.48,5.49,.17,.57,.52,1.03,.82,1.03s.7,2.06,.93,4.58c.41,5.09,1.4,6.23,1.4,1.66,0-1.77-.23-2.75-.58-2.52s-.58-.4-.58-1.49c0-1.66-1.69-5.09-3.2-6.52-3.67-3.55-6.88-4.98-10.96-4.86-1.46,.06-2.1-.17-1.86-.57,.47-.69,.12-.74-.58-.06Z"/>
  <path d="M232.4,159.53c.64,.4,.23,.63-1.46,.8-1.57,.11-1.17,.23,1.52,.29,4.89,.17,8.22,.69,7.81,1.32-.12,.29,.41,.63,1.22,.86,.76,.17,1.28,.57,1.11,.86s.06,.51,.47,.51c1.52,.06,4.49,4.92,4.89,7.95,.47,3.32,1.4,3.95,1.4,.86,0-1.2-.23-1.89-.58-1.66-.35,.17-.58-.29-.58-1.09,0-.74-.41-1.77-.87-2.29-.47-.46-.87-1.14-.87-1.49,0-.86-3.38-4-4.31-4-.47,0-.93-.34-1.11-.8-.29-.74-5.01-1.83-6.64-1.54-.41,.06-.76-.17-.76-.51,0-.29-.47-.57-.99-.57-.87,0-.87,.11-.23,.51Z"/>
  <path d="M13.36,160.16c-.64,.4-.23,.57,1.46,.51,1.81,0,2.1-.11,1.17-.51-1.52-.63-1.63-.63-2.62,0Z"/>
  <path d="M18.25,160.16c-.7,.23,.06,.51,2.04,.74,3.9,.46,6.18,2,10.49,7.04,.29,.4,.41,.86,.23,1.03-.23,.17-.06,.34,.29,.34,.41,0,.7,.86,.7,2s.23,2,.47,2c.7,0,.82,4.58,.17,5.38-.23,.34-.64,1.49-.82,2.52-.23,1.03-.64,2.17-.99,2.57-.35,.34-1.05,1.2-1.63,1.89-1.81,2.12-5.42,4.4-7.58,4.86l-2.16,.46,2.45-.17c1.34-.11,2.91-.63,3.38-1.14,.52-.51,1.28-.92,1.63-.92,.99,0,4.08-3.6,5.59-6.64,1.22-2.35,1.34-3.2,1.05-7.15-.23-3.72-.58-4.8-2.1-7.04-.99-1.37-1.81-2.75-1.81-3.03-.06-.8-5.36-3.78-7.93-4.46-1.34-.34-2.91-.46-3.5-.29Z"/>
  <path d="M227.22,160.56c-.47,.23-1.22,.69-1.63,1.14-.41,.4-1.11,.74-1.46,.74-.76,.06-3.32,2-3.32,2.57,0,.17-.64,1.03-1.46,1.89s-1.63,2.17-1.81,2.97-.52,1.89-.87,2.4c-.82,1.49-.64,4.98,.41,7.89,.99,2.8,5.13,8.58,6.18,8.58,.35,0,.93,.4,1.34,.92,.41,.57,1.69,.97,3.26,1.09,1.4,.06,1.69,0,.7-.11-1.05-.11-1.92-.46-1.92-.74s-.47-.4-.99-.17c-.58,.17-.87,.17-.64-.06,.47-.51-.82-2.06-1.4-1.72-.23,.17-1.34-.97-2.45-2.46-1.17-1.54-2.39-3.15-2.8-3.6-.99-1.09-1.05-11.33-.12-11.9,.35-.23,.82-.97,1.05-1.72,.23-.69,.64-1.14,.93-.97,.23,.17,.64-.29,.82-1.03,.35-1.2,5.48-4.98,6.76-4.98,.29,0,.58-.29,.58-.57,0-.34-.06-.57-.12-.51-.12,0-.58,.17-1.05,.34Z"/>
  <path d="M8.99,161.76c-.93,.51-2.16,1.49-2.74,2.12-2.51,2.75-3.38,3.95-3.38,4.63,0,.4-.29,.8-.58,.92-.35,.11-.7,1.6-.82,3.32s-.12,2.35,.06,1.43c.12-.97,.58-2.52,1.05-3.55,.47-.97,.87-1.94,.87-2.12,0-1.03,5.13-6.06,6.18-6.06,.47,0,.82-.23,.82-.51s.47-.69,1.05-.8c.7-.17,.76-.29,.12-.34-.47,0-1.63,.4-2.62,.97Z"/>
  <path d="M118.42,161.13c.52,.11,1.34,.11,1.75,0,.35-.17-.06-.29-1.05-.29-.93,0-1.28,.11-.7,.29Z"/>
  <path d="M171.74,161.19c-.06,.23-1.17,1.03-2.33,1.77-1.22,.69-2.21,1.49-2.21,1.66,0,.23-.82,1.26-1.75,2.35-.99,1.03-1.75,2.52-1.75,3.26,0,.69-.29,1.37-.64,1.49-.82,.29-.87,7.89-.06,8.41,.29,.17,.64,.86,.82,1.49,.12,.63,.17-1.72,.17-5.21,0-5.26,.17-6.46,1.05-7.32,.52-.57,.99-1.2,.99-1.49,0-.74,4.78-5.15,5.59-5.15,.47,0,.82-.23,.82-.51s.47-.69,1.05-.8c.76-.23,.7-.29-.29-.34-.7,0-1.34,.17-1.46,.4Z"/>
  <path d="M116.21,162.44c-.76,.34-.87,.51-.29,.51,.47,0,1.28-.23,1.75-.51,1.05-.69,.12-.69-1.46,0Z"/>
  <path d="M113.18,164.62c-.76,.8-1.34,1.77-1.34,2.17,0,.34-.41,.8-.87,1.03-.47,.17-.87,.92-.87,1.66s-.23,1.54-.52,1.83c-.29,.34-.64,1.72-.82,3.15s-.17,2.12,0,1.54c.12-.51,.47-.97,.7-.97,.29,0,.64-1.32,.82-2.92,.23-1.66,.76-3.37,1.28-3.95,.47-.51,.87-1.14,.87-1.32,0-.57,2.04-2.52,2.97-2.8,.58-.17,.58-.29-.12-.57-.41-.17-1.4,.34-2.1,1.14Z"/>
  <path d="M140.97,176.17c0,.63,.29,1.14,.58,1.14,.35,0,.58-.51,.58-1.14s-.23-1.14-.58-1.14c-.29,0-.58,.51-.58,1.14Z"/>
  <path d="M1.24,177.89c0,.8,.12,1.09,.29,.69,.12-.34,.12-1.03,0-1.43-.17-.34-.29-.06-.29,.74Z"/>
  <path d="M109.33,177.72c-.64,.57-.47,3.6,.17,3.6,.35,0,.58-.92,.58-2,0-2.06-.12-2.29-.76-1.6Z"/>
  <path d="M248.72,177.43c-.35,1.37-.29,3.32,.12,3.32,.29,0,.52-.8,.52-1.72,0-.97-.12-1.72-.29-1.72s-.29,.06-.35,.11Z"/>
  <path d="M140.39,179.83c0,1.09-.35,2.06-.7,2.23-.41,.11-.52,.46-.29,.74s.7,.11,.99-.34c.58-.92,.82-4.58,.29-4.58-.17,0-.29,.86-.29,1.94Z"/>
  <path d="M194.12,180.75c0,.8,.12,1.09,.29,.69,.12-.34,.12-1.03,0-1.43-.17-.34-.29-.06-.29,.74Z"/>
  <path d="M1.7,181.66c0,.46,.29,.69,.58,.51,.35-.23,.47-.63,.29-.92-.52-.8-.87-.63-.87,.4Z"/>
  <path d="M247.61,182.01c0,.51-.35,1.09-.7,1.2-.58,.23-.58,.34,0,.34,.82,.06,1.63-1.49,1.05-2.06-.17-.23-.35,.06-.35,.51Z"/>
  <path d="M110.09,182.41c0,.57,1.11,1.43,1.46,1.14,.06-.11-.17-.57-.64-.97s-.82-.46-.82-.17Z"/>
  <path d="M164.63,182.92c-.23,.4-.17,.69,.12,.69,.35,0,.76,.63,.93,1.37s.76,1.49,1.22,1.72c1.05,.4,1.11,.11,.12-.92-.41-.4-.99-1.37-1.34-2.12-.41-.97-.76-1.2-1.05-.74Z"/>
  <path d="M3.27,184.24c.23,.74,.47,1.03,.64,.57,.12-.4-.06-1.03-.35-1.32-.47-.46-.52-.23-.29,.74Z"/>
  <path d="M192.54,183.67c-.64,.92-.06,1.09,.76,.17,.41-.46,.47-.8,.17-.8s-.76,.29-.93,.63Z"/>
  <path d="M138.18,184.52c-.41,.46-.47,.8-.17,.8,.58,0,1.46-1.09,1.17-1.43-.12-.06-.58,.17-.99,.63Z"/>
  <path d="M111.84,184.58c0,.86,1.11,2.12,1.52,1.77,.17-.23-.06-.8-.58-1.32s-.93-.74-.93-.46Z"/>
  <path d="M245.45,185.1c-.87,.92-.93,1.37-.23,1.37,.47,0,1.4-1.72,1.11-2-.12-.11-.52,.17-.87,.63Z"/>
  <path d="M136.89,186.35c0,.34-.47,.74-.99,.86-.93,.23-.93,.29-.06,.34,1.05,.06,1.98-.92,1.4-1.49-.17-.23-.35-.06-.35,.29Z"/>
  <path d="M5.61,187.1c.41,.4,.87,.57,1.05,.4s-.12-.51-.7-.69c-.82-.34-.87-.29-.35,.29Z"/>
  <path d="M189.92,187.04c-.52,.34-.58,.57-.17,.57,.35,0,.87-.29,1.05-.57,.47-.69,.23-.69-.87,0Z"/>
  <path d="M114.17,187.44c.47,.17,1.11,.63,1.34,.97,.35,.4,.41,.34,.23-.23-.12-.46-.7-.92-1.34-.97-.76-.11-.87-.06-.23,.23Z"/>
  <path d="M242.37,188.13c0,.29-.52,.63-1.17,.8s-1.17,.63-1.17,1.09,.17,.51,.47,.11c.23-.34,.87-.74,1.46-.97,.87-.34,1.46-1.54,.7-1.54-.17,0-.29,.23-.29,.51Z"/>
  <path d="M7.53,188.76c.47,.29,1.17,.57,1.46,.57,.35,0,.17-.29-.29-.57s-1.11-.57-1.46-.57c-.29,0-.17,.29,.29,.57Z"/>
  <path d="M169.23,188.76c.17,.29,.82,.57,1.34,.57,.87,0,.87-.11,.12-.57-1.17-.74-1.92-.74-1.46,0Z"/>
  <path d="M129.9,190.47q-2.04,.4-.29,.51c.99,0,2.16-.23,2.62-.51,.99-.63,.64-.63-2.33,0Z"/>
  <path d="M183.51,190.47q-1.98,.4-.29,.46c.99,0,2.27-.17,2.91-.46,1.4-.57,.23-.57-2.62,0Z"/>
  <path d="M11.78,190.87c.52,.11,1.46,.11,2.04,0,.52-.17,.06-.29-1.05-.29s-1.57,.11-.99,.29Z"/>
  <path d="M119.88,190.87c.35,.11,1.05,.11,1.46,0,.35-.17,.06-.29-.76-.29s-1.11,.11-.7,.29Z"/>
  <path d="M173.02,190.7c0,.51,2.16,.69,3.2,.29,.87-.34,.64-.46-.99-.46-1.22-.06-2.21,.06-2.21,.17Z"/>
  <path d="M236.71,190.87c.52,.11,1.46,.11,2.04,0,.52-.17,.06-.29-1.05-.29s-1.57,.11-.99,.29Z"/>
  <path d="M16.27,191.67c-1.11,.29-.82,.4,1.34,.46,1.52,.06,2.74-.06,2.74-.17,0-.46-2.68-.69-4.08-.29Z"/>
  <path d="M178.27,191.67c-1.17,.34-.99,.4,1.05,.46,1.34,.06,2.45-.06,2.45-.17,0-.51-2.16-.69-3.5-.29Z"/>
  <path d="M231.18,191.73c-.47,.23,.23,.46,1.75,.46,1.34,0,2.45-.11,2.45-.23,0-.46-3.5-.69-4.2-.23Z"/>
  <path d="M123.96,192.02c.7,.11,1.86,.11,2.62,0,.7-.11,.12-.23-1.34-.23s-2.04,.11-1.28,.23Z"/>
  <path d="M123.2,212.84c-1.34,.23-.76,.4,2.33,.69,2.27,.23,4.49,.46,4.95,.51s1.17,.34,1.57,.69c1.92,1.66,2.51,2.06,3.03,2.06,.35,0,1.05,.69,1.63,1.54,.58,.92,1.17,1.72,1.4,1.89,.17,.17,.52,.86,.76,1.54,.23,.74,.7,1.32,.99,1.32s.52,.74,.52,1.66c0,2.46,.64,5.21,1.22,5.21,.29,0,.52-.51,.52-1.14s-.23-1.14-.52-1.14-.64-1.26-.76-2.8c-.17-1.54-.7-3.26-1.22-3.78-.58-.51-.99-1.2-.99-1.54,0-.69-4.08-4.46-4.78-4.46-.23,0-.76-.34-1.17-.74-.99-.92-7.23-1.94-9.5-1.49Z"/>
  <path d="M17.73,213.29c3.5,.34,8.45,2.12,8.45,3.03,0,.23,.29,.46,.58,.46,.7,0,2.91,2.12,2.91,2.75,0,.23,.52,.86,1.17,1.43,.7,.57,1.17,1.66,1.17,2.63s.23,1.83,.47,2c.76,.46,.87,6.64,.12,6.64-.29,0-.58,.8-.58,1.72,0,1.03-.35,1.89-.87,2.06-.47,.23-.87,.69-.87,1.09,0,.97-3.38,4.29-4.37,4.29-.41,0-.87,.4-1.11,.86-.58,1.6,.64,.86,3.85-2.17,4.25-4.06,5.42-6.98,4.95-12.98-.23-3.55-.58-4.8-1.57-5.83-.7-.74-1.69-2-2.21-2.92-.52-.86-1.11-1.54-1.34-1.54-.17,0-.93-.51-1.69-1.14s-1.86-1.14-2.56-1.14c-.87,0-.99-.17-.47-.51,.93-.57-3.44-1.26-7.11-1.09-1.98,.06-1.75,.11,1.11,.4Z"/>
  <path d="M174.48,213.35c-.99,.23,.35,.29,2.97,.11,3.79-.23,5.13-.06,6.99,.8,1.22,.57,2.39,1.2,2.56,1.43,.17,.29,.7,.23,1.11,0,.58-.34,.29-.63-1.05-.92-.99-.23-1.69-.57-1.52-.86,.64-1.03-7.52-1.43-11.07-.57Z"/>
  <path d="M231.47,213.18c.87,.11,2.27,.11,3.2,0,.87-.11,.12-.23-1.63-.23s-2.51,.11-1.57,.23Z"/>
  <path d="M10.68,213.81c.17,.29-.64,.8-1.75,1.2-1.05,.4-1.98,.97-1.98,1.26s-.41,.51-.87,.51-.87,.29-.87,.63-.52,1.26-1.17,2.06-1.17,1.72-1.17,1.94c0,.63,1.81-1.2,2.68-2.69,.35-.57,1.17-1.32,1.86-1.66,.7-.29,1.28-.74,1.28-.97,0-.34,2.51-1.66,4.66-2.35,.47-.17,0-.34-1.05-.34-1.05-.06-1.81,.17-1.63,.4Z"/>
  <path d="M118.01,214.21c-.41,1.03,.12,1.03,1.98,0l1.46-.8-1.52-.06c-.87,0-1.69,.4-1.92,.86Z"/>
  <path d="M226.57,213.87c.7,.46,2.97,.23,2.97-.29,0-.11-.87-.23-1.86-.23-1.34,0-1.69,.17-1.11,.51Z"/>
  <path d="M237.59,213.75c.7,.11,1.28,.51,1.28,.8s.41,.51,.87,.51c.52,0,.7-.34,.52-.86-.23-.51-1.05-.8-2.21-.8-1.34,.06-1.46,.17-.47,.34Z"/>
  <path d="M170.69,214.9c-1.63,.69-4.78,3.66-4.31,4.12,.17,.17,.64-.06,.99-.51,.7-.92,3.5-2.86,5.07-3.55,.76-.34,.76-.4,0-.4-.47,.06-1.28,.17-1.75,.34Z"/>
  <path d="M224.3,215.07c-1.05,.69-.12,.69,1.46,0,.76-.34,.87-.51,.29-.51-.47,0-1.28,.23-1.75,.51Z"/>
  <path d="M114.17,217.01c-2.86,2.69-4.08,4.4-4.08,5.61,0,.57-.29,1.03-.64,1.03-.41,0-.58,.8-.41,2,.12,1.09,0,2-.23,2s-.47,.46-.47,.97c0,2,1.57-1.14,1.92-3.83,.17-1.37,.64-2.63,.93-2.75,.35-.11,.64-.57,.64-1.09,0-.46,1.22-1.94,2.68-3.37,1.52-1.37,2.45-2.52,2.16-2.52s-1.4,.86-2.51,1.94Z"/>
  <path d="M241.55,215.93c.23,.46,.7,.86,1.11,.86s1.34,.92,2.1,2,1.63,2,1.86,2c.29,0,.29,.23,.12,.57-.17,.29-.12,.57,.17,.57,.35,0,.76,1.54,.99,3.43,.41,3.55,1.46,4.75,1.46,1.72,0-.97-.23-1.72-.52-1.72-.23,0-.64-1.03-.82-2.23-.17-1.32-.93-2.92-1.75-3.83-.82-.86-1.4-1.77-1.22-2.06,.17-.23-.41-.57-1.22-.8-.82-.17-1.46-.57-1.46-.86s-.23-.51-.58-.51c-.29,0-.41,.4-.23,.86Z"/>
  <path d="M221.27,217.36c-.87,.86-1.46,1.72-1.34,1.83,.17,.17-.35,.86-1.17,1.6s-1.46,1.94-1.46,2.63c0,.74-.23,1.43-.52,1.6-.64,.4-1.17,3.78-.58,3.78,.29,0,.35,.34,.17,.8s.06,1.83,.47,3.03c.76,2.17,.76,2,.76-3.72,0-4.29,.23-6.12,.76-6.23,.35-.17,.7-.63,.7-1.09s.35-.97,.82-1.14,.99-.92,1.17-1.66c.23-.8,.99-1.54,1.92-1.83,1.11-.4,1.28-.63,.7-.86-.47-.17-1.52,.4-2.39,1.26Z"/>
  <path d="M189.05,216.84c1.46,.74,4.55,5.38,5.01,7.66,.29,1.37,.35,1.2,.23-.63-.06-1.32-.52-2.8-.93-3.37-2.39-2.75-4.08-4.29-4.72-4.23-.41,0-.23,.29,.41,.57Z"/>
  <path d="M165.1,220.1c-.35,.23-.87,1.03-1.11,1.83s-.64,1.54-.87,1.72c-.76,.51-1.11,5.21-.41,4.98,.41-.11,.87-1.54,1.05-3.15,.23-1.6,.82-3.32,1.34-3.83s.93-1.2,.93-1.49c0-.63-.12-.63-.93-.06Z"/>
  <path d="M1.41,225.42c-.23,2-.29,4.46-.12,5.38,.12,1.03,.29,.4,.35-1.54,0-1.77,.35-3.95,.76-4.75,.47-1.03,.47-1.66,.06-2.06-.47-.46-.76,.4-1.05,2.97Z"/>
  <path d="M194.76,229.08c.17,2.57,.99,2.57,.99,0,0-1.09-.23-2-.58-2-.29,0-.52,.92-.41,2Z"/>
  <path d="M162.53,231.08c0,.92,.29,1.72,.58,1.72,.35,0,.58-.8,.58-1.72,0-.97-.23-1.72-.58-1.72-.29,0-.58,.74-.58,1.72Z"/>
  <path d="M248.43,230.17c-.17,.46-.06,1.32,.29,1.89,.52,.86,.58,.74,.64-.86,0-1.94-.41-2.4-.93-1.03Z"/>
  <path d="M108.92,231.66c0,1.03,.23,1.66,.58,1.43,.35-.17,.58-.86,.58-1.43s-.23-1.26-.58-1.43c-.35-.23-.58,.4-.58,1.43Z"/>
  <path d="M140.56,232.51c0,1.26,.12,1.72,.23,.97,.12-.69,.12-1.72,0-2.29-.17-.51-.29,.06-.23,1.32Z"/>
  <path d="M194.12,233.37c0,.8,.12,1.09,.29,.69,.12-.34,.12-1.03,0-1.43-.17-.34-.29-.06-.29,.74Z"/>
  <path d="M1.7,233.66c0,.46,.23,.86,.58,.86,.29,0,.41-.4,.23-.86-.23-.46-.47-.86-.58-.86s-.23,.4-.23,.86Z"/>
  <path d="M163.76,234.4c0,.69,.29,1.43,.76,1.6s.99,.92,1.17,1.72c.35,1.32,1.52,1.94,1.52,.8,0-.34-.23-.57-.58-.57-.29,0-.58-.4-.58-.86,0-.4-.35-1.03-.82-1.26s-.93-.97-1.11-1.6c-.23-1.03-.29-1.03-.35,.17Z"/>
  <path d="M247.67,234.34c-.06,.69-.41,1.37-.76,1.49-.58,.23-.58,.34,0,.34,.87,.06,1.52-1.32,1.11-2.35-.17-.4-.35-.17-.35,.51Z"/>
  <path d="M110.15,234.86c0,.63,.17,.8,.35,.34,.17-.4,.12-.92-.06-1.09-.17-.23-.35,.11-.29,.74Z"/>
  <path d="M139.22,235.03c0,.29,.29,.74,.58,.92,.35,.17,.58,.11,.58-.23,0-.29-.23-.74-.58-.92-.29-.17-.58-.11-.58,.23Z"/>
  <path d="M192.95,235.77c-.41,.4-.7,.92-.7,1.26,0,.29-.58,1.2-1.28,1.94l-1.34,1.43,1.34-.8c.7-.46,1.46-1.32,1.63-1.94,.23-.63,.7-1.32,1.05-1.54s.47-.51,.29-.69-.64,0-.99,.34Z"/>
  <path d="M218.24,235.55c-.23,.4-.12,.69,.17,.69,.35,0,.64,.4,.64,.86,0,.92,2.21,3.15,3.15,3.15,.35,0,.17-.29-.35-.63-.58-.29-1.05-.97-1.05-1.37,0-.46-.23-.86-.47-.86-.29,0-.76-.57-1.11-1.26-.35-.86-.7-1.03-.99-.57Z"/>
  <path d="M3.27,236.86c.23,.74,.47,1.03,.64,.57,.12-.4-.06-1.03-.35-1.32-.47-.46-.52-.23-.29,.74Z"/>
  <path d="M138,237.49c-.41,.63-1.11,1.49-1.52,1.89s-.52,.86-.35,1.03c.17,.23,.93-.57,1.75-1.72,.76-1.09,1.28-2.12,1.17-2.23-.06-.11-.58,.34-1.05,1.03Z"/>
  <path d="M245.45,237.72c-.87,.92-.93,1.37-.23,1.37,.47,0,1.4-1.72,1.11-2-.12-.11-.52,.17-.87,.63Z"/>
  <path d="M4.61,238.46c0,.57,1.69,2.06,1.98,1.72,.06-.11-.35-.69-.93-1.26-.58-.51-1.05-.74-1.05-.46Z"/>
  <path d="M112.42,239.03c0,.29,.41,.69,.93,.86,.82,.29,.87,.23,.23-.51-.82-.97-1.17-1.09-1.17-.34Z"/>
  <path d="M167.66,240.06c.41,.17,.93,.11,1.11-.06,.23-.17-.12-.34-.76-.29-.64,0-.82,.17-.35,.34Z"/>
  <path d="M7.53,241.38c.47,.29,1.17,.57,1.46,.57,.35,0,.17-.29-.29-.57s-1.11-.57-1.46-.57c-.29,0-.17,.29,.29,.57Z"/>
  <path d="M115.45,241.61c.41,.46,.99,.69,1.28,.51,.23-.17,.12-.51-.29-.8-1.28-.74-1.81-.63-.99,.29Z"/>
  <path d="M133.98,241.38c-.47,.29-.58,.57-.29,.57,.35,0,.99-.29,1.46-.57s.64-.57,.29-.57c-.29,0-.99,.29-1.46,.57Z"/>
  <path d="M169.41,241.49c.29,.29,.93,.46,1.34,.34,.47-.17,.17-.4-.58-.63-.99-.23-1.22-.17-.76,.29Z"/>
  <path d="M187.88,241.38c-.93,.4-.99,.51-.17,.51,.52,.06,1.17-.23,1.34-.51q.41-.63-1.17,0Z"/>
  <path d="M241.49,241.38c-.76,.34-.87,.51-.29,.51,.47,0,1.28-.23,1.75-.51,1.05-.69,.12-.69-1.46,0Z"/>
  <path d="M131.07,243.1c-1.05,.69-.12,.69,1.46,0,.76-.34,.87-.51,.29-.51-.47,0-1.28,.23-1.75,.51Z"/>
  <path d="M171.86,243.1c.47,.29,1.52,.57,2.27,.57,1.86,0,1.4-.34-1.11-.8-1.46-.23-1.81-.17-1.17,.23Z"/>
  <path d="M11.78,243.5c.52,.11,1.34,.11,1.75,0,.35-.17-.06-.29-1.05-.29-.93,0-1.28,.11-.7,.29Z"/>
  <path d="M21.69,243.5c.52,.11,1.34,.11,1.75,0,.35-.17-.06-.29-1.05-.29-.93,0-1.28,.11-.7,.29Z"/>
  <path d="M119.3,243.5c.35,.11,1.05,.11,1.46,0,.35-.17,.06-.29-.76-.29s-1.11,.11-.7,.29Z"/>
  <path d="M183.39,243.5c.35,.11,1.05,.11,1.46,0,.35-.17,.06-.29-.76-.29s-1.11,.11-.7,.29Z"/>
  <path d="M226.92,243.67c.17,.29,.7,.4,1.17,.17,1.22-.4,1.11-.74-.35-.74-.64,0-1.05,.23-.82,.57Z"/>
  <path d="M237.59,243.5c.35,.11,1.05,.11,1.46,0,.35-.17,.06-.29-.76-.29s-1.11,.11-.7,.29Z"/>
  <path d="M15.57,244.64c.99,.11,2.74,.11,3.79,0,.99-.11,.17-.23-1.92-.23s-2.91,.11-1.86,.23Z"/>
  <path d="M123.37,244.64c1.05,.11,2.62,.11,3.5,0s0-.23-1.92-.23-2.62,.11-1.57,.23Z"/>
  <path d="M176.69,244.64c.52,.11,1.46,.11,2.04,0,.52-.17,.06-.29-1.05-.29s-1.57,.11-.99,.29Z"/>
  <path d="M180.77,244.64c.52,.11,1.34,.11,1.75,0,.35-.17-.06-.29-1.05-.29-.93,0-1.28,.11-.7,.29Z"/>
  <path d="M231.18,244.64c.99,.11,2.74,.11,3.79,0,.99-.11,.17-.23-1.92-.23s-2.91,.11-1.86,.23Z"/>
  <path d="M12.48,265.97c-1.46,.34-1.57,.46-.7,.86,.58,.23,1.69,.17,2.51-.23,1.86-.8,4.2-.8,6.58,0,1.28,.46,2.1,.46,2.51,.06s-.7-.69-3.44-.86c-4.25-.4-4.78-.34-7.46,.17Z"/>
  <path d="M120.75,265.8c-1.05,.11-1.92,.46-1.92,.74s-.58,.69-1.28,.92c-2.74,.8-7.46,5.78-7.46,7.78,0,.57-.23,1.03-.58,1.03-.29,0-.58,.74-.58,1.72,0,2.57,.99,2.06,1.34-.69,.17-1.37,.64-2.52,.93-2.63,.35-.11,.64-.57,.64-.97,0-1.03,4.02-4.86,5.07-4.86,.41,0,.76-.23,.76-.57,0-.29,.93-.69,2.04-.92,1.11-.17,2.21-.57,2.39-.86,.47-.74,5.94-.63,6.41,.11,.17,.34,.82,.51,1.4,.34,.58-.11,1.81,.34,2.68,1.09,.93,.74,1.92,1.32,2.16,1.37,.7,0,2.16,1.54,2.16,2.29,0,.34,.35,.74,.82,.92s.99,.92,1.17,1.72c.29,1.14,1.52,2,1.52,1.03,0-.92-3.96-6.01-4.89-6.29-1.11-.34-1.75-.8-3.55-2.4-.87-.74-8.04-1.32-11.19-.86Z"/>
  <path d="M174.19,265.92c-1.69,.34-1.86,.51-.93,.92,.64,.29,1.52,.23,2.16-.17,2.16-1.32,9.44-.23,12.06,1.83,2.21,1.72,4.37,4.18,4.95,5.61,.41,1.09,1.57,1.43,1.57,.46,0-.34-.23-.57-.52-.57s-.76-.57-.99-1.32c-.47-1.49-2.45-3.37-5.54-5.32-2.51-1.54-8.92-2.23-12.76-1.43Z"/>
  <path d="M228.67,265.92c-1.63,.29-2.04,.57-1.4,.86,.47,.23,1.63,.11,2.51-.23,.87-.29,2.33-.57,3.2-.57,1.81,0,7.17,1.66,7.63,2.35,.17,.23,.64,.23,1.11,0,.52-.34,.29-.57-.87-.86-.93-.23-1.81-.69-1.98-.92-.47-.69-7.4-1.14-10.2-.63Z"/>
  <path d="M7.99,268.43c-2.51,1.54-6.29,6.81-6.29,8.81s.93,1.14,1.4-1.2c.23-1.09,.76-2.23,1.22-2.63s.87-.92,.87-1.2c0-.63,2.16-2.8,2.8-2.8,.64-.06,3.38-2.29,2.74-2.23-.29,0-1.57,.57-2.74,1.26Z"/>
  <path d="M24.95,268.15c.76,.69,1.63,1.26,1.92,1.26,.64,0,2.8,2.12,2.8,2.75,0,.29,.52,.97,1.11,1.49,1.11,1.03,1.57,2.69,2.16,8.47,.29,2.29,.17,3.32-.29,3.32-.35,0-.64,.63-.64,1.32,0,.74-.52,1.94-1.17,2.69s-1.17,1.66-1.17,2.12c0,.4-.23,.74-.58,.74-.29,0-.58,.29-.58,.63,0,.46,.29,.46,.87-.06,.47-.4,.87-1.09,.87-1.49,0-.46,.17-.8,.47-.8,.23,0,.99-1.09,1.75-2.46,1.05-1.94,1.34-3.43,1.34-6.58,0-3.95-.41-6.35-1.17-6.98-.17-.17-1.34-1.49-2.56-3.03-1.22-1.49-2.62-2.69-3.09-2.69s-.7-.29-.52-.57c.17-.34,.12-.57-.23-.57-.29,0-1.05-.17-1.63-.4-.76-.23-.7-.06,.35,.86Z"/>
  <path d="M170.69,267.52c-.47,.17-1.11,.69-1.34,1.09-.23,.46-.87,.8-1.28,.8-.47,0-.87,.29-.87,.57,0,.34-.64,1.32-1.46,2.17s-1.63,2.06-1.81,2.69c-.23,.63-.58,1.26-.82,1.43s-.52,1.37-.76,2.69c-.23,1.77-.12,2.46,.47,2.46,.47,0,.82-1.09,.99-3.03,.12-1.72,.64-3.55,1.11-4.06,1.63-1.94,5.01-5.21,6.35-6.23,1.4-.97,1.11-1.2-.58-.57Z"/>
  <path d="M223.37,268.43c-2.27,1.6-3.73,3.03-3.73,3.66,0,.29-.52,.86-1.17,1.32s-1.17,1.37-1.17,2c0,.69-.29,1.49-.7,1.89-.87,.86-.76,6.06,.23,8.69,1.22,3.09,2.97,5.55,5.3,7.38,1.57,1.2,1.17,.34-.64-1.49-.93-.86-1.81-2.06-2.04-2.63-.17-.51-.64-.97-.93-.97s-.58-.46-.58-1.03c0-.51-.17-2.29-.41-3.95-.52-4.23,.12-7.66,1.81-9.44,.82-.86,1.46-1.77,1.46-2,0-.63,2.16-2.46,2.91-2.46,.35,0,.58-.29,.58-.57,0-.34,.58-.86,1.34-1.14,.7-.29,.87-.51,.41-.51s-1.69,.57-2.68,1.26Z"/>
  <path d="M242.54,269.24c.52,.11,1.69,1.37,2.51,2.8,.82,1.37,1.69,2.52,1.98,2.52,.23,0,.58,1.54,.82,3.43,.41,3.37,1.52,4.86,1.52,2,0-.8-.23-1.43-.58-1.43-.29,0-.58-.74-.58-1.66,0-2.12-.58-3.55-1.22-3.15-.29,.17-.52-.06-.52-.46,0-1.26-2.97-4.46-4.02-4.4-.76,.06-.76,.11,.12,.34Z"/>
  <path d="M194.12,277.13c-.12,2.17,.47,4.29,1.11,4.29,.29,0,.52-.4,.52-.86s-.23-.86-.52-.86c-.35,0-.7-.97-.82-2.17-.17-1.77-.23-1.83-.29-.4Z"/>
  <path d="M140.56,278.84c.06,1.26,.17,2.63,.29,2.97,.41,1.14,1.28,.86,1.28-.4,0-.63-.23-1.14-.52-1.14-.35,0-.7-.86-.82-1.89-.17-1.54-.23-1.49-.23,.46Z"/>
  <path d="M1.29,281.42c0,1.43,.12,2,.23,1.26,.12-.69,.12-1.83,0-2.57-.12-.69-.23-.11-.23,1.32Z"/>
  <path d="M108.34,281.36c0,.63,.23,1.26,.52,1.43,.23,.17,.35,.92,.23,1.72-.17,.74,0,1.54,.35,1.72,.41,.29,.64-.29,.64-1.6,0-1.14-.29-2.06-.64-2.06s-.47-.51-.23-1.14,.12-1.14-.23-1.14-.64,.51-.64,1.09Z"/>
  <path d="M162.53,283.25c0,.74,.29,1.72,.58,2.17,.41,.63,.58,.29,.58-1.32,0-1.14-.23-2.12-.58-2.12-.29,0-.58,.57-.58,1.26Z"/>
  <path d="M195.28,283.13c0,.8,.12,1.09,.29,.69,.12-.34,.12-1.03,0-1.43-.17-.34-.29-.06-.29,.74Z"/>
  <path d="M248.54,282.51c-.23,.29-.12,1.14,.17,1.89,.52,1.2,.58,1.2,.58-.57,.06-1.83-.17-2.23-.76-1.32Z"/>
  <path d="M194.12,285.71c0,.92,.12,1.26,.29,.69,.12-.51,.12-1.32,0-1.72-.17-.34-.29,.06-.29,1.03Z"/>
  <path d="M140.45,285.77c0,.63,.17,.8,.35,.34,.17-.4,.12-.92-.06-1.09-.17-.23-.35,.11-.29,.74Z"/>
  <path d="M247.67,286.39c0,1.03-.35,1.89-.7,1.89-.29,0-.41,.29-.17,.63,.64,1.03,1.52-.97,1.22-2.8-.23-1.43-.23-1.37-.35,.29Z"/>
  <path d="M1.76,286.34c0,.63,.17,.8,.35,.34,.17-.4,.12-.92-.06-1.09-.17-.23-.35,.11-.29,.74Z"/>
  <path d="M163.87,287.37c.06,.63,.52,1.2,.99,1.32,.58,.17,.64,.11,.23-.23-.35-.23-.82-.86-.99-1.32-.29-.63-.35-.51-.23,.23Z"/>
  <path d="M138.99,288.51c-.17,.8-.64,1.49-.93,1.49-.35,0-.58,.4-.58,.86,0,.51-.35,1.03-.82,1.2s-.99,.74-1.17,1.26c-.23,.51,.58-.06,1.69-1.32,3.32-3.6,3.38-3.78,2.74-4.4-.35-.34-.7-.06-.93,.92Z"/>
  <path d="M2.69,288.05c-.17,.29,.06,.86,.52,1.26,.93,.8,1.05,.29,.29-.97-.29-.4-.64-.51-.82-.29Z"/>
  <path d="M192.54,288.91c-.64,.92-.06,1.09,.76,.17,.41-.46,.47-.8,.17-.8s-.76,.29-.93,.63Z"/>
  <path d="M110.67,289.37c0,.29,.41,.63,.82,.8,.58,.23,.76,.06,.52-.51-.35-.86-1.34-1.09-1.34-.29Z"/>
  <path d="M245.63,290.28c-.52,1.49-.41,1.83,.29,.69,.35-.57,.52-1.2,.35-1.32-.12-.17-.41,.11-.64,.63Z"/>
  <path d="M165.85,290.91c.35,.86,1.34,1.09,1.34,.29,0-.29-.41-.63-.82-.8-.58-.23-.76-.06-.52,.51Z"/>
  <path d="M4.61,291.09c0,.34,.23,.74,.58,.92s.41-.06,.23-.51c-.41-1.03-.82-1.2-.82-.4Z"/>
  <path d="M191.38,291.14c.17,.29,.47,.57,.64,.57,.12,0,.23-.29,.23-.57,0-.34-.29-.57-.64-.57-.29,0-.41,.23-.23,.57Z"/>
  <path d="M113.41,292.86c.58,.63,1.22,1.14,1.52,1.14s.87,.4,1.34,.86c.52,.46,1.17,.86,1.52,.86s.06-.51-.7-1.14-1.69-1.14-2.04-1.14c-.41,0-.87-.4-1.11-.86-.17-.46-.58-.86-.93-.86-.29,0-.12,.51,.41,1.14Z"/>
  <path d="M190.21,292.34c-.23,.34-.29,.69-.12,.86,.12,.17,.41-.11,.58-.63,.41-.97,.06-1.14-.47-.23Z"/>
  <path d="M243.82,292.29c-.17,.29-.06,.57,.23,.57,.35,0,.64-.29,.64-.57,0-.34-.12-.57-.23-.57-.17,0-.47,.23-.64,.57Z"/>
  <path d="M6.36,292.8c0,.57,1.11,1.43,1.46,1.14,.06-.11-.17-.57-.64-.97s-.82-.46-.82-.17Z"/>
  <path d="M26.47,294.06c-.64,.92-.06,1.09,.76,.17,.41-.46,.47-.8,.17-.8s-.76,.29-.93,.63Z"/>
  <path d="M169.06,294.23c.41,.46,.99,.69,1.28,.51,.23-.17,.12-.51-.29-.8-1.28-.74-1.81-.63-.99,.29Z"/>
  <path d="M188.06,293.83c-.52,.11-1.11,.57-1.22,.97-.23,.51,.06,.69,.76,.51,.58-.17,1.22-.63,1.4-1.09s.23-.74,.17-.74c-.06,.06-.52,.17-1.11,.34Z"/>
  <path d="M241.55,293.95c-.87,.34-.93,.51-.29,.74,.47,.17,1.17-.06,1.57-.46,.82-.86,.41-.97-1.28-.29Z"/>
  <path d="M8.69,294.52c0,.57,1.11,1.43,1.46,1.14,.06-.11-.17-.57-.64-.97s-.82-.46-.82-.17Z"/>
  <path d="M224.83,295.15c.76,.63,1.81,1.14,2.33,1.09,.52,0,.23-.29-.64-.63-.93-.29-1.63-.8-1.63-1.09s-.35-.51-.7-.51c-.41,.06-.12,.57,.64,1.14Z"/>
  <path d="M171.86,295.95c.82,.4,1.69,.57,1.98,.46,.64-.34-1.17-1.14-2.56-1.2-.47,0-.23,.29,.58,.74Z"/>
  <path d="M238.29,295.72c-1.22,.4-1.22,.46-.29,.51,.64,0,1.57-.23,2.04-.51,1.05-.63,.29-.63-1.75,0Z"/>
  <path d="M11.9,296.29c.23,.34,.64,.46,.93,.29,.82-.51,.64-.86-.41-.86-.47,0-.7,.29-.52,.57Z"/>
  <path d="M21.98,296.12c.35,.11,1.05,.11,1.46,0,.35-.17,.06-.29-.76-.29s-1.11,.11-.7,.29Z"/>
  <path d="M119.12,296.29c.17,.29,.58,.57,.93,.57,.29,0,.52-.29,.52-.57,0-.34-.41-.57-.93-.57-.47,0-.7,.23-.52,.57Z"/>
  <path d="M129.32,295.95c0,.11,.52,.34,1.17,.51s1.17,.06,1.17-.23-.52-.51-1.17-.51-1.17,.11-1.17,.23Z"/>
  <path d="M183.51,295.95c0,.51,1.75,.8,2.04,.34,.23-.34-.17-.57-.82-.57-.7,0-1.22,.11-1.22,.23Z"/>
  <path d="M14.4,297.26c.41,.17,.93,.11,1.11-.06,.23-.17-.12-.34-.76-.29-.64,0-.82,.17-.35,.34Z"/>
  <path d="M17.32,297.26c.7,.11,1.86,.11,2.62,0,.7-.11,.12-.23-1.34-.23s-2.04,.11-1.28,.23Z"/>
  <path d="M121.92,297.26c.52,.11,1.46,.11,2.04,0,.52-.17,.06-.29-1.05-.29s-1.57,.11-.99,.29Z"/>
  <path d="M126.29,297.26c.7,.11,1.75,.11,2.33,0,.52-.17-.06-.29-1.34-.23-1.28,0-1.75,.11-.99,.23Z"/>
  <path d="M176.69,297.26c1.17,.11,3.15,.11,4.37,0,1.17-.11,.17-.23-2.21-.23s-3.38,.11-2.16,.23Z"/>
  <path d="M231.18,297.26c.99,.11,2.74,.11,3.79,0,.99-.11,.17-.23-1.92-.23s-2.91,.11-1.86,.23Z"/>
  <path d="M16.74,318.43c.7,.11,1.75,.11,2.33,0,.52-.17-.06-.29-1.34-.23-1.28,0-1.75,.11-.99,.23Z"/>
  <path d="M71.34,318.6c4.95,1.03,7.4,1.77,8.22,2.46,3.32,2.8,5.48,5.15,5.83,6.41,.17,.8,.58,1.6,.87,1.77s.52,1.32,.52,2.57c0,1.6,.23,2.23,.87,2.23,.47,0,.87-.4,.87-.86s-.23-.86-.52-.86c-.23,0-.64-1.09-.82-2.4-.17-1.37-.64-2.52-.93-2.63-.35-.11-.64-.57-.64-1.03s-.35-.97-.82-1.14-.99-.92-1.17-1.72c-.23-.74-.7-1.37-1.17-1.37-.64,0-1.34-.46-4.2-2.8-.41-.29-2.62-.69-4.95-.86-3.26-.23-3.73-.17-1.98,.23Z"/>
  <path d="M125.24,318.43c1.11,.11,2.27,.46,2.62,.69,.29,.29,1.52,.63,2.68,.86,1.22,.23,2.45,.74,2.86,1.2s.99,.86,1.28,.86c.76,0,2.21,1.49,2.21,2.29,0,.34,.35,.74,.82,.92s1.05,1.09,1.22,2c.23,.92,.58,1.66,.87,1.66s.58,1.09,.7,2.4c.17,2.17,1.63,3.95,1.63,1.94,0-.51-.23-.92-.58-.92-.29,0-.58-.69-.58-1.6,0-1.6-1.81-5.38-3.26-6.81-.47-.46-.82-1.09-.82-1.37s-.64-.63-1.4-.86c-.82-.17-1.57-.69-1.75-1.14s-.7-.8-1.17-.8-.93-.23-1.05-.57c-.06-.29-1.98-.63-4.25-.74-2.21-.17-3.15-.11-2.04,0Z"/>
  <path d="M174.3,318.43c-1.05,.11-1.75,.51-1.57,.8,.58,.86,3.03,.57,3.44-.34,.17-.46,.23-.8,.17-.74-.06,0-.99,.17-2.04,.29Z"/>
  <path d="M179.61,318.43c1.17,.11,2.16,.46,2.16,.69,0,.29,1.11,.63,2.45,.8s2.62,.74,2.91,1.2c.58,1.03,1.63,1.2,1.63,.34,0-.34-.7-.92-1.57-1.32-.93-.34-1.75-.86-1.92-1.09s-2.04-.51-4.08-.63c-2.1-.11-2.8-.11-1.57,0Z"/>
  <path d="M228.15,318.43c-.93,.11-2.04,.57-2.39,.92-.41,.4-1.34,1.09-2.1,1.54-2.16,1.37-4.6,4-4.6,4.86,0,.46-.23,.86-.52,.86-.82,0-2.21,3.03-2.68,5.72-.35,1.89-.23,2.23,.47,1.94,.52-.17,.93-1.43,1.17-3.37,.23-2.35,.7-3.43,1.81-4.46,.82-.8,1.52-1.6,1.52-1.89,0-.69,1.75-2.17,3.09-2.69,.52-.17,.99-.63,.99-.97,0-.29,1.05-.74,2.33-.92,1.28-.23,2.51-.63,2.68-.86,.17-.29,1.46-.51,2.86-.51s2.68,.23,2.86,.51c.17,.23,1.34,.63,2.62,.86,1.28,.17,2.39,.57,2.51,.8,.06,.23,1.17,1.14,2.33,2.06,1.22,.86,2.33,2.12,2.56,2.8s.76,1.54,1.17,2c.47,.4,.82,1.43,.82,2.29,0,2.12,.64,4.12,1.22,4.12,.29,0,.52-.4,.52-.86s-.23-.86-.58-.86c-.29,0-.58-.97-.58-2.17,0-1.43-.41-2.75-1.17-3.55-.64-.74-1.17-1.54-1.17-1.83,0-.8-2.45-3.09-5.13-4.69-1.86-1.14-3.38-1.54-6.7-1.72-2.27-.11-4.95-.11-5.89,.06Z"/>
  <path d="M10.62,319.34c-1.11,1.09-2.1,1.77-3.79,2.63-.87,.46-1.81,1.32-1.98,2-.23,.63-.76,1.49-1.17,1.94-.47,.4-.76,1.2-.76,1.72,.06,.86,.12,.86,.35-.06,.12-.51,.47-.97,.76-.97s.7-.51,.87-1.2c.41-1.32,1.92-2.92,3.26-3.6,.47-.23,1.46-.74,2.27-1.2s2.04-.86,2.8-.86c.7,0,1.28-.29,1.28-.57,0-.8-3.03-.69-3.9,.17Z"/>
  <path d="M20.64,319.17c.17,.29,.87,.57,1.52,.57,.58,0,1.11-.29,1.11-.57,0-.34-.7-.57-1.52-.57s-1.34,.23-1.11,.57Z"/>
  <path d="M65.8,319.17c0,.29-.47,.57-1.05,.57-2.16,0-7.58,5.03-8.1,7.49-.17,.92-.52,1.66-.82,1.66s-.52,.63-.52,1.43c0,2.29,.99,1.66,1.4-.86,.17-1.26,.64-2.29,.93-2.29,.35,0,.52-.17,.47-.46-.58-1.66,6.29-6.98,9.03-6.98,.52,0,1.11-.29,1.28-.57,.23-.34-.29-.57-1.11-.57s-1.52,.23-1.52,.57Z"/>
  <path d="M118.83,319.11c0,.29-.58,.74-1.28,.97-2.74,.8-7.46,5.78-7.46,7.78,0,.57-.23,1.03-.52,1.03-.35,0-.52,.46-.52,.97,0,.57-.17,1.72-.41,2.57-.35,1.32-.23,1.6,.58,1.6s.87-.17,.29-.86c-.41-.46-.47-.86-.17-.86,.35,0,.76-1.03,.93-2.23,.29-2.46,.76-3.09,3.96-6.29,3.15-3.09,3.85-3.55,6.06-3.89,2.51-.4,2.68-1.32,.29-1.32-.93,0-1.75,.23-1.75,.51Z"/>
  <path d="M25.01,320.89c.76,.63,1.63,1.14,1.98,1.14,.35,.06,1.17,.69,1.81,1.49s1.63,1.94,2.21,2.63c.52,.69,.99,1.77,.99,2.52s.23,1.43,.52,1.66c.35,.17,.58,.74,.58,1.32,.12,3.95,0,6.12-.47,6.35-.23,.17-.64,1.37-.82,2.63q-.35,2.29,.29,.4c.35-.97,.87-1.83,1.11-1.83,.29,0,.52-.86,.52-1.94s.23-2.63,.58-3.43c.29-.8,.35-1.49,.06-1.49s-.64-1.09-.82-2.4c-.17-1.37-.64-2.52-.93-2.63-.35-.11-.64-.57-.64-1.03s-.23-.8-.52-.8c-.35,0-1.05-.8-1.63-1.72-.58-.97-1.63-1.89-2.33-2.06s-1.4-.69-1.57-1.14-.76-.8-1.28-.8c-.82,0-.76,.23,.35,1.14Z"/>
  <path d="M170.69,320.14c-.47,.17-1.11,.69-1.34,1.09-.23,.46-.82,.8-1.22,.8s-1.22,.92-1.86,2c-.58,1.09-1.28,2-1.52,2-.64,0-2.04,3.43-2.51,5.95-.29,1.66-.17,2.12,.41,1.94,.41-.17,.93-1.54,1.11-3.15,.23-1.6,.76-3.37,1.17-3.89,1.4-1.66,5.01-5.09,6.41-6.18,1.34-.97,1.05-1.2-.64-.57Z"/>
  <path d="M189.34,322.32c0,.34,.58,1.09,2.1,2.75,.35,.4,.87,1.32,1.05,2,.47,1.43,1.52,1.72,1.52,.4,0-.46-.23-.86-.52-.86s-.76-.51-.93-1.2c-.58-1.66-3.2-4.23-3.2-3.09Z"/>
  <path d="M1.41,332.27c-.23,2.29-.23,4.29-.06,4.46,.17,.23,.35-.57,.35-1.72s.29-2.75,.58-3.55c.35-.92,.41-1.89,.06-2.4-.35-.63-.64,.34-.93,3.2Z"/>
  <path d="M194.12,330.04c-.12,1.89,.47,4,1.11,4,.29,0,.52-.4,.52-.86s-.23-.86-.52-.86c-.35,0-.7-.86-.82-1.89-.17-1.37-.23-1.49-.29-.4Z"/>
  <path d="M54.96,333.13c-.17,.46-.23,1.32-.12,1.89,.17,.63,.35,.34,.52-.86,.35-1.94,.12-2.4-.41-1.03Z"/>
  <path d="M87.19,335.01c-.23,.17-.41,1.2-.41,2.29,0,1.03-.23,1.89-.58,1.89-.29,0-.58,.4-.58,.86s.29,.86,.7,.86c.35,0,.47-.17,.29-.4-.23-.17-.17-.63,.12-.97,.47-.57,1.34-4.92,.99-4.92-.06,0-.35,.17-.52,.4Z"/>
  <path d="M194.87,335.19c-.17,.29-.06,.57,.23,.57,.35,0,.64-.29,.64-.57,0-.34-.12-.57-.23-.57-.17,0-.47,.23-.64,.57Z"/>
  <path d="M216.44,335.41c-.52,1.26,.47,4.4,2.27,6.92,.7,.92,1.28,1.83,1.34,1.94,.12,.11,.35,.11,.52-.11,.35-.29-.06-.86-1.92-2.97-.41-.4-.99-2.12-1.22-3.83-.41-2.29-.64-2.75-.99-1.94Z"/>
  <path d="M248.89,335.76c0,.8,.12,1.09,.29,.69,.12-.34,.12-1.03,0-1.43-.17-.34-.29-.06-.29,.74Z"/>
  <path d="M109.33,335.59c-.64,.57-.47,3.03,.17,3.03,.35,0,.58-.8,.58-1.72,0-1.77-.12-2-.76-1.32Z"/>
  <path d="M140.56,337.76c0,1.26,.12,1.72,.23,.97,.12-.69,.12-1.72,0-2.29-.17-.51-.29,.06-.23,1.32Z"/>
  <path d="M162.53,336.84c0,.57,.35,1.32,.76,1.72,.64,.46,.76,.29,.52-1.09-.29-1.89-1.28-2.35-1.28-.63Z"/>
  <path d="M55.31,338.33c0,.86,.23,1.37,.58,1.14,.35-.17,.58-.69,.58-1.14s-.23-.97-.58-1.14c-.35-.23-.58,.29-.58,1.14Z"/>
  <path d="M194,338.56c0,.92-.41,1.94-.87,2.35s-.87,.97-.87,1.32c0,.29,.52,0,1.17-.74,.99-1.14,1.69-4.58,.87-4.58-.17,0-.29,.74-.29,1.66Z"/>
  <path d="M1.7,338.96c0,.8,.23,1.32,.52,1.14s.41-.86,.23-1.49c-.41-1.6-.76-1.43-.76,.34Z"/>
  <path d="M247.73,338.9c0,.92,.12,1.26,.29,.69,.12-.51,.12-1.32,0-1.72-.17-.34-.29,.06-.29,1.03Z"/>
  <path d="M56.54,340.39c-.06,.51,.47,1.49,1.11,2.23s1.17,1.03,1.17,.69-.29-.8-.64-.97c-.35-.23-.82-.97-1.11-1.66-.35-.8-.52-.92-.52-.29Z"/>
  <path d="M110.09,340.45c0,.51,.41,1.32,.87,1.83,.47,.46,.87,1.03,.87,1.32,0,.57,2.62,3.03,3.2,3.03,.17,0,.76,.4,1.22,.86,.52,.46,1.17,.86,1.52,.86s.06-.51-.7-1.14-1.57-1.14-1.86-1.14c-.58,0-2.45-1.77-3.03-2.92-1.34-2.69-2.1-3.6-2.1-2.69Z"/>
  <path d="M163.7,340.22c0,.29,.41,.86,.87,1.26s.87,.51,.87,.34c0-.23-.41-.8-.87-1.26-.47-.51-.87-.63-.87-.34Z"/>
  <path d="M139.22,340.79c0,.51-1.52,2.52-3.38,4.46-.76,.74-1.11,1.37-.87,1.37,.82,0,1.57-.8,3.09-2.97,.82-1.2,1.63-2.17,1.92-2.17,.23,0,.41-.29,.41-.57,0-.34-.23-.57-.58-.57-.29,0-.58,.23-.58,.46Z"/>
  <path d="M3.22,341.65c.17,.57,.52,.86,.7,.69s0-.63-.41-1.03c-.58-.51-.64-.46-.29,.34Z"/>
  <path d="M84.56,342.39c-.41,.46-.47,.8-.17,.8,.58,0,1.46-1.09,1.17-1.43-.12-.06-.58,.17-.99,.63Z"/>
  <path d="M29.85,343.48c-.17,.51-.17,1.03-.06,1.2,.17,.17,.47-.23,.64-.92,.35-1.32-.06-1.54-.58-.29Z"/>
  <path d="M4.61,343.65c0,.46,1.46,1.89,3.67,3.49,.7,.51,.99,.57,.99,.11,0-.34-.47-.86-.99-1.03-.58-.23-1.63-.97-2.33-1.72-.76-.74-1.34-1.14-1.34-.86Z"/>
  <path d="M166.5,343.54c-.23,.29,0,1.03,.47,1.66,.87,1.14,.99,.69,.29-1.09-.23-.63-.58-.86-.76-.57Z"/>
  <path d="M190.62,344.34c-.7,1.09-.64,1.14,.47,.46,.64-.4,1.17-.92,1.17-1.14,0-.86-.87-.46-1.63,.69Z"/>
  <path d="M244.52,344.22c-1.4,1.54-1.22,2.06,.23,.63,.64-.63,1.11-1.32,.93-1.43-.12-.11-.64,.23-1.17,.8Z"/>
  <path d="M59.8,345.48c.58,.63,1.34,1.14,1.69,1.14,.41,0,.87,.34,.99,.69,.23,.57,.35,.57,.35,0,.06-.46-.47-.92-1.05-1.09-.64-.17-1.28-.63-1.46-1.09s-.58-.8-.93-.8c-.29,0-.12,.51,.41,1.14Z"/>
  <path d="M82.47,345.2c-.47,.46-1.17,.86-1.52,.86s-.76,.34-.93,.8-.93,.97-1.75,1.14c-.76,.23-1.4,.57-1.4,.86s.82,.17,1.75-.29c.99-.51,1.75-1.09,1.75-1.37,0-.23,.64-.63,1.4-.8s1.52-.74,1.75-1.2c.41-1.09,.06-1.09-1.05,0Z"/>
  <path d="M28.51,345.42c0,.34-.41,.63-.87,.63-.52,0-1.05,.34-1.22,.8s-.93,.97-1.75,1.14c-.76,.23-1.4,.57-1.4,.86s.82,.17,1.75-.29c.99-.51,1.75-1.09,1.75-1.32s.7-.69,1.63-.97c1.05-.4,1.34-.69,.87-.97s-.76-.23-.76,.11Z"/>
  <path d="M220.81,345.2c0,.11,.52,.51,1.17,.86,.93,.51,1.05,.46,.82-.29-.29-.74-1.98-1.26-1.98-.57Z"/>
  <path d="M169.53,347.2c.76,.63,1.69,1.14,2.1,1.14s.82,.34,.99,.69c.17,.57,.47,.57,.93,.11,.58-.51,.35-.74-.82-1.03-.87-.23-1.98-.8-2.45-1.2-.47-.46-1.11-.86-1.46-.86s-.06,.51,.7,1.14Z"/>
  <path d="M241.67,346.45c-.52,.11-1.11,.57-1.22,.97-.23,.51,.06,.69,.76,.51,.58-.17,1.22-.63,1.4-1.09s.23-.74,.17-.74c-.06,.06-.52,.17-1.11,.34Z"/>
  <path d="M133.4,347.03c0,.34-.64,.8-1.46,.97-1.4,.34-2.1,1.49-.87,1.49,.35,0,.58-.29,.58-.57,0-.34,.35-.57,.82-.57,.99,0,1.81-1.03,1.28-1.54-.17-.23-.35-.11-.35,.23Z"/>
  <path d="M186.54,347.54c-.41,.46-.47,.8-.17,.8,.58,0,1.46-1.09,1.17-1.43-.12-.06-.58,.17-.99,.63Z"/>
  <path d="M223.72,347.08c0,.92,4.2,2.52,4.84,1.89,.47-.46,.17-.63-.87-.63-.87,0-1.92-.4-2.45-.86-.93-.97-1.52-1.09-1.52-.4Z"/>
  <path d="M-1.39,131.48c0,.35,.42,.58,.89,.58s.89-.12,.89-.23-.42-.35-.89-.58c-.47-.17-.89-.06-.89,.23Z"/>
</svg>