<?xml version="1.0" encoding="UTF-8"?>
<svg id="Layer_1" data-name="Layer 1" xmlns="http://www.w3.org/2000/svg" viewBox="0 0 300 450">
  <path d="M77.02,334.73c.18,.29,1.07,.58,1.97,.58,1.25,0,1.43-.12,.72-.58-1.19-.76-3.16-.76-2.68,0Z"/>
  <path d="M130.71,334.73c.18,.29,1.07,.58,1.97,.58,1.25,0,1.43-.12,.72-.58-1.19-.76-3.16-.76-2.68,0Z"/>
  <g>
    <path d="M12.66,.51c.63,.14,1.75,.14,2.44,0,.63-.21,.07-.34-1.26-.34s-1.88,.14-1.19,.34Z"/>
    <path d="M19.29,.51c.84,.14,2.09,.14,2.79,0,.63-.21-.07-.34-1.61-.27-1.54,0-2.09,.14-1.19,.27Z"/>
    <path d="M63.12,.65c-.98,.34-1.12,.69-.56,1.03,.49,.27,1.33,0,1.95-.55,1.19-1.16,.77-1.3-1.4-.48Z"/>
    <path d="M66.75,.51c.42,.14,1.26,.14,1.75,0,.42-.21,.07-.34-.91-.34s-1.33,.14-.84,.34Z"/>
    <path d="M71.85,.31c.14,.14,1.68,.41,3.42,.62,2.09,.27,2.65,.21,1.75-.21-1.33-.55-5.79-.96-5.17-.41Z"/>
    <path d="M116.66,.51c-1.05,.34-1.19,1.58-.28,1.58,.35,0,.77-.48,1.05-1.03,.21-.55,.28-1.03,.21-.96-.07,0-.56,.21-.98,.41Z"/>
    <path d="M119.45,.51c.63,.14,1.75,.14,2.44,0,.63-.21,.07-.34-1.26-.34s-1.88,.14-1.19,.34Z"/>
    <path d="M127.13,.51c1.4,.14,2.58,.55,2.58,.89s.7,.82,1.54,1.1,2.3,1.37,3.28,2.4c.98,1.1,2.02,1.99,2.37,1.99,.28,0-.49-1.1-1.81-2.4s-2.58-2.4-2.86-2.4-.98-.48-1.54-1.03c-.63-.62-2.16-.96-3.63-.89l-2.58,.07,2.65,.27Z"/>
    <path d="M172.15,.51c.84,.14,2.09,.14,2.79,0,.63-.21-.07-.34-1.61-.27-1.54,0-2.09,.14-1.19,.27Z"/>
    <path d="M180.53,.65c1.61,.27,3.35,.89,3.77,1.3,.49,.48,1.12,.82,1.47,.82s.07-.48-.56-1.1-2.58-1.23-4.4-1.37l-3.28-.21,3,.55Z"/>
    <path d="M223.25,.51c-.56,.21-1.33,.69-1.75,1.03-.35,.27-1.47,1.16-2.37,1.92s-1.4,1.37-.98,1.37c.35,0,1.4-.62,2.3-1.37s2.02-1.37,2.58-1.37c.49,0,.91-.27,.91-.62,0-.41,1.05-.82,2.3-.96l2.23-.27-2.09-.07c-1.12,0-2.58,.14-3.14,.34Z"/>
    <path d="M230.99,.31c.14,.14,1.68,.41,3.35,.62,2.02,.27,2.79,.14,2.09-.27-.91-.55-6.14-.96-5.44-.34Z"/>
    <path d="M276.02,1.06c-.56,.55-1.26,1.03-1.54,1.03-.91,0-5.3,4.86-4.82,5.34,.28,.27,.7,.14,.84-.34,.49-1.44,3.42-4.18,4.96-4.66,.84-.21,1.54-.69,1.54-1.03s1.33-.75,3-.89l2.93-.27-2.93-.07c-1.81-.07-3.28,.27-3.98,.89Z"/>
    <path d="M286.97,.51c1.4,.14,2.58,.62,2.58,.96,0,.41,.35,.48,.77,.21,1.26-.75-.84-1.64-3.56-1.51l-2.44,.07,2.65,.27Z"/>
    <path d="M24.31,1.34c0,.69,1.33,1.71,1.75,1.37,.07-.14-.21-.69-.77-1.16s-.98-.55-.98-.21Z"/>
    <path d="M168.59,1.68c-.28,.69-.07,.89,.63,.62,1.05-.41,1.33-1.58,.35-1.58-.35,0-.77,.48-.98,.96Z"/>
    <path d="M60.61,2.57c-1.4,.55-3.07,2.26-2.23,2.26,.35,0,1.4-.62,2.3-1.37,1.75-1.37,1.75-1.58-.07-.89Z"/>
    <path d="M79.87,3.6c1.12,.89,2.16,1.78,2.23,2.06,.14,.34,.63,.55,1.05,.55s-.21-.96-1.47-2.06c-1.26-1.16-2.65-2.06-3.07-2.06s.14,.69,1.26,1.51Z"/>
    <path d="M238.46,2.57c.49,.21,1.12,.14,1.33-.07,.28-.21-.14-.41-.91-.34-.77,0-.98,.21-.42,.41Z"/>
    <path d="M5.33,4.14c-1.81,1.64-1.54,2.4,.28,.69,.84-.75,1.4-1.51,1.19-1.64-.14-.14-.84,.27-1.47,.96Z"/>
    <path d="M27.1,3.53c0,.34,.35,.48,.7,.27,.42-.21,.7-.55,.7-.75,0-.14-.28-.27-.7-.27-.35,0-.7,.34-.7,.75Z"/>
    <path d="M165.17,4.14c-1.81,1.64-1.54,2.4,.28,.69,.84-.75,1.4-1.51,1.19-1.64-.14-.14-.84,.27-1.47,.96Z"/>
    <path d="M293.05,3.39c0,.41,.28,.89,.7,1.1s.49-.07,.28-.62c-.49-1.23-.98-1.44-.98-.48Z"/>
    <path d="M240.77,4.28c.56,.48,1.33,1.37,1.61,1.92,1.54,3.08,2.51,4.38,2.51,3.29,0-.62-.49-1.58-1.05-2.19-.56-.55-1.05-1.3-1.05-1.71s-.7-1.03-1.54-1.44c-1.4-.62-1.47-.62-.49,.14Z"/>
    <path d="M28.57,5.03c-.07,.69,.42,1.37,.98,1.58,.56,.27,1.26,1.64,1.47,3.08,.28,1.44,.7,2.67,1.05,2.67s.63,1.37,.63,3.08-.28,3.08-.7,3.08c-.35,0-.7,.89-.7,1.92,0,1.1-.63,2.53-1.4,3.22s-1.4,1.58-1.4,1.99-1.47,1.71-3.28,2.81c-3,1.78-3.91,2.06-8.66,1.99-4.47-.07-5.51-.27-7.19-1.71-3.49-2.88-6.21-5.89-6.91-7.47-.21-.69-.42-.48-.42,.55-.07,.82,.42,1.71,.98,1.92,.56,.27,1.05,.75,1.05,1.16,0,1.16,4.61,5.21,6.56,5.69,.98,.21,2.02,.69,2.23,1.03,.56,.96,6.77,.75,9.91-.34,3.49-1.23,6.07-3.36,8.38-6.92,1.54-2.4,1.81-3.49,1.81-8.84,.07-4.32-.21-6.23-.77-6.37-.49-.21-.91-.75-.91-1.23,0-.55-.42-1.23-.98-1.51-.49-.27-1.12-1.03-1.33-1.58-.28-.82-.42-.75-.42,.21Z"/>
    <path d="M110.38,5.86c-.49,.55-.63,1.1-.28,1.3s.84-.07,1.05-.69c.56-1.51,.28-1.71-.77-.62Z"/>
    <path d="M295.14,5.45c0,.41,.28,.89,.7,1.1s.49-.07,.28-.62c-.49-1.23-.98-1.44-.98-.48Z"/>
    <path d="M56.63,6.68c-1.05,.34-1.19,1.58-.28,1.58,.35,0,.77-.48,1.05-1.03,.21-.55,.28-1.03,.21-.96-.07,0-.56,.21-.98,.41Z"/>
    <path d="M189.46,6.75c.42,.27,1.12,1.37,1.54,2.53,.42,1.1,.77,1.71,.77,1.23,.14-1.51-1.33-4.32-2.16-4.32-.63,0-.7,.21-.14,.55Z"/>
    <path d="M3.02,7.57c.21,.34,.56,.69,.77,.69,.14,0,.28-.34,.28-.69,0-.41-.35-.69-.77-.69-.35,0-.49,.27-.28,.69Z"/>
    <path d="M84.06,8.73c.28,1.03,.77,2.26,1.12,2.67,.63,.89,.49,9.18-.21,9.18-.28,0-.7,.55-.91,1.16-1.05,2.88-2.58,4.66-5.79,6.64-3,1.85-3.91,2.06-8.66,2.06s-5.51-.21-7.33-1.85c-1.12-1.03-2.23-1.85-2.51-1.85-.35,0-.56-.27-.56-.69,0-.34-.7-1.44-1.54-2.47-.91-.96-1.81-2.53-2.02-3.56-.35-1.37-.42-1.23-.28,.69,.28,3.22,3.49,7.4,7.12,9.11,1.47,.69,3.21,1.51,3.84,1.78,.7,.34,2.58,.62,4.19,.55,5.51-.07,10.68-2.88,13.54-7.4,1.68-2.67,2.02-4.04,2.23-8.91,.21-4.52,.07-5.62-.56-5.21-.7,.41-.84,.21-.56-.75,.21-.75-.07-1.71-.63-2.26-.84-.69-.91-.55-.49,1.1Z"/>
    <path d="M162.17,8.32c-.28,.75-.28,1.58-.07,1.78,.21,.27,.42-.07,.42-.69,0-.69,.35-1.16,.7-1.16,.42,0,.7-.34,.7-.69,0-1.23-1.33-.69-1.75,.75Z"/>
    <path d="M108.14,9.69c-.42,1.16-.56,2.47-.28,2.95,.28,.41,.77-.48,.98-1.99,.63-3.43,.35-3.84-.7-.96Z"/>
    <path d="M1.49,10.1c-.42,1.03-.49,2.53-.21,3.29,.35,1.03,.56,.62,.84-1.71,.42-3.7,.21-4.11-.63-1.58Z"/>
    <path d="M267.92,8.94c-1.33,.82-1.47,13.08-.14,13.56,.49,.14,.84,.69,.84,1.23,0,1.58,5.51,6.44,7.75,6.92,1.12,.21,2.23,.69,2.44,.96,.49,.82,7.96,.75,7.96-.07,0-.41,.21-.62,.56-.55,.98,.21,4.33-.96,4.33-1.58,0-.34,.35-.62,.7-.62,1.4,0,4.05-3.36,5.93-7.47,1.26-2.67,1.33-3.9,.35-4.52-.42-.27-.7,.55-.7,1.99,0,1.3-.49,2.81-1.05,3.43-.56,.55-1.05,1.23-1.05,1.44,0,.75-4.47,4.73-6.63,5.82-2.16,1.16-11.31,1.37-12.08,.27-.63-.82-2.93-2.26-4.47-2.74-.63-.21-1.33-1.16-1.54-2.06-.28-.89-.77-1.64-1.12-1.64-.63,0-1.81-4.52-1.54-6.03,.14-.41-.14-.82-.56-.82-.35,0-.7-.75-.7-1.71s.28-1.71,.63-1.71,.77-1.1,.91-2.4,.28-2.4,.21-2.4c0,0-.49,.27-1.05,.69Z"/>
    <path d="M55.16,10.31c0,.96,.14,1.3,.35,.82,.14-.41,.14-1.23,0-1.71-.21-.41-.35-.07-.35,.89Z"/>
    <path d="M214.94,9.76c0,.69-.42,1.23-.84,1.23-.91,0-.35,10.89,.56,11.58,.77,.55,2.3,2.95,2.72,4.32,.28,.69,.91,1.23,1.4,1.23,.56,0,1.54,.62,2.16,1.37,.7,.75,1.88,1.37,2.65,1.37,.84,0,1.81,.34,2.23,.75,.91,.89,7.19,.96,7.82,.07,.21-.34,1.33-.82,2.51-1.1,3.07-.75,8.03-5.96,8.31-8.77,.14-1.23,.07-1.64-.07-.96-.21,.75-.7,1.71-1.12,2.12-.49,.48-1.33,1.51-1.88,2.33s-2.3,2.33-3.84,3.29c-2.37,1.58-3.56,1.85-7.68,1.85-4.33,0-5.3-.21-8.03-2.06-1.75-1.1-3.56-2.88-4.05-3.9s-1.19-1.85-1.61-1.85c-.35,0-.63-.96-.63-2.06,0-1.16-.28-2.06-.56-2.06-.91,0-.98-5.55-.07-6.58,.42-.48,.63-1.44,.42-2.12-.28-1.16-.35-1.16-.42-.07Z"/>
    <path d="M297.93,11.13c0,1.1,.35,1.92,.7,1.92,.91,0,.91-1.37,0-2.74-.56-.82-.7-.62-.7,.82Z"/>
    <path d="M138.09,11.61c0,.75,.35,1.58,.7,1.78,.42,.27,.7-.34,.7-1.3s-.28-1.78-.7-1.78c-.35,0-.7,.62-.7,1.3Z"/>
    <path d="M160.42,15.38c0,3.01,.28,5.21,.7,5.21s.7,.62,.7,1.3c0,.75,.42,1.78,.98,2.26,.49,.55,1.19,1.64,1.4,2.47,.28,.82,1.26,1.71,2.16,1.92s1.81,.82,2.02,1.37,1.19,.96,2.16,.96,1.75,.27,1.75,.69,1.88,.69,4.19,.69,4.19-.27,4.19-.69,.77-.69,1.75-.69,1.95-.41,2.16-.96,1.12-1.16,1.95-1.37,1.95-1.16,2.37-2.12,1.12-1.71,1.54-1.71c.35,0,.7-.48,.7-1.03s.28-1.03,.56-1.03c.84,0,.91-3.97,.07-4.45-.35-.27-.63,.14-.63,.82,.07,2.74-3.14,7.6-6.28,9.52-2.72,1.64-3.84,1.92-8.38,1.92-3.84,0-5.65-.34-6.63-1.16-.77-.55-2.44-1.92-3.63-2.88-1.26-1.03-2.3-2.26-2.3-2.81s-.28-.96-.63-.96c-.91,0-1.47-2.95-1.61-7.81-.21-5.89-1.26-5.41-1.26,.55Z"/>
    <path d="M245.37,11.47c-.21,.34-.07,1.16,.28,1.92,.49,1.16,.56,1.16,.56-.55,.07-1.85-.28-2.33-.84-1.37Z"/>
    <path d="M53.7,15.1c0,2.4,.21,3.43,.56,2.74,.35-.55,.35-2.26,.07-3.77q-.56-2.74-.63,1.03Z"/>
    <path d="M192.74,15.1c0,1.71,.14,2.4,.28,1.51,.14-.82,.14-2.19,0-3.08-.14-.82-.28-.14-.28,1.58Z"/>
    <path d="M106.75,15.24c0,1.03,.21,1.99,.56,2.19s.49,1.03,.28,1.71,0,1.51,.42,1.71c.42,.27,.77,1.1,.77,1.85s.42,1.51,.98,1.71,1.19,1.03,1.4,1.85c.42,1.58,5.1,4.59,6.98,4.59,.63,0,1.12,.27,1.12,.69s1.88,.69,4.19,.69,4.19-.27,4.19-.69,.63-.69,1.33-.69c2.02,0,6.28-2.88,6.77-4.59,.21-.82,.84-1.64,1.4-1.85s.98-.82,.98-1.37,.28-1.1,.56-1.23c.35-.14,.77-1.92,.98-3.97s.21-3.22,.07-2.6c-.14,.69-.63,1.23-.98,1.23s-.63,1.03-.63,2.33-.49,2.81-1.05,3.43c-.56,.55-1.05,1.37-1.05,1.78,0,1.03-4.05,4.8-5.24,4.8-.49,0-1.05,.41-1.19,.82-.42,1.16-11.87,1.16-12.29,0-.14-.48-.56-.82-.91-.82-.7,0-5.51-4.45-5.51-5.14,0-.21-.49-.89-1.05-1.44-.56-.62-1.05-2.12-1.05-3.43s-.28-2.33-.63-2.33-.84-.69-.98-1.58q-.28-1.3-.42,.34Z"/>
    <path d="M299.4,15.52c0,.75,.21,.96,.42,.41,.21-.48,.14-1.1-.07-1.3-.21-.27-.42,.14-.35,.89Z"/>
    <path d="M1.07,15.58c-.77,.69-.56,3.49,.21,3.97,.42,.27,.7-.55,.7-1.99,0-2.53-.14-2.81-.91-1.99Z"/>
    <path d="M244.88,16.61c0,.89,.35,2.06,.7,2.6,.49,.75,.7,.34,.7-1.58,0-1.37-.28-2.53-.7-2.53-.35,0-.7,.69-.7,1.51Z"/>
    <path d="M43.16,224.66v184.34h26.45c23.45,0,26.52-.14,26.87-1.1,.21-.62,.42-36.17,.42-79.12v-78.03h53.05v26.03c0,22.67,.14,26.03,1.05,26.03,.56,0,1.05,.27,1.05,.62,0,.41,.56,.69,1.26,.62,2.79-.07,9.84,1.03,9.56,1.51-.21,.27,1.81,.75,4.47,.96,3.21,.34,4.96,.82,5.24,1.51,.21,.48,.84,.96,1.47,.96,.56,0,1.05,.27,1.05,.62s.7,.89,1.54,1.1c.77,.27,2.16,1.23,3,2.06,.77,.89,2.3,1.85,3.35,2.06,1.05,.27,1.88,.89,1.88,1.44s.56,.96,1.26,.96,1.75,.75,2.23,1.71,1.19,1.71,1.54,1.71c.28,0,.56,.41,.56,.89,0,.82,.49,1.58,3.42,5,.35,.41,.84,1.44,1.12,2.33s1.33,2.33,2.23,3.15c1.19,1.1,1.88,2.6,2.09,4.73,.21,1.64,.63,2.88,.91,2.74,.35-.21,.77,2.33,1.05,5.55,.35,3.7,.77,5.55,1.12,5s.63,11.58,.63,27.95,.21,29.32,.42,29.94c.35,.96,3.42,1.1,26.87,1.1h26.45v-33.98c0-22.2-.28-34.39-.7-35.28-.63-1.1-1.81-7.12-2.23-11.78-.07-.62-.42-1.16-.7-1.16s-.56-.75-.56-1.71-.28-1.71-.63-1.71c-.42,0-.91-1.37-1.19-3.08-.21-1.71-.7-3.08-.98-3.08s-.77-1.1-.98-2.4c-.28-1.3-.77-2.4-1.12-2.4-.28,0-.77-.96-1.05-2.06s-.7-2.06-1.05-2.06-.77-.96-1.05-2.06c-.28-1.16-.7-2.06-1.05-2.06s-.84-.69-1.12-1.51c-.21-.82-.7-1.78-1.05-2.19-2.93-3.43-3.42-4.18-3.42-5,0-.48-.28-.89-.63-.89s-.84-.75-1.05-1.71c-.28-.96-.77-1.58-1.12-1.37-.42,.21-.7,.14-.7-.21,0-1.3-12.77-14.52-14.1-14.52-.28,0-.56-.48-.56-1.03s-.49-1.03-1.05-1.03-1.61-.62-2.23-1.37c-.7-.75-1.54-1.37-1.88-1.37s-1.33-.75-2.16-1.64-2.23-1.85-3-2.12c-.84-.21-1.54-.75-1.54-1.1s-.49-.62-1.05-.62c-.63,0-1.26-.48-1.47-1.03-.28-.55-1.19-1.03-2.09-1.03-.98,0-1.88-.48-2.09-1.03-.28-.55-1.12-1.03-2.02-1.03-.84,0-1.95-.48-2.44-1.03s-1.4-1.03-2.09-1.03-1.61-.48-2.09-1.03-1.4-1.03-2.02-1.03-2.02-.48-3.14-1.03c-1.05-.55-2.51-1.03-3.14-1.03s-2.02-.48-3.14-1.03c-1.05-.55-3.07-1.03-4.33-1.03-1.33,0-2.37-.34-2.37-.69,0-.41-.42-.69-.84-.62-.49,.14-1.81,0-3-.27-2.44-.48-10.19-1.23-15.64-1.44-2.58-.07-3.98-.48-4.61-1.3-.84-1.1-2.93-1.16-26.94-1.23-20.03,0-26.11,.21-26.52,.89-.7,1.1-1.19-.14-1.54-3.9-.35-4.93-.56,20.28-.56,89.74-.07,37.68-.21,69.05-.42,69.67-.28,1.16-2.02,1.23-24.71,1.23h-24.36v-2.95c-.07-4.73-.14-210.51-.14-228.25,0-.41,0-6.1,.07-12.67,0-6.58,0-13.22,.07-14.73s.14-3.08,.14-3.43c0-.41-.07-11.78-.14-25.28-.07-19.46,.14-24.73,.84-25.21,.7-.41,.56-.55-.28-.55-.7,0-1.26-.34-1.26-.69,0-.41,.21-.69,.56-.69,.28,0,.42-11.1,.28-24.66l-.14-24.66,52,.07c28.55,0,52.28-.14,52.7-.41,.35-.21,.7-.14,.7,.21s2.72,.69,6.14,.75c6,.14,18.36,2.12,23.17,3.84,1.33,.48,3.7,1.23,5.24,1.71,4.61,1.37,16.54,6.99,20.03,9.38,1.81,1.23,3.63,2.26,4.05,2.26,.35,0,.98,.62,1.4,1.37s1.12,1.37,1.47,1.37c1.26,0,7.47,5.21,13.47,11.23,4.75,4.73,11.24,13.02,14.17,17.88,4.89,8.22,12.08,25.62,12.08,29.25,0,.75,.28,1.85,.63,2.47,.63,1.16,2.23,14.66,2.37,19.66,.07,3.84-.98,16.51-1.68,20.21-2.58,13.97-7.75,26.37-15.78,38.36-12.42,18.56-29.87,32.06-52.21,40.42-6.7,2.47-22.62,5.62-31.2,6.17-.35,0-.56,.27-.56,.69s2.72,.69,6.7,.69,6.49-.27,6.21-.62c-.21-.41,2.09-.89,5.24-1.16,3.07-.21,5.37-.69,5.24-.96-.21-.27,1.05-.75,2.79-.96,1.75-.27,3.14-.75,3.14-1.03,0-.34,1.4-.82,3.14-1.03,1.75-.27,3.14-.75,3.14-1.03,0-.34,1.26-.75,2.79-1.03,1.54-.21,2.79-.69,2.79-1.03s.98-.82,2.09-1.1c1.19-.27,2.09-.69,2.09-1.03,0-.27,.84-.75,1.81-.96,.98-.27,2.16-.75,2.58-1.16,3.42-2.74,4.33-3.36,5.17-3.36,.49,0,.91-.34,.91-.69,0-.41,.49-.69,1.05-.69,.63,0,1.26-.48,1.47-1.03s1.12-1.16,1.88-1.44c.84-.27,2.72-1.64,4.12-3.08,1.47-1.51,2.79-2.67,3-2.67,.49,0,9.42-8.84,9.42-9.38,0-.21,1.26-1.51,2.72-2.95s2.93-3.29,3.21-4.04c.21-.82,.77-1.44,1.12-1.44s.63-.48,.63-1.03c0-.62,.42-1.23,.98-1.44s1.19-1.1,1.4-2.06c.28-.89,.7-1.64,1.05-1.64s.84-.96,1.12-2.06c.28-1.16,.7-2.06,1.05-2.06s.77-.96,1.05-2.06c.28-1.16,.7-2.06,1.05-2.06s.77-.96,1.05-2.06c.28-1.16,.7-2.06,1.05-2.06s.77-.96,1.05-2.06c.28-1.16,.7-2.06,.98-2.06,.35,0,.77-1.3,.98-2.88,.21-1.64,.77-3.01,1.12-3.15,.42-.14,.77-1.03,.77-1.92,0-.96,.49-2.81,1.05-4.18,.56-1.3,1.05-3.7,1.05-5.27s.42-3.29,.91-3.7c.56-.62,.91-4.93,1.05-15.28,.21-11.71,.07-15-.84-17.54-.63-1.78-1.12-4.38-1.12-5.82s-.28-2.6-.56-2.6c-.35,0-.56-.96-.49-2.06,.07-1.16-.14-2.06-.49-2.06-.28,0-.56-.75-.56-1.71s-.28-1.71-.63-1.71c-.42,0-.91-1.37-1.19-3.08-.21-1.71-.7-3.08-.98-3.08s-.77-1.1-.98-2.4c-.28-1.3-.77-2.4-1.12-2.4-.28,0-.77-.96-1.05-2.06-.28-1.16-.7-2.06-1.05-2.06s-.77-.96-1.05-2.06c-.28-1.16-.7-2.06-1.05-2.06-.28,0-.77-.75-.98-1.71-.28-.96-.77-1.71-1.12-1.71-.42,0-.7-.41-.7-.89,0-.82-.63-1.78-3.49-5.07-.35-.48-.7-1.1-.7-1.44,0-.75-3-4.25-7.12-8.49-1.88-1.85-3.35-3.7-3.35-4.04s-.28-.62-.7-.62c-.35,0-1.95-1.23-3.49-2.74s-3.07-2.74-3.49-2.74c-.35,0-.7-.48-.7-1.03s-.49-1.03-1.05-1.03c-.63,0-1.26-.48-1.47-1.03-.28-.55-.84-1.03-1.33-1.03-.56,0-1.4-.41-1.88-.96-.56-.48-1.68-1.16-2.51-1.37-.84-.27-1.54-.82-1.54-1.16s-.49-.62-1.05-.62c-.63,0-1.26-.41-1.47-.96s-1.12-1.16-2.09-1.37c-.91-.27-1.68-.75-1.68-1.1,0-.41-.63-.69-1.4-.69s-1.4-.34-1.4-.69c0-.41-.21-.69-.49-.62-1.05,.14-3.7-.89-3.7-1.51,0-.27-1.19-.75-2.58-1.03-1.47-.27-2.86-.75-3.07-1.1s-1.75-.82-3.28-1.03c-1.61-.21-2.72-.62-2.58-.96,.21-.27-1.05-.75-2.79-.96-1.75-.27-3.14-.75-3.14-1.03s-2.3-.75-5.03-1.03c-2.79-.27-5.3-.82-5.58-1.3-.35-.55-17.24-.82-61.98-.96l-61.43-.27V224.66Zm119.36,28.91c12.01,1.37,22.13,4.32,33.5,9.73,7.82,3.77,16.68,9.18,19.61,12.06,.98,.96,2.44,2.26,3.21,2.81,5.24,3.84,12.98,12.33,18.15,19.87,5.3,7.74,11.31,19.93,13.12,26.72,.21,.55,.91,3.15,1.68,5.82,.7,2.6,1.54,6.3,1.75,8.22,.28,1.85,.63,4.66,.84,6.17s.42,4.11,.49,5.82c.14,3.01,.07,3.08-2.3,3.49l-2.44,.41,2.58,.14,2.51,.07,.07,25.69v25.69h-49.49v-16.99c-.07-31.72-.14-35.76-.7-36.1-.28-.21-.77-2.12-.98-4.25-.28-2.19-.77-4.73-1.12-5.69s-.77-3.22-1.05-5c-.35-2.6-1.75-5.14-6.63-12.33-5.51-8.15-6.63-9.38-11.59-12.81-7.75-5.34-14.31-8.84-16.47-8.91-1.05,0-2.58-.27-3.56-.62-.91-.34-3.35-.82-5.44-1.1-6.63-.82-6.07,1.51-6.14-26.1v-24.39l2.58,.48c1.4,.27,4.96,.75,7.82,1.1Zm-79.71,154.54c-6.77,.14-18.08,.14-25.13,0-7.05-.07-1.47-.14,12.35-.14s19.54,.07,12.77,.14Zm160.54,0c-6.77,.14-18.08,.14-25.13,0-7.05-.07-1.47-.14,12.35-.14s19.54,.07,12.77,.14Z"/>
    <path d="M221.01,354.68c5.51,.14,14.31,.14,19.54,0,5.24-.07,.77-.21-9.98-.21s-15.08,.14-9.56,.21Z"/>
    <path d="M232.88,367.69c.49,.21,1.12,.14,1.33-.07,.28-.21-.14-.41-.91-.34-.77,0-.98,.21-.42,.41Z"/>
    <path d="M215.64,381.33c0,.75,.21,.96,.42,.41,.21-.48,.14-1.1-.07-1.3-.21-.27-.42,.14-.35,.89Z"/>
    <path d="M232.88,397.15c.49,.21,1.12,.14,1.33-.07,.28-.21-.14-.41-.91-.34-.77,0-.98,.21-.42,.41Z"/>
    <path d="M16.28,52.1l-4.19,.48,4.75,.07c3,.07,4.61-.14,4.33-.55-.21-.41-.49-.62-.56-.55s-2.02,.27-4.33,.55Z"/>
    <path d="M226.67,52.17c-.7,.41-.28,.62,1.33,.62,1.19,0,2.23-.14,2.23-.27,0-.62-2.72-.89-3.56-.34Z"/>
    <path d="M231.34,52.03c-.21,.34,.56,.75,1.81,.89,1.95,.34,2.02,.27,.91-.62-1.54-1.03-2.23-1.1-2.72-.27Z"/>
    <path d="M279.78,52.1c-.77,.48-.42,.69,1.4,.69s2.16-.21,1.4-.69c-.56-.34-1.19-.69-1.4-.69s-.84,.34-1.4,.69Z"/>
    <path d="M284.88,52.58c.63,.14,1.61,.14,2.09,0,.42-.21-.07-.34-1.26-.34-1.12,0-1.54,.14-.84,.34Z"/>
    <path d="M10.21,53.26c.49,.21,1.12,.14,1.33-.07,.28-.21-.14-.41-.91-.34-.77,0-.98,.21-.42,.41Z"/>
    <path d="M223.8,53.26c.49,.21,1.12,.14,1.33-.07,.28-.21-.14-.41-.91-.34-.77,0-.98,.21-.42,.41Z"/>
    <path d="M236.51,53.26c.56,.21,1.33,.75,1.61,1.16,.42,.48,.49,.41,.28-.27-.14-.55-.84-1.1-1.61-1.16-.91-.14-1.05-.07-.28,.27Z"/>
    <path d="M275.39,53.26c-.28,.21-.49,.75-.49,1.16,0,.48,.21,.48,.56,0,.28-.48,1.12-.96,1.88-1.16q1.33-.34-.07-.41c-.77,0-1.68,.14-1.88,.41Z"/>
    <path d="M8.26,54.08c0,.41-.56,.75-1.19,.82-.7,0-.91,.21-.42,.34,1.26,.55,3.42-.75,2.37-1.37-.42-.27-.77-.14-.77,.21Z"/>
    <path d="M220.87,54.56c-.77,.55-1.12,.96-.7,.96,.91,0,2.72-1.23,2.37-1.64-.21-.14-.98,.14-1.68,.69Z"/>
    <path d="M25.01,54.63c.56,.27,1.47,.89,1.95,1.51,.77,.96,.77,.89,.14-.48-.42-.82-1.26-1.51-1.95-1.44-.98,0-.98,.14-.14,.41Z"/>
    <path d="M217.31,57.99c-1.05,.96-1.75,1.85-1.61,1.99,.35,.34,1.33-.41,2.93-2.26,1.81-2.06,1.05-1.92-1.33,.27Z"/>
    <path d="M242.02,57.65c.28,.89,.91,1.64,1.4,1.71,.42,.07,.49,0,.07-.21-.35-.14-.7-.75-.7-1.23,0-.55-.28-1.16-.7-1.37-.42-.27-.49,.14-.07,1.1Z"/>
    <path d="M270.15,58.06c-1.95,2.33-2.02,3.56-.14,1.92,.77-.69,1.4-1.64,1.4-2.12s.42-1.03,.91-1.16c.42-.21,.49-.41,.07-.41-.35-.07-1.4,.75-2.23,1.78Z"/>
    <path d="M28.5,57.58c0,.34,.49,.89,1.12,1.23,.56,.34,1.26,1.85,1.47,3.43s.7,2.88,.98,2.88c.35,0,.63,1.23,.63,2.74s-.28,2.74-.7,2.74c-.35,0-.7,.62-.7,1.44,0,3.63-5.51,9.52-8.93,9.52-.84,0-1.54,.27-1.54,.69,0,.82-7.47,.89-7.96,.07-.21-.34-1.26-.82-2.23-1.03-1.95-.48-6.56-4.52-6.56-5.75,0-.41-.35-.82-.77-.96s-.91-1.71-1.12-3.43c-.21-1.78-.77-3.36-1.33-3.56-.49-.21-.77,0-.63,.48,2.02,6.44,2.79,8.49,3.56,9.25,.56,.48,1.33,1.44,1.81,2.06,1.19,1.58,7.26,4.38,9.35,4.38,.91,0,1.68,.34,1.68,.69s.49,.34,1.26,0c.63-.41,2.51-.89,4.19-1.16,1.61-.27,2.93-.75,2.93-1.1s.7-.75,1.61-.96c.91-.27,2.65-1.99,3.98-3.97,2.3-3.36,2.44-3.84,2.44-9.66,0-4.32-.28-6.23-.84-6.44-.49-.14-.91-.62-.91-1.1,0-.41-.63-1.3-1.4-1.99-.77-.62-1.4-.89-1.4-.48Z"/>
    <path d="M295.14,57.51c0,.41,.28,.89,.7,1.1s.49-.07,.28-.62c-.49-1.23-.98-1.44-.98-.48Z"/>
    <path d="M151.56,61.69c0,2.06,.14,2.95,.28,1.85,.14-1.03,.14-2.67,0-3.77-.14-1.03-.28-.14-.28,1.92Z"/>
    <path d="M3.02,59.63c.21,.34,.56,.69,.77,.69,.14,0,.28-.34,.28-.69,0-.41-.35-.69-.77-.69-.35,0-.49,.27-.28,.69Z"/>
    <path d="M296.89,60.32c-.21,.34-.07,.69,.28,.69,.42,0,.77-.34,.77-.69,0-.41-.14-.69-.28-.69-.21,0-.56,.27-.77,.69Z"/>
    <path d="M1.49,62.1c-.49,1.03-.63,2.33-.28,3.22,.42,1.16,.63,.89,.98-1.58,.49-3.63,.42-3.84-.7-1.64Z"/>
    <path d="M244.26,61.41c0,.75,.21,.96,.42,.41,.21-.48,.14-1.1-.07-1.3-.21-.27-.42,.14-.35,.89Z"/>
    <path d="M266.94,64.43c-.49,3.22,.21,10.28,1.05,10.28,.35,0,.63,.48,.63,1.03,0,.62,.42,1.23,.98,1.44s1.19,1.1,1.4,1.99,1.12,1.71,2.16,1.99c.98,.27,1.75,.69,1.75,1.03s1.33,.82,3,1.1c1.61,.27,3.49,.75,4.19,1.16,.77,.34,1.19,.34,1.19-.14,0-.34,1.05-.69,2.3-.69,1.19,0,3-.48,3.98-1.03s2.23-1.16,2.79-1.44c1.75-.89,3.49-2.6,3.49-3.49,0-.48,.28-.89,.56-.89,.7,0,2.93-4.86,2.93-6.37,0-.62-.28-1.3-.7-1.51-.42-.27-.7,.41-.7,1.51,0,2.88-2.86,8.22-4.68,8.7-.91,.27-1.61,.69-1.61,1.03s-.91,.82-2.09,1.1c-1.12,.27-2.09,.75-2.09,1.1,0,1.03-6.35,.69-9.56-.48-1.68-.62-3-1.37-3-1.64s-.77-.75-1.75-.96c-.98-.27-1.75-.89-1.75-1.37,0-.55-.49-1.51-1.12-2.12s-1.33-2.47-1.54-4.18c-.14-1.64-.63-3.01-.91-3.01-.35,0-.63-.62-.63-1.37s.35-1.37,.7-1.37c.42,0,.7-.96,.7-2.06,0-3.01-1.12-2.53-1.68,.69Z"/>
    <path d="M297.93,63.4c.07,1.78,.14,1.92,.77,.82,.56-.96,.56-1.51,0-2.06s-.77-.21-.77,1.23Z"/>
    <path d="M245.16,64.77c-.07,.96,.14,1.71,.49,1.71s.63-.75,.63-1.71c0-2.26-1.05-2.26-1.12,0Z"/>
    <path d="M151.56,70.59c0,2.81,.14,3.97,.28,2.53,.14-1.37,.14-3.7,0-5.14-.14-1.37-.28-.21-.28,2.6Z"/>
    <path d="M299.47,67.17c0,.96,.14,1.3,.35,.82,.14-.41,.14-1.23,0-1.71-.21-.41-.35-.07-.35,.89Z"/>
    <path d="M245.09,68.26c-.21,.55-.07,1.71,.35,2.53,.7,1.37,.77,1.23,.77-1.1,.07-2.67-.35-3.29-1.12-1.44Z"/>
    <path d="M244.19,72.65c0,.82-.42,1.92-.84,2.47-2.72,3.15-5.24,5.62-6.14,6.03-.56,.21-.14,.27,.98,0,1.19-.21,2.65-1.03,3.35-1.85s1.61-1.92,1.95-2.4c.91-.96,1.81-5.62,1.12-5.62-.21,0-.42,.62-.42,1.37Z"/>
    <path d="M82.95,74.7c-.63,.41-.7,.69-.21,.69,.42,0,1.05-.34,1.26-.69,.56-.82,.28-.82-1.05,0Z"/>
    <path d="M151.63,83.95c0,4.52,.07,6.3,.21,3.9,.14-2.33,.14-6.03,0-8.22-.14-2.12-.21-.21-.21,4.32Z"/>
    <path d="M132.5,78.81c-.63,.41-.7,.69-.21,.69,.42,0,1.05-.34,1.26-.69,.56-.82,.28-.82-1.05,0Z"/>
    <path d="M75.41,80.59c-.98,1.03-.49,1.16,1.54,.34,1.05-.41,1.12-.62,.35-.89-.56-.21-1.4,.07-1.88,.55Z"/>
    <path d="M72.34,81.35c.49,.21,1.12,.14,1.33-.07,.28-.21-.14-.41-.91-.34-.77,0-.98,.21-.42,.41Z"/>
    <path d="M122.24,82.72c.63,.14,1.61,.14,2.09,0,.42-.21-.07-.34-1.26-.34-1.12,0-1.54,.14-.84,.34Z"/>
    <path d="M71.64,91.62c.84,.14,2.09,.14,2.79,0,.63-.21-.07-.34-1.61-.27-1.54,0-2.09,.14-1.19,.27Z"/>
    <path d="M71.15,93.75l24.08,.14-.14,41.38c-.14,22.74-.28,45.49-.35,50.49-.14,13.84-.14,14.66,1.05,13.7,1.47-1.23,1.61-.07,1.75,16.37,.07,8.01,.28,14.8,.42,15,.21,.14,.35-6.71,.35-15.28v-15.48h25.41c13.96,.07,25.76,0,26.32-.14,.84-.21,1.05,3.84,1.33,24.11l.35,24.32,.21-24.11c.14-23.09,.21-24.18,1.47-24.87,.77-.34,2.44-.69,3.84-.69s3.21-.27,4.12-.62c.98-.41,3.07-.89,4.75-1.1,1.68-.27,3.98-.96,5.17-1.51,2.44-1.3,11.73-7.06,12.22-7.74,.21-.21,1.54-1.1,3-1.99s3.21-2.4,3.84-3.43c.63-.96,1.4-2.12,1.75-2.47,.28-.41,2.37-3.36,4.61-6.58,4.05-5.82,5.3-8.49,5.86-12.74,.21-1.16,.56-2.47,.84-2.88,.21-.41,.63-2.53,.84-4.66,.21-2.19,.63-4.66,.98-5.48,.28-.82,.35-1.71,0-1.85-.28-.21-.56-1.3-.63-2.4,0-1.1-.49-3.97-1.12-6.37-1.26-5.27-2.16-10.21-2.02-11.37,0-.48-.07-.75-.28-.55-.49,.48-2.23-1.16-1.81-1.85,.14-.27-.07-.48-.42-.48-.42,0-.77-.34-.77-.69,0-.69-.56-1.44-2.58-3.7-.49-.55-.63-1.1-.42-1.37,.28-.21,.07-.41-.35-.41-.49,0-.84-.48-.84-1.03,0-1.1-2.93-5.62-4.75-7.19-2.58-2.33-6.28-4.8-7.12-4.8-.49,0-2.93-1.3-5.51-2.95-6.07-3.9-7.26-4.38-12.63-5.21-2.51-.34-6.07-1.03-8.03-1.37-2.16-.41-24.01-.62-56.19-.55-28.97,.07-41.81,.21-28.55,.34Zm86.41,2.12c.28,.34,2.72,.89,5.51,1.1,2.72,.27,5.03,.75,5.03,1.03s1.12,.75,2.44,.96c1.33,.27,2.44,.75,2.44,1.1s.7,.82,1.54,1.03c.77,.27,2.16,1.23,3,2.12s2.02,1.64,2.65,1.64,1.54,.41,2.02,.96c.56,.48,1.68,1.16,2.58,1.44,1.88,.55,4.26,2.4,4.26,3.29,0,.34,.49,1.03,1.05,1.58,.56,.62,1.05,1.64,1.05,2.4,0,.69,.28,1.3,.7,1.3,.35,0,.84,.75,1.12,1.64,.21,.96,.84,1.85,1.4,2.06s.98,.82,.98,1.44c0,.55,.28,1.03,.63,1.03s.91,.69,1.19,1.51c.21,.82,.91,1.92,1.4,2.47,.56,.48,.98,2.12,.98,3.63s.28,2.6,.63,2.4,.84,2.19,1.12,5.41,.77,5.69,1.12,5.41c.35-.21,.63,1.78,.63,4.52s-.28,4.73-.63,4.52-.84,1.92-1.12,4.73-.7,5.14-1.05,5.14c-.28,0-.7,1.23-.91,2.74s-.84,3.22-1.47,3.77c-.63,.62-1.12,1.51-1.12,2.06,0,.48-.49,1.03-1.05,1.3-.56,.21-1.05,.82-1.05,1.44,0,.55-.28,1.03-.7,1.03-.35,0-.84,.75-1.12,1.71-.21,.96-.7,1.71-1.05,1.71s-.91,.55-1.12,1.16c-.7,1.85-8.17,8.63-8.79,7.95-.35-.27-2.58,1.37-5.1,3.7-.49,.48-1.19,.89-1.54,.89s-1.33,.62-2.23,1.37-2.58,1.37-3.91,1.37c-1.26,0-2.37,.34-2.51,.69-.14,.41-2.02,.96-4.26,1.16-2.16,.21-3.98,.75-3.98,1.16s-.35,.27-.7-.27c-.63-.89-.77-.89-1.4,0-.56,.89-4.82,1.03-30.01,1.23l-29.32,.21V94.91l30.15,.14c17.45,.14,30.29,.48,30.5,.82Z"/>
    <path d="M123.43,104.16c1.33,.89,2.09,.89,2.09,0,0-.41-.7-.69-1.54-.69-1.33,0-1.4,.14-.56,.69Z"/>
    <path d="M115.61,105.74c-.49,.48-1.47,1.1-2.09,1.37-.7,.21-1.26,.82-1.19,1.3,0,.69,.14,.69,.42,0,.14-.41,.77-.82,1.26-.82,.56,0,1.4-.41,1.95-.96,.49-.55,1.75-1.1,2.65-1.3q1.61-.27-.21-.41c-1.05,0-2.3,.34-2.79,.82Z"/>
    <path d="M127.48,105.32c.42,.14,1.26,.14,1.75,0,.42-.21,.07-.34-.91-.34s-1.33,.14-.84,.34Z"/>
    <path d="M169.5,105.32c-.56,.21-1.33,.69-1.75,1.03-.35,.34-1.33,1.03-2.09,1.58-1.26,.89-1.26,.96-.14,1.03,.63,0,1.19-.27,1.19-.55,0-.62,2.65-2.06,5.24-2.95q1.4-.48,0-.48c-.77,0-1.88,.14-2.44,.34Z"/>
    <path d="M131.18,105.87c-.07,.41,.56,1.23,1.33,1.92,1.19,.96,1.4,.96,1.4,.14,0-.55-.42-1.03-.98-1.03s-1.19-.41-1.33-.89c-.21-.41-.42-.48-.42-.14Z"/>
    <path d="M163.36,110.74c-.49,.55-.56,.96-.21,.96,.7,0,1.75-1.3,1.4-1.71-.14-.07-.7,.21-1.19,.75Z"/>
    <path d="M136.83,111.97c.49,.55,1.05,.82,1.19,.75,.35-.41-.7-1.71-1.4-1.71-.35,0-.28,.41,.21,.96Z"/>
    <path d="M108.07,114.43c-.07,.55-.14,1.3-.07,1.64s-.28,.89-.77,1.16-.7,.69-.49,.89c.91,.89,2.09-.96,1.81-2.74-.14-1.1-.35-1.51-.49-.96Z"/>
    <path d="M138.09,115.74c0,1.16,.35,2.26,.7,2.47,.42,.27,.7-.55,.7-1.99s-.28-2.47-.7-2.47c-.35,0-.7,.89-.7,1.99Z"/>
    <path d="M160.35,117.31c-.35,2.81,.28,7.26,.84,6.37,.7-1.03,.63-8.56-.07-8.56-.28,0-.63,1.03-.77,2.19Z"/>
    <path d="M107.24,121.63c.21,1.1,.35,2.47,.35,2.88,0,.48,.28,.89,.56,.89s.7,.82,.91,1.78c.49,1.71,4.54,6.44,5.58,6.44,.28,0,.98,.48,1.54,1.03,.63,.55,2.3,1.03,3.84,1.03s2.72,.27,2.72,.69c0,.34,.49,.69,1.05,.69s1.05-.34,1.05-.69c0-.41,1.05-.69,2.37-.69s2.86-.48,3.49-1.03c.56-.55,1.33-1.03,1.68-1.03,.98,0,4.82-4.38,5.37-6.23,.28-.89,.77-1.78,1.05-1.99s.63-1.71,.91-3.43c.21-1.71,.21-2.53,0-1.92-.14,.69-.56,1.23-.84,1.23-.35,0-.77,1.23-.98,2.67-.35,2.81-.84,3.56-4.26,6.99-3,2.95-5.72,4.04-10.26,4.04-3.77,0-8.31-1.58-8.31-2.95,0-.27-.28-.48-.7-.48-1.95,0-5.58-5.75-5.58-8.91,0-1.16-.28-1.99-.63-1.71-.35,.21-.77,0-.98-.48-.14-.48-.14,0,.07,1.16Z"/>
    <path d="M191.14,124.3c0,.89-.49,2.12-1.05,2.74-.56,.55-1.05,1.3-1.05,1.64,0,.75-3.98,3.9-6.91,5.48-1.81,1.03-9.84,1.23-10.47,.27-.21-.34-1.12-.82-1.95-1.1-.91-.27-1.61-.82-1.61-1.16s-.42-.62-.84-.62c-1.12-.07-4.75-5.07-4.75-6.58,0-.55-.28-.89-.63-.62-1.05,.62,.42,3.97,2.93,6.78,1.26,1.37,2.51,2.47,2.79,2.47,.35,0,1.05,.48,1.61,1.03,.63,.55,2.3,1.03,3.77,1.03s2.79,.34,3,.82c.21,.69,.49,.69,1.26,.14,.56-.41,2.3-.96,3.91-1.16,1.81-.21,3.63-1.03,4.89-2.12,1.05-.96,2.16-1.78,2.44-1.78,.35,0,.56-.48,.56-1.03s.21-1.03,.56-1.03c.63,0,2.93-3.97,2.93-5.14,0-.55-.28-1.16-.7-1.37s-.7,.34-.7,1.3Z"/>
    <path d="M122.59,156.02c.42,.14,1.26,.14,1.75,0,.42-.21,.07-.34-.91-.34s-1.33,.14-.84,.34Z"/>
    <path d="M175.99,156.02c.63,.14,1.61,.14,2.09,0,.42-.21-.07-.34-1.26-.34-1.12,0-1.54,.14-.84,.34Z"/>
    <path d="M180.32,156.98c-1.88,.41-1.95,.48-.35,.55,.98,.07,2.51,.27,3.49,.41,.98,.21,1.26,.14,.7-.07-.56-.27-1.19-.69-1.4-.89-.21-.27-1.26-.27-2.44,0Z"/>
    <path d="M116.1,157.59c-.91,.41-.35,.48,1.75,.21,1.75-.21,3.28-.48,3.42-.62,.63-.55-3.84-.14-5.17,.41Z"/>
    <path d="M127.97,157.59c1.47,.27,2.86,.89,3,1.3s.63,.75,1.12,.75c.84,0,2.3,1.58,3.91,4.11,.35,.55,.84,.82,1.05,.55,.63-.62-2.93-4.45-5.65-6.03-1.19-.75-3.07-1.3-4.19-1.3-1.68,.07-1.61,.21,.77,.62Z"/>
    <path d="M169.36,157.8c-.49,.48-1.54,1.1-2.23,1.37s-1.12,.69-.91,.89c.49,.48,4.68-1.85,4.68-2.6s-.49-.69-1.54,.34Z"/>
    <path d="M172.5,157.39c.63,.14,1.61,.14,2.09,0,.42-.21-.07-.34-1.26-.34-1.12,0-1.54,.14-.84,.34Z"/>
    <path d="M185.55,159.65c.56,.34,1.4,.69,1.75,.69,.42,0,.21-.34-.35-.69s-1.33-.69-1.75-.69c-.35,0-.21,.34,.35,.69Z"/>
    <path d="M163.29,163.35c-.84,1.23-1.47,2.74-1.47,3.22,0,.89,1.26-.82,2.51-3.49,.28-.55,.84-1.23,1.26-1.51,.56-.34,.49-.55-.07-.55-.42,0-1.47,1.03-2.23,2.33Z"/>
    <path d="M188.83,162.46c.28,.89,.56,1.23,.77,.69,.14-.48-.07-1.23-.42-1.58-.56-.55-.63-.27-.35,.89Z"/>
    <path d="M108.77,164.65c0,.62-.28,1.16-.63,1.16-.28,0-.56,.89-.49,2.06,.07,1.1,.28,2.06,.49,2.06,.49,0,1.4-5.69,.91-6.1-.14-.14-.28,.21-.28,.82Z"/>
    <path d="M138.65,166.22c-.84,.75-.63,3.36,.28,4.25,.63,.62,.63,1.16,.07,2.33-.49,.89-.98,2.74-1.26,4.11-.21,1.44-.7,2.6-1.05,2.6-.42,0-.7,.41-.7,.82,0,1.3-4.96,5.34-6.98,5.75-.98,.21-2.3,.62-2.93,1.03-1.61,.82-4.75,.82-4.75-.07,0-.41-.84-.69-1.88-.69-1.88,0-6.49-2.6-6.49-3.63,0-.34-.28-.41-.63-.14-.35,.21-.91-.34-1.19-1.16-.21-.82-.91-1.92-1.4-2.47-.56-.48-.98-2.06-.98-3.43s-.49-3.15-1.05-3.84c-.91-1.23-1.05-1.23-1.05-.21,0,2.26,2.79,9.38,4.4,11.17,2.09,2.47,6.42,5.07,8.31,5.07,.91,0,2.02,.27,2.51,.62,1.05,.62,7.26-.55,7.89-1.51,.28-.34,.77-.48,1.12-.27s1.12-.21,1.61-.96c.56-.69,1.4-1.3,1.95-1.3,.49,0,1.12-.55,1.33-1.23,.28-.62,.91-1.58,1.4-2.06s.91-1.51,.91-2.26,.28-1.23,.63-1.03c.28,.21,.77-1.1,.98-2.88,.42-3.7-.28-9.38-1.05-8.63Z"/>
    <path d="M191.14,166.77c0,.62,.35,1.1,.7,1.1,.42,0,.7-.27,.7-.62,0-.41-.28-.89-.7-1.1-.35-.21-.7,.07-.7,.62Z"/>
    <path d="M160.42,169.17c0,1.16,.35,2.12,.7,2.12,.42,0,.7-.75,.7-1.64,0-.96-.28-1.92-.7-2.12-.42-.27-.7,.48-.7,1.64Z"/>
    <path d="M192.67,170.61c0,1.3,.14,1.85,.35,1.16,.14-.62,.14-1.71,0-2.4-.21-.62-.35-.07-.35,1.23Z"/>
    <path d="M160.42,173.96c0,3.56,5.24,11.65,7.54,11.71,.42,0,.84,.27,.84,.62,0,.75,1.12,1.1,5.24,1.78,2.58,.41,2.72,.34,1.4-.62-.77-.55-2.23-1.1-3.21-1.1s-2.44-.55-3.28-1.23c-.77-.62-2.09-1.64-2.86-2.19-.84-.55-1.47-1.37-1.47-1.92,0-.48-.42-1.03-.98-1.23-.63-.21-1.19-1.85-1.54-4.11-.49-3.9-1.68-5.14-1.68-1.71Z"/>
    <path d="M14.89,104.16c.21,.34,1.19,.69,2.16,.69,.91,0,1.68-.34,1.68-.69,0-.41-.98-.69-2.16-.69s-1.95,.27-1.68,.69Z"/>
    <path d="M282.16,103.95c.77,.75,3.21,.96,3.21,.21,0-.41-.84-.69-1.88-.69-.98,0-1.61,.21-1.33,.48Z"/>
    <path d="M9.72,105.32c-1.4,.55-3.56,2.47-3.56,3.15,0,.34,.49,.07,1.12-.48,.56-.62,1.54-1.1,2.09-1.1s.98-.27,.98-.62,.84-.82,1.95-.96q1.75-.27,.14-.34c-.98,0-2.16,.14-2.72,.34Z"/>
    <path d="M21.03,105.32c.63,.14,1.61,.14,2.09,0,.42-.21-.07-.34-1.26-.34-1.12,0-1.54,.14-.84,.34Z"/>
    <path d="M277.55,105.32c.42,.14,1.26,.14,1.75,0,.42-.21,.07-.34-.91-.34s-1.33,.14-.84,.34Z"/>
    <path d="M287.67,105.32c.63,.14,1.61,.14,2.09,0,.42-.21-.07-.34-1.26-.34-1.12,0-1.54,.14-.84,.34Z"/>
    <path d="M24.38,106.08c-.07,.48,.49,1.1,1.12,1.3,1.54,.62,3.7,2.4,3.7,3.15,0,.34,.49,1.03,1.05,1.58,.56,.62,1.05,1.78,1.05,2.67s.35,1.85,.7,2.06c.42,.21,.7,1.51,.7,2.81s-.28,2.33-.7,2.33c-.35,0-.7,.89-.7,1.99s-.42,2.47-.98,2.95c-.49,.55-1.12,1.64-1.4,2.4-.28,.82-1.05,1.64-1.68,1.85s-2.02,1.16-3.14,2.12c-1.68,1.58-2.51,1.78-6.91,1.78-2.72,0-5.17-.27-5.37-.62s-1.12-.82-1.95-1.1c-.91-.27-1.61-.82-1.61-1.16s-.49-.62-1.05-.62-1.05-.48-1.05-1.03-.28-1.03-.63-1.03c-1.26,0-3.56-4.66-3.56-7.26,0-1.99-.21-2.4-.84-1.78s-.56,1.44,.07,3.63c1.05,3.49,4.68,8.84,6,8.84,.28,0,1.26,.62,2.23,1.37,1.12,.82,2.86,1.37,4.47,1.37s2.72,.27,2.72,.69c0,.34,.49,.69,1.05,.69s1.05-.34,1.05-.69c0-.41,1.05-.69,2.37-.69s2.86-.41,3.35-.96c.56-.48,1.68-1.16,2.51-1.37,.84-.27,1.54-.75,1.54-1.03,0-.48,.98-1.78,3.63-4.8,.49-.62,.84-3.36,.91-7.26,0-5.07-.21-6.51-1.19-7.47-.7-.69-1.26-1.51-1.26-1.85,0-.96-3.49-4.04-4.61-4.04-.49,0-1.05-.41-1.19-.89-.28-.62-.42-.62-.42,.07Z"/>
    <path d="M290.95,106.08c0,.48,.56,1.1,1.26,1.3,.63,.27,1.4,.75,1.68,1.16,.35,.48,.56,.48,.56-.14,0-.48-.56-1.1-1.19-1.3-.7-.27-1.47-.75-1.75-1.16-.35-.48-.56-.48-.56,.14Z"/>
    <path d="M4.07,109.71c0,.41-.49,1.16-1.05,1.71-.56,.62-1.05,1.37-1.05,1.78s.63,.07,1.4-.82c1.26-1.44,1.88-3.43,1.05-3.43-.21,0-.35,.34-.35,.75Z"/>
    <path d="M269.87,110.67c-.7,.89-1.26,1.99-1.26,2.33,0,.41-.28,.75-.63,.75-.91,0-1.47,5.55-.98,9.45,.28,2.26,.98,4.04,2.02,5.21,.91,.96,1.68,2.06,1.68,2.47,0,1.1,6.49,4.8,8.59,4.8,1.05,0,1.88,.27,1.88,.69,0,.34,.63,.69,1.4,.69s1.4-.34,1.4-.69c0-.41,.98-.69,2.16-.69,3.28,0,8.03-3.01,10.54-6.78,2.79-4.04,.77-2.88-2.23,1.23-.56,.82-1.4,1.44-1.88,1.44s-.91,.27-.91,.55c0,.34-1.33,1.1-2.86,1.78-2.86,1.3-10.26,1.64-11.03,.62-.49-.62-2.51-1.92-4.75-3.08-.91-.41-1.61-1.16-1.61-1.64s-.49-1.37-1.12-1.99c-.63-.55-1.26-2.26-1.47-3.77s-.7-2.74-.98-2.74c-.84,0-.84-3.22,0-3.7,.28-.21,.77-1.51,.98-2.88s.98-2.88,1.61-3.29c.63-.48,1.05-1.23,.91-1.58-.14-.41-.84-.07-1.47,.82Z"/>
    <path d="M83.71,114.16c0,.75,.21,.96,.42,.41,.21-.48,.14-1.1-.07-1.3-.21-.27-.42,.14-.35,.89Z"/>
    <path d="M297.93,115.39c0,1.51,.21,1.85,.77,1.3s.56-1.1,0-2.06c-.63-1.1-.7-.96-.77,.75Z"/>
    <path d="M1,114.98c-.42,.69-.14,2.67,.49,3.29,.28,.27,.49-.48,.49-1.64,0-2.19-.28-2.67-.98-1.64Z"/>
    <path d="M299.4,119.02c0,.82-.35,1.71-.77,1.92-.35,.21-.7,1.37-.7,2.47,0,1.3,.28,1.92,.77,1.58,.42-.21,.63-1.16,.42-2.06-.14-.89,0-1.71,.35-1.78,.42-.14,.56-1.03,.35-1.92q-.28-1.58-.42-.21Z"/>
    <path d="M16.49,156.02c.49,.21,1.12,.14,1.33-.07,.28-.21-.14-.41-.91-.34-.77,0-.98,.21-.42,.41Z"/>
    <path d="M282.79,156.02c.63,.14,1.61,.14,2.09,0,.42-.21-.07-.34-1.26-.34-1.12,0-1.54,.14-.84,.34Z"/>
    <path d="M9.72,157.52c-.63,.41-.7,.75-.14,1.03,.42,.27,.77,.21,.77-.21,0-.34,1.05-.82,2.3-.96l2.23-.27-2.09-.07c-1.12-.07-2.51,.14-3.07,.48Z"/>
    <path d="M18.1,157.18c.14,.14,1.88,.41,3.77,.62,2.23,.27,3,.21,2.09-.21-1.33-.55-6.49-.96-5.86-.41Z"/>
    <path d="M275.53,158.28c-.91,.69-1.33,1.3-.91,1.37,.42,0,1.19-.41,1.68-.96,.42-.55,1.95-1.16,3.35-1.3l2.58-.27-2.51-.07c-1.68-.07-3.14,.34-4.19,1.23Z"/>
    <path d="M285.44,157.18c.14,.14,1.68,.41,3.42,.62,2.09,.27,2.65,.21,1.75-.21-1.33-.55-5.79-.96-5.17-.41Z"/>
    <path d="M25.71,159.65c.56,.34,1.54,.62,2.09,.62,.7,0,.56-.21-.35-.62-1.88-.82-3-.82-1.75,0Z"/>
    <path d="M292.35,159.65c.56,.34,1.4,.69,1.75,.69,.42,0,.21-.34-.35-.69s-1.33-.69-1.75-.69c-.35,0-.21,.34,.35,.69Z"/>
    <path d="M5.4,160.95c-2.02,2.06-2.3,3.15-.28,1.23,1.05-1.03,1.81-1.99,1.68-2.12s-.77,.27-1.4,.89Z"/>
    <path d="M270.57,162.05c-1.12,1.23-1.95,2.53-1.95,2.95s-.35,.82-.77,.96c-1.05,.34-1.12,11.44-.14,12.13,.42,.21,.91,1.1,1.19,1.92,.28,.89,.84,1.58,1.19,1.58s.63,.41,.63,.89c0,.96,2.44,3.22,3.42,3.22,.35,0,.98,.41,1.4,.96,.7,.82,4.75,1.78,7.75,1.78,2.37,.07,6.28-.89,6.28-1.44,0-.34,.49-.62,1.05-.62s1.61-.62,2.23-1.37c.7-.75,1.61-1.37,2.09-1.37s.91-.48,.91-1.03,.28-1.03,.56-1.03c.98,0,2.93-5.07,3.21-8.29,.14-1.64,.07-2.19-.07-1.1-.14,1.03-.63,1.71-.98,1.51-.35-.27-.63,.69-.63,1.99s-.49,2.81-1.05,3.43c-.56,.55-1.05,1.23-1.05,1.51,0,1.37-5.37,5.27-7.82,5.62-1.47,.14-2.65,.62-2.65,.89,0,.34-.91,.62-2.09,.62-1.12,0-2.09-.34-2.09-.69,0-.41-.91-.69-1.95-.69-2.23,0-7.61-3.49-8.31-5.34-.28-.62-.77-1.37-1.12-1.58-.35-.27-.84-1.85-.98-3.63-.21-1.71-.7-3.15-.98-3.15-.35,0-.63-.48-.63-1.03s.28-1.03,.63-1.03c.28,0,.77-1.37,.91-3.08,.28-2.33,.91-3.49,2.58-4.93,1.19-1.03,2.16-2.12,2.16-2.4,0-1.1-1.12-.41-2.93,1.85Z"/>
    <path d="M28.5,161.57c0,.41,.49,1.23,1.12,1.78,.56,.62,1.26,2.19,1.47,3.49,.21,1.37,.7,2.6,.98,2.81,.84,.48,.84,4.38,0,4.38-.28,0-.77,1.23-.98,2.67-.35,2.6-.91,3.7-3.42,6.1-2.37,2.4-3.42,2.95-5.86,3.36-1.33,.21-2.58,.69-2.79,.96-.49,.82-3.56,.82-4.05,0-.21-.27-1.68-.75-3.21-1.03-1.54-.21-3-.89-3.21-1.44-.28-.55-.7-1.03-1.12-1.03-1.88,0-5.44-5.96-5.44-9.18,0-1.71-.35-2.47-.98-2.47-2.3,0,2.58,11.17,5.24,11.99,.77,.27,1.19,.69,.98,1.03s.49,.82,1.54,1.1,2.09,.69,2.3,.89c.7,.89,6.21,1.92,7.12,1.37,.49-.34,1.88-.62,3.14-.62,1.19,0,2.65-.48,3.28-1.03,.56-.55,1.26-1.03,1.54-1.03,.42,0,2.86-2.47,5.86-5.89,1.33-1.58,1.47-13.36,.21-13.77-.49-.21-.91-.69-.91-1.16s-.63-1.58-1.4-2.47-1.4-1.23-1.4-.82Z"/>
    <path d="M295.84,162.66c0,.27,.49,.96,1.05,1.51,.56,.62,1.05,.75,1.05,.41s-.49-1.03-1.05-1.51-1.05-.62-1.05-.41Z"/>
    <path d="M1.63,165.61c-.77,1.99-1.05,5-.42,5,.35,0,.77-1.3,.91-2.95,.35-3.29,.28-3.84-.49-2.06Z"/>
    <path d="M297.93,167.66c0,1.44,.21,1.64,.63,.96,.35-.55,.49-1.37,.28-1.92-.56-1.44-.91-1.03-.91,.96Z"/>
    <path d="M95.09,212.05c0,5.62,.14,7.88,.21,4.93,.14-2.95,.14-7.54,0-10.28-.07-2.74-.21-.34-.21,5.34Z"/>
    <path d="M12.45,208.97c0,.34,.35,.69,.7,.69,.42,0,.7-.34,.7-.69,0-.41-.28-.69-.7-.69-.35,0-.7,.27-.7,.69Z"/>
    <path d="M14.54,208.97c0,.34,.49,.69,1.05,.69s1.05-.34,1.05-.69c0-.41-.49-.69-1.05-.69s-1.05,.27-1.05,.69Z"/>
    <path d="M17.33,208.97c0,.34,.35,.69,.7,.69,.42,0,.7-.34,.7-.69,0-.41-.28-.69-.7-.69-.35,0-.7,.27-.7,.69Z"/>
    <path d="M19.84,208.83c-.49,.75,1.05,1.51,3.14,1.51,.7,0,1.33,.27,1.33,.69,0,.34,.35,.69,.77,.69,1.81,0,5.65,4.86,6,7.6,.21,1.44,.7,2.67,.98,2.67,.35,0,.63,.89,.63,2.06,0,1.1-.28,2.06-.7,2.06-.35,0-.7,1.03-.7,2.33s-.42,2.81-.84,3.29c-.49,.55-1.26,1.51-1.68,2.26-.42,.69-1.33,1.58-2.02,1.99-.77,.41-1.75,1.16-2.3,1.58-.49,.48-1.54,.89-2.3,.89-.7,0-1.33,.27-1.33,.62,0,.41-1.33,.82-2.93,.96-1.68,.14-1.05,.21,1.4,.07,2.37-.14,4.82-.62,5.37-1.1,3.7-3.01,5.93-5.27,5.93-5.89,0-.41,.49-1.03,1.19-1.37,.91-.55,1.12-1.85,1.19-6.92,.07-3.97-.21-6.44-.7-6.78-.42-.27-.98-1.16-1.26-2.06-.28-.82-.84-1.51-1.19-1.51s-.63-.48-.63-1.03-.49-1.03-1.05-1.03c-.63,0-1.26-.48-1.47-1.03s-1.54-1.16-2.93-1.44c-1.47-.27-2.79-.75-3-1.16-.28-.41-.63-.34-.91,.07Z"/>
    <path d="M279.09,208.97c0,.34-.77,.69-1.75,.69s-1.95,.48-2.16,1.03c-.28,.55-.84,1.03-1.33,1.03-1.05,0-4.54,3.08-4.54,4.04,0,.34-.49,1.16-1.12,1.78-1.75,1.64-1.61,10.48,.14,13.84,1.47,2.88,4.68,6.37,5.79,6.37,.35,0,.98,.48,1.33,1.16,1.05,1.78,11.52,1.71,15.22-.14,4.96-2.47,9.49-8.97,8.31-11.78-.42-.96-.7-.55-1.12,1.71-.28,1.58-.98,3.36-1.47,3.84s-1.4,1.58-1.95,2.4c-.56,.75-1.4,1.44-1.88,1.44s-.91,.27-.91,.69c0,.34-1.12,.82-2.44,1.1-1.33,.21-2.44,.62-2.44,.89s-1.54,.55-3.49,.69c-1.88,.07-3.49-.14-3.49-.48s-.84-.82-1.88-1.03c-3.98-.75-9.28-6.85-9.28-10.62,0-1.16-.28-2.19-.7-2.19-.35,0-.7-.62-.7-1.37s.35-1.37,.7-1.37c.42,0,.7-1.03,.7-2.26,0-1.3,.56-2.95,1.26-3.77,.63-.75,1.68-2.06,2.23-2.81,.56-.82,1.4-1.44,1.95-1.44,.49,0,1.05-.41,1.26-.96,.21-.62,1.88-1.16,4.19-1.51,3.98-.48,5.17-1.64,1.68-1.64-1.12,0-2.09,.27-2.09,.69Z"/>
    <path d="M284.67,209.11c0,.27,.63,.55,1.4,.55s1.4-.27,1.4-.62c0-.41-.63-.62-1.4-.55s-1.4,.34-1.4,.62Z"/>
    <path d="M10.21,210.13c.49,.21,1.12,.14,1.33-.07,.28-.21-.14-.41-.91-.34-.77,0-.98,.21-.42,.41Z"/>
    <path d="M237.35,210.61c.49,.55,1.05,.82,1.19,.75,.35-.41-.7-1.71-1.4-1.71-.35,0-.28,.41,.21,.96Z"/>
    <path d="M289.42,210.13c.49,.21,1.12,.14,1.33-.07,.28-.21-.14-.41-.91-.34-.77,0-.98,.21-.42,.41Z"/>
    <path d="M8.26,210.96c0,.34-.77,.82-1.75,1.03-1.05,.27-1.61,.75-1.33,1.16,.28,.48,.63,.48,.91,.14,.21-.34,.98-.82,1.68-1.1,1.05-.41,1.75-1.85,.84-1.85-.21,0-.35,.27-.35,.62Z"/>
    <path d="M291.65,210.96c0,.69,1.33,1.71,1.75,1.37,.07-.14-.21-.69-.77-1.16s-.98-.55-.98-.21Z"/>
    <path d="M240.49,212.87c.7,.69,1.47,1.51,1.75,1.92,.35,.41,.56,.41,.56-.14,0-.96-1.95-2.95-2.86-2.95-.42,0-.14,.55,.56,1.16Z"/>
    <path d="M2.32,216.57c-.77,1.1-.07,1.3,.91,.21,.49-.55,.56-.96,.21-.96s-.91,.34-1.12,.75Z"/>
    <path d="M243.63,216.78c.49,.55,1.05,.82,1.19,.75,.35-.41-.7-1.71-1.4-1.71-.35,0-.28,.41,.21,.96Z"/>
    <path d="M297.44,217.4c.28,.69,.49,1.58,.49,1.92s.35,.62,.7,.62c1.05,0,.84-1.37-.49-2.6q-1.12-1.1-.7,.07Z"/>
    <path d="M.58,220.27c0,.96,.35,1.71,.7,1.71,.42,0,.7-.75,.7-1.71s-.28-1.71-.7-1.71c-.35,0-.7,.75-.7,1.71Z"/>
    <path d="M245.51,219.04c0,.34-.14,1.1-.28,1.71-.14,.69,.07,1.37,.42,1.64,.35,.21,.63-.62,.63-1.71,0-1.16-.14-2.12-.35-2.12s-.35,.21-.42,.48Z"/>
    <path d="M299.47,224.04c0,1.3,.14,1.85,.35,1.16,.14-.62,.14-1.71,0-2.4-.21-.62-.35-.07-.35,1.23Z"/>
    <path d="M94.81,232.6c0,5.62,.21,10,.42,9.8,.49-.48,.42-19.11-.07-19.59-.21-.21-.35,4.18-.35,9.8Z"/>
    <path d="M245.16,225.68c-.21,.96-.07,2.26,.35,2.95,.56,1.03,.7,.69,.77-1.71,0-3.22-.42-3.77-1.12-1.23Z"/>
    <path d="M1,225.55c-.56,1.23,.63,5.75,1.95,7.19,2.02,2.26,2.37,2.81,2.02,3.22-.28,.21,.07,.41,.7,.41s1.19,.27,1.19,.62,.7,.89,1.61,1.16c.84,.27,1.68,.69,1.88,.96s1.05,.69,1.95,.96c1.12,.41,1.54,.21,1.54-.55,0-.69-.63-1.1-1.54-1.1-2.37,0-8.24-4.25-8.24-5.89,0-.48-.35-.96-.84-1.1-.42-.14-1.05-1.78-1.26-3.7-.35-2.33-.63-3.01-.98-2.19Z"/>
    <path d="M243.49,231.71c-2.09,2.95-5.79,6.1-7.75,6.51-1.12,.21-2.02,.62-2.02,.96s-1.75,.62-3.84,.62-3.84-.34-3.84-.69c0-.41-.63-.69-1.33-.69-.77,0-1.81-.48-2.44-1.03-.56-.55-1.19-1.03-1.4-1.03-.63,0-3.21-2.67-3.21-3.36,0-.34-.49-1.03-1.12-1.51-1.05-.82-1.12-.75-.63,.75,.56,1.64,3.98,5.48,4.96,5.48,.28,0,1.12,.55,1.88,1.16,1.05,.96,2.58,1.23,7.19,1.23,3.28,0,6.14-.34,6.42-.69,.28-.41,1.68-1.3,3.14-1.99,1.4-.75,2.58-1.71,2.58-2.19s.42-1.16,.98-1.44c.84-.48,2.3-3.63,1.68-3.63-.14,0-.7,.69-1.26,1.51Z"/>
    <path d="M70.94,260.14c.49,.21,1.12,.14,1.33-.07,.28-.21-.14-.41-.91-.34-.77,0-.98,.21-.42,.41Z"/>
    <path d="M15.17,260.96c.56,.34,1.4,.48,1.88,.27,.42-.14,1.05,0,1.33,.41,.21,.41,1.47,.75,2.72,.75,1.33,0,2.72,.48,3.21,1.03s1.12,1.03,1.47,1.03c.84,0,3.42,2.19,3.42,2.95,0,.34,.49,1.03,1.05,1.58,.56,.62,1.05,1.92,1.05,3.01s.35,2.19,.7,2.4c.42,.21,.7,1.3,.7,2.47,0,1.1-.28,1.99-.7,1.99-.35,0-.7,.89-.7,1.99s-.42,2.47-.91,2.95-1.12,1.44-1.4,2.06c-.21,.62-1.33,1.71-2.37,2.4s-2.09,1.37-2.3,1.58c-1.54,1.85-9.77,2.53-12.77,1.1-4.61-2.33-7.47-4.45-7.47-5.62,0-.48-.35-.96-.77-1.1-.35-.14-.91-1.58-1.12-3.29-.21-1.64-.84-3.77-1.4-4.73-.91-1.64-.98-1.51-.49,1.99,.21,2.06,.63,3.9,.91,4.11,.21,.21,1.05,1.51,1.81,3.01,.77,1.44,2.16,2.95,3.14,3.36,.98,.48,2.02,1.16,2.3,1.64s1.19,.89,1.95,.89,1.19,.27,.98,.69c-.28,.41,1.61,.69,5.17,.69,3.21,0,5.65-.27,5.65-.69,0-.34,.49-.48,1.05-.27,.56,.27,1.05,.07,1.05-.34s.42-.75,.91-.75c1.12-.07,3.98-2.4,3.98-3.36,0-.41,.35-.75,.7-.75,.42,0,.7-.41,.7-.96s.56-1.51,1.19-2.19c1.75-1.64,1.75-11.92,0-13.56-.63-.69-1.19-1.51-1.19-1.92,0-.89-3.28-3.97-4.26-3.97-.42,0-1.19-.48-1.75-1.03-.63-.55-2.02-1.03-3.14-1.03s-2.02-.34-2.02-.69c0-.41-1.19-.69-2.58-.69-1.81,0-2.37,.21-1.68,.62Z"/>
    <path d="M121.89,260.96c.84,.48,4.33,.27,4.33-.34,0-.14-1.19-.27-2.58-.27-1.68,0-2.3,.21-1.75,.62Z"/>
    <path d="M228.13,260.62c0,.62,2.72,.89,3.56,.34,.7-.41,.28-.62-1.26-.62-1.26,0-2.3,.14-2.3,.27Z"/>
    <path d="M281.18,261.03c0,.34-.77,.69-1.68,.69-2.16,0-6,1.37-6,2.12,0,.34-.56,.62-1.19,.62-.91,0-.98,.21-.35,.82s1.12,.41,2.16-.75c.77-.82,2.51-1.71,4.05-1.92,1.47-.21,3.07-.69,3.49-1.1,.49-.34,1.54-.48,2.3-.27s1.4,.07,1.4-.27-.91-.62-2.09-.62c-1.12,0-2.09,.27-2.09,.69Z"/>
    <path d="M224.15,261.85c-1.26,.34-2.3,.89-2.3,1.23,0,.41-.49,.69-.98,.69-1.81,0-4.61,3.01-3.84,4.18,.42,.62,.63,.69,.63,.07,0-1.85,5.44-5.34,9.07-5.75,1.19-.14,1.4-.34,.7-.62-.56-.21-2.09-.14-3.28,.21Z"/>
    <path d="M11.96,262.2c.63,.14,1.61,.14,2.09,0,.42-.21-.07-.34-1.26-.34-1.12,0-1.54,.14-.84,.34Z"/>
    <path d="M116.45,262.2c-1.61,.62-4.47,2.95-3.63,2.95,.42,0,1.26-.48,1.81-1.03,.63-.62,2.44-1.37,4.05-1.64,2.37-.48,2.58-.62,.91-.62-1.12,0-2.58,.14-3.14,.34Z"/>
    <path d="M127.62,262.27c2.93,.69,7.68,3.56,7.68,4.73,0,.48,.49,1.1,1.12,1.44,.56,.34,1.26,1.85,1.47,3.43,.42,3.29,1.61,3.9,1.61,.82,0-1.16-.28-2.06-.7-2.06-.35,0-.7-.48-.7-1.03,0-.62-.42-1.23-.98-1.44s-1.19-1.1-1.4-2.06c-.28-.89-.91-1.64-1.4-1.64-.56,0-1.54-.48-2.16-1.1-.56-.62-2.44-1.23-4.05-1.37q-2.79-.21-.49,.27Z"/>
    <path d="M233.23,262.2c.63,.14,1.75,.14,2.44,0,.63-.21,.07-.34-1.26-.34s-1.88,.14-1.19,.34Z"/>
    <path d="M286.97,262.2c.63,.14,1.75,.14,2.44,0,.63-.21,.07-.34-1.26-.34s-1.88,.14-1.19,.34Z"/>
    <path d="M7.98,263.5c-.42,1.03-.28,1.03,.77,.21,.7-.48,1.4-1.03,1.54-1.1,.14-.14-.21-.21-.77-.21-.63,0-1.33,.48-1.54,1.1Z"/>
    <path d="M74.43,262.88c.49,.21,1.12,.14,1.33-.07,.28-.21-.14-.41-.91-.34-.77,0-.98,.21-.42,.41Z"/>
    <path d="M291.02,262.95c-.07,.48,.49,1.1,1.12,1.3,1.4,.55,3.35,2.4,3.91,3.7,.28,.75,.42,.75,.42-.07,.07-1.1-2.86-4.11-3.98-4.11-.42,0-.91-.41-1.05-.89-.28-.62-.42-.62-.42,.07Z"/>
    <path d="M240.42,265.69c1.12,1.16,2.58,2.81,3.21,3.7s1.19,1.23,1.26,.82c0-.41-.63-1.44-1.4-2.33s-1.4-1.99-1.4-2.53c0-.48-.28-.89-.63-.89s-1.19-.21-1.81-.48c-.77-.27-.42,.41,.77,1.71Z"/>
    <path d="M5.47,265.21c0,.34,.35,.48,.7,.27,.42-.21,.7-.55,.7-.75,0-.14-.28-.27-.7-.27-.35,0-.7,.34-.7,.75Z"/>
    <path d="M3.86,267.13c-.28,1.16-.21,1.44,.35,.89,.35-.34,.56-1.1,.42-1.58-.21-.55-.49-.21-.77,.69Z"/>
    <path d="M110.03,267.54c-.7,.89-1.26,1.92-1.26,2.33,0,.34-.28,.75-.7,.89s-.42,1.03-.14,2.26c.56,2.06,.63,1.99,1.05-.96,.21-1.64,.63-3.22,.98-3.43,1.12-.82,2.44-2.81,1.88-2.81-.35,0-1.19,.75-1.81,1.71Z"/>
    <path d="M269.87,267.34c-.7,.82-1.26,1.92-1.26,2.33,0,.48-.35,.96-.77,1.1-.98,.34-1.12,10.76-.14,11.37,.42,.27,.91,1.16,1.19,1.99,.49,1.37,3.21,4.45,6.42,7.06,1.54,1.23,7.19,1.85,11.45,1.3,2.51-.34,2.72-.48,1.05-.62-1.12-.07-2.37-.07-2.79,0-.35,.07-1.19,.14-1.75,.07s-2.09-.14-3.28-.14c-1.26-.07-2.09-.34-1.88-.69s-.28-.62-.98-.62c-.77,0-1.54-.48-1.81-1.03-.21-.55-.7-1.03-1.12-1.03-.98,0-2.79-1.71-2.79-2.67,0-.34-.49-.96-1.12-1.3s-1.26-1.92-1.47-3.63c-.21-1.64-.7-3.43-1.12-3.9-.49-.62-.49-1.1,0-1.37,.35-.27,.91-1.78,1.12-3.43s.91-3.36,1.61-3.84c.63-.48,1.05-1.23,.91-1.64-.14-.48-.77-.14-1.47,.69Z"/>
    <path d="M1.35,270.69c-.63,1.37-.7,2.33-.28,2.74,.49,.48,.84-.21,1.12-1.85,.28-1.44,.35-2.67,.28-2.74-.07-.14-.63,.75-1.12,1.85Z"/>
    <path d="M215.29,269.73c-.42,.96-.35,1.03,.35,.41,.49-.48,.7-1.03,.49-1.23s-.63,.14-.84,.82Z"/>
    <path d="M297.65,270.28c.56,2.53,.98,3.08,.98,1.3,0-.69-.35-1.78-.7-2.33-.56-.75-.63-.48-.28,1.03Z"/>
    <path d="M245.37,273.36c.21,.75,.49,1.37,.63,1.37s.28-.62,.28-1.37-.28-1.37-.63-1.37-.49,.62-.28,1.37Z"/>
    <path d="M299.4,275.14c0,.75,.21,.96,.42,.41,.21-.48,.14-1.1-.07-1.3-.21-.27-.42,.14-.35,.89Z"/>
    <path d="M107.24,278.16c.14,1.71,.35,3.49,.35,3.9,0,.48,.21,.89,.49,.89,.21,0,.98,1.03,1.68,2.19,1.95,3.29,3.56,4.66,4.68,3.9,.7-.41,.7-.62,.14-.62-1.05,0-3.7-2.12-3.7-2.95,0-.34-.49-1.03-1.05-1.58-.56-.62-1.05-2.26-1.05-3.77s-.28-2.67-.63-2.67-.84-.55-.98-1.23c-.14-.62-.14,.21,.07,1.92Z"/>
    <path d="M138.93,277.34c-.98,2.06-1.12,4.04-.21,4.52,.49,.27,1.68-5.75,1.19-6.23,0-.07-.49,.69-.98,1.71Z"/>
    <path d="M245.37,277.95c-.35,.89-.35,1.85-.14,2.26,.21,.34,.07,.69-.28,.69-.42,0-.77,.75-.77,1.64s-.49,1.78-1.05,2.06c-.56,.21-1.05,.69-1.05,1.1,0,.89-1.75,2.74-2.58,2.74-.35,0-1.12,.62-1.81,1.37-1.26,1.51-1.19,1.58,.49,.96,.63-.21,.91-.69,.7-1.03s.14-.62,.7-.62c1.4,0,4.54-3.36,5.1-5.48,.21-.96,.7-1.92,1.05-2.12s.56-1.44,.42-2.74c-.21-2.06-.28-2.19-.77-.82Z"/>
    <path d="M298.77,278.16c-.42,.75-.84,2.12-.84,3.01,0,.96-.49,2.12-1.05,2.74-.56,.55-1.05,1.23-1.05,1.58,0,.62-.77,1.3-4.54,4.25-1.95,1.51-2.02,1.58-.35,1.1,.98-.27,2.02-.96,2.3-1.44,.28-.55,1.05-.96,1.54-.96,.56,0,1.05-.48,1.05-1.03s.28-1.03,.56-1.03c.84,0,3.14-5.41,2.65-6.51-.14-.48,0-1.03,.42-1.16s.63-.62,.49-1.1c-.21-.55-.63-.34-1.19,.55Z"/>
    <path d="M137.39,283.3c0,.55-.21,1.03-.49,1.03-.35,0-1.12,.96-1.75,2.06-.63,1.16-1.75,2.06-2.44,2.06-1.05,0-1.05,.14-.28,.62,.7,.48,1.61,.07,2.93-1.3,1.81-1.71,3.42-5.48,2.44-5.48-.21,0-.42,.48-.42,1.03Z"/>
    <path d="M115.61,290.63c.42,.41,1.26,.55,1.95,.41,.98-.21,.84-.34-.63-.69-1.33-.21-1.75-.14-1.33,.27Z"/>
    <path d="M130.13,290.9c-.84,.75-2.58,1.03-6.77,1.03-3.14,0-5.51,.14-5.3,.34,.14,.21,2.72,.34,5.65,.34,4.33,0,5.65-.27,7.19-1.37,.98-.82,1.47-1.44,1.05-1.44s-1.26,.48-1.81,1.1Z"/>
    <path d="M17.05,313.37c.49,1.23,4.82,1.58,5.51,.41,.28-.41-.42-.69-1.68-.69-1.12,0-2.58-.21-3.14-.41-.84-.34-1.05-.14-.7,.69Z"/>
    <path d="M66.75,312.89c.49,.21,1.12,.14,1.33-.07,.28-.21-.14-.41-.91-.34-.77,0-.98,.21-.42,.41Z"/>
    <path d="M70.94,312.89c.42,.14,1.26,.14,1.75,0,.42-.21,.07-.34-.91-.34s-1.33,.14-.84,.34Z"/>
    <path d="M123.92,313.51c.21,.55,1.33,.96,2.65,.96,1.26,0,2.93,.21,3.63,.48,1.12,.41,1.12,.34,.21-.55-1.47-1.51-7.05-2.19-6.49-.89Z"/>
    <path d="M11.75,313.92c0,.27,.98,.55,2.09,.55,1.19,0,2.09-.34,2.09-.69,0-.41-.91-.62-2.09-.55-1.12,.07-2.09,.41-2.09,.69Z"/>
    <path d="M117.15,314.19c-4.26,2.26-8.38,6.03-8.38,7.6,0,.48-.28,.89-.63,.89-1.05,0-1.33,11.51-.28,12.26,.7,.55,2.09,2.74,3,4.66,.35,.89,.98,1.58,1.4,1.58s1.26,.48,1.81,1.03c.63,.55,1.47,1.03,1.88,1.03,.49,0-.49-1.16-2.09-2.6-1.68-1.44-3-2.81-3-3.08,0-.34-.49-1.03-1.05-1.58-.56-.62-1.05-1.99-1.05-3.08s-.28-1.99-.7-1.99c-.35,0-.7-.96-.7-2.06,0-1.16,.35-2.06,.7-2.06,.42,0,.7-.69,.7-1.58,0-2.4,.77-4.59,1.47-4.18,.35,.21,.63-.07,.63-.62s.84-1.58,1.81-2.26,2.3-1.71,2.86-2.26c.56-.48,2.37-1.1,4.12-1.3,1.68-.14,3.07-.62,3.07-.89,0-.89-3.63-.62-5.58,.48Z"/>
    <path d="M170.06,314.26c-1.12,.55-1.95,1.23-1.95,1.51,0,.34-.77,.82-1.75,1.03-1.05,.27-1.88,1.1-2.16,2.06-.21,.96-.84,1.85-1.4,2.06s-.98,.89-.91,1.58c0,.96,.14,1.03,.42,.21,.21-.55,.84-1.3,1.33-1.58,.56-.27,.98-.89,.98-1.23,0-.89,1.81-2.67,2.72-2.67,.35,0,.98-.48,1.33-1.1,.42-.75,1.88-1.23,4.26-1.51,1.95-.14,3.56-.55,3.56-.89,0-.96-4.33-.62-6.42,.55Z"/>
    <path d="M275.95,314.4c-2.37,1.23-6.63,5.27-6.63,6.17,0,.34-.49,1.16-1.12,1.71-1.68,1.71-1.61,9.86,.14,13.15,1.61,3.08,5.24,6.85,7.26,7.47,.77,.21,1.4,.75,1.4,1.1s.77,.62,1.75,.62,1.75-.34,1.75-.69c0-.41-.77-.69-1.68-.69-.98,0-2.16-.48-2.79-1.03-.56-.55-1.33-1.03-1.68-1.03s-1.26-.82-1.95-1.78-1.75-2.19-2.23-2.74c-.49-.48-1.05-2.26-1.26-3.97-.28-1.71-.84-3.15-1.19-3.15-.49,0-.49-.27,.07-.82,.49-.48,.84-1.92,.84-3.29,0-1.44,.56-3.15,1.26-3.97,.63-.75,1.81-2.19,2.51-3.15s1.61-1.78,1.95-1.78,1.12-.48,1.68-1.03c.63-.62,2.37-1.03,4.19-1.03,1.68,0,3.07-.27,3.07-.55,0-1.03-5.17-.69-7.33,.48Z"/>
    <path d="M284.74,313.71c-.63,.41-.07,.69,1.95,.89,1.75,.14,2.79,0,2.65-.48-.35-.89-3.35-1.23-4.61-.41Z"/>
    <path d="M6.44,316.86c-1.54,1.3-2.16,2.19-1.47,1.99,.63-.21,1.19-.69,1.19-1.03s.49-.62,1.05-.62c.49,0,1.26-.41,1.54-.96,.28-.48,1.05-1.1,1.61-1.3,.91-.27,.84-.41-.07-.41-.63-.07-2.37,1.03-3.84,2.33Z"/>
    <path d="M23.61,314.95c.56,.27,1.47,.82,1.95,1.37,.49,.48,1.4,.89,1.95,.89s.91,.27,.7,.55c-.21,.34,.28,1.3,1.05,2.12,.84,.82,1.61,2.74,1.81,4.25,.21,1.44,.7,2.67,.98,2.67,.35,0,.63,.89,.63,2.06,0,1.1-.28,2.06-.63,2.06-.28,0-.77,1.23-.98,2.74-.42,3.43-5.37,8.7-8.79,9.32-2.37,.48-2.93,1.64-.77,1.64,.77,0,1.4-.34,1.4-.69,0-.41,.42-.69,.98-.69s1.47-.41,1.95-.89,1.47-1.1,2.16-1.37c.63-.21,1.19-.89,1.19-1.51,0-.55,.28-1.03,.63-1.03s.91-.69,1.19-1.58c.28-.82,.77-1.71,1.19-1.99,.91-.55,.98-11.44,.07-12.06-.35-.27-1.26-1.64-2.02-3.15-.77-1.44-1.81-2.81-2.44-3.01-.56-.21-1.47-.82-1.95-1.3s-1.47-.89-2.09-.82c-.98,0-.98,.14-.14,.41Z"/>
    <path d="M68.5,314.95c1.05,.14,2.58,.14,3.49,0,.84-.14,0-.27-1.95-.27s-2.65,.14-1.54,.27Z"/>
    <path d="M131.46,315.84c-.21,.34-.14,.69,.28,.69,.35,0,1.26,.21,1.95,.48q1.19,.41,.07-.69c-1.33-1.37-1.68-1.44-2.3-.48Z"/>
    <path d="M290.95,315.84c0,.34,.35,.69,.77,.69,.35,0,.49-.34,.28-.69-.21-.41-.56-.69-.77-.69-.14,0-.28,.27-.28,.69Z"/>
    <path d="M293.05,316.73c0,.21,.91,1.23,1.95,2.33,1.12,1.03,2.37,2.88,2.79,3.97l.84,2.06-.42-2.06c-.21-1.16-.84-2.53-1.4-3.15-.56-.55-.98-1.51-.98-1.99s-.21-.69-.49-.48c-.21,.27-.84,.14-1.4-.27-.49-.41-.91-.62-.91-.41Z"/>
    <path d="M135.3,319.4c.77,.82,1.61,1.23,1.88,1.03,.21-.27-.14-.96-.91-1.51-2.02-1.51-2.58-1.23-.98,.48Z"/>
    <path d="M1.63,322.27c-.42,.41-.7,1.16-.63,1.58,.35,2.95,.49,3.01,.98,.55,.63-3.15,.63-3.22-.35-2.12Z"/>
    <path d="M137.04,322c-.21,.34-.07,.69,.28,.69,.42,0,.77-.34,.77-.69,0-.41-.14-.69-.28-.69-.21,0-.56,.27-.77,.69Z"/>
    <path d="M138.65,323.1c-.84,.75-.7,3.7,.14,3.7,.42,0,.7,.62,.7,1.3,0,.75-.28,1.58-.7,1.78-.84,.55-.91,4.25-.07,4.73,.28,.21,.77-1.23,.98-3.22,.35-3.97-.28-9.11-1.05-8.29Z"/>
    <path d="M83.71,324.47c0,.75,.21,.96,.42,.41,.21-.48,.14-1.1-.07-1.3-.21-.27-.42,.14-.35,.89Z"/>
    <path d="M160.42,329.13c0,2.88,.28,5.21,.63,5.21s.77,.69,1.05,1.58c.49,1.99,5.58,7.33,6.98,7.33,.56,0,1.12,.27,1.26,.62s1.95,.75,4.05,.96c2.09,.14,3.07,.14,2.09,0-.98-.21-2.02-.55-2.44-.89-.35-.34-1.88-.75-3.28-1.03-1.47-.27-2.44-.75-2.23-1.1s.07-.62-.28-.62c-.98,0-3.63-2.47-3.63-3.36,0-.41-.49-.96-1.05-1.16-.56-.27-1.05-.96-1.05-1.64,0-.75-.28-1.44-.56-1.64-.35-.21-.49-2.19-.42-4.45,.14-2.26-.07-4.32-.42-4.52-.42-.27-.7,1.58-.7,4.73Z"/>
    <path d="M.37,330.22c.21,1.71,.35,3.49,.42,3.9,0,.48,.28,.89,.63,.89,.28,0,.56,.48,.56,1.03s.28,1.03,.63,1.03,.91,.82,1.33,1.92c.42,1.16,1.75,2.4,3.35,3.22,1.54,.75,2.86,1.58,3.07,1.85s2.09,.62,4.19,.75c2.09,.21,3.07,.21,2.09,0-.98-.14-2.02-.62-2.37-.96-.42-.34-1.33-.62-2.16-.62-.77,0-2.58-.75-3.91-1.71-1.4-.89-2.72-1.51-2.93-1.3-.14,.21-.56-.48-.77-1.51-.28-.96-.98-2.26-1.47-2.81-.63-.55-1.05-2.33-1.05-4.18,0-2.19-.21-2.88-.63-2.26-.49,.75-.7,.62-.98-.69-.14-.89-.14-.27,0,1.44Z"/>
    <path d="M299.33,329.26c0,1.3-.28,2.26-.63,2.06s-.77,.82-.98,2.33-.84,3.22-1.47,3.77c-.63,.62-1.12,1.58-1.12,2.12,0,.48-.77,1.1-1.75,1.37-.98,.21-1.75,.69-1.75,.96,0,.34-.91,.75-2.09,1.03-2.16,.48-2.93,1.71-1.05,1.71,.56,0,1.05-.27,1.05-.62s.84-.82,1.81-1.03c3.77-.96,7.75-6.78,8.38-12.4,.28-2.06,.28-3.77,0-3.77-.21,0-.42,1.1-.42,2.47Z"/>
    <path d="M192.67,330.56c0,1.1,.14,1.51,.35,.82,.14-.62,.14-1.58,0-2.06-.21-.41-.35,.07-.35,1.23Z"/>
    <path d="M191.14,333.37c0,1.16-.42,2.53-.98,2.95-.56,.48-1.19,1.58-1.4,2.47s-1.12,1.85-1.95,2.12c-.84,.21-1.95,.89-2.51,1.37-.49,.55-1.54,.96-2.3,.96-.7,0-1.33,.27-1.33,.69,0,.34,.63,.69,1.4,.69s1.4-.27,1.4-.62,.7-.89,1.61-1.16c1.54-.48,5.58-4.38,5.1-4.93-.21-.14,.28-.89,1.05-1.71,1.47-1.58,1.61-2.4,.63-3.9-.49-.75-.7-.55-.7,1.1Z"/>
    <path d="M136.9,336.04c-.49,.55-.91,1.16-.91,1.44,0,.62-3.07,3.7-3.7,3.7-.35,0-1.05,.48-1.61,1.03-.63,.55-1.68,1.03-2.37,1.03s-1.54,.27-1.75,.69c-.21,.34-1.68,.69-3.21,.69s-2.72-.34-2.72-.69c0-.41-.77-.69-1.75-.69s-1.75,.27-1.75,.62c0,.89,6,1.58,9.28,1.03,2.79-.41,8.24-3.29,8.73-4.52,.14-.27,.7-.96,1.19-1.44,.77-.82,2.09-3.9,1.61-3.9-.14,.07-.63,.48-1.05,1.03Z"/>
    <path d="M282.09,345.09c.63,.14,1.75,.14,2.44,0,.63-.21,.07-.34-1.26-.34s-1.88,.14-1.19,.34Z"/>
    <path d="M12.86,365.64c-.28,.34-1.54,.96-2.72,1.37l-2.23,.89,2.44-.41c1.33-.27,2.58-.62,2.79-.89,.84-1.03,9.14,.07,10.96,1.44,.49,.34,.98,.34,1.19,0,.49-.75-1.12-1.51-3.14-1.51-.7,0-1.33-.34-1.33-.69,0-.82-7.19-.96-7.96-.21Z"/>
    <path d="M120.08,365.91c1.19,.62,6.63,.41,7.4-.41,.21-.21-1.68-.34-4.12-.34-3.35,.07-4.19,.21-3.28,.75Z"/>
    <path d="M173.48,365.84c.84,.34,2.37,.55,3.49,.41,1.05-.07,2.37,.14,2.86,.48,.56,.48,.84,.34,.84-.48,0-.89-.77-1.1-4.33-1.03-3.28,0-3.98,.21-2.86,.62Z"/>
    <path d="M279.92,365.91c1.19,.62,6.63,.41,7.4-.41,.21-.21-1.68-.34-4.12-.34-3.35,.07-4.19,.21-3.28,.75Z"/>
    <path d="M115.61,367.49c-.56,.48-1.61,1.1-2.3,1.37-1.26,.34-4.54,4.52-4.54,5.62,0,.55,1.81-1.51,3.49-3.77,.56-.82,1.4-1.44,1.81-1.44,.49,0,1.33-.41,1.88-.96,.49-.55,1.75-1.1,2.65-1.3q1.61-.27-.21-.41c-1.05,0-2.3,.34-2.79,.89Z"/>
    <path d="M128.46,367.01c.98,.14,2.23,.75,2.65,1.3,.49,.55,1.26,.96,1.68,.96s1.26,.69,1.81,1.44c.56,.82,1.47,1.85,1.95,2.4,.49,.48,1.12,2.33,1.47,4.04,.84,4.32,2.16,5.62,1.68,1.64-.21-1.64-.7-3.15-.98-3.22-.35-.14-.63-.62-.63-1.1s-.63-1.58-1.4-2.47-1.4-1.85-1.4-2.12c0-.34-.77-.75-1.68-1.03-.98-.21-1.88-.82-2.09-1.37-.21-.62-1.26-.89-2.65-.89-2.02,.14-2.09,.14-.42,.41Z"/>
    <path d="M168.66,367.49c-.56,.48-1.68,1.16-2.51,1.37-.84,.27-1.75,1.23-1.95,2.12s-.84,1.78-1.4,1.99-.98,1.03-.98,1.78-.28,1.37-.7,1.37-.7,2.06-.7,4.86c0,3.01,.28,4.66,.7,4.38s.7,.48,.7,1.71c0,1.16,.42,2.26,.98,2.47s1.19,1.1,1.4,2.06c.28,.89,.91,1.64,1.4,1.64,.56,0,1.12,.48,1.4,1.03,.21,.55,.77,1.03,1.19,1.03,.49,0,1.4,.48,2.09,1.1,1.88,1.71,10.89,1.44,14.1-.41,1.47-.82,2.58-1.78,2.58-2.12s.49-.62,1.05-.62,1.05-.48,1.05-1.03,.21-1.03,.56-1.03c.28,0,1.12-1.1,1.81-2.4,1.05-1.92,1.19-2.74,.56-3.9-.7-1.51-.77-1.44-.77,.62-.07,1.16-.49,2.6-1.05,3.08-.49,.55-1.12,1.58-1.4,2.26-.21,.75-1.68,2.12-3.21,3.08-1.54,.89-2.79,1.92-2.79,2.19s-2.51,.55-5.58,.55c-3.28,0-5.58-.27-5.58-.69s-.49-.69-1.05-.69c-.91,0-4.54-3.22-7.12-6.37-1.4-1.71-2.44-11.51-1.4-12.6,.28-.21,.49-.89,.49-1.37,0-1.37,5.17-6.23,7.82-7.4,1.81-.75,2.02-.96,.77-1.03-.84,0-1.95,.41-2.44,.96Z"/>
    <path d="M182.76,367.56c.98,.55,2.23,1.16,2.79,1.44,1.54,.82,3.49,2.53,3.49,3.22,0,.34,.49,1.03,1.05,1.58,.56,.62,1.05,1.64,1.05,2.4,0,.69,.28,1.3,.63,1.3,.91,0,.56-2.26-.42-3.29-.49-.48-.91-1.3-.91-1.71,0-.48-.77-1.44-1.75-2.19s-2.44-1.92-3.21-2.6c-.84-.62-2.16-1.16-3-1.16-1.4,0-1.33,.07,.28,1.03Z"/>
    <path d="M274.13,367.9c-3.77,3.08-4.54,3.9-5.79,6.3-1.33,2.6-1.81,11.99-.63,12.81,.28,.21,1.19,1.58,1.88,3.01,1.81,3.49,8.03,7.54,11.1,7.12q2.16-.27-.42-.34c-1.47-.07-2.51-.41-2.3-.75s-.35-.82-1.33-1.03c-.98-.27-1.75-.75-1.75-1.1,0-.41-.42-.69-.91-.69s-1.47-.96-2.09-2.06c-.7-1.16-1.54-2.06-1.81-2.06-.35,0-.84-1.44-1.12-3.29-.28-1.78-.84-3.63-1.19-4.11-.49-.55-.49-.82,0-.82,.35,0,.84-1.51,.98-3.36,.21-1.85,.77-3.84,1.33-4.38s1.47-1.64,2.02-2.47c.56-.75,1.4-1.44,1.81-1.44s1.19-.41,1.68-.96c.42-.55,1.47-1.16,2.3-1.3q1.33-.27-.28-.41c-.98,0-2.58,.55-3.49,1.3Z"/>
    <path d="M288.3,367.01c.98,.14,2.23,.75,2.65,1.3,.49,.55,1.12,.96,1.47,.96,.91,0,3.42,2.6,3.42,3.56,0,.62,.21,.62,.63-.07s.07-1.44-1.12-2.53c-.98-.89-2.09-1.64-2.44-1.64s-1.12-.48-1.68-1.03c-.63-.55-1.88-.96-2.93-.96l-1.88,.14,1.88,.27Z"/>
    <path d="M5.81,369.34c-.77,1.16-.14,1.23,1.33,.21,1.19-.82,1.19-.96,.28-.96-.63,0-1.4,.34-1.61,.75Z"/>
    <path d="M27.31,370.16c1.05,.89,1.88,1.78,1.88,2.12,0,.27,.49,.96,1.05,1.51,.56,.62,1.05,2.12,1.05,3.43s.35,2.33,.7,2.33c.42,0,.7,.75,.7,1.71s-.28,1.71-.63,1.71c-.28,0-.77,1.3-.98,2.81-.21,1.58-.7,3.08-1.05,3.29s-.84,1.1-1.12,1.92-1.19,1.71-2.02,1.99c-.84,.21-2.23,1.16-3.07,2.12-1.33,1.51-2.02,1.64-7.19,1.64-3.21,0-5.58,.14-5.37,.34,.14,.21,2.72,.34,5.65,.34,4.19,0,5.72-.27,7.05-1.3,.91-.75,1.47-1.51,1.26-1.78-.21-.21,.07-.41,.7-.41,1.26,0,4.68-2.88,4.68-3.97,0-.41,.49-1.23,1.12-1.85,1.75-1.64,1.75-11.99,.07-13.63-.63-.69-1.19-1.51-1.19-1.92,0-.96-3.35-3.97-4.4-3.97-.49,.07,0,.75,1.12,1.58Z"/>
    <path d="M2.81,372.83c-.49,.48-.84,1.1-.84,1.44s.49,.07,1.12-.55,.98-1.23,.84-1.37c-.14-.21-.7,.07-1.12,.48Z"/>
    <path d="M297.44,374.27c.28,.69,.49,1.71,.49,2.26s.35,.96,.7,.96c1.12,0,.84-2.06-.49-3.29q-1.12-1.1-.7,.07Z"/>
    <path d="M.65,375.91c0,.34,.28,1.16,.63,1.92,.56,1.23,.63,1.16,.63-.55,.07-1.03-.21-1.85-.63-1.85-.35,0-.7,.21-.63,.48Z"/>
    <path d="M107.72,376.12c-.21,.34-.07,1.23,.28,1.85,.63,1.1,.7,.96,.77-.69,0-1.92-.35-2.33-1.05-1.16Z"/>
    <path d="M192.74,381.26c0,1.85,.14,2.6,.28,1.51,.14-1.03,.14-2.53,0-3.43-.14-.82-.28,0-.28,1.92Z"/>
    <path d="M.37,382.56c.14,1.85,.84,4.32,1.47,5.48s1.12,2.26,1.05,2.47c0,.21,.77,1.16,1.81,2.19,1.4,1.23,2.23,1.58,2.93,1.16,.77-.48,.77-.62-.21-.62-.7,0-1.26-.34-1.26-.75,0-.34-.28-.55-.63-.27-.35,.21-.91-.34-1.19-1.16-.28-.89-.77-1.78-1.12-1.99-.42-.27-.91-1.85-1.05-3.63-.21-1.71-.63-2.95-.98-2.81-.28,.21-.7-.48-.84-1.51-.14-1.1-.14-.41,0,1.44Z"/>
    <path d="M107.17,382.63c.14,1.85,.35,3.84,.35,4.25,.07,.48,.35,.89,.63,.89s.77,.69,1.05,1.51c.77,2.4,4.05,5.34,5.24,4.59,.77-.48,.77-.62-.21-.62-.7,0-1.26-.34-1.26-.75,0-.34-.28-.55-.63-.27-.35,.21-.91-.34-1.19-1.16-.21-.82-.91-1.92-1.4-2.47-.56-.48-.98-1.85-.98-2.95s-.28-1.99-.63-1.99c-.42,0-.84-1.03-.98-2.26-.14-1.16-.14-.69,0,1.23Z"/>
    <path d="M299.54,381.26c0,1.51,.14,2.06,.28,1.16,.14-.82,.14-2.06,0-2.74-.21-.62-.35,.07-.28,1.58Z"/>
    <path d="M138.58,382.76c-.77,.69-.56,3.49,.21,3.97,.42,.27,.7-.55,.7-1.99,0-2.53-.14-2.81-.91-1.99Z"/>
    <path d="M297.93,385.64c0,1.1-.42,2.47-.98,2.95-.49,.55-1.19,1.64-1.4,2.47-.28,.82-.77,1.51-1.05,1.51-.49,0-1.47,.69-4.68,3.36-.49,.34-2.16,.75-3.84,.96l-3.07,.27,3.21,.07c2.16,.07,3.56-.21,4.12-.89,.49-.55,1.33-1.03,1.88-1.03,.49,0,1.12-.48,1.33-1.03,.28-.55,.84-1.03,1.4-1.03s.98-.48,.98-1.03,.28-1.03,.7-1.03c.35,0,.84-.75,1.12-1.71,.21-.96,.7-1.71,1.05-1.71,.84,0,.77-3.22-.07-3.77-.42-.27-.7,.41-.7,1.64Z"/>
    <path d="M137.39,387.7c0,.48-.42,1.23-.84,1.71-.49,.55-1.4,1.58-1.95,2.4-.56,.75-1.33,1.44-1.75,1.44s-1.33,.69-2.02,1.51c-1.12,1.3-1.19,1.37-.07,1.03,.63-.27,1.33-.48,1.47-.48,.21,0,.14-.34-.14-.75-.28-.48-.07-.69,.49-.48,1.75,.62,6.49-5.62,5.24-6.78-.21-.27-.42-.07-.42,.41Z"/>
    <path d="M8.26,395.3c.56,.34,1.68,.69,2.37,.69,1.81,0,1.26-.41-1.33-.96-1.54-.34-1.81-.27-1.05,.27Z"/>
    <path d="M115.26,395.57c.77,.55,1.75,.82,2.3,.62,1.26-.48,1.12-.62-1.47-1.16-1.95-.41-2.02-.34-.84,.55Z"/>
    <path d="M120.85,397.15c1.81,.14,4.68,.14,6.28,0s.14-.21-3.35-.21-4.75,.07-2.93,.21Z"/>
    <path d="M13.21,417.7c-2.23,.41-6.21,2.95-8.73,5.62-2.58,2.6-1.88,2.81,.91,.21,3.63-3.29,5.17-4.25,7.19-4.25,1.05,0,1.95-.34,1.95-.75s.63-.62,1.4-.41,1.61,.07,1.81-.27c.35-.62-1.54-.69-4.54-.14Z"/>
    <path d="M66.05,417.7c-1.12,.14-1.95,.62-1.95,.96s-.28,.62-.63,.62c-1.33,0-5.58,3.15-6.07,4.45-.28,.69-.91,1.71-1.4,2.26-.56,.48-.98,1.44-.98,2.06,0,.82,.49,.48,1.4-.89,.77-1.16,1.4-2.4,1.4-2.74,0-.41,.7-1.16,1.47-1.71,.84-.55,1.95-1.44,2.44-1.92,.56-.48,2.09-1.1,3.42-1.3s2.44-.69,2.44-.96c0-.34,.98-.62,2.09-.62,1.19,0,2.09,.27,2.09,.69,0,.34,.28,.69,.56,.69,.35,0,.63-.48,.63-1.03,0-1.03-2.37-1.23-6.91-.55Z"/>
    <path d="M123.78,417.7c.77,.21,1.54,.55,1.75,.82,.21,.34,1.75,.75,3.49,.96,2.93,.41,3,.41,1.4-.48-.98-.55-3.14-1.1-4.89-1.3-1.75-.14-2.51-.14-1.75,0Z"/>
    <path d="M172.85,417.7c-2.44,.34-2.58,1.58-.21,1.58,.98,0,1.75-.27,1.75-.55,0-.34,.98-.62,2.09-.69,1.19,0,2.09,.27,2.09,.62s.98,.62,2.09,.62c1.19,0,2.09-.34,2.09-.75,0-.48-.7-.62-1.75-.48-.98,.21-1.95,.07-2.16-.21-.35-.62-2.44-.69-6-.14Z"/>
    <path d="M227.5,417.84c-.49,.34-1.54,.41-2.23,.27-.7-.21-1.33,0-1.33,.41s.98,.75,2.09,.75c1.19,0,2.09-.27,2.09-.62s.84-.82,1.95-.96q1.81-.27,.14-.34c-.98-.07-2.16,.14-2.72,.48Z"/>
    <path d="M280.13,417.91c-.28,.41-.7,.55-1.05,.34-.63-.41-3.42,.75-4.19,1.64-.21,.27-1.12,.82-2.09,1.23-1.68,.75-1.68,.82-.21,.82,.84,.07,2.02-.41,2.58-1.03,.63-.55,2.23-1.23,3.56-1.44,1.4-.21,2.44-.75,2.44-1.3,0-1.16-.42-1.23-1.05-.27Z"/>
    <path d="M281.88,418.39c0,.82,.21,.96,.56,.48,.28-.48,1.12-.96,1.88-1.16,1.05-.27,.98-.34-.49-.41s-1.95,.27-1.95,1.1Z"/>
    <path d="M18.73,418.52c0,.34,1.26,.75,2.79,.96s3.28,.82,3.84,1.44c.63,.62,1.68,1.1,2.3,1.03,.98,0,.98-.14,.14-.41-.56-.27-1.47-.82-1.95-1.37-.49-.48-1.4-.89-1.95-.89s-.98-.21-.98-.55c0-.27-.98-.55-2.09-.62-1.19-.07-2.09,.14-2.09,.41Z"/>
    <path d="M73.87,418.52c0,.34,.98,.82,2.09,1.1,1.19,.27,2.09,.69,2.09,1.03,0,.27,.77,.75,1.75,.96,1.05,.27,1.88,1.1,2.16,2.19,.28,.96,.56,1.58,.77,1.44,.63-.69-.7-3.9-1.61-3.9-.56,0-.98-.34-.98-.69,0-.41-.21-.69-.49-.62-1.12,.14-3.7-.96-3.7-1.51,0-.34-.49-.62-1.05-.62s-1.05,.27-1.05,.62Z"/>
    <path d="M117.15,418.59c0,.34-.42,.69-.91,.69s-1.75,.75-2.79,1.71-1.88,1.51-1.88,1.23c0-.55-1.47,1.78-2.51,3.9-.28,.55-.84,1.23-1.19,1.44-.42,.27-.42,1.3-.14,2.4q.56,1.92,1.12-.96c.77-4.11,5.79-9.04,9.7-9.52,3.28-.48,3.77-1.58,.7-1.58-1.12,0-2.09,.27-2.09,.69Z"/>
    <path d="M231.97,418.59c-.28,.41,.56,.69,2.02,.69,1.33,0,2.86,.48,3.49,1.03,.56,.55,1.33,1.03,1.68,1.03s1.26,.82,1.95,1.78c2.3,3.08,3.77,4.59,3.77,3.97,0-.69-1.47-2.81-3.84-5.34-2.65-2.88-8.03-4.8-9.07-3.15Z"/>
    <path d="M286.07,418.59c-.84,.48-.56,.69,.98,.69,3.7,0,9.63,4.86,10.61,8.56,.35,1.37,.63,1.64,1.26,1.03,.49-.48,.49-.89,.07-1.23-.91-.62-2.37-2.88-2.93-4.45-.21-.69-1.05-1.58-1.88-1.92-.77-.34-2.37-1.23-3.56-1.92-2.44-1.58-3.14-1.64-4.54-.75Z"/>
    <path d="M168.1,419.96c0,.34-.77,.82-1.68,1.1-1.05,.21-1.88,1.1-2.09,2.06-.28,.96-.77,1.51-1.12,1.3-.42-.21-.7-.14-.7,.27,0,.34-.21,1.23-.42,1.92-.35,.89-.14,.82,.84-.34,1.75-2.19,3.98-4.32,5.93-5.82,1.33-.96,1.4-1.16,.42-1.16-.63,0-1.19,.27-1.19,.69Z"/>
    <path d="M184.44,420.3c.56,.55,1.19,1.03,1.4,1.03,.91,0,3,2.6,4.4,5.41,.84,1.58,1.68,2.6,1.88,2.19,.7-1.03-3.42-7.12-5.72-8.49-2.58-1.44-3.35-1.51-1.95-.14Z"/>
    <path d="M218.78,422.36c-1.75,1.64-3.21,3.49-3.21,4.11,0,.55-.35,1.03-.77,1.03-.49,0-.63,.69-.35,1.71,.28,1.1,.14,1.71-.35,1.71s-.63,.96-.35,2.88c.21,1.64,.42,3.63,.42,4.45,0,.89,.35,1.58,.7,1.58,.42,0,.7,.48,.7,1.03s.35,1.03,.7,1.03,.63,.21,.56,.48c-.28,1.03,1.61,3.63,2.58,3.63,.56,0,1.05,.27,1.05,.69,0,.34,.77,.82,1.75,1.1,.98,.21,1.75,.69,1.75,1.03s.63,.62,1.47,.62c1.88,0,1.12-1.1-1.12-1.64-3.7-.89-8.73-6.78-8.73-10.28,0-.96-.28-1.78-.63-1.78s-.63-.96-.63-2.06c.07-1.16,.28-2.06,.56-2.06s.7-1.23,.91-2.81c.28-2.26,1.05-3.43,4.05-6.17,2.02-1.85,3.35-3.36,2.93-3.36s-2.23,1.37-3.98,3.08Z"/>
    <path d="M132.71,421.47c1.05,.34,1.88,.89,1.88,1.16s.56,1.1,1.26,1.85c.77,.75,1.54,1.78,1.75,2.33,.28,.82,.42,.75,.42-.14,.07-1.64-4.4-6.03-6-5.96-.84,0-.63,.27,.7,.75Z"/>
    <path d="M28.5,423.39c0,.41,.35,.69,.77,.69,.35,0,.49,.27,.28,.69-.21,.34-.07,.69,.28,.69,1.19,0,.91-1.85-.28-2.33-.56-.21-1.05-.07-1.05,.27Z"/>
    <path d="M270.29,423.25c-.42,.27-1.05,1.23-1.33,2.19s-.77,1.85-1.05,2.06c-.91,.62-1.33,6.23-.49,5.96,.49-.14,1.05-1.85,1.26-3.84,.28-2.19,.98-3.9,1.68-4.45,1.33-.96,1.26-2.74-.07-1.92Z"/>
    <path d="M83.71,425.78c0,.75,.35,2.47,.84,3.77,1.19,3.15,1.54,8.49,.49,7.88-.42-.27-.7,.27-.7,1.3,0,.89-.42,2.12-.91,2.6s-1.12,1.44-1.4,2.12c-.21,.62-1.26,1.51-2.23,1.99-.98,.41-1.75,1.03-1.75,1.3s-.91,.69-2.09,.96c-1.12,.27-2.09,.75-2.09,1.1,0,.75-5.79,.82-6.63,0-.42-.27-1.75-.75-3-1.03-2.16-.34-2.23-.34-1.19,.75,1.75,1.71,12.15,1.71,13.89,0,.7-.62,1.54-1.16,1.95-1.16,1.19,0,4.75-4.18,6.21-7.33,1.75-3.7,1.68-9.25,0-12.88-.91-1.85-1.4-2.26-1.4-1.37Z"/>
    <path d="M1.56,427.09c-.42,.48-.7,1.58-.63,2.53,.28,2.6,.49,2.53,1.05-.41,.63-3.15,.63-3.22-.42-2.12Z"/>
    <path d="M31.08,428.59c.21,1.44,.7,2.95,.98,3.29,.84,.96,.77,3.15-.07,3.15-.35,0-.7,.96-.7,2.12,0,1.23-.7,3.22-1.47,4.52-1.75,2.74-6.49,6.37-8.45,6.37-.7,0-1.26,.27-1.26,.69,0,.34,.63,.69,1.4,.69,1.33,0,1.88-.34,4.4-2.47,.49-.34,1.4-.89,2.09-1.16,.63-.21,1.19-.89,1.19-1.51,0-.55,.28-1.03,.63-1.03s.91-.69,1.19-1.58c.28-.82,.77-1.71,1.19-1.99s.77-2.88,.77-6.03c0-4.25-.28-5.75-1.19-6.64-1.05-1.03-1.12-.96-.7,1.58Z"/>
    <path d="M138.65,427.91c-.84,.75-.63,3.36,.21,4.18,.63,.62,.63,1.3,0,2.74-.56,1.3-.63,2.6-.21,3.63,.56,1.44,.7,1.16,.98-1.78,.42-4.04-.28-9.52-.98-8.77Z"/>
    <path d="M160.42,433.32c0,3.29,.28,5.14,.63,4.59,.77-1.3,.84-7.88,0-9.11-.35-.62-.63,1.03-.63,4.52Z"/>
    <path d="M245.23,429c-.28,.69-.28,1.78,0,2.4q.56,1.16,.84,0c.21-.62,.21-1.71,0-2.4q-.28-1.1-.84,0Z"/>
    <path d="M53.63,431.4c0,1.99,.84,1.64,1.19-.48,.14-.75-.14-1.37-.49-1.37-.42,0-.7,.82-.7,1.85Z"/>
    <path d="M192.74,433.32c0,2.26,.14,3.08,.28,1.85s.14-3.08,0-4.11-.28,0-.28,2.26Z"/>
    <path d="M299.54,433.66c0,2.06,.14,2.95,.28,1.85,.14-1.03,.14-2.67,0-3.77-.14-1.03-.28-.14-.28,1.92Z"/>
    <path d="M.37,435.72c.21,2.06,.56,3.9,.91,4.11,.28,.21,.7,.82,.98,1.37,.21,.55,.28,.27,.07-.69-.14-.96-.35-2.6-.35-3.63,0-1.1-.28-1.78-.63-1.51-.35,.21-.84-.48-.98-1.51-.14-1.1-.14-.21,0,1.85Z"/>
    <path d="M107.17,435.72c.21,2.06,.56,3.9,.91,4.11,.28,.21,.7,1.03,.98,1.85,.28,.89,.84,1.58,1.19,1.58s.63,.41,.63,.96,.35,1.23,.77,1.44c.98,.62,1.88-.27,.91-.89-1.54-1.03-3.77-5.55-3.77-7.6,0-1.23-.28-2.06-.63-1.78-.35,.21-.84-.48-.98-1.51-.14-1.1-.14-.21,0,1.85Z"/>
    <path d="M53.63,436.13c0,1.44,.28,2.26,.7,1.99,.42-.21,.7-1.3,.7-2.47,0-1.1-.28-1.99-.7-1.99-.35,0-.7,1.1-.7,2.47Z"/>
    <path d="M245.65,434.89c-.35,.62-.84,2.33-1.12,3.77-.28,1.37-.77,2.53-1.12,2.53s-.63,.41-.63,.82c0,1.3-5.03,5.41-7.12,5.82-1.12,.21-1.95,.62-1.95,.96,0,.89,2.72,.75,3.84-.27,2.3-1.99,3.14-2.53,3.77-2.53,.35,0,.91-.62,1.12-1.37s.7-1.37,.98-1.37c.7,0,2.65-4.73,3-7.4,.35-2.47,.21-2.74-.77-.96Z"/>
    <path d="M267.22,436.74c0,1.3,.35,2.4,.7,2.4,.42,0,.7,.62,.7,1.37s.49,1.58,1.05,1.78c.56,.27,1.05,1.03,1.05,1.71s.28,1.3,.56,1.3c.35,0,1.33,.62,2.23,1.37s2.02,1.37,2.51,1.37,.98,.34,1.12,.82c.21,.48,2.37,.82,6.28,.82,4.75,.07,6.28-.21,7.33-1.16,.77-.62,1.61-1.16,1.88-1.16,2.02,0,7.47-8.43,6.21-9.66-.49-.48-.91,0-1.19,1.71-.28,1.37-.77,2.47-1.05,2.47-.35,0-.84,.75-1.05,1.71-.28,1.03-1.12,1.85-2.16,2.12-.98,.21-1.75,.69-1.75,.96,0,.34-.91,.75-2.09,1.03-1.12,.27-2.09,.75-2.09,1.1,0,.82-5.24,.82-6.84,0-.63-.41-2.02-.82-3.07-1.03-1.61-.34-4.68-2.88-7.4-6.17-.49-.55-1.05-2.47-1.33-4.18-.49-3.63-1.61-4.11-1.61-.69Z"/>
    <path d="M190.86,439.07c-.21,1.51-.7,2.81-1.05,2.81s-.84,.75-1.05,1.64c-.21,.96-1.12,1.92-1.95,2.19-.84,.21-1.95,.89-2.51,1.37-.49,.55-1.54,.96-2.3,.96-.7,0-1.33,.27-1.33,.69,0,.82-5.72,.89-6.63,.07-.42-.27-1.75-.75-3-1.03-2.16-.34-2.23-.34-1.19,.75,1.75,1.71,12.15,1.71,13.89,0,.7-.62,1.54-1.16,1.88-1.16,1.12,0,4.33-3.49,5.79-6.3,.91-1.71,1.05-2.81,.63-3.63-.56-.96-.77-.62-1.19,1.64Z"/>
    <path d="M55.09,439.48c0,.82,.49,2.12,1.19,3.01,2.51,3.22,4.33,5.07,4.75,4.66,.28-.21-.42-1.16-1.4-2.06s-1.81-1.99-1.81-2.4-.42-1.03-.98-1.3-1.12-1.16-1.33-1.92q-.35-1.37-.42,0Z"/>
    <path d="M161.89,439.48c0,.82,.49,2.12,1.19,3.01,2.44,3.15,4.33,5.07,4.75,4.73,.21-.21-.49-1.37-1.61-2.47-3-3.29-3.56-3.97-3.91-5.34-.28-1.23-.35-1.16-.42,.07Z"/>
    <path d="M137.39,440.51c0,1.23-6.28,6.85-8.24,7.26-1.05,.27-2.23,.69-2.58,1.03-.42,.27-1.81,.69-3.14,.82s-.42,.21,2.02,0c2.44-.14,4.82-.62,5.37-1.1,2.3-1.99,3.07-2.53,3.77-2.53,.35,0,.7-.27,.7-.55,0-.34,.63-1.3,1.4-2.19,1.26-1.44,1.88-3.43,1.05-3.43-.21,0-.35,.27-.35,.69Z"/>
    <path d="M3.79,443.25c.56,2.12,1.47,3.15,2.16,2.47,.28-.27,.21-.69-.21-.96s-1.12-1.1-1.61-1.85q-.77-1.23-.35,.34Z"/>
    <path d="M6.86,446.68c0,.34,.77,.82,1.75,1.1,.98,.21,1.75,.69,1.75,1.03s.63,.62,1.47,.62c2.02,0,1.05-1.16-1.47-1.71-1.19-.27-2.09-.75-2.09-1.1s-.28-.62-.7-.62c-.35,0-.7,.27-.7,.69Z"/>
    <path d="M113.66,446.68c0,.34,.77,.82,1.75,1.1,.98,.21,1.75,.69,1.75,1.03s.63,.62,1.47,.62c2.02,0,1.05-1.16-1.47-1.71-1.19-.27-2.09-.75-2.09-1.1s-.28-.62-.7-.62c-.35,0-.7,.27-.7,.69Z"/>
    <path d="M15.1,449.9c.84,.14,2.09,.14,2.79,0,.63-.21-.07-.34-1.61-.27-1.54,0-2.09,.14-1.19,.27Z"/>
    <path d="M228.69,449.9c.84,.14,2.23,.14,3.14,0,.84-.14,.14-.27-1.61-.27s-2.44,.14-1.54,.27Z"/>
  </g>
</svg>