<?xml version="1.0" encoding="UTF-8"?>
<svg id="Layer_1" data-name="Layer 1" xmlns="http://www.w3.org/2000/svg" viewBox="0 0 580 300">
  <path d="M471.89,148.65c1.18,.14,2.22,.54,2.22,.95,0,.34,.49,.61,1.04,.61s1.04-.27,1.04-.61c0-.75-2.57-1.43-4.87-1.29-1.32,.07-1.18,.14,.56,.34Z"/>
  <path d="M528.49,149.2c-.76,.82-.7,1.02,.21,1.02,.56,0,1.04-.48,1.04-1.02,0-1.22-.14-1.22-1.25,0Z"/>
  <path d="M24.82,199.83c13.73-.44,24.88-.4,24.9,0s.68,2.57,1.54,4.54c1.29,2.95,.9,3.17-1.55,1.25-2.04-1.53-11.62-2.22-26.35-1.95C10.61,203.88,.03,203.22,0,202.22c-.03-.8,11.09-1.95,24.82-2.4Z"/>
  <path d="M53.02,284.79c-3.46-1.89-6.52-3.21-8.48-3.75-.63-.47-1.29-.9-1.96-1.31-1.03-.96-2.14-1.81-3.31-2.52-1.24-1.73-3.76-4.15-8.06-8.28l-9.81-9.58c-.26-.44-.51-.89-.8-1.3-.48-.7-1.03-1.29-1.61-1.83l-5.88-11.27c-3.39-6.28-6.65-14.76-7.36-18.53q-1.22-6.95,1.82,.94c5.89,16.19,14.04,27.91,27.77,40.24,14.56,13.11,27.58,21.68,29.7,19.41,.78-.62,1.39-.24,1.42,.95,.11,3.39-1.5,3.04-13.45-3.16Z"/>
  <path d="M152.66,247.35c24.58-.18,24.98-.18,24.82,4.54,.02,2.46-.58,3.29-1.19,2.06-.62-1.84-7.07-2.62-22.58-2.5l-21.56,.16,.86,7.59c1.07,8.82,9.82,20.45,20.55,27.96,7.69,5.28,24.05,9.47,21.6,5.59-.61-1.23-.42-2.66,.78-3.49s2.02,.81,2.04,3.88q.04,4.92-9.86,2.33c-19.38-4.99-35.21-20.88-38.56-38.5l-1.68-9.43,24.78-.18Z"/>
  <path d="M58.23,229.5c-1.97-3.95-2.44-5.69-1.08-9.27,.33,.56,.72,1.05,1.14,1.48,.14,.28,.3,.56,.47,.81,.33,.69,.7,1.34,1.17,1.9,.09,.17,.17,.34,.27,.5,.11,.23,.26,.43,.38,.65,.32,.82,.73,1.55,1.23,2.19,.57,1.04,1.22,2.03,2.04,2.87,.05,.09,.09,.19,.14,.27,.54,.66,1.08,1.31,1.62,1.97,0,.01,.02,.02,.03,.03,.38,.41,.81,.73,1.26,1.02,1.37,1.47,3.02,2.83,4.83,3.79,.14,.14,.27,.3,.43,.44,.85,.77,1.81,1.45,2.82,2.05,.14,.12,.27,.25,.42,.37,1.47,1.17,3.07,1.92,4.72,2.3,.88,.55,1.16,1.27,.72,1.89-1.92,2.26-19.42-9.56-22.59-15.25Z"/>
  <path d="M72.55,291.15c2.8,.51,10,1.28,16.38,1.67l11.19,1.04-.89-21.74-1.09-21.73-7.05-2.37-7.05-2.37,6.8,.98c3.6,.48,7.39,.76,8.39,.73s2.15,11.31,2.59,25.08l.8,24.94-9.59-1.09c-5.2-.63-13.02-2.18-17.44-3.43-4.43-1.46-5.85-2.21-3.04-1.7Z"/>
  <g>
    <path d="M356.01,299.75h49.61s49.61,0,49.61,0v-74.92s0-75.08,0-75.08l-49.92,.3c-27.51,.15-49.92,.75-49.61,1.21,.15,.45,.3,34.07,.3,74.62v73.87Zm4.96-4.07c-1.5-.6-1.95-16.28-1.95-71.46v-70.7s46.31,.3,46.31,.3l46.16,.45v70.55c0,61.36-.3,70.55-2.26,71.16-2.86,.9-85.85,.6-88.25-.3Z"/>
    <path d="M428.62,291.16c1.35-.3,3.46-.3,4.51,0,.9,.45-.15,.75-2.71,.75-2.41,0-3.31-.3-1.8-.75Z"/>
    <path d="M392.09,284.98c.9-1.96,2.1-3.17,2.71-2.71,.45,.6-.3,2.11-1.8,3.62q-2.71,2.41-.9-.9Z"/>
    <path d="M442,285.43c.6-.9,1.8-3.32,2.56-5.43,.9-2.26,1.5-2.71,1.5-1.21,.15,1.36-1.05,3.77-2.41,5.43-1.5,1.51-2.26,2.11-1.65,1.21Z"/>
    <path d="M414.94,278.64c0-2.11,.3-2.86,.75-1.81,.3,.9,.3,2.71,0,3.77-.45,.9-.75,.15-.75-1.96Z"/>
    <path d="M363.82,276.38c0-2.41,.3-3.32,.75-1.81,.3,1.36,.3,3.47,0,4.52-.45,.9-.75-.15-.75-2.71Z"/>
    <path d="M394.65,274.72c-1.2-7.09-5.56-11.76-13.08-13.87-4.36-1.36-4.66-1.51-1.5-1.66,8.72-.3,18.04,10.7,16.24,18.99-.3,1.51-1.05,0-1.65-3.47Z"/>
    <path d="M433.44,272.46c-.6-.9-.75-1.81-.3-2.26,.3-.45,1.05,.3,1.5,1.66,1.05,2.56,.15,3.02-1.2,.6Z"/>
    <path d="M417.65,265.98c0-.3,1.2-1.51,2.71-2.56,2.26-1.96,2.41-1.81,.45,.6s-3.16,3.17-3.16,1.96Z"/>
    <path d="M434.19,261.91c-1.95-.9-5.41-1.06-7.52-.6-2.86,.6-3.16,.45-1.5-.75,3.16-2.11,7.97-1.81,11.43,.75,3.31,2.56,2.86,2.71-2.41,.6Z"/>
    <path d="M385.47,239.45c1.8-.6,4.66-3.17,6.62-5.58,2.56-3.32,3.16-5.43,2.41-10.25-.45-4.22-.3-5.13,.6-3.02,.75,1.66,1.35,4.52,1.35,6.33,.15,4.07-8.27,14.02-11.73,13.87-1.8,0-1.5-.45,.75-1.36Z"/>
    <path d="M422.91,239.45c-.45-.9,.15-1.06,1.35-.6,2.71,1.06,3.16,2.11,1.05,2.11-.9,0-1.95-.6-2.41-1.51Z"/>
    <path d="M437.19,238.39c2.1-1.51,4.96-4.07,6.46-5.73q2.71-2.86,.15,1.21c-1.35,2.26-3.76,4.82-5.26,5.58-4.36,2.41-5.26,1.66-1.35-1.06Z"/>
    <path d="M416.9,234.93c-1.5-1.66-2.1-3.02-1.35-3.02s2.26,1.36,3.31,3.02,1.65,3.02,1.35,3.02-1.8-1.36-3.31-3.02Z"/>
    <path d="M414.94,225.88c0-2.86,.3-4.07,.75-2.56,.3,1.36,.3,3.77,0,5.28-.45,1.36-.75,.15-.75-2.71Z"/>
    <path d="M363.67,223.47c0-1.66,.45-2.11,.9-.9,.45,1.06,.3,2.41-.15,2.86-.45,.6-.9-.3-.75-1.96Z"/>
    <path d="M444.26,220c-.6-2.56-.45-3.17,.75-1.96,.75,.75,1.2,2.41,.9,3.47-.45,1.21-1.05,.45-1.65-1.51Z"/>
    <path d="M365.03,218.34c0-.75,.75-1.51,1.65-1.51,.75,0,1.05,.75,.6,1.51-.45,.9-1.2,1.51-1.65,1.51-.3,0-.6-.6-.6-1.51Z"/>
    <path d="M417.65,215.48c0-.9,.6-1.96,1.5-2.41s1.05,.15,.6,1.36c-1.05,2.71-2.1,3.17-2.1,1.06Z"/>
    <path d="M388.33,213.52c-1.65-1.06-5.41-2.26-8.27-2.86l-5.26-1.06,5.26-.15c3.16,0,6.77,1.06,9.02,2.86,4.21,3.32,3.76,3.77-.75,1.21Z"/>
    <path d="M436.74,212.77c-.6-.45-3.61-1.36-6.62-1.96l-5.71-1.21,5.26-.15c2.86,0,6.62,.9,8.12,2.11,1.65,1.21,2.26,2.26,1.5,2.26-.9,0-2.1-.45-2.56-1.06Z"/>
    <path d="M381.42,189.7c4.21-.6,7.67-2.26,9.47-4.37,1.5-1.96,2.71-2.86,2.71-1.96,0,3.32-7.97,7.84-13.38,7.69-5.26-.15-5.26-.3,1.2-1.36Z"/>
    <path d="M428.62,190.15c1.35-.3,3.46-.3,4.51,0,.9,.45-.15,.75-2.71,.75-2.41,0-3.31-.3-1.8-.75Z"/>
    <path d="M419.75,186.38l-2.86-3.47,3.46,2.86c3.16,2.71,4.06,3.92,2.86,3.92-.3,0-1.8-1.51-3.46-3.32Z"/>
    <path d="M435.84,189.25c.3-.15,1.95-1.36,3.61-2.56q2.86-2.11,.9,.45c-1.05,1.36-2.71,2.56-3.61,2.56s-1.2-.15-.9-.45Z"/>
    <path d="M367.28,185.18c-1.5-1.66-2.1-3.02-1.35-3.02s2.26,1.36,3.31,3.02,1.65,3.02,1.35,3.02-1.8-1.36-3.31-3.02Z"/>
    <path d="M414.94,175.38c0-2.41,.3-3.32,.75-1.81,.3,1.36,.3,3.47,0,4.52-.45,.9-.75-.15-.75-2.71Z"/>
    <path d="M395.25,176.58c-.15-.9-.6-3.02-1.05-4.52q-.75-2.56,.9,0c.9,1.51,1.35,3.47,.9,4.52-.45,1.36-.75,1.36-.75,0Z"/>
    <path d="M437.95,162.41c-2.41-1.51-3.76-2.86-2.86-2.86,1.05,0,3.31,1.36,5.26,3.02,4.51,3.62,3.46,3.62-2.41-.15Z"/>
    <path d="M423.66,159.55c2.1-.6,5.11-1.21,6.77-1.21,2.41,0,2.26,.3-.75,1.21-2.1,.6-5.11,1.21-6.77,1.21-2.41,0-2.26-.3,.75-1.21Z"/>
    <path d="M378.26,158.49c.9-.3,2.71-.3,3.76,0,.9,.45,.15,.75-1.95,.75s-2.86-.3-1.8-.75Z"/>
  </g>
  <path d="M276.92,297h24.95s24.82,0,24.82,0v-50s0-50,0-50h-24.82s-24.95,0-24.95,0v50s0,50,0,50Zm46.62-3.16l-20.66,.38c-12.73,.25-20.91-.13-21.42-.89-.5-.63-.76-21.65-.76-46.46,0-35.32,.25-45.44,1.51-46.33,1.51-.89,40.06-.25,40.95,.76,.38,.38,.63,32.15,.38,75.44v17.09Z"/>
  <path d="M291.92,284.22l-3.02-2.53,3.53,2.15c1.89,1.14,3.4,2.28,3.4,2.53,0,1.01-1.01,.51-3.91-2.15Z"/>
  <path d="M313.46,281.81c.76-1.39,1.64-2.53,2.02-2.53,.25,0,0,1.14-.76,2.53s-1.64,2.53-2.02,2.53c-.25,0,0-1.14,.76-2.53Z"/>
  <path d="M290.28,261.18c.38-1.27,1.13-1.9,1.51-1.52s0,1.39-.88,2.28c-1.26,1.14-1.39,1.01-.63-.76Z"/>
  <path d="M309.3,260.16c-1.13-.63-4.54-1.77-7.56-2.28l-5.29-1.14,5.17-.13c3.53-.13,6.3,.63,8.19,2.41,3.28,2.66,3.02,3.16-.5,1.14Z"/>
  <path d="M300.61,236.62c1.51-.25,3.78-.25,5.04,0,1.13,.38-.13,.63-2.9,.51-2.77,0-3.78-.25-2.14-.51Z"/>
  <path d="M308.42,235.73c0-.38,1.13-1.27,2.52-2.03,1.39-.76,2.52-1.01,2.52-.76,0,.38-1.13,1.27-2.52,2.03s-2.52,1.01-2.52,.76Z"/>
  <path d="M316.11,217.76c0-1.39,.38-1.77,.76-.76,.38,.89,.25,2.03-.13,2.41-.38,.51-.76-.25-.63-1.65Z"/>
  <path d="M287,216.62c0-.63,.63-2.15,1.26-3.16s1.26-1.27,1.26-.63c0,.76-.63,2.15-1.26,3.16s-1.26,1.39-1.26,.63Z"/>
  <path d="M313.46,212.19c-.76-1.39-1.01-2.53-.76-2.53,.38,0,1.26,1.14,2.02,2.53s1.01,2.53,.76,2.53c-.38,0-1.26-1.14-2.02-2.53Z"/>
  <path d="M303.13,206.24c.76-.25,2.27-.25,3.15,0,.76,.38,.13,.63-1.64,.63s-2.39-.25-1.51-.63Z"/>
  <g>
    <path d="M480.47,300h49.87s49.66,0,49.66,0V150s0-150,0-150h-49.66s-49.87,0-49.87,0V150s0,150,0,150Zm6.71-5.66c-.84-.63-1.47-5.66-1.47-10.91,0-7.34,.63-9.02,2.3-6.5,1.68,2.31,1.89,1.89,.63-2.1-2.3-7.34-3.35-100.28-1.05-96.71,1.26,1.89,2.1,.84,2.72-3.78,.84-6.5-1.26-9.02-3.14-3.78-.63,1.26-1.26-8.18-1.26-21.19-.21-15.31,.63-23.29,1.89-22.45,1.26,.63,2.1-.21,2.1-2.1s-.84-2.73-2.1-2.1c-1.47,.84-2.1-15.94-1.89-48.67,0-27.48,.63-48.46,1.26-46.78,1.47,4.2,9.22,12.59,11.52,12.59,1.05,0-.63-2.1-3.56-4.62-2.93-2.73-5.66-6.92-5.87-9.44,0-2.52-1.05-3.99-2.1-3.36-.84,.63-1.47-3.15-1.05-8.18,.63-8.81,.84-9.02,8.59-9.65,4.19-.42,7.75,.21,7.75,1.26s2.1,2.52,4.82,3.15q4.4,1.26,.63-1.68c-3.77-2.73-1.47-3.15,20.54-3.15,20.74,0,24.52,.42,22.42,2.94-1.89,2.31-1.26,2.52,2.93,1.68,2.93-.42,5.24-1.89,5.24-2.94,0-1.05,3.56-1.68,7.96-1.26l7.75,.63,.63,106.36c.42,92.73,.21,107.41-2.72,112.87s-2.93,6.08,0,5.03c2.72-1.05,3.14,2.94,2.93,31.68-.21,36.5-.63,37.55-13.83,32.73-5.45-2.1-7.96-2.1-9.64-.42-2.93,2.94-38.14,2.94-43.79,0-2.93-1.68-4.82-1.68-6.5,0-2.51,2.52-12.57,3.15-14.67,.84Z"/>
    <path d="M565.54,286.36c1.89-2.31,3.98-5.66,4.61-7.34,1.05-2.73,1.26-2.73,1.26,.21,.21,1.89-1.89,5.03-4.4,7.34q-4.82,3.99-1.47-.21Z"/>
    <path d="M517.14,286.36c0-1.05,1.05-3.57,2.1-5.24s2.1-2.1,2.1-1.05c0,1.26-1.05,3.57-2.1,5.24s-2.1,2.31-2.1,1.05Z"/>
    <path d="M538.3,279.86c0-2.31,.63-2.94,1.26-1.26,.63,1.47,.42,3.36-.21,3.99-.63,.84-1.26-.42-1.05-2.73Z"/>
    <path d="M517.56,269.79c-1.26-3.15-4.82-6.5-7.75-7.55-7.54-2.94-6.5-4.41,1.05-1.68,6.5,2.1,11.32,8.39,10.06,12.59-.42,1.26-1.89-.42-3.35-3.36Z"/>
    <path d="M565.33,265.38c-1.47-1.68-3.77-3.15-5.45-3.15-1.47,0-3.14-.84-3.77-1.89-2.3-3.57,6.71,.21,10.48,4.2,1.89,2.1,3.14,3.99,2.51,3.99s-2.3-1.47-3.77-3.15Z"/>
    <path d="M504.15,241.89c1.47-.63,3.35-.42,3.98,.21,.84,.63-.42,1.26-2.72,1.05-2.3,0-2.93-.63-1.26-1.26Z"/>
    <path d="M514.62,237.06c2.51-2.52,4.61-5.45,4.61-6.71,0-1.26,.63-1.68,1.26-1.05,1.89,1.89-5.03,11.96-7.96,11.96-1.47,0-.42-1.89,2.1-4.2Z"/>
    <path d="M563.66,237.9c2.1-2.1,4.19-3.36,4.61-2.73,.63,.63-1.05,2.31-3.56,3.78-4.4,2.73-4.4,2.52-1.05-1.05Z"/>
    <path d="M491.99,236.01c-1.47-1.89-2.3-3.57-1.89-4.2,.63-.42,2.1,1.05,3.56,3.15,2.93,5.03,2.1,5.45-1.68,1.05Z"/>
    <path d="M542.07,235.59c-2.72-3.36-2.51-3.57,.84-.84,1.89,1.47,3.56,3.15,3.56,3.57,0,1.68-1.68,.63-4.4-2.73Z"/>
    <path d="M519.23,221.33c0-1.68-3.14-5.03-6.71-7.34-4.61-2.73-5.66-4.2-3.14-4.2,4.4,0,11.94,7.13,11.94,11.54,0,1.68-.42,3.15-1.05,3.15s-1.05-1.47-1.05-3.15Z"/>
    <path d="M555.9,211.89c-5.87-1.47-5.87-1.68-1.05-1.89,2.93,0,6.71,.84,8.38,1.89,3.56,2.31,1.68,2.31-7.33,0Z"/>
    <path d="M554.44,191.54c1.47-.63,3.35-.42,3.98,.21,.84,.63-.42,1.26-2.72,1.05-2.3,0-2.93-.63-1.26-1.26Z"/>
    <path d="M514.62,186.71c2.51-2.31,4.61-5.45,4.61-6.71s.63-1.89,1.26-1.26c1.89,2.1-2.93,9.44-6.91,10.91-2.93,1.26-2.72,.42,1.05-2.94Z"/>
    <path d="M565.54,185.66c1.89-2.31,4.4-6.08,5.66-8.39,1.26-2.31,2.51-2.94,2.51-1.68,0,1.47-2.51,5.24-5.66,8.6-3.35,3.15-4.4,3.99-2.51,1.47Z"/>
    <path d="M542.07,185.24c-2.72-3.36-2.51-3.57,.84-.84,1.89,1.47,3.56,3.15,3.56,3.57,0,1.68-1.68,.63-4.4-2.73Z"/>
    <path d="M519.65,172.03c0-2.94,.42-3.99,1.05-2.52,.42,1.26,.42,3.78,0,5.24-.63,1.26-1.05,.21-1.05-2.73Z"/>
    <path d="M508.76,162.38c-6.71-2.52-6.91-2.73-1.89-2.73,3.14-.21,6.71,1.26,8.17,2.94s2.3,2.94,1.89,2.94c-.42-.21-4.19-1.47-8.17-3.15Z"/>
    <path d="M558,161.54c-2.72-1.26-3.14-1.89-1.05-1.89,1.68,0,4.61,.84,6.29,1.89,3.77,2.52,.42,2.52-5.24,0Z"/>
    <path d="M504.77,141.82c.42-.42,3.14-1.89,6.08-3.15q5.03-2.31,1.26,.63c-3.35,2.73-10.27,5.03-7.33,2.52Z"/>
    <path d="M545.64,138.25c-2.93-2.31-5.45-5.45-5.45-6.71,0-1.47,1.05-.84,2.3,1.26,1.26,2.31,5.24,5.24,9.01,6.92,3.56,1.47,5.03,2.73,3.14,2.94-1.89,0-5.87-1.89-9.01-4.41Z"/>
    <path d="M564.49,136.36c2.51-2.94,5.03-6.71,5.66-8.39,1.05-2.73,1.26-2.73,1.26,.21,.21,1.68-2.3,5.45-5.45,8.39l-5.87,5.03,4.4-5.24Z"/>
    <path d="M517.14,134.48c0-1.26,.84-2.73,2.1-3.36s1.47,.21,.84,1.89c-1.47,3.78-2.93,4.41-2.93,1.47Z"/>
    <path d="M519.44,123.57c-.21-6.29-3.77-9.86-12.15-12.38l-5.87-1.68,5.45-.21c7.12-.21,15.09,8.18,13.83,14.9q-.84,4.62-1.26-.63Z"/>
    <path d="M568.68,118.11c-1.26-2.94-1.05-3.15,1.05-1.26,1.47,1.47,2.1,3.15,1.47,3.78s-1.89-.42-2.51-2.52Z"/>
    <path d="M489.9,116.64c0-.42,1.68-2.1,3.77-3.57,3.14-2.73,3.35-2.52,.63,.84-2.72,3.36-4.4,4.41-4.4,2.73Z"/>
    <path d="M555.9,111.19c-5.66-1.47-5.87-1.68-1.05-1.68,2.93,0,7.12,.63,9.43,1.68,5.24,2.31,.42,2.31-8.38,0Z"/>
    <path d="M548.15,88.95c-3.35-1.68-5.87-4.2-5.87-5.66,0-1.68,.63-1.89,1.68-.21,2.51,3.78,10.9,7.34,13.41,5.87,1.47-.84,1.68-.63,.84,.84-1.89,3.15-3.14,3.15-10.06-.84Z"/>
    <path d="M492.83,85.59l-3.98-4.83,4.82,3.99c2.51,2.31,4.61,4.41,4.61,4.83,0,1.68-1.68,.42-5.45-3.99Z"/>
    <path d="M508.97,89.58c.42-.21,3.14-2.31,6.08-4.62l5.24-4.2-3.98,4.83c-2.3,2.52-5.03,4.62-6.08,4.62-1.26,0-1.68-.21-1.26-.63Z"/>
    <path d="M519.65,74.48c0-3.36,.42-4.62,1.05-2.52,.42,1.89,.42,4.83,0,6.29-.63,1.26-1.05-.21-1.05-3.78Z"/>
    <path d="M538.3,73.01c-.21-1.89,1.89-5.66,4.61-8.39,2.51-2.73,3.56-3.57,2.1-1.68-1.47,1.68-3.35,5.66-4.61,8.39-1.26,3.57-2.1,3.99-2.1,1.68Z"/>
    <path d="M489.9,67.13c1.26-2.31,2.72-4.2,3.35-4.2,.42,0,0,1.89-1.26,4.2s-2.72,4.2-3.35,4.2c-.42,0,0-1.89,1.26-4.2Z"/>
    <path d="M506.87,39.23c2.93-1.26,7.33-3.78,9.43-5.45,3.35-2.73,3.35-2.52-.21,1.26-2.3,2.52-6.5,5.03-9.43,5.66l-5.24,1.26,5.45-2.73Z"/>
    <path d="M550.66,39.86c-1.89-1.26-2.1-2.1-.63-2.1,1.26,0,3.14,1.05,3.77,2.1,1.68,2.52,.84,2.52-3.14,0Z"/>
    <path d="M543.33,35.66c-.63-1.05-.21-2.1,.84-2.1,1.26,0,2.3,1.05,2.3,2.1,0,1.26-.42,2.1-.84,2.1-.63,0-1.68-.84-2.3-2.1Z"/>
    <path d="M569.73,28.11c0-2.31,.63-2.94,1.26-1.26,.63,1.47,.42,3.36-.21,3.99-.63,.84-1.26-.42-1.05-2.73Z"/>
    <path d="M519.65,24.13c0-3.36,.42-4.62,1.05-2.52,.42,1.89,.42,4.83,0,6.29-.63,1.26-1.05-.21-1.05-3.78Z"/>
    <path d="M538.3,23.08c0-1.68,.84-4.62,1.89-6.29,2.51-3.78,2.51-.42,0,5.24-1.26,2.73-1.89,3.15-1.89,1.05Z"/>
    <path d="M569.73,21.19c-.21-1.68-2.3-5.45-4.82-8.39l-4.61-5.45,5.87,5.45c3.35,3.15,5.45,6.92,4.82,8.39-.84,2.31-1.26,2.31-1.26,0Z"/>
  </g>
  <path d="M202.79,297.26h24.88s24.88,0,24.88,0v-24.96s0-25.04,0-25.04l-24.6,.14-24.6,.07-.28,24.89-.28,24.89Zm47.99-1.8l-22.83,.22-22.9,.22v-23.45s0-23.53,0-23.53l2.84,.22c1.49,.14,2.98,0,3.26-.29,.71-.65,7.37-.65,7.37,.07,0,.29,7.23,.5,16.09,.5h16.16v23.02s0,23.02,0,23.02Z"/>
  <path d="M225.48,287.4c.5-.22,1.13-.14,1.35,.07,.28,.22-.14,.43-.92,.36-.78,0-.99-.22-.43-.43Z"/>
  <path d="M229.02,287.4c.43-.14,1.28-.14,1.77,0,.43,.22,.07,.36-.92,.36s-1.35-.14-.85-.36Z"/>
  <path d="M219.59,285.32l-2.13-1.87,2.13,1.44c1.21,.79,2.76,1.58,3.54,1.8q1.42,.36,0,.43c-.78,0-2.34-.79-3.54-1.8Z"/>
  <path d="M235.54,285.24c.99-.72,2.69-2.23,3.83-3.45,1.28-1.29,1.77-1.58,1.28-.72-.92,1.8-2.84,3.53-5.1,4.6l-1.77,.86,1.77-1.29Z"/>
  <path d="M215.41,281.65c-.43-1.01-.35-1.08,.35-.43,.5,.5,.71,1.08,.5,1.29s-.64-.14-.85-.86Z"/>
  <path d="M242.7,269.49c0-.79,.21-1.01,.43-.43,.21,.5,.14,1.15-.07,1.37-.21,.29-.43-.14-.35-.94Z"/>
  <path d="M213,267.76c0-1.01,.14-1.37,.35-.86,.14,.43,.14,1.29,0,1.8-.21,.43-.35,.07-.35-.94Z"/>
  <path d="M213.57,265.32c0-.14,.57-.72,1.28-1.22,1.06-.94,1.13-.86,.21,.29s-1.49,1.51-1.49,.94Z"/>
  <path d="M240.15,263.73c-.64-1.08-.85-1.65-.43-1.44,.78,.5,2.48,3.31,1.98,3.31-.21,0-.85-.86-1.56-1.87Z"/>
  <path d="M223.35,257.19c.5-.22,1.13-.14,1.35,.07,.28,.22-.14,.43-.92,.36-.78,0-.99-.22-.43-.43Z"/>
</svg>