<?xml version="1.0" encoding="UTF-8"?>
<svg id="Layer_1" data-name="Layer 1" xmlns="http://www.w3.org/2000/svg" viewBox="0 0 300 500">
  <path d="M13.38,.34c.63,.14,1.75,.14,2.46,0,.63-.21,.07-.34-1.26-.34s-1.89,.14-1.19,.34Z"/>
  <path d="M18.29,.34c.63,.14,1.75,.14,2.46,0,.63-.21,.07-.34-1.26-.34s-1.89,.14-1.19,.34Z"/>
  <path d="M68.12,.34c1.4,.14,3.79,.14,5.26,0,1.4-.14,.21-.27-2.67-.27s-4.07,.14-2.6,.27Z"/>
  <path d="M122.51,.34c1.26,.14,3.16,.14,4.21,0s0-.27-2.32-.27-3.16,.14-1.89,.27Z"/>
  <path d="M174.09,.34c1.4,.14,3.79,.14,5.26,0,1.4-.14,.21-.27-2.67-.27s-4.07,.14-2.6,.27Z"/>
  <path d="M227.08,.34c1.61,.14,4.14,.14,5.61,0,1.4-.14,.07-.27-3.02-.27s-4.28,.14-2.6,.27Z"/>
  <path d="M279.37,.34c.63,.14,1.75,.14,2.46,0,.63-.21,.07-.34-1.26-.34s-1.89,.14-1.19,.34Z"/>
  <path d="M284.28,.34c.63,.14,1.75,.14,2.46,0,.63-.21,.07-.34-1.26-.34s-1.89,.14-1.19,.34Z"/>
  <path d="M23.63,1.3c-.77,.48-.77,.62,.21,.62,.63,0,1.26,.34,1.4,.82,.21,.48,.49,.55,.7,.21,.63-1.1-1.19-2.33-2.32-1.65Z"/>
  <path d="M168.76,1.51c-.28,.69,.07,.82,.98,.62,1.61-.41,1.68-.62,.35-1.1-.56-.21-1.19,0-1.33,.48Z"/>
  <path d="M182.45,1.17c-.7,.41-.49,.69,.91,1.03,1.05,.27,2.11,.34,2.32,.07,.21-.21-.14-.34-.7-.34-.63,0-1.26-.27-1.4-.69-.14-.34-.63-.41-1.12-.07Z"/>
  <path d="M62.3,1.92c-1.26,.82-.14,.82,1.75,0,.91-.41,1.05-.62,.35-.62-.56,0-1.54,.27-2.11,.62Z"/>
  <path d="M76.68,1.92c.77,.34,1.89,.62,2.46,.62,.63,0,.56-.27-.35-.62-.77-.34-1.89-.62-2.46-.62-.63,0-.56,.27,.35,.62Z"/>
  <path d="M115.63,1.72c-1.4,.48-6.32,5.63-6.32,6.52,0,.41,.7-.14,1.61-1.24,2.53-3.16,3.72-4.19,5.83-4.94,1.12-.41,1.54-.69,.98-.69s-1.54,.14-2.11,.34Z"/>
  <path d="M130.37,1.92c.56,.34,1.4,.69,1.75,.69,.42,0,.21-.34-.35-.69s-1.33-.69-1.75-.69c-.35,0-.21,.34,.35,.69Z"/>
  <path d="M220.77,2.4c.49,.21,1.12,.14,1.33-.07,.28-.21-.14-.41-.91-.34-.77,0-.98,.21-.42,.41Z"/>
  <path d="M238.17,2.88c.21,.62,.84,1.1,1.33,1.1s1.05,.48,1.33,1.03c.21,.55,.7,1.03,1.12,1.03,.77,0-.7-1.65-3.02-3.36-1.05-.82-1.19-.82-.77,.21Z"/>
  <path d="M27.21,3.98c.56,.34,1.4,.69,1.75,.69,.42,0,.21-.34-.35-.69s-1.33-.69-1.75-.69c-.35,0-.21,.34,.35,.69Z"/>
  <path d="M81.6,5.15c.98,.96,1.97,1.58,2.25,1.37,.21-.27,.07-.48-.35-.48-.49,0-.84-.41-.84-.96,0-.48-.63-1.1-1.47-1.3-1.26-.34-1.26-.21,.42,1.37Z"/>
  <path d="M165.32,4.05c-.7,.34-1.26,1.03-1.26,1.51,0,.55,.21,.62,.56,.07,.28-.41,1.12-1.1,1.89-1.51s1.12-.75,.7-.75c-.35,0-1.26,.27-1.89,.69Z"/>
  <path d="M187.08,4.53c.63,.69,1.33,.96,1.47,.62s-.21-.89-.7-1.24c-1.68-1.03-2.11-.69-.77,.62Z"/>
  <path d="M217.75,4.94c-1.12,1.03-1.54,1.85-1.05,2.13,.35,.21,.7,.14,.7-.27s.7-1.3,1.54-2.13c.84-.75,1.33-1.37,1.05-1.37-.21,0-1.26,.75-2.25,1.65Z"/>
  <path d="M271.58,3.91c-1.05,.62-2.6,3.02-3.37,5.01-.21,.69-.7,1.24-1.05,1.24-.77,0-.77,3.5,0,4.67,.35,.62,.7-.27,.91-2.47,.21-1.92,.84-3.98,1.47-4.6,.7-.62,1.19-1.51,1.19-2.06,0-.48,.84-1.24,1.97-1.58,1.05-.41,1.4-.75,.84-.75s-1.47,.21-1.97,.55Z"/>
  <path d="M292.84,4.25c.77,.55,1.68,.82,2.04,.55,.35-.21,.07-.62-.7-.89-2.18-.82-2.74-.69-1.33,.34Z"/>
  <path d="M134.58,4.6c0,.69,1.33,1.72,1.75,1.37,.07-.14-.21-.69-.77-1.17s-.98-.55-.98-.21Z"/>
  <path d="M295.3,6.66c0,.69,1.33,1.72,1.75,1.37,.07-.14-.21-.69-.77-1.17s-.98-.55-.98-.21Z"/>
  <path d="M30.01,7.41c0,.34,.35,.69,.7,.69,.42,0,.7,.69,.7,1.58s.21,1.85,.49,2.13c1.89,1.78-1.4,14.14-4,15.1-.56,.27-2.32,1.17-3.86,2.13-4.84,2.95-12.35,2.13-16.42-1.72-3.44-3.23-4.98-6.25-5.68-10.77l-.63-4.67,.35,5.08c.14,2.81,.7,5.63,1.26,6.18,.49,.62,1.12,1.65,1.33,2.26,.28,.69,.77,1.24,1.19,1.24,.35,0,.7,.48,.7,1.03s.49,1.03,1.05,1.03,1.05,.27,1.05,.69c0,.75,6.95,2.88,7.72,2.4,.35-.21,.7,0,.84,.41,.21,.62,.98,.62,3.02,0,4-1.24,9.4-3.77,9.47-4.46,0-.27,.98-1.78,2.18-3.23,1.97-2.47,2.11-3.02,2.11-8.24,0-3.09-.28-5.83-.63-6.04s-.84-1.1-1.12-1.99c-.49-1.51-1.82-2.13-1.82-.82Z"/>
  <path d="M56.19,7.75c-.49,.55-.63,1.1-.28,1.3s.84-.07,1.05-.69c.56-1.51,.28-1.72-.77-.62Z"/>
  <path d="M136.69,7.34c0,.69,1.33,1.72,1.75,1.37,.07-.14-.21-.69-.77-1.17s-.98-.55-.98-.21Z"/>
  <path d="M162.3,8.17c-.28,.75-.28,1.58-.07,1.78,.21,.27,.42-.07,.42-.69,0-.69,.35-1.17,.7-1.17,.42,0,.7-.34,.7-.69,0-1.24-1.33-.69-1.75,.75Z"/>
  <path d="M242.66,7.27c0,.34,.49,1.03,1.05,1.51s1.05,.62,1.05,.41c0-.27-.49-.96-1.05-1.51-.56-.62-1.05-.75-1.05-.41Z"/>
  <path d="M215.01,8.44c-.21,.62-.42,1.78-.35,2.61,.07,.96,.28,.62,.63-.89,.63-2.54,.49-3.57-.28-1.72Z"/>
  <path d="M2.08,9.47c0,.96,.14,1.3,.35,.82,.14-.41,.14-1.24,0-1.72-.21-.41-.35-.07-.35,.89Z"/>
  <path d="M297.54,10.16c0,.96,.14,1.3,.35,.82,.14-.41,.14-1.24,0-1.72-.21-.41-.35-.07-.35,.89Z"/>
  <path d="M84.75,10.84c0,.75,.35,1.37,.7,1.37,.42,0,.7-.62,.7-1.37s-.28-1.37-.7-1.37c-.35,0-.7,.62-.7,1.37Z"/>
  <path d="M107.91,10.84c0,.75,.35,1.37,.7,1.37,.42,0,.7-.62,.7-1.37s-.28-1.37-.7-1.37c-.35,0-.7,.62-.7,1.37Z"/>
  <path d="M191.57,10.84c0,.96,.14,1.3,.35,.82,.14-.41,.14-1.24,0-1.72-.21-.41-.35-.07-.35,.89Z"/>
  <path d="M54.72,12.22c0,1.3,.14,1.85,.35,1.17,.14-.62,.14-1.72,0-2.4-.21-.62-.35-.07-.35,1.24Z"/>
  <path d="M138.93,12.22c0,1.3,.14,1.85,.35,1.17,.14-.62,.14-1.72,0-2.4-.21-.62-.35-.07-.35,1.24Z"/>
  <path d="M160.48,12.56c-.21,5.56,.28,8.3,1.89,10.98,.91,1.51,1.89,3.23,2.11,3.77,.42,1.03,5.05,3.43,9.33,4.74,1.82,.55,3.23,.48,6.32-.34,2.18-.62,4.42-1.58,5.05-2.06,.56-.55,1.47-.96,1.89-.96,.49,0,.84-.41,.84-.96s.49-1.1,1.05-1.37c.56-.21,1.05-.82,1.05-1.37s.42-1.1,.91-1.3c.42-.14,.63-.55,.28-.89-.28-.27-.98,.07-1.47,.82-2.11,2.88-4.63,5.08-6.32,5.49-.98,.21-1.82,.69-1.82,1.03s-1.97,.62-4.42,.62c-6.11,0-9.12-1.58-13.83-7.34-.35-.41-.91-2.13-1.12-3.77-.28-1.65-.77-3.09-1.05-3.36-.35-.21-.28-1.37,.07-2.68,.42-1.51,.42-2.61,0-3.02-.49-.48-.7,.21-.77,1.99Z"/>
  <path d="M244.91,12.22c0,1.3,.14,1.85,.35,1.17,.14-.62,.14-1.72,0-2.4-.21-.62-.35-.07-.35,1.24Z"/>
  <path d="M213.54,17.02c.14,2.81,.63,5.22,1.05,5.35,.35,.14,.7,.55,.7,.89,0,1.17,3.16,5.42,4,5.42,.42,0,1.26,.41,1.75,.89,1.19,1.17,5.47,2.61,6.25,2.13,.35-.21,.63,0,.63,.34,0,.96,4,.96,4.56,.07,.21-.41,1.19-.69,2.18-.69,.91,0,2.32-.62,3.09-1.37s1.54-1.37,1.75-1.37c.63,0,3.16-2.75,3.16-3.36,0-.34,.35-.75,.77-.89,.91-.27,2.81-7.96,2.04-8.44-.28-.14-.7,1.17-.91,2.88-.21,1.78-.7,3.36-1.12,3.5s-.77,.69-.77,1.24-.28,.96-.63,.96-.91,.62-1.12,1.37-.77,1.37-1.12,1.37c-.42,0-1.19,.48-1.75,1.03-.63,.55-1.68,1.03-2.46,1.03-.7,0-1.33,.27-1.33,.69s-1.97,.69-4.42,.69c-3.72,0-4.91-.34-8-2.26-2.04-1.17-4-3.02-4.49-4.12-.42-1.03-1.05-1.85-1.33-1.85s-.7-1.17-.98-2.61c-.21-1.37-.7-3.77-1.12-5.28-.56-2.33-.63-1.99-.35,2.4Z"/>
  <path d="M298.1,13.25c0,.55,.35,1.03,.7,1.03,.42,0,.7-.48,.7-1.03s-.28-1.03-.7-1.03c-.35,0-.7,.48-.7,1.03Z"/>
  <path d="M86.16,15.51c0,1.58-.28,2.88-.63,2.88s-.77,1.24-1.05,2.75c-.21,1.51-.7,2.75-1.05,2.75-.42,0-.84,.55-1.05,1.24-.21,.62-1.97,2.2-3.86,3.43-2.95,1.85-4.14,2.2-7.65,2.2-2.39,0-5.05-.48-6.46-1.1-2.95-1.44-6.67-5.01-7.3-7-.28-.82-.84-1.51-1.19-1.51s-.63-1.03-.63-2.33-.28-2.54-.56-2.75c-1.05-.62,.42,6.45,1.54,7.55,.63,.55,1.12,1.37,1.12,1.72,0,.89,1.97,2.81,4.42,4.32,3.44,2.06,11.72,3.84,11.72,2.47,0-.27,1.05-.75,2.39-.96,1.33-.27,2.74-.89,3.23-1.44s1.33-1.03,1.82-1.03c.56,0,.98-.27,.98-.55,0-.34,.63-1.3,1.4-2.2s1.4-1.99,1.4-2.54c0-.48,.28-.89,.63-.89,.77,0,1.89-8.78,1.19-9.4-.21-.27-.42,.82-.42,2.4Z"/>
  <path d="M107.42,15.3c0,1.51,.14,2.06,.28,1.17,.14-.82,.14-2.06,0-2.75-.21-.62-.35,.07-.28,1.58Z"/>
  <path d="M191.85,16.95c-.28,2.4-.35,4.53-.14,4.74s.42-.55,.42-1.65c0-1.17,.28-2.33,.56-2.75,.35-.34,.42-1.58,.14-2.68-.35-1.72-.49-1.3-.98,2.33Z"/>
  <path d="M266.31,18.53c.28,1.99,.7,3.91,1.05,4.32,.35,.34,1.19,1.44,1.97,2.33s1.4,1.85,1.4,2.2c0,.89,6.18,4.05,8,4.05,.98,0,1.82,.27,1.82,.69,0,.82,4,.89,4.49,.07,.21-.34,1.54-.82,2.95-1.1,1.82-.27,3.58-1.44,5.97-3.98,3.51-3.5,4.56-5.56,3.93-7.82-.21-.69-.35-.34-.42,.89,0,1.24-.49,2.33-1.12,2.61-.56,.21-1.05,.69-1.05,1.1,0,1.3-3.86,4.67-5.9,5.22-.98,.21-1.82,.69-1.82,1.03,0,1.24-8.28,.69-11.16-.82-3.44-1.72-6.39-4.32-6.39-5.7,0-.55-.35-1.1-.7-1.24-.42-.14-.91-1.44-1.19-2.95-.21-1.51-.84-3.16-1.33-3.64-.77-.69-.84-.21-.49,2.75Z"/>
  <path d="M298.1,16.26c0,.75,.35,1.58,.7,1.78,.42,.27,.7-.34,.7-1.3s-.28-1.78-.7-1.78c-.35,0-.7,.62-.7,1.3Z"/>
  <path d="M138.93,18.39c0,1.3,.14,1.85,.35,1.17,.14-.62,.14-1.72,0-2.4-.21-.62-.35-.07-.35,1.24Z"/>
  <path d="M107.91,20.11c0,1.72,1.47,4.46,3.3,6.38,.49,.48,.91,1.17,.91,1.37,0,.62,5.19,3.16,8.63,4.25,2.25,.69,3.37,.62,6.81-.41,3.93-1.17,9.12-4.74,9.12-6.31,0-.41,.49-1.24,1.12-1.85,.7-.62,.91-1.51,.63-2.26-.42-.96-.63-.82-1.26,.89-1.12,3.09-6.39,7.75-8.35,7.34-.35-.07-.56,.14-.56,.55s-1.89,.69-4.21,.69c-4.14,0-7.72-1.24-10.53-3.57-2.04-1.72-4.35-5.56-4.35-7.14,0-.89-.28-1.65-.63-1.65s-.63,.75-.63,1.72Z"/>
  <path d="M43.14,41.45c1.12,.48,1.33,237.73,.21,237.73-.49,0-.7,30.26-.7,89.56v89.63l61.76-.21c43.93-.14,61.97-.41,62.32-.96,.28-.41,2.67-.96,5.33-1.17,2.67-.27,5.05-.75,5.26-1.1s1.75-.82,3.44-1.1c1.61-.27,2.95-.69,2.95-1.03,0-.27,1.4-.75,3.16-.96,1.75-.27,3.16-.75,3.16-1.17,0-.34,.49-.62,1.05-.62s2.25-.62,3.65-1.37c1.47-.75,3.02-1.37,3.51-1.37s.91-.34,.91-.69c0-.41,.56-.69,1.26-.69,.77,0,2.04-.62,2.95-1.37s2.04-1.37,2.6-1.37c.49,0,.91-.34,.91-.69,0-.41,.42-.69,.91-.69s1.4-.62,2.11-1.37c.63-.75,1.68-1.37,2.25-1.37s1.05-.34,1.05-.69c0-.41,.28-.69,.7-.69,.35,0,2.32-1.51,4.28-3.43,1.97-1.85,3.86-3.43,4.21-3.43,.77,0,5.54-4.67,5.54-5.49,0-.34,1.61-2.13,3.51-3.98,1.97-1.85,3.51-3.71,3.51-4.19,0-.41,.28-.75,.7-.75,.35,0,.84-.75,1.12-1.65,.21-.96,.84-1.85,1.4-2.06s.98-.82,.98-1.44c0-.55,.28-1.03,.63-1.03s.91-.69,1.19-1.51c.21-.82,.84-1.92,1.26-2.4,1.97-2.13,2.32-2.75,2.81-4.53,.21-1.03,.77-1.85,1.12-1.85,.42,0,.7-.75,.7-1.65,0-.96,.42-2.13,.91-2.61,.56-.48,1.19-2.06,1.47-3.5,.28-1.37,.77-2.54,1.05-2.54,.35,0,.77-1.3,.98-2.81,.21-1.58,.7-3.09,1.12-3.29,.35-.27,.91-2.13,1.19-4.19s.77-3.98,1.12-4.19,.77-3.98,1.05-8.37c.21-4.39,.7-7.82,1.05-7.62,.28,.21,.56-37.33,.56-83.38s-.28-83.79-.56-83.79c-.35,0-.84-3.64-1.12-8.03-.21-4.39-.7-8.17-1.05-8.44-.35-.21-.84-2.13-1.12-4.32-.28-2.13-.77-3.91-1.12-3.91-.28,0-.77-1.37-1.05-3.09-.21-1.72-.7-3.09-.98-3.09s-.77-1.1-.98-2.4c-.28-1.3-.77-2.4-1.12-2.4-.28,0-.77-.96-1.05-2.06-.28-1.17-.77-2.06-1.05-2.06-.35,0-.84-1.1-1.12-2.4-.21-1.3-.7-2.4-.98-2.4-.35,0-.84-.69-1.12-1.51-.21-.82-.91-1.92-1.4-2.47-.56-.48-.98-1.3-.98-1.85,0-.48-.49-1.03-1.05-1.3-.56-.21-1.05-.82-1.05-1.44,0-.55-.28-1.03-.7-1.03-.35,0-.84-.75-1.12-1.72-.21-.96-.7-1.72-1.05-1.72s-.84-.48-1.12-1.1c-.21-.62-1.82-2.47-3.51-4.19-1.61-1.72-3.02-3.5-3.02-4.05s-.49-.96-1.05-.96-1.05-.48-1.05-1.03-.42-1.03-.91-1.03-1.4-.55-2.04-1.24c-2.6-2.61-3.86-3.57-4.63-3.57-.49,0-.84-.48-.84-1.03s-.35-1.03-.7-1.03c-.42,0-1.47-.75-2.32-1.65s-2.32-1.85-3.3-2.13-2.46-1.24-3.3-2.13-2.32-1.78-3.3-2.06c-.98-.21-1.82-.69-1.82-.96,0-.34-.91-.75-2.11-1.03-1.12-.27-2.11-.69-2.11-1.03s-.91-.75-2.11-1.03c-1.12-.27-2.11-.69-2.11-1.03s-.91-.75-2.11-1.03c-1.12-.27-2.11-.69-2.11-1.03s-1.4-.82-3.16-1.1c-1.75-.21-3.16-.69-3.16-1.03,0-.27-1.4-.75-3.16-1.03-1.75-.21-3.16-.69-3.16-.96s-2.32-.75-5.05-1.03c-2.81-.27-5.33-.82-5.54-1.17-.63-.89-22.32-1.1-22.95-.14-.28,.41-2.67,.96-5.4,1.24-2.67,.27-4.98,.75-5.12,1.1-.14,.41-1.05,.69-1.97,.69-1.61,0-5.97,2.4-6.46,3.57-.14,.34-.7,.55-1.26,.55s-1.19,.41-1.4,.96-1.12,1.17-2.11,1.37c-.91,.27-1.68,.75-1.68,1.1,0,.41-.49,.69-1.05,.69-.63,0-1.26,.48-1.47,1.03-.28,.55-.84,1.03-1.33,1.03-1.19,0-4.28,2.95-4.91,4.67-.21,.82-.77,1.51-1.12,1.51s-.63,.48-.63,1.03c0,.62-.42,1.24-.98,1.44s-1.19,1.1-1.4,2.06c-.28,.89-.77,1.65-1.12,1.65-.42,0-.7,.48-.7,1.03,0,.48-.49,1.24-1.12,1.58-.56,.34-1.26,1.85-1.47,3.43s-.63,2.88-.91,2.88c-.35,0-.77,2.61-1.05,5.83s-.77,5.83-1.12,5.83-.63,.48-.63,1.03-.28,1.03-.56,1.03c-.35,0-.28-2.06,.07-4.67,.91-6.86,.35-47.42-.7-48.04-.42-.27-1.05-2.88-1.33-5.76-.28-2.95-.7-5.15-.98-5.01s-.7-1.24-.91-3.16c-.21-1.85-.91-3.84-1.54-4.46-.56-.55-1.05-1.37-1.05-1.72s-.35-1.03-.7-1.51c-2.74-3.16-3.51-4.19-3.51-4.74,0-.34-.35-.96-.7-1.44-2.88-3.29-3.51-4.25-3.51-5.08,0-.48-.42-.89-.98-.89s-1.12-.21-1.26-.55c-.35-.69-4.63-3.57-5.4-3.57-.35,0-.77-.21-.91-.55-.35-.75-4.63-3.57-5.47-3.57-.35,0-.7-.21-.7-.55,0-1.1-4.7-2.88-8.77-3.29-2.32-.27-4.35-.75-4.56-1.03s-2.88-.69-5.97-.89c-3.09-.27-5.19-.21-4.77,0Zm7.37,2.33c1.68,.34,4.42,.96,6.18,1.37s3.93,.89,4.91,1.1c.98,.14,3.79,1.65,6.32,3.29s5.75,3.64,7.23,4.46c1.4,.89,2.6,1.85,2.6,2.2s.42,.62,.91,.62c.42,0,2.25,2.2,4,4.8,1.75,2.68,3.72,5.56,4.42,6.38,1.89,2.2,4,6.45,4.35,8.58,.14,1.03,.84,4.39,1.54,7.55,1.05,5.01,1.12,5.76,.21,6.31s-.84,.69,.14,.69c1.47,0,1.33-1.92,1.4,24.36,0,23.88,.21,27.11,1.68,27.11,.56,0,.98,.27,.98,.69,0,1.72,1.19,.41,1.97-2.26,.91-3.09,1.05-3.71,2.53-10.91,.98-4.67,2.25-7.21,6.74-13.25,1.4-1.92,3.09-4.39,3.72-5.63,.7-1.24,1.97-2.61,2.95-3.09,.91-.48,4.84-2.95,8.7-5.56,3.86-2.54,7.44-4.6,8.07-4.6,.56,0,4.98-.75,9.83-1.72s8.98-1.72,9.19-1.72,.35,7.89,.35,17.64,.14,17.43,.35,17.23c.21-.14,.35-8.1,.35-17.64,.07-9.47,.35-17.09,.63-16.95,.35,.21,2.81,.41,5.4,.41,4.49,.07,17.05,2.2,20.28,3.43,.77,.27,4.07,1.37,7.37,2.47,6.6,2.06,16.84,7.07,22.39,10.84,1.97,1.37,3.72,2.47,3.93,2.47,.14,0,1.33,.89,2.6,2.06,4.77,4.12,7.23,6.18,7.65,6.18,.28,0,2.81,2.68,5.61,5.97,2.88,3.36,5.33,6.18,5.54,6.38,.77,.75,4.91,6.93,4.91,7.34,0,.27,.42,.96,.98,1.51,1.12,1.24,6.11,10.77,5.97,11.46,0,.27,.28,.69,.63,.89,1.19,.75,5.68,15.03,6.74,21.55,.56,3.43,1.19,8.85,1.4,11.94,.28,5.35,.21,5.63-1.19,5.9-1.26,.21-1.19,.34,.42,.41,2.04,.07,2.67,1.44,.7,1.44-.91,0-.98,.21-.42,.55,.7,.41,.91,17.77,1.05,78.58,.14,42.89,.07,78.03-.14,78.03s-.28,2.26-.21,5.01c.21,9.81-4.35,27.66-9.97,38.91-2.39,4.74-6.39,11.53-7.37,12.35-.21,.21-.98,1.24-1.68,2.4-1.97,3.02-11.93,14.14-14.46,16.13-1.26,.96-3.23,2.61-4.42,3.64-3.09,2.68-10.11,7.34-10.95,7.34-.42,0-.77,.27-.77,.55,0,.89-13.76,7.41-19.79,9.33-4.42,1.44-9.33,2.81-15.3,4.12-2.74,.62-7.16,1.17-12.07,1.44-5.12,.27-5.4,.21-5.68-1.24q-.28-1.37-.42,.21l-.07,1.72-28.07,.07c-16.14,.07-28.07-.21-28.07-.55s-.49-.34-1.19,0-11.86,.62-24.77,.55l-23.51-.07v-155.92c0-85.78-.28-155.99-.56-155.99-.35,0-.42-.27-.21-.62,.21-.27,.42-23.13,.49-50.78,.07-42.41,.21-50.17,1.05-50.17,.49,0,2.32,.27,3.93,.69Z"/>
  <path d="M63.56,90.93c.49,.21,1.12,.14,1.33-.07,.28-.21-.14-.41-.91-.34-.77,0-.98,.21-.42,.41Z"/>
  <path d="M84.12,116.26c0,.75,.21,.96,.42,.41,.21-.48,.14-1.1-.07-1.3-.21-.27-.42,.14-.35,.89Z"/>
  <path d="M83.77,125.93c-.42,.96-.35,1.03,.35,.41,.49-.48,.7-1.03,.49-1.24s-.63,.14-.84,.82Z"/>
  <path d="M79.14,130.6c-.49,.62-.56,1.03-.14,1.03,.35,0,.84-.48,1.12-1.03,.21-.55,.28-1.03,.14-1.03s-.63,.48-1.12,1.03Z"/>
  <path d="M70.23,134.17c.63,.14,1.61,.14,2.11,0,.42-.21-.07-.34-1.26-.34-1.12,0-1.54,.14-.84,.34Z"/>
  <path d="M94.65,196.69l-.14,52.02,1.61,1.3c1.54,1.3,2.67,1.37,26.74,1.17,18.95-.14,25.05,.07,25.05,.69,0,.41,.77,.07,1.75-.82l1.68-1.58,.21,9.54c.14,5.22,.28-6.25,.42-25.46,.07-23.68,.35-35.07,.91-35.27,.35-.07,.14-.62-.56-1.17-1.12-.82-1.05-.89,1.19-1.03,2.18-.07,2.25-.14,.7-.55l-1.75-.48-.14-24.64c-.14-19.15-.35-24.71-1.05-25.19-.49-.27-13.4-.55-28.7-.55h-27.86l-.07,52.02Zm55.37,1.17v51.81h-53.34v-51.33c0-28.27,.21-51.61,.49-51.81,.21-.27,12.21-.48,26.67-.48h26.18v51.81Z"/>
  <path d="M122.51,155.78c1.19,.55,1.82,.55,2.39,0,.63-.62,.28-.82-1.54-.75-2.32,0-2.39,.07-.84,.75Z"/>
  <path d="M115.91,157.36c-.28,.55-.84,1.03-1.33,1.03-1.19,0-4.28,2.95-4.91,4.67-.21,.82-.77,1.51-1.12,1.51s-.63,.62-.63,1.37c0,2.06,1.19,1.65,1.61-.55,.42-1.99,4-6.31,5.26-6.31,.42,0,1.05-.41,1.33-.96s1.54-1.1,2.67-1.3l2.11-.27-2.32-.14c-1.47,0-2.46,.27-2.67,.96Z"/>
  <path d="M127.07,156.81c.63,.14,1.75,.14,2.46,0,.63-.21,.07-.34-1.26-.34s-1.89,.14-1.19,.34Z"/>
  <path d="M131.07,157.78c0,.34,.35,.48,.7,.27,.42-.21,.7-.55,.7-.75,0-.14-.28-.27-.7-.27-.35,0-.7,.34-.7,.75Z"/>
  <path d="M132.48,158.8c0,.14,.63,.55,1.4,.96s1.4,.48,1.4,.14c0-.41-.63-.82-1.4-1.03s-1.4-.21-1.4-.07Z"/>
  <path d="M135.28,161.82c0,.34,.28,.69,.63,.69s.91,.62,1.12,1.37,.7,1.37,1.05,1.37,.07-.89-.56-2.06c-1.19-2.06-2.25-2.68-2.25-1.37Z"/>
  <path d="M139,168.34c0,1.51,.14,2.06,.28,1.17,.14-.82,.14-2.06,0-2.75-.21-.62-.35,.07-.28,1.58Z"/>
  <path d="M107.63,172.74c.14,2.47,.56,4.6,.84,4.8,.35,.21,.84,1.1,1.12,1.92,.28,.89,.77,1.58,1.12,1.58,.28,0,.7,.62,.91,1.37s.84,1.37,1.47,1.37,1.12,.27,1.12,.62,.7,.89,1.61,1.17c.84,.27,1.75,.75,2.04,1.17,.21,.41,2.74,.69,5.61,.69,6.46,0,8.49-1.17,14.46-8.03,.98-1.24,1.12-3.16,.14-3.16-.35,0-.7,.41-.7,.96s-.42,1.44-.84,1.92c-.49,.55-1.26,1.51-1.68,2.26-.42,.69-1.33,1.58-2.11,1.99-.7,.41-1.54,1.03-1.75,1.3-.21,.34-1.75,.75-3.37,.96-1.54,.21-2.88,.69-2.88,1.03s-.63,.27-1.33-.14c-.77-.34-2.25-.69-3.3-.69-3.93,0-9.9-5.28-10.6-9.33-.21-1.3-.63-2.33-.98-2.33-.28,0-.7-1.3-.84-2.95-.14-1.58-.21-.89-.07,1.51Z"/>
  <path d="M138.93,173.49c0,1.3,.14,1.85,.35,1.17,.14-.62,.14-1.72,0-2.4-.21-.62-.35-.07-.35,1.24Z"/>
  <path d="M117.39,208.42c-.77,.34,1.12,.41,4.21,.27,7.3-.41,8.35-.75,2.11-.82-2.67,0-5.54,.27-6.32,.55Z"/>
  <path d="M129.53,208.97c.49,.21,1.12,.14,1.33-.07,.28-.21-.14-.41-.91-.34-.77,0-.98,.21-.42,.41Z"/>
  <path d="M111.63,212.95c-1.26,1.24-2.32,2.54-2.32,2.95s-.42,.82-.84,1.03c-1.47,.41-1.19,11.67,.35,13.31,.63,.75,1.19,1.58,1.19,1.85,0,1.1,3.93,4.25,4.91,3.98,.56-.21,.84-.07,.56,.21s0,.96,.56,1.58c1.4,1.37,12.21,2.13,12.21,.89,0-.48,.28-.62,.7-.41,.84,.48,5.61-2.61,7.02-4.53,.56-.82,1.47-1.92,1.97-2.4,.56-.55,.77-1.51,.49-2.2-.42-1.03-.56-.96-1.12,.41-.35,.89-1.05,2.06-1.61,2.54-.56,.55-1.12,1.24-1.26,1.51-.42,1.03-4.42,3.43-6.53,3.91-2.95,.75-8.07,.89-8.07,.27,0-.34-.77-.55-1.75-.55s-1.75-.27-1.75-.62c0-.41-.84-1.1-1.89-1.58-.98-.48-2.18-1.51-2.6-2.26-.42-.69-1.19-1.72-1.61-2.26-.49-.48-.91-1.65-.91-2.54s-.28-1.85-.7-2.06c-.84-.55-.91-6.52-.07-6.52,.35,0,.77-.82,.98-1.92,.21-1.03,1.4-2.88,2.67-4.12,1.19-1.24,2.11-2.33,1.97-2.47s-1.33,.75-2.53,1.99Z"/>
  <path d="M134.23,211.92c-.21,.34-.07,.69,.28,.69,.42,0,.77,.55,.77,1.17,0,.89,.21,.96,.77,.41,.63-.62,.56-1.1-.28-1.85-.7-.69-1.26-.82-1.54-.41Z"/>
  <path d="M136.69,215.15c0,1.03,1.26,2.4,1.61,1.85,.21-.34-.07-1.03-.63-1.51s-.98-.62-.98-.34Z"/>
  <path d="M138.93,220.16c0,1.3,.14,1.85,.35,1.17,.14-.62,.14-1.72,0-2.4-.21-.62-.35-.07-.35,1.24Z"/>
  <path d="M138.93,225.79q.07,2.81,.35,.55c.21-1.3,.7-2.61,1.12-2.88,.56-.34,.42-.55-.35-.55-1.05,0-1.26,.55-1.12,2.88Z"/>
  <path d="M164.62,146.52c.42,.14,1.26,.14,1.75,0,.42-.21,.07-.34-.91-.34s-1.33,.14-.84,.34Z"/>
  <path d="M165.32,148.58c.49,.21,1.12,.14,1.33-.07,.28-.21-.14-.41-.91-.34-.77,0-.98,.21-.42,.41Z"/>
  <path d="M70.58,186.32c.49,.21,1.12,.14,1.33-.07,.28-.21-.14-.41-.91-.34-.77,0-.98,.21-.42,.41Z"/>
  <path d="M158.3,195.93c.42,.14,1.26,.14,1.75,0,.42-.21,.07-.34-.91-.34s-1.33,.14-.84,.34Z"/>
  <path d="M162.16,195.93c.63,.14,1.75,.14,2.46,0,.63-.21,.07-.34-1.26-.34s-1.89,.14-1.19,.34Z"/>
  <path d="M171.64,195.93c.42,.14,1.26,.14,1.75,0,.42-.21,.07-.34-.91-.34s-1.33,.14-.84,.34Z"/>
  <path d="M176.9,195.93c.63,.14,1.75,.14,2.46,0,.63-.21,.07-.34-1.26-.34s-1.89,.14-1.19,.34Z"/>
  <path d="M181.46,195.93c.42,.14,1.26,.14,1.75,0,.42-.21,.07-.34-.91-.34s-1.33,.14-.84,.34Z"/>
  <path d="M185.32,195.93c.63,.14,1.75,.14,2.46,0,.63-.21,.07-.34-1.26-.34s-1.89,.14-1.19,.34Z"/>
  <path d="M191.29,195.93c.42,.14,1.26,.14,1.75,0,.42-.21,.07-.34-.91-.34s-1.33,.14-.84,.34Z"/>
  <path d="M196.2,195.93c1.19,.14,3.3,.14,4.56,0,1.19-.14,.21-.27-2.32-.27s-3.51,.14-2.25,.27Z"/>
  <path d="M205.33,195.93c.49,.21,1.12,.14,1.33-.07,.28-.21-.14-.41-.91-.34-.77,0-.98,.21-.42,.41Z"/>
  <path d="M210.94,195.93c.49,.21,1.12,.14,1.33-.07,.28-.21-.14-.41-.91-.34-.77,0-.98,.21-.42,.41Z"/>
  <path d="M215.15,195.93c.84,.14,2.25,.14,3.16,0,.84-.14,.14-.27-1.61-.27s-2.46,.14-1.54,.27Z"/>
  <path d="M225.68,195.93c.49,.21,1.12,.14,1.33-.07,.28-.21-.14-.41-.91-.34-.77,0-.98,.21-.42,.41Z"/>
  <path d="M229.19,195.93c.42,.14,1.26,.14,1.75,0,.42-.21,.07-.34-.91-.34s-1.33,.14-.84,.34Z"/>
  <path d="M233.75,195.93c.63,.14,1.61,.14,2.11,0,.42-.21-.07-.34-1.26-.34-1.12,0-1.54,.14-.84,.34Z"/>
  <path d="M243.22,195.93c.49,.21,1.12,.14,1.33-.07,.28-.21-.14-.41-.91-.34-.77,0-.98,.21-.42,.41Z"/>
  <path d="M154.79,197.99c.49,.21,1.12,.14,1.33-.07,.28-.21-.14-.41-.91-.34-.77,0-.98,.21-.42,.41Z"/>
  <path d="M157.6,197.99c.49,.21,1.12,.14,1.33-.07,.28-.21-.14-.41-.91-.34-.77,0-.98,.21-.42,.41Z"/>
  <path d="M166.02,197.99c.49,.21,1.12,.14,1.33-.07,.28-.21-.14-.41-.91-.34-.77,0-.98,.21-.42,.41Z"/>
  <path d="M168.83,197.99c.42,.14,1.26,.14,1.75,0,.42-.21,.07-.34-.91-.34s-1.33,.14-.84,.34Z"/>
  <path d="M201.11,197.99c.49,.21,1.12,.14,1.33-.07,.28-.21-.14-.41-.91-.34-.77,0-.98,.21-.42,.41Z"/>
  <path d="M248.84,197.99c.49,.21,1.12,.14,1.33-.07,.28-.21-.14-.41-.91-.34-.77,0-.98,.21-.42,.41Z"/>
  <path d="M86.23,219.2c0,.75,.21,.96,.42,.41,.21-.48,.14-1.1-.07-1.3-.21-.27-.42,.14-.35,.89Z"/>
  <path d="M159.99,220.16c0,.96,.14,1.3,.35,.82,.14-.41,.14-1.24,0-1.72-.21-.41-.35-.07-.35,.89Z"/>
  <path d="M162.09,220.5c0,1.1,.14,1.51,.35,.82,.14-.62,.14-1.58,0-2.06-.21-.41-.35,.07-.35,1.24Z"/>
  <path d="M70.58,260.44c.49,.21,1.12,.14,1.33-.07,.28-.21-.14-.41-.91-.34-.77,0-.98,.21-.42,.41Z"/>
  <path d="M175.15,260.44c.42,.14,1.26,.14,1.75,0,.42-.21,.07-.34-.91-.34s-1.33,.14-.84,.34Z"/>
  <path d="M228.49,260.44c.49,.21,1.12,.14,1.33-.07,.28-.21-.14-.41-.91-.34-.77,0-.98,.21-.42,.41Z"/>
  <path d="M151.71,283.3c0,8.1,.14,11.46,.21,7.34,.14-4.05,.14-10.64,0-14.75-.07-4.05-.21-.69-.21,7.41Z"/>
  <path d="M97.39,270.6c0,.55,.35,1.03,.7,1.03,.42,0,.7-.48,.7-1.03s-.28-1.03-.7-1.03c-.35,0-.7,.48-.7,1.03Z"/>
  <path d="M97.39,273c0,.34,.35,.69,.77,.69,.35,0,.49-.34,.28-.69-.21-.41-.56-.69-.77-.69-.14,0-.28,.27-.28,.69Z"/>
  <path d="M84.12,276.16c0,.75,.21,.96,.42,.41,.21-.48,.14-1.1-.07-1.3-.21-.27-.42,.14-.35,.89Z"/>
  <path d="M147.92,298.81c0,.34-10.18,.62-25.12,.55-19.86,0-25.27,.21-25.97,.89-.56,.48-1.26,.75-1.61,.55-.63-.41-.77,21-.56,77.55,.14,29.92,.07,28.48,.77,28.07,.28-.14,.84,.07,1.33,.55,.63,.69,6.32,.82,25.97,.69,23.58-.14,25.2-.07,25.2,1.03,0,1.03,.21,.96,1.12-.34,.91-1.37,.98-1.65,0-2.54-.84-.89-4.77-1.03-26.04-1.03-16.49,0-24.84,.21-24.56,.69,.21,.34-.07,.69-.63,.69-.98,0-1.12-5.42-1.12-52.5v-52.5h53.34v52.5c0,33.56,.28,52.5,.7,52.5,.35,0,.77,3.91,.91,9.4l.21,9.47,.07-9.88c.07-7.48,.28-10.02,.98-10.43s.7-.62,.14-.62-.84-1.37-.84-4.32c.14-20.18-.28-100.75-.56-99.78-.28,1.24-.42,1.17-2.04-.27-.91-.82-1.68-1.24-1.68-.89Z"/>
  <path d="M118.65,311.98c-.91,.27-2.25,1.03-3.02,1.65-.77,.69-1.4,1.03-1.4,.82,0-.27-1.12,.69-2.46,2.06-1.33,1.44-2.46,2.95-2.46,3.36,.07,.75,2.32-1.44,2.95-2.81,.49-1.03,4.77-3.57,6.18-3.57,.77,0,1.4-.34,1.4-.69,0-.41,1.61-.69,3.51-.69s3.51,.27,3.51,.69c0,.34,.7,.69,1.61,.69s1.97,.34,2.46,.82,.84,.62,.84,.34c0-.21,1.05,.55,2.39,1.78,1.26,1.24,2.25,2.4,2.04,2.68-.14,.34,.07,.55,.42,.55,.42,0,.77,.48,.77,1.03s.35,1.03,.7,1.03c.42,0,.77,2.33,.84,5.28,.07,4.53,.14,4.87,.49,2.26,.63-4.25-.28-8.51-2.18-10.71-2.67-3.02-5.05-5.08-5.97-5.08-.49,0-.91-.34-.91-.75s-.49-.62-1.05-.41c-.56,.27-1.19,.14-1.4-.21-.49-.75-6.81-.82-9.26-.14Z"/>
  <path d="M107.56,323.99c-.28,1.65-.35,3.77-.14,4.67,.14,.89,.35,.21,.42-1.65,0-1.78,.42-3.23,.77-3.23,.42,0,.7-.62,.7-1.37,0-2.61-1.33-1.37-1.75,1.58Z"/>
  <path d="M191.64,326.53c0,2.47,.14,3.43,.28,2.2,.14-1.17,.14-3.23,0-4.46-.14-1.17-.28-.21-.28,2.26Z"/>
  <path d="M215.36,325.57c0,.75,.21,.96,.42,.41,.21-.48,.14-1.1-.07-1.3-.21-.27-.42,.14-.35,.89Z"/>
  <path d="M107.91,332.02c0,.75,.35,1.37,.7,1.37,.42,0,.7-.62,.7-1.37s-.28-1.37-.7-1.37c-.35,0-.7,.62-.7,1.37Z"/>
  <path d="M137.04,333.87c-.49,2.13-4.28,5.97-6.53,6.66-.84,.27-1.54,.82-1.54,1.17s-2.39,.62-5.26,.62-5.26-.27-5.26-.62-.7-.82-1.54-1.03c-1.89-.48-3.86-2.06-6.04-4.8-1.05-1.3-1.54-1.58-1.54-.89,0,.62,.56,1.44,1.26,1.78,.63,.41,.98,.75,.7,.75-1.05,0,2.32,2.81,5.05,4.19,2.32,1.24,3.79,1.37,8.49,1.17,3.09-.14,5.83-.55,6.11-.89,.28-.41,1.68-1.44,3.09-2.4s2.81-2.4,3.02-3.23c.21-.89,.7-1.58,1.05-1.58,.84,0,.91-1.85,.07-2.33-.35-.21-.84,.41-1.12,1.44Z"/>
  <path d="M202.03,355.77c0,.75,.21,.96,.42,.41,.21-.48,.14-1.1-.07-1.3-.21-.27-.42,.14-.35,.89Z"/>
  <path d="M202.8,360.84c0,.96,.14,1.3,.35,.82,.14-.41,.14-1.24,0-1.72-.21-.41-.35-.07-.35,.89Z"/>
  <path d="M68.47,363.38c.49,.21,1.12,.14,1.33-.07,.28-.21-.14-.41-.91-.34-.77,0-.98,.21-.42,.41Z"/>
  <path d="M120.41,363.38c-1.47,.14-2.67,.55-2.67,.89,0,.27-.77,.75-1.75,.96-.98,.27-1.75,.75-1.75,1.1,0,.41-.49,.69-1.05,.69-.63,0-1.33,.55-1.54,1.17-.28,.69-.91,1.65-1.4,2.13s-.91,1.24-.91,1.65,.63,.07,1.4-.82,1.4-1.99,1.4-2.54c0-.48,.42-.89,.98-.89s1.54-.48,2.18-1.1,2.53-1.3,4.28-1.51c1.68-.14,3.09-.62,3.09-.89,0-.34,.49-.62,1.05-.62s1.05,.27,1.05,.69c0,.34,.98,.69,2.11,.69,1.19,0,2.11-.34,2.11-.69,0-.41-.7-.69-1.54-.69-.91,0-2.25-.14-3.02-.27s-2.6-.07-4,.07Z"/>
  <path d="M130.44,365.79c.56,.62,1.75,1.24,2.53,1.51,.84,.27,1.75,1.1,1.97,1.85,.28,.69,.77,1.17,1.12,.89,.84-.48-2.88-4.05-4.98-4.74-1.47-.48-1.54-.41-.63,.48Z"/>
  <path d="M200.69,370.8c0,1.1,.14,1.51,.35,.82,.14-.62,.14-1.58,0-2.06-.21-.41-.35,.07-.35,1.24Z"/>
  <path d="M136.69,370.93c0,1.03,1.33,2.54,1.82,2.13,.21-.27-.07-.96-.7-1.58s-1.12-.89-1.12-.55Z"/>
  <path d="M107.49,375.67c-.63,4.19,.07,9.68,1.47,10.98,.56,.55,1.05,1.37,1.05,1.72,0,1.51,6.32,6.11,8.35,6.11,.77,0,1.61,.27,1.82,.69,.21,.34,1.68,.69,3.23,.69s2.74-.34,2.74-.69c0-.41,1.12-.69,2.46-.69,1.26,0,2.67-.41,2.95-.89,.28-.41,1.19-1.17,1.97-1.58,2.11-1.1,5.54-6.45,4.7-7.27-.42-.41-.84,0-1.12,1.24-.49,1.72-2.04,3.43-6.46,7.07-.84,.69-3.02,1.03-6.88,1.03-5.26,.07-5.9-.07-8.49-1.99-1.54-1.17-2.88-2.26-3.02-2.54-.14-.21-.84-1.1-1.61-1.99-.7-.82-1.33-2.2-1.33-3.09s-.28-1.78-.7-1.99c-.35-.21-.7-1.92-.7-3.84s.35-3.36,.7-3.36c.91,0,.91-1.85,.07-2.4-.42-.21-.91,1.03-1.19,2.81Z"/>
  <path d="M138.86,379.03c0,2.88,.14,5.15,.35,4.94s.35-2.4,.35-4.94-.14-4.74-.35-4.94-.35,2.06-.35,4.94Z"/>
  <path d="M115.98,417.12c-.21,.41,.07,.48,.63,.27,1.26-.48,1.47-.96,.49-.96-.42,0-.91,.27-1.12,.69Z"/>
  <path d="M63,419.11c0,.34,.63,.48,1.4,.27s1.4-.48,1.4-.62-.63-.27-1.4-.27-1.4,.27-1.4,.62Z"/>
  <path d="M118.3,418.97c.49,.21,1.12,.14,1.33-.07,.28-.21-.14-.41-.91-.34-.77,0-.98,.21-.42,.41Z"/>
  <path d="M148.06,425.7c0,1.1,.14,1.51,.35,.82,.14-.62,.14-1.58,0-2.06-.21-.41-.35,.07-.35,1.24Z"/>
  <path d="M151.71,432.22c0,3.57,.07,5.08,.21,3.23,.14-1.78,.14-4.67,0-6.52-.14-1.78-.21-.27-.21,3.29Z"/>
  <path d="M147.99,430.57c0,.75,.21,.96,.42,.41,.21-.48,.14-1.1-.07-1.3-.21-.27-.42,.14-.35,.89Z"/>
  <path d="M147.92,434.62c0,.96,.14,1.72,.28,1.72s.42-.75,.56-1.72c.21-.96,.07-1.72-.21-1.72-.35,0-.63,.75-.63,1.72Z"/>
  <path d="M14.57,52.09c0,.48-.7,.62-1.75,.34-1.33-.34-2.25,0-3.72,1.3-1.05,.96-1.61,1.72-1.33,1.72,.35,0,1.05-.48,1.61-1.03,.63-.55,1.97-1.03,3.02-1.03s2.18-.27,2.6-.62c.35-.34,1.75-.75,3.09-.96q2.32-.27-.49-.34c-1.82-.07-3.02,.14-3.02,.62Z"/>
  <path d="M121.81,51.81c.84,.14,2.25,.14,3.16,0,.84-.14,.14-.27-1.61-.27s-2.46,.14-1.54,.27Z"/>
  <path d="M175.85,51.81c.84,.14,2.11,.14,2.81,0,.63-.21-.07-.34-1.61-.27-1.54,0-2.11,.14-1.19,.27Z"/>
  <path d="M228.49,51.81c.84,.14,2.11,.14,2.81,0,.63-.21-.07-.34-1.61-.27-1.54,0-2.11,.14-1.19,.27Z"/>
  <path d="M281.82,51.81c.84,.14,2.11,.14,2.81,0,.63-.21-.07-.34-1.61-.27-1.54,0-2.11,.14-1.19,.27Z"/>
  <path d="M21.24,52.71c-.21,.34,.21,.69,1.05,.69s1.26-.34,1.05-.69c-.21-.41-.7-.69-1.05-.69s-.84,.27-1.05,.69Z"/>
  <path d="M117.32,52.77c-.21,.34,.42,.62,1.4,.62,2.18,0,2.39-.41,.42-.89-.77-.21-1.61-.07-1.82,.27Z"/>
  <path d="M127.7,52.64c-.63,.34-.07,.69,1.82,1.03,1.54,.21,2.95,.89,3.23,1.44,.21,.55,.91,.96,1.61,.96,1.19-.07,1.19-.14,.07-.41-.7-.14-1.26-.55-1.26-.89,0-.41-3.93-2.81-4.49-2.75-.07,0-.49,.27-.98,.62Z"/>
  <path d="M171.43,52.71c-1.33,.55-1.33,.62,.21,.62,.84,.07,1.54-.27,1.54-.62,0-.41-.07-.69-.14-.62-.14,0-.84,.27-1.61,.62Z"/>
  <path d="M179.78,52.84c-.21,.27,.42,.55,1.4,.55,.91,0,2.32,.21,3.02,.48q1.19,.41,.14-.69c-1.19-1.1-3.93-1.3-4.56-.34Z"/>
  <path d="M223.71,52.84c0,.27,.84,.55,1.89,.55,.98,0,1.61-.21,1.33-.48-.7-.69-3.23-.75-3.23-.07Z"/>
  <path d="M277.75,52.71c-.91,.55-.84,.69,.21,.69,.63,0,1.19-.34,1.19-.69,0-.82-.07-.82-1.4,0Z"/>
  <path d="M286.95,52.71c-.56,.34-.07,.62,1.4,.89,2.95,.41,3.23,.21,1.12-.69-.91-.41-2.11-.55-2.53-.21Z"/>
  <path d="M235.64,53.53c1.33,.34,2.67,1.03,2.95,1.44,.42,.62,.56,.62,.56-.07,0-.96-2.88-2.26-4.77-2.13-.63,0-.07,.34,1.26,.75Z"/>
  <path d="M24.75,54.08c.21,.34,.56,.69,.77,.69,.14,0,.28-.34,.28-.69,0-.41-.35-.69-.77-.69-.35,0-.49,.27-.28,.69Z"/>
  <path d="M111.98,56.14c-1.12,1.1-1.97,2.2-1.97,2.54,0,.27,.77-.34,1.75-1.37s2.11-1.85,2.46-1.85c.42,0,.7-.34,.7-.69,0-1.17-.98-.69-2.95,1.37Z"/>
  <path d="M166.87,54.7c0,.41-.56,.75-1.19,.82-.7,0-.91,.21-.42,.34,1.26,.55,3.44-.75,2.39-1.37-.42-.27-.77-.14-.77,.21Z"/>
  <path d="M185.81,54.63c0,.27,.63,1.03,1.4,1.72,.77,.62,1.4,.89,1.4,.62s-.63-1.03-1.4-1.72c-.77-.62-1.4-.89-1.4-.62Z"/>
  <path d="M220.2,54.76c0,.34,.35,.69,.77,.69,.35,0,.49-.34,.28-.69-.21-.41-.56-.69-.77-.69-.14,0-.28,.27-.28,.69Z"/>
  <path d="M271.37,56.62c-4.28,4.67-4.98,6.18-4.98,11.12,0,2.68,.42,5.22,.98,6.25,2.81,4.8,3.79,6.18,4.49,6.18,.42,0,1.47,.62,2.39,1.37s2.39,1.37,3.3,1.37c.84,0,1.61,.27,1.61,.69,0,.34,1.4,.69,3.16,.69s3.16-.27,3.16-.62,1.26-.75,2.81-1.03c1.54-.21,2.81-.69,2.81-1.03,0-.41,.56-.82,1.26-1.1,1.26-.41,4-3.64,3.51-4.19-.21-.14-1.47,.75-2.81,1.92-4.56,4.12-4.7,4.12-9.97,4.19-4.98,0-7.23-.75-10.11-3.43-.49-.48-1.26-.89-1.61-.89s-.63-.41-.63-.96-.56-1.51-1.19-2.2c-1.05-.96-1.26-2.4-1.26-7.41,0-6.59-.07-6.45,4.07-10.84,1.12-1.1,1.82-2.2,1.68-2.33s-1.33,.89-2.67,2.26Z"/>
  <path d="M27.21,55.66c.56,.48,1.4,1.3,1.89,1.78,.7,.75,.77,.69,.49-.48-.21-.75-1.12-1.58-1.89-1.78-1.33-.27-1.4-.21-.49,.48Z"/>
  <path d="M5.24,56.69c-.7,.69-1.19,1.51-1.19,1.85,0,.27,.63-.14,1.4-1.03s1.4-1.72,1.4-1.85c0-.48-.56-.14-1.61,1.03Z"/>
  <path d="M216.76,57.92c-1.75,2.88-1.89,3.5-.42,2.06,.56-.55,1.05-1.3,1.05-1.72,0-.34,.49-1.17,1.12-1.72,.56-.62,.77-1.1,.42-1.1-.42,0-1.33,1.1-2.18,2.47Z"/>
  <path d="M240.21,56.14c.21,.34,.56,.69,.77,.69,.14,0,.28-.34,.28-.69,0-.41-.35-.69-.77-.69-.35,0-.49,.27-.28,.69Z"/>
  <path d="M241.96,57.17c0,.41,.56,1.44,1.19,2.4,.63,.89,1.4,2.75,1.75,4.05,.49,2.33,.49,2.26,.21-.55-.14-1.65-.56-3.23-.91-3.43s-.98-1.03-1.4-1.78-.84-1.03-.84-.69Z"/>
  <path d="M294.32,57.37c.42,.27,.91,1.03,1.19,1.65,.21,.69,.84,1.24,1.33,1.24,.63,0,.63-.21,.14-.55-.42-.27-.91-1.03-1.19-1.72-.21-.62-.84-1.17-1.33-1.17-.63,0-.63,.21-.14,.55Z"/>
  <path d="M136.13,58.47c.49,.55,1.05,.82,1.19,.75,.35-.41-.7-1.72-1.4-1.72-.35,0-.28,.41,.21,.96Z"/>
  <path d="M189.32,58.47c0,.55,.28,1.17,.63,1.37,.35,.27,.49-.21,.28-.96-.42-1.58-.91-1.78-.91-.41Z"/>
  <path d="M30.36,58.88c-.21,.34-.07,.69,.28,.69,.42,0,.77-.34,.77-.69,0-.41-.14-.69-.28-.69-.21,0-.56,.27-.77,.69Z"/>
  <path d="M162.65,58.88c0,.34,.35,.69,.77,.69,.35,0,.49-.34,.28-.69-.21-.41-.56-.69-.77-.69-.14,0-.28,.27-.28,.69Z"/>
  <path d="M1.45,64.17c-.91,5.9,1.05,12.15,4.84,15.3,3.16,2.75,4.49,3.43,6.32,3.43,1.05,0,1.97,.27,1.97,.69,0,.34,1.26,.69,2.81,.69,1.75,0,2.81-.34,2.81-.89s.28-.48,.7,.21,.7,.75,.7,.14c0-.41,.56-.82,1.33-.82,.7,0,2.11-.62,3.09-1.37s2.11-1.37,2.53-1.37,.77-.41,.77-.96,.49-1.1,1.05-1.37c.56-.21,1.05-.82,1.05-1.3,0-.55,.49-1.37,1.05-1.85,1.12-.89,1.54-6.86,.42-6.86-.35,0-.77,1.51-1.05,3.43-.28,1.85-.77,3.43-1.12,3.43s-.84,.62-1.05,1.44c-.56,1.65-2.81,4.05-3.79,4.05-.35,0-1.19,.48-1.82,1.1-1.61,1.65-10.18,1.58-13.33-.14-1.33-.69-2.46-1.51-2.46-1.78,0-.34-.49-.55-1.05-.55s-1.05-.48-1.05-1.03c0-.62-.49-1.24-1.05-1.44-.56-.27-1.05-.82-1.05-1.3s-.42-1.03-.84-1.24c-.63-.14-.91-2.2-.91-6.86,.07-3.71,0-6.66-.07-6.66s-.42,1.78-.77,3.91Z"/>
  <path d="M137.39,60.94c0,.34,.35,.69,.77,.69,.35,0,.49-.34,.28-.69-.21-.41-.56-.69-.77-.69-.14,0-.28,.27-.28,.69Z"/>
  <path d="M107.56,63.76c-.56,3.16,.14,10.23,1.05,10.23,.28,0,.77,.75,.98,1.72,.77,2.95,6.25,7.21,9.19,7.21,.98,0,1.75,.27,1.75,.69,0,.34,1.4,.69,3.16,.69s3.16-.34,3.16-.69c0-.41,.7-.69,1.61-.69,3.09,0,10.32-6.73,10.32-9.61,0-1.37-1.26-.62-1.68,1.03-.28,.96-.77,1.72-1.12,1.72-.42,0-.7,.41-.7,.89,0,.96-2.46,3.23-3.44,3.23-.35,0-1.19,.48-1.82,1.1-.84,.82-2.46,1.1-6.46,1.1-2.88,0-5.47-.27-5.75-.69-.21-.34-1.12-.82-1.97-1.1-.91-.27-1.61-.82-1.61-1.17s-.49-.62-1.05-.62-1.05-.48-1.05-1.03c0-.62-.49-1.24-1.05-1.44s-1.19-1.44-1.47-2.75c-.21-1.3-.7-2.54-1.05-2.75-.84-.48-.84-7.14,0-7.14,.42,0,.63-.62,.56-1.37-.14-2.33-1.05-1.51-1.54,1.44Z"/>
  <path d="M191.57,62.31c0,.96,.14,1.3,.35,.82,.14-.41,.14-1.24,0-1.72-.21-.41-.35-.07-.35,.89Z"/>
  <path d="M297.47,62.04c0,.75,.21,.96,.42,.41,.21-.48,.14-1.1-.07-1.3-.21-.27-.42,.14-.35,.89Z"/>
  <path d="M32.4,62.04c-.84,.34-.42,4.19,.49,4.8,.35,.21,.63-.89,.63-2.4s-.07-2.81-.14-2.75c-.14,0-.56,.21-.98,.34Z"/>
  <path d="M160.41,64.37c-.35,3.84,.14,8.3,.91,7.82,.98-.55,.77-4.25-.21-4.6-.7-.21-.7-.55-.14-1.24,.91-1.17,1.12-3.91,.28-4.39-.28-.21-.7,.89-.84,2.4Z"/>
  <path d="M214.66,62.45c0,.69-.35,1.24-.77,1.24-.35,0-.7,1.51-.7,3.43,0,2.06,.28,3.43,.77,3.43,.42,0,.63,.48,.35,1.03-.42,1.17,1.4,5.56,3.09,7.27,1.75,1.78,6.04,4.05,7.65,4.05,.77,0,1.47,.27,1.47,.69,0,.34,1.4,.69,3.16,.69s3.16-.27,3.16-.62c0-.27,1.12-.75,2.46-.96,4.42-.69,10.18-7.75,10.18-12.42,0-.96,.35-1.92,.7-2.13,.42-.21,.7-.75,.7-1.1,0-.41-.49-.27-1.05,.34-.56,.55-1.05,1.78-1.05,2.68,0,1.85-2.11,5.97-2.95,5.97-.35,0-.56,.41-.56,.89,0,.96-2.46,3.23-3.51,3.23-.35,0-.91,.48-1.26,1.1-.49,.89-1.82,1.17-6.53,1.17-3.72,0-5.9-.27-6.11-.82-.14-.41-.63-.75-1.12-.75-2.32,0-7.44-6.38-7.44-9.2,0-.96-.21-1.78-.56-1.78-.77,0-.77-5.08,.07-5.56,.35-.27,.49-1.03,.28-1.72-.28-1.17-.35-1.17-.42-.14Z"/>
  <path d="M138.79,67.12c0,2.75,.21,4.87,.42,4.6,.49-.48,.49-8.78-.07-9.26-.21-.21-.35,1.92-.35,4.67Z"/>
  <path d="M298.39,66.77c.14,1.72-.07,3.29-.35,3.5-.35,.21-.63,1.1-.63,1.99s-.42,1.72-.84,1.92c-.7,.27-.7,.48-.07,1.17,.7,.75,.98,.34,1.33-1.92,.28-1.58,.7-2.88,1.05-2.88,.91,0,.77-5.97-.07-6.52-.49-.27-.63,.69-.42,2.75Z"/>
  <path d="M191.92,68.49c-.49,4.12-1.54,6.73-3.09,7.75-.49,.27-.91,1.03-.91,1.51,0,.55-.49,1.03-1.05,1.03s-1.05,.21-1.05,.55c0,.27-1.12,1.1-2.53,1.85-3.23,1.72-11.58,1.72-13.33,.07-.56-.62-1.4-1.1-1.75-1.1-.98,0-3.23-2.4-3.79-4.05-.21-.82-.77-1.44-1.12-1.44s-.63-.55-.63-1.24c0-.89-.14-.96-.63-.21-.63,.96,1.19,4.87,2.25,4.87,.28,0,.49,.48,.49,1.03s.49,1.03,1.05,1.03,1.68,.62,2.46,1.37,2.18,1.37,3.16,1.37,1.75,.34,1.75,.69c0,.48,1.4,.69,3.51,.62,1.97-.14,3.51-.41,3.51-.75,0-.27,.77-.55,1.68-.55,1.68,0,4.98-2.13,6.6-4.25,.49-.62,1.33-1.65,1.89-2.2,1.19-1.17,2.6-6.52,2.46-9.61-.07-3.43-.49-2.75-.91,1.65Z"/>
  <path d="M12.47,104.18c0,.34,.77,.69,1.75,.69s1.75-.34,1.75-.69c0-.41-.77-.69-1.75-.69s-1.75,.27-1.75,.69Z"/>
  <path d="M18.78,104.18c0,.34,.77,.69,1.75,.69s1.75-.34,1.75-.69c0-.41-.77-.69-1.75-.69s-1.75,.27-1.75,.69Z"/>
  <path d="M224.77,104.18c-.21,.34-.07,.69,.28,.69,.42,0,.77-.34,.77-.69,0-.41-.14-.69-.28-.69-.21,0-.56,.27-.77,.69Z"/>
  <path d="M231.43,104.18c0,.34,.63,.69,1.4,.69s1.4-.34,1.4-.69c0-.41-.63-.69-1.4-.69s-1.4,.27-1.4,.69Z"/>
  <path d="M278.45,104.18c0,.34,.63,.69,1.4,.69s1.4-.34,1.4-.69c0-.41-.63-.69-1.4-.69s-1.4,.27-1.4,.69Z"/>
  <path d="M284.42,104.18c-.21,.34-.14,.69,.28,.69,.35,0,.91-.34,1.12-.69,.21-.41,.14-.69-.28-.69-.35,0-.91,.27-1.12,.69Z"/>
  <path d="M10.22,105.34c.49,.21,1.12,.14,1.33-.07,.28-.21-.14-.41-.91-.34-.77,0-.98,.21-.42,.41Z"/>
  <path d="M23.7,105.34c.56,.21,1.33,.75,1.61,1.17,.42,.48,.49,.41,.28-.27-.14-.55-.84-1.1-1.61-1.17-.91-.14-1.05-.07-.28,.27Z"/>
  <path d="M274.8,105.82c-.56,.48-1.68,1.17-2.53,1.37-.84,.27-1.75,1.24-1.97,2.2-.21,.89-.7,1.65-1.05,1.65-1.05,0-2.88,4.74-2.6,6.52,.21,.96,.14,1.72-.14,1.72-.7,0,0,4.19,1.26,7,.63,1.44,1.33,2.61,1.61,2.61s.7,.55,.98,1.24c.21,.75,1.05,1.65,1.97,2.13,.84,.41,2.53,1.37,3.65,2.06,1.54,.96,3.44,1.37,6.88,1.37,2.6,.07,4.7-.21,4.7-.55s.84-.82,1.82-1.03c1.89-.48,6.6-4.32,6.6-5.35,0-.34,.49-1.1,1.05-1.65,.56-.62,1.05-1.99,1.05-3.09s.35-1.99,.7-1.99c.91,0,.91-5.28,0-5.83-.49-.27-.7,.41-.7,1.85,.14,3.16-.77,8.1-1.47,8.1-.28,0-.77,.62-.98,1.44-.56,1.65-2.81,4.05-3.79,4.05-.35,0-1.19,.55-1.89,1.17-.98,.96-2.46,1.24-7.16,1.24-4.14,0-6.11-.27-6.25-.89-.21-.41-.77-.82-1.26-.82-1.19,0-5.26-3.98-5.26-5.15,0-.48-.42-1.03-.84-1.17-1.33-.48-1.68-11.67-.42-12.97,.56-.55,1.61-1.99,2.32-3.23,.77-1.17,1.61-2.2,1.97-2.2s1.4-.62,2.39-1.37,1.47-1.37,1.05-1.37-1.19,.41-1.68,.96Z"/>
  <path d="M291.02,106.3c.77,.82,1.75,1.3,2.32,1.1,.63-.27,.56-.41-.21-.41-.63-.07-1.33-.55-1.61-1.1-.21-.55-.7-1.03-1.12-1.03s-.14,.62,.63,1.44Z"/>
  <path d="M8.26,106.1c0,.34-.63,.82-1.4,1.03s-1.4,.75-1.4,1.3,.21,.62,.56,.21c.28-.41,1.26-1.03,2.18-1.44,1.19-.48,1.47-.89,.91-1.24-.49-.27-.84-.21-.84,.14Z"/>
  <path d="M220.91,106.24c0,.34,.35,.69,.7,.69,.42,0,.7-.34,.7-.69,0-.41-.28-.69-.7-.69-.35,0-.7,.27-.7,.69Z"/>
  <path d="M238.45,106.58c.49,.55,1.19,1.03,1.54,1.03s.21-.48-.42-1.03c-.56-.55-1.26-1.03-1.54-1.03-.21,0-.07,.48,.42,1.03Z"/>
  <path d="M219.15,107.68c-.28,.41-.35,.82-.14,1.03,.14,.21,.49-.14,.7-.75,.49-1.17,.07-1.37-.56-.27Z"/>
  <path d="M29.03,108.98c.21,.96,.84,2.06,1.4,2.47s.98,1.44,.98,2.2,.21,1.58,.56,1.78c.56,.34,.49,3.77-.14,8.3-.35,2.13-1.26,3.71-3.23,5.76-1.54,1.51-3.23,2.81-3.79,2.81s-1.12,.41-1.26,.82c-.49,1.37-11.93,1.24-13.33-.14-.63-.55-1.82-1.51-2.67-2.06s-2.39-2.26-3.44-3.77c-1.61-2.4-1.82-3.43-1.82-8.37,0-3.09-.21-5.08-.49-4.39-1.12,3.02-.42,11.74,.98,11.74,.35,0,.49,.27,.28,.62-.63,.96,5.33,6.79,7.51,7.27,1.05,.27,1.89,.75,1.89,1.1s2.39,.62,5.26,.62,5.26-.27,5.26-.62,.7-.82,1.61-1.03c2.18-.62,4-2.26,6.67-6.04,2.11-2.95,2.25-3.64,2.25-8.72,0-3.23-.28-5.56-.7-5.56-.35,0-.7-.48-.7-1.03,0-.48-.42-1.24-.91-1.51s-1.26-1.3-1.75-2.26l-.84-1.72,.42,1.72Z"/>
  <path d="M241.05,109.05c.49,.48,1.05,.69,1.26,.48s-.14-.62-.84-.82c-.98-.41-1.05-.34-.42,.34Z"/>
  <path d="M216.91,109.53c-.49,.27-.63,.89-.28,1.44,.42,.62,.7,.48,.98-.55,.21-.82,.28-1.44,.28-1.44-.07,0-.49,.27-.98,.55Z"/>
  <path d="M3.55,110.7c-.49,.55-.63,1.1-.28,1.3s.84-.07,1.05-.69c.56-1.51,.28-1.72-.77-.62Z"/>
  <path d="M295.3,110.28c0,.69,1.33,1.72,1.75,1.37,.07-.14-.21-.69-.77-1.17s-.98-.55-.98-.21Z"/>
  <path d="M297.54,113.78c0,.96,.14,1.3,.35,.82,.14-.41,.14-1.24,0-1.72-.21-.41-.35-.07-.35,.89Z"/>
  <path d="M244.91,115.84c0,1.3,.14,1.85,.35,1.17,.14-.62,.14-1.72,0-2.4-.21-.62-.35-.07-.35,1.24Z"/>
  <path d="M244.77,121.95c0,1.51-.42,3.16-.98,3.64-.49,.55-1.12,1.58-1.4,2.26-.21,.75-1.54,2.13-2.88,3.09-2.39,1.72-3.09,2.75-1.75,2.75,.42,0,.7-.34,.7-.69,0-.41,.42-.69,.91-.69,1.12,0,3.02-2.13,3.65-4.05,.21-.82,.7-1.3,1.05-1.1,.7,.41,1.4-1.99,1.4-4.94,0-1.17,.42-2.33,.91-2.47,.49-.21,.35-.41-.35-.41-.98-.07-1.26,.48-1.26,2.61Z"/>
  <path d="M14.57,155.51c0,.41-.98,.82-2.25,.96-1.19,.14-2.32,.62-2.39,1.1s0,.55,.21,.14c.14-.34,1.26-.69,2.32-.69,1.97,0,3.37-1.03,2.53-1.85-.21-.27-.42-.07-.42,.34Z"/>
  <path d="M17.03,155.65c.21,.34,.7,.69,1.12,.69,.35,0,.63-.34,.63-.69,0-.41-.49-.69-1.12-.69-.56,0-.84,.27-.63,.69Z"/>
  <path d="M282.31,155.65c.21,.34,.91,.69,1.47,.69s.98-.34,.98-.69c0-.41-.63-.69-1.47-.69-.77,0-1.19,.27-.98,.69Z"/>
  <path d="M21.1,156.81c.63,.14,1.61,.14,2.11,0,.42-.21-.07-.34-1.26-.34-1.12,0-1.54,.14-.84,.34Z"/>
  <path d="M274.95,157.71c-.91,.75-1.26,1.37-.84,1.37s1.19-.41,1.75-.96,1.89-1.1,3.02-1.3l2.04-.27-2.18-.14c-1.26,0-2.81,.48-3.79,1.3Z"/>
  <path d="M287.51,156.81c.91,.21,2.18,.75,2.67,1.3,.56,.55,1.4,.96,1.97,.96,.49,0,1.12,.41,1.26,.82,.28,.69,.42,.69,.42,0,.07-.48-.49-1.1-1.12-1.3-.7-.27-1.68-.89-2.18-1.37s-1.75-.82-2.81-.82q-1.82,.14-.21,.41Z"/>
  <path d="M25.1,158.26c0,.41,.63,.82,1.4,1.03s1.4,.21,1.4,.07-.63-.55-1.4-.96-1.4-.48-1.4-.14Z"/>
  <path d="M4.89,160.93c-.84,.89-1.54,2.2-1.47,2.81,0,.75,.28,.62,.7-.48,.35-.89,1.19-2.06,1.89-2.54,.63-.48,1.05-1.03,.84-1.17-.21-.21-1.05,.41-1.97,1.37Z"/>
  <path d="M270.59,161.07c-2.53,2.75-4.28,6.66-3.93,8.65,.21,.96,.14,1.72-.14,1.72-.77,0,0,3.43,1.54,6.79,1.47,3.29,5.61,7.62,7.16,7.62,.56,0,1.12,.34,1.26,.82,.35,.96,11.65,1.17,12.35,.14,.56-.69,2.39-1.92,4.84-3.16,.91-.41,1.82-1.37,2.04-2.2,.28-.75,.91-1.78,1.4-2.33,.56-.48,.98-1.85,.98-2.95s.35-1.99,.7-1.99c.42,0,.7-.62,.7-1.37,0-2.47-1.26-1.44-1.75,1.44-.28,1.58-1.12,3.91-1.89,5.15-1.75,2.88-7.02,6.45-9.61,6.45-1.05,0-2.25,.34-2.67,.75-.56,.55-.91,.55-1.19,0-.28-.41-1.54-.75-2.74-.75-3.16-.07-8.21-3.84-10.11-7.69-1.97-3.77-2.25-11.46-.56-13.18,.56-.55,1.05-1.3,1.05-1.72s.7-1.3,1.54-2.13c.84-.75,1.33-1.51,1.12-1.72-.14-.21-1.12,.55-2.11,1.65Z"/>
  <path d="M29.24,161.89c2.32,2.4,3.3,6.66,2.74,11.53-.28,2.4-.98,4.87-1.61,5.49-.56,.69-1.05,1.44-1.05,1.65,0,.69-2.74,3.23-3.44,3.23-.35,0-.98,.48-1.47,1.03s-1.97,1.03-3.23,1.03c-1.33,0-2.39,.27-2.39,.69,0,.34-.63,.69-1.4,.69s-1.4-.34-1.4-.69c0-.41-.91-.69-2.11-.69-3.16,0-9.83-4.94-9.83-7.27,0-.48-.35-.96-.7-1.1-.42-.14-.98-2.06-1.19-4.32-.28-2.81-.56-3.64-.98-2.68-.56,1.58,1.12,8.72,2.18,9.06,.42,.14,.7,.55,.7,.89,0,.82,2.6,3.36,3.44,3.36,.35,0,.77,.48,1.05,1.03,.21,.55,.84,1.03,1.4,1.03s1.12,.34,1.26,.82c.42,1.17,11.93,1.17,12.35,0,.14-.41,.63-.82,1.12-.82,1.89,0,8.63-7.48,7.65-8.44-.21-.27-.07-.48,.35-.48,.56,0,.84-1.72,.84-5.15,0-2.81-.28-5.15-.63-5.15s-.84-.75-1.05-1.72c-.49-1.85-2.46-4.46-3.44-4.46-.28,0,.07,.62,.84,1.44Z"/>
  <path d="M295.3,161.76c.35,.75,1.05,1.58,1.47,1.85,.42,.21,.21-.34-.42-1.37-1.4-2.06-2.11-2.4-1.05-.48Z"/>
  <path d="M1.66,166.35c-.28,.96-.35,1.92-.21,2.13,.21,.14,.56-.55,.77-1.58,.28-.96,.35-1.92,.21-2.13-.21-.14-.56,.55-.77,1.58Z"/>
  <path d="M297.47,165.67c0,.75,.21,.96,.42,.41,.21-.48,.14-1.1-.07-1.3-.21-.27-.42,.14-.35,.89Z"/>
  <path d="M298.6,167.79c-.77,.69-.56,2.95,.21,2.95,.42,0,.7-.75,.7-1.72,0-1.78-.14-1.99-.91-1.24Z"/>
  <path d="M13.38,208.29c.63,.14,1.75,.14,2.46,0,.63-.21,.07-.34-1.26-.34s-1.89,.14-1.19,.34Z"/>
  <path d="M18.29,208.29c.63,.14,1.61,.14,2.11,0,.42-.21-.07-.34-1.26-.34-1.12,0-1.54,.14-.84,.34Z"/>
  <path d="M277.47,208.29c-.77,.21-1.82,.75-2.39,1.3-.49,.55-1.4,.96-1.97,.96s-.84,.27-.63,.69c.21,.34-.07,.69-.7,.69-.56,0-1.33,.55-1.54,1.17-.28,.69-.63,1.37-.91,1.58-2.25,1.72-3.93,12.28-2.11,13.38,.42,.21,.7,.96,.7,1.65,0,1.17,1.26,3.02,3.79,5.63,2.32,2.26,7.16,4.05,11.23,4.05,2.25,0,3.86-.27,3.65-.55-.21-.34-1.68-.55-3.37-.48s-3.51-.07-4.07-.34-2.25-1.1-3.72-1.78c-1.47-.75-3.23-2.06-3.86-2.95s-1.68-2.06-2.25-2.68c-1.61-1.65-1.47-13.18,.21-14.82,.63-.69,1.19-1.65,1.19-2.2s.42-.96,.98-.96,1.47-.41,1.97-.89c1.75-1.51,4.35-2.81,6.88-3.29,2.32-.41,2.39-.48,.35-.48-1.12,0-2.74,.21-3.44,.34Z"/>
  <path d="M284.28,208.29c.63,.14,1.61,.14,2.11,0,.42-.21-.07-.34-1.26-.34-1.12,0-1.54,.14-.84,.34Z"/>
  <path d="M22.64,208.97c2.46,.62,6.32,4.12,7.79,7,.7,1.58,1.47,2.81,1.68,2.81,.49,0,.28,3.57-.35,8.24-.42,2.95-.98,3.98-3.86,6.79-2.53,2.54-4.14,3.43-6.46,3.84-5.12,.89-9.05,1.1-8.63,.34,.21-.41-.21-.69-.98-.69s-1.82-.48-2.46-1.03c-.56-.55-1.26-1.03-1.54-1.03-.91,0-3.79-3.57-3.79-4.6,0-.55-.28-.75-.7-.55-.35,.21-.77-.27-.77-1.17-.07-1.03-.21-1.17-.42-.41-.35,1.37,3.16,6.52,4.91,7.07,.63,.27,1.19,.75,1.19,1.1s.42,.62,.98,.62,1.12,.41,1.33,.82c.14,.62,2.18,.89,6.88,.89,6.25,0,6.74-.14,8.7-1.92,1.12-1.03,2.32-1.85,2.6-1.85,.35,0,.56-.48,.56-1.03s.35-1.03,.7-1.03c.7,0,2.46-3.29,2.25-4.32-.07-.27,.21-.48,.56-.48,.42,0,.7-2.2,.7-5.15s-.28-5.15-.63-5.15-.84-.75-1.05-1.72c-.28-.96-.77-1.72-1.12-1.72-.42,0-.7-.41-.7-.89,0-.96-1.89-2.75-3.72-3.43-.63-.21-1.19-.75-1.19-1.17,0-.34-.84-.62-1.89-.62-1.54,.07-1.61,.14-.56,.41Z"/>
  <path d="M289.54,208.97c.49,.21,1.12,.14,1.33-.07,.28-.21-.14-.41-.91-.34-.77,0-.98,.21-.42,.41Z"/>
  <path d="M7.62,210.48c-.49,.34-.63,.75-.35,.96,.35,.21,1.05-.07,1.54-.62,.98-1.1,.35-1.24-1.19-.34Z"/>
  <path d="M4.26,213.09c-.28,.69-.77,1.44-1.12,1.65-.35,.27-.35,.62,.07,.89,.42,.21,.98-.27,1.26-1.1,.28-.89,.84-1.78,1.26-2.06,.56-.34,.49-.55-.14-.55-.49,0-1.12,.55-1.33,1.17Z"/>
  <path d="M294.32,212.47c.42,.27,.91,1.03,1.19,1.65,.21,.69,.84,1.24,1.33,1.24,.63,0,.63-.21,.14-.55-.42-.27-.91-1.03-1.19-1.72-.21-.62-.84-1.17-1.33-1.17-.63,0-.63,.21-.14,.55Z"/>
  <path d="M298.1,220.5c0,.96,.35,1.72,.7,1.72,.42,0,.7-.75,.7-1.72s-.28-1.72-.7-1.72c-.35,0-.7,.75-.7,1.72Z"/>
  <path d="M1.1,222.22c-.14,1.51,0,3.23,.28,3.91s.49-.41,.49-2.75c.07-4.53-.35-5.22-.77-1.17Z"/>
  <path d="M298.46,223.73c-.28,.69-.28,1.78,0,2.4q.56,1.17,.84,0c.21-.62,.21-1.72,0-2.4q-.28-1.1-.84,0Z"/>
  <path d="M297.4,228.32c0,.69-.49,1.65-1.05,2.13s-1.05,1.1-1.05,1.44c0,.82-2.25,3.36-3.02,3.36-.35,0-1.05,.48-1.61,1.03-.63,.55-1.75,1.03-2.6,1.03-1.05,0-1.26,.21-.7,.75,.49,.48,1.4,.27,3.09-.75,1.33-.75,2.95-1.58,3.65-1.78,.63-.27,1.19-.82,1.19-1.3,0-.41,.63-1.51,1.4-2.4,1.26-1.37,1.97-4.8,1.05-4.8-.21,0-.35,.55-.35,1.3Z"/>
  <path d="M12.82,259.89c-1.89,.34-.63,.48,3.86,.48,4.98,0,5.97-.14,3.86-.48-3.16-.62-3.79-.62-7.72,0Z"/>
  <path d="M279.02,259.76c-1.4,.14-2.95,.75-3.37,1.3-.49,.55-1.19,.96-1.61,.96-1.19,0-5.33,4.6-5.83,6.45-.21,.96-.7,1.78-1.05,1.78-.84,0-.84,8.72,0,9.2,.28,.21,.77,1.24,.98,2.26,.42,2.06,4.56,7.07,5.9,7.07,.42,0,.91,.34,1.05,.75,.63,1.78,14.6,2.33,14.6,.55,0-.27,.63-.75,1.47-.96,2.74-.89,6.95-5.9,6.95-8.3,0-.89,.35-1.65,.7-1.65,.42,0,.7-.96,.7-2.06,0-3.36-1.19-2.33-1.68,1.44-.49,3.5-.84,4.19-3.72,7-2.39,2.33-3.58,3.23-4.42,3.23-.35,0-.7,.34-.7,.75,0,.34-.28,.55-.56,.34-.35-.21-1.89,0-3.58,.41-2.18,.55-3.16,.55-3.79-.07-.42-.41-1.54-.75-2.39-.75-1.75,0-5.54-2.26-7.09-4.25-.49-.62-1.4-1.72-2.11-2.33-.91-.96-1.19-2.47-1.19-7.62,0-3.98,.28-6.59,.77-6.93,.42-.27,.98-1.17,1.26-1.99s1.12-1.72,1.89-1.92c.7-.27,1.19-.69,.98-1.03-.21-.27,.42-.75,1.4-.96,.98-.27,1.75-.75,1.75-1.1,0-.41,1.05-.69,2.32-.75,1.19-.07,3.02-.34,4-.62,1.97-.62,.98-.69-3.65-.21Z"/>
  <path d="M286.03,260.44c.84,.14,2.11,.14,2.81,0,.63-.21-.07-.34-1.61-.27-1.54,0-2.11,.14-1.19,.27Z"/>
  <path d="M23.7,261.33c0,.34,.28,.69,.7,.69,1.12,0,5.61,4.19,5.61,5.22,0,.55,.28,.96,.63,.96,2.11,0,1.75,13.38-.35,14.62-.56,.27-.98,.96-.98,1.37,0,.48-.7,1.3-1.47,1.85-.84,.55-1.89,1.37-2.39,1.85s-1.82,1.03-2.88,1.24c-1.12,.27-2.74,.82-3.65,1.24-1.19,.55-2.18,.55-4-.14-1.33-.48-2.74-.62-3.16-.41-.35,.21-.7,.07-.7-.27,0-.41-.42-.75-.98-.75s-1.12-.48-1.4-1.03c-.21-.55-.77-1.03-1.26-1.03-1.54-.07-4.77-5.22-5.19-8.51-.28-1.72-.7-2.95-.98-2.81-.84,.55,.7,6.45,2.32,8.92,.84,1.3,2.18,2.54,2.88,2.81,.77,.21,2.04,1.1,2.81,1.99,.98,1.03,2.67,1.65,4.98,1.92,4.14,.48,10.39-.41,10.74-1.51,.14-.41,.56-.75,.98-.75,1.68,0,6.18-5.83,6.18-8.1,0-.89,.28-1.37,.7-1.17,.42,.27,.7-1.37,.7-4.39,0-2.68-.28-4.87-.63-4.87s-.84-.82-1.05-1.78c-.56-2.06-4.49-6.45-5.83-6.45-.49,0-.91-.34-.91-.69,0-.41-.28-.69-.7-.69-.35,0-.7,.27-.7,.69Z"/>
  <path d="M8.26,262.02c-.56,.34-.7,.69-.35,.69,.42,0,1.19-.34,1.75-.69s.77-.69,.35-.69c-.35,0-1.19,.34-1.75,.69Z"/>
  <path d="M291.09,262.16c.98,.48,2.04,1.24,2.32,1.72s.84,.89,1.26,.89c1.26,0-1.82-2.54-3.58-3.02l-1.75-.41,1.75,.82Z"/>
  <path d="M5.17,264.15c-.77,.75-1.12,1.51-.91,1.78,.28,.21,.49,.07,.49-.41s.21-.69,.56-.55c.28,.21,.91-.07,1.33-.62,1.4-1.44,0-1.65-1.47-.21Z"/>
  <path d="M295.79,266.62c.21,.89,.63,1.58,.91,1.58,.35,0,.77,.55,.91,1.17,.28,1.03,.35,1.1,.42,.14,0-.62-.56-1.85-1.26-2.75l-1.4-1.65,.42,1.51Z"/>
  <path d="M1.66,269.71c-.21,.89-.35,2.33-.35,3.29,.07,1.03,.35,.48,.7-1.3,.63-3.23,.42-4.67-.35-1.99Z"/>
  <path d="M298.1,271.9c0,.55,.35,1.24,.7,1.44,.42,.21,.7-.21,.7-.96,0-.82-.28-1.44-.7-1.44-.35,0-.7,.41-.7,.96Z"/>
  <path d="M16.89,311.91c2.18,.14,4,.55,4,.89,0,.41,.63,.69,1.33,.69,1.47,0,7.09,3.36,7.09,4.19,0,.27,.56,1.03,1.19,1.72,.98,.96,1.19,2.47,1.26,7.69,0,4.67-.28,6.66-.84,6.79-.49,.21-.91,.69-.91,1.24,0,.89-5.4,5.83-6.39,5.83-.35,0-.63,.27-.63,.69,0,1.03,1.26,.82,2.67-.55,.77-.62,1.97-1.72,2.67-2.33,2.18-1.85,3.02-3.09,3.51-4.94,.21-.96,.7-1.78,1.05-1.78s.63-1.99,.63-4.32c0-4.25-1.19-7.89-3.23-9.88-.49-.48-.98-1.1-1.12-1.37-.56-1.3-5.47-4.25-6.39-3.91-.56,.21-1.26,.07-1.54-.34-.21-.41-2.18-.69-4.42-.62l-4,.14,4.07,.21Z"/>
  <path d="M278.1,312.05c-2.6,.89-5.26,2.33-5.26,2.95,0,.27-.49,.55-1.05,.55-.63,0-1.33,.55-1.54,1.17-.28,.69-.91,1.65-1.4,2.13s-.91,1.51-.91,2.26c0,.69-.28,1.3-.7,1.3-2.04,0,.14,11.8,2.6,14.27,.49,.48,.91,1.24,.91,1.58s.49,.62,1.05,.62,1.05,.27,1.05,.55c0,.34,1.47,1.3,3.23,2.13,2.81,1.37,4,1.58,8.84,1.3,4.28-.27,5.83-.62,6.32-1.44,.35-.69,.91-1.17,1.26-1.17,.91,0,3.51-2.2,3.51-2.95,0-.34,.49-1.03,1.05-1.58,.56-.62,1.05-1.72,1.05-2.54,0-1.1-.42-.75-1.54,1.44-1.05,1.92-2.88,3.77-5.19,5.28-3.16,2.06-4.28,2.4-7.86,2.4-2.67,0-5.05-.41-6.53-1.24-2.74-1.44-6.95-5.15-6.95-6.18,0-.41-.35-.82-.77-.96-.35-.14-.91-2.61-1.12-5.42-.35-4.53-.21-5.63,1.19-8.37,.84-1.72,2.32-3.5,3.23-3.98s1.68-1.1,1.68-1.37c0-.34,1.12-.75,2.46-1.03,1.33-.21,2.46-.69,2.46-1.03s1.75-.62,3.86-.62,3.86,.27,3.86,.62,.98,.75,2.11,1.03c1.19,.21,2.81,1.03,3.65,1.78,1.68,1.51,2.67,1.78,2.67,.69,0-.41-.49-.69-1.05-.69s-1.05-.27-1.05-.69c0-.34-.77-.82-1.75-1.1-.98-.21-1.75-.69-1.75-1.03s-.42-.41-.98-.21-1.19,.07-1.47-.34c-.49-.82-6.88-.89-9.12-.14Z"/>
  <path d="M10.36,312.74c0,.34-.56,.82-1.19,1.03-.7,.21-2.04,.89-3.02,1.44-1.26,.75-1.4,1.03-.56,1.03,.63,0,1.61-.48,2.18-1.03,.56-.48,1.82-1.17,2.88-1.44,1.97-.48,2.53-1.65,.77-1.65-.56,0-1.05,.27-1.05,.62Z"/>
  <path d="M3.76,317.95c-.63,1.78-.49,2.2,.35,.82,.42-.69,.63-1.44,.42-1.58-.14-.21-.49,.14-.77,.75Z"/>
  <path d="M296,319.39c0,.21,.49,.82,1.05,1.37,1.12,1.17,1.26,.96,.63-.69-.42-1.03-1.68-1.58-1.68-.69Z"/>
  <path d="M1.66,321.38c-.21,.62-.35,1.99-.35,2.95,.07,1.37,.21,1.17,.63-.89,.56-2.95,.49-3.91-.28-2.06Z"/>
  <path d="M298.1,323.92c0,.89,.35,2.06,.7,2.61,.49,.75,.7,.48,.7-1.17,0-1.17-.28-2.4-.7-2.61s-.7,.27-.7,1.17Z"/>
  <path d="M1.1,327.29c-.56,1.44,.77,6.86,2.04,8.03,.49,.48,.91,1.3,.91,1.72,0,.82,4.14,3.91,5.19,3.91,.28,0,.98,.48,1.54,1.03,.77,.75,2.6,1.03,6.39,1.03,2.95,0,5.12-.21,4.91-.48-.28-.21-2.39-.34-4.7-.27-3.02,.14-4.84-.21-6.46-1.1-2.81-1.51-6.88-5.22-6.88-6.25,0-.41-.28-.82-.7-.96-.35-.14-.91-1.92-1.26-3.98-.28-2.26-.7-3.36-.98-2.68Z"/>
  <path d="M298.1,329.55c0,.96,.35,1.92,.7,2.13,.42,.27,.7-.48,.7-1.65s-.28-2.13-.7-2.13c-.35,0-.7,.75-.7,1.65Z"/>
  <path d="M14.43,363.38c-1.47,.14-2.67,.55-2.67,.89s-.56,.75-1.19,.89c-.7,.21,.28,.14,2.25-.07,1.89-.21,3.93-.75,4.42-1.3,.49-.48,.7-.82,.35-.75-.28,.07-1.75,.21-3.16,.34Z"/>
  <path d="M279.72,363.38c-2.6,.41-2.53,1.58,.14,1.58,1.19,0,2.11-.34,2.11-.69,0-.82,1.89-.89,2.25-.14,.14,.34,1.82,.75,3.72,.96,1.97,.21,2.95,.27,2.32,.07-.7-.14-1.26-.62-1.26-1.03s-.91-.55-2.11-.41c-1.19,.21-2.32,.07-2.53-.27-.35-.55-1.19-.55-4.63-.07Z"/>
  <path d="M18.78,364.21c0,.27,1.26,.75,2.81,.96s3.23,.75,3.79,1.3c.49,.48,1.61,1.37,2.46,1.92,.77,.55,1.47,1.37,1.47,1.85,0,.41,.42,1.1,.98,1.37s1.12,1.3,1.33,2.26l.28,1.72,.14-1.78c0-.96-.56-2.47-1.33-3.36s-1.4-1.85-1.4-2.13-.63-.75-1.4-.96c-.77-.27-1.26-.75-.98-1.1,.21-.34,.14-.62-.21-.55-1.05,.14-3.72-.89-3.72-1.51,0-.34-.91-.62-2.11-.62-1.12,0-2.11,.27-2.11,.62Z"/>
  <path d="M274.24,365.99c-1.61,1.17-2.04,1.72-1.19,1.72,.7,0,1.4-.48,1.61-1.03,.28-.55,.84-1.03,1.4-1.03s.98-.34,.98-.69c0-.96-.14-.89-2.81,1.03Z"/>
  <path d="M8.26,366.2c0,.48-.42,.82-.91,.82-.56,0-1.54,.62-2.25,1.37-.77,.82-.91,1.37-.42,1.37,.42,0,.98-.48,1.19-1.03,.28-.55,.84-1.03,1.33-1.03,1.12,0,2.11-1.3,1.47-1.85-.21-.27-.42-.07-.42,.34Z"/>
  <path d="M291.44,367.02c.21,.41,.77,.69,1.19,.69s1.33,.69,2.04,1.51c.77,.75,1.33,1.17,1.33,.82,0-1.24-1.12-2.26-3.02-2.95-1.26-.48-1.82-.48-1.54-.07Z"/>
  <path d="M269.4,370.18c-.84,1.03-1.47,2.4-1.47,3.09s-.28,1.44-.7,1.65c-.35,.21-.7,2.26-.7,4.53s.28,4.05,.7,4.05,.7,.62,.7,1.3c0,.75,.49,1.78,1.05,2.4,.56,.55,1.05,1.24,1.05,1.58,0,.96,5.19,5.08,7.02,5.42,.98,.21,2.32,.62,2.95,1.03,1.54,.75,5.47,.82,5.47,0,0-.27-1.68-.75-3.79-.96-4-.41-8.98-2.88-10.25-5.22-.35-.75-1.26-1.85-1.89-2.54-1.05-.96-1.26-2.4-1.26-7.48,0-5.49,.21-6.38,1.61-7.89s1.97-2.75,1.26-2.75c-.21,0-.98,.82-1.75,1.78Z"/>
  <path d="M2.15,372.17c-.21,.62-.21,1.3,.07,1.51,.21,.27,.42-.07,.42-.69,0-.55,.42-1.24,.91-1.37,.63-.27,.63-.41-.07-.41-.49-.07-1.05,.41-1.33,.96Z"/>
  <path d="M296.84,372.1c.49,.55,1.05,.82,1.19,.75,.35-.41-.7-1.72-1.4-1.72-.35,0-.28,.41,.21,.96Z"/>
  <path d="M298.6,374.36c-.77,.69-.56,2.95,.21,2.95,.42,0,.7-.75,.7-1.72,0-1.78-.14-1.99-.91-1.24Z"/>
  <path d="M1.38,376.63c0,1.3,.14,1.85,.35,1.17,.14-.62,.14-1.72,0-2.4-.21-.62-.35-.07-.35,1.24Z"/>
  <path d="M32.68,375.94c-.21,.55-.63,2.95-.84,5.35-.21,2.47-.84,4.8-1.47,5.35-.56,.62-1.05,1.37-1.05,1.72,0,.96-2.46,3.16-4.14,3.71-.84,.21-1.47,.69-1.47,1.03s-.7,.75-1.54,.89q-1.61,.27-.07,.41c.84,0,1.97-.41,2.6-.96,.56-.55,1.33-1.03,1.68-1.03,1.12,0,4.98-4.67,5.47-6.66,.28-1.03,.77-2.13,1.12-2.33s.56-2.2,.42-4.46c-.14-2.2-.42-3.57-.7-3.02Z"/>
  <path d="M299.02,379.51c-.42,.48-.91,2.13-1.12,3.64-.28,1.51-.77,2.81-1.19,2.95-.35,.14-.7,.69-.7,1.17,0,1.24-4.07,5.15-5.33,5.15-.56,0-.98,.27-.98,.62s-.84,.82-1.89,.96q-1.97,.27,.14,.41c3.51,.14,10.18-5.76,10.18-8.99,0-.69,.28-1.24,.63-1.24s.77-1.24,.91-2.75q.28-3.09-.63-1.92Z"/>
  <path d="M1.03,380.68c-.14,.69-.07,1.72,.28,2.2,.42,.69,.63,.27,.63-1.3,0-2.47-.35-2.88-.91-.89Z"/>
  <path d="M2.43,386.24c.49,2.61,5.97,7.55,8.77,7.82,1.26,.14,1.61,.07,.77-.07-.91-.14-1.61-.62-1.61-.96s-.42-.62-.98-.62c-1.33,0-5.33-3.91-5.33-5.22,0-.55-.28-.96-.63-.96s-.77-.41-.98-.89c-.14-.41-.14-.07,0,.89Z"/>
  <path d="M14.57,395.16c0,.34,1.05,.69,2.39,.69s2.67-.34,2.88-.69c.28-.41-.7-.69-2.39-.69s-2.88,.27-2.88,.69Z"/>
  <path d="M13.87,415.75c0,.34-.77,.69-1.68,.69-.98,0-2.18,.48-2.81,1.03-.56,.55-1.33,1.03-1.75,1.03s-1.05,.62-1.47,1.44c-.77,1.37-.7,1.37,1.54-.21,1.26-.82,2.46-1.78,2.53-2.13,.14-.27,1.19-.48,2.32-.48,1.33,0,2.04-.34,2.04-1.03,0-.55-.14-1.03-.35-1.03s-.35,.27-.35,.69Z"/>
  <path d="M15.27,415.68c0,.75,8.98,1.85,9.61,1.17,.28-.21-.56-.41-1.75-.41-1.26,0-2.25-.34-2.25-.69,0-.41-1.26-.69-2.81-.69s-2.81,.27-2.81,.62Z"/>
  <path d="M280.56,415.75c0,.34,1.12,.69,2.46,.69s2.46-.34,2.46-.69c0-.41-1.12-.69-2.46-.69s-2.46,.27-2.46,.69Z"/>
  <path d="M274.38,417.6c-.77,.69-2.11,1.72-2.88,2.26-.84,.55-1.47,1.37-1.47,1.92,0,.48-.49,1.03-1.05,1.24-.56,.27-1.05,.96-1.05,1.65,0,.75-.28,1.51-.7,1.72-.91,.55-.91,8.37-.07,8.92,.35,.21,.84,1.3,1.12,2.4,.28,1.17,.77,2.06,1.12,2.06s.77,.69,1.05,1.51c.7,2.68,8.77,6.93,10.32,5.42,.56-.55,.21-.75-1.47-.75-1.33,0-2.46-.41-2.67-.96s-1.33-1.24-2.46-1.44c-1.12-.27-2.04-.89-2.04-1.44s-.28-.96-.7-.96c-.35,0-.84-.75-1.12-1.72-.21-.96-.7-1.72-.98-1.72-.98,0-1.61-5.9-1.05-9.95,.21-2.06,.7-3.64,1.05-3.43s.84-.34,1.12-1.17c.28-.89,1.12-2.13,1.97-2.75,.84-.69,1.82-1.51,2.25-1.85,.49-.41,1.89-.96,3.16-1.37l2.39-.62-2.18-.07c-1.19-.07-2.81,.48-3.65,1.1Z"/>
  <path d="M287.79,416.91c1.05,.14,1.89,.55,1.89,.89s.7,.82,1.54,1.1,2.32,1.37,3.3,2.4c.98,1.1,2.04,1.99,2.39,1.99,.28,0-.49-1.1-1.82-2.4s-2.6-2.4-2.88-2.4-.98-.48-1.54-1.03c-.63-.55-1.89-.96-2.95-.96l-1.89,.14,1.97,.27Z"/>
  <path d="M237.05,417.74c0,.34,.63,.82,1.4,1.1,1.33,.41,4.49,3.71,5.12,5.28,.14,.48,.56,.69,.84,.41,.49-.48-.21-1.51-2.95-4.19-3.23-3.16-4.42-3.84-4.42-2.61Z"/>
  <path d="M25.8,419.18c1.4,.89,3.02,.89,2.46,0-.21-.41-1.12-.69-1.97-.69-1.26,0-1.33,.14-.49,.69Z"/>
  <path d="M30.08,423.09c1.4,2.2,1.61,3.57,1.68,8.37,0,4.05-.28,5.9-.84,6.04-.49,.21-.91,.75-.91,1.24,0,.55-.49,1.44-1.12,2.06-.84,.75-.98,1.3-.42,1.85,.49,.48,.84,.21,1.19-.89,.28-.89,.98-1.99,1.47-2.54,.56-.48,.98-1.65,.98-2.61,0-.89,.35-1.65,.7-1.65,1.12,0,.77-7.27-.49-9.95-.63-1.3-1.4-2.4-1.75-2.4-.28,0-.56-.48-.56-1.03s-.35-1.03-.77-1.03-.07,1.17,.84,2.54Z"/>
  <path d="M3.76,422.27c-.21,.62-.42,1.51-.35,1.92,0,.48,.35,.07,.7-.82s.56-1.78,.35-1.92c-.14-.14-.42,.21-.7,.82Z"/>
  <path d="M1.66,425.7c-.21,.62-.35,1.99-.35,2.95,.07,1.37,.21,1.17,.63-.89,.56-2.95,.49-3.91-.28-2.06Z"/>
  <path d="M244.91,427.07c0,1.1,.14,1.51,.35,.82,.14-.62,.14-1.58,0-2.06-.21-.41-.35,.07-.35,1.24Z"/>
  <path d="M298.46,428.44c.28,2.61,1.05,2.95,1.05,.48,0-1.24-.28-2.2-.63-2.2s-.56,.75-.42,1.72Z"/>
  <path d="M246.24,430.98c0,1.1-.35,1.92-.77,1.92-.35,0-.7,1.1-.7,2.4s-.35,2.4-.77,2.4c-.35,0-.56,.27-.35,.62,.84,1.37-6.6,7.62-9.05,7.62-.91,0-1.75,.41-1.97,.89-.28,.69,.21,.82,1.68,.62,1.12-.14,2.04-.55,2.04-.89s.28-.62,.63-.62c1.19,0,5.61-3.09,5.68-3.91,0-.41,.49-1.3,1.12-1.85,.56-.62,1.26-2.26,1.47-3.64,.21-1.44,.7-2.81,1.05-3.02s.56-1.3,.35-2.4l-.28-1.99-.14,1.85Z"/>
  <path d="M.47,431.81c.42,.55,.77,1.24,.7,1.51-.07,.34,.07,1.72,.35,3.09,.56,2.68,6.18,9.54,7.79,9.54,.49,0,1.05,.34,1.19,.82,.42,1.17,11.93,1.17,12.35,0,.14-.41,.56-.82,.98-.82,.35,0,1.47-.62,2.46-1.37s1.47-1.37,1.05-1.37-1.26,.48-1.82,1.1c-.63,.55-2.25,1.24-3.58,1.44s-2.46,.75-2.46,1.17-.35,.27-.7-.27c-.42-.69-.7-.75-.7-.21,0,.48-.84,.89-1.82,.89s-1.61-.27-1.33-.69-.56-.69-2.11-.69-2.88-.48-3.65-1.37c-.7-.75-1.54-1.37-1.89-1.37-.91,0-3.23-2.81-3.23-3.91,0-.55-.28-.82-.63-.62-.63,.41-1.47-2.75-1.47-5.42,0-.89-.49-1.78-1.12-1.99-.98-.34-1.05-.27-.35,.55Z"/>
  <path d="M298.6,432.01c-.77,.69-.56,4.32,.21,4.32,.42,0,.7-1.1,.7-2.4,0-2.47-.14-2.75-.91-1.92Z"/>
  <path d="M297.4,437.64c0,.48-.42,1.24-.84,1.78-.49,.48-1.54,1.72-2.25,2.68s-1.61,1.78-1.97,1.78-1.12,.48-1.68,1.03c-.63,.55-2.04,1.03-3.16,1.03s-2.04,.27-2.04,.69c0,.34,.98,.69,2.11,.69,1.19,0,2.11-.27,2.11-.62s.7-.89,1.61-1.17c2.81-.82,7.72-7.14,6.53-8.3-.21-.27-.42-.07-.42,.41Z"/>
  <path d="M216.41,439.63c-.56,.89,4.84,6.31,6.25,6.31,.56,0,1.05,.34,1.19,.82,.21,.48,.98,.62,2.39,.21l2.04-.55-2.53-.48c-1.47-.27-3.09-.89-3.65-1.44s-1.75-1.44-2.6-1.99-1.75-1.65-2.04-2.33c-.35-.89-.7-1.03-1.05-.55Z"/>
  <path d="M228.84,447.8c.63,.14,1.61,.14,2.11,0,.42-.21-.07-.34-1.26-.34-1.12,0-1.54,.14-.84,.34Z"/>
  <path d="M282.17,447.8c.63,.14,1.61,.14,2.11,0,.42-.21-.07-.34-1.26-.34-1.12,0-1.54,.14-.84,.34Z"/>
  <path d="M69.31,467.01c0,.41-.84,.96-1.89,1.1-1.12,.14,.07,.27,2.6,.27s3.65-.14,2.46-.27c-1.12-.21-2.32-.69-2.6-1.1-.42-.62-.56-.62-.56,0Z"/>
  <path d="M175.29,467.01c0,.41-1.33,.96-2.95,1.24s-3.3,.82-3.79,1.3c-.42,.41-1.47,1.24-2.32,1.78-1.82,1.17-4.28,4.87-4.28,6.25,0,.96,1.75-1.51,2.53-3.71,.21-.62,.7-1.17,1.12-1.17,.56,0,1.4-.62,3.72-2.61,.56-.48,3.16-1.1,5.83-1.3,3.79-.27,5.4-.14,7.58,.89,4.77,2.2,9.4,8.03,9.4,11.87,0,.82,.35,1.44,.7,1.44,.91,0,.91-.27-.14-3.5-.42-1.51-1.05-2.68-1.4-2.68-.42,0-.56-.34-.42-.82,.21-.48-.42-1.58-1.33-2.47-.91-.82-1.61-1.85-1.61-2.2,0-.27-.98-.75-2.11-1.03-1.19-.27-1.97-.69-1.75-1.03s-1.47-.82-3.65-1.1c-2.25-.27-4.28-.82-4.56-1.24-.42-.55-.56-.55-.56,.07Z"/>
  <path d="M229.33,467.15c0,.34-.7,.82-1.54,.96-1.4,.27-1.33,.27,.35,.41,1.26,.07,1.89-.27,1.89-.96,0-.55-.14-1.03-.35-1.03s-.35,.27-.35,.62Z"/>
  <path d="M231.01,467.97c-.21,.34,.63,.62,1.75,.62,1.19,0,2.18-.14,2.18-.27,0-.55-3.58-.89-3.93-.34Z"/>
  <path d="M10.92,468.38c-.7,.14-1.26,.55-1.26,.89s-.63,.82-1.47,1.03c-1.97,.62-4.14,2.47-4.14,3.5,0,.48-.28,.96-.7,1.1s-.42,.55,0,1.24c.56,.89,.7,.82,.7-.21,0-.62,.28-1.17,.7-1.17,.35,0,.42-.48,.21-1.17-.28-.69-.14-.96,.28-.69,.35,.21,1.33-.21,2.18-.89,.84-.75,1.75-1.37,2.18-1.37,.35,0,.77-.34,.91-.82,.14-.41,1.68-.96,3.44-1.24,2.74-.48,2.81-.55,.63-.55-1.33,0-3.02,.14-3.65,.34Z"/>
  <path d="M19.98,468.52c1.61,.27,3.37,.89,4,1.37,.91,.75,1.12,.75,1.12-.14,0-1.17-2.18-1.85-5.61-1.78-2.46,.07-2.46,.14,.49,.55Z"/>
  <path d="M75.28,468.52c-.35,.69,4.21,2.81,5.83,2.75,.63,0,.14-.41-1.12-.89-1.26-.41-2.11-.96-1.89-1.17,.21-.27-.21-.62-1.05-.82-.77-.21-1.54-.14-1.75,.14Z"/>
  <path d="M119.35,468.38c.63,.14,1.75,.14,2.46,0,.63-.21,.07-.34-1.26-.34s-1.89,.14-1.19,.34Z"/>
  <path d="M125.81,468.32c.77,.21,2.04,.48,2.88,.62,2.18,.48,7.79,5.9,8.35,8.03,.28,1.1,.77,1.92,1.12,1.92s.63,2.33,.63,5.22c0,3.23-.28,5.01-.7,4.74-.35-.21-.7,.14-.7,.89,0,.69-.63,1.99-1.4,2.88s-1.4,1.85-1.4,2.2c0,.27-.56,.55-1.19,.62-.84,0-.91,.14-.35,.41,1.26,.48,3.37-1.58,5.12-4.94,1.89-3.77,1.75-13.04-.21-15.03-.7-.69-1.26-1.51-1.26-1.85,0-.96-3.51-4.05-4.63-4.05-.49,0-.98-.34-1.12-.75-.14-.34-1.68-.82-3.37-.96-1.75-.21-2.53-.14-1.75,.07Z"/>
  <path d="M222.73,468.52c-1.26,.48-1.26,.55-.21,.96,.63,.21,1.19,.14,1.19-.21s.56-.75,1.26-.89c.77-.21,.84-.34,.14-.34-.56,0-1.68,.21-2.39,.48Z"/>
  <path d="M275.37,469c-1.4,1.3-1.47,2.4-.14,1.92,.56-.21,1.12-.96,1.33-1.72,.42-1.58,.21-1.65-1.19-.21Z"/>
  <path d="M278.45,468.59c-.77,.55-.49,.62,1.05,.27,2.6-.55,3.16-.96,1.33-.96-.7,0-1.82,.34-2.39,.69Z"/>
  <path d="M283.58,468.38c.63,.14,1.75,.14,2.46,0,.63-.21,.07-.34-1.26-.34s-1.89,.14-1.19,.34Z"/>
  <path d="M63,469.28c0,.34-.49,.69-.98,.69-2.53,0-7.65,6.79-7.23,9.47l.28,1.85,.14-1.92c0-1.03,.63-2.4,1.4-3.16,.7-.69,1.61-1.72,1.89-2.26,.35-.55,2.04-1.99,3.72-3.16,1.75-1.3,2.6-2.2,1.97-2.2-.7,0-1.19,.27-1.19,.69Z"/>
  <path d="M114.58,469.83c-1.12,.69-2.18,1.37-2.32,1.65-.14,.21-.84,1.1-1.61,1.99-.7,.82-1.33,1.92-1.33,2.4s-.35,.96-.77,1.1c-.35,.14-.91,1.51-1.12,3.09-.49,3.57,.35,10.64,1.26,10.16,.84-.55,.84-3.09-.07-3.09-.84,0-.91-7.34-.07-7.82,.35-.21,.84-1.24,1.05-2.2,.42-1.65,1.89-3.23,6.74-7.07,2.11-1.65,1.19-1.78-1.75-.21Z"/>
  <path d="M236.35,469.62c.49,.55,1.19,1.03,1.54,1.03,1.54,0,6.88,6.79,6.88,8.85,0,.82,.28,1.44,.63,1.44,.84,0-.21-4.39-1.4-5.76-2.81-3.29-5.05-5.22-5.97-5.22-.63,0-.84-.34-.63-.69,.21-.41-.07-.69-.77-.69-.91,0-.98,.21-.28,1.03Z"/>
  <path d="M289.33,469.76c1.12,.62,2.46,1.51,3.02,1.99,.49,.55,1.4,.96,1.97,.96s.98,.41,.98,.96c0,.48,.49,1.3,1.05,1.78s1.26,2.06,1.47,3.5c.49,2.95,1.68,3.64,1.68,.96,0-.96-.28-1.72-.63-1.72s-.84-.75-1.05-1.72c-.28-.96-.77-1.72-1.12-1.72-.42,0-.7-.41-.7-.89,0-1.1-2.18-2.95-4.14-3.57-.84-.21-1.33-.75-1.12-1.1,.28-.34-.42-.62-1.54-.62l-1.97,.07,2.11,1.1Z"/>
  <path d="M25.8,470.37c0,.27,1.12,1.51,2.53,2.75,1.33,1.3,2.32,2.61,2.11,2.95-.28,.34-.14,.75,.28,.89,.77,.27,2.11,10.16,1.26,10.16-.28,0-.56,.75-.56,1.72s-.49,1.92-1.05,2.13c-.56,.27-1.05,.82-1.05,1.37s-.35,.96-.84,.96c-.42,0-.63,.21-.35,.41,.49,.48-4.07,3.71-5.19,3.71-.42,0-.49,.27-.28,.69,.42,.69-1.97,.96-6.67,.69-3.3-.14-3.79-.27-4.21-.82-.21-.21-1.33-.62-2.46-.82q-2.11-.41-.35,.41c.98,.48,1.97,1.1,2.18,1.44,.28,.34,2.81,.62,5.68,.69,4.77,0,5.54-.21,8.84-2.33,2.04-1.24,3.65-2.68,3.65-3.09s.63-1.44,1.4-2.33,1.4-2.13,1.4-2.81,.35-1.44,.7-1.65c.91-.55,.91-8.58,.07-8.58-.35,0-.84-.96-1.12-2.13-.56-2.54-5.97-8.3-5.97-6.38Z"/>
  <path d="M219.15,471.34c.21,.34-.07,.69-.63,.69-.63,0-1.12,.27-1.12,.62s-.42,1.1-.84,1.58c-2.6,2.75-4.21,9.4-2.67,11.19,.42,.55,.63,1.58,.35,2.4-.21,.75-.14,1.37,.21,1.37,.42,0,.84,.69,1.12,1.58,.63,2.54,4.14,5.97,5.33,5.28,.7-.48,.77-.69,.21-.69-1.19,0-3.72-2.2-3.72-3.16,0-.48-.35-.96-.77-1.1-.35-.14-.91-1.51-1.12-3.16-.21-1.58-.63-2.88-.98-2.88-.28,0-.21-1.03,.14-2.2,.35-1.24,.63-3.09,.63-4.12,0-1.1,.35-1.92,.7-1.92,.42,0,.63-.21,.56-.55-.28-.75,1.68-3.16,3.65-4.46l1.68-1.17h-1.54c-.91,0-1.4,.27-1.19,.69Z"/>
  <path d="M270.94,472.43c-.91,.96-1.61,2.2-1.61,2.75s-.28,.96-.7,.96c-.35,0-.7,.62-.7,1.37s-.28,1.37-.7,1.37-.7,1.85-.7,4.12,.28,4.12,.7,4.12,.7,.89,.7,2.06c0,1.1,.28,2.06,.63,2.06,.42,0,1.12,.82,1.61,1.85,.49,.96,1.54,2.13,2.32,2.54,.7,.41,1.75,1.17,2.32,1.58,.49,.48,1.47,.89,2.11,.82,.91,0,.84-.14-.28-.62-1.26-.48-4.84-3.71-7.23-6.59-1.61-1.85-1.47-12.76,.14-14.48,.63-.75,1.19-1.85,1.19-2.47s.42-1.17,.98-1.17,1.12-.48,1.4-1.03c.56-1.58-.42-1.24-2.18,.75Z"/>
  <path d="M80.75,472.5c.63,.14,1.19,.55,1.19,.82s.63,1.24,1.4,2.13,1.4,2.47,1.4,3.5,.35,2.13,.7,2.33c.42,.21,.7,1.17,.7,2.13,0,.89-.28,1.65-.7,1.65-.35,0-.7,1.03-.7,2.33s-.42,2.81-.98,3.29c-.49,.55-1.12,1.65-1.4,2.4-.28,.82-1.05,1.65-1.68,1.85s-2.04,1.17-3.16,2.13c-1.68,1.58-2.53,1.78-6.88,1.85-2.74,0-5.19-.27-5.47-.62-.21-.41-1.12-.89-1.97-1.17-.91-.27-1.61-.82-1.61-1.17s-.42-.62-.91-.62c-1.12,0-3.02-2.13-3.65-4.05-.21-.82-.7-1.44-1.05-1.44-.28,0-.77-1.85-1.05-4.12s-.7-3.98-.98-3.77c-.63,.34-.49,2.88,.14,3.5,.28,.27,.49,1.37,.49,2.4s.42,2.33,.91,2.81c.42,.55,1.33,1.78,1.89,2.88,.56,1.03,2.04,2.4,3.16,3.02,1.19,.69,2.32,1.44,2.6,1.85,.35,.48,.56,.48,.56,0,0-.41,.28-.34,.56,.07,.98,1.58,11.44,1.51,13.05-.07,.56-.55,1.26-1.03,1.47-1.03,.77,0,5.26-4.6,5.26-5.35,0-.41,.49-1.24,1.12-1.85,1.47-1.44,1.75-11.87,.42-13.45-.49-.55-1.47-1.78-2.32-2.88-.77-1.03-1.97-1.78-2.6-1.78-1.05,.07-1.05,.14,.07,.41Z"/>
  <path d="M160.55,480.6c0,1.51,.28,2.33,.7,2.06,.42-.21,.7-1.17,.7-2.06s-.28-1.85-.7-2.06c-.42-.27-.7,.55-.7,2.06Z"/>
  <path d="M.89,480.94c0,1.1,.21,2.06,.56,2.06,.28,0,.49-.96,.49-2.06,0-1.17-.21-2.06-.49-2.06-.35,0-.56,.89-.56,2.06Z"/>
  <path d="M299.02,484.51c-.42,.89-.98,2.61-1.19,3.84s-.77,2.75-1.26,3.29c-1.97,2.4-5.83,5.76-6.6,5.76-.49,0-.98,.34-1.12,.75-.14,.48-2.39,.75-5.75,.75-3.02,0-5.33,.14-5.12,.27,.21,.21,2.46,.41,5.05,.41,3.23,0,5.47-.34,7.23-1.24,3.3-1.72,6.81-5.08,7.51-7.14,.28-.96,.77-1.85,1.05-2.06,.42-.34,1.47-6.18,1.12-6.18-.14,0-.56,.69-.91,1.51Z"/>
  <path d="M1.17,483.83c-.42,1.51-.42,3.09,.07,3.91s.63,.41,.7-1.51c0-1.37-.14-2.54-.35-2.54s-.35,.07-.42,.14Z"/>
  <path d="M191.78,486.84c-.42,3.02-.77,3.64-2.95,6.11-.49,.48-.91,1.24-.91,1.65s-.56,.75-1.19,.75c-1.05,0-1.05,.14-.28,.62s1.47,.07,2.67-1.51c.84-1.24,1.89-2.54,2.32-3.02,.35-.48,.7-1.44,.7-2.2s.28-2.13,.7-3.09c.35-.96,.35-1.92,.07-2.13-.35-.14-.84,1.1-1.12,2.81Z"/>
  <path d="M160.69,486.43c0,1.3,.14,1.85,.35,1.17,.14-.62,.14-1.72,0-2.4-.21-.62-.35-.07-.35,1.24Z"/>
  <path d="M244.77,487.26c0,1.37-.49,2.95-1.05,3.57-.56,.55-1.05,1.17-1.05,1.44,0,.89-3.93,4.25-5.47,4.74-.84,.27-1.4,.75-1.19,1.1,.42,.69,4.56-1.24,4.56-2.13,0-.34,.42-.62,.91-.62,.42-.07,1.54-1.51,2.39-3.29,2.11-4.46,2.25-5.28,1.54-6.38-.42-.69-.63-.21-.63,1.58Z"/>
  <path d="M1.94,489.73c0,1.03,1.89,4.12,3.58,5.76,.7,.69,1.47,.89,2.11,.48,.84-.48,.77-.62-.07-.62-1.12,0-1.61-.55-4.21-4.46-.77-1.17-1.4-1.65-1.4-1.17Z"/>
  <path d="M162.02,489.93c-.07,1.03,1.12,2.81,4.14,6.25,.56,.69,1.4,1.24,1.89,1.24s.91,.27,.91,.69c0,.34,.21,.62,.56,.55,.28,0,.98,.07,1.54,.34,2.11,.75,6.32,1.1,6.32,.41,0-.55-3.16-.96-5.4-.69-.49,.07-.91-.21-.91-.62,0-.34-.49-.69-1.05-.69s-1.05-.27-1.05-.69c0-.34-.56-.48-1.19-.21-.7,.21-1.05,.21-.77-.07,.21-.27-.07-1.1-.7-1.72-1.97-2.06-3.44-3.91-3.86-4.94-.28-.75-.42-.69-.42,.14Z"/>
  <path d="M109.32,491.03c0,.48,.49,1.24,1.05,1.85,.56,.55,1.05,1.24,1.05,1.44,0,.62,2.95,3.02,3.72,3.09,.35,0,1.05,.48,1.61,1.03,.63,.55,1.97,1.03,3.09,1.03s2.46,.21,3.09,.41,1.12,.14,1.12-.21-1.33-.69-2.88-.82c-1.61-.07-3.37-.55-3.93-1.1s-1.33-1.03-1.68-1.03c-.91,0-2.53-1.58-4.63-4.39-.91-1.1-1.61-1.72-1.61-1.3Z"/>
  <path d="M131.07,496.73c0,.41-.56,.69-1.19,.69-1.05,0-1.12,.14-.21,.69,.56,.34,1.19,.34,1.4,.07s.84-.69,1.33-.89c.84-.21,.84-.41-.14-.75-.63-.21-1.19-.14-1.19,.21Z"/>
  <path d="M183.22,497.21c-.91,.14-1.61,.55-1.61,.89s-.84,.75-1.89,.89q-1.82,.27,.35,.41c1.19,0,2.25-.21,2.25-.48,0-.34,.84-.89,1.97-1.3,1.97-.75,1.61-.89-1.05-.41Z"/>
  <path d="M221.96,497.48c.77,.48,1.54,1.1,1.75,1.3,.49,.69,6.32,1.17,6.32,.55,0-.34-1.26-.55-2.88-.55s-2.67-.27-2.39-.69c.21-.41,0-.69-.63-.69-.56,0-1.61-.21-2.32-.41-1.05-.34-1.05-.21,.14,.48Z"/>
  <path d="M126.02,499.27c.84,.14,2.11,.14,2.81,0,.63-.21-.07-.34-1.61-.27-1.54,0-2.11,.14-1.19,.27Z"/>
  <path d="M231.99,499.27c.84,.14,2.11,.14,2.81,0,.63-.21-.07-.34-1.61-.27-1.54,0-2.11,.14-1.19,.27Z"/>
</svg>